<svg width="148" height="15" viewBox="0 0 148 15" fill="none" xmlns="http://www.w3.org/2000/svg">
<path d="M6.6582 1.99219H0.929688V7.70703H6.6582V1.99219ZM2.20117 6.68164V3.04492H5.38672V6.68164H2.20117ZM2.31055 12.9023H10.5957V11.8496H3.60938V9.01953H2.31055V12.9023ZM8.77734 9.88086H10.0762V5.65625H11.8535V4.5625H10.0762V0.898438H8.77734V9.88086ZM19.8723 2.10156H18.3958L15.9348 3.71484V5.15039L18.3001 3.60547H18.3548V12H19.8723V2.10156ZM25.6523 1.96484C23.4989 1.95117 22.0976 3.42773 22.0976 5.31445C22.0976 7.20801 23.5195 8.56836 25.2968 8.56836C26.3632 8.56836 27.2929 8.0625 27.8261 7.22852H27.9491C27.9355 9.49121 27.04 10.8174 25.5155 10.8242C24.5175 10.8174 23.8749 10.2363 23.6698 9.40234H22.1796C22.4189 11.0088 23.6904 12.1367 25.5155 12.1367C27.8876 12.1367 29.3847 10.168 29.3847 6.69531C29.3779 3.07227 27.4706 1.97852 25.6523 1.96484ZM23.5605 5.28711C23.5536 4.15234 24.456 3.22266 25.6523 3.22266C26.8622 3.22266 27.7441 4.2002 27.7441 5.27344C27.7441 6.36719 26.8212 7.34473 25.6249 7.33789C24.4218 7.34473 23.5673 6.43555 23.5605 5.28711ZM34.1392 4.26172V2.0332H32.8814V4.31641C32.8882 6.40137 31.9722 8.56836 30.2427 9.60742L31.0494 10.5781C32.2388 9.85352 33.0865 8.52734 33.5308 6.97559C33.9546 8.39062 34.7271 9.61426 35.8755 10.3047L36.6002 9.30664C34.9595 8.30176 34.1392 6.2168 34.1392 4.26172ZM35.274 6.29883H37.1744V12.5605H38.4048V1.14453H37.1744V5.21875H35.274V6.29883ZM39.7037 13.1621H40.9478V0.912109H39.7037V13.1621ZM55.7889 0.912109H54.4901V13.1895H55.7889V0.912109ZM46.0682 6.12109C46.0682 8.7666 47.3875 10.4346 49.2401 10.4277C51.0584 10.4346 52.3983 8.7666 52.3983 6.12109C52.3983 3.50293 51.0584 1.83496 49.2401 1.82812C47.3875 1.83496 46.0682 3.50293 46.0682 6.12109ZM47.326 6.12109C47.3192 4.2002 48.0985 2.99707 49.2401 2.99023C50.3612 2.99707 51.1405 4.2002 51.1405 6.12109C51.1405 8.06934 50.3612 9.26562 49.2401 9.26562C48.0985 9.26562 47.3192 8.06934 47.326 6.12109ZM61.8286 2.86719V1.55469H60.5434V2.75781C60.5298 4.58984 59.4223 6.22363 57.5083 6.90039L58.2055 7.93945C59.6343 7.41309 60.6733 6.33301 61.2065 4.95898C61.7397 6.16895 62.7446 7.12598 64.0845 7.59766L64.7817 6.57227C62.9565 5.9707 61.8218 4.47363 61.8286 2.86719ZM59.1626 10.8652C59.1626 12.3145 60.728 13.1416 63.2778 13.1348C65.7934 13.1416 67.3384 12.3145 67.3384 10.8652C67.3384 9.42969 65.7934 8.58887 63.2778 8.5957C60.728 8.58887 59.1626 9.42969 59.1626 10.8652ZM60.4614 10.8652C60.4546 10.0859 61.5073 9.62109 63.2778 9.62109C65.0346 9.62109 66.0737 10.0859 66.0669 10.8652C66.0737 11.6719 65.0346 12.1094 63.2778 12.123C61.5073 12.1094 60.4546 11.6719 60.4614 10.8652ZM65.9302 8.30859H67.229V5.08203H69.0063V3.98828H67.229V0.912109H65.9302V8.30859ZM82.9998 0.912109H81.7009V7.48828H82.9998V0.912109ZM73.0877 4.31641C73.0945 5.99121 74.4753 7.16016 76.3552 7.14648C78.2283 7.16016 79.6091 5.99121 79.6091 4.31641C79.6091 2.63477 78.2283 1.46582 76.3552 1.47266C74.4753 1.46582 73.0945 2.63477 73.0877 4.31641ZM74.3591 4.31641C74.3523 3.27051 75.1931 2.55957 76.3552 2.56641C77.5037 2.55957 78.3377 3.27051 78.3377 4.31641C78.3377 5.37598 77.5037 6.08008 76.3552 6.08008C75.1931 6.08008 74.3523 5.37598 74.3591 4.31641ZM74.988 13.0117H82.9998V8.07617H81.7146V9.45703H76.2595V8.07617H74.988V13.0117ZM76.2595 11.9453V10.4824H81.7146V11.9453H76.2595ZM94.973 0.912109H93.6742V13.1621H94.973V0.912109ZM85.5531 10.0449H86.5785C88.5131 10.0518 90.4818 9.90137 92.6488 9.45703L92.4711 8.36328C90.5092 8.75977 88.6293 8.91699 86.8383 8.92383V2.10156H85.5531V10.0449ZM106.304 0.912109H105.005V13.1895H106.304V6.72266H108.272V5.65625H106.304V0.912109ZM97.2803 10.1406H98.2647C100.541 10.1475 102.168 10.0859 104.089 9.74414L103.925 8.65039C102.175 8.96484 100.637 9.05371 98.5791 9.06055V3.14062H103.009V2.08789H97.2803V10.1406ZM110.115 12.0957C110.641 12.0889 111.079 11.6582 111.086 11.125C111.079 10.5918 110.641 10.1543 110.115 10.1543C109.582 10.1543 109.137 10.5918 109.144 11.125C109.137 11.6582 109.582 12.0889 110.115 12.0957Z" fill="#1A1A1A"/>
<path d="M116.288 8.22656C116.302 10.8105 117.033 12.9502 118.311 14.7891H119.651C118.708 13.4287 117.806 10.6738 117.806 8.22656C117.806 5.78613 118.708 3.03125 119.651 1.67773H118.311C117.033 3.50977 116.302 5.64941 116.288 8.22656ZM130.599 0.912109H129.287V7.24219H130.599V0.912109ZM120.619 5.83398L120.769 6.87305C122.922 6.87988 125.773 6.79102 128.22 6.42188L128.166 5.47852C127.612 5.54688 127.024 5.60156 126.429 5.64258V2.74414H127.605V1.71875H120.947V2.74414H122.109V5.82031C121.589 5.82715 121.084 5.83398 120.619 5.83398ZM122.464 8.82812H129.314V9.89453H122.505V13.0391H131.023V12H123.777V10.8379H130.599V7.80273H122.464V8.82812ZM123.353 5.79297V2.74414H125.185V5.71777C124.57 5.75195 123.955 5.77246 123.353 5.79297ZM138.649 1.99219V1.32227H137.295V1.99219C137.288 3.63965 135.306 5.14355 132.906 5.46484L133.426 6.53125C135.415 6.20996 137.172 5.1709 137.972 3.72852C138.772 5.1709 140.529 6.20996 142.531 6.53125L143.037 5.46484C140.631 5.14355 138.642 3.61914 138.649 1.99219ZM132.373 8.80078H137.295V13.1621H138.567V8.80078H143.543V7.73438H132.373V8.80078ZM147.696 8.22656C147.682 5.64941 146.951 3.50977 145.673 1.67773H144.333C145.276 3.03125 146.179 5.78613 146.179 8.22656C146.179 10.6738 145.276 13.4287 144.333 14.7891H145.673C146.951 12.9502 147.682 10.8105 147.696 8.22656Z" fill="#F49393"/>
</svg>
