<svg width="182" height="15" viewBox="0 0 182 15" fill="none" xmlns="http://www.w3.org/2000/svg">
<path d="M10.5957 0.912109H9.29688V13.1895H10.5957V0.912109ZM0.875 6.12109C0.875 8.7666 2.19434 10.4346 4.04688 10.4277C5.86523 10.4346 7.20508 8.7666 7.20508 6.12109C7.20508 3.50293 5.86523 1.83496 4.04688 1.82812C2.19434 1.83496 0.875 3.50293 0.875 6.12109ZM2.13281 6.12109C2.12598 4.2002 2.90527 2.99707 4.04688 2.99023C5.16797 2.99707 5.94727 4.2002 5.94727 6.12109C5.94727 8.06934 5.16797 9.26562 4.04688 9.26562C2.90527 9.26562 2.12598 8.06934 2.13281 6.12109ZM22.8561 0.912109H21.6256V10.209H22.8561V0.912109ZM12.9303 7.93945H17.7291V5.46484H19.233V9.82617H20.4635V1.13086H19.233V4.41211H17.7291V1.88281H16.526V3.89258H14.1608V1.88281H12.9303V7.93945ZM14.1608 6.88672V4.89062H16.526V6.88672H14.1608ZM14.735 12.9023H23.2116V11.8496H16.0202V8.95117H14.735V12.9023ZM34.3098 7.43359H27.0911V5.65625H33.927V4.63086H27.0911V2.97656H34.1868V1.92383H25.7786V8.47266H34.3098V7.43359ZM24.3704 11.6172H35.5813V10.5508H24.3704V11.6172ZM40.5409 1.63672H39.2421L36.0566 13.4902H37.3554L40.5409 1.63672ZM51.5845 0.912109H50.3404V13.1621H51.5845V0.912109ZM41.0162 3.98828H47.0318V2.93555H44.6802V1.22656H43.3814V2.93555H41.0162V3.98828ZM41.4127 7.59766C41.4058 9.28613 42.5064 10.4619 43.9966 10.4688C45.1041 10.4619 45.9791 9.83984 46.3755 8.85547H48.0298V12.5742H49.233V1.1582H48.0298V5H46.4302V6.06641H48.0298V7.81641H46.6011C46.608 7.74121 46.608 7.67285 46.608 7.59766C46.608 5.90234 45.5211 4.7334 43.9966 4.72656C42.5064 4.7334 41.4058 5.90234 41.4127 7.59766ZM42.5474 7.59766C42.5406 6.53125 43.149 5.84082 43.9966 5.83398C44.8648 5.84082 45.4732 6.53125 45.4869 7.59766C45.4732 8.65039 44.8648 9.35449 43.9966 9.34766C43.149 9.35449 42.5406 8.65039 42.5474 7.59766ZM58.2941 1.78711H53.509V7.76172H54.302C56.2502 7.76855 57.4191 7.71387 58.8547 7.44727L58.7316 6.38086C57.467 6.62012 56.3937 6.68164 54.7531 6.69531V5.20508H58.1574V4.20703H54.7531V2.83984H58.2941V1.78711ZM55.1223 10.0039H62.1633V13.1621H63.4484V8.95117H55.1223V10.0039ZM59.4973 8.26758H60.7141V5.0957H62.218V8.36328H63.4484V0.925781H62.218V4.04297H60.7141V1.14453H59.4973V8.26758ZM78.4536 0.912109H77.1548V4.0293H74.8716V5.0957H77.1548V8.19922H78.4536V0.912109ZM68.2407 7.0918L68.9243 8.13086C70.3872 7.59082 71.4604 6.49023 71.9936 5.12305C72.5268 6.33301 73.5386 7.31738 74.9126 7.78906L75.5825 6.76367C73.73 6.13477 72.6225 4.62402 72.6294 3.07227V2.8125H75.2544V1.75977H68.6509V2.8125H71.3032V3.08594C71.31 4.77441 70.1411 6.42871 68.2407 7.0918ZM70.2094 10.8516C70.2026 12.3076 71.7749 13.1553 74.352 13.1621C76.9155 13.1553 78.4878 12.3076 78.4946 10.8516C78.4878 9.39551 76.9155 8.54785 74.352 8.54102C71.7749 8.54785 70.2026 9.39551 70.2094 10.8516ZM71.4946 10.8516C71.4878 10.0176 72.5542 9.5459 74.352 9.55273C76.1362 9.5459 77.2026 10.0176 77.2094 10.8516C77.2026 11.6787 76.1362 12.1504 74.352 12.1367C72.5542 12.1504 71.4878 11.6787 71.4946 10.8516ZM91.4112 10.5645H86.421V8.04883H90.0851V1.74609H88.7999V3.85156H82.7843V1.74609H81.4855V8.04883H85.1359V10.5645H80.2003V11.6445H91.4112V10.5645ZM82.7843 6.99609V4.9043H88.7999V6.99609H82.7843ZM101.713 1.99219V1.32227H100.36V1.99219C100.353 3.63965 98.3705 5.14355 95.9711 5.46484L96.4906 6.53125C98.4799 6.20996 100.237 5.1709 101.037 3.72852C101.836 5.1709 103.593 6.20996 105.596 6.53125L106.102 5.46484C103.696 5.14355 101.706 3.61914 101.713 1.99219ZM95.4379 8.80078H100.36V13.1621H101.631V8.80078H106.608V7.73438H95.4379V8.80078ZM117.556 0.925781H116.257V9.89453H117.556V0.925781ZM107.466 7.13281L108.163 8.1582C109.599 7.60449 110.658 6.46973 111.198 5.04785C111.745 6.37402 112.791 7.41309 114.206 7.93945L114.876 6.90039C112.982 6.24414 111.848 4.60352 111.855 2.8125V1.5957H110.528V2.8125C110.522 4.6582 109.387 6.42188 107.466 7.13281ZM109.544 12.9023H117.925V11.8496H110.856V9.04688H109.544V12.9023ZM133.819 6.87305H128.856V5.57422H132.52V4.53516H125.315V2.49805H132.438V1.47266H124.03V5.57422H127.598V6.87305H122.635V7.91211H133.819V6.87305ZM123.961 10.9336C123.961 12.3555 125.554 13.1553 128.213 13.1621C130.852 13.1553 132.431 12.3555 132.438 10.9336C132.431 9.51172 130.852 8.71191 128.213 8.70508C125.554 8.71191 123.961 9.51172 123.961 10.9336ZM125.274 10.9336C125.267 10.1611 126.34 9.7168 128.213 9.7168C130.059 9.7168 131.139 10.1611 131.139 10.9336C131.139 11.7197 130.059 12.1504 128.213 12.1367C126.34 12.1504 125.267 11.7197 125.274 10.9336ZM138.587 1.78711C136.659 1.78027 135.244 2.97656 135.251 4.69922C135.244 6.42188 136.659 7.61816 138.587 7.625C140.521 7.61816 141.916 6.42188 141.923 4.69922C141.916 2.97656 140.521 1.78027 138.587 1.78711ZM134.663 9.4707L134.827 10.5508C137.015 10.5508 139.988 10.5371 142.757 10.0039L142.661 9.06055C139.981 9.4502 136.892 9.4707 134.663 9.4707ZM136.536 4.69922C136.522 3.62598 137.397 2.9082 138.587 2.9082C139.776 2.9082 140.651 3.62598 140.651 4.69922C140.651 5.78613 139.776 6.49023 138.587 6.49023C137.397 6.49023 136.522 5.78613 136.536 4.69922ZM143.427 13.1895H144.726V0.912109H143.427V13.1895Z" fill="#1A1A1A"/>
<path d="M150.571 8.22656C150.584 10.8105 151.316 12.9502 152.594 14.7891H153.934C152.99 13.4287 152.088 10.6738 152.088 8.22656C152.088 5.78613 152.99 3.03125 153.934 1.67773H152.594C151.316 3.50977 150.584 5.64941 150.571 8.22656ZM159.016 3.1543V1.66406H157.731V3.11328C157.724 4.95898 156.59 6.66113 154.682 7.33789L155.38 8.36328C156.822 7.80957 157.868 6.69531 158.394 5.28711C158.921 6.55176 159.926 7.56348 161.259 8.07617L161.97 7.06445C160.124 6.41504 159.023 4.81543 159.016 3.1543ZM156.911 12.9023H165.182V11.8496H158.224V9.0332H156.911V12.9023ZM161.026 4.78125H163.61V10.0586H164.909V0.925781H163.61V3.71484H161.026V4.78125ZM171.947 1.78711H167.162V7.76172H167.955C169.903 7.76855 171.072 7.71387 172.507 7.44727L172.384 6.38086C171.12 6.62012 170.046 6.68164 168.406 6.69531V5.20508H171.81V4.20703H168.406V2.83984H171.947V1.78711ZM168.775 10.0039H175.816V13.1621H177.101V8.95117H168.775V10.0039ZM173.15 8.26758H174.367V5.0957H175.871V8.36328H177.101V0.925781H175.871V4.04297H174.367V1.14453H173.15V8.26758ZM181.979 8.22656C181.965 5.64941 181.234 3.50977 179.955 1.67773H178.615C179.559 3.03125 180.461 5.78613 180.461 8.22656C180.461 10.6738 179.559 13.4287 178.615 14.7891H179.955C181.234 12.9502 181.965 10.8105 181.979 8.22656Z" fill="#F49393"/>
</svg>
