<svg width="181" height="15" viewBox="0 0 181 15" fill="none" xmlns="http://www.w3.org/2000/svg">
<path d="M10.9375 0.912109H9.69336V5.75195H8.17578V1.24023H6.95898V12.5742H8.17578V6.80469H9.69336V13.1621H10.9375V0.912109ZM0.410156 9.66211L1.16211 10.5645C4.66895 8.58887 5.73535 5.69043 5.74219 2.4707H0.929688V3.53711H4.47754C4.27246 6.03223 3.13086 8.11719 0.410156 9.66211ZM22.569 0.925781H21.2702V9.82617H22.569V0.925781ZM12.6569 4.78125C12.6637 6.5791 14.0719 7.83008 15.9245 7.83008C17.7702 7.83008 19.1784 6.5791 19.1784 4.78125C19.1784 3.01074 17.7702 1.75293 15.9245 1.74609C14.0719 1.75293 12.6637 3.01074 12.6569 4.78125ZM13.9284 4.78125C13.9215 3.65332 14.7829 2.88086 15.9245 2.88086C17.0455 2.88086 17.9069 3.65332 17.9069 4.78125C17.9069 5.93652 17.0455 6.69531 15.9245 6.69531C14.7829 6.69531 13.9215 5.93652 13.9284 4.78125ZM14.5573 12.9023H22.9381V11.8496H15.8698V8.92383H14.5573V12.9023ZM34.5833 0.912109H33.2845V4.0293H31.0012V5.0957H33.2845V8.19922H34.5833V0.912109ZM24.3704 7.0918L25.054 8.13086C26.5169 7.59082 27.5901 6.49023 28.1233 5.12305C28.6565 6.33301 29.6682 7.31738 31.0423 7.78906L31.7122 6.76367C29.8596 6.13477 28.7522 4.62402 28.7591 3.07227V2.8125H31.3841V1.75977H24.7805V2.8125H27.4329V3.08594C27.4397 4.77441 26.2708 6.42871 24.3704 7.0918ZM26.3391 10.8516C26.3323 12.3076 27.9046 13.1553 30.4817 13.1621C33.0452 13.1553 34.6175 12.3076 34.6243 10.8516C34.6175 9.39551 33.0452 8.54785 30.4817 8.54102C27.9046 8.54785 26.3323 9.39551 26.3391 10.8516ZM27.6243 10.8516C27.6175 10.0176 28.6839 9.5459 30.4817 9.55273C32.2659 9.5459 33.3323 10.0176 33.3391 10.8516C33.3323 11.6787 32.2659 12.1504 30.4817 12.1367C28.6839 12.1504 27.6175 11.6787 27.6243 10.8516ZM47.5409 10.5645H42.5507V8.04883H46.2148V1.74609H44.9296V3.85156H38.914V1.74609H37.6152V8.04883H41.2655V10.5645H36.33V11.6445H47.5409V10.5645ZM38.914 6.99609V4.9043H44.9296V6.99609H38.914ZM57.843 1.99219V1.32227H56.4895V1.99219C56.4826 3.63965 54.5002 5.14355 52.1008 5.46484L52.6203 6.53125C54.6096 6.20996 56.3664 5.1709 57.1662 3.72852C57.966 5.1709 59.7229 6.20996 61.7258 6.53125L62.2316 5.46484C59.8254 5.14355 57.8361 3.61914 57.843 1.99219ZM51.5676 8.80078H56.4895V13.1621H57.7609V8.80078H62.7375V7.73438H51.5676V8.80078ZM68.0662 2.86719V2.73047H70.7596V1.67773H64.0057V2.73047H66.7537V2.86719C66.7469 4.47363 65.5575 5.97754 63.6502 6.55859L64.3065 7.58398C65.7762 7.09863 66.87 6.08691 67.4168 4.79492C67.9774 5.99805 69.0575 6.92773 70.4862 7.36523L71.1424 6.35352C69.2557 5.7998 68.0662 4.3916 68.0662 2.86719ZM65.6737 13.0117H73.6854V8.11719H72.4002V9.48438H66.9452V8.11719H65.6737V13.0117ZM66.9452 11.959V10.5098H72.4002V11.959H66.9452ZM72.3866 7.54297H73.6854V0.912109H72.3866V7.54297ZM85.2316 1.69141H79.4073V6.72266H85.2316V1.69141ZM80.214 12.123L80.6652 13.1211C82.5929 12.8887 84.1993 12.082 84.9513 10.9883C85.6896 12.0684 87.2755 12.8887 89.1964 13.1211L89.6339 12.123C87.4054 11.877 85.7032 10.7559 85.6144 9.68945H89.1964V8.70508H85.587V7.55664H84.3019V8.70508H80.7062V9.68945H84.2745C84.1857 10.79 82.4425 11.9043 80.214 12.123ZM80.6788 5.71094V2.73047H83.9464V5.71094H80.6788ZM87.6241 7.91211H88.9093V0.912109H87.6241V7.91211ZM104.147 0.912109H102.848V13.1895H104.147V0.912109ZM94.4262 6.12109C94.4262 8.7666 95.7455 10.4346 97.598 10.4277C99.4164 10.4346 100.756 8.7666 100.756 6.12109C100.756 3.50293 99.4164 1.83496 97.598 1.82812C95.7455 1.83496 94.4262 3.50293 94.4262 6.12109ZM95.684 6.12109C95.6771 4.2002 96.4564 2.99707 97.598 2.99023C98.7191 2.99707 99.4984 4.2002 99.4984 6.12109C99.4984 8.06934 98.7191 9.26562 97.598 9.26562C96.4564 9.26562 95.6771 8.06934 95.684 6.12109ZM117.132 6.88672H114.425V5.24609C115.375 4.85645 115.908 4.24121 115.915 3.42773C115.908 1.97168 114.227 1.12402 111.54 1.13086C108.847 1.12402 107.158 1.97168 107.165 3.42773C107.158 4.24121 107.691 4.85645 108.642 5.23926V6.88672H105.962V7.93945H117.132V6.88672ZM107.288 10.9473C107.288 12.3623 108.874 13.1348 111.54 13.1348C114.172 13.1348 115.758 12.3623 115.765 10.9473C115.758 9.5459 114.172 8.77344 111.54 8.77344C108.874 8.77344 107.288 9.5459 107.288 10.9473ZM108.505 3.42773C108.498 2.60742 109.633 2.13574 111.54 2.12891C113.434 2.13574 114.582 2.60742 114.575 3.42773C114.582 4.24805 113.434 4.70605 111.54 4.71289C109.633 4.70605 108.498 4.24805 108.505 3.42773ZM108.601 10.9473C108.594 10.1953 109.667 9.77148 111.54 9.77148C113.386 9.77148 114.466 10.1953 114.466 10.9473C114.466 11.7129 113.386 12.1504 111.54 12.1367C109.667 12.1504 108.594 11.7129 108.601 10.9473ZM109.954 6.88672V5.58789C110.433 5.65625 110.966 5.69727 111.54 5.69727C112.121 5.69727 112.661 5.65625 113.14 5.58105V6.88672H109.954ZM132.383 6.87305H127.42V5.57422H131.084V4.53516H123.879V2.49805H131.002V1.47266H122.594V5.57422H126.162V6.87305H121.2V7.91211H132.383V6.87305ZM122.526 10.9336C122.526 12.3555 124.118 13.1553 126.778 13.1621C129.416 13.1553 130.995 12.3555 131.002 10.9336C130.995 9.51172 129.416 8.71191 126.778 8.70508C124.118 8.71191 122.526 9.51172 122.526 10.9336ZM123.838 10.9336C123.831 10.1611 124.905 9.7168 126.778 9.7168C128.623 9.7168 129.703 10.1611 129.703 10.9336C129.703 11.7197 128.623 12.1504 126.778 12.1367C124.905 12.1504 123.831 11.7197 123.838 10.9336ZM137.151 1.78711C135.224 1.78027 133.809 2.97656 133.815 4.69922C133.809 6.42188 135.224 7.61816 137.151 7.625C139.086 7.61816 140.48 6.42188 140.487 4.69922C140.48 2.97656 139.086 1.78027 137.151 1.78711ZM133.227 9.4707L133.392 10.5508C135.579 10.5508 138.553 10.5371 141.321 10.0039L141.226 9.06055C138.546 9.4502 135.456 9.4707 133.227 9.4707ZM135.101 4.69922C135.087 3.62598 135.962 2.9082 137.151 2.9082C138.341 2.9082 139.216 3.62598 139.216 4.69922C139.216 5.78613 138.341 6.49023 137.151 6.49023C135.962 6.49023 135.087 5.78613 135.101 4.69922ZM141.991 13.1895H143.29V0.912109H141.991V13.1895Z" fill="#1A1A1A"/>
<path d="M149.258 7.89844C149.258 10.3252 149.907 12.3418 151.131 14.0645H152.471C151.521 12.7861 150.769 10.1953 150.762 7.89844C150.769 5.60156 151.521 3.00391 152.471 1.73242H151.131C149.907 3.45508 149.258 5.47168 149.258 7.89844ZM163.446 0.912109H162.134V7.24219H163.446V0.912109ZM153.466 5.83398L153.616 6.87305C155.769 6.87988 158.62 6.79102 161.067 6.42188L161.013 5.47852C160.459 5.54688 159.871 5.60156 159.276 5.64258V2.74414H160.452V1.71875H153.794V2.74414H154.956V5.82031C154.436 5.82715 153.931 5.83398 153.466 5.83398ZM155.311 8.82812H162.161V9.89453H155.352V13.0391H163.87V12H156.624V10.8379H163.446V7.80273H155.311V8.82812ZM156.2 5.79297V2.74414H158.032V5.71777C157.417 5.75195 156.802 5.77246 156.2 5.79297ZM171.496 1.99219V1.32227H170.142V1.99219C170.135 3.63965 168.153 5.14355 165.753 5.46484L166.273 6.53125C168.262 6.20996 170.019 5.1709 170.819 3.72852C171.619 5.1709 173.376 6.20996 175.378 6.53125L175.884 5.46484C173.478 5.14355 171.489 3.61914 171.496 1.99219ZM165.22 8.80078H170.142V13.1621H171.414V8.80078H176.39V7.73438H165.22V8.80078ZM180.42 7.89844C180.42 5.47168 179.771 3.45508 178.547 1.73242H177.207C178.157 3.01074 178.909 5.60156 178.916 7.89844C178.909 10.1953 178.157 12.793 177.207 14.0645H178.547C179.771 12.3418 180.42 10.3252 180.42 7.89844Z" fill="#F49393"/>
</svg>
