<svg width="150" height="15" viewBox="0 0 150 15" fill="none" xmlns="http://www.w3.org/2000/svg">
<path d="M4.86719 4.0293V1.9375H3.55469V4.0293C3.54785 6.29883 2.2832 8.65723 0.382812 9.56641L1.20312 10.6191C2.61816 9.8877 3.68457 8.39746 4.22461 6.63379C4.76465 8.30859 5.81738 9.68945 7.20508 10.3867L7.99805 9.34766C6.125 8.50684 4.86719 6.27148 4.86719 4.0293ZM6.64453 6.03906H9.37891V13.1895H10.6641V0.912109H9.37891V4.98633H6.64453V6.03906ZM22.5553 0.912109H21.2565V13.1895H22.5553V0.912109ZM13.0944 10.25H18.9733V1.9375H17.6881V5.08203H14.3932V1.9375H13.0944V10.25ZM14.3932 9.18359V6.10742H17.6881V9.18359H14.3932ZM30.5911 2.64844V1.71875H29.2239V2.64844C29.2171 4.64453 27.1048 6.51758 24.7805 6.95508L25.3548 8.03516C27.3167 7.59766 29.1145 6.31934 29.9212 4.60352C30.7141 6.32617 32.512 7.61133 34.4739 8.03516L35.0755 6.95508C32.7171 6.53125 30.5911 4.64453 30.5911 2.64844ZM24.3704 11.5488H35.5813V10.4688H24.3704V11.5488ZM49.7525 0.912109H48.4537V13.1895H49.7525V0.912109ZM40.0318 6.12109C40.0318 8.7666 41.3511 10.4346 43.2037 10.4277C45.022 10.4346 46.3619 8.7666 46.3619 6.12109C46.3619 3.50293 45.022 1.83496 43.2037 1.82812C41.3511 1.83496 40.0318 3.50293 40.0318 6.12109ZM41.2896 6.12109C41.2828 4.2002 42.0621 2.99707 43.2037 2.99023C44.3248 2.99707 45.1041 4.2002 45.1041 6.12109C45.1041 8.06934 44.3248 9.26562 43.2037 9.26562C42.0621 9.26562 41.2828 8.06934 41.2896 6.12109ZM62.7375 6.88672H60.0305V5.24609C60.9807 4.85645 61.5139 4.24121 61.5207 3.42773C61.5139 1.97168 59.8322 1.12402 57.1457 1.13086C54.4523 1.12402 52.7639 1.97168 52.7707 3.42773C52.7639 4.24121 53.2971 4.85645 54.2473 5.23926V6.88672H51.5676V7.93945H62.7375V6.88672ZM52.8937 10.9473C52.8937 12.3623 54.4797 13.1348 57.1457 13.1348C59.7775 13.1348 61.3635 12.3623 61.3703 10.9473C61.3635 9.5459 59.7775 8.77344 57.1457 8.77344C54.4797 8.77344 52.8937 9.5459 52.8937 10.9473ZM54.1105 3.42773C54.1037 2.60742 55.2385 2.13574 57.1457 2.12891C59.0393 2.13574 60.1877 2.60742 60.1809 3.42773C60.1877 4.24805 59.0393 4.70605 57.1457 4.71289C55.2385 4.70605 54.1037 4.24805 54.1105 3.42773ZM54.2062 10.9473C54.1994 10.1953 55.2727 9.77148 57.1457 9.77148C58.9914 9.77148 60.0715 10.1953 60.0715 10.9473C60.0715 11.7129 58.9914 12.1504 57.1457 12.1367C55.2727 12.1504 54.1994 11.7129 54.2062 10.9473ZM55.5598 6.88672V5.58789C56.0383 5.65625 56.5715 5.69727 57.1457 5.69727C57.7268 5.69727 58.2668 5.65625 58.7453 5.58105V6.88672H55.5598ZM74.8885 2.70312H73.1522V0.912109H71.8534V8.17188H73.1522V6.42188H74.8885V5.32812H73.1522V3.76953H74.8885V2.70312ZM63.7186 4.54883C63.7049 6.27832 65.0995 7.47461 66.9725 7.47461C68.8524 7.47461 70.2264 6.27832 70.2401 4.54883C70.2264 2.83301 68.8524 1.62305 66.9725 1.62305C65.0995 1.62305 63.7049 2.83301 63.7186 4.54883ZM64.9901 4.54883C64.9764 3.45508 65.8241 2.7373 66.9725 2.73047C68.1209 2.7373 68.9618 3.45508 68.9686 4.54883C68.9618 5.64941 68.1209 6.38086 66.9725 6.36719C65.8241 6.38086 64.9764 5.64941 64.9901 4.54883ZM65.0584 9.77148H71.8534V13.1621H73.1522V8.71875H65.0584V9.77148ZM82.3091 1.8418H76.1294V2.9082H81.0307C81.0171 3.68066 80.9761 4.67188 80.7094 6.02539L81.9946 6.14844C82.2954 4.5625 82.2954 3.3457 82.3091 2.52539V1.8418ZM75.3911 7.20117L75.5141 8.25391C77.6743 8.24707 80.6001 8.19922 83.1567 7.74805L83.0747 6.80469C81.8442 6.98242 80.4907 7.07812 79.1782 7.13281V4.58984H77.893V7.17383C76.9975 7.19434 76.143 7.20117 75.3911 7.20117ZM77.2505 12.9023H85.5766V11.8496H78.5493V9.2793H77.2505V12.9023ZM83.854 10.1133H85.1802V5.90234H86.8618V4.80859H85.1802V0.912109H83.854V10.1133ZM101.908 6.87305H96.9451V5.57422H100.609V4.53516H93.4041V2.49805H100.527V1.47266H92.1189V5.57422H95.6873V6.87305H90.7244V7.91211H101.908V6.87305ZM92.0505 10.9336C92.0505 12.3555 93.6433 13.1553 96.3025 13.1621C98.9412 13.1553 100.52 12.3555 100.527 10.9336C100.52 9.51172 98.9412 8.71191 96.3025 8.70508C93.6433 8.71191 92.0505 9.51172 92.0505 10.9336ZM93.363 10.9336C93.3562 10.1611 94.4295 9.7168 96.3025 9.7168C98.1482 9.7168 99.2283 10.1611 99.2283 10.9336C99.2283 11.7197 98.1482 12.1504 96.3025 12.1367C94.4295 12.1504 93.3562 11.7197 93.363 10.9336ZM106.676 1.78711C104.748 1.78027 103.333 2.97656 103.34 4.69922C103.333 6.42188 104.748 7.61816 106.676 7.625C108.611 7.61816 110.005 6.42188 110.012 4.69922C110.005 2.97656 108.611 1.78027 106.676 1.78711ZM102.752 9.4707L102.916 10.5508C105.104 10.5508 108.078 10.5371 110.846 10.0039L110.75 9.06055C108.071 9.4502 104.981 9.4707 102.752 9.4707ZM104.625 4.69922C104.612 3.62598 105.487 2.9082 106.676 2.9082C107.866 2.9082 108.741 3.62598 108.741 4.69922C108.741 5.78613 107.866 6.49023 106.676 6.49023C105.487 6.49023 104.612 5.78613 104.625 4.69922ZM111.516 13.1895H112.815V0.912109H111.516V13.1895Z" fill="#1A1A1A"/>
<path d="M118.783 7.89844C118.783 10.3252 119.432 12.3418 120.656 14.0645H121.996C121.046 12.7861 120.294 10.1953 120.287 7.89844C120.294 5.60156 121.046 3.00391 121.996 1.73242H120.656C119.432 3.45508 118.783 5.47168 118.783 7.89844ZM132.971 0.912109H131.659V7.24219H132.971V0.912109ZM122.991 5.83398L123.141 6.87305C125.294 6.87988 128.145 6.79102 130.592 6.42188L130.537 5.47852C129.984 5.54688 129.396 5.60156 128.801 5.64258V2.74414H129.977V1.71875H123.319V2.74414H124.481V5.82031C123.961 5.82715 123.455 5.83398 122.991 5.83398ZM124.836 8.82812H131.686V9.89453H124.877V13.0391H133.395V12H126.149V10.8379H132.971V7.80273H124.836V8.82812ZM125.725 5.79297V2.74414H127.557V5.71777C126.942 5.75195 126.326 5.77246 125.725 5.79297ZM141.02 1.99219V1.32227H139.667V1.99219C139.66 3.63965 137.678 5.14355 135.278 5.46484L135.798 6.53125C137.787 6.20996 139.544 5.1709 140.344 3.72852C141.144 5.1709 142.9 6.20996 144.903 6.53125L145.409 5.46484C143.003 5.14355 141.014 3.61914 141.02 1.99219ZM134.745 8.80078H139.667V13.1621H140.938V8.80078H145.915V7.73438H134.745V8.80078ZM149.945 7.89844C149.945 5.47168 149.296 3.45508 148.072 1.73242H146.732C147.682 3.01074 148.434 5.60156 148.441 7.89844C148.434 10.1953 147.682 12.793 146.732 14.0645H148.072C149.296 12.3418 149.945 10.3252 149.945 7.89844Z" fill="#F49393"/>
</svg>
