<svg width="124" height="77" viewBox="0 0 124 77" fill="none" xmlns="http://www.w3.org/2000/svg">
<g clip-path="url(#clip0_2_277)">
<path d="M51.0357 45.0398L50.6975 58.8641C50.6975 58.8641 43.0677 61.9898 43.8329 66.0495L58.0117 62.603L55.7337 43.6466L51.0357 45.0398Z" fill="#EAAD29"/>
<path d="M78.6674 39.2362L86.0461 50.9432C86.0461 50.9432 94.2037 49.7331 95.6308 53.6119L81.6814 57.8893L73.918 40.4367L78.6674 39.2362Z" fill="#EAAD29"/>
<path d="M51.0357 45.0398L50.6975 58.8641C50.6975 58.8641 43.0677 61.9898 43.8329 66.0495L58.0117 62.603L55.7337 43.6466L51.0357 45.0398Z" fill="#DD5656"/>
<path d="M78.6674 39.2362L86.0461 50.9432C86.0461 50.9432 94.2037 49.7331 95.6308 53.6119L81.6814 57.8893L73.918 40.4367L78.6674 39.2362Z" fill="#DD5656"/>
<path d="M23.5896 24.3329L91.4947 8.47156L98.7074 40.1841L31.4785 56.226L23.5896 24.3329Z" fill="#E76B6B"/>
<path d="M10.419 38.61L5.0216 44.4625C3.88642 45.6912 4.41823 47.6788 6.01269 48.1816L13.3173 50.4894C13.6184 44.5596 11.8725 40.7286 10.416 38.6104L10.419 38.61Z" fill="#403E3D"/>
<path d="M23.5895 24.3329L10.419 38.61C11.8725 40.7286 13.6214 44.5592 13.3203 50.4889L31.4815 56.2255L23.5895 24.3329Z" fill="#F8E8D7"/>
<path d="M92.3317 8.45388L100.639 6.36259C100.639 6.36259 112.574 2.92256 116.87 17.843C116.87 17.843 122.03 34.0836 110.368 37.1309L98.707 40.1811L92.3317 8.45388Z" fill="#EEC485"/>
<path d="M90.658 8.23179L98.3002 40.7925L106.274 38.7906L98.421 6.37755L90.658 8.23179Z" fill="#9C9998"/>
<path d="M60.5425 32.1559C60.8676 33.6033 59.9563 35.0397 58.5025 35.3651C57.0488 35.6906 55.6075 34.7847 55.2825 33.3373C54.9574 31.8899 55.8687 30.4535 57.3224 30.1281C58.7761 29.8026 60.2174 30.7085 60.5425 32.1559Z" fill="white"/>
<path d="M59.9731 32.5842C60.2801 33.9463 59.421 35.2996 58.053 35.607C56.6849 35.9143 55.327 35.0604 55.0199 33.6983C54.7129 32.3362 55.572 30.9828 56.9401 30.6755C58.3082 30.3681 59.6661 31.2221 59.9731 32.5842Z" fill="#403E3D"/>
<path d="M68.4734 31.4913C68.7662 30.0374 67.8203 28.6237 66.3608 28.3338C64.9012 28.044 63.4806 28.9876 63.1878 30.4415C62.895 31.8954 63.8409 33.3091 65.3004 33.599C66.76 33.8888 68.1806 32.9452 68.4734 31.4913Z" fill="white"/>
<path d="M67.9272 30.7485C68.2342 32.1106 67.3751 33.4639 66.007 33.7713C64.6389 34.0787 63.281 33.2247 62.974 31.8626C62.667 30.5005 63.5261 29.1471 64.8942 28.8398C66.2622 28.5324 67.6201 29.3864 67.9272 30.7485Z" fill="#403E3D"/>
<path d="M60.9739 35.8748C60.9739 35.8748 63.0452 37.4978 64.6298 35.0521" stroke="#403E3D" stroke-width="2" stroke-linecap="round" stroke-linejoin="round"/>
<path d="M75.4291 9.4212C75.1837 9.29821 74.841 9.3918 74.7222 9.65077C74.3871 10.3823 73.9612 11.0963 73.524 11.7726C73.2964 12.1226 73.1348 12.3573 72.8872 12.6949C72.6418 13.0262 72.3857 13.3469 72.1165 13.6603C71.8631 13.9564 71.5995 14.2448 71.3256 14.5256C71.0249 14.8313 70.8131 15.0337 70.4751 15.269C70.1644 15.4822 69.952 15.5939 69.5786 15.6857C69.5637 15.6878 69.4602 15.7084 69.487 15.7047C69.4721 15.7067 69.4542 15.7093 69.4393 15.7114C69.3588 15.7227 69.2774 15.7281 69.196 15.7334C69.1236 15.7376 69.0504 15.7357 68.9771 15.7339C68.9622 15.736 68.9311 15.7313 68.9128 15.7308C68.8787 15.7265 68.8451 15.7252 68.811 15.7209C68.6654 15.702 68.5181 15.6712 68.3756 15.6307C68.3279 15.6162 68.2803 15.6017 68.2326 15.5872C68.2296 15.5876 68.2262 15.5851 68.2198 15.5829C68.1394 15.5518 68.0556 15.5182 67.9774 15.4807C67.831 15.4135 67.6928 15.339 67.5563 15.2552C67.5364 15.2429 67.5198 15.2331 67.4998 15.2208C67.53 15.2407 67.4322 15.1727 67.4224 15.168C67.3646 15.1247 67.3068 15.0813 67.2486 15.035C67.5345 14.5587 67.7974 14.0705 68.0208 13.5606C68.3834 12.7434 68.7088 11.8769 68.8084 10.9847C68.9107 10.089 68.816 9.09078 68.2324 8.35812C67.9074 7.94953 67.4636 7.64848 66.93 7.61747C66.4241 7.58863 66.0025 7.87806 65.7279 8.28311C65.4785 8.65129 65.3371 9.09516 65.1983 9.51443C65.0621 9.93031 64.9574 10.3539 64.8872 10.7847C64.6434 12.3181 64.8666 13.9494 65.815 15.1789C65.7645 15.2526 65.7141 15.3264 65.6632 15.3971C65.4284 15.7178 65.1835 16.0309 64.9139 16.3201C64.7951 16.4489 64.6691 16.5696 64.5427 16.6873C64.5321 16.6978 64.5239 16.705 64.5158 16.7122C64.5128 16.7127 64.5077 16.7194 64.4996 16.7266C64.4642 16.7558 64.4262 16.7884 64.3877 16.8181C64.3058 16.8841 64.22 16.9446 64.1342 17.0051C64.0647 17.0512 63.9921 17.0978 63.9192 17.1414C63.8799 17.165 63.8373 17.1862 63.795 17.2103C63.7809 17.2183 63.7754 17.2221 63.7724 17.2225C63.7635 17.2238 63.7609 17.2272 63.7494 17.2318C63.5775 17.3075 63.4036 17.3683 63.2241 17.4117C63.2152 17.4129 63.2122 17.4133 63.2063 17.4142C63.1526 17.4217 63.0959 17.4297 63.0422 17.4372C62.9613 17.4456 62.8795 17.448 62.7973 17.4474C62.7607 17.4465 62.721 17.446 62.6844 17.4451C62.6785 17.446 62.6691 17.4442 62.6597 17.4425C62.5635 17.4288 62.4699 17.4117 62.3724 17.389C62.3064 17.3741 62.2396 17.3532 62.1728 17.3323C62.1502 17.3233 62.089 17.2986 62.0826 17.2965C62.0503 17.2829 62.0179 17.2692 61.9852 17.2527C61.9039 17.2156 61.8253 17.1752 61.7487 17.1284C61.719 17.1114 61.6858 17.0918 61.656 17.0748C61.6458 17.0671 61.5953 17.0319 61.5787 17.0221C61.5617 17.0093 61.5443 16.9936 61.5273 16.9808C62.1405 16.1072 62.656 15.1656 63.0201 14.1635C63.3051 13.3784 63.5191 12.5639 63.5999 11.7318C63.6895 10.7895 63.5523 9.74879 62.7154 9.16077C62.2971 8.86825 61.8149 8.74825 61.3116 8.86745C60.8496 8.97782 60.4619 9.31396 60.1721 9.67571C59.6211 10.3649 59.2856 11.2025 59.1302 12.0663C58.9749 12.93 58.9603 13.8437 59.1005 14.7113C59.2374 15.5552 59.5157 16.3883 60.0346 17.0725C59.7931 17.3669 59.5414 17.6537 59.2761 17.9302C59.0164 18.2029 58.7456 18.4621 58.4681 18.7161C58.4113 18.7665 58.3575 18.8164 58.3007 18.8668C58.2874 18.8808 58.2793 18.888 58.2712 18.8952C58.2631 18.9024 58.255 18.9096 58.2413 18.9206C58.2144 18.9456 58.1841 18.968 58.1572 18.993C58.0052 19.1234 57.8494 19.2482 57.6902 19.3706C57.0345 19.8776 56.3975 20.2791 55.6404 20.5188C55.553 20.5462 55.4652 20.5706 55.3773 20.5951C55.3275 20.6082 55.2802 20.6178 55.2303 20.6309C55.2154 20.633 55.2064 20.6343 55.2035 20.6347C55.1945 20.6359 55.1856 20.6372 55.1736 20.6389C54.9742 20.6699 54.7731 20.6891 54.5695 20.6905C54.5299 20.69 54.4873 20.6899 54.4477 20.6894C54.4418 20.6902 54.3557 20.6842 54.3311 20.6816C54.2663 20.6755 54.2012 20.6665 54.1361 20.6575C53.9649 20.6301 53.7947 20.5874 53.6291 20.5349C53.6134 20.5311 53.5649 20.5106 53.5555 20.5089C53.5364 20.5025 53.5168 20.4932 53.4977 20.4868C53.4173 20.4557 53.339 20.4182 53.2607 20.3808C53.1042 20.3058 52.952 20.2182 52.8049 20.1238C52.7951 20.1191 52.7917 20.1166 52.7849 20.1115C52.7845 20.1085 52.7781 20.1064 52.7713 20.1013C52.7343 20.0762 52.7003 20.0507 52.6659 20.0222C52.6013 19.9737 52.5397 19.9248 52.4806 19.8726C52.422 19.8233 52.3719 19.7697 52.3188 19.7166C53.165 18.7043 53.8069 17.4935 54.0244 16.2061C54.1622 15.3902 54.128 14.541 53.8654 13.7542C53.6027 12.9673 53.0417 12.1134 52.1609 11.9495C51.2861 11.7847 50.5664 12.3553 50.2005 13.1063C49.8282 13.8764 49.7498 14.7687 49.7253 15.611C49.6832 17.0646 50.0099 18.5451 50.84 19.7337C50.7836 19.787 50.7302 19.84 50.6734 19.8903C50.6384 19.9225 50.6008 19.9581 50.5628 19.9907C50.5658 19.9903 50.4467 20.0948 50.4873 20.0589C49.904 20.5618 49.2503 20.9959 48.5627 21.3409C48.5456 21.3493 48.5371 21.3536 48.5256 21.3582C48.5256 21.3582 48.5196 21.359 48.5 21.3709C48.4544 21.3924 48.4117 21.4136 48.3657 21.4322C48.277 21.4719 48.1853 21.512 48.0932 21.5492C47.912 21.6231 47.7269 21.6915 47.541 21.754C47.1893 21.8701 46.8189 21.9615 46.5096 22.011C46.1316 22.0702 45.7495 22.0997 45.3687 22.0957C45.2742 22.0938 45.1762 22.0894 45.0817 22.0875C45.0757 22.0884 45.051 22.0858 45.0387 22.0845C45.014 22.0819 44.9893 22.0793 44.9616 22.0772C44.7828 22.0599 44.6061 22.0363 44.4286 22.0067C44.0229 21.9335 43.6225 21.8111 43.2353 21.6535C43.0121 21.5365 42.7892 21.4224 42.5728 21.2893C42.5328 21.2646 42.4929 21.24 42.4525 21.2123C42.4393 21.2051 42.3717 21.1571 42.3517 21.1447C42.2735 21.0861 42.1953 21.0274 42.1197 20.9653C41.9102 20.7949 41.7114 20.6139 41.5233 20.4223C41.3207 20.2145 41.204 20.0765 41.0228 19.8263C40.8714 19.6144 40.7276 19.3923 40.6129 19.1601C40.6074 19.1427 40.5553 19.0319 40.5502 19.0175C40.5278 18.9661 40.508 18.9114 40.4855 18.86C40.4319 18.7161 40.3961 18.5697 40.3424 18.4259C40.2464 18.1759 40.0003 18.0257 39.7339 18.0783C39.494 18.1241 39.2573 18.3664 39.2975 18.6303C39.397 19.2735 39.741 19.9035 40.1212 20.4225C40.4864 20.9223 40.932 21.3655 41.4177 21.7485C41.8384 22.08 42.304 22.3416 42.8056 22.5346C42.9822 22.6007 43.1775 22.6701 43.3796 22.7235C44.5574 23.1394 45.8277 23.1971 47.0759 22.946C48.7588 22.6065 50.2904 21.7098 51.5353 20.5475C52.1143 21.0961 52.8324 21.51 53.6113 21.7064C54.4846 21.9259 55.4186 21.8189 56.2564 21.5043C57.1172 21.1804 57.896 20.6621 58.6026 20.0843C59.26 19.5467 59.881 18.9657 60.4462 18.3351C60.5804 18.186 60.7082 18.0348 60.8356 17.8806C61.2776 18.2122 61.7858 18.4527 62.3333 18.5393C63.2414 18.6812 64.1362 18.404 64.8699 17.8678C65.5681 17.3608 66.125 16.692 66.6168 15.993C67.128 16.3845 67.7316 16.6752 68.3607 16.8018C69.2023 16.9682 70.0366 16.8237 70.7844 16.4097C71.5656 15.9728 72.203 15.2714 72.788 14.6077C73.3914 13.9233 73.9425 13.1917 74.4336 12.4231C74.6655 12.0604 74.8868 11.687 75.0919 11.3069C75.2966 10.9238 75.4659 10.5275 75.6451 10.1359C75.7642 9.87986 75.6774 9.56498 75.4154 9.43221L75.4291 9.4212ZM51.5156 13.1577C51.4917 13.1822 51.4994 13.1721 51.5156 13.1577V13.1577ZM51.3605 13.3309C51.3605 13.3309 51.3682 13.3207 51.3605 13.3309V13.3309ZM50.8598 15.3517C50.8689 15.1565 50.8785 15.0522 50.9047 14.8275C50.9262 14.6336 50.9536 14.439 50.9937 14.2486C51.0222 14.1053 51.0635 13.9662 51.1082 13.8297C51.1078 13.8268 51.1074 13.8238 51.1099 13.8204C51.1095 13.8174 51.1121 13.814 51.1168 13.8043C51.1327 13.7657 51.146 13.7305 51.1618 13.692C51.194 13.6178 51.23 13.5491 51.2655 13.4775C51.2852 13.4445 51.3049 13.4114 51.3242 13.3754C51.3293 13.3686 51.334 13.3589 51.3417 13.3487C51.3857 13.294 51.4298 13.2394 51.4772 13.1873C51.4904 13.1733 51.5041 13.1623 51.5143 13.1488C51.5199 13.145 51.525 13.1382 51.531 13.1373C51.5673 13.1141 51.6035 13.0908 51.6368 13.068C51.6428 13.0671 51.6424 13.0642 51.6479 13.0603C51.6539 13.0595 51.6539 13.0595 51.6628 13.0582C51.6893 13.0515 51.7182 13.0414 51.7443 13.0317C51.7472 13.0312 51.7502 13.0308 51.7532 13.0304C51.7868 13.0317 51.9142 13.029 51.8946 13.0196C51.9257 13.0243 51.9538 13.0295 51.9819 13.0346C52.0006 13.038 52.0423 13.0534 52.0517 13.0551C52.0679 13.0619 52.084 13.0687 52.1002 13.0755C52.1134 13.0828 52.1797 13.1219 52.2061 13.1364C52.2299 13.1542 52.2749 13.1933 52.2711 13.1878C52.2953 13.2086 52.3229 13.232 52.3476 13.2558C52.3442 13.2532 52.3832 13.2932 52.4049 13.3174C52.4235 13.342 52.4635 13.3879 52.4596 13.3824C52.508 13.4452 52.5504 13.5089 52.5932 13.5756C52.6166 13.6117 52.6373 13.6512 52.6577 13.6877C52.6657 13.7017 52.6734 13.7127 52.6772 13.7182C52.6784 13.7272 52.6822 13.7327 52.6869 13.7441C52.7546 13.9012 52.8163 14.0591 52.864 14.225C52.8872 14.3035 52.907 14.3795 52.9272 14.4584C52.9264 14.4525 52.9381 14.5144 52.9457 14.5467C52.9498 14.5764 52.962 14.6413 52.9641 14.6561C52.9875 14.8224 53.0049 14.9896 53.0104 15.1584C53.0135 15.2458 53.0141 15.3366 53.0113 15.4248C53.0103 15.4613 53.009 15.4948 53.008 15.5313C53.0084 15.5342 53.004 15.5894 53.0018 15.6169C52.9693 15.9698 52.8997 16.3188 52.7982 16.6571C52.7092 16.9543 52.6066 17.22 52.4438 17.5549C52.2806 17.8867 52.0948 18.2096 51.8853 18.5147C51.875 18.5282 51.8652 18.5448 51.8626 18.5481C51.8293 18.5922 51.7963 18.6392 51.763 18.6833C51.7198 18.7439 51.6732 18.8019 51.627 18.8629C51.5999 18.8213 51.5702 18.7831 51.5464 18.744C51.3625 18.4307 51.2339 18.1217 51.1111 17.724C50.9828 17.309 50.93 17.0196 50.8856 16.5958C50.8425 16.1809 50.8356 15.7639 50.8564 15.3491L50.8598 15.3517ZM62.0318 10.0534C61.9821 10.024 62.0084 10.0385 62.0318 10.0534V10.0534ZM61.2969 10.1264C61.2807 10.1408 61.2585 10.156 61.2969 10.1264V10.1264ZM60.1567 13.094C60.159 13.0453 60.1613 12.9965 60.164 12.9507C60.1623 12.9388 60.164 12.9295 60.1658 12.9202C60.1741 12.8281 60.182 12.7331 60.1934 12.6407C60.2182 12.4494 60.2494 12.2603 60.29 12.0729C60.4376 11.3919 60.7039 10.7548 61.1773 10.2492C61.217 10.2072 61.2568 10.1653 61.2999 10.1259C61.308 10.1187 61.3106 10.1154 61.3246 10.1073C61.3549 10.0849 61.3882 10.062 61.4185 10.0396C61.4215 10.0392 61.5034 9.99436 61.5145 9.98674C61.561 9.97113 61.6407 9.95387 61.6339 9.94877C61.6607 9.945 61.691 9.94377 61.7182 9.94297C61.7336 9.94384 61.7736 9.9473 61.8017 9.95244C61.8204 9.95587 61.8396 9.96226 61.8587 9.96865C61.8715 9.97292 61.9102 9.98868 61.9234 9.99591C61.9595 10.0151 61.9957 10.0342 62.0288 10.0538C62.0322 10.0563 62.0386 10.0585 62.042 10.061C62.104 10.1129 62.1631 10.1651 62.22 10.2238C62.2272 10.2318 62.2349 10.2429 62.2387 10.2484C62.27 10.2985 62.3074 10.3478 62.3392 10.4008C62.3434 10.4093 62.3472 10.4148 62.3506 10.4174C62.3519 10.4263 62.3523 10.4293 62.3599 10.4403C62.3743 10.4777 62.3921 10.5176 62.4035 10.5553C62.4195 10.6046 62.4356 10.6538 62.4486 10.7034C62.4503 10.7153 62.4634 10.765 62.4663 10.7858C62.4972 10.9843 62.5047 11.1892 62.4965 11.3903C62.4905 11.5425 62.4727 11.6753 62.4435 11.8792C62.4175 12.0616 62.3854 12.2448 62.347 12.4258C62.2749 12.7782 62.181 13.1275 62.068 13.4705C62.0431 13.5527 62.0147 13.6324 61.9864 13.7121C61.9821 13.7249 61.9757 13.7439 61.9735 13.7503C61.9581 13.7918 61.94 13.8368 61.9246 13.8783C61.8555 14.0576 61.7805 14.2378 61.699 14.4158C61.5524 14.7362 61.3931 15.0524 61.2201 15.3583C61.1273 15.5198 61.0344 15.6812 60.9347 15.8376C60.8898 15.9075 60.8453 15.9804 60.7974 16.0507C60.7849 16.0706 60.7696 16.091 60.7576 16.1138C60.4295 15.5542 60.2589 14.9029 60.1947 14.2729C60.1549 13.8817 60.1424 13.4898 60.1601 13.0966L60.1567 13.094ZM63.2092 17.4138C63.1355 17.4302 63.1824 17.4175 63.2092 17.4138V17.4138ZM66.3479 13.9502C66.3479 13.9502 66.3225 13.8992 66.3098 13.8737C66.2929 13.8398 66.2696 13.7825 66.2705 13.7884C66.2298 13.6942 66.1922 13.5995 66.1575 13.5045C66.0882 13.3143 66.0364 13.1187 65.9901 12.9193C65.9893 12.9133 65.9843 12.8777 65.9796 12.8662C65.975 12.8336 65.9705 12.8009 65.9659 12.7682C65.9488 12.6464 65.9321 12.5277 65.9209 12.4051C65.9044 12.2226 65.8968 12.039 65.8982 11.854C65.901 11.6356 65.9121 11.4553 65.9288 11.2925C65.9755 10.8892 66.0533 10.4906 66.1596 10.1001C66.2638 9.71598 66.3562 9.42134 66.5199 9.07126C66.5504 9.00641 66.5842 8.94411 66.6214 8.88437C66.6317 8.87081 66.6778 8.80981 66.6804 8.80642C66.6962 8.78905 66.715 8.77127 66.7308 8.75391C66.7419 8.74629 66.7581 8.73189 66.7671 8.73064C66.7901 8.72134 66.7982 8.71415 66.8008 8.71076C66.8068 8.70992 66.8157 8.70866 66.8276 8.70698C66.8217 8.70782 66.8127 8.70908 66.8038 8.71034C66.8097 8.7095 66.8157 8.70866 66.8276 8.70698C66.8336 8.70615 66.8336 8.70615 66.8366 8.70573C66.8545 8.70321 66.8634 8.70195 66.869 8.69815C66.8754 8.70028 66.8817 8.70241 66.8975 8.70625C67.0047 8.73358 67.1128 8.78805 67.1956 8.85818C67.3409 8.98312 67.3914 9.06083 67.5011 9.2574C67.5015 9.26037 67.5143 9.28584 67.5223 9.29986C67.5401 9.33976 67.5579 9.37966 67.5726 9.41998C67.6052 9.5002 67.6318 9.58126 67.6529 9.66613C67.6655 9.71281 67.6781 9.75949 67.6878 9.80659C67.6895 9.81847 67.6903 9.82441 67.6907 9.82738C67.692 9.83628 67.6932 9.84519 67.6949 9.85707C67.7083 9.95211 67.7216 10.0471 67.726 10.1434C67.7542 10.5604 67.7198 10.8136 67.633 11.2347C67.4245 12.218 66.9927 13.2357 66.4683 14.1573C66.4289 14.0932 66.3835 14.03 66.3466 13.9625L66.3479 13.9502ZM68.2037 15.5761C68.1811 15.5672 68.162 15.5608 68.2037 15.5761V15.5761Z" fill="#403E3D"/>
</g>
<defs>
<clipPath id="clip0_2_277">
<rect width="115.911" height="60.1939" fill="white" transform="translate(0 17) rotate(-8.0003)"/>
</clipPath>
</defs>
</svg>
