<svg width="205" height="85" viewBox="0 0 205 85" fill="none" xmlns="http://www.w3.org/2000/svg">
<g filter="url(#filter0_d_2_2141)">
<rect x="7" y="5" width="191" height="60" rx="15" fill="white"/>
<path d="M180.358 74.9007C181.662 75.6796 183.324 74.7784 183.383 73.2609L184.213 51.7407C184.273 50.1917 182.624 49.1665 181.261 49.9054L161.943 60.3801C160.58 61.119 160.54 63.0602 161.87 63.8552L180.358 74.9007Z" fill="white"/>
<path d="M29.432 21.08C29.624 20.824 29.8053 20.872 29.976 21.224C30.104 21.48 30.168 21.8267 30.168 22.264V22.936L30.76 22.84C31.208 22.776 31.5333 22.744 31.736 22.744C31.8747 22.744 31.9973 22.7813 32.104 22.856C32.2213 22.92 32.296 23 32.328 23.096C32.36 23.192 32.3493 23.304 32.296 23.432C32.2427 23.528 32.1573 23.592 32.04 23.624C31.9333 23.6453 31.72 23.6507 31.4 23.64C31.0587 23.64 30.52 23.704 29.784 23.832C29.048 23.96 28.52 24.088 28.2 24.216C28.104 24.248 27.9973 24.2533 27.88 24.232C27.7627 24.2 27.6507 24.152 27.544 24.088C27.448 24.0133 27.4 23.9387 27.4 23.864C27.4 23.7147 27.4853 23.5973 27.656 23.512C27.8373 23.4267 28.136 23.3573 28.552 23.304L29.352 23.208L29.32 22.232C29.288 21.592 29.3253 21.208 29.432 21.08ZM34.6 23.688C34.6747 23.6027 34.7653 23.56 34.872 23.56C34.9893 23.5493 35.0747 23.5867 35.128 23.672C35.2027 23.7787 35.2347 24.6907 35.224 26.408C35.2133 28.1253 35.176 29.016 35.112 29.08C35.0053 29.1867 34.8773 29.2133 34.728 29.16C34.5787 29.1067 34.4827 28.9947 34.44 28.824C34.3867 28.6427 34.3493 28.3493 34.328 27.944V27.4L33.848 27.496C33.528 27.56 33.2027 27.5973 32.872 27.608C32.7227 27.608 32.6107 27.6027 32.536 27.592C32.472 27.5813 32.424 27.56 32.392 27.528C32.36 27.4853 32.3387 27.4267 32.328 27.352C32.3173 27.2347 32.344 27.1387 32.408 27.064C32.472 26.9893 32.5893 26.9253 32.76 26.872C32.9413 26.8187 33.2187 26.7547 33.592 26.68L34.44 26.536V26.04C34.44 25.8907 34.4293 25.784 34.408 25.72C34.3973 25.6453 34.3707 25.592 34.328 25.56C34.296 25.5173 34.232 25.4853 34.136 25.464C33.912 25.4107 33.6133 25.4373 33.24 25.544C32.9093 25.64 32.6693 25.6667 32.52 25.624C32.3813 25.5707 32.312 25.448 32.312 25.256C32.312 25.0213 32.3973 24.8613 32.568 24.776C32.7387 24.68 33.0587 24.6213 33.528 24.6C33.9547 24.5893 34.2053 24.568 34.28 24.536C34.3547 24.504 34.4027 24.3973 34.424 24.216C34.456 23.9707 34.5147 23.7947 34.6 23.688ZM29.288 24.632C29.5547 24.4293 29.784 24.328 29.976 24.328C30.168 24.3173 30.44 24.3973 30.792 24.568C31.0267 24.6853 31.192 24.8027 31.288 24.92C31.3947 25.0373 31.496 25.224 31.592 25.48C31.7627 25.9707 31.8373 26.4293 31.816 26.856C31.7947 27.272 31.6827 27.6187 31.48 27.896C31.032 28.4827 30.4933 28.7707 29.864 28.76C29.2453 28.7387 28.728 28.4187 28.312 27.8C28.0133 27.3733 27.96 26.8453 28.152 26.216C28.344 25.576 28.7227 25.048 29.288 24.632ZM30.872 25.544C30.776 25.3307 30.5893 25.2133 30.312 25.192C30.1413 25.1707 30.0027 25.1867 29.896 25.24C29.7893 25.2933 29.6453 25.416 29.464 25.608C28.9307 26.184 28.7547 26.7067 28.936 27.176C29.1067 27.6347 29.3573 27.8907 29.688 27.944C30.0187 27.9867 30.36 27.816 30.712 27.432C30.9147 27.208 31.0373 27.0427 31.08 26.936C31.1227 26.8293 31.128 26.6533 31.096 26.408C31.0533 26.0453 30.9787 25.7573 30.872 25.544ZM31.16 29.912C31.3413 29.6987 31.5547 29.6667 31.8 29.816C31.9067 29.8907 31.928 30.184 31.864 30.696C31.8107 31.1867 31.816 31.4373 31.88 31.448L32.008 31.4C32.168 31.3467 32.4667 31.2827 32.904 31.208C33.352 31.144 33.752 31.1013 34.104 31.08C34.4667 31.0587 34.696 31.064 34.792 31.096C35.0693 31.3307 35.0427 31.5333 34.712 31.704C34.5307 31.8 34.2853 31.864 33.976 31.896C33.7093 31.928 33.176 32.0187 32.376 32.168C31.928 32.2533 31.64 32.296 31.512 32.296C31.384 32.296 31.272 32.2533 31.176 32.168C31.048 32.0293 30.9787 31.656 30.968 31.048C30.9573 30.44 31.0213 30.0613 31.16 29.912ZM44.713 23.88C44.7983 23.8267 44.9263 23.8053 45.097 23.816C45.2143 23.8373 45.2837 23.88 45.305 23.944C45.337 24.008 45.3477 24.1467 45.337 24.36C45.3263 24.5947 45.289 25.6293 45.225 27.464C45.225 27.4747 45.225 27.4853 45.225 27.496C45.1823 28.7867 45.1397 29.5493 45.097 29.784C45.065 30.0187 44.9743 30.168 44.825 30.232C44.633 30.3173 44.505 30.3333 44.441 30.28C44.3877 30.2267 44.3343 29.6613 44.281 28.584L44.233 27L43.801 27.016C43.5557 27.016 43.273 27.0533 42.953 27.128L42.521 27.192L42.569 28.472C42.5797 29.048 42.5743 29.4107 42.553 29.56C42.5317 29.6987 42.4677 29.7787 42.361 29.8C42.201 29.832 42.0357 29.768 41.865 29.608C41.8543 29.5973 41.8383 29.5813 41.817 29.56C41.7103 29.4853 41.657 29.32 41.657 29.064C41.657 28.808 41.705 27.9653 41.801 26.536C41.8223 26.2267 41.8383 25.9813 41.849 25.8C41.881 25.3093 41.9183 24.9573 41.961 24.744C42.0037 24.5307 42.0623 24.3813 42.137 24.296C42.2117 24.2107 42.3237 24.168 42.473 24.168C42.697 24.168 42.825 24.2427 42.857 24.392C42.889 24.5307 42.8517 24.8453 42.745 25.336C42.6277 25.9013 42.617 26.1893 42.713 26.2C43.001 26.2213 43.3103 26.216 43.641 26.184C43.9823 26.1413 44.185 26.088 44.249 26.024C44.345 25.9173 44.425 25.5493 44.489 24.92C44.553 24.3013 44.6277 23.9547 44.713 23.88ZM39.113 24.248C39.1237 24.216 39.3103 24.2053 39.673 24.216C39.897 24.2267 40.0463 24.248 40.121 24.28C40.1957 24.312 40.2383 24.3867 40.249 24.504C40.3023 24.8347 40.0303 25.384 39.433 26.152C39.145 26.504 39.001 26.7333 39.001 26.84C39.001 26.9253 39.129 27.1173 39.385 27.416C39.6517 27.704 39.8917 27.9173 40.105 28.056C40.3503 28.2267 40.4517 28.5093 40.409 28.904C40.409 28.9573 40.377 29 40.313 29.032C40.249 29.064 40.1797 29.08 40.105 29.08C39.8063 29.08 39.3157 28.6533 38.633 27.8L38.377 27.496L38.009 27.928C37.7423 28.2373 37.5557 28.5253 37.449 28.792C37.353 28.9733 37.2677 29.0907 37.193 29.144C37.1183 29.1867 36.9957 29.1973 36.825 29.176C36.5583 29.1547 36.4143 29.0693 36.393 28.92C36.3503 28.728 37.049 27.7787 38.489 26.072C38.713 25.7947 38.8623 25.592 38.937 25.464C39.0117 25.3253 39.0117 25.2293 38.937 25.176C38.8623 25.112 38.7183 25.096 38.505 25.128C38.2917 25.1493 37.961 25.208 37.513 25.304C36.809 25.4427 36.3557 25.5067 36.153 25.496C35.961 25.4747 35.865 25.368 35.865 25.176C35.865 24.9733 36.0037 24.8187 36.281 24.712C36.5583 24.5947 37.049 24.4987 37.753 24.424C38.5957 24.328 39.049 24.2693 39.113 24.248ZM56.9595 24.04C57.0235 23.944 57.1408 23.9067 57.3115 23.928C57.4822 23.9493 57.5942 24.0187 57.6475 24.136C57.7222 24.2747 57.7275 24.808 57.6635 25.736C57.5782 26.7813 57.5248 27.848 57.5035 28.936C57.4928 29.6613 57.4715 30.152 57.4395 30.408C57.4075 30.664 57.3488 30.8133 57.2635 30.856C57.1462 30.9413 57.0075 30.9573 56.8475 30.904C56.7408 30.8613 56.6822 30.68 56.6715 30.36C56.6608 30.04 56.6768 29.1547 56.7195 27.704C56.7728 26.0933 56.8102 25.1067 56.8315 24.744C56.8528 24.3813 56.8955 24.1467 56.9595 24.04ZM51.8075 24.424C52.2982 24.2853 52.8262 24.2213 53.3915 24.232C53.9675 24.2427 54.3355 24.3227 54.4955 24.472C54.6022 24.5787 54.6662 25.2613 54.6875 26.52C54.7195 27.768 54.6875 28.44 54.5915 28.536C54.5275 28.6 53.9195 28.7173 52.7675 28.888C51.9888 28.984 51.5035 29.032 51.3115 29.032C51.1195 29.032 50.9915 28.984 50.9275 28.888C50.7675 28.664 50.6662 28.008 50.6235 26.92C50.5808 25.8213 50.6235 25.16 50.7515 24.936C50.8688 24.7653 51.2208 24.5947 51.8075 24.424ZM53.6955 25.112C53.5675 25.0693 53.4715 25.048 53.4075 25.048C53.3968 25.0587 53.3542 25.0693 53.2795 25.08C53.2155 25.0907 53.1248 25.1067 53.0075 25.128C52.8902 25.1493 52.7835 25.1653 52.6875 25.176C52.0262 25.2827 51.6422 25.3947 51.5355 25.512C51.4288 25.6293 51.3755 25.9973 51.3755 26.616C51.3755 27.2987 51.3968 27.7093 51.4395 27.848C51.4928 27.976 51.8608 28.0187 52.5435 27.976C53.2048 27.944 53.6048 27.9067 53.7435 27.864C53.8395 27.832 53.8875 27.3787 53.8875 26.504C53.8875 25.9707 53.8715 25.6133 53.8395 25.432C53.8182 25.2507 53.7702 25.144 53.6955 25.112ZM60.5461 22.296C60.9088 22.2533 61.4048 22.2107 62.0341 22.168C62.2048 22.1573 62.3381 22.2373 62.4341 22.408C62.5301 22.5787 62.5355 22.744 62.4501 22.904C62.4075 22.9787 62.3008 23.0267 62.1301 23.048C61.9595 23.0587 61.6341 23.0587 61.1541 23.048C60.3755 23.016 59.8581 23.0587 59.6021 23.176C59.3461 23.2933 59.1915 23.5707 59.1381 24.008C59.0955 24.3813 59.1061 24.6693 59.1701 24.872C59.2341 25.0107 59.2981 25.0853 59.3621 25.096C59.4261 25.096 59.6288 25.0533 59.9701 24.968C60.4501 24.8507 60.9675 24.792 61.5221 24.792C61.7888 24.792 61.9861 24.7973 62.1141 24.808C62.2528 24.8187 62.3541 24.84 62.4181 24.872C62.4821 24.904 62.5301 24.9573 62.5621 25.032C62.7008 25.2773 62.5568 25.448 62.1301 25.544C61.9168 25.5973 61.5968 25.64 61.1701 25.672C60.3701 25.7573 59.8528 25.8373 59.6181 25.912C59.4475 25.9867 59.3408 26.0507 59.2981 26.104C59.2555 26.1573 59.2501 26.248 59.2821 26.376C59.3035 26.5253 59.3355 26.616 59.3781 26.648C59.4315 26.6693 59.5541 26.664 59.7461 26.632C60.9408 26.4293 61.7621 26.328 62.2101 26.328C62.6581 26.328 62.8981 26.4293 62.9301 26.632C62.9301 26.6427 62.9301 26.6533 62.9301 26.664C62.9515 26.7707 62.9035 26.8507 62.7861 26.904C62.6155 26.968 61.8048 27.144 60.3541 27.432L60.3381 27.448H60.3221H60.3061H60.2901H60.2741L60.2581 27.464H60.2421H60.2261H60.2101H60.1941L60.1781 27.48H60.1621H60.1461H60.1301H60.1141L60.0981 27.496H60.0821C59.6235 27.592 59.3195 27.64 59.1701 27.64C59.0315 27.64 58.9248 27.6027 58.8501 27.528C58.6368 27.3253 58.4768 26.3493 58.3701 24.6C58.3488 24.344 58.3381 24.1307 58.3381 23.96C58.3381 23.7893 58.3488 23.624 58.3701 23.464C58.3915 23.2933 58.4181 23.16 58.4501 23.064C58.4821 22.968 58.5408 22.8773 58.6261 22.792C58.7115 22.696 58.8021 22.6267 58.8981 22.584C58.9941 22.5413 59.1275 22.4987 59.2981 22.456C59.4688 22.4133 59.6501 22.3813 59.8421 22.36C60.0341 22.3387 60.2688 22.3173 60.5461 22.296ZM64.0341 23.096C64.0768 22.9787 64.1728 22.9147 64.3221 22.904C64.4715 22.8933 64.5888 22.9413 64.6741 23.048C64.7275 23.1333 64.7541 23.9227 64.7541 25.416C64.7648 26.9093 64.7435 27.688 64.6901 27.752C64.6475 27.784 64.5141 27.7627 64.2901 27.688L63.9541 27.56V25.432C63.9541 24.024 63.9808 23.2453 64.0341 23.096ZM62.7701 28.392C62.9941 28.3707 63.1328 28.3493 63.1861 28.328C63.2288 28.3067 63.3195 28.3387 63.4581 28.424C63.6075 28.4987 63.7621 28.6107 63.9221 28.76C64.0821 28.8987 64.2048 29.032 64.2901 29.16C64.4395 29.3627 64.5355 29.5333 64.5781 29.672C64.6208 29.8107 64.6368 30.04 64.6261 30.36C64.6155 30.6693 64.5835 30.9093 64.5301 31.08C64.4768 31.2507 64.3755 31.4373 64.2261 31.64C63.7248 32.3333 63.1328 32.6053 62.4501 32.456C62.1088 32.3813 61.7568 32.2 61.3941 31.912C61.0315 31.6347 60.7808 31.336 60.6421 31.016C60.4821 30.696 60.4288 30.4027 60.4821 30.136C60.5355 29.8587 60.7008 29.5653 60.9781 29.256C61.0741 29.1387 61.1648 29.0427 61.2501 28.968C61.3355 28.8933 61.4261 28.8293 61.5221 28.776C61.6288 28.712 61.7408 28.6587 61.8581 28.616C61.9861 28.5627 62.1195 28.52 62.2581 28.488C62.4075 28.456 62.5781 28.424 62.7701 28.392ZM63.5861 29.544C63.4155 29.3413 63.2501 29.224 63.0901 29.192C62.9301 29.1493 62.7008 29.1813 62.4021 29.288C62.1995 29.352 62.0128 29.4427 61.8421 29.56C61.6821 29.6773 61.5541 29.8107 61.4581 29.96C61.3621 30.0987 61.3141 30.232 61.3141 30.36C61.3141 30.5627 61.4581 30.8187 61.7461 31.128C62.0341 31.4373 62.3008 31.6187 62.5461 31.672C62.7168 31.704 62.8501 31.6987 62.9461 31.656C63.0528 31.6133 63.2021 31.4907 63.3941 31.288C63.5648 31.1067 63.6768 30.9573 63.7301 30.84C63.7941 30.712 63.8261 30.5467 63.8261 30.344C63.8261 30.024 63.7461 29.7573 63.5861 29.544ZM67.3965 21.176C67.4818 21.0907 67.5992 21.0427 67.7485 21.032C67.8978 21.0213 67.9938 21.0587 68.0365 21.144C68.0898 21.1973 68.1432 21.4907 68.1965 22.024L68.2765 22.808L69.0445 22.696C69.6738 22.6213 70.0685 22.5947 70.2285 22.616C70.3885 22.6373 70.5112 22.7333 70.5965 22.904C70.6925 23.1067 70.6925 23.2667 70.5965 23.384C70.5112 23.5013 70.3512 23.5333 70.1165 23.48C69.9672 23.448 69.5032 23.496 68.7245 23.624C67.9458 23.7413 67.2152 23.8853 66.5325 24.056C65.7858 24.248 65.4125 24.1573 65.4125 23.784C65.4125 23.6667 65.4445 23.576 65.5085 23.512C65.5832 23.4373 65.7165 23.3627 65.9085 23.288C66.2712 23.1707 66.6072 23.1227 66.9165 23.144H67.3965L67.3325 22.232C67.2685 21.624 67.2898 21.272 67.3965 21.176ZM72.0845 23.544C72.1272 23.4587 72.2552 23.416 72.4685 23.416H72.7885L72.7405 24.504L72.7085 25.608H73.3965C73.7805 25.608 74.0418 25.64 74.1805 25.704C74.3298 25.7573 74.4045 25.8747 74.4045 26.056C74.4045 26.216 74.3458 26.328 74.2285 26.392C74.1112 26.4453 73.9138 26.4667 73.6365 26.456C73.3272 26.4453 73.0605 26.4773 72.8365 26.552C72.6872 26.616 72.5965 26.6853 72.5645 26.76C72.5432 26.824 72.5538 26.984 72.5965 27.24C72.6498 27.656 72.6498 27.944 72.5965 28.104C72.5645 28.2747 72.4525 28.3973 72.2605 28.472C72.0685 28.536 71.9352 28.5093 71.8605 28.392C71.7858 28.296 71.7698 27.576 71.8125 26.232C71.8552 25.1973 71.8925 24.52 71.9245 24.2C71.9565 23.8693 72.0098 23.6507 72.0845 23.544ZM67.3485 24.76C67.7432 24.5573 67.9992 24.456 68.1165 24.456C68.2445 24.4453 68.4952 24.5093 68.8685 24.648C69.4125 24.84 69.7805 25.064 69.9725 25.32C70.1752 25.5653 70.2818 25.9333 70.2925 26.424C70.3245 27.2347 69.9032 27.8427 69.0285 28.248C68.6765 28.4187 68.3565 28.52 68.0685 28.552C67.7805 28.5733 67.4552 28.5307 67.0925 28.424C66.6872 28.3173 66.3938 28.152 66.2125 27.928C66.0312 27.704 65.9245 27.384 65.8925 26.968C65.8605 26.6267 65.8605 26.392 65.8925 26.264C65.9245 26.136 66.0418 25.9387 66.2445 25.672C66.5005 25.32 66.8685 25.016 67.3485 24.76ZM69.2045 25.56C68.9378 25.3147 68.5752 25.2453 68.1165 25.352C67.6578 25.4587 67.2472 25.704 66.8845 26.088C66.7458 26.2267 66.6605 26.344 66.6285 26.44C66.6072 26.536 66.6125 26.68 66.6445 26.872C66.7298 27.224 66.9645 27.4853 67.3485 27.656C67.7432 27.8267 68.1112 27.8213 68.4525 27.64C68.9645 27.384 69.2952 27.048 69.4445 26.632C69.6045 26.2053 69.5245 25.848 69.2045 25.56ZM70.1965 29.448C71.3805 29.32 72.0738 29.32 72.2765 29.448C72.3512 29.4907 72.3992 29.6187 72.4205 29.832C72.4418 30.0453 72.4525 30.44 72.4525 31.016V32.472L72.1165 32.584C71.8925 32.6587 71.7485 32.616 71.6845 32.456C71.6312 32.3067 71.6098 31.9013 71.6205 31.24C71.6312 30.568 71.6045 30.2107 71.5405 30.168C71.4552 30.1147 70.6658 30.232 69.1725 30.52C68.9485 30.5627 68.7725 30.536 68.6445 30.44C68.5272 30.3333 68.4952 30.2 68.5485 30.04C68.6125 29.88 68.7565 29.7573 68.9805 29.672C69.1832 29.5867 69.5885 29.512 70.1965 29.448ZM84.9534 23.752C85.0814 23.6987 85.2147 23.6773 85.3534 23.688C85.492 23.688 85.5827 23.72 85.6254 23.784C85.668 23.848 85.6414 24.4827 85.5454 25.688C85.46 26.776 85.3854 27.8373 85.3214 28.872C85.2787 29.5867 85.2094 30.0453 85.1134 30.248C85.028 30.44 84.8627 30.4933 84.6174 30.408C84.5107 30.3653 84.4467 30.1573 84.4254 29.784C84.4147 29.4 84.452 28.7653 84.5374 27.88L84.6174 26.904L84.0414 26.968C83.6467 27.0213 83.268 27.128 82.9054 27.288L82.2974 27.528V28.856C82.2867 29.3787 82.2654 29.736 82.2334 29.928C82.2014 30.1093 82.1427 30.232 82.0574 30.296C81.6627 30.5947 81.4707 30.44 81.4814 29.832C81.5027 28.7013 81.5454 27.4747 81.6094 26.152C81.684 24.8187 81.748 24.104 81.8014 24.008C81.8547 23.8907 81.9507 23.8213 82.0894 23.8C82.2387 23.7787 82.3827 23.816 82.5214 23.912C82.5854 23.9547 82.6174 24.0507 82.6174 24.2C82.628 24.3493 82.6014 24.6533 82.5374 25.112C82.4307 25.8373 82.404 26.2213 82.4574 26.264C82.4787 26.296 82.596 26.3013 82.8094 26.28C83.0334 26.2587 83.268 26.2267 83.5134 26.184C83.7694 26.1413 84.0094 26.0933 84.2334 26.04C84.468 25.976 84.6067 25.928 84.6494 25.896C84.7454 25.8107 84.7934 25.4427 84.7934 24.792C84.7934 24.1413 84.8467 23.7947 84.9534 23.752ZM78.0094 24.472C78.5534 24.3653 78.8947 24.312 79.0334 24.312C79.172 24.312 79.2894 24.3653 79.3854 24.472C79.4707 24.5787 79.5027 24.776 79.4814 25.064C79.4707 25.3413 79.4067 25.8587 79.2894 26.616C79.2787 26.7013 79.236 26.9733 79.1614 27.432C79.0867 27.8907 79.0334 28.232 79.0014 28.456C78.916 29.1067 78.8307 29.464 78.7454 29.528C78.7027 29.56 78.6227 29.576 78.5054 29.576C78.2707 29.576 78.132 29.4853 78.0894 29.304C78.0574 29.1227 78.0947 28.7333 78.2014 28.136C78.4894 26.5573 78.6334 25.656 78.6334 25.432C78.6334 25.3573 78.6227 25.304 78.6014 25.272C78.58 25.2293 78.548 25.2133 78.5054 25.224C78.42 25.288 77.9987 25.3787 77.2414 25.496C76.4947 25.6133 75.9934 25.672 75.7374 25.672C75.4387 25.672 75.236 25.608 75.1294 25.48C74.9374 25.256 75.1187 25.0693 75.6734 24.92C75.844 24.8773 76.0574 24.8347 76.3134 24.792C76.9214 24.696 77.4867 24.5893 78.0094 24.472ZM87.688 21.48C88.1467 21.352 88.632 21.288 89.144 21.288C89.6667 21.2773 90.008 21.3573 90.168 21.528C90.328 21.688 90.44 22.0773 90.504 22.696C90.5253 22.9627 90.5413 23.1547 90.552 23.272C90.5627 23.3893 90.5573 23.5227 90.536 23.672C90.5147 23.8107 90.488 23.9013 90.456 23.944C90.424 23.976 90.344 24.0293 90.216 24.104C90.0987 24.168 89.9813 24.216 89.864 24.248C89.7573 24.2693 89.576 24.312 89.32 24.376C88.488 24.5893 87.976 24.7387 87.784 24.824C87.6027 24.9093 87.528 25.0587 87.56 25.272C87.5707 25.3893 87.5973 25.4747 87.64 25.528C87.6933 25.5707 87.768 25.5813 87.864 25.56C88.472 25.4853 89.1067 25.3467 89.768 25.144C90.4187 24.952 90.744 25.0907 90.744 25.56C90.744 25.6773 90.712 25.7627 90.648 25.816C90.5947 25.8587 90.456 25.9013 90.232 25.944C90.008 25.976 89.5333 26.0933 88.808 26.296C87.88 26.552 87.2773 26.616 87 26.488C86.7333 26.36 86.632 25.9707 86.696 25.32C86.7387 24.84 86.856 24.5147 87.048 24.344C87.2507 24.1733 87.6773 24.0133 88.328 23.864C88.6053 23.8 88.8133 23.752 88.952 23.72C89.0907 23.688 89.224 23.6507 89.352 23.608C89.4907 23.5547 89.5813 23.5173 89.624 23.496C89.6667 23.464 89.704 23.4107 89.736 23.336C89.768 23.2613 89.7787 23.1973 89.768 23.144C89.768 23.08 89.7573 22.984 89.736 22.856C89.672 22.5253 89.6027 22.3013 89.528 22.184C89.4 22.024 88.8347 22.0773 87.832 22.344C87.416 22.4613 87.048 22.52 86.728 22.52C86.5467 22.52 86.424 22.504 86.36 22.472C86.3067 22.44 86.28 22.376 86.28 22.28C86.28 21.992 86.7493 21.7253 87.688 21.48ZM88.776 26.888C89.032 26.5787 89.2187 26.584 89.336 26.904C89.3893 27.064 89.416 27.272 89.416 27.528C89.416 27.7307 89.432 27.8533 89.464 27.896C89.5067 27.928 89.6293 27.9227 89.832 27.88C90.0453 27.8373 90.4027 27.7893 90.904 27.736C91.1813 27.6933 91.3627 27.6827 91.448 27.704C91.5333 27.7253 91.608 27.7947 91.672 27.912C91.768 28.0827 91.7893 28.2267 91.736 28.344C91.6933 28.4613 91.576 28.552 91.384 28.616C91.2027 28.6693 90.952 28.696 90.632 28.696C90.3013 28.696 89.8 28.76 89.128 28.888C87.688 29.1547 86.92 29.144 86.824 28.856C86.7493 28.6747 86.824 28.5147 87.048 28.376C87.2827 28.2373 87.5707 28.184 87.912 28.216L88.488 28.248L88.552 27.672C88.5947 27.2987 88.6693 27.0373 88.776 26.888ZM87.816 30.056C87.9227 29.9813 88.0613 29.9547 88.232 29.976C88.36 29.9973 88.4347 30.0613 88.456 30.168C88.4773 30.264 88.4613 30.504 88.408 30.888C88.408 30.888 88.408 30.8933 88.408 30.904C88.3867 31.096 88.424 31.2027 88.52 31.224C88.616 31.2453 88.9573 31.2187 89.544 31.144C89.5973 31.144 89.64 31.144 89.672 31.144C89.7147 31.1333 89.7733 31.1227 89.848 31.112C90.904 30.984 91.5227 30.9253 91.704 30.936C91.896 30.936 92.024 31.0053 92.088 31.144C92.088 31.1547 92.0933 31.1653 92.104 31.176C92.1573 31.3253 92.1573 31.448 92.104 31.544C92.0613 31.64 91.96 31.7093 91.8 31.752C91.64 31.8053 91.432 31.832 91.176 31.832C90.7813 31.8107 90.1733 31.9013 89.352 32.104C88.5307 32.296 88.0613 32.344 87.944 32.248C87.7413 32.1307 87.6187 31.7627 87.576 31.144C87.5333 30.536 87.6133 30.1733 87.816 30.056ZM94.0399 22.056C94.2425 21.928 94.4132 21.8533 94.5519 21.832C94.7012 21.8 94.9305 21.7947 95.2399 21.816C95.6665 21.848 96.0185 21.9333 96.2959 22.072C96.5732 22.2107 96.8719 22.456 97.1919 22.808C97.6719 23.3627 97.8159 23.9973 97.6239 24.712C97.4425 25.416 96.9892 25.9547 96.2639 26.328C95.5812 26.68 94.8399 26.584 94.0399 26.04C93.6452 25.7627 93.3359 25.4533 93.1119 25.112C92.8985 24.7707 92.7919 24.4293 92.7919 24.088C92.7919 23.7787 92.9145 23.4213 93.1599 23.016C93.4159 22.6 93.7092 22.28 94.0399 22.056ZM96.0079 22.728C95.7199 22.5893 95.5385 22.5253 95.4639 22.536C95.1972 22.568 94.9199 22.664 94.6319 22.824C94.3545 22.9733 94.1252 23.1653 93.9439 23.4C93.7625 23.624 93.6719 23.832 93.6719 24.024C93.6719 24.4187 93.7892 24.7547 94.0239 25.032C94.2585 25.3093 94.5359 25.4907 94.8559 25.576C95.1759 25.6613 95.5065 25.6507 95.8479 25.544C96.1892 25.4267 96.4612 25.2027 96.6639 24.872C96.8559 24.5947 96.9519 24.3387 96.9519 24.104C96.9519 23.8587 96.8559 23.5973 96.6639 23.32C96.4719 23.0427 96.2532 22.8453 96.0079 22.728ZM96.3119 27.56C97.0159 27.464 97.4905 27.432 97.7359 27.464C97.9812 27.4853 98.1412 27.5813 98.2159 27.752C98.3439 28.008 98.3225 28.1787 98.1519 28.264C97.9919 28.3493 97.6025 28.3973 96.9839 28.408C96.2585 28.408 95.4425 28.4613 94.5359 28.568C93.6185 28.6747 93.1332 28.7013 93.0799 28.648C93.0265 28.5947 93.0319 28.4667 93.0959 28.264C93.1919 27.88 93.7572 27.6827 94.7919 27.672C95.4639 27.6507 95.9705 27.6133 96.3119 27.56ZM94.3759 29.528C94.7812 29.1227 94.9999 29.3147 95.0319 30.104C95.0639 30.584 95.1172 30.824 95.1919 30.824C95.2559 30.824 95.4425 30.76 95.7519 30.632C96.0079 30.5253 96.4985 30.424 97.2239 30.328C97.9492 30.2213 98.3759 30.1947 98.5039 30.248C98.6319 30.2907 98.6905 30.4133 98.6799 30.616C98.6799 30.8187 98.6212 30.9467 98.5039 31C98.3545 31.0533 98.1039 31.08 97.7519 31.08C97.3785 31.08 96.8825 31.1867 96.2639 31.4C95.9119 31.5173 95.6292 31.5973 95.4159 31.64C95.2132 31.6827 95.0319 31.704 94.8719 31.704C94.7119 31.704 94.5892 31.6507 94.5039 31.544C94.4292 31.4373 94.3705 31.2987 94.3279 31.128C94.2852 30.968 94.2479 30.744 94.2159 30.456C94.1945 30.168 94.1945 29.9653 94.2159 29.848C94.2372 29.72 94.2905 29.6133 94.3759 29.528ZM108.522 42.52C109.951 42.264 110.741 42.232 110.89 42.424C110.965 42.552 111.039 43.016 111.114 43.816C111.199 44.616 111.215 45.0693 111.162 45.176C111.109 45.2827 110.853 45.4053 110.394 45.544C109.946 45.672 109.439 45.7733 108.874 45.848C108.565 45.9013 108.362 46.0027 108.266 46.152C108.181 46.3013 108.191 46.5147 108.298 46.792C108.351 46.92 108.415 46.9947 108.49 47.016C108.565 47.0373 108.757 47.032 109.066 47C109.503 46.936 109.989 46.8453 110.522 46.728C110.97 46.632 111.269 46.5947 111.418 46.616C111.567 46.6373 111.69 46.728 111.786 46.888C111.882 47.08 111.866 47.2293 111.738 47.336C111.621 47.4427 111.381 47.5227 111.018 47.576C109.471 47.7787 108.527 47.8853 108.186 47.896C107.855 47.896 107.658 47.8 107.594 47.608C107.551 47.512 107.498 47.1867 107.434 46.632C107.391 46.0987 107.445 45.752 107.594 45.592C107.754 45.4213 108.175 45.2613 108.858 45.112C109.114 45.0587 109.306 45.0213 109.434 45C109.562 44.968 109.695 44.936 109.834 44.904C109.973 44.8613 110.063 44.824 110.106 44.792C110.159 44.76 110.213 44.728 110.266 44.696C110.319 44.664 110.346 44.616 110.346 44.552C110.346 44.488 110.346 44.4293 110.346 44.376C110.346 44.3227 110.341 44.2427 110.33 44.136C110.245 43.6027 110.159 43.2933 110.074 43.208C109.989 43.1227 109.743 43.112 109.338 43.176C109.05 43.2187 108.57 43.3147 107.898 43.464C107.525 43.5493 107.263 43.576 107.114 43.544C106.965 43.512 106.89 43.4 106.89 43.208C106.89 43.048 107.013 42.92 107.258 42.824C107.503 42.7173 107.925 42.616 108.522 42.52ZM109.418 49.064C109.503 48.8933 109.658 48.824 109.882 48.856C110.053 48.8667 110.149 48.9147 110.17 49C110.191 49.0747 110.197 49.3253 110.186 49.752L110.138 50.616L111.002 50.52C111.407 50.4773 111.781 50.4293 112.122 50.376C112.293 50.3333 112.447 50.3813 112.586 50.52C112.735 50.6587 112.799 50.8187 112.778 51C112.757 51.1173 112.698 51.192 112.602 51.224C112.517 51.256 112.309 51.288 111.978 51.32C111.733 51.32 111.375 51.3467 110.906 51.4C110.437 51.464 109.957 51.5333 109.466 51.608C108.986 51.6933 108.581 51.7733 108.25 51.848C107.887 51.9333 107.642 51.944 107.514 51.88C107.397 51.8267 107.37 51.6987 107.434 51.496C107.519 51.2293 107.983 51.0267 108.826 50.888L109.274 50.808V50.056C109.274 49.5653 109.322 49.2347 109.418 49.064ZM121.51 42.776C121.969 42.6907 122.241 42.6587 122.326 42.68C122.412 42.7013 122.454 42.8187 122.454 43.032C122.454 43.2773 122.406 43.496 122.31 43.688C122.214 43.88 122.017 44.1627 121.718 44.536L121.286 45.064L122.118 45.848C122.364 46.0827 122.55 46.2693 122.678 46.408C122.806 46.5467 122.897 46.6693 122.95 46.776C123.004 46.8827 123.02 46.968 122.998 47.032C122.977 47.0853 122.918 47.1333 122.822 47.176C122.758 47.208 122.705 47.2293 122.662 47.24C122.62 47.24 122.55 47.2133 122.454 47.16C122.369 47.1067 122.268 47.0373 122.15 46.952C122.033 46.856 121.878 46.7227 121.686 46.552L120.806 45.752L120.31 46.264C120.001 46.5413 119.772 46.8187 119.622 47.096C119.548 47.2347 119.468 47.3253 119.382 47.368C119.308 47.4107 119.19 47.4267 119.03 47.416C118.774 47.384 118.63 47.3253 118.598 47.24C118.577 47.208 118.705 47.0107 118.982 46.648C119.26 46.2853 119.585 45.8747 119.958 45.416C120.332 44.9467 120.652 44.5733 120.918 44.296C121.313 43.88 121.42 43.672 121.238 43.672C121.089 43.672 120.673 43.7413 119.99 43.88C119.318 44.008 118.908 44.104 118.758 44.168C118.289 44.3387 118.054 44.248 118.054 43.896C118.054 43.7467 118.108 43.6293 118.214 43.544C118.321 43.448 118.492 43.3627 118.726 43.288C118.972 43.2133 119.334 43.1387 119.814 43.064C119.953 43.0427 120.118 43.016 120.31 42.984C120.502 42.952 120.668 42.9253 120.806 42.904C120.945 42.872 121.078 42.8453 121.206 42.824C121.345 42.8027 121.446 42.7867 121.51 42.776ZM124.342 43.208C124.534 42.9627 124.742 42.9573 124.966 43.192C125.052 43.32 125.052 43.752 124.966 44.488C124.87 45.256 124.844 46.0347 124.886 46.824L124.966 48.04L124.614 48.088C124.38 48.1413 124.23 48.1307 124.166 48.056C124.07 47.9707 124.049 47.176 124.102 45.672C124.156 44.1573 124.236 43.336 124.342 43.208ZM120.598 48.824C120.705 48.6533 120.844 48.5893 121.014 48.632C121.132 48.6853 121.217 48.7387 121.27 48.792C121.334 48.8453 121.372 48.92 121.382 49.016C121.393 49.112 121.382 49.2347 121.35 49.384C121.308 49.608 121.276 49.8587 121.254 50.136V50.504L122.086 50.488C122.972 50.4347 123.521 50.4027 123.734 50.392C124.172 50.3493 124.454 50.36 124.582 50.424C124.71 50.4773 124.732 50.6107 124.646 50.824C124.604 50.9627 124.502 51.0533 124.342 51.096C124.193 51.1387 123.692 51.2187 122.838 51.336C122.646 51.3573 122.433 51.3787 122.198 51.4C121.964 51.432 121.75 51.4587 121.558 51.48C121.377 51.512 121.27 51.528 121.238 51.528C120.908 51.56 120.689 51.4853 120.582 51.304C120.486 51.1333 120.438 50.7387 120.438 50.12C120.438 49.4267 120.492 48.9947 120.598 48.824ZM127.5 40.92C127.649 40.664 127.809 40.6747 127.98 40.952C128.118 41.1653 128.188 41.4533 128.188 41.816C128.188 42.0507 128.214 42.28 128.268 42.504C128.3 42.632 128.353 42.7067 128.428 42.728C128.513 42.7493 128.694 42.744 128.972 42.712C129.388 42.6693 129.638 42.6267 129.724 42.584C129.809 42.5307 129.964 42.5307 130.188 42.584C130.422 42.6373 130.566 42.7493 130.62 42.92C130.684 43.08 130.646 43.2293 130.508 43.368C130.369 43.496 130.188 43.5387 129.964 43.496C129.836 43.4747 129.302 43.5333 128.364 43.672C127.425 43.8107 126.716 43.9333 126.236 44.04C125.862 44.1253 125.676 44.024 125.676 43.736C125.676 43.512 125.788 43.352 126.012 43.256C126.246 43.16 126.694 43.0853 127.356 43.032C127.42 43.0213 127.446 42.6907 127.436 42.04C127.414 41.3787 127.436 41.0053 127.5 40.92ZM133.276 43.608C133.478 43.288 133.702 43.2187 133.948 43.4C134.012 43.4427 134.044 43.5387 134.044 43.688C134.054 43.8373 134.033 44.1253 133.98 44.552C133.873 45.2027 133.836 45.8907 133.868 46.616C133.889 47.0213 133.889 47.2933 133.868 47.432C133.846 47.5707 133.788 47.672 133.692 47.736C133.51 47.8427 133.366 47.8107 133.26 47.64C133.153 47.4587 133.094 47.1493 133.084 46.712C133.073 46.168 133.02 45.88 132.924 45.848C132.838 45.816 132.668 45.832 132.412 45.896L132.028 46.024V47C132.028 47.4373 132.012 47.7147 131.98 47.832C131.958 47.9493 131.894 48.0187 131.788 48.04C131.532 48.0827 131.372 47.9813 131.308 47.736C131.244 47.4907 131.212 46.8453 131.212 45.8C131.212 44.488 131.27 43.752 131.388 43.592C131.462 43.496 131.526 43.4427 131.58 43.432C131.633 43.4213 131.702 43.4427 131.788 43.496C131.948 43.592 132.038 43.8747 132.06 44.344C132.081 44.7387 132.145 44.984 132.252 45.08C132.358 45.176 132.556 45.1653 132.844 45.048C133.025 44.9733 133.126 44.904 133.148 44.84C133.18 44.776 133.18 44.632 133.148 44.408C133.094 44.088 133.137 43.8213 133.276 43.608ZM127.788 44.6C128.097 44.4827 128.316 44.4507 128.444 44.504C128.732 44.6107 128.924 44.68 129.02 44.712C129.148 44.7653 129.26 44.8187 129.356 44.872C129.452 44.9147 129.542 44.9733 129.628 45.048C129.713 45.112 129.782 45.1867 129.836 45.272C129.9 45.3573 129.964 45.4587 130.028 45.576C130.252 46.0347 130.262 46.52 130.06 47.032C129.857 47.5333 129.494 47.912 128.972 48.168C128.812 48.2533 128.524 48.3013 128.108 48.312C127.692 48.312 127.372 48.2747 127.148 48.2C126.966 48.1253 126.801 48.0187 126.652 47.88C126.513 47.7413 126.396 47.5813 126.3 47.4C126.204 47.208 126.14 47.0053 126.108 46.792C126.076 46.5467 126.07 46.36 126.092 46.232C126.124 46.0933 126.204 45.9173 126.332 45.704C126.417 45.5653 126.508 45.448 126.604 45.352C126.7 45.2453 126.806 45.1493 126.924 45.064C127.052 44.968 127.185 44.888 127.324 44.824C127.462 44.7493 127.617 44.6747 127.788 44.6ZM129.228 45.672C128.886 45.2773 128.385 45.2293 127.724 45.528C127.436 45.6667 127.228 45.8213 127.1 45.992C126.982 46.1627 126.924 46.3867 126.924 46.664C126.924 46.9093 127.036 47.1173 127.26 47.288C127.494 47.4587 127.745 47.5493 128.012 47.56C128.278 47.5707 128.524 47.496 128.748 47.336C129.089 47.048 129.302 46.76 129.388 46.472C129.473 46.184 129.42 45.9173 129.228 45.672ZM130.556 48.92C130.737 48.8027 130.982 48.7333 131.292 48.712C131.601 48.6907 131.873 48.7227 132.108 48.808C132.321 48.8933 132.582 49.0853 132.892 49.384C133.073 49.5653 133.196 49.72 133.26 49.848C133.324 49.976 133.356 50.1253 133.356 50.296C133.345 51.0533 133.137 51.6773 132.732 52.168C132.337 52.6693 131.878 52.872 131.356 52.776C131.153 52.744 130.918 52.6533 130.652 52.504C130.396 52.3653 130.188 52.2053 130.028 52.024C129.548 51.5653 129.356 51.0373 129.452 50.44C129.558 49.832 129.926 49.3253 130.556 48.92ZM132.124 49.704C131.91 49.5333 131.713 49.448 131.532 49.448C131.404 49.448 131.26 49.496 131.1 49.592C130.95 49.688 130.806 49.8107 130.668 49.96C130.54 50.1093 130.438 50.264 130.364 50.424C130.289 50.6267 130.257 50.776 130.268 50.872C130.289 50.9573 130.38 51.1173 130.54 51.352C130.828 51.768 131.142 51.9707 131.484 51.96C131.836 51.96 132.129 51.7467 132.364 51.32C132.705 50.6373 132.625 50.0987 132.124 49.704ZM137.951 41.944C138.004 41.9013 138.116 41.8907 138.287 41.912C138.458 41.9227 138.612 41.96 138.751 42.024C138.9 42.1093 138.97 42.216 138.959 42.344C138.959 42.4613 138.858 42.6533 138.655 42.92C138.452 43.2293 138.351 43.4373 138.351 43.544C138.351 43.5653 138.378 43.608 138.431 43.672C138.495 43.7253 138.58 43.7947 138.687 43.88C138.804 43.9547 138.927 44.0293 139.055 44.104C139.631 44.4773 139.855 44.776 139.727 45C139.684 45.0533 139.631 45.0907 139.567 45.112C139.471 45.144 139.231 45.0693 138.847 44.888C138.474 44.696 138.175 44.5093 137.951 44.328C137.876 44.264 137.807 44.2373 137.743 44.248C137.679 44.2587 137.578 44.3227 137.439 44.44C137.236 44.632 137.012 44.8933 136.767 45.224C136.5 45.608 136.298 45.832 136.159 45.896C136.02 45.9493 135.85 45.896 135.647 45.736C135.498 45.64 135.471 45.5173 135.567 45.368C135.663 45.2187 136.026 44.7973 136.655 44.104C137.348 43.3253 137.684 42.8987 137.663 42.824C137.642 42.7813 137.53 42.7867 137.327 42.84C137.103 42.8827 136.836 42.9253 136.527 42.968C136.378 42.9787 136.01 43.0213 135.423 43.096L134.703 43.192V42.856C134.703 42.6427 134.815 42.4933 135.039 42.408C135.263 42.3227 135.786 42.2373 136.607 42.152C137.482 42.056 137.93 41.9867 137.951 41.944ZM139.103 46.264C139.402 46.1787 139.652 46.1413 139.855 46.152C140.068 46.152 140.207 46.2053 140.271 46.312C140.335 46.4187 140.33 46.5627 140.255 46.744C140.159 46.9573 139.988 47.064 139.743 47.064C139.487 47.064 139.258 47.1013 139.055 47.176C138.906 47.24 138.815 47.32 138.783 47.416C138.751 47.512 138.735 47.7573 138.735 48.152V49.016L139.391 49.176C139.786 49.2613 140.1 49.4 140.335 49.592C140.474 49.7307 140.554 49.8587 140.575 49.976C140.607 50.0827 140.607 50.3013 140.575 50.632C140.554 50.8773 140.527 51.0587 140.495 51.176C140.463 51.2933 140.41 51.4 140.335 51.496C140.271 51.592 140.159 51.7147 139.999 51.864C139.871 51.992 139.754 52.088 139.647 52.152C139.551 52.216 139.455 52.264 139.359 52.296C139.263 52.3387 139.151 52.36 139.023 52.36C137.498 52.4133 136.73 51.8907 136.719 50.792C136.719 50.536 136.74 50.3493 136.783 50.232C136.836 50.104 136.954 49.9493 137.135 49.768C137.391 49.5013 137.62 49.3307 137.823 49.256C137.94 49.224 138.01 49.1867 138.031 49.144C138.063 49.0907 138.063 49.0107 138.031 48.904C137.956 48.68 137.908 48.3867 137.887 48.024C137.855 47.7467 137.818 47.5813 137.775 47.528C137.743 47.464 137.668 47.4427 137.551 47.464C137.402 47.5067 136.986 47.5813 136.303 47.688C135.855 47.7627 135.567 47.7947 135.439 47.784C135.311 47.7733 135.199 47.7253 135.103 47.64C135.007 47.544 134.959 47.4747 134.959 47.432C134.97 47.3787 135.034 47.2933 135.151 47.176C135.247 47.08 135.396 47.0053 135.599 46.952C135.802 46.8987 136.132 46.8453 136.591 46.792C137.178 46.7387 137.604 46.6853 137.871 46.632C138.148 46.568 138.559 46.4453 139.103 46.264ZM139.647 50.168C139.487 50.04 139.354 49.9653 139.247 49.944C139.14 49.912 138.916 49.9067 138.575 49.928C138.106 49.96 137.78 50.12 137.599 50.408C137.428 50.696 137.487 50.984 137.775 51.272C137.924 51.432 138.052 51.5227 138.159 51.544C138.266 51.576 138.442 51.5813 138.687 51.56C139.156 51.5067 139.498 51.32 139.711 51C139.935 50.6907 139.914 50.4133 139.647 50.168ZM142.878 44.12C143.454 43.8213 144.084 43.912 144.766 44.392C145.321 44.7653 145.716 45.2293 145.95 45.784C146.185 46.328 146.228 46.8827 146.078 47.448C145.982 47.8427 145.844 48.136 145.662 48.328C145.492 48.52 145.214 48.696 144.83 48.856C144.457 49.016 144.116 49.096 143.806 49.096C143.55 49.1067 143.273 49.0587 142.974 48.952C142.676 48.8453 142.398 48.696 142.142 48.504C141.897 48.312 141.7 48.1093 141.55 47.896C141.401 47.6613 141.31 47.4747 141.278 47.336C141.246 47.1867 141.241 46.9467 141.262 46.616C141.294 46.104 141.38 45.7253 141.518 45.48C141.646 45.2347 141.844 44.9787 142.11 44.712C142.377 44.4453 142.633 44.248 142.878 44.12ZM144.366 45.048C144.057 44.824 143.801 44.7227 143.598 44.744C143.396 44.7547 143.15 44.888 142.862 45.144C142.436 45.5493 142.185 45.9653 142.11 46.392C142.046 46.808 142.169 47.2027 142.478 47.576C142.841 48.0133 143.284 48.2373 143.806 48.248C144.34 48.248 144.777 48.024 145.118 47.576C145.225 47.448 145.294 47.32 145.326 47.192C145.358 47.0533 145.364 46.8507 145.342 46.584C145.31 46.2427 145.225 45.9653 145.086 45.752C144.948 45.528 144.708 45.2933 144.366 45.048ZM147.854 44.248C147.897 44.1733 148.02 44.1467 148.222 44.168C148.425 44.1893 148.532 44.2373 148.542 44.312C148.564 44.4933 148.521 45.976 148.414 48.76L148.318 50.76H147.95C147.844 50.76 147.769 50.76 147.726 50.76C147.684 50.7493 147.646 50.7227 147.614 50.68C147.582 50.6267 147.561 50.568 147.55 50.504C147.55 50.4293 147.545 50.3067 147.534 50.136C147.513 49.784 147.545 48.7333 147.63 46.984C147.726 45.2347 147.801 44.3227 147.854 44.248ZM151.052 44.2C151.297 44.1253 151.505 44.104 151.676 44.136C151.857 44.1573 152.167 44.264 152.604 44.456C153.319 44.7547 153.681 45.3947 153.692 46.376C153.692 46.8773 153.644 47.2613 153.548 47.528C153.463 47.784 153.297 48.056 153.052 48.344C152.828 48.6 152.657 48.7547 152.54 48.808C152.433 48.8613 152.225 48.888 151.916 48.888C151.308 48.888 150.727 48.7067 150.172 48.344C149.628 47.9813 149.313 47.576 149.228 47.128C149.153 46.6907 149.169 46.312 149.276 45.992C149.383 45.672 149.612 45.336 149.964 44.984C150.135 44.8027 150.327 44.6373 150.54 44.488C150.764 44.3387 150.935 44.2427 151.052 44.2ZM152.156 45.048C151.889 44.9627 151.697 44.9307 151.58 44.952C151.463 44.9627 151.249 45.0533 150.94 45.224C150.577 45.4373 150.337 45.624 150.22 45.784C150.103 45.944 150.039 46.168 150.028 46.456C150.028 46.8187 150.161 47.1333 150.428 47.4C150.705 47.6667 151.068 47.848 151.516 47.944C151.857 48.0293 152.071 48.0667 152.156 48.056C152.241 48.0347 152.359 47.9333 152.508 47.752C152.593 47.656 152.652 47.5653 152.684 47.48C152.727 47.384 152.753 47.2667 152.764 47.128C152.785 46.9893 152.796 46.7973 152.796 46.552C152.796 46.0187 152.753 45.6613 152.668 45.48C152.593 45.288 152.423 45.144 152.156 45.048ZM158.364 44.2C158.439 44.0933 158.535 44.0453 158.652 44.056C158.769 44.056 158.876 44.1147 158.972 44.232C159.079 44.36 159.1 45.192 159.036 46.728C158.961 48.232 158.924 49.16 158.924 49.512C158.913 49.8213 158.871 50.0293 158.796 50.136C158.732 50.2427 158.593 50.3173 158.38 50.36L158.044 50.424L158.156 48.568C158.231 47.0747 158.268 46.0667 158.268 45.544C158.268 44.7547 158.3 44.3067 158.364 44.2ZM156.476 44.44C156.689 44.2373 156.887 44.248 157.068 44.472C157.164 44.5893 157.164 45.1867 157.068 46.264C157.004 47.0853 156.929 48.0027 156.844 49.016L156.764 50.136H156.396H156.012L156.028 48.648C156.028 48.6267 156.028 48.6 156.028 48.568C156.049 47.8107 156.028 47.384 155.964 47.288C155.9 47.1813 155.665 47.1867 155.26 47.304C155.228 47.3147 155.207 47.32 155.196 47.32C154.929 47.4053 154.673 47.4267 154.428 47.384C154.183 47.3413 154.06 47.2613 154.06 47.144C154.06 46.9413 154.151 46.7813 154.332 46.664C154.524 46.5467 154.833 46.4667 155.26 46.424C155.836 46.3493 156.161 46.2587 156.236 46.152C156.3 46.024 156.332 45.7307 156.332 45.272C156.332 44.8133 156.38 44.536 156.476 44.44ZM161.259 42.12C161.643 41.9813 162.011 41.9387 162.363 41.992C162.726 42.0347 163.062 42.1787 163.371 42.424C163.691 42.6693 163.953 43 164.155 43.416C164.358 43.8107 164.454 44.1787 164.443 44.52C164.443 44.8613 164.337 45.24 164.123 45.656C163.953 45.9973 163.75 46.2533 163.515 46.424C163.281 46.584 162.982 46.6907 162.619 46.744C162.011 46.8293 161.435 46.712 160.891 46.392C160.347 46.072 160.001 45.6613 159.851 45.16C159.638 44.4773 159.659 43.8693 159.915 43.336C160.171 42.8027 160.619 42.3973 161.259 42.12ZM162.555 42.776C162.449 42.776 162.331 42.7547 162.203 42.712C162.011 42.648 161.707 42.7653 161.291 43.064C160.875 43.3627 160.625 43.6507 160.539 43.928C160.507 44.0347 160.502 44.1627 160.523 44.312C160.545 44.4507 160.582 44.5947 160.635 44.744C160.689 44.8827 160.758 45.0213 160.843 45.16C160.939 45.2987 161.041 45.416 161.147 45.512C161.553 45.8747 161.963 46.04 162.379 46.008C162.795 45.976 163.126 45.7573 163.371 45.352C163.766 44.712 163.702 44.0453 163.179 43.352C162.87 42.968 162.662 42.776 162.555 42.776ZM163.227 47.752C163.313 47.5493 163.419 47.448 163.547 47.448C163.686 47.4373 163.803 47.5387 163.899 47.752C163.985 47.9547 163.974 48.3067 163.867 48.808C163.761 49.288 163.739 49.5813 163.803 49.688C163.857 49.784 164.177 49.832 164.763 49.832C165.169 49.832 165.419 49.848 165.515 49.88C165.622 49.9013 165.702 49.976 165.755 50.104C165.83 50.328 165.803 50.4827 165.675 50.568C165.558 50.6533 165.291 50.6907 164.875 50.68C164.545 50.6693 164.134 50.6907 163.643 50.744C163.163 50.7867 162.822 50.8347 162.619 50.888C162.523 50.92 162.278 50.968 161.883 51.032C161.499 51.1067 161.121 51.176 160.747 51.24C160.374 51.304 160.15 51.336 160.075 51.336C159.947 51.336 159.851 51.2507 159.787 51.08C159.723 50.9093 159.739 50.7653 159.835 50.648C159.921 50.5413 160.129 50.4613 160.459 50.408L160.923 50.344V49.32C160.934 48.7547 160.977 48.3973 161.051 48.248C161.126 48.088 161.286 48.04 161.531 48.104C161.681 48.1467 161.766 48.216 161.787 48.312C161.819 48.3973 161.83 48.664 161.819 49.112L161.787 50.008L162.411 50.056C162.806 50.0773 163.003 50.056 163.003 49.992C163.003 49.704 163.014 49.4 163.035 49.08C163.067 48.76 163.099 48.4827 163.131 48.248C163.174 48.0133 163.206 47.848 163.227 47.752Z" fill="#999999"/>
<path d="M29.464 40.84C30.7867 40.552 31.6133 40.5787 31.944 40.92C32.1787 41.144 32.1627 41.2933 31.896 41.368C31.6933 41.4107 31.3147 41.4373 30.76 41.448C30.0027 41.4587 29.448 41.5493 29.096 41.72L28.584 41.96L28.552 42.888C28.52 43.5067 28.5413 43.8533 28.616 43.928C28.7013 43.9493 28.8987 43.9547 29.208 43.944C29.5173 43.9333 29.8853 43.9067 30.312 43.864C30.7493 43.8213 31.08 43.7787 31.304 43.736C31.5173 43.6827 31.6987 43.7253 31.848 43.864C31.9973 43.992 32.056 44.152 32.024 44.344C32.0133 44.4613 31.9387 44.536 31.8 44.568C31.672 44.6 31.3093 44.6373 30.712 44.68C29.816 44.744 29.1813 44.824 28.808 44.92C28.6267 44.9627 28.4827 44.9893 28.376 45C28.28 45.0107 28.184 45.0053 28.088 44.984C28.0027 44.952 27.9387 44.9093 27.896 44.856C27.8533 44.792 27.8107 44.6907 27.768 44.552C27.736 44.4027 27.7093 44.2427 27.688 44.072C27.6773 43.9013 27.6667 43.672 27.656 43.384C27.6027 42.52 27.592 41.992 27.624 41.8C27.6453 41.6293 27.8213 41.4533 28.152 41.272C28.4933 41.0907 28.9307 40.9467 29.464 40.84ZM29.448 45.688C29.5333 45.592 29.6453 45.544 29.784 45.544C30.0933 45.544 30.2107 45.8853 30.136 46.568C30.1147 46.824 30.1787 46.968 30.328 47C30.4773 47.0213 30.9467 46.9893 31.736 46.904C32.248 46.8613 32.5947 46.8667 32.776 46.92C32.968 46.9627 33.064 47.0853 33.064 47.288C33.064 47.4693 32.952 47.6027 32.728 47.688C32.504 47.7627 32.136 47.8 31.624 47.8C30.9307 47.8 30.3173 47.8587 29.784 47.976C29.304 48.0827 28.7707 48.1733 28.184 48.248C27.7893 48.2907 27.56 48.3013 27.496 48.28C27.432 48.2587 27.4 48.1733 27.4 48.024C27.4 47.8213 27.4587 47.6827 27.576 47.608C27.704 47.5333 27.9973 47.4533 28.456 47.368L29.224 47.24L29.288 46.552C29.3307 46.0933 29.384 45.8053 29.448 45.688ZM29.864 49.032C30.6 48.8507 31.304 49.064 31.976 49.672C32.2533 49.9173 32.424 50.1573 32.488 50.392C32.552 50.616 32.536 50.9093 32.44 51.272C32.344 51.6133 32.1147 51.9547 31.752 52.296C31.4 52.6373 31.0693 52.8347 30.76 52.888C30.0773 53.016 29.4693 52.888 28.936 52.504C28.4133 52.1307 28.152 51.624 28.152 50.984C28.152 50.5467 28.312 50.1467 28.632 49.784C28.952 49.4213 29.3627 49.1707 29.864 49.032ZM31.24 50.04C30.9627 49.8587 30.5787 49.8053 30.088 49.88C29.5973 49.9547 29.2827 50.12 29.144 50.376C29.0587 50.536 29.0427 50.7813 29.096 51.112C29.1493 51.4533 29.2453 51.704 29.384 51.864C29.544 52.0453 29.8373 52.1147 30.264 52.072C30.7013 52.04 31.016 51.9173 31.208 51.704C31.8693 51 31.88 50.4453 31.24 50.04ZM39.5008 44.136C39.5861 43.9013 39.7248 43.784 39.9168 43.784C39.9914 43.784 40.0501 43.7947 40.0928 43.816C40.1461 43.8373 40.1888 43.88 40.2208 43.944C40.2528 43.9973 40.2741 44.0667 40.2848 44.152C40.2954 44.2373 40.2954 44.3653 40.2848 44.536C40.2848 44.7067 40.2741 44.8987 40.2528 45.112C40.2314 45.3147 40.2048 45.576 40.1728 45.896L40.1088 46.328L40.7808 46.232C41.3781 46.1573 41.7301 46.0667 41.8368 45.96C41.9434 45.8533 41.9968 45.5547 41.9968 45.064C41.9968 44.264 42.1194 43.8587 42.3648 43.848C42.4394 43.848 42.5194 43.8693 42.6048 43.912C42.7328 43.976 42.8074 44.0507 42.8288 44.136C42.8501 44.2107 42.8448 44.36 42.8128 44.584C42.7594 45.0213 42.7114 46.0453 42.6688 47.656C42.6368 48.9147 42.5994 49.6613 42.5568 49.896C42.5248 50.1307 42.4394 50.28 42.3008 50.344C42.0981 50.44 41.9648 50.456 41.9008 50.392C41.8368 50.3173 41.8154 49.752 41.8368 48.696C41.8581 47.7573 41.8208 47.224 41.7248 47.096C41.6394 46.9573 41.3248 46.968 40.7808 47.128L40.0768 47.32L40.1248 48.584C40.1461 49.1387 40.1461 49.5013 40.1248 49.672C40.1034 49.832 40.0448 49.9387 39.9488 49.992C39.7994 50.088 39.6554 50.088 39.5168 49.992C39.4101 49.9387 39.3461 49.7627 39.3248 49.464C39.3034 49.1547 39.3034 48.392 39.3248 47.176C39.3568 45.3733 39.4154 44.36 39.5008 44.136ZM36.6528 44.04C36.8128 43.9653 37.0421 43.9387 37.3408 43.96C37.5328 43.9707 37.6554 43.9973 37.7088 44.04C37.7621 44.0827 37.7888 44.1893 37.7888 44.36V44.728L36.4448 44.872C35.5168 44.9893 34.9568 45.0853 34.7648 45.16C34.6048 45.224 34.5088 45.288 34.4768 45.352C34.4554 45.4053 34.4608 45.512 34.4928 45.672C34.5461 45.992 34.5728 46.3867 34.5728 46.856C34.5728 47.3787 34.6314 47.7147 34.7488 47.864C34.8768 48.0027 35.1754 48.0773 35.6448 48.088C36.1674 48.088 36.6314 48.056 37.0368 47.992C37.3248 47.9493 37.5114 47.9387 37.5968 47.96C37.6928 47.9813 37.7728 48.0453 37.8368 48.152C37.9648 48.3973 37.9594 48.568 37.8208 48.664C37.6928 48.76 37.3781 48.8293 36.8768 48.872C35.0634 49.0107 34.1141 48.984 34.0288 48.792C33.9861 48.6747 33.9114 48.0027 33.8048 46.776C33.7408 45.9653 33.7088 45.4427 33.7088 45.208C33.7088 44.9733 33.7514 44.8187 33.8368 44.744C33.9114 44.6693 34.0714 44.5893 34.3168 44.504C34.5621 44.408 34.8341 44.328 35.1328 44.264C35.4314 44.2 35.6821 44.1627 35.8848 44.152C36.2261 44.152 36.4821 44.1147 36.6528 44.04ZM45.9823 41.784C46.5049 41.7093 46.8409 41.6773 46.9903 41.688C47.1396 41.688 47.3263 41.736 47.5503 41.832C47.7529 41.9173 47.8756 42.008 47.9183 42.104C47.9716 42.2 48.0196 42.472 48.0623 42.92C48.1156 43.6133 48.1263 44.2107 48.0943 44.712C48.0943 44.7653 48.0943 44.84 48.0943 44.936C48.0836 45.288 48.0143 45.5067 47.8863 45.592C47.7689 45.6667 47.3316 45.784 46.5743 45.944C46.3823 45.9973 46.2276 46.0347 46.1103 46.056C45.7903 46.12 45.5449 46.1733 45.3743 46.216C45.2036 46.248 45.0329 46.2747 44.8623 46.296C44.7023 46.3067 44.5849 46.312 44.5103 46.312C44.4463 46.3013 44.3823 46.2747 44.3183 46.232C44.2543 46.1893 44.2063 46.1413 44.1743 46.088C44.1529 46.024 44.1316 45.9387 44.1103 45.832C44.0249 45.512 43.9503 44.9253 43.8863 44.072C43.8329 43.2187 43.8329 42.6853 43.8863 42.472C43.9503 42.2587 44.0836 42.152 44.2863 42.152C44.4783 42.152 44.6969 42.104 44.9423 42.008C45.1983 41.912 45.5449 41.8373 45.9823 41.784ZM47.1823 42.584L46.6063 42.568C45.9876 42.536 45.4543 42.6427 45.0063 42.888C44.8676 42.9627 44.7876 43.0587 44.7663 43.176C44.7449 43.2933 44.7449 43.6133 44.7663 44.136L44.7983 45.224L45.4863 45.208C45.9876 45.176 46.3929 45.112 46.7023 45.016L47.2623 44.856L47.2303 43.736L47.1823 42.584ZM48.1263 47.176C48.3396 47.1013 48.4889 47.064 48.5743 47.064C48.7023 47.0533 48.8036 47.1227 48.8783 47.272C48.9636 47.4213 48.9903 47.576 48.9583 47.736C48.9369 47.832 48.9049 47.9013 48.8623 47.944C48.8196 47.9867 48.7503 48.0187 48.6543 48.04C48.5689 48.0507 48.4196 48.0667 48.2063 48.088L47.5663 48.12V49.192V50.264H47.1823H46.7983L46.7663 49.224C46.7343 48.5307 46.6916 48.184 46.6383 48.184C46.5956 48.184 46.1689 48.248 45.3583 48.376C44.2809 48.536 43.6836 48.5787 43.5663 48.504C43.5023 48.4613 43.4756 48.3653 43.4863 48.216C43.5183 47.96 43.6836 47.7893 43.9823 47.704C44.2916 47.608 44.9583 47.5173 45.9823 47.432C47.1983 47.3467 47.9129 47.2613 48.1263 47.176ZM44.7183 49.832C44.8996 49.512 45.0809 49.4533 45.2623 49.656C45.4116 49.8373 45.4863 50.136 45.4863 50.552V51.224L45.9023 51.144C46.2436 51.08 46.8569 51.0107 47.7423 50.936C48.6383 50.8613 49.1289 50.84 49.2143 50.872C49.3209 50.9147 49.3743 51.0213 49.3743 51.192C49.3743 51.3627 49.3263 51.4853 49.2303 51.56C49.1023 51.624 48.7556 51.6773 48.1903 51.72C47.3369 51.816 46.6809 51.9013 46.2223 51.976C45.4969 52.0827 45.0756 52.1093 44.9583 52.056C44.8303 52.0027 44.7289 51.6667 44.6543 51.048C44.5903 50.44 44.6116 50.0347 44.7183 49.832ZM53.4058 42.168C53.6618 42.104 53.9178 42.0987 54.1738 42.152C54.3231 42.184 54.4138 42.28 54.4458 42.44C54.4778 42.5893 54.5044 43.0907 54.5258 43.944C54.5364 44.8933 54.5098 45.528 54.4458 45.848C54.3818 46.1573 54.2324 46.312 53.9978 46.312C53.7844 46.312 53.6511 46.2747 53.5978 46.2C53.5551 46.136 53.5764 45.6027 53.6618 44.6C53.7578 43.6187 53.7578 43.096 53.6618 43.032C53.5658 42.968 53.0538 43.0373 52.1258 43.24C51.4858 43.3787 51.0804 43.4533 50.9098 43.464C50.7391 43.4747 50.6111 43.432 50.5258 43.336C50.2591 43.08 50.4084 42.8613 50.9738 42.68L51.7898 42.488C52.7818 42.296 53.3204 42.1893 53.4058 42.168ZM55.0538 47.24C55.7364 47.0587 56.0991 47.176 56.1418 47.592C56.1631 47.7307 56.1471 47.8267 56.0938 47.88C56.0404 47.9333 55.9124 47.9867 55.7098 48.04C55.3898 48.136 55.0538 48.184 54.7018 48.184H54.1898L54.1098 48.968C54.0671 49.4907 54.0831 50.0667 54.1578 50.696C54.2218 51.1547 54.2431 51.4373 54.2218 51.544C54.2111 51.6613 54.1418 51.7733 54.0138 51.88C53.8431 52.0293 53.7044 52.088 53.5978 52.056C53.4058 51.992 53.3044 51.1547 53.2938 49.544L53.2778 48.328L52.5738 48.392C52.1791 48.4347 51.6778 48.488 51.0698 48.552C50.6964 48.6053 50.4244 48.6107 50.2538 48.568C50.0938 48.5147 50.0138 48.4027 50.0138 48.232C50.0138 48.072 50.1044 47.928 50.2858 47.8C50.4671 47.6613 50.6324 47.608 50.7818 47.64C50.9951 47.6827 51.6724 47.6507 52.8138 47.544C53.9658 47.4373 54.7124 47.336 55.0538 47.24ZM67.2201 44.136C67.3055 43.9013 67.4441 43.784 67.6361 43.784C67.7108 43.784 67.7695 43.7947 67.8121 43.816C67.8655 43.8373 67.9081 43.88 67.9401 43.944C67.9721 43.9973 67.9935 44.0667 68.0041 44.152C68.0148 44.2373 68.0148 44.3653 68.0041 44.536C68.0041 44.7067 67.9935 44.8987 67.9721 45.112C67.9508 45.3147 67.9241 45.576 67.8921 45.896L67.8281 46.328L68.5001 46.232C69.0975 46.1573 69.4495 46.0667 69.5561 45.96C69.6628 45.8533 69.7161 45.5547 69.7161 45.064C69.7161 44.264 69.8388 43.8587 70.0841 43.848C70.1588 43.848 70.2388 43.8693 70.3241 43.912C70.4521 43.976 70.5268 44.0507 70.5481 44.136C70.5695 44.2107 70.5641 44.36 70.5321 44.584C70.4788 45.0213 70.4308 46.0453 70.3881 47.656C70.3561 48.9147 70.3188 49.6613 70.2761 49.896C70.2441 50.1307 70.1588 50.28 70.0201 50.344C69.8175 50.44 69.6841 50.456 69.6201 50.392C69.5561 50.3173 69.5348 49.752 69.5561 48.696C69.5775 47.7573 69.5401 47.224 69.4441 47.096C69.3588 46.9573 69.0441 46.968 68.5001 47.128L67.7961 47.32L67.8441 48.584C67.8655 49.1387 67.8655 49.5013 67.8441 49.672C67.8228 49.832 67.7641 49.9387 67.6681 49.992C67.5188 50.088 67.3748 50.088 67.2361 49.992C67.1295 49.9387 67.0655 49.7627 67.0441 49.464C67.0228 49.1547 67.0228 48.392 67.0441 47.176C67.0761 45.3733 67.1348 44.36 67.2201 44.136ZM64.3721 44.04C64.5321 43.9653 64.7615 43.9387 65.0601 43.96C65.2521 43.9707 65.3748 43.9973 65.4281 44.04C65.4815 44.0827 65.5081 44.1893 65.5081 44.36V44.728L64.1641 44.872C63.2361 44.9893 62.6761 45.0853 62.4841 45.16C62.3241 45.224 62.2281 45.288 62.1961 45.352C62.1748 45.4053 62.1801 45.512 62.2121 45.672C62.2655 45.992 62.2921 46.3867 62.2921 46.856C62.2921 47.3787 62.3508 47.7147 62.4681 47.864C62.5961 48.0027 62.8948 48.0773 63.3641 48.088C63.8868 48.088 64.3508 48.056 64.7561 47.992C65.0441 47.9493 65.2308 47.9387 65.3161 47.96C65.4121 47.9813 65.4921 48.0453 65.5561 48.152C65.6841 48.3973 65.6788 48.568 65.5401 48.664C65.4121 48.76 65.0975 48.8293 64.5961 48.872C62.7828 49.0107 61.8335 48.984 61.7481 48.792C61.7055 48.6747 61.6308 48.0027 61.5241 46.776C61.4601 45.9653 61.4281 45.4427 61.4281 45.208C61.4281 44.9733 61.4708 44.8187 61.5561 44.744C61.6308 44.6693 61.7908 44.5893 62.0361 44.504C62.2815 44.408 62.5535 44.328 62.8521 44.264C63.1508 44.2 63.4015 44.1627 63.6041 44.152C63.9455 44.152 64.2015 44.1147 64.3721 44.04ZM73.1896 41.176C73.275 41.0907 73.3923 41.0427 73.5416 41.032C73.691 41.0213 73.787 41.0587 73.8296 41.144C73.883 41.1973 73.9363 41.4907 73.9896 42.024L74.0696 42.808L74.8376 42.696C75.467 42.6213 75.8616 42.5947 76.0216 42.616C76.1816 42.6373 76.3043 42.7333 76.3896 42.904C76.4856 43.1067 76.4856 43.2667 76.3896 43.384C76.3043 43.5013 76.1443 43.5333 75.9096 43.48C75.7603 43.448 75.2963 43.496 74.5176 43.624C73.739 43.7413 73.0083 43.8853 72.3256 44.056C71.579 44.248 71.2056 44.1573 71.2056 43.784C71.2056 43.6667 71.2376 43.576 71.3016 43.512C71.3763 43.4373 71.5096 43.3627 71.7016 43.288C72.0643 43.1707 72.4003 43.1227 72.7096 43.144H73.1896L73.1256 42.232C73.0616 41.624 73.083 41.272 73.1896 41.176ZM77.8776 43.544C77.9203 43.4587 78.0483 43.416 78.2616 43.416H78.5816L78.5336 44.504L78.5016 45.608H79.1896C79.5736 45.608 79.835 45.64 79.9736 45.704C80.123 45.7573 80.1976 45.8747 80.1976 46.056C80.1976 46.216 80.139 46.328 80.0216 46.392C79.9043 46.4453 79.707 46.4667 79.4296 46.456C79.1203 46.4453 78.8536 46.4773 78.6296 46.552C78.4803 46.616 78.3896 46.6853 78.3576 46.76C78.3363 46.824 78.347 46.984 78.3896 47.24C78.443 47.656 78.443 47.944 78.3896 48.104C78.3576 48.2747 78.2456 48.3973 78.0536 48.472C77.8616 48.536 77.7283 48.5093 77.6536 48.392C77.579 48.296 77.563 47.576 77.6056 46.232C77.6483 45.1973 77.6856 44.52 77.7176 44.2C77.7496 43.8693 77.803 43.6507 77.8776 43.544ZM73.1416 44.76C73.5363 44.5573 73.7923 44.456 73.9096 44.456C74.0376 44.4453 74.2883 44.5093 74.6616 44.648C75.2056 44.84 75.5736 45.064 75.7656 45.32C75.9683 45.5653 76.075 45.9333 76.0856 46.424C76.1176 47.2347 75.6963 47.8427 74.8216 48.248C74.4696 48.4187 74.1496 48.52 73.8616 48.552C73.5736 48.5733 73.2483 48.5307 72.8856 48.424C72.4803 48.3173 72.187 48.152 72.0056 47.928C71.8243 47.704 71.7176 47.384 71.6856 46.968C71.6536 46.6267 71.6536 46.392 71.6856 46.264C71.7176 46.136 71.835 45.9387 72.0376 45.672C72.2936 45.32 72.6616 45.016 73.1416 44.76ZM74.9976 45.56C74.731 45.3147 74.3683 45.2453 73.9096 45.352C73.451 45.4587 73.0403 45.704 72.6776 46.088C72.539 46.2267 72.4536 46.344 72.4216 46.44C72.4003 46.536 72.4056 46.68 72.4376 46.872C72.523 47.224 72.7576 47.4853 73.1416 47.656C73.5363 47.8267 73.9043 47.8213 74.2456 47.64C74.7576 47.384 75.0883 47.048 75.2376 46.632C75.3976 46.2053 75.3176 45.848 74.9976 45.56ZM75.9896 49.448C77.1736 49.32 77.867 49.32 78.0696 49.448C78.1443 49.4907 78.1923 49.6187 78.2136 49.832C78.235 50.0453 78.2456 50.44 78.2456 51.016V52.472L77.9096 52.584C77.6856 52.6587 77.5416 52.616 77.4776 52.456C77.4243 52.3067 77.403 51.9013 77.4136 51.24C77.4243 50.568 77.3976 50.2107 77.3336 50.168C77.2483 50.1147 76.459 50.232 74.9656 50.52C74.7416 50.5627 74.5656 50.536 74.4376 50.44C74.3203 50.3333 74.2883 50.2 74.3416 50.04C74.4056 49.88 74.5496 49.7573 74.7736 49.672C74.9763 49.5867 75.3816 49.512 75.9896 49.448ZM84.7945 42.408C85.3918 42.3333 85.7598 42.3013 85.8985 42.312C86.0478 42.312 86.1492 42.3493 86.2025 42.424C86.2558 42.5093 86.2825 43.128 86.2825 44.28V45.976L85.9465 46.12C85.8078 46.1627 85.7012 46.1787 85.6265 46.168C85.5625 46.1467 85.5092 46.0773 85.4665 45.96C85.4238 45.8427 85.4025 45.6667 85.4025 45.432C85.4132 45.1973 85.4238 44.888 85.4345 44.504L85.4985 43.144H85.0985C84.8958 43.1547 84.3945 43.2347 83.5945 43.384C82.7945 43.5227 82.2025 43.64 81.8185 43.736C81.6905 43.768 81.5945 43.7733 81.5305 43.752C81.4665 43.7307 81.4078 43.6667 81.3545 43.56C81.3012 43.4533 81.2798 43.368 81.2905 43.304C81.3118 43.2293 81.3705 43.144 81.4665 43.048C81.5945 42.9307 81.8985 42.824 82.3785 42.728C82.8692 42.632 83.6745 42.5253 84.7945 42.408ZM84.1225 47.16C84.1972 47.0107 84.2932 46.936 84.4105 46.936C84.4958 46.936 84.5652 46.9627 84.6185 47.016C84.6825 47.0587 84.7358 47.144 84.7785 47.272C84.8212 47.3893 84.8478 47.544 84.8585 47.736C84.8798 47.928 84.8905 48.1787 84.8905 48.488V49.704H86.0585C86.4745 49.704 86.7518 49.7093 86.8905 49.72C87.0398 49.7307 87.1412 49.7573 87.1945 49.8C87.2585 49.832 87.3012 49.896 87.3225 49.992C87.3758 50.2267 87.3545 50.3813 87.2585 50.456C87.1625 50.5307 86.9385 50.568 86.5865 50.568C86.1278 50.568 85.3065 50.616 84.1225 50.712C82.9492 50.7973 82.1972 50.872 81.8665 50.936C81.4932 51 81.2265 51.0107 81.0665 50.968C80.9172 50.9147 80.8425 50.8027 80.8425 50.632C80.8425 50.4613 80.8852 50.344 80.9705 50.28C81.0665 50.2053 81.2425 50.1413 81.4985 50.088L81.8665 50.008L81.8985 48.696V47.368H82.2985H82.6665L82.6825 48.488C82.7038 49.2987 82.7145 49.7307 82.7145 49.784C82.7145 49.8907 82.9012 49.944 83.2745 49.944C83.4345 49.944 83.5518 49.944 83.6265 49.944C83.7118 49.944 83.7918 49.9227 83.8665 49.88C83.9518 49.8373 84.0052 49.7947 84.0265 49.752C84.0478 49.7093 84.0638 49.6293 84.0745 49.512C84.0958 49.384 84.1012 49.256 84.0905 49.128C84.0905 49 84.0852 48.808 84.0745 48.552C84.0318 47.7627 84.0478 47.2987 84.1225 47.16ZM94.1039 43.032C94.5305 42.8293 94.9092 42.7493 95.2399 42.792C95.5705 42.824 95.9225 42.9893 96.2959 43.288C96.6692 43.5867 96.9305 43.88 97.0799 44.168C97.2399 44.456 97.3199 44.7973 97.3199 45.192C97.3199 45.8107 97.1225 46.3173 96.7279 46.712C96.3439 47.1067 95.8319 47.336 95.1919 47.4C94.8399 47.432 94.5945 47.432 94.4559 47.4C94.3172 47.368 94.1092 47.2613 93.8319 47.08C93.3839 46.792 93.0692 46.4933 92.8879 46.184C92.7065 45.8747 92.6212 45.512 92.6319 45.096C92.6425 44.6053 92.7599 44.2 92.9839 43.88C93.2185 43.56 93.5919 43.2773 94.1039 43.032ZM95.9759 43.944C95.6985 43.7093 95.4639 43.5867 95.2719 43.576C95.0799 43.5547 94.7972 43.6453 94.4239 43.848C93.9865 44.072 93.7039 44.2747 93.5759 44.456C93.4479 44.6267 93.4052 44.872 93.4479 45.192C93.4692 45.3947 93.5172 45.5653 93.5919 45.704C93.6665 45.832 93.7999 45.976 93.9919 46.136C94.3865 46.4773 94.7919 46.6373 95.2079 46.616C95.6239 46.584 95.9812 46.3653 96.2799 45.96C96.4185 45.8107 96.4985 45.6773 96.5199 45.56C96.5519 45.432 96.5519 45.24 96.5199 44.984C96.4879 44.7173 96.4345 44.52 96.3599 44.392C96.2959 44.264 96.1679 44.1147 95.9759 43.944ZM98.8399 44.76C98.9145 44.6107 99.0692 44.5467 99.3039 44.568C99.4532 44.5893 99.5439 44.6267 99.5759 44.68C99.6185 44.7333 99.6292 44.856 99.6079 45.048C99.5759 45.2933 99.5545 46.2267 99.5439 47.848L99.5119 50.216L99.2239 50.28C99.0212 50.3227 98.8825 50.2907 98.8079 50.184C98.7012 50.024 98.6532 49.128 98.6639 47.496C98.6745 45.864 98.7332 44.952 98.8399 44.76ZM95.9919 47.944C96.8239 47.848 97.3945 47.8267 97.7039 47.88C98.0239 47.9333 98.1839 48.0773 98.1839 48.312C98.1839 48.4507 98.0932 48.552 97.9119 48.616C97.7412 48.6693 97.3625 48.712 96.7759 48.744C96.1892 48.776 95.8692 48.8187 95.8159 48.872C95.7732 48.9253 95.7412 49.32 95.7199 50.056V51.144L95.3199 51.176C95.1599 51.1973 95.0479 51.1867 94.9839 51.144C94.9305 51.112 94.8879 51.0213 94.8559 50.872C94.7919 50.6693 94.8025 50.28 94.8879 49.704C94.9092 49.5653 94.9305 49.432 94.9519 49.304C94.9732 49.1653 94.9839 49.0587 94.9839 48.984C94.9945 48.9093 94.9999 48.872 94.9999 48.872C94.9999 48.872 94.9732 48.8773 94.9199 48.888C94.8665 48.888 94.7865 48.8987 94.6799 48.92C94.5732 48.9307 94.4665 48.9467 94.3599 48.968C93.8372 49.064 93.4745 49.112 93.2719 49.112C93.0692 49.1013 92.9572 49.0427 92.9359 48.936C92.9145 48.7867 92.9785 48.6213 93.1279 48.44C93.2239 48.3227 93.3412 48.2427 93.4799 48.2C93.6185 48.1573 93.8692 48.1253 94.2319 48.104C95.0639 48.04 95.6505 47.9867 95.9919 47.944ZM102.493 42.616C103.528 42.4987 104.184 42.44 104.461 42.44C104.738 42.4293 104.914 42.472 104.989 42.568C105.064 42.664 105.064 42.7867 104.989 42.936C104.925 43.0747 104.733 43.3627 104.413 43.8L103.997 44.344L104.285 44.568C104.477 44.7173 104.605 44.792 104.669 44.792C104.722 44.792 104.92 44.8987 105.261 45.112C105.592 45.3467 105.757 45.5547 105.757 45.736C105.757 46.1627 105.346 46.1253 104.525 45.624C104.344 45.5067 104.216 45.4267 104.141 45.384C104.066 45.3413 103.97 45.2933 103.853 45.24C103.736 45.1867 103.656 45.1547 103.613 45.144C103.581 45.1227 103.517 45.1173 103.421 45.128C103.325 45.1387 103.261 45.1547 103.229 45.176C103.208 45.1973 103.149 45.2453 103.053 45.32C102.968 45.384 102.898 45.448 102.845 45.512C102.792 45.5653 102.706 45.6613 102.589 45.8C102.312 46.0987 102.104 46.3013 101.965 46.408C101.826 46.5147 101.704 46.5573 101.597 46.536C101.256 46.4827 101.186 46.2907 101.389 45.96C101.549 45.7147 101.896 45.3253 102.429 44.792C103.389 43.832 103.773 43.3307 103.581 43.288C103.56 43.2773 103.538 43.272 103.517 43.272C103.442 43.272 102.93 43.3627 101.981 43.544C101.373 43.6507 100.968 43.7093 100.765 43.72C100.573 43.7307 100.44 43.6987 100.365 43.624C100.248 43.5067 100.216 43.3787 100.269 43.24C100.333 43.0907 100.456 42.984 100.637 42.92C100.786 42.856 101.405 42.7547 102.493 42.616ZM105.149 47.608C105.384 47.48 105.597 47.4373 105.789 47.48C105.992 47.5227 106.13 47.6453 106.205 47.848C106.269 48.008 106.28 48.136 106.237 48.232C106.194 48.3173 106.098 48.3813 105.949 48.424C105.81 48.456 105.608 48.4613 105.341 48.44C104.882 48.4293 104.621 48.4773 104.557 48.584C104.482 48.7013 104.445 49.24 104.445 50.2C104.445 50.9147 104.429 51.336 104.397 51.464C104.376 51.592 104.29 51.6667 104.141 51.688C103.938 51.72 103.805 51.6773 103.741 51.56C103.656 51.4213 103.629 50.92 103.661 50.056C103.672 49.16 103.661 48.6853 103.629 48.632C103.597 48.6 103.24 48.6267 102.557 48.712C101.693 48.8187 101.16 48.8667 100.957 48.856C100.754 48.8453 100.642 48.76 100.621 48.6C100.61 48.536 100.632 48.456 100.685 48.36C100.738 48.264 100.797 48.184 100.861 48.12C101 48.0027 101.245 47.9227 101.597 47.88C101.96 47.8373 102.706 47.8107 103.837 47.8C104.52 47.7787 104.957 47.7147 105.149 47.608Z" fill="#F49393"/>
</g>
<defs>
<filter id="filter0_d_2_2141" x="0" y="0" width="205" height="84.1865" filterUnits="userSpaceOnUse" color-interpolation-filters="sRGB">
<feFlood flood-opacity="0" result="BackgroundImageFix"/>
<feColorMatrix in="SourceAlpha" type="matrix" values="0 0 0 0 0 0 0 0 0 0 0 0 0 0 0 0 0 0 127 0" result="hardAlpha"/>
<feOffset dy="2"/>
<feGaussianBlur stdDeviation="3.5"/>
<feComposite in2="hardAlpha" operator="out"/>
<feColorMatrix type="matrix" values="0 0 0 0 0.475 0 0 0 0 0.475 0 0 0 0 0.475 0 0 0 0.1 0"/>
<feBlend mode="normal" in2="BackgroundImageFix" result="effect1_dropShadow_2_2141"/>
<feBlend mode="normal" in="SourceGraphic" in2="effect1_dropShadow_2_2141" result="shape"/>
</filter>
</defs>
</svg>
