<svg width="185" height="77" viewBox="0 0 205 85" fill="none" xmlns="http://www.w3.org/2000/svg">
<g filter="url(#filter0_d_59_448)">
<rect x="7" y="5" width="191" height="60" rx="15" fill="white"/>
<path d="M180.358 74.9007C181.662 75.6796 183.324 74.7784 183.383 73.2609L184.213 51.7407C184.273 50.1917 182.624 49.1665 181.261 49.9054L161.943 60.3801C160.58 61.119 160.54 63.0602 161.87 63.8552L180.358 74.9007Z" fill="white"/>
<path d="M29.432 21.08C29.624 20.824 29.8053 20.872 29.976 21.224C30.104 21.48 30.168 21.8267 30.168 22.264V22.936L30.76 22.84C31.208 22.776 31.5333 22.744 31.736 22.744C31.8747 22.744 31.9973 22.7813 32.104 22.856C32.2213 22.92 32.296 23 32.328 23.096C32.36 23.192 32.3493 23.304 32.296 23.432C32.2427 23.528 32.1573 23.592 32.04 23.624C31.9333 23.6453 31.72 23.6507 31.4 23.64C31.0587 23.64 30.52 23.704 29.784 23.832C29.048 23.96 28.52 24.088 28.2 24.216C28.104 24.248 27.9973 24.2533 27.88 24.232C27.7627 24.2 27.6507 24.152 27.544 24.088C27.448 24.0133 27.4 23.9387 27.4 23.864C27.4 23.7147 27.4853 23.5973 27.656 23.512C27.8373 23.4267 28.136 23.3573 28.552 23.304L29.352 23.208L29.32 22.232C29.288 21.592 29.3253 21.208 29.432 21.08ZM34.6 23.688C34.6747 23.6027 34.7653 23.56 34.872 23.56C34.9893 23.5493 35.0747 23.5867 35.128 23.672C35.2027 23.7787 35.2347 24.6907 35.224 26.408C35.2133 28.1253 35.176 29.016 35.112 29.08C35.0053 29.1867 34.8773 29.2133 34.728 29.16C34.5787 29.1067 34.4827 28.9947 34.44 28.824C34.3867 28.6427 34.3493 28.3493 34.328 27.944V27.4L33.848 27.496C33.528 27.56 33.2027 27.5973 32.872 27.608C32.7227 27.608 32.6107 27.6027 32.536 27.592C32.472 27.5813 32.424 27.56 32.392 27.528C32.36 27.4853 32.3387 27.4267 32.328 27.352C32.3173 27.2347 32.344 27.1387 32.408 27.064C32.472 26.9893 32.5893 26.9253 32.76 26.872C32.9413 26.8187 33.2187 26.7547 33.592 26.68L34.44 26.536V26.04C34.44 25.8907 34.4293 25.784 34.408 25.72C34.3973 25.6453 34.3707 25.592 34.328 25.56C34.296 25.5173 34.232 25.4853 34.136 25.464C33.912 25.4107 33.6133 25.4373 33.24 25.544C32.9093 25.64 32.6693 25.6667 32.52 25.624C32.3813 25.5707 32.312 25.448 32.312 25.256C32.312 25.0213 32.3973 24.8613 32.568 24.776C32.7387 24.68 33.0587 24.6213 33.528 24.6C33.9547 24.5893 34.2053 24.568 34.28 24.536C34.3547 24.504 34.4027 24.3973 34.424 24.216C34.456 23.9707 34.5147 23.7947 34.6 23.688ZM29.288 24.632C29.5547 24.4293 29.784 24.328 29.976 24.328C30.168 24.3173 30.44 24.3973 30.792 24.568C31.0267 24.6853 31.192 24.8027 31.288 24.92C31.3947 25.0373 31.496 25.224 31.592 25.48C31.7627 25.9707 31.8373 26.4293 31.816 26.856C31.7947 27.272 31.6827 27.6187 31.48 27.896C31.032 28.4827 30.4933 28.7707 29.864 28.76C29.2453 28.7387 28.728 28.4187 28.312 27.8C28.0133 27.3733 27.96 26.8453 28.152 26.216C28.344 25.576 28.7227 25.048 29.288 24.632ZM30.872 25.544C30.776 25.3307 30.5893 25.2133 30.312 25.192C30.1413 25.1707 30.0027 25.1867 29.896 25.24C29.7893 25.2933 29.6453 25.416 29.464 25.608C28.9307 26.184 28.7547 26.7067 28.936 27.176C29.1067 27.6347 29.3573 27.8907 29.688 27.944C30.0187 27.9867 30.36 27.816 30.712 27.432C30.9147 27.208 31.0373 27.0427 31.08 26.936C31.1227 26.8293 31.128 26.6533 31.096 26.408C31.0533 26.0453 30.9787 25.7573 30.872 25.544ZM31.16 29.912C31.3413 29.6987 31.5547 29.6667 31.8 29.816C31.9067 29.8907 31.928 30.184 31.864 30.696C31.8107 31.1867 31.816 31.4373 31.88 31.448L32.008 31.4C32.168 31.3467 32.4667 31.2827 32.904 31.208C33.352 31.144 33.752 31.1013 34.104 31.08C34.4667 31.0587 34.696 31.064 34.792 31.096C35.0693 31.3307 35.0427 31.5333 34.712 31.704C34.5307 31.8 34.2853 31.864 33.976 31.896C33.7093 31.928 33.176 32.0187 32.376 32.168C31.928 32.2533 31.64 32.296 31.512 32.296C31.384 32.296 31.272 32.2533 31.176 32.168C31.048 32.0293 30.9787 31.656 30.968 31.048C30.9573 30.44 31.0213 30.0613 31.16 29.912ZM44.713 23.88C44.7983 23.8267 44.9263 23.8053 45.097 23.816C45.2143 23.8373 45.2837 23.88 45.305 23.944C45.337 24.008 45.3477 24.1467 45.337 24.36C45.3263 24.5947 45.289 25.6293 45.225 27.464C45.225 27.4747 45.225 27.4853 45.225 27.496C45.1823 28.7867 45.1397 29.5493 45.097 29.784C45.065 30.0187 44.9743 30.168 44.825 30.232C44.633 30.3173 44.505 30.3333 44.441 30.28C44.3877 30.2267 44.3343 29.6613 44.281 28.584L44.233 27L43.801 27.016C43.5557 27.016 43.273 27.0533 42.953 27.128L42.521 27.192L42.569 28.472C42.5797 29.048 42.5743 29.4107 42.553 29.56C42.5317 29.6987 42.4677 29.7787 42.361 29.8C42.201 29.832 42.0357 29.768 41.865 29.608C41.8543 29.5973 41.8383 29.5813 41.817 29.56C41.7103 29.4853 41.657 29.32 41.657 29.064C41.657 28.808 41.705 27.9653 41.801 26.536C41.8223 26.2267 41.8383 25.9813 41.849 25.8C41.881 25.3093 41.9183 24.9573 41.961 24.744C42.0037 24.5307 42.0623 24.3813 42.137 24.296C42.2117 24.2107 42.3237 24.168 42.473 24.168C42.697 24.168 42.825 24.2427 42.857 24.392C42.889 24.5307 42.8517 24.8453 42.745 25.336C42.6277 25.9013 42.617 26.1893 42.713 26.2C43.001 26.2213 43.3103 26.216 43.641 26.184C43.9823 26.1413 44.185 26.088 44.249 26.024C44.345 25.9173 44.425 25.5493 44.489 24.92C44.553 24.3013 44.6277 23.9547 44.713 23.88ZM39.113 24.248C39.1237 24.216 39.3103 24.2053 39.673 24.216C39.897 24.2267 40.0463 24.248 40.121 24.28C40.1957 24.312 40.2383 24.3867 40.249 24.504C40.3023 24.8347 40.0303 25.384 39.433 26.152C39.145 26.504 39.001 26.7333 39.001 26.84C39.001 26.9253 39.129 27.1173 39.385 27.416C39.6517 27.704 39.8917 27.9173 40.105 28.056C40.3503 28.2267 40.4517 28.5093 40.409 28.904C40.409 28.9573 40.377 29 40.313 29.032C40.249 29.064 40.1797 29.08 40.105 29.08C39.8063 29.08 39.3157 28.6533 38.633 27.8L38.377 27.496L38.009 27.928C37.7423 28.2373 37.5557 28.5253 37.449 28.792C37.353 28.9733 37.2677 29.0907 37.193 29.144C37.1183 29.1867 36.9957 29.1973 36.825 29.176C36.5583 29.1547 36.4143 29.0693 36.393 28.92C36.3503 28.728 37.049 27.7787 38.489 26.072C38.713 25.7947 38.8623 25.592 38.937 25.464C39.0117 25.3253 39.0117 25.2293 38.937 25.176C38.8623 25.112 38.7183 25.096 38.505 25.128C38.2917 25.1493 37.961 25.208 37.513 25.304C36.809 25.4427 36.3557 25.5067 36.153 25.496C35.961 25.4747 35.865 25.368 35.865 25.176C35.865 24.9733 36.0037 24.8187 36.281 24.712C36.5583 24.5947 37.049 24.4987 37.753 24.424C38.5957 24.328 39.049 24.2693 39.113 24.248ZM56.9595 24.04C57.0235 23.944 57.1408 23.9067 57.3115 23.928C57.4822 23.9493 57.5942 24.0187 57.6475 24.136C57.7222 24.2747 57.7275 24.808 57.6635 25.736C57.5782 26.7813 57.5248 27.848 57.5035 28.936C57.4928 29.6613 57.4715 30.152 57.4395 30.408C57.4075 30.664 57.3488 30.8133 57.2635 30.856C57.1462 30.9413 57.0075 30.9573 56.8475 30.904C56.7408 30.8613 56.6822 30.68 56.6715 30.36C56.6608 30.04 56.6768 29.1547 56.7195 27.704C56.7728 26.0933 56.8102 25.1067 56.8315 24.744C56.8528 24.3813 56.8955 24.1467 56.9595 24.04ZM51.8075 24.424C52.2982 24.2853 52.8262 24.2213 53.3915 24.232C53.9675 24.2427 54.3355 24.3227 54.4955 24.472C54.6022 24.5787 54.6662 25.2613 54.6875 26.52C54.7195 27.768 54.6875 28.44 54.5915 28.536C54.5275 28.6 53.9195 28.7173 52.7675 28.888C51.9888 28.984 51.5035 29.032 51.3115 29.032C51.1195 29.032 50.9915 28.984 50.9275 28.888C50.7675 28.664 50.6662 28.008 50.6235 26.92C50.5808 25.8213 50.6235 25.16 50.7515 24.936C50.8688 24.7653 51.2208 24.5947 51.8075 24.424ZM53.6955 25.112C53.5675 25.0693 53.4715 25.048 53.4075 25.048C53.3968 25.0587 53.3542 25.0693 53.2795 25.08C53.2155 25.0907 53.1248 25.1067 53.0075 25.128C52.8902 25.1493 52.7835 25.1653 52.6875 25.176C52.0262 25.2827 51.6422 25.3947 51.5355 25.512C51.4288 25.6293 51.3755 25.9973 51.3755 26.616C51.3755 27.2987 51.3968 27.7093 51.4395 27.848C51.4928 27.976 51.8608 28.0187 52.5435 27.976C53.2048 27.944 53.6048 27.9067 53.7435 27.864C53.8395 27.832 53.8875 27.3787 53.8875 26.504C53.8875 25.9707 53.8715 25.6133 53.8395 25.432C53.8182 25.2507 53.7702 25.144 53.6955 25.112ZM60.5461 22.296C60.9088 22.2533 61.4048 22.2107 62.0341 22.168C62.2048 22.1573 62.3381 22.2373 62.4341 22.408C62.5301 22.5787 62.5355 22.744 62.4501 22.904C62.4075 22.9787 62.3008 23.0267 62.1301 23.048C61.9595 23.0587 61.6341 23.0587 61.1541 23.048C60.3755 23.016 59.8581 23.0587 59.6021 23.176C59.3461 23.2933 59.1915 23.5707 59.1381 24.008C59.0955 24.3813 59.1061 24.6693 59.1701 24.872C59.2341 25.0107 59.2981 25.0853 59.3621 25.096C59.4261 25.096 59.6288 25.0533 59.9701 24.968C60.4501 24.8507 60.9675 24.792 61.5221 24.792C61.7888 24.792 61.9861 24.7973 62.1141 24.808C62.2528 24.8187 62.3541 24.84 62.4181 24.872C62.4821 24.904 62.5301 24.9573 62.5621 25.032C62.7008 25.2773 62.5568 25.448 62.1301 25.544C61.9168 25.5973 61.5968 25.64 61.1701 25.672C60.3701 25.7573 59.8528 25.8373 59.6181 25.912C59.4475 25.9867 59.3408 26.0507 59.2981 26.104C59.2555 26.1573 59.2501 26.248 59.2821 26.376C59.3035 26.5253 59.3355 26.616 59.3781 26.648C59.4315 26.6693 59.5541 26.664 59.7461 26.632C60.9408 26.4293 61.7621 26.328 62.2101 26.328C62.6581 26.328 62.8981 26.4293 62.9301 26.632C62.9301 26.6427 62.9301 26.6533 62.9301 26.664C62.9515 26.7707 62.9035 26.8507 62.7861 26.904C62.6155 26.968 61.8048 27.144 60.3541 27.432L60.3381 27.448H60.3221H60.3061H60.2901H60.2741L60.2581 27.464H60.2421H60.2261H60.2101H60.1941L60.1781 27.48H60.1621H60.1461H60.1301H60.1141L60.0981 27.496H60.0821C59.6235 27.592 59.3195 27.64 59.1701 27.64C59.0315 27.64 58.9248 27.6027 58.8501 27.528C58.6368 27.3253 58.4768 26.3493 58.3701 24.6C58.3488 24.344 58.3381 24.1307 58.3381 23.96C58.3381 23.7893 58.3488 23.624 58.3701 23.464C58.3915 23.2933 58.4181 23.16 58.4501 23.064C58.4821 22.968 58.5408 22.8773 58.6261 22.792C58.7115 22.696 58.8021 22.6267 58.8981 22.584C58.9941 22.5413 59.1275 22.4987 59.2981 22.456C59.4688 22.4133 59.6501 22.3813 59.8421 22.36C60.0341 22.3387 60.2688 22.3173 60.5461 22.296ZM64.0341 23.096C64.0768 22.9787 64.1728 22.9147 64.3221 22.904C64.4715 22.8933 64.5888 22.9413 64.6741 23.048C64.7275 23.1333 64.7541 23.9227 64.7541 25.416C64.7648 26.9093 64.7435 27.688 64.6901 27.752C64.6475 27.784 64.5141 27.7627 64.2901 27.688L63.9541 27.56V25.432C63.9541 24.024 63.9808 23.2453 64.0341 23.096ZM62.7701 28.392C62.9941 28.3707 63.1328 28.3493 63.1861 28.328C63.2288 28.3067 63.3195 28.3387 63.4581 28.424C63.6075 28.4987 63.7621 28.6107 63.9221 28.76C64.0821 28.8987 64.2048 29.032 64.2901 29.16C64.4395 29.3627 64.5355 29.5333 64.5781 29.672C64.6208 29.8107 64.6368 30.04 64.6261 30.36C64.6155 30.6693 64.5835 30.9093 64.5301 31.08C64.4768 31.2507 64.3755 31.4373 64.2261 31.64C63.7248 32.3333 63.1328 32.6053 62.4501 32.456C62.1088 32.3813 61.7568 32.2 61.3941 31.912C61.0315 31.6347 60.7808 31.336 60.6421 31.016C60.4821 30.696 60.4288 30.4027 60.4821 30.136C60.5355 29.8587 60.7008 29.5653 60.9781 29.256C61.0741 29.1387 61.1648 29.0427 61.2501 28.968C61.3355 28.8933 61.4261 28.8293 61.5221 28.776C61.6288 28.712 61.7408 28.6587 61.8581 28.616C61.9861 28.5627 62.1195 28.52 62.2581 28.488C62.4075 28.456 62.5781 28.424 62.7701 28.392ZM63.5861 29.544C63.4155 29.3413 63.2501 29.224 63.0901 29.192C62.9301 29.1493 62.7008 29.1813 62.4021 29.288C62.1995 29.352 62.0128 29.4427 61.8421 29.56C61.6821 29.6773 61.5541 29.8107 61.4581 29.96C61.3621 30.0987 61.3141 30.232 61.3141 30.36C61.3141 30.5627 61.4581 30.8187 61.7461 31.128C62.0341 31.4373 62.3008 31.6187 62.5461 31.672C62.7168 31.704 62.8501 31.6987 62.9461 31.656C63.0528 31.6133 63.2021 31.4907 63.3941 31.288C63.5648 31.1067 63.6768 30.9573 63.7301 30.84C63.7941 30.712 63.8261 30.5467 63.8261 30.344C63.8261 30.024 63.7461 29.7573 63.5861 29.544ZM67.3965 21.176C67.4818 21.0907 67.5992 21.0427 67.7485 21.032C67.8978 21.0213 67.9938 21.0587 68.0365 21.144C68.0898 21.1973 68.1432 21.4907 68.1965 22.024L68.2765 22.808L69.0445 22.696C69.6738 22.6213 70.0685 22.5947 70.2285 22.616C70.3885 22.6373 70.5112 22.7333 70.5965 22.904C70.6925 23.1067 70.6925 23.2667 70.5965 23.384C70.5112 23.5013 70.3512 23.5333 70.1165 23.48C69.9672 23.448 69.5032 23.496 68.7245 23.624C67.9458 23.7413 67.2152 23.8853 66.5325 24.056C65.7858 24.248 65.4125 24.1573 65.4125 23.784C65.4125 23.6667 65.4445 23.576 65.5085 23.512C65.5832 23.4373 65.7165 23.3627 65.9085 23.288C66.2712 23.1707 66.6072 23.1227 66.9165 23.144H67.3965L67.3325 22.232C67.2685 21.624 67.2898 21.272 67.3965 21.176ZM72.0845 23.544C72.1272 23.4587 72.2552 23.416 72.4685 23.416H72.7885L72.7405 24.504L72.7085 25.608H73.3965C73.7805 25.608 74.0418 25.64 74.1805 25.704C74.3298 25.7573 74.4045 25.8747 74.4045 26.056C74.4045 26.216 74.3458 26.328 74.2285 26.392C74.1112 26.4453 73.9138 26.4667 73.6365 26.456C73.3272 26.4453 73.0605 26.4773 72.8365 26.552C72.6872 26.616 72.5965 26.6853 72.5645 26.76C72.5432 26.824 72.5538 26.984 72.5965 27.24C72.6498 27.656 72.6498 27.944 72.5965 28.104C72.5645 28.2747 72.4525 28.3973 72.2605 28.472C72.0685 28.536 71.9352 28.5093 71.8605 28.392C71.7858 28.296 71.7698 27.576 71.8125 26.232C71.8552 25.1973 71.8925 24.52 71.9245 24.2C71.9565 23.8693 72.0098 23.6507 72.0845 23.544ZM67.3485 24.76C67.7432 24.5573 67.9992 24.456 68.1165 24.456C68.2445 24.4453 68.4952 24.5093 68.8685 24.648C69.4125 24.84 69.7805 25.064 69.9725 25.32C70.1752 25.5653 70.2818 25.9333 70.2925 26.424C70.3245 27.2347 69.9032 27.8427 69.0285 28.248C68.6765 28.4187 68.3565 28.52 68.0685 28.552C67.7805 28.5733 67.4552 28.5307 67.0925 28.424C66.6872 28.3173 66.3938 28.152 66.2125 27.928C66.0312 27.704 65.9245 27.384 65.8925 26.968C65.8605 26.6267 65.8605 26.392 65.8925 26.264C65.9245 26.136 66.0418 25.9387 66.2445 25.672C66.5005 25.32 66.8685 25.016 67.3485 24.76ZM69.2045 25.56C68.9378 25.3147 68.5752 25.2453 68.1165 25.352C67.6578 25.4587 67.2472 25.704 66.8845 26.088C66.7458 26.2267 66.6605 26.344 66.6285 26.44C66.6072 26.536 66.6125 26.68 66.6445 26.872C66.7298 27.224 66.9645 27.4853 67.3485 27.656C67.7432 27.8267 68.1112 27.8213 68.4525 27.64C68.9645 27.384 69.2952 27.048 69.4445 26.632C69.6045 26.2053 69.5245 25.848 69.2045 25.56ZM70.1965 29.448C71.3805 29.32 72.0738 29.32 72.2765 29.448C72.3512 29.4907 72.3992 29.6187 72.4205 29.832C72.4418 30.0453 72.4525 30.44 72.4525 31.016V32.472L72.1165 32.584C71.8925 32.6587 71.7485 32.616 71.6845 32.456C71.6312 32.3067 71.6098 31.9013 71.6205 31.24C71.6312 30.568 71.6045 30.2107 71.5405 30.168C71.4552 30.1147 70.6658 30.232 69.1725 30.52C68.9485 30.5627 68.7725 30.536 68.6445 30.44C68.5272 30.3333 68.4952 30.2 68.5485 30.04C68.6125 29.88 68.7565 29.7573 68.9805 29.672C69.1832 29.5867 69.5885 29.512 70.1965 29.448ZM84.9534 23.752C85.0814 23.6987 85.2147 23.6773 85.3534 23.688C85.492 23.688 85.5827 23.72 85.6254 23.784C85.668 23.848 85.6414 24.4827 85.5454 25.688C85.46 26.776 85.3854 27.8373 85.3214 28.872C85.2787 29.5867 85.2094 30.0453 85.1134 30.248C85.028 30.44 84.8627 30.4933 84.6174 30.408C84.5107 30.3653 84.4467 30.1573 84.4254 29.784C84.4147 29.4 84.452 28.7653 84.5374 27.88L84.6174 26.904L84.0414 26.968C83.6467 27.0213 83.268 27.128 82.9054 27.288L82.2974 27.528V28.856C82.2867 29.3787 82.2654 29.736 82.2334 29.928C82.2014 30.1093 82.1427 30.232 82.0574 30.296C81.6627 30.5947 81.4707 30.44 81.4814 29.832C81.5027 28.7013 81.5454 27.4747 81.6094 26.152C81.684 24.8187 81.748 24.104 81.8014 24.008C81.8547 23.8907 81.9507 23.8213 82.0894 23.8C82.2387 23.7787 82.3827 23.816 82.5214 23.912C82.5854 23.9547 82.6174 24.0507 82.6174 24.2C82.628 24.3493 82.6014 24.6533 82.5374 25.112C82.4307 25.8373 82.404 26.2213 82.4574 26.264C82.4787 26.296 82.596 26.3013 82.8094 26.28C83.0334 26.2587 83.268 26.2267 83.5134 26.184C83.7694 26.1413 84.0094 26.0933 84.2334 26.04C84.468 25.976 84.6067 25.928 84.6494 25.896C84.7454 25.8107 84.7934 25.4427 84.7934 24.792C84.7934 24.1413 84.8467 23.7947 84.9534 23.752ZM78.0094 24.472C78.5534 24.3653 78.8947 24.312 79.0334 24.312C79.172 24.312 79.2894 24.3653 79.3854 24.472C79.4707 24.5787 79.5027 24.776 79.4814 25.064C79.4707 25.3413 79.4067 25.8587 79.2894 26.616C79.2787 26.7013 79.236 26.9733 79.1614 27.432C79.0867 27.8907 79.0334 28.232 79.0014 28.456C78.916 29.1067 78.8307 29.464 78.7454 29.528C78.7027 29.56 78.6227 29.576 78.5054 29.576C78.2707 29.576 78.132 29.4853 78.0894 29.304C78.0574 29.1227 78.0947 28.7333 78.2014 28.136C78.4894 26.5573 78.6334 25.656 78.6334 25.432C78.6334 25.3573 78.6227 25.304 78.6014 25.272C78.58 25.2293 78.548 25.2133 78.5054 25.224C78.42 25.288 77.9987 25.3787 77.2414 25.496C76.4947 25.6133 75.9934 25.672 75.7374 25.672C75.4387 25.672 75.236 25.608 75.1294 25.48C74.9374 25.256 75.1187 25.0693 75.6734 24.92C75.844 24.8773 76.0574 24.8347 76.3134 24.792C76.9214 24.696 77.4867 24.5893 78.0094 24.472ZM87.688 21.48C88.1467 21.352 88.632 21.288 89.144 21.288C89.6667 21.2773 90.008 21.3573 90.168 21.528C90.328 21.688 90.44 22.0773 90.504 22.696C90.5253 22.9627 90.5413 23.1547 90.552 23.272C90.5627 23.3893 90.5573 23.5227 90.536 23.672C90.5147 23.8107 90.488 23.9013 90.456 23.944C90.424 23.976 90.344 24.0293 90.216 24.104C90.0987 24.168 89.9813 24.216 89.864 24.248C89.7573 24.2693 89.576 24.312 89.32 24.376C88.488 24.5893 87.976 24.7387 87.784 24.824C87.6027 24.9093 87.528 25.0587 87.56 25.272C87.5707 25.3893 87.5973 25.4747 87.64 25.528C87.6933 25.5707 87.768 25.5813 87.864 25.56C88.472 25.4853 89.1067 25.3467 89.768 25.144C90.4187 24.952 90.744 25.0907 90.744 25.56C90.744 25.6773 90.712 25.7627 90.648 25.816C90.5947 25.8587 90.456 25.9013 90.232 25.944C90.008 25.976 89.5333 26.0933 88.808 26.296C87.88 26.552 87.2773 26.616 87 26.488C86.7333 26.36 86.632 25.9707 86.696 25.32C86.7387 24.84 86.856 24.5147 87.048 24.344C87.2507 24.1733 87.6773 24.0133 88.328 23.864C88.6053 23.8 88.8133 23.752 88.952 23.72C89.0907 23.688 89.224 23.6507 89.352 23.608C89.4907 23.5547 89.5813 23.5173 89.624 23.496C89.6667 23.464 89.704 23.4107 89.736 23.336C89.768 23.2613 89.7787 23.1973 89.768 23.144C89.768 23.08 89.7573 22.984 89.736 22.856C89.672 22.5253 89.6027 22.3013 89.528 22.184C89.4 22.024 88.8347 22.0773 87.832 22.344C87.416 22.4613 87.048 22.52 86.728 22.52C86.5467 22.52 86.424 22.504 86.36 22.472C86.3067 22.44 86.28 22.376 86.28 22.28C86.28 21.992 86.7493 21.7253 87.688 21.48ZM88.776 26.888C89.032 26.5787 89.2187 26.584 89.336 26.904C89.3893 27.064 89.416 27.272 89.416 27.528C89.416 27.7307 89.432 27.8533 89.464 27.896C89.5067 27.928 89.6293 27.9227 89.832 27.88C90.0453 27.8373 90.4027 27.7893 90.904 27.736C91.1813 27.6933 91.3627 27.6827 91.448 27.704C91.5333 27.7253 91.608 27.7947 91.672 27.912C91.768 28.0827 91.7893 28.2267 91.736 28.344C91.6933 28.4613 91.576 28.552 91.384 28.616C91.2027 28.6693 90.952 28.696 90.632 28.696C90.3013 28.696 89.8 28.76 89.128 28.888C87.688 29.1547 86.92 29.144 86.824 28.856C86.7493 28.6747 86.824 28.5147 87.048 28.376C87.2827 28.2373 87.5707 28.184 87.912 28.216L88.488 28.248L88.552 27.672C88.5947 27.2987 88.6693 27.0373 88.776 26.888ZM87.816 30.056C87.9227 29.9813 88.0613 29.9547 88.232 29.976C88.36 29.9973 88.4347 30.0613 88.456 30.168C88.4773 30.264 88.4613 30.504 88.408 30.888C88.408 30.888 88.408 30.8933 88.408 30.904C88.3867 31.096 88.424 31.2027 88.52 31.224C88.616 31.2453 88.9573 31.2187 89.544 31.144C89.5973 31.144 89.64 31.144 89.672 31.144C89.7147 31.1333 89.7733 31.1227 89.848 31.112C90.904 30.984 91.5227 30.9253 91.704 30.936C91.896 30.936 92.024 31.0053 92.088 31.144C92.088 31.1547 92.0933 31.1653 92.104 31.176C92.1573 31.3253 92.1573 31.448 92.104 31.544C92.0613 31.64 91.96 31.7093 91.8 31.752C91.64 31.8053 91.432 31.832 91.176 31.832C90.7813 31.8107 90.1733 31.9013 89.352 32.104C88.5307 32.296 88.0613 32.344 87.944 32.248C87.7413 32.1307 87.6187 31.7627 87.576 31.144C87.5333 30.536 87.6133 30.1733 87.816 30.056ZM94.0399 22.056C94.2425 21.928 94.4132 21.8533 94.5519 21.832C94.7012 21.8 94.9305 21.7947 95.2399 21.816C95.6665 21.848 96.0185 21.9333 96.2959 22.072C96.5732 22.2107 96.8719 22.456 97.1919 22.808C97.6719 23.3627 97.8159 23.9973 97.6239 24.712C97.4425 25.416 96.9892 25.9547 96.2639 26.328C95.5812 26.68 94.8399 26.584 94.0399 26.04C93.6452 25.7627 93.3359 25.4533 93.1119 25.112C92.8985 24.7707 92.7919 24.4293 92.7919 24.088C92.7919 23.7787 92.9145 23.4213 93.1599 23.016C93.4159 22.6 93.7092 22.28 94.0399 22.056ZM96.0079 22.728C95.7199 22.5893 95.5385 22.5253 95.4639 22.536C95.1972 22.568 94.9199 22.664 94.6319 22.824C94.3545 22.9733 94.1252 23.1653 93.9439 23.4C93.7625 23.624 93.6719 23.832 93.6719 24.024C93.6719 24.4187 93.7892 24.7547 94.0239 25.032C94.2585 25.3093 94.5359 25.4907 94.8559 25.576C95.1759 25.6613 95.5065 25.6507 95.8479 25.544C96.1892 25.4267 96.4612 25.2027 96.6639 24.872C96.8559 24.5947 96.9519 24.3387 96.9519 24.104C96.9519 23.8587 96.8559 23.5973 96.6639 23.32C96.4719 23.0427 96.2532 22.8453 96.0079 22.728ZM96.3119 27.56C97.0159 27.464 97.4905 27.432 97.7359 27.464C97.9812 27.4853 98.1412 27.5813 98.2159 27.752C98.3439 28.008 98.3225 28.1787 98.1519 28.264C97.9919 28.3493 97.6025 28.3973 96.9839 28.408C96.2585 28.408 95.4425 28.4613 94.5359 28.568C93.6185 28.6747 93.1332 28.7013 93.0799 28.648C93.0265 28.5947 93.0319 28.4667 93.0959 28.264C93.1919 27.88 93.7572 27.6827 94.7919 27.672C95.4639 27.6507 95.9705 27.6133 96.3119 27.56ZM94.3759 29.528C94.7812 29.1227 94.9999 29.3147 95.0319 30.104C95.0639 30.584 95.1172 30.824 95.1919 30.824C95.2559 30.824 95.4425 30.76 95.7519 30.632C96.0079 30.5253 96.4985 30.424 97.2239 30.328C97.9492 30.2213 98.3759 30.1947 98.5039 30.248C98.6319 30.2907 98.6905 30.4133 98.6799 30.616C98.6799 30.8187 98.6212 30.9467 98.5039 31C98.3545 31.0533 98.1039 31.08 97.7519 31.08C97.3785 31.08 96.8825 31.1867 96.2639 31.4C95.9119 31.5173 95.6292 31.5973 95.4159 31.64C95.2132 31.6827 95.0319 31.704 94.8719 31.704C94.7119 31.704 94.5892 31.6507 94.5039 31.544C94.4292 31.4373 94.3705 31.2987 94.3279 31.128C94.2852 30.968 94.2479 30.744 94.2159 30.456C94.1945 30.168 94.1945 29.9653 94.2159 29.848C94.2372 29.72 94.2905 29.6133 94.3759 29.528ZM109.663 42.52C111.092 42.264 111.881 42.232 112.031 42.424C112.105 42.552 112.18 43.016 112.255 43.816C112.34 44.616 112.356 45.0693 112.303 45.176C112.249 45.2827 111.993 45.4053 111.535 45.544C111.087 45.672 110.58 45.7733 110.015 45.848C109.705 45.9013 109.503 46.0027 109.407 46.152C109.321 46.3013 109.332 46.5147 109.439 46.792C109.492 46.92 109.556 46.9947 109.631 47.016C109.705 47.0373 109.897 47.032 110.207 47C110.644 46.936 111.129 46.8453 111.663 46.728C112.111 46.632 112.409 46.5947 112.559 46.616C112.708 46.6373 112.831 46.728 112.927 46.888C113.023 47.08 113.007 47.2293 112.879 47.336C112.761 47.4427 112.521 47.5227 112.159 47.576C110.612 47.7787 109.668 47.8853 109.327 47.896C108.996 47.896 108.799 47.8 108.735 47.608C108.692 47.512 108.639 47.1867 108.575 46.632C108.532 46.0987 108.585 45.752 108.735 45.592C108.895 45.4213 109.316 45.2613 109.999 45.112C110.255 45.0587 110.447 45.0213 110.575 45C110.703 44.968 110.836 44.936 110.975 44.904C111.113 44.8613 111.204 44.824 111.247 44.792C111.3 44.76 111.353 44.728 111.407 44.696C111.46 44.664 111.487 44.616 111.487 44.552C111.487 44.488 111.487 44.4293 111.487 44.376C111.487 44.3227 111.481 44.2427 111.471 44.136C111.385 43.6027 111.3 43.2933 111.215 43.208C111.129 43.1227 110.884 43.112 110.479 43.176C110.191 43.2187 109.711 43.3147 109.039 43.464C108.665 43.5493 108.404 43.576 108.255 43.544C108.105 43.512 108.031 43.4 108.031 43.208C108.031 43.048 108.153 42.92 108.399 42.824C108.644 42.7173 109.065 42.616 109.663 42.52ZM110.559 49.064C110.644 48.8933 110.799 48.824 111.023 48.856C111.193 48.8667 111.289 48.9147 111.311 49C111.332 49.0747 111.337 49.3253 111.327 49.752L111.279 50.616L112.143 50.52C112.548 50.4773 112.921 50.4293 113.263 50.376C113.433 50.3333 113.588 50.3813 113.727 50.52C113.876 50.6587 113.94 50.8187 113.919 51C113.897 51.1173 113.839 51.192 113.743 51.224C113.657 51.256 113.449 51.288 113.119 51.32C112.873 51.32 112.516 51.3467 112.047 51.4C111.577 51.464 111.097 51.5333 110.607 51.608C110.127 51.6933 109.721 51.7733 109.391 51.848C109.028 51.9333 108.783 51.944 108.655 51.88C108.537 51.8267 108.511 51.6987 108.575 51.496C108.66 51.2293 109.124 51.0267 109.967 50.888L110.415 50.808V50.056C110.415 49.5653 110.463 49.2347 110.559 49.064ZM122.651 42.776C123.11 42.6907 123.382 42.6587 123.467 42.68C123.552 42.7013 123.595 42.8187 123.595 43.032C123.595 43.2773 123.547 43.496 123.451 43.688C123.355 43.88 123.158 44.1627 122.859 44.536L122.427 45.064L123.259 45.848C123.504 46.0827 123.691 46.2693 123.819 46.408C123.947 46.5467 124.038 46.6693 124.091 46.776C124.144 46.8827 124.16 46.968 124.139 47.032C124.118 47.0853 124.059 47.1333 123.963 47.176C123.899 47.208 123.846 47.2293 123.803 47.24C123.76 47.24 123.691 47.2133 123.595 47.16C123.51 47.1067 123.408 47.0373 123.291 46.952C123.174 46.856 123.019 46.7227 122.827 46.552L121.947 45.752L121.451 46.264C121.142 46.5413 120.912 46.8187 120.763 47.096C120.688 47.2347 120.608 47.3253 120.523 47.368C120.448 47.4107 120.331 47.4267 120.171 47.416C119.915 47.384 119.771 47.3253 119.739 47.24C119.718 47.208 119.846 47.0107 120.123 46.648C120.4 46.2853 120.726 45.8747 121.099 45.416C121.472 44.9467 121.792 44.5733 122.059 44.296C122.454 43.88 122.56 43.672 122.379 43.672C122.23 43.672 121.814 43.7413 121.131 43.88C120.459 44.008 120.048 44.104 119.899 44.168C119.43 44.3387 119.195 44.248 119.195 43.896C119.195 43.7467 119.248 43.6293 119.355 43.544C119.462 43.448 119.632 43.3627 119.867 43.288C120.112 43.2133 120.475 43.1387 120.955 43.064C121.094 43.0427 121.259 43.016 121.451 42.984C121.643 42.952 121.808 42.9253 121.947 42.904C122.086 42.872 122.219 42.8453 122.347 42.824C122.486 42.8027 122.587 42.7867 122.651 42.776ZM125.483 43.208C125.675 42.9627 125.883 42.9573 126.107 43.192C126.192 43.32 126.192 43.752 126.107 44.488C126.011 45.256 125.984 46.0347 126.027 46.824L126.107 48.04L125.755 48.088C125.52 48.1413 125.371 48.1307 125.307 48.056C125.211 47.9707 125.19 47.176 125.243 45.672C125.296 44.1573 125.376 43.336 125.483 43.208ZM121.739 48.824C121.846 48.6533 121.984 48.5893 122.155 48.632C122.272 48.6853 122.358 48.7387 122.411 48.792C122.475 48.8453 122.512 48.92 122.523 49.016C122.534 49.112 122.523 49.2347 122.491 49.384C122.448 49.608 122.416 49.8587 122.395 50.136V50.504L123.227 50.488C124.112 50.4347 124.662 50.4027 124.875 50.392C125.312 50.3493 125.595 50.36 125.723 50.424C125.851 50.4773 125.872 50.6107 125.787 50.824C125.744 50.9627 125.643 51.0533 125.483 51.096C125.334 51.1387 124.832 51.2187 123.979 51.336C123.787 51.3573 123.574 51.3787 123.339 51.4C123.104 51.432 122.891 51.4587 122.699 51.48C122.518 51.512 122.411 51.528 122.379 51.528C122.048 51.56 121.83 51.4853 121.723 51.304C121.627 51.1333 121.579 50.7387 121.579 50.12C121.579 49.4267 121.632 48.9947 121.739 48.824ZM128.64 40.92C128.79 40.664 128.95 40.6747 129.12 40.952C129.259 41.1653 129.328 41.4533 129.328 41.816C129.328 42.0507 129.355 42.28 129.408 42.504C129.44 42.632 129.494 42.7067 129.568 42.728C129.654 42.7493 129.835 42.744 130.112 42.712C130.528 42.6693 130.779 42.6267 130.864 42.584C130.95 42.5307 131.104 42.5307 131.328 42.584C131.563 42.6373 131.707 42.7493 131.76 42.92C131.824 43.08 131.787 43.2293 131.648 43.368C131.51 43.496 131.328 43.5387 131.104 43.496C130.976 43.4747 130.443 43.5333 129.504 43.672C128.566 43.8107 127.856 43.9333 127.376 44.04C127.003 44.1253 126.816 44.024 126.816 43.736C126.816 43.512 126.928 43.352 127.152 43.256C127.387 43.16 127.835 43.0853 128.496 43.032C128.56 43.0213 128.587 42.6907 128.576 42.04C128.555 41.3787 128.576 41.0053 128.64 40.92ZM134.416 43.608C134.619 43.288 134.843 43.2187 135.088 43.4C135.152 43.4427 135.184 43.5387 135.184 43.688C135.195 43.8373 135.174 44.1253 135.12 44.552C135.014 45.2027 134.976 45.8907 135.008 46.616C135.03 47.0213 135.03 47.2933 135.008 47.432C134.987 47.5707 134.928 47.672 134.832 47.736C134.651 47.8427 134.507 47.8107 134.4 47.64C134.294 47.4587 134.235 47.1493 134.224 46.712C134.214 46.168 134.16 45.88 134.064 45.848C133.979 45.816 133.808 45.832 133.552 45.896L133.168 46.024V47C133.168 47.4373 133.152 47.7147 133.12 47.832C133.099 47.9493 133.035 48.0187 132.928 48.04C132.672 48.0827 132.512 47.9813 132.448 47.736C132.384 47.4907 132.352 46.8453 132.352 45.8C132.352 44.488 132.411 43.752 132.528 43.592C132.603 43.496 132.667 43.4427 132.72 43.432C132.774 43.4213 132.843 43.4427 132.928 43.496C133.088 43.592 133.179 43.8747 133.2 44.344C133.222 44.7387 133.286 44.984 133.392 45.08C133.499 45.176 133.696 45.1653 133.984 45.048C134.166 44.9733 134.267 44.904 134.288 44.84C134.32 44.776 134.32 44.632 134.288 44.408C134.235 44.088 134.278 43.8213 134.416 43.608ZM128.928 44.6C129.238 44.4827 129.456 44.4507 129.584 44.504C129.872 44.6107 130.064 44.68 130.16 44.712C130.288 44.7653 130.4 44.8187 130.496 44.872C130.592 44.9147 130.683 44.9733 130.768 45.048C130.854 45.112 130.923 45.1867 130.976 45.272C131.04 45.3573 131.104 45.4587 131.168 45.576C131.392 46.0347 131.403 46.52 131.2 47.032C130.998 47.5333 130.635 47.912 130.112 48.168C129.952 48.2533 129.664 48.3013 129.248 48.312C128.832 48.312 128.512 48.2747 128.288 48.2C128.107 48.1253 127.942 48.0187 127.792 47.88C127.654 47.7413 127.536 47.5813 127.44 47.4C127.344 47.208 127.28 47.0053 127.248 46.792C127.216 46.5467 127.211 46.36 127.232 46.232C127.264 46.0933 127.344 45.9173 127.472 45.704C127.558 45.5653 127.648 45.448 127.744 45.352C127.84 45.2453 127.947 45.1493 128.064 45.064C128.192 44.968 128.326 44.888 128.464 44.824C128.603 44.7493 128.758 44.6747 128.928 44.6ZM130.368 45.672C130.027 45.2773 129.526 45.2293 128.864 45.528C128.576 45.6667 128.368 45.8213 128.24 45.992C128.123 46.1627 128.064 46.3867 128.064 46.664C128.064 46.9093 128.176 47.1173 128.4 47.288C128.635 47.4587 128.886 47.5493 129.152 47.56C129.419 47.5707 129.664 47.496 129.888 47.336C130.23 47.048 130.443 46.76 130.528 46.472C130.614 46.184 130.56 45.9173 130.368 45.672ZM131.696 48.92C131.878 48.8027 132.123 48.7333 132.432 48.712C132.742 48.6907 133.014 48.7227 133.248 48.808C133.462 48.8933 133.723 49.0853 134.032 49.384C134.214 49.5653 134.336 49.72 134.4 49.848C134.464 49.976 134.496 50.1253 134.496 50.296C134.486 51.0533 134.278 51.6773 133.872 52.168C133.478 52.6693 133.019 52.872 132.496 52.776C132.294 52.744 132.059 52.6533 131.792 52.504C131.536 52.3653 131.328 52.2053 131.168 52.024C130.688 51.5653 130.496 51.0373 130.592 50.44C130.699 49.832 131.067 49.3253 131.696 48.92ZM133.264 49.704C133.051 49.5333 132.854 49.448 132.672 49.448C132.544 49.448 132.4 49.496 132.24 49.592C132.091 49.688 131.947 49.8107 131.808 49.96C131.68 50.1093 131.579 50.264 131.504 50.424C131.43 50.6267 131.398 50.776 131.408 50.872C131.43 50.9573 131.52 51.1173 131.68 51.352C131.968 51.768 132.283 51.9707 132.624 51.96C132.976 51.96 133.27 51.7467 133.504 51.32C133.846 50.6373 133.766 50.0987 133.264 49.704ZM139.092 41.944C139.145 41.9013 139.257 41.8907 139.428 41.912C139.598 41.9227 139.753 41.96 139.892 42.024C140.041 42.1093 140.11 42.216 140.1 42.344C140.1 42.4613 139.998 42.6533 139.796 42.92C139.593 43.2293 139.492 43.4373 139.492 43.544C139.492 43.5653 139.518 43.608 139.572 43.672C139.636 43.7253 139.721 43.7947 139.828 43.88C139.945 43.9547 140.068 44.0293 140.196 44.104C140.772 44.4773 140.996 44.776 140.868 45C140.825 45.0533 140.772 45.0907 140.708 45.112C140.612 45.144 140.372 45.0693 139.988 44.888C139.614 44.696 139.316 44.5093 139.092 44.328C139.017 44.264 138.948 44.2373 138.884 44.248C138.82 44.2587 138.718 44.3227 138.58 44.44C138.377 44.632 138.153 44.8933 137.908 45.224C137.641 45.608 137.438 45.832 137.3 45.896C137.161 45.9493 136.99 45.896 136.788 45.736C136.638 45.64 136.612 45.5173 136.708 45.368C136.804 45.2187 137.166 44.7973 137.796 44.104C138.489 43.3253 138.825 42.8987 138.804 42.824C138.782 42.7813 138.67 42.7867 138.468 42.84C138.244 42.8827 137.977 42.9253 137.668 42.968C137.518 42.9787 137.15 43.0213 136.564 43.096L135.844 43.192V42.856C135.844 42.6427 135.956 42.4933 136.18 42.408C136.404 42.3227 136.926 42.2373 137.748 42.152C138.622 42.056 139.07 41.9867 139.092 41.944ZM140.244 46.264C140.542 46.1787 140.793 46.1413 140.996 46.152C141.209 46.152 141.348 46.2053 141.412 46.312C141.476 46.4187 141.47 46.5627 141.396 46.744C141.3 46.9573 141.129 47.064 140.884 47.064C140.628 47.064 140.398 47.1013 140.196 47.176C140.046 47.24 139.956 47.32 139.924 47.416C139.892 47.512 139.876 47.7573 139.876 48.152V49.016L140.532 49.176C140.926 49.2613 141.241 49.4 141.476 49.592C141.614 49.7307 141.694 49.8587 141.716 49.976C141.748 50.0827 141.748 50.3013 141.716 50.632C141.694 50.8773 141.668 51.0587 141.636 51.176C141.604 51.2933 141.55 51.4 141.476 51.496C141.412 51.592 141.3 51.7147 141.14 51.864C141.012 51.992 140.894 52.088 140.788 52.152C140.692 52.216 140.596 52.264 140.5 52.296C140.404 52.3387 140.292 52.36 140.164 52.36C138.638 52.4133 137.87 51.8907 137.86 50.792C137.86 50.536 137.881 50.3493 137.924 50.232C137.977 50.104 138.094 49.9493 138.276 49.768C138.532 49.5013 138.761 49.3307 138.964 49.256C139.081 49.224 139.15 49.1867 139.172 49.144C139.204 49.0907 139.204 49.0107 139.172 48.904C139.097 48.68 139.049 48.3867 139.028 48.024C138.996 47.7467 138.958 47.5813 138.916 47.528C138.884 47.464 138.809 47.4427 138.692 47.464C138.542 47.5067 138.126 47.5813 137.444 47.688C136.996 47.7627 136.708 47.7947 136.58 47.784C136.452 47.7733 136.34 47.7253 136.244 47.64C136.148 47.544 136.1 47.4747 136.1 47.432C136.11 47.3787 136.174 47.2933 136.292 47.176C136.388 47.08 136.537 47.0053 136.74 46.952C136.942 46.8987 137.273 46.8453 137.732 46.792C138.318 46.7387 138.745 46.6853 139.012 46.632C139.289 46.568 139.7 46.4453 140.244 46.264ZM140.788 50.168C140.628 50.04 140.494 49.9653 140.388 49.944C140.281 49.912 140.057 49.9067 139.716 49.928C139.246 49.96 138.921 50.12 138.74 50.408C138.569 50.696 138.628 50.984 138.916 51.272C139.065 51.432 139.193 51.5227 139.3 51.544C139.406 51.576 139.582 51.5813 139.828 51.56C140.297 51.5067 140.638 51.32 140.852 51C141.076 50.6907 141.054 50.4133 140.788 50.168ZM144.019 44.12C144.595 43.8213 145.224 43.912 145.907 44.392C146.462 44.7653 146.856 45.2293 147.091 45.784C147.326 46.328 147.368 46.8827 147.219 47.448C147.123 47.8427 146.984 48.136 146.803 48.328C146.632 48.52 146.355 48.696 145.971 48.856C145.598 49.016 145.256 49.096 144.947 49.096C144.691 49.1067 144.414 49.0587 144.115 48.952C143.816 48.8453 143.539 48.696 143.283 48.504C143.038 48.312 142.84 48.1093 142.691 47.896C142.542 47.6613 142.451 47.4747 142.419 47.336C142.387 47.1867 142.382 46.9467 142.403 46.616C142.435 46.104 142.52 45.7253 142.659 45.48C142.787 45.2347 142.984 44.9787 143.251 44.712C143.518 44.4453 143.774 44.248 144.019 44.12ZM145.507 45.048C145.198 44.824 144.942 44.7227 144.739 44.744C144.536 44.7547 144.291 44.888 144.003 45.144C143.576 45.5493 143.326 45.9653 143.251 46.392C143.187 46.808 143.31 47.2027 143.619 47.576C143.982 48.0133 144.424 48.2373 144.947 48.248C145.48 48.248 145.918 48.024 146.259 47.576C146.366 47.448 146.435 47.32 146.467 47.192C146.499 47.0533 146.504 46.8507 146.483 46.584C146.451 46.2427 146.366 45.9653 146.227 45.752C146.088 45.528 145.848 45.2933 145.507 45.048ZM148.995 44.248C149.038 44.1733 149.16 44.1467 149.363 44.168C149.566 44.1893 149.672 44.2373 149.683 44.312C149.704 44.4933 149.662 45.976 149.555 48.76L149.459 50.76H149.091C148.984 50.76 148.91 50.76 148.867 50.76C148.824 50.7493 148.787 50.7227 148.755 50.68C148.723 50.6267 148.702 50.568 148.691 50.504C148.691 50.4293 148.686 50.3067 148.675 50.136C148.654 49.784 148.686 48.7333 148.771 46.984C148.867 45.2347 148.942 44.3227 148.995 44.248ZM152.193 44.2C152.438 44.1253 152.646 44.104 152.817 44.136C152.998 44.1573 153.307 44.264 153.745 44.456C154.459 44.7547 154.822 45.3947 154.833 46.376C154.833 46.8773 154.785 47.2613 154.689 47.528C154.603 47.784 154.438 48.056 154.193 48.344C153.969 48.6 153.798 48.7547 153.681 48.808C153.574 48.8613 153.366 48.888 153.057 48.888C152.449 48.888 151.867 48.7067 151.313 48.344C150.769 47.9813 150.454 47.576 150.369 47.128C150.294 46.6907 150.31 46.312 150.417 45.992C150.523 45.672 150.753 45.336 151.105 44.984C151.275 44.8027 151.467 44.6373 151.681 44.488C151.905 44.3387 152.075 44.2427 152.193 44.2ZM153.297 45.048C153.03 44.9627 152.838 44.9307 152.721 44.952C152.603 44.9627 152.39 45.0533 152.081 45.224C151.718 45.4373 151.478 45.624 151.361 45.784C151.243 45.944 151.179 46.168 151.169 46.456C151.169 46.8187 151.302 47.1333 151.569 47.4C151.846 47.6667 152.209 47.848 152.657 47.944C152.998 48.0293 153.211 48.0667 153.297 48.056C153.382 48.0347 153.499 47.9333 153.649 47.752C153.734 47.656 153.793 47.5653 153.825 47.48C153.867 47.384 153.894 47.2667 153.905 47.128C153.926 46.9893 153.937 46.7973 153.937 46.552C153.937 46.0187 153.894 45.6613 153.809 45.48C153.734 45.288 153.563 45.144 153.297 45.048ZM159.505 44.2C159.579 44.0933 159.675 44.0453 159.793 44.056C159.91 44.056 160.017 44.1147 160.113 44.232C160.219 44.36 160.241 45.192 160.177 46.728C160.102 48.232 160.065 49.16 160.065 49.512C160.054 49.8213 160.011 50.0293 159.937 50.136C159.873 50.2427 159.734 50.3173 159.521 50.36L159.185 50.424L159.297 48.568C159.371 47.0747 159.409 46.0667 159.409 45.544C159.409 44.7547 159.441 44.3067 159.505 44.2ZM157.617 44.44C157.83 44.2373 158.027 44.248 158.209 44.472C158.305 44.5893 158.305 45.1867 158.209 46.264C158.145 47.0853 158.07 48.0027 157.985 49.016L157.905 50.136H157.537H157.153L157.169 48.648C157.169 48.6267 157.169 48.6 157.169 48.568C157.19 47.8107 157.169 47.384 157.105 47.288C157.041 47.1813 156.806 47.1867 156.401 47.304C156.369 47.3147 156.347 47.32 156.337 47.32C156.07 47.4053 155.814 47.4267 155.569 47.384C155.323 47.3413 155.201 47.2613 155.201 47.144C155.201 46.9413 155.291 46.7813 155.473 46.664C155.665 46.5467 155.974 46.4667 156.401 46.424C156.977 46.3493 157.302 46.2587 157.377 46.152C157.441 46.024 157.473 45.7307 157.473 45.272C157.473 44.8133 157.521 44.536 157.617 44.44ZM162.4 42.12C162.784 41.9813 163.152 41.9387 163.504 41.992C163.867 42.0347 164.203 42.1787 164.512 42.424C164.832 42.6693 165.093 43 165.296 43.416C165.499 43.8107 165.595 44.1787 165.584 44.52C165.584 44.8613 165.477 45.24 165.264 45.656C165.093 45.9973 164.891 46.2533 164.656 46.424C164.421 46.584 164.123 46.6907 163.76 46.744C163.152 46.8293 162.576 46.712 162.032 46.392C161.488 46.072 161.141 45.6613 160.992 45.16C160.779 44.4773 160.8 43.8693 161.056 43.336C161.312 42.8027 161.76 42.3973 162.4 42.12ZM163.696 42.776C163.589 42.776 163.472 42.7547 163.344 42.712C163.152 42.648 162.848 42.7653 162.432 43.064C162.016 43.3627 161.765 43.6507 161.68 43.928C161.648 44.0347 161.643 44.1627 161.664 44.312C161.685 44.4507 161.723 44.5947 161.776 44.744C161.829 44.8827 161.899 45.0213 161.984 45.16C162.08 45.2987 162.181 45.416 162.288 45.512C162.693 45.8747 163.104 46.04 163.52 46.008C163.936 45.976 164.267 45.7573 164.512 45.352C164.907 44.712 164.843 44.0453 164.32 43.352C164.011 42.968 163.803 42.776 163.696 42.776ZM164.368 47.752C164.453 47.5493 164.56 47.448 164.688 47.448C164.827 47.4373 164.944 47.5387 165.04 47.752C165.125 47.9547 165.115 48.3067 165.008 48.808C164.901 49.288 164.88 49.5813 164.944 49.688C164.997 49.784 165.317 49.832 165.904 49.832C166.309 49.832 166.56 49.848 166.656 49.88C166.763 49.9013 166.843 49.976 166.896 50.104C166.971 50.328 166.944 50.4827 166.816 50.568C166.699 50.6533 166.432 50.6907 166.016 50.68C165.685 50.6693 165.275 50.6907 164.784 50.744C164.304 50.7867 163.963 50.8347 163.76 50.888C163.664 50.92 163.419 50.968 163.024 51.032C162.64 51.1067 162.261 51.176 161.888 51.24C161.515 51.304 161.291 51.336 161.216 51.336C161.088 51.336 160.992 51.2507 160.928 51.08C160.864 50.9093 160.88 50.7653 160.976 50.648C161.061 50.5413 161.269 50.4613 161.6 50.408L162.064 50.344V49.32C162.075 48.7547 162.117 48.3973 162.192 48.248C162.267 48.088 162.427 48.04 162.672 48.104C162.821 48.1467 162.907 48.216 162.928 48.312C162.96 48.3973 162.971 48.664 162.96 49.112L162.928 50.008L163.552 50.056C163.947 50.0773 164.144 50.056 164.144 49.992C164.144 49.704 164.155 49.4 164.176 49.08C164.208 48.76 164.24 48.4827 164.272 48.248C164.315 48.0133 164.347 47.848 164.368 47.752Z" fill="#999999"/>
<path d="M29.064 44.632C29.4373 44.0667 29.7093 43.784 29.88 43.784C30.264 43.784 30.2747 44.0987 29.912 44.728L29.832 44.888C29.5227 45.3893 29.368 45.6987 29.368 45.816C29.368 45.9333 29.688 46.344 30.328 47.048C31.1173 47.9227 31.384 48.44 31.128 48.6C31.0747 48.6213 31 48.648 30.904 48.68C30.808 48.6907 30.6853 48.632 30.536 48.504C30.3867 48.376 30.1627 48.1253 29.864 47.752C29.3413 47.1227 29.0373 46.808 28.952 46.808C28.888 46.808 28.808 46.904 28.712 47.096C28.616 47.2773 28.5307 47.496 28.456 47.752C28.392 48.008 28.36 48.2213 28.36 48.392C28.36 48.5413 28.3547 48.648 28.344 48.712C28.344 48.776 28.328 48.8293 28.296 48.872C28.2747 48.9147 28.2427 48.9413 28.2 48.952C28.1573 48.952 28.0827 48.952 27.976 48.952C27.7307 48.952 27.56 48.8453 27.464 48.632C27.3893 48.4933 27.384 48.3227 27.448 48.12C27.512 47.9173 27.7733 47.272 28.232 46.184C28.424 45.7253 28.7013 45.208 29.064 44.632ZM33.48 44.008C33.5227 43.944 33.624 43.912 33.784 43.912C33.88 43.912 33.9653 43.96 34.04 44.056C34.1147 44.152 34.168 44.28 34.2 44.44C34.2427 44.6 34.2587 44.7707 34.248 44.952C34.2267 45.2507 34.2533 46.2107 34.328 47.832L34.424 50.312L34.072 50.392C33.8587 50.456 33.7093 50.4293 33.624 50.312C33.56 50.2053 33.5173 49.688 33.496 48.76C33.4853 47.8533 33.4693 47.2773 33.448 47.032C33.4267 46.7867 33.3893 46.6427 33.336 46.6C33.2827 46.5467 32.9947 46.5893 32.472 46.728C31.1387 47.0693 30.5307 46.9467 30.648 46.36C30.6693 46.232 30.7867 46.1307 31 46.056C31.224 45.9813 31.6453 45.9173 32.264 45.864C32.8933 45.8 33.2347 45.752 33.288 45.72C33.352 45.6667 33.384 45.384 33.384 44.872C33.384 44.3387 33.416 44.0507 33.48 44.008ZM37.0361 40.744C37.7935 40.5733 38.4548 40.744 39.0201 41.256C39.5855 41.7573 39.8361 42.3867 39.7721 43.144C39.7188 43.6773 39.4681 44.1467 39.0201 44.552C38.5721 44.9573 38.0815 45.16 37.5481 45.16C37.0041 45.16 36.4761 44.9947 35.9641 44.664C35.4628 44.3333 35.1695 43.9547 35.0841 43.528C35.0415 43.272 35.0628 42.968 35.1481 42.616C35.2441 42.264 35.3721 41.9707 35.5321 41.736C35.6921 41.5333 35.9268 41.3307 36.2361 41.128C36.5455 40.9147 36.8121 40.7867 37.0361 40.744ZM38.3481 41.656C38.1135 41.4853 37.9481 41.4 37.8521 41.4C37.6388 41.4107 37.3721 41.5013 37.0521 41.672C36.7428 41.832 36.4975 42.008 36.3161 42.2C36.0388 42.4987 35.9001 42.7813 35.9001 43.048C35.9001 43.3147 36.0441 43.5867 36.3321 43.864C36.5135 44.056 36.6628 44.1787 36.7801 44.232C36.9081 44.2747 37.1108 44.296 37.3881 44.296C37.6655 44.296 37.8681 44.2693 37.9961 44.216C38.1348 44.1627 38.3161 44.04 38.5401 43.848C38.8815 43.5387 39.0521 43.256 39.0521 43C39.0521 42.8507 39.0201 42.696 38.9561 42.536C38.9028 42.3653 38.8228 42.2053 38.7161 42.056C38.6095 41.9067 38.4868 41.7733 38.3481 41.656ZM38.7961 45.928C39.3721 45.8107 39.7668 45.7787 39.9801 45.832C40.1935 45.8747 40.3001 46.0187 40.3001 46.264C40.3001 46.4453 40.2361 46.5733 40.1081 46.648C39.9801 46.712 39.7295 46.744 39.3561 46.744C38.9401 46.7653 38.6788 46.8027 38.5721 46.856C38.4761 46.9093 38.4281 47.1867 38.4281 47.688V48.44H39.0841C39.5748 48.44 39.8681 48.5147 39.9641 48.664C40.0708 48.8133 40.1081 49.208 40.0761 49.848C40.0548 50.2533 40.0335 50.52 40.0121 50.648C39.9908 50.7653 39.9588 50.856 39.9161 50.92C39.8735 50.9733 39.7828 51.0213 39.6441 51.064C39.3881 51.1493 38.9081 51.192 38.2041 51.192C37.7561 51.192 37.4628 51.208 37.3241 51.24C37.1855 51.272 37.0895 51.3413 37.0361 51.448C36.9401 51.64 36.9561 51.7733 37.0841 51.848C37.2228 51.9333 37.4415 51.9387 37.7401 51.864C38.0495 51.7787 38.5561 51.7147 39.2601 51.672C39.7188 51.6293 40.0121 51.6133 40.1401 51.624C40.2681 51.6453 40.3588 51.7147 40.4121 51.832C40.4548 51.9173 40.4708 51.992 40.4601 52.056C40.4495 52.1307 40.3961 52.1893 40.3001 52.232C40.2041 52.2853 40.0708 52.328 39.9001 52.36C39.7295 52.4027 39.5055 52.44 39.2281 52.472C38.6735 52.5253 38.1188 52.6053 37.5641 52.712C37.0521 52.7973 36.7855 52.84 36.7641 52.84C36.6681 52.84 36.5561 52.7493 36.4281 52.568C36.3108 52.3973 36.2201 52.1947 36.1561 51.96C36.0281 51.4907 36.1028 51.1493 36.3801 50.936C36.6575 50.712 37.1908 50.568 37.9801 50.504C38.6415 50.44 39.0201 50.376 39.1161 50.312C39.1801 50.2587 39.2175 50.088 39.2281 49.8C39.2388 49.5013 39.2175 49.32 39.1641 49.256C39.1321 49.2347 38.7215 49.2827 37.9321 49.4C37.1428 49.5067 36.6361 49.592 36.4121 49.656C36.2841 49.688 36.1668 49.672 36.0601 49.608C35.9641 49.5333 35.9108 49.4267 35.9001 49.288C35.9001 49.16 36.0068 49.032 36.2201 48.904C36.4441 48.7653 36.6628 48.696 36.8761 48.696C37.1748 48.696 37.3775 48.6587 37.4841 48.584C37.5161 48.5627 37.5481 48.408 37.5801 48.12C37.6228 47.832 37.6441 47.5707 37.6441 47.336C37.6548 47.1013 37.6441 46.968 37.6121 46.936C37.6121 46.936 37.2868 47.016 36.6361 47.176C35.6335 47.4 35.1321 47.3253 35.1321 46.952C35.1321 46.8027 35.2495 46.6853 35.4841 46.6C35.7188 46.504 36.1508 46.408 36.7801 46.312C37.0788 46.2693 37.7508 46.1413 38.7961 45.928ZM44.9193 44.104C45.3353 43.9973 45.5913 43.9653 45.6873 44.008C45.8366 44.0933 45.8206 44.3653 45.6393 44.824C45.4579 45.2827 45.1806 45.7627 44.8073 46.264L44.4873 46.68L44.9193 47.128C45.2286 47.416 45.4846 47.5973 45.6873 47.672C45.7619 47.704 45.8526 47.7787 45.9593 47.896C46.0659 48.0027 46.1459 48.12 46.1993 48.248C46.3273 48.4613 46.3913 48.6 46.3913 48.664C46.3913 48.728 46.3379 48.8027 46.2313 48.888C46.0606 49.0053 45.8899 49.0213 45.7193 48.936C45.5486 48.8507 45.2339 48.584 44.7753 48.136L43.9913 47.368L43.6713 47.752C43.4793 47.9867 43.2979 48.2853 43.1273 48.648C43.0846 48.7547 43.0313 48.8507 42.9673 48.936C42.9033 49.0213 42.8393 49.096 42.7753 49.16C42.7219 49.2133 42.6739 49.2453 42.6313 49.256C42.4819 49.2987 42.3379 49.2827 42.1993 49.208C42.0606 49.1227 41.9913 49.0213 41.9913 48.904C41.9913 48.8293 42.3219 48.3333 42.9833 47.416C43.6553 46.488 44.0393 45.9867 44.1353 45.912C44.2099 45.8693 44.3059 45.7253 44.4233 45.48C44.5406 45.2347 44.5886 45.0853 44.5673 45.032C44.5353 44.9787 44.2419 45.0053 43.6873 45.112C43.1433 45.208 42.7379 45.304 42.4713 45.4C42.2153 45.496 41.9219 45.544 41.5913 45.544C41.3993 45.544 41.2713 45.528 41.2073 45.496C41.1433 45.464 41.1113 45.3947 41.1113 45.288C41.1113 45.128 41.2073 44.9893 41.3993 44.872C41.5379 44.776 42.0286 44.632 42.8713 44.44C43.7139 44.2373 44.1619 44.1573 44.2153 44.2C44.2473 44.2427 44.4819 44.2107 44.9193 44.104ZM48.0873 44.072C48.1513 43.9547 48.2899 43.912 48.5033 43.944C48.5993 43.9547 48.6633 43.9653 48.6953 43.976C48.7379 43.9867 48.7699 44.0187 48.7913 44.072C48.8233 44.1147 48.8339 44.1787 48.8233 44.264C48.8233 44.3387 48.8233 44.4507 48.8233 44.6C48.8126 44.8133 48.7913 45.9013 48.7593 47.864C48.7593 47.864 48.7593 47.8693 48.7593 47.88C48.7379 49.1707 48.7113 49.9333 48.6793 50.168C48.6579 50.4027 48.5779 50.5467 48.4393 50.6C48.3113 50.6427 48.2099 50.6427 48.1353 50.6C48.0713 50.5467 48.0179 50.408 47.9753 50.184C47.9326 49.9493 47.9113 49.592 47.9113 49.112C47.9219 48.632 47.9273 47.992 47.9273 47.192C47.9593 45.208 48.0126 44.168 48.0873 44.072ZM56.6509 42.632C56.7895 42.5893 56.9389 42.6107 57.0989 42.696C57.2055 42.7387 57.2642 42.8187 57.2749 42.936C57.2962 43.0427 57.2855 43.2933 57.2429 43.688C57.1789 44.3387 57.1469 45.2187 57.1469 46.328C57.1362 47.3733 57.0989 47.944 57.0349 48.04C57.0029 48.0827 56.9389 48.1147 56.8429 48.136C56.6295 48.1893 56.4855 48.1627 56.4109 48.056C56.3362 47.9493 56.2989 47.6987 56.2989 47.304V46.568L55.7069 46.776C54.8322 47.064 54.3682 47.048 54.3149 46.728C54.2935 46.5467 54.3789 46.392 54.5709 46.264C54.7735 46.136 55.0989 46.024 55.5469 45.928C55.8135 45.8747 56.0002 45.8267 56.1069 45.784C56.2135 45.7307 56.2882 45.656 56.3309 45.56C56.3842 45.4533 56.3789 45.32 56.3149 45.16L56.2669 44.776L55.5149 44.824C55.2055 44.8347 54.9922 44.8293 54.8749 44.808C54.7682 44.7867 54.6829 44.728 54.6189 44.632C54.5122 44.44 54.5709 44.2747 54.7949 44.136C55.0189 43.9867 55.3335 43.912 55.7389 43.912C56.1015 43.912 56.3149 43.88 56.3789 43.816C56.4429 43.752 56.4642 43.5227 56.4429 43.128C56.4429 43.0107 56.4482 42.92 56.4589 42.856C56.4695 42.7813 56.4855 42.728 56.5069 42.696C56.5389 42.664 56.5869 42.6427 56.6509 42.632ZM51.0349 43.064C51.3655 42.9573 51.6482 42.9147 51.8829 42.936C52.1175 42.9467 52.3682 43.016 52.6349 43.144C52.9655 43.336 53.2162 43.5387 53.3869 43.752C53.5575 43.9547 53.7175 44.248 53.8669 44.632C53.9629 44.9093 54.0162 45.128 54.0269 45.288C54.0375 45.4373 54.0109 45.6453 53.9469 45.912C53.8509 46.328 53.7229 46.6533 53.5629 46.888C53.4029 47.112 53.1735 47.3253 52.8749 47.528C52.2455 47.9227 51.5415 47.9387 50.7629 47.576C50.2722 47.3413 49.9095 46.9627 49.6749 46.44C49.4509 45.9067 49.4082 45.368 49.5469 44.824C49.6215 44.4933 49.8189 44.1413 50.1389 43.768C50.4589 43.384 50.7575 43.1493 51.0349 43.064ZM52.5069 43.96C52.2402 43.8213 52.0375 43.7573 51.8989 43.768C51.7602 43.768 51.5415 43.8427 51.2429 43.992C50.5175 44.3547 50.2135 44.8827 50.3309 45.576C50.4375 46.248 50.7309 46.6853 51.2109 46.888C51.5309 47.016 51.7709 47.064 51.9309 47.032C52.1015 47 52.3362 46.8613 52.6349 46.616C52.8802 46.392 53.0295 46.2267 53.0829 46.12C53.1362 46.0027 53.1629 45.7787 53.1629 45.448C53.1629 44.6587 52.9442 44.1627 52.5069 43.96ZM54.6509 48.824C55.2482 48.76 55.6162 48.728 55.7549 48.728C55.9042 48.7173 56.0269 48.7387 56.1229 48.792C56.2082 48.856 56.2455 49.3893 56.2349 50.392C56.2349 51.3947 56.1922 51.928 56.1069 51.992C56.0215 52.056 55.8882 52.088 55.7069 52.088C55.5682 52.088 55.4829 52.0293 55.4509 51.912C55.4295 51.8053 55.4189 51.4427 55.4189 50.824V49.592L54.7789 49.656C54.3629 49.6987 53.9949 49.7787 53.6749 49.896C53.4082 50.0133 53.1895 50.072 53.0189 50.072C52.8589 50.072 52.7575 49.9867 52.7149 49.816C52.6722 49.6347 52.7149 49.4693 52.8429 49.32C52.9602 49.192 53.1362 49.096 53.3709 49.032C53.6055 48.968 54.0322 48.8987 54.6509 48.824ZM68.3608 44.136C68.4461 43.9013 68.5848 43.784 68.7768 43.784C68.8514 43.784 68.9101 43.7947 68.9528 43.816C69.0061 43.8373 69.0488 43.88 69.0808 43.944C69.1128 43.9973 69.1341 44.0667 69.1448 44.152C69.1554 44.2373 69.1554 44.3653 69.1448 44.536C69.1448 44.7067 69.1341 44.8987 69.1128 45.112C69.0914 45.3147 69.0648 45.576 69.0328 45.896L68.9688 46.328L69.6408 46.232C70.2381 46.1573 70.5901 46.0667 70.6968 45.96C70.8034 45.8533 70.8568 45.5547 70.8568 45.064C70.8568 44.264 70.9794 43.8587 71.2248 43.848C71.2994 43.848 71.3794 43.8693 71.4648 43.912C71.5928 43.976 71.6674 44.0507 71.6888 44.136C71.7101 44.2107 71.7048 44.36 71.6728 44.584C71.6194 45.0213 71.5714 46.0453 71.5288 47.656C71.4968 48.9147 71.4594 49.6613 71.4168 49.896C71.3848 50.1307 71.2994 50.28 71.1608 50.344C70.9581 50.44 70.8248 50.456 70.7608 50.392C70.6968 50.3173 70.6754 49.752 70.6968 48.696C70.7181 47.7573 70.6808 47.224 70.5848 47.096C70.4994 46.9573 70.1848 46.968 69.6408 47.128L68.9368 47.32L68.9848 48.584C69.0061 49.1387 69.0061 49.5013 68.9848 49.672C68.9634 49.832 68.9048 49.9387 68.8088 49.992C68.6594 50.088 68.5154 50.088 68.3768 49.992C68.2701 49.9387 68.2061 49.7627 68.1848 49.464C68.1634 49.1547 68.1634 48.392 68.1848 47.176C68.2168 45.3733 68.2754 44.36 68.3608 44.136ZM65.5128 44.04C65.6728 43.9653 65.9021 43.9387 66.2008 43.96C66.3928 43.9707 66.5154 43.9973 66.5688 44.04C66.6221 44.0827 66.6488 44.1893 66.6488 44.36V44.728L65.3048 44.872C64.3768 44.9893 63.8168 45.0853 63.6248 45.16C63.4648 45.224 63.3688 45.288 63.3368 45.352C63.3154 45.4053 63.3208 45.512 63.3528 45.672C63.4061 45.992 63.4328 46.3867 63.4328 46.856C63.4328 47.3787 63.4914 47.7147 63.6088 47.864C63.7368 48.0027 64.0354 48.0773 64.5048 48.088C65.0274 48.088 65.4914 48.056 65.8968 47.992C66.1848 47.9493 66.3714 47.9387 66.4568 47.96C66.5528 47.9813 66.6328 48.0453 66.6968 48.152C66.8248 48.3973 66.8194 48.568 66.6808 48.664C66.5528 48.76 66.2381 48.8293 65.7368 48.872C63.9234 49.0107 62.9741 48.984 62.8888 48.792C62.8461 48.6747 62.7714 48.0027 62.6648 46.776C62.6008 45.9653 62.5688 45.4427 62.5688 45.208C62.5688 44.9733 62.6114 44.8187 62.6968 44.744C62.7714 44.6693 62.9314 44.5893 63.1768 44.504C63.4221 44.408 63.6941 44.328 63.9928 44.264C64.2914 44.2 64.5421 44.1627 64.7448 44.152C65.0861 44.152 65.3421 44.1147 65.5128 44.04ZM74.3303 41.176C74.4156 41.0907 74.5329 41.0427 74.6823 41.032C74.8316 41.0213 74.9276 41.0587 74.9703 41.144C75.0236 41.1973 75.0769 41.4907 75.1303 42.024L75.2103 42.808L75.9783 42.696C76.6076 42.6213 77.0023 42.5947 77.1623 42.616C77.3223 42.6373 77.4449 42.7333 77.5303 42.904C77.6263 43.1067 77.6263 43.2667 77.5303 43.384C77.4449 43.5013 77.2849 43.5333 77.0503 43.48C76.9009 43.448 76.4369 43.496 75.6583 43.624C74.8796 43.7413 74.1489 43.8853 73.4663 44.056C72.7196 44.248 72.3463 44.1573 72.3463 43.784C72.3463 43.6667 72.3783 43.576 72.4423 43.512C72.5169 43.4373 72.6503 43.3627 72.8423 43.288C73.2049 43.1707 73.5409 43.1227 73.8503 43.144H74.3303L74.2663 42.232C74.2023 41.624 74.2236 41.272 74.3303 41.176ZM79.0183 43.544C79.0609 43.4587 79.1889 43.416 79.4023 43.416H79.7223L79.6743 44.504L79.6423 45.608H80.3303C80.7143 45.608 80.9756 45.64 81.1143 45.704C81.2636 45.7573 81.3383 45.8747 81.3383 46.056C81.3383 46.216 81.2796 46.328 81.1623 46.392C81.0449 46.4453 80.8476 46.4667 80.5703 46.456C80.2609 46.4453 79.9943 46.4773 79.7703 46.552C79.6209 46.616 79.5303 46.6853 79.4983 46.76C79.4769 46.824 79.4876 46.984 79.5303 47.24C79.5836 47.656 79.5836 47.944 79.5303 48.104C79.4983 48.2747 79.3863 48.3973 79.1943 48.472C79.0023 48.536 78.8689 48.5093 78.7943 48.392C78.7196 48.296 78.7036 47.576 78.7463 46.232C78.7889 45.1973 78.8263 44.52 78.8583 44.2C78.8903 43.8693 78.9436 43.6507 79.0183 43.544ZM74.2823 44.76C74.6769 44.5573 74.9329 44.456 75.0503 44.456C75.1783 44.4453 75.4289 44.5093 75.8023 44.648C76.3463 44.84 76.7143 45.064 76.9063 45.32C77.1089 45.5653 77.2156 45.9333 77.2263 46.424C77.2583 47.2347 76.8369 47.8427 75.9623 48.248C75.6103 48.4187 75.2903 48.52 75.0023 48.552C74.7143 48.5733 74.3889 48.5307 74.0263 48.424C73.6209 48.3173 73.3276 48.152 73.1463 47.928C72.9649 47.704 72.8583 47.384 72.8263 46.968C72.7943 46.6267 72.7943 46.392 72.8263 46.264C72.8583 46.136 72.9756 45.9387 73.1783 45.672C73.4343 45.32 73.8023 45.016 74.2823 44.76ZM76.1383 45.56C75.8716 45.3147 75.5089 45.2453 75.0503 45.352C74.5916 45.4587 74.1809 45.704 73.8183 46.088C73.6796 46.2267 73.5943 46.344 73.5623 46.44C73.5409 46.536 73.5463 46.68 73.5783 46.872C73.6636 47.224 73.8983 47.4853 74.2823 47.656C74.6769 47.8267 75.0449 47.8213 75.3863 47.64C75.8983 47.384 76.2289 47.048 76.3783 46.632C76.5383 46.2053 76.4583 45.848 76.1383 45.56ZM77.1303 49.448C78.3143 49.32 79.0076 49.32 79.2103 49.448C79.2849 49.4907 79.3329 49.6187 79.3543 49.832C79.3756 50.0453 79.3863 50.44 79.3863 51.016V52.472L79.0503 52.584C78.8263 52.6587 78.6823 52.616 78.6183 52.456C78.5649 52.3067 78.5436 51.9013 78.5543 51.24C78.5649 50.568 78.5383 50.2107 78.4743 50.168C78.3889 50.1147 77.5996 50.232 76.1063 50.52C75.8823 50.5627 75.7063 50.536 75.5783 50.44C75.4609 50.3333 75.4289 50.2 75.4823 50.04C75.5463 49.88 75.6903 49.7573 75.9143 49.672C76.1169 49.5867 76.5223 49.512 77.1303 49.448ZM85.9351 42.408C86.5325 42.3333 86.9005 42.3013 87.0391 42.312C87.1885 42.312 87.2898 42.3493 87.3431 42.424C87.3965 42.5093 87.4231 43.128 87.4231 44.28V45.976L87.0871 46.12C86.9485 46.1627 86.8418 46.1787 86.7671 46.168C86.7031 46.1467 86.6498 46.0773 86.6071 45.96C86.5645 45.8427 86.5431 45.6667 86.5431 45.432C86.5538 45.1973 86.5645 44.888 86.5751 44.504L86.6391 43.144H86.2391C86.0365 43.1547 85.5351 43.2347 84.7351 43.384C83.9351 43.5227 83.3431 43.64 82.9591 43.736C82.8311 43.768 82.7351 43.7733 82.6711 43.752C82.6071 43.7307 82.5485 43.6667 82.4951 43.56C82.4418 43.4533 82.4205 43.368 82.4311 43.304C82.4525 43.2293 82.5111 43.144 82.6071 43.048C82.7351 42.9307 83.0391 42.824 83.5191 42.728C84.0098 42.632 84.8151 42.5253 85.9351 42.408ZM85.2631 47.16C85.3378 47.0107 85.4338 46.936 85.5511 46.936C85.6365 46.936 85.7058 46.9627 85.7591 47.016C85.8231 47.0587 85.8765 47.144 85.9191 47.272C85.9618 47.3893 85.9885 47.544 85.9991 47.736C86.0205 47.928 86.0311 48.1787 86.0311 48.488V49.704H87.1991C87.6151 49.704 87.8925 49.7093 88.0311 49.72C88.1805 49.7307 88.2818 49.7573 88.3351 49.8C88.3991 49.832 88.4418 49.896 88.4631 49.992C88.5165 50.2267 88.4951 50.3813 88.3991 50.456C88.3031 50.5307 88.0791 50.568 87.7271 50.568C87.2685 50.568 86.4471 50.616 85.2631 50.712C84.0898 50.7973 83.3378 50.872 83.0071 50.936C82.6338 51 82.3671 51.0107 82.2071 50.968C82.0578 50.9147 81.9831 50.8027 81.9831 50.632C81.9831 50.4613 82.0258 50.344 82.1111 50.28C82.2071 50.2053 82.3831 50.1413 82.6391 50.088L83.0071 50.008L83.0391 48.696V47.368H83.4391H83.8071L83.8231 48.488C83.8445 49.2987 83.8551 49.7307 83.8551 49.784C83.8551 49.8907 84.0418 49.944 84.4151 49.944C84.5751 49.944 84.6925 49.944 84.7671 49.944C84.8525 49.944 84.9325 49.9227 85.0071 49.88C85.0925 49.8373 85.1458 49.7947 85.1671 49.752C85.1885 49.7093 85.2045 49.6293 85.2151 49.512C85.2365 49.384 85.2418 49.256 85.2311 49.128C85.2311 49 85.2258 48.808 85.2151 48.552C85.1725 47.7627 85.1885 47.2987 85.2631 47.16ZM95.2445 43.032C95.6712 42.8293 96.0498 42.7493 96.3805 42.792C96.7112 42.824 97.0632 42.9893 97.4365 43.288C97.8098 43.5867 98.0712 43.88 98.2205 44.168C98.3805 44.456 98.4605 44.7973 98.4605 45.192C98.4605 45.8107 98.2632 46.3173 97.8685 46.712C97.4845 47.1067 96.9725 47.336 96.3325 47.4C95.9805 47.432 95.7352 47.432 95.5965 47.4C95.4578 47.368 95.2498 47.2613 94.9725 47.08C94.5245 46.792 94.2098 46.4933 94.0285 46.184C93.8472 45.8747 93.7618 45.512 93.7725 45.096C93.7832 44.6053 93.9005 44.2 94.1245 43.88C94.3592 43.56 94.7325 43.2773 95.2445 43.032ZM97.1165 43.944C96.8392 43.7093 96.6045 43.5867 96.4125 43.576C96.2205 43.5547 95.9378 43.6453 95.5645 43.848C95.1272 44.072 94.8445 44.2747 94.7165 44.456C94.5885 44.6267 94.5458 44.872 94.5885 45.192C94.6098 45.3947 94.6578 45.5653 94.7325 45.704C94.8072 45.832 94.9405 45.976 95.1325 46.136C95.5272 46.4773 95.9325 46.6373 96.3485 46.616C96.7645 46.584 97.1218 46.3653 97.4205 45.96C97.5592 45.8107 97.6392 45.6773 97.6605 45.56C97.6925 45.432 97.6925 45.24 97.6605 44.984C97.6285 44.7173 97.5752 44.52 97.5005 44.392C97.4365 44.264 97.3085 44.1147 97.1165 43.944ZM99.9805 44.76C100.055 44.6107 100.21 44.5467 100.444 44.568C100.594 44.5893 100.684 44.6267 100.716 44.68C100.759 44.7333 100.77 44.856 100.748 45.048C100.716 45.2933 100.695 46.2267 100.684 47.848L100.652 50.216L100.364 50.28C100.162 50.3227 100.023 50.2907 99.9485 50.184C99.8418 50.024 99.7938 49.128 99.8045 47.496C99.8152 45.864 99.8738 44.952 99.9805 44.76ZM97.1325 47.944C97.9645 47.848 98.5352 47.8267 98.8445 47.88C99.1645 47.9333 99.3245 48.0773 99.3245 48.312C99.3245 48.4507 99.2338 48.552 99.0525 48.616C98.8818 48.6693 98.5032 48.712 97.9165 48.744C97.3298 48.776 97.0098 48.8187 96.9565 48.872C96.9138 48.9253 96.8818 49.32 96.8605 50.056V51.144L96.4605 51.176C96.3005 51.1973 96.1885 51.1867 96.1245 51.144C96.0712 51.112 96.0285 51.0213 95.9965 50.872C95.9325 50.6693 95.9432 50.28 96.0285 49.704C96.0498 49.5653 96.0712 49.432 96.0925 49.304C96.1138 49.1653 96.1245 49.0587 96.1245 48.984C96.1352 48.9093 96.1405 48.872 96.1405 48.872C96.1405 48.872 96.1138 48.8773 96.0605 48.888C96.0072 48.888 95.9272 48.8987 95.8205 48.92C95.7138 48.9307 95.6072 48.9467 95.5005 48.968C94.9778 49.064 94.6152 49.112 94.4125 49.112C94.2098 49.1013 94.0978 49.0427 94.0765 48.936C94.0552 48.7867 94.1192 48.6213 94.2685 48.44C94.3645 48.3227 94.4818 48.2427 94.6205 48.2C94.7592 48.1573 95.0098 48.1253 95.3725 48.104C96.2045 48.04 96.7912 47.9867 97.1325 47.944ZM103.634 42.616C104.668 42.4987 105.324 42.44 105.602 42.44C105.879 42.4293 106.055 42.472 106.13 42.568C106.204 42.664 106.204 42.7867 106.13 42.936C106.066 43.0747 105.874 43.3627 105.554 43.8L105.138 44.344L105.426 44.568C105.618 44.7173 105.746 44.792 105.81 44.792C105.863 44.792 106.06 44.8987 106.402 45.112C106.732 45.3467 106.898 45.5547 106.898 45.736C106.898 46.1627 106.487 46.1253 105.666 45.624C105.484 45.5067 105.356 45.4267 105.282 45.384C105.207 45.3413 105.111 45.2933 104.994 45.24C104.876 45.1867 104.796 45.1547 104.754 45.144C104.722 45.1227 104.658 45.1173 104.562 45.128C104.466 45.1387 104.402 45.1547 104.37 45.176C104.348 45.1973 104.29 45.2453 104.194 45.32C104.108 45.384 104.039 45.448 103.986 45.512C103.932 45.5653 103.847 45.6613 103.73 45.8C103.452 46.0987 103.244 46.3013 103.106 46.408C102.967 46.5147 102.844 46.5573 102.738 46.536C102.396 46.4827 102.327 46.2907 102.53 45.96C102.69 45.7147 103.036 45.3253 103.57 44.792C104.53 43.832 104.914 43.3307 104.722 43.288C104.7 43.2773 104.679 43.272 104.658 43.272C104.583 43.272 104.071 43.3627 103.122 43.544C102.514 43.6507 102.108 43.7093 101.906 43.72C101.714 43.7307 101.58 43.6987 101.506 43.624C101.388 43.5067 101.356 43.3787 101.41 43.24C101.474 43.0907 101.596 42.984 101.778 42.92C101.927 42.856 102.546 42.7547 103.634 42.616ZM106.29 47.608C106.524 47.48 106.738 47.4373 106.93 47.48C107.132 47.5227 107.271 47.6453 107.346 47.848C107.41 48.008 107.42 48.136 107.378 48.232C107.335 48.3173 107.239 48.3813 107.09 48.424C106.951 48.456 106.748 48.4613 106.482 48.44C106.023 48.4293 105.762 48.4773 105.698 48.584C105.623 48.7013 105.586 49.24 105.586 50.2C105.586 50.9147 105.57 51.336 105.538 51.464C105.516 51.592 105.431 51.6667 105.282 51.688C105.079 51.72 104.946 51.6773 104.882 51.56C104.796 51.4213 104.77 50.92 104.802 50.056C104.812 49.16 104.802 48.6853 104.77 48.632C104.738 48.6 104.38 48.6267 103.698 48.712C102.834 48.8187 102.3 48.8667 102.098 48.856C101.895 48.8453 101.783 48.76 101.762 48.6C101.751 48.536 101.772 48.456 101.826 48.36C101.879 48.264 101.938 48.184 102.002 48.12C102.14 48.0027 102.386 47.9227 102.738 47.88C103.1 47.8373 103.847 47.8107 104.978 47.8C105.66 47.7787 106.098 47.7147 106.29 47.608Z" fill="#F49393"/>
</g>
<defs>
<filter id="filter0_d_59_448" x="0" y="0" width="205" height="84.1865" filterUnits="userSpaceOnUse" color-interpolation-filters="sRGB">
<feFlood flood-opacity="0" result="BackgroundImageFix"/>
<feColorMatrix in="SourceAlpha" type="matrix" values="0 0 0 0 0 0 0 0 0 0 0 0 0 0 0 0 0 0 127 0" result="hardAlpha"/>
<feOffset dy="2"/>
<feGaussianBlur stdDeviation="3.5"/>
<feComposite in2="hardAlpha" operator="out"/>
<feColorMatrix type="matrix" values="0 0 0 0 0.475 0 0 0 0 0.475 0 0 0 0 0.475 0 0 0 0.1 0"/>
<feBlend mode="normal" in2="BackgroundImageFix" result="effect1_dropShadow_59_448"/>
<feBlend mode="normal" in="SourceGraphic" in2="effect1_dropShadow_59_448" result="shape"/>
</filter>
</defs>
</svg>
