<svg width="33" height="42" viewBox="0 0 33 42" fill="none" xmlns="http://www.w3.org/2000/svg">
<g style="mix-blend-mode:luminosity" opacity="0.4">
<path d="M27.5544 4.23579C27.4541 4.05944 27.3486 3.89 27.238 3.72402C27.2276 3.70846 27.219 3.69463 27.2103 3.67907C25.3949 0.999162 22.1877 -0.364995 19.0582 0.0845369H19.0617C19.0617 0.0845369 19.0513 0.0845369 19.0444 0.0845369C18.664 0.139864 18.2854 0.222854 17.9102 0.333509C9.35352 2.35295 4.14586 7.05574 3.42661 7.73523C3.41624 7.7456 3.40413 7.75598 3.39376 7.76635C3.35918 7.80093 3.34016 7.81822 3.34016 7.81822H3.34362C1.07694 10.0227 0.203811 13.3941 1.22045 16.4665C1.22045 16.4665 3.27619 22.8188 8.69997 29.0327C8.72763 29.0655 8.75703 29.0984 8.78642 29.1312C9.86702 30.3502 11.5286 31.142 13.3716 31.5466C14.7151 28.7924 19.9262 20.2236 31.9754 22.3312C32.6427 20.8685 32.9834 19.3453 32.8105 17.9396C32.8105 17.9396 32.4785 12.2617 27.5527 4.23061L27.5544 4.23579Z" fill="#F36D88"/>
<path d="M31.977 22.3344C19.9278 20.2268 14.715 28.7956 13.3733 31.5498C15.5604 32.0287 18.0035 31.9613 20.0419 31.3994C20.0419 31.3994 20.0471 31.3994 20.0488 31.3994C23.2371 30.7648 24.0514 32.85 24.1033 32.9918C24.1033 32.9935 24.1033 32.9952 24.105 32.9987C24.5891 34.3473 25.585 37.0427 26.9509 40.3191C26.9509 40.3191 27.5975 41.991 29.1156 41.9997C29.7242 42.0032 30.3086 41.7144 30.6768 41.232C31.5966 40.0235 30.6665 38.4916 30.6665 38.4916C28.9029 35.4106 27.3745 32.9762 26.6016 31.7711C25.5228 29.4837 27.7047 27.6285 27.7047 27.6285H27.7013C29.4475 26.3249 31.0382 24.3919 31.9787 22.3344H31.977Z" fill="#D1B88B"/>
<path d="M18.0598 11.9745C18.9954 11.5035 19.3641 10.3473 18.8832 9.39203C18.4024 8.43677 17.2541 8.04418 16.3184 8.51518C15.3828 8.98617 15.0141 10.1424 15.495 11.0976C15.9758 12.0529 17.1241 12.4455 18.0598 11.9745Z" fill="white"/>
<path d="M15.2079 10.934C15.6817 11.8227 16.7726 12.1667 17.6423 11.7016C18.512 11.2365 18.8336 10.1386 18.3598 9.24995C17.8861 8.36126 16.7951 8.0172 15.9255 8.48229C15.0558 8.94738 14.7342 10.0453 15.2079 10.934Z" fill="#403E3D"/>
<path d="M10.9857 13.5619C11.4889 14.5059 12.6455 14.8707 13.5688 14.3779C14.4921 13.8852 14.8344 12.7199 14.3313 11.7758C13.8282 10.8318 12.6715 10.467 11.7482 10.9598C10.8249 11.4525 10.4826 12.6178 10.9857 13.5619Z" fill="white"/>
<path d="M10.7126 13.553C11.1863 14.4417 12.2773 14.7858 13.147 14.3207C14.0166 13.8556 14.3382 12.7577 13.8645 11.869C13.3907 10.9803 12.2998 10.6363 11.4301 11.1014C10.5604 11.5665 10.2388 12.6644 10.7126 13.553Z" fill="#403E3D"/>
<path d="M12.656 15.9514L16.7554 15.7526L19.9298 11.9627" stroke="#403E3D" stroke-linecap="round" stroke-linejoin="round"/>
<path d="M19.5513 11.6082L20.3086 12.3154" stroke="#403E3D" stroke-linecap="round" stroke-linejoin="round"/>
</g>
</svg>
