<svg width="42" height="40" viewBox="0 0 42 40" fill="red" xmlns="http://www.w3.org/2000/svg">
<path d="M41.2383 11.9445C39.9956 10.0242 37.7287 9.10157 35.5016 9.07067C34.345 9.05522 33.1862 9.2627 32.0914 9.63352C31.2636 9.91385 30.4425 10.2847 29.7186 10.7879C29.7296 10.7217 29.7428 10.6577 29.7539 10.5915C29.9393 9.49446 30.0519 8.36876 29.9327 7.2585C29.8179 6.18798 29.4669 5.18588 28.9085 4.26986C28.6392 3.82841 28.3346 3.41344 28.0101 3.01172C27.6923 2.61883 27.3612 2.23256 26.9793 1.89926C26.5931 1.56155 26.1582 1.30109 25.6704 1.13775C25.1804 0.972206 24.6639 0.905988 24.1496 0.859636C23.0725 0.764723 21.9733 0.749272 20.9314 1.07374C19.2164 1.61011 17.8081 2.9146 16.9252 4.45527C16.0423 5.99595 15.6671 7.78162 15.6119 9.55185C15.5501 9.47681 15.4905 9.40176 15.4287 9.32671C14.7202 8.48574 13.9234 7.71982 13.0382 7.06426C11.2371 5.72887 9.02102 4.83272 6.74532 5.12408C5.65935 5.26313 4.61531 5.67369 3.75668 6.36015C2.95765 7.00025 2.31975 7.84122 1.94893 8.79918C1.54059 9.85866 1.44567 11.0197 1.67744 12.1321C1.91361 13.2733 2.5162 14.3107 3.18941 15.251C3.792 16.092 4.48067 16.88 5.25762 17.5642C5.65935 17.9196 6.09197 18.2507 6.54887 18.5443C6.53122 18.5487 6.51135 18.5509 6.49369 18.5553C5.98823 18.6657 5.4938 18.8246 5.01703 19.021C4.05908 19.4161 3.16955 19.979 2.40142 20.6765C0.889442 22.0494 -0.117071 24.0139 0.0109502 26.0909C0.0705464 27.0643 0.390599 28.0112 0.953453 28.8103C1.47437 29.5497 2.16524 30.1567 2.94441 30.6114C4.76761 31.6731 6.96605 31.7658 8.98349 31.2912C10.2041 31.0043 11.3563 30.5099 12.4533 29.9073C12.0472 30.9491 11.7845 32.0417 11.7757 33.1652C11.7624 34.8427 12.3805 36.6284 13.7181 37.7011C14.4663 38.3037 15.389 38.6414 16.3204 38.8357C17.3137 39.0409 18.3445 39.0939 19.351 38.9769C20.3575 38.8599 21.3596 38.5818 22.2536 38.1006C22.6752 37.8755 23.0659 37.5863 23.3815 37.2266C23.6927 36.8756 23.9377 36.4695 24.1364 36.0457C24.5624 35.1407 24.8405 34.154 25.0281 33.174C25.176 32.4015 25.2577 31.6157 25.2731 30.8299C25.4806 31.1742 25.7057 31.5097 25.9375 31.8342C26.2951 32.3353 26.6747 32.8187 27.0787 33.2822C27.4451 33.7038 27.838 34.1099 28.286 34.4454C28.7584 34.7986 29.2815 35.0568 29.851 35.2113C30.4359 35.3725 31.0518 35.4387 31.6565 35.463C32.8463 35.5093 34.0713 35.3305 35.1573 34.8273C36.1086 34.3858 36.9452 33.7148 37.5301 32.8385C38.1547 31.9026 38.4174 30.7504 38.4218 29.6336C38.4262 28.5917 38.1878 27.5477 37.7442 26.6052C37.2718 25.6053 36.5787 24.7511 35.7113 24.0646C35.1352 23.6077 34.5172 23.195 33.8771 22.8219C34.1176 22.727 34.3538 22.6277 34.5878 22.524C35.687 22.0339 36.7377 21.4336 37.7199 20.7383C38.7021 20.043 39.6535 19.2616 40.4282 18.339C41.203 17.4163 41.8011 16.3127 41.9601 15.1053C42.1079 13.9885 41.8409 12.8804 41.2295 11.9357L41.2383 11.9445Z" fill="#FFBD29"/>
<path d="M28.7923 20.2621C29.1607 16.3051 25.7233 12.7495 21.1145 12.3203C16.5058 11.8911 12.4709 14.751 12.1025 18.7079C11.734 22.6649 15.1714 26.2205 19.7802 26.6497C24.389 27.0789 28.4238 24.219 28.7923 20.2621Z" fill="#FFD78F"/>
<path d="M19.4151 18.5375C19.3445 19.7029 18.3622 20.5924 17.2211 20.524C16.0799 20.4556 15.2103 19.4535 15.2787 18.2858C15.3493 17.1204 16.3315 16.2309 17.4727 16.2993C18.6139 16.3677 19.4835 17.3698 19.4151 18.5375Z" fill="white"/>
<path d="M19.0375 18.4779C18.9713 19.5771 18.0465 20.4159 16.9693 20.3496C15.8922 20.2834 15.0733 19.3409 15.1395 18.2417C15.2057 17.1425 16.1306 16.3037 17.2077 16.3699C18.2848 16.4362 19.1037 17.3787 19.0375 18.4779Z" fill="#403E3D"/>
<path d="M25.596 18.8357C25.6384 17.6687 24.7454 16.6889 23.6015 16.6473C22.4575 16.6058 21.4958 17.5182 21.4535 18.6853C21.4111 19.8524 22.304 20.8321 23.448 20.8737C24.5919 20.9152 25.5536 20.0028 25.596 18.8357Z" fill="white"/>
<path d="M25.1296 18.8777C25.0633 19.9769 24.1385 20.8157 23.0614 20.7495C21.9842 20.6833 21.1653 19.7408 21.2315 18.6415C21.2978 17.5423 22.2226 16.7036 23.2997 16.7698C24.3769 16.836 25.1958 17.7785 25.1296 18.8777Z" fill="#403E3D"/>
<path d="M20.1501 20.8571C20.1501 20.8571 19.2363 21.1639 19.9073 21.8173C19.9073 21.8173 19.2363 22.2587 20.0154 22.9121" stroke="#403E3D" stroke-linecap="round" stroke-linejoin="round"/>
</svg>
