<svg width="42" height="42" viewBox="0 0 42 42" fill="none" xmlns="http://www.w3.org/2000/svg">
<path d="M7.59522 25.7238C7.45521 25.602 6.96423 25.0439 6.71106 24.7986C6.22391 24.3296 4.89863 23.1554 3.26264 21.7994C2.90399 21.5013 2.73521 21.3632 2.82152 21.2287C2.91549 21.0869 7.15026 17.6079 8.39691 16.6046C8.58679 16.4519 8.42952 16.1938 8.23581 16.1974L8.14566 14.2871C8.16484 14.2726 8.18402 14.2562 8.2032 14.2417C8.30485 14.1617 8.18402 14.0199 8.07662 14.0908C5.97266 15.4831 1.35814 19.7001 0.92853 20.1417C0.535356 20.5471 0.0155995 21.0015 0.00025613 21.5922C-0.0112514 22.0048 0.366579 22.4865 0.815372 22.8191C1.81269 23.5535 4.49778 25.5147 5.19015 26.0855C5.01178 26.1909 4.35777 26.8143 4.18708 27.0852C3.85144 27.6232 4.46326 28.3448 4.97534 28.5556C5.26495 28.6756 5.58524 28.6502 5.84608 28.4848C5.99759 28.3884 6.12226 28.2576 6.25268 28.1376C6.39652 28.0049 6.54037 27.8722 6.68421 27.7413C6.9719 27.476 7.25959 27.2124 7.54727 26.947C7.79852 26.7162 8.09004 26.4326 7.91743 26.0764C7.84839 25.9346 7.71221 25.831 7.5933 25.7274L7.59522 25.7238Z" fill="#3D61D3"/>
<path d="M41.8799 9.36489C41.5769 8.66873 40.8231 8.51968 40.1116 8.49787C40.1077 8.10163 40.2516 7.7072 40.1442 7.31277C40.0406 6.93651 39.6896 6.59843 39.2485 6.64932C38.8093 6.70204 38.652 7.10737 38.5887 7.46727C38.5063 7.92895 38.3739 8.34701 38.1208 8.75234C37.8964 9.11224 37.6183 9.4994 37.6183 9.93382C37.6183 10.1447 37.6892 10.3301 37.8081 10.5064C37.9002 10.6445 38.0498 10.7845 37.9923 10.959C37.9155 11.1898 37.7679 11.4134 37.6585 11.6315C37.5377 11.8714 37.415 12.1114 37.2941 12.3531C37.0602 12.8166 36.8243 13.2801 36.5903 13.7436C36.0916 14.7306 35.591 15.7158 35.0924 16.7027C33.5235 15.7994 32.227 14.547 30.8576 13.4037C30.4491 13.062 30.0348 12.7275 29.6014 12.4167C29.4556 12.3131 29.3022 12.5167 29.4345 12.6294C29.4652 12.6548 29.494 12.6821 29.5246 12.7075L29.6301 15.7285C29.4288 15.7448 29.283 16.0011 29.494 16.1265C30.919 16.9827 34.2255 19.5365 34.9907 19.7237C35.3283 19.8055 35.7425 19.8745 36.0628 19.7055C36.3755 19.5401 36.504 19.2056 36.6401 18.913C37.3018 17.4989 40.2995 11.5933 40.4146 11.5206C40.5373 11.4425 40.7291 11.437 40.8672 11.3879C41.0245 11.3334 41.1741 11.2534 41.3103 11.1607C41.9048 10.7554 42.1695 10.0174 41.8856 9.36671L41.8799 9.36489Z" fill="#3D61D3"/>
<path d="M7.59522 25.7238C7.45521 25.602 6.96423 25.0439 6.71106 24.7986C6.22391 24.3296 4.89863 23.1554 3.26264 21.7994C2.90399 21.5013 2.73521 21.3632 2.82152 21.2287C2.91549 21.0869 7.15026 17.6079 8.39691 16.6046C8.58679 16.4519 8.42952 16.1938 8.23581 16.1974L8.14566 14.2871C8.16484 14.2726 8.18402 14.2562 8.2032 14.2417C8.30485 14.1617 8.18402 14.0199 8.07662 14.0908C5.97266 15.4831 1.35814 19.7001 0.92853 20.1417C0.535356 20.5471 0.0155995 21.0015 0.00025613 21.5922C-0.0112514 22.0048 0.366579 22.4865 0.815372 22.8191C1.81269 23.5535 4.49778 25.5147 5.19015 26.0855C5.01178 26.1909 4.35777 26.8143 4.18708 27.0852C3.85144 27.6232 4.46326 28.3448 4.97534 28.5556C5.26495 28.6756 5.58524 28.6502 5.84608 28.4848C5.99759 28.3884 6.12226 28.2576 6.25268 28.1376C6.39652 28.0049 6.54037 27.8722 6.68421 27.7413C6.9719 27.476 7.25959 27.2124 7.54727 26.947C7.79852 26.7162 8.09004 26.4326 7.91743 26.0764C7.84839 25.9346 7.71221 25.831 7.5933 25.7274L7.59522 25.7238Z" fill="url(#paint0_radial_2_1379)"/>
<path d="M41.8799 9.36489C41.5769 8.66873 40.8231 8.51968 40.1116 8.49787C40.1077 8.10163 40.2516 7.7072 40.1442 7.31277C40.0406 6.93651 39.6896 6.59843 39.2485 6.64932C38.8093 6.70204 38.652 7.10737 38.5887 7.46727C38.5063 7.92895 38.3739 8.34701 38.1208 8.75234C37.8964 9.11224 37.6183 9.4994 37.6183 9.93382C37.6183 10.1447 37.6892 10.3301 37.8081 10.5064C37.9002 10.6445 38.0498 10.7845 37.9923 10.959C37.9155 11.1898 37.7679 11.4134 37.6585 11.6315C37.5377 11.8714 37.415 12.1114 37.2941 12.3531C37.0602 12.8166 36.8243 13.2801 36.5903 13.7436C36.0916 14.7306 35.591 15.7158 35.0924 16.7027C33.5235 15.7994 32.227 14.547 30.8576 13.4037C30.4491 13.062 30.0348 12.7275 29.6014 12.4167C29.4556 12.3131 29.3022 12.5167 29.4345 12.6294C29.4652 12.6548 29.494 12.6821 29.5246 12.7075L29.6301 15.7285C29.4288 15.7448 29.283 16.0011 29.494 16.1265C30.919 16.9827 34.2255 19.5365 34.9907 19.7237C35.3283 19.8055 35.7425 19.8745 36.0628 19.7055C36.3755 19.5401 36.504 19.2056 36.6401 18.913C37.3018 17.4989 40.2995 11.5933 40.4146 11.5206C40.5373 11.4425 40.7291 11.437 40.8672 11.3879C41.0245 11.3334 41.1741 11.2534 41.3103 11.1607C41.9048 10.7554 42.1695 10.0174 41.8856 9.36671L41.8799 9.36489Z" fill="url(#paint1_radial_2_1379)"/>
<path d="M8.25112 1.40701L5.00024 41.1263L16.8607 40.3811L16.8856 30.0223L21.7782 29.7424L23.4065 39.9012L34.0606 39.3614L27.9846 0.599976L8.25112 1.40701V1.40701ZM16.9144 16.9152L17.2289 9.99722L19.0893 9.93906L19.7011 16.7971L16.9144 16.9152V16.9152Z" fill="#3D61D3"/>
<path d="M38.7556 8.92487C39.0126 8.90487 39.2638 8.89579 39.5208 8.92487C39.7778 8.95395 40.0214 9.00666 40.2611 9.09027C40.3014 9.10482 40.3686 9.11754 40.3877 9.15934C40.4088 9.20297 40.3897 9.27386 40.3839 9.3193C40.3705 9.42654 40.3475 9.53742 40.2899 9.63193C40.1844 9.80461 39.9773 9.88095 39.7817 9.9173C39.6513 9.94093 39.5189 9.95184 39.3866 9.95184C39.3118 9.95184 39.2351 9.95002 39.1603 9.94457C39.0855 9.93912 39.0107 9.92457 38.9359 9.92821C38.8764 9.93184 38.8323 10.0227 38.9013 10.05C39.0356 10.1045 39.1986 10.1045 39.3425 10.1063C39.4863 10.1082 39.6321 10.0973 39.774 10.0754C40.0061 10.0391 40.242 9.95002 40.3858 9.76644C40.4664 9.66465 40.5028 9.54105 40.5201 9.41563C40.5354 9.30839 40.568 9.15571 40.4913 9.06483C40.4568 9.02484 40.4088 9.00303 40.359 8.98485C40.288 8.9594 40.2151 8.93759 40.1422 8.9176C40.0022 8.87943 39.8584 8.85034 39.7145 8.83035C39.3981 8.78854 39.0625 8.78309 38.746 8.84671C38.7 8.8558 38.7096 8.93032 38.7575 8.92669L38.7556 8.92487Z" fill="#403E3D"/>
<path d="M39.8029 10.0551C39.7934 10.226 39.7262 10.3896 39.6227 10.5296C39.5728 10.5968 39.5095 10.6568 39.4424 10.7095C39.4098 10.7349 39.3733 10.7568 39.3369 10.7768C39.2966 10.7986 39.2352 10.8167 39.2161 10.8585C39.1988 10.8967 39.2122 10.9349 39.2544 10.9494C39.3081 10.9676 39.3695 10.9294 39.4136 10.904C39.4577 10.8785 39.4999 10.8495 39.5402 10.8204C39.6188 10.7586 39.6879 10.6841 39.7435 10.6023C39.8547 10.4405 39.9104 10.246 39.8988 10.0533C39.895 9.99516 39.8068 9.99516 39.8029 10.0533V10.0551Z" fill="#403E3D"/>
<path d="M40.7523 9.22463C40.7216 9.37367 40.6909 9.52454 40.6564 9.67177C40.6257 9.799 40.5989 9.93533 40.5336 10.0517C40.4684 10.168 40.3572 10.2298 40.2325 10.2789C40.1232 10.3207 39.9736 10.3861 39.8605 10.3261C39.7703 10.2789 39.6898 10.4097 39.7799 10.457C39.9237 10.5315 40.0848 10.4915 40.2287 10.4388C40.3725 10.3861 40.5221 10.3189 40.618 10.1934C40.7139 10.068 40.7408 9.91715 40.7676 9.76992C40.8002 9.59361 40.8213 9.41548 40.8424 9.23735C40.8482 9.19009 40.7638 9.17918 40.7542 9.22644L40.7523 9.22463Z" fill="#403E3D"/>
<path d="M40.3513 10.3827C40.3724 10.5226 40.4318 10.6771 40.6064 10.6826C40.7656 10.688 40.9267 10.6008 41.0379 10.5008C41.3141 10.2572 41.3697 9.89008 41.4176 9.55381C41.4234 9.51746 41.3812 9.48656 41.3448 9.48474C41.3026 9.48474 41.2776 9.51564 41.2719 9.55381C41.2354 9.83009 41.1952 10.1336 40.9957 10.3518C40.9152 10.4408 40.8135 10.5153 40.6908 10.5481C40.6255 10.5644 40.5565 10.5753 40.5105 10.5208C40.4721 10.4754 40.4568 10.4154 40.4414 10.359C40.4261 10.3009 40.3417 10.3281 40.3494 10.3827H40.3513Z" fill="#403E3D"/>
<path d="M41.0343 10.4062C41.017 10.5189 41.0688 10.6407 41.1762 10.6952C41.2836 10.7498 41.4332 10.7371 41.5291 10.6571C41.5559 10.6353 41.554 10.5989 41.5406 10.5716C41.5348 10.5607 41.5253 10.5517 41.5137 10.5462C41.4831 10.5298 41.4505 10.5371 41.4236 10.5571C41.437 10.5462 41.4236 10.5571 41.4198 10.5589C41.4159 10.5607 41.4121 10.5644 41.4083 10.5662C41.3987 10.5716 41.3891 10.5753 41.3795 10.5807C41.391 10.5753 41.3814 10.5807 41.3757 10.5807C41.3718 10.5807 41.3661 10.5844 41.3622 10.5844C41.3526 10.588 41.3411 10.5898 41.3315 10.5916C41.3411 10.5916 41.3373 10.5916 41.3315 10.5916C41.3258 10.5916 41.322 10.5916 41.3162 10.5916C41.3104 10.5916 41.3047 10.5916 41.2989 10.5916C41.297 10.5916 41.2798 10.5898 41.2913 10.5916C41.3028 10.5935 41.2855 10.5916 41.2836 10.5916C41.2778 10.5916 41.2721 10.5898 41.2663 10.588C41.2625 10.588 41.2568 10.5844 41.2529 10.5844C41.2491 10.5844 41.2491 10.5844 41.2548 10.5844C41.2529 10.5844 41.2491 10.5826 41.2472 10.5807C41.2376 10.5771 41.228 10.5716 41.2184 10.5662C41.2146 10.5644 41.2107 10.5607 41.2069 10.5589C41.2011 10.5553 41.2126 10.5644 41.205 10.5571C41.1973 10.5498 41.1896 10.5426 41.1819 10.5353C41.1781 10.5317 41.1762 10.528 41.1724 10.5244C41.18 10.5335 41.1685 10.5189 41.1685 10.5189C41.1551 10.5008 41.1493 10.488 41.1436 10.4717C41.1359 10.4517 41.134 10.439 41.134 10.419C41.134 10.3972 41.1167 10.3772 41.0918 10.3735C41.0707 10.3717 41.0419 10.3844 41.0381 10.4062H41.0343Z" fill="#403E3D"/>
<path d="M16.8856 4.67674C16.901 5.69463 16.0437 6.53074 14.9696 6.54529C13.8956 6.55983 13.0133 5.74734 12.998 4.72945C12.9827 3.71157 13.84 2.87545 14.914 2.86091C15.988 2.84637 16.8703 3.65886 16.8856 4.67674Z" fill="white"/>
<path d="M17.2691 4.73301C17.2845 5.69091 16.4751 6.47977 15.4643 6.49431C14.4536 6.50886 13.6212 5.74181 13.6059 4.78391C13.5925 3.826 14.3999 3.03714 15.4106 3.0226C16.4214 3.00806 17.2538 3.77511 17.2691 4.73301Z" fill="#403E3D"/>
<path d="M22.7391 4.59856C22.7545 5.61644 21.8972 6.45256 20.8231 6.4671C19.7491 6.48164 18.8669 5.66915 18.8515 4.65127C18.8362 3.63338 19.6935 2.79727 20.7675 2.78272C21.8416 2.76818 22.7238 3.58067 22.7391 4.59856Z" fill="white"/>
<path d="M23.2418 4.66589C23.2552 5.62379 22.4478 6.41265 21.437 6.42719C20.4263 6.44173 19.5939 5.67468 19.5786 4.71678C19.5632 3.75888 20.3726 2.97002 21.3833 2.95548C22.3941 2.94276 23.2265 3.70799 23.2418 4.66589Z" fill="#403E3D"/>
<path d="M16.0361 7.46875C16.0361 7.46875 17.7181 8.90288 19.7914 7.46875" stroke="#403E3D" stroke-linecap="round" stroke-linejoin="round"/>
<defs>
<radialGradient id="paint0_radial_2_1379" cx="0" cy="0" r="1" gradientUnits="userSpaceOnUse" gradientTransform="translate(8.93777 15.9939) scale(6.42312 6.08731)">
<stop stop-color="#1E2B78" stop-opacity="0.9"/>
<stop offset="1" stop-color="#1E2B78" stop-opacity="0"/>
</radialGradient>
<radialGradient id="paint1_radial_2_1379" cx="0" cy="0" r="1" gradientUnits="userSpaceOnUse" gradientTransform="translate(27.0659 13.9545) scale(7.77333 7.36693)">
<stop stop-color="#1E2B78" stop-opacity="0.9"/>
<stop offset="1" stop-color="#1E2B78" stop-opacity="0"/>
</radialGradient>
</defs>
</svg>
