<svg width="35" height="42" viewBox="0 0 35 42" fill="none" xmlns="http://www.w3.org/2000/svg">
<path d="M8.12456 0L8.78106 4.3891L9.07449 6.35362L11.8746 25.0415C9.84787 24.4521 7.07764 25.034 4.63815 26.7623C1.11444 29.2565 -0.387552 33.1905 1.28105 35.548C2.94965 37.9054 7.1597 37.7985 10.6834 35.3043C13.5531 33.2726 15.0825 30.286 14.6473 27.9733L12.173 11.4688L30.0651 16.8178L32.0097 29.7936C29.983 29.2018 27.2103 29.7837 24.7683 31.5145C21.2446 34.0087 19.7426 37.9427 21.4112 40.3001C23.0798 42.6575 27.2899 42.5506 30.8136 40.0564C33.539 38.1292 35.0535 35.3391 34.8272 33.0836H34.8346L31.8481 13.1648L31.4253 10.3399L30.734 5.72199L8.12456 0ZM29.6 13.6746L11.7502 8.61655L11.5214 7.08224L29.4135 12.4312L29.6 13.6746Z" fill="#FFF3C0"/>
<path d="M8.12456 0L8.78106 4.3891L9.07449 6.35362L11.8746 25.0415C9.84787 24.4521 7.07764 25.034 4.63815 26.7623C1.11444 29.2565 -0.387552 33.1905 1.28105 35.548C2.94965 37.9054 7.1597 37.7985 10.6834 35.3043C13.5531 33.2726 15.0825 30.286 14.6473 27.9733L12.173 11.4688L30.0651 16.8178L32.0097 29.7936C29.983 29.2018 27.2103 29.7837 24.7683 31.5145C21.2446 34.0087 19.7426 37.9427 21.4112 40.3001C23.0798 42.6575 27.2899 42.5506 30.8136 40.0564C33.539 38.1292 35.0535 35.3391 34.8272 33.0836H34.8346L31.8481 13.1648L31.4253 10.3399L30.734 5.72199L8.12456 0ZM29.6 13.6746L11.7502 8.61655L11.5214 7.08224L29.4135 12.4312L29.6 13.6746Z" fill="#C6E4D0"/>
<path d="M8.43287 30.5051C8.43038 31.2685 9.03217 31.8877 9.7782 31.8902C10.5242 31.8927 11.1335 31.276 11.1384 30.5151C11.1434 29.7541 10.5391 29.1324 9.79312 29.13C9.04709 29.1275 8.43784 29.7442 8.43287 30.5051Z" fill="white"/>
<path d="M8.76856 30.5054C8.76608 31.224 9.33305 31.8084 10.0368 31.8109C10.7405 31.8134 11.315 31.234 11.3175 30.5153C11.32 29.7967 10.753 29.2123 10.0492 29.2098C9.34549 29.2073 8.77105 29.7867 8.76856 30.5054Z" fill="#403E3D"/>
<path d="M4.76734 30.4924C4.76485 31.2559 5.36665 31.8751 6.11267 31.8775C6.85869 31.88 7.46794 31.2633 7.47291 30.5024C7.4754 29.7389 6.87361 29.1197 6.12759 29.1173C5.38157 29.1148 4.77232 29.7315 4.76734 30.4924Z" fill="white"/>
<path d="M5.1377 30.5052C5.13522 31.2239 5.7022 31.8082 6.40594 31.8107C7.10969 31.8132 7.68413 31.2338 7.68661 30.5151C7.6891 29.7965 7.12212 29.2121 6.41838 29.2096C5.71463 29.2071 5.14019 29.7865 5.1377 30.5052Z" fill="#403E3D"/>
<path d="M6.77173 32.6064C6.77173 32.6064 7.92558 33.626 8.88795 32.5119" stroke="#403E3D" stroke-linecap="round" stroke-linejoin="round"/>
<path d="M27.613 35.2696C27.6106 36.033 28.2124 36.6522 28.9584 36.6547C29.7044 36.6572 30.3136 36.0405 30.3186 35.2795C30.3211 34.5161 29.7193 33.8969 28.9733 33.8944C28.2273 33.8919 27.618 34.5086 27.613 35.2696Z" fill="white"/>
<path d="M27.4463 35.1033C27.4438 35.822 28.0108 36.4064 28.7145 36.4089C29.4183 36.4114 29.9927 35.832 29.9952 35.1133C29.9977 34.3946 29.4307 33.8102 28.727 33.8077C28.0232 33.8053 27.4488 34.3847 27.4463 35.1033Z" fill="#403E3D"/>
<path d="M26.6583 35.3051C26.6799 34.5431 26.0919 33.9083 25.3451 33.8872C24.5982 33.8661 23.9754 34.4666 23.9538 35.2286C23.9323 35.9905 24.5202 36.6253 25.267 36.6464C26.0139 36.6675 26.6368 36.067 26.6583 35.3051Z" fill="white"/>
<path d="M23.8208 35.0901C23.8183 35.8088 24.3853 36.3931 25.089 36.3956C25.7928 36.3981 26.3672 35.8187 26.3697 35.1C26.3722 34.3814 25.8052 33.797 25.1015 33.7945C24.3977 33.792 23.8233 34.3714 23.8208 35.0901Z" fill="#403E3D"/>
<path d="M25.4346 37.6892C25.4346 37.6892 26.1383 38.3705 26.8595 37.4206C26.8595 37.4206 27.5483 38.3929 28.4783 37.6071" stroke="#403E3D" stroke-linecap="round" stroke-linejoin="round"/>
</svg>
