<svg width="42" height="35" viewBox="0 0 51 42" fill="none" xmlns="http://www.w3.org/2000/svg">
<g opacity="0.4" clip-path="url(#clip0_2_3238)">
<path d="M50.0341 5.55374C48.496 2.52859 45.2319 0.469676 41.932 0.0813721C38.1046 -0.361113 34.2682 1.16501 31.3529 3.63029C28.3303 6.18586 26.2466 9.65351 24.7264 13.2837C24.5028 13.8165 24.2971 14.3493 24.0914 14.8821C21.7306 12.0827 19.1372 9.31938 15.8105 7.76617C13.8431 6.84508 11.679 6.44774 9.52384 6.70059C7.23452 6.96247 4.72163 7.71199 2.81684 9.06654C-0.974847 11.7756 -0.581371 16.9771 1.86892 20.4718C1.89575 20.5079 1.91363 20.535 1.94046 20.5621C2.39654 21.6999 3.23715 22.6933 4.12247 23.5963C5.58907 25.0863 7.10038 26.5312 8.64746 27.9309C11.7237 30.7212 14.961 33.331 18.3324 35.7511C20.0315 36.9792 21.7753 38.1532 23.537 39.282C24.4044 39.8328 25.2808 40.3746 26.1661 40.9074C26.962 41.386 27.8831 42.1175 28.8668 41.982C29.8505 41.8466 30.396 40.9255 30.9683 40.2031C31.5228 39.4987 32.0862 38.8124 32.6674 38.1351C33.8479 36.7445 35.082 35.3989 36.3161 34.0625C41.1361 28.852 46.3139 23.6324 49.1935 17.0042C50.7406 13.4282 51.8942 9.22005 50.0252 5.54471L50.0341 5.55374Z" fill="#EB8888"/>
</g>
<defs>
<clipPath id="clip0_2_3238">
<rect width="51" height="42" fill="white"/>
</clipPath>
</defs>
</svg>
