<svg width="168" height="146" viewBox="0 0 207 179" fill="none" xmlns="http://www.w3.org/2000/svg">
<path d="M120.221 146.475L127.38 168.903C127.38 168.903 141.558 172.493 140.965 178.191L113.42 178.582L113.62 147.35L120.221 146.475Z" fill="#ED7E7E"/>
<path d="M120.221 146.475L127.38 168.903C127.38 168.903 141.558 172.493 140.965 178.191L113.42 178.582L113.62 147.35L120.221 146.475Z" fill="url(#paint0_radial_2_3242)"/>
<path d="M102.64 146.13L94.4953 168.226C94.4953 168.226 80.171 171.191 80.5114 176.912L108.016 178.506L109.201 147.292L102.646 146.13H102.64Z" fill="#ED7E7E"/>
<path d="M102.64 146.13L94.4953 168.226C94.4953 168.226 80.171 171.191 80.5114 176.912L108.016 178.506L109.201 147.292L102.646 146.13H102.64Z" fill="url(#paint1_radial_2_3242)"/>
<path d="M56.8919 46.2056C56.4928 46.4625 55.9706 46.2932 55.5363 46.0947C54.9202 45.8145 54.3275 45.4818 53.77 45.1023C53.5118 44.9272 53.2477 44.7345 53.1186 44.4543C53.0189 44.2383 53.0071 43.9931 53.0071 43.7538C52.9954 42.4403 53.189 41.1268 53.594 39.8717C55.0727 40.0352 56.4342 40.7415 57.7486 41.4362C58.5526 41.8624 59.3624 42.2885 60.1663 42.7088L56.8919 46.2056Z" fill="#ED7E7E"/>
<path d="M57.0445 46.3574C56.5339 46.9704 55.5598 46.5734 54.9671 46.3165C54.2688 46.0071 53.4003 45.616 52.8898 45.0322C52.3147 44.3726 52.4262 43.3451 52.4966 42.5337C52.5788 41.5821 52.7607 40.6364 53.0424 39.7257C53.1069 39.5097 53.3416 39.2821 53.5881 39.3113C54.8263 39.4572 55.9588 39.9009 57.0621 40.4496C58.1653 40.9984 59.3213 41.6288 60.448 42.2243C60.7825 42.3994 60.806 42.8606 60.5654 43.1175C59.4739 44.285 58.3824 45.4467 57.2909 46.6143C56.7863 47.1513 55.9823 46.3457 56.4811 45.8087C57.5726 44.6411 58.6641 43.4794 59.7556 42.3119L59.8729 43.205C58.8225 42.6504 57.778 42.0842 56.7158 41.5471C55.73 41.0451 54.6913 40.578 53.5881 40.4438L54.1338 40.0293C53.905 40.7357 53.7348 41.4595 53.6409 42.2009C53.594 42.5629 53.5705 42.9248 53.5588 43.2868C53.547 43.5962 53.4649 44.0106 53.6116 44.2908C53.7348 44.5244 54.0165 44.6878 54.2277 44.8279C54.5094 45.0206 54.797 45.1957 55.0904 45.365C55.3838 45.5343 55.6889 45.7211 56.0058 45.8612C56.3227 46.0013 56.5633 46.0363 56.8919 45.9955C57.0973 45.9721 57.1501 46.2348 57.0445 46.3632V46.3574Z" fill="#ED7E7E"/>
<path d="M158.664 108.407C158.476 107.286 158.288 106.159 158.094 105.038C157.654 102.44 157.22 99.8368 156.774 97.239C156.745 97.0756 156.715 96.9121 156.692 96.7487C156.598 96.1824 157.308 95.9489 157.66 96.3225C158.705 97.4142 159.755 98.4942 160.806 99.5741C163.452 102.3 166.11 105.015 168.78 107.712C172.266 111.232 175.781 114.723 179.326 118.185C182.899 121.682 186.514 125.138 190.211 128.506C192.429 130.52 194.665 132.534 197.006 134.414C198.086 134.513 199.166 134.659 200.234 134.834C201.343 135.015 202.446 135.237 203.538 135.505C204.324 135.698 205.14 135.896 205.873 136.247C206.507 136.55 207.205 137.128 206.941 137.916C206.759 138.459 206.237 138.71 205.791 139.02C205.967 139.247 206.29 139.428 206.454 139.633C206.712 139.954 206.806 140.357 206.695 140.753C206.495 141.442 205.914 141.746 205.281 141.88C205.327 142.114 205.304 142.359 205.21 142.598C204.911 143.357 204.048 143.521 203.315 143.462C201.807 143.334 200.281 142.919 198.837 142.429C198.931 143.41 199.389 144.35 199.019 145.354C198.579 146.539 197.218 146.813 196.214 146.124C194.953 145.26 195.093 143.614 194.753 142.306C194.436 141.063 193.233 140.45 192.523 139.463C192.435 139.341 192.353 139.212 192.277 139.078C192.247 139.026 192.218 138.967 192.189 138.915C192.177 138.897 192.171 138.88 192.159 138.856C192.083 138.728 192.089 138.704 192.177 138.786C192.177 138.78 192.177 138.78 192.177 138.774C192.083 138.681 191.977 138.599 191.878 138.512C191.473 138.156 191.074 137.8 190.669 137.438C189.184 136.118 187.694 134.793 186.209 133.474C184.132 131.629 182.06 129.784 179.983 127.945C177.677 125.896 175.37 123.853 173.064 121.81C170.893 119.884 168.716 117.963 166.545 116.037C164.866 114.554 163.188 113.065 161.516 111.582C160.7 110.858 159.878 110.14 159.063 109.411C158.746 109.13 158.728 108.798 158.664 108.401V108.407Z" fill="#ED7E7E"/>
<path d="M158.664 108.407C158.476 107.286 158.288 106.159 158.094 105.038C157.654 102.44 157.22 99.8368 156.774 97.239C156.745 97.0756 156.715 96.9121 156.692 96.7487C156.598 96.1824 157.308 95.9489 157.66 96.3225C158.705 97.4142 159.755 98.4942 160.806 99.5741C163.452 102.3 166.11 105.015 168.78 107.712C172.266 111.232 175.781 114.723 179.326 118.185C182.899 121.682 186.514 125.138 190.211 128.506C192.429 130.52 194.665 132.534 197.006 134.414C198.086 134.513 199.166 134.659 200.234 134.834C201.343 135.015 202.446 135.237 203.538 135.505C204.324 135.698 205.14 135.896 205.873 136.247C206.507 136.55 207.205 137.128 206.941 137.916C206.759 138.459 206.237 138.71 205.791 139.02C205.967 139.247 206.29 139.428 206.454 139.633C206.712 139.954 206.806 140.357 206.695 140.753C206.495 141.442 205.914 141.746 205.281 141.88C205.327 142.114 205.304 142.359 205.21 142.598C204.911 143.357 204.048 143.521 203.315 143.462C201.807 143.334 200.281 142.919 198.837 142.429C198.931 143.41 199.389 144.35 199.019 145.354C198.579 146.539 197.218 146.813 196.214 146.124C194.953 145.26 195.093 143.614 194.753 142.306C194.436 141.063 193.233 140.45 192.523 139.463C192.435 139.341 192.353 139.212 192.277 139.078C192.247 139.026 192.218 138.967 192.189 138.915C192.177 138.897 192.171 138.88 192.159 138.856C192.083 138.728 192.089 138.704 192.177 138.786C192.177 138.78 192.177 138.78 192.177 138.774C192.083 138.681 191.977 138.599 191.878 138.512C191.473 138.156 191.074 137.8 190.669 137.438C189.184 136.118 187.694 134.793 186.209 133.474C184.132 131.629 182.06 129.784 179.983 127.945C177.677 125.896 175.37 123.853 173.064 121.81C170.893 119.884 168.716 117.963 166.545 116.037C164.866 114.554 163.188 113.065 161.516 111.582C160.7 110.858 159.878 110.14 159.063 109.411C158.746 109.13 158.728 108.798 158.664 108.401V108.407Z" fill="url(#paint2_radial_2_3242)"/>
<path d="M111.9 40.9867C142.937 40.9867 168.1 66.0189 168.1 96.8946C168.1 127.77 142.937 152.803 111.9 152.803C80.8635 152.803 55.7008 127.77 55.7008 96.8946C55.7008 66.0189 80.8635 40.9867 111.9 40.9867ZM111.9 119.025C124.188 119.025 134.147 109.119 134.147 96.8946C134.147 84.6704 124.188 74.7638 111.9 74.7638C99.6123 74.7638 89.654 84.6704 89.654 96.8946C89.654 109.119 99.6123 119.025 111.9 119.025Z" fill="#ED7E7E"/>
<path d="M111.378 55.9079C111.003 59.4923 107.84 62.1018 104.313 61.734C100.78 61.3662 98.2216 58.1613 98.5972 54.5769C98.9728 50.9926 102.136 48.3831 105.662 48.7509C109.195 49.1186 111.754 52.3236 111.378 55.9079Z" fill="white"/>
<path d="M109.958 55.2892C109.606 58.6692 106.625 61.1269 103.298 60.7825C99.9704 60.4381 97.5585 57.4141 97.9106 54.0399C98.2627 50.6599 101.244 48.2022 104.571 48.5466C107.898 48.891 110.31 51.915 109.958 55.2892Z" fill="#403E3D"/>
<path d="M118.666 59.2705C118.666 59.2705 122.733 54.8046 130.632 57.3616" stroke="#403E3D" stroke-width="2" stroke-linecap="round" stroke-linejoin="round"/>
<path d="M109.87 66.2291C109.87 67.7469 110.973 68.9728 112.329 68.9728C113.684 68.9728 114.788 67.7411 114.788 66.2291C114.788 64.7171 113.684 63.4854 112.329 63.4854C110.973 63.4854 109.87 64.7171 109.87 66.2291Z" stroke="#403E3D" stroke-width="2" stroke-linecap="round" stroke-linejoin="round"/>
<path d="M67.6542 46.5033L90.3699 54.5361L94.7183 44.215L73.0236 33.7421L67.6542 46.5033Z" fill="#BCBBBB"/>
<path d="M39.8625 38.3246L72.8945 50.0059L79.2145 35.003L47.6731 19.7723L39.8625 38.3246Z" fill="#A09C9C"/>
<path d="M-1.14441e-05 26.2231L46.6931 42.7322L55.6186 21.5295L11.0439 0L-1.14441e-05 26.2231Z" fill="#878382"/>
<path d="M35.1094 53.5962C35.6375 52.9949 36.3417 52.6972 37.0576 52.4053C39.0117 51.6172 40.9658 50.8233 42.914 50.0352C45.6251 48.9377 48.3304 47.8402 51.0415 46.7486C52.2914 46.2407 53.5413 45.7386 54.7912 45.2308C55.5717 43.4736 57.2969 42.1893 59.2276 41.9383C59.3684 41.9208 59.5151 41.9208 59.6501 41.8974C59.832 41.8624 59.8613 41.7982 59.9259 41.6405C60.0491 41.3428 60.1371 41.0334 60.231 40.724C60.4129 40.1519 60.6125 39.5682 60.9646 39.0778C61.6335 38.1554 62.8952 37.6183 63.9045 38.3773C64.8141 39.0603 64.996 40.3387 65.2483 41.3662C65.4185 42.0784 65.6239 42.7847 65.753 43.5086C65.8645 44.1157 65.9114 44.7579 65.6767 45.3417C65.1955 46.5442 63.8165 46.9179 62.7133 47.3265C62.015 47.5892 61.3166 47.8402 60.6125 48.0971C60.3719 48.1846 60.1078 48.2547 59.8789 48.3598C59.3625 48.5991 58.8638 48.9202 58.365 49.1946C57.338 49.7608 56.3052 50.3271 55.2783 50.8934C52.6552 52.3411 50.0145 53.7714 47.3856 55.2074C46.3117 55.797 45.2378 56.3808 44.164 56.9704C43.8236 57.1572 43.4833 57.3616 43.137 57.5542C43.8001 58.0504 44.4632 58.5466 45.1263 59.0428C47.2565 60.6365 49.3808 62.2302 51.5109 63.8181C54.0812 65.7445 56.6573 67.671 59.2276 69.5974C61.4575 71.267 63.6933 72.9366 65.9232 74.612C67.0029 75.4235 68.0885 76.2233 69.1624 77.0405C69.18 77.0522 69.1917 77.0639 69.2094 77.0756C69.5262 77.3149 69.5321 77.7002 69.2094 77.9396C67.5369 79.183 65.8704 80.4323 64.1979 81.6757C63.9573 81.8567 63.7226 82.0318 63.482 82.2128C63.2942 82.3529 63.0302 82.2653 62.8717 82.1369C62.191 81.5589 61.5103 80.981 60.8296 80.4031L55.7243 76.0656C53.5061 74.1801 51.2879 72.2945 49.0698 70.4089C46.8633 68.535 44.6628 66.6611 42.4563 64.7872C40.7722 63.3569 39.088 61.9208 37.398 60.4906C36.6879 59.8893 35.925 59.3172 35.2619 58.6634C33.877 57.3032 33.836 55.0673 35.1035 53.6254L35.1094 53.5962Z" fill="#ED7E7E"/>
<defs>
<radialGradient id="paint0_radial_2_3242" cx="0" cy="0" r="1" gradientUnits="userSpaceOnUse" gradientTransform="translate(123.083 144.55) rotate(175.404) scale(25.8954 25.7628)">
<stop stop-color="#CE3D44" stop-opacity="0.9"/>
<stop offset="1" stop-color="#CE3D44" stop-opacity="0"/>
</radialGradient>
<radialGradient id="paint1_radial_2_3242" cx="0" cy="0" r="1" gradientUnits="userSpaceOnUse" gradientTransform="translate(99.8889 144.077) rotate(7.09338) scale(25.8942 25.764)">
<stop stop-color="#CE3D44" stop-opacity="0.9"/>
<stop offset="1" stop-color="#CE3D44" stop-opacity="0"/>
</radialGradient>
<radialGradient id="paint2_radial_2_3242" cx="0" cy="0" r="1" gradientUnits="userSpaceOnUse" gradientTransform="translate(164.855 112.797) rotate(180) scale(20.1865 20.0818)">
<stop stop-color="#CE3D44" stop-opacity="0.9"/>
<stop offset="1" stop-color="#CE3D44" stop-opacity="0"/>
</radialGradient>
</defs>
</svg>
