<svg width="323" height="217" viewBox="0 0 323 217" fill="none" xmlns="http://www.w3.org/2000/svg">
<g clip-path="url(#clip0_0_1)">
<path d="M253.703 141.936C253.324 144.316 253.392 146.757 253.725 149.14C254.06 151.535 254.791 153.84 255.241 156.211C255.685 158.554 255.858 160.948 255.766 163.332C255.674 165.705 255.306 168.053 254.702 170.351C254.098 172.64 253.283 174.886 252.823 177.21C252.766 177.499 252.734 177.793 252.696 178.084C252.663 178.327 253.067 178.375 253.123 178.141C253.4 176.989 253.684 175.838 254.006 174.7C254.331 173.559 254.68 172.424 255 171.284C255.641 168.994 256.085 166.667 256.248 164.294C256.41 161.911 256.305 159.516 255.942 157.154C255.576 154.773 254.843 152.471 254.41 150.103C253.976 147.727 253.849 145.293 253.963 142.882C253.976 142.58 253.984 142.281 254.001 141.979C254.009 141.809 253.727 141.766 253.7 141.938L253.703 141.936Z" fill="#898074"/>
<path d="M291.431 176.556C291.512 177.912 291.48 179.284 291.45 180.641C291.42 182.019 291.336 183.391 291.198 184.761C291.06 186.12 290.868 187.473 290.616 188.816C290.364 190.165 290.01 191.494 289.78 192.845C289.555 194.161 289.509 195.46 289.742 196.779C289.964 198.041 290.37 199.26 290.654 200.508C290.798 201.139 290.909 201.775 290.944 202.423C290.979 203.094 290.938 203.771 290.86 204.437C290.7 205.772 290.392 207.082 290.216 208.414C289.88 210.962 290.142 213.642 291.087 216.042C291.201 216.334 291.345 216.617 291.483 216.897C291.588 217.11 291.956 216.959 291.872 216.735C291.418 215.538 291.039 214.303 290.825 213.041C290.611 211.777 290.559 210.482 290.665 209.204C290.776 207.88 291.076 206.58 291.28 205.267C291.483 203.954 291.567 202.652 291.358 201.333C291.158 200.069 290.757 198.847 290.459 197.601C290.151 196.312 290.031 195.037 290.188 193.718C290.348 192.37 290.711 191.052 290.982 189.725C291.25 188.404 291.464 187.072 291.618 185.732C291.929 183.027 292.019 180.279 291.767 177.567C291.734 177.23 291.694 176.893 291.664 176.556C291.65 176.41 291.426 176.407 291.434 176.556H291.431Z" fill="#898074"/>
<path d="M276.188 136.548C276.134 135.95 275.89 135.357 275.533 134.877C275.157 134.372 274.68 134 274.112 133.733C273.987 133.674 273.846 133.615 273.757 133.51C273.646 133.377 273.611 133.194 273.565 133.032C273.456 132.641 273.351 132.253 273.243 131.862C272.379 128.734 271.477 125.614 270.589 122.492C270.088 120.731 269.577 118.973 269.054 117.218C269.008 117.067 268.778 117.129 268.819 117.282C268.838 117.358 268.856 117.431 268.878 117.503L268.09 120.844C268.071 120.839 268.052 120.834 268.031 120.834C267.901 120.834 267.755 120.952 267.771 121.092C267.852 121.812 268.063 122.497 268.285 123.185C268.504 123.867 268.737 124.544 268.984 125.218C269.458 126.526 269.969 127.82 270.454 129.122C270.938 130.433 271.393 131.757 271.756 133.108C271.84 133.423 271.927 133.701 271.962 134.016C271.997 134.327 272.03 134.639 272.065 134.949C272.132 135.551 272.197 136.149 272.265 136.751C272.281 136.891 272.365 136.988 272.514 136.999C272.566 137.001 272.606 137.034 272.647 137.096C272.704 137.177 272.739 137.271 272.774 137.363C272.869 137.603 272.953 137.859 273.134 138.05C273.372 138.298 273.73 138.328 274.028 138.174C274.274 138.045 274.42 137.818 274.52 137.573C274.715 137.692 274.943 137.748 275.17 137.678C275.341 137.624 275.482 137.506 275.565 137.355C275.639 137.363 275.714 137.355 275.793 137.33C276.121 137.225 276.223 136.861 276.194 136.551L276.188 136.548Z" fill="#89BDC9"/>
<path d="M276.188 136.548C276.134 135.95 275.89 135.357 275.533 134.877C275.157 134.372 274.68 134 274.112 133.733C273.987 133.674 273.846 133.615 273.757 133.51C273.646 133.377 273.611 133.194 273.565 133.032C273.456 132.641 273.351 132.253 273.243 131.862C272.379 128.734 271.477 125.614 270.589 122.492C270.088 120.731 269.577 118.973 269.054 117.218C269.008 117.067 268.778 117.129 268.819 117.282C268.838 117.358 268.856 117.431 268.878 117.503L268.09 120.844C268.071 120.839 268.052 120.834 268.031 120.834C267.901 120.834 267.755 120.952 267.771 121.092C267.852 121.812 268.063 122.497 268.285 123.185C268.504 123.867 268.737 124.544 268.984 125.218C269.458 126.526 269.969 127.82 270.454 129.122C270.938 130.433 271.393 131.757 271.756 133.108C271.84 133.423 271.927 133.701 271.962 134.016C271.997 134.327 272.03 134.639 272.065 134.949C272.132 135.551 272.197 136.149 272.265 136.751C272.281 136.891 272.365 136.988 272.514 136.999C272.566 137.001 272.606 137.034 272.647 137.096C272.704 137.177 272.739 137.271 272.774 137.363C272.869 137.603 272.953 137.859 273.134 138.05C273.372 138.298 273.73 138.328 274.028 138.174C274.274 138.045 274.42 137.818 274.52 137.573C274.715 137.692 274.943 137.748 275.17 137.678C275.341 137.624 275.482 137.506 275.565 137.355C275.639 137.363 275.714 137.355 275.793 137.33C276.121 137.225 276.223 136.861 276.194 136.551L276.188 136.548Z" fill="url(#paint0_radial_0_1)"/>
<path d="M235.157 105.847L235.1 104.563C235.079 104.067 235.089 103.557 235.033 103.064C235.011 102.881 234.846 102.794 234.71 102.692C234.45 102.495 234.19 102.296 233.931 102.099C233.419 101.713 232.904 101.33 232.382 100.955C231.391 100.244 230.341 99.6152 229.352 98.9034C228.881 98.5663 228.429 98.1996 228.036 97.7709C227.638 97.334 227.297 96.8514 226.983 96.3498C226.306 95.2713 225.7 94.1468 225.077 93.0386C224.43 91.8872 223.783 90.7358 223.139 89.5844C222.838 89.0479 222.548 88.5463 222.481 87.9261C222.448 87.6268 222.427 87.3302 222.351 87.0363C222.275 86.7505 222.164 86.4781 222.031 86.2112C221.752 85.6503 221.425 85.111 221.119 84.5664C220.962 84.2859 220.802 84.0055 220.645 83.7251C220.515 83.4959 220.391 83.2478 220.161 83.1022C219.966 82.9781 219.708 82.9512 219.503 83.0617C219.243 83.1993 219.199 83.4932 219.251 83.7574C219.359 84.3048 219.538 84.8495 219.768 85.3591C219.254 85.5398 218.839 86.0467 218.558 86.4889C218.439 86.675 218.314 86.8718 218.284 87.0956C218.249 87.3518 218.355 87.6026 218.455 87.8345C218.617 88.2093 218.828 88.5733 219.134 88.851C219.286 88.9885 219.47 89.0883 219.67 89.1368C219.887 89.1908 220.082 89.153 220.299 89.1099C220.51 89.0667 220.591 89.1746 220.697 89.3472C220.837 89.5764 220.957 89.8217 221.084 90.059C221.582 90.9866 222.061 91.925 222.524 92.8687C222.998 93.834 223.453 94.8075 223.891 95.789C224.1 96.2582 224.3 96.7273 224.506 97.1992C224.687 97.6172 224.888 98.0378 225.175 98.3964C225.413 98.693 225.713 98.9438 225.998 99.1973C226.301 99.4696 226.602 99.7447 226.905 100.017C227.655 100.691 228.432 101.336 229.225 101.961C231.025 103.382 232.902 104.703 234.716 106.106C234.924 106.265 235.176 106.079 235.165 105.847H235.157Z" fill="#89BDC9"/>
<path d="M235.157 105.847L235.1 104.563C235.079 104.067 235.089 103.557 235.033 103.064C235.011 102.881 234.846 102.794 234.71 102.692C234.45 102.495 234.19 102.296 233.931 102.099C233.419 101.713 232.904 101.33 232.382 100.955C231.391 100.244 230.341 99.6152 229.352 98.9034C228.881 98.5663 228.429 98.1996 228.036 97.7709C227.638 97.334 227.297 96.8514 226.983 96.3498C226.306 95.2713 225.7 94.1468 225.077 93.0386C224.43 91.8872 223.783 90.7358 223.139 89.5844C222.838 89.0479 222.548 88.5463 222.481 87.9261C222.448 87.6268 222.427 87.3302 222.351 87.0363C222.275 86.7505 222.164 86.4781 222.031 86.2112C221.752 85.6503 221.425 85.111 221.119 84.5664C220.962 84.2859 220.802 84.0055 220.645 83.7251C220.515 83.4959 220.391 83.2478 220.161 83.1022C219.966 82.9781 219.708 82.9512 219.503 83.0617C219.243 83.1993 219.199 83.4932 219.251 83.7574C219.359 84.3048 219.538 84.8495 219.768 85.3591C219.254 85.5398 218.839 86.0467 218.558 86.4889C218.439 86.675 218.314 86.8718 218.284 87.0956C218.249 87.3518 218.355 87.6026 218.455 87.8345C218.617 88.2093 218.828 88.5733 219.134 88.851C219.286 88.9885 219.47 89.0883 219.67 89.1368C219.887 89.1908 220.082 89.153 220.299 89.1099C220.51 89.0667 220.591 89.1746 220.697 89.3472C220.837 89.5764 220.957 89.8217 221.084 90.059C221.582 90.9866 222.061 91.925 222.524 92.8687C222.998 93.834 223.453 94.8075 223.891 95.789C224.1 96.2582 224.3 96.7273 224.506 97.1992C224.687 97.6172 224.888 98.0378 225.175 98.3964C225.413 98.693 225.713 98.9438 225.998 99.1973C226.301 99.4696 226.602 99.7447 226.905 100.017C227.655 100.691 228.432 101.336 229.225 101.961C231.025 103.382 232.902 104.703 234.716 106.106C234.924 106.265 235.176 106.079 235.165 105.847H235.157Z" fill="url(#paint1_radial_0_1)"/>
<path d="M272.658 98.7978C271.393 94.4511 268.727 90.4415 265.088 87.7127C263.171 86.2755 261.013 85.2508 258.693 84.6522C255.942 83.943 253.007 83.7435 250.175 83.8028C247.484 83.8594 244.817 84.3556 242.378 85.5178C240.074 86.6152 238.03 88.1765 236.232 89.9723C232.704 93.4939 230.259 97.9996 229.033 102.807C227.82 107.564 227.925 112.598 229.228 117.325C230.538 122.084 232.98 126.506 236.348 130.133C238.195 132.12 240.266 133.887 242.432 135.521C244.628 137.174 246.896 138.802 249.363 140.035C250.343 140.525 251.358 140.919 252.406 141.232L251.288 144.405L256.733 143.888L254.845 141.038C258.871 137.643 262.05 133.32 265.118 129.055C268.277 124.665 270.979 119.854 272.441 114.629C273.884 109.47 274.166 103.978 272.658 98.7978Z" fill="#89BDC9"/>
<path d="M277.06 146.827C275.116 145.905 273.202 144.897 271.466 143.619C271.014 143.287 270.581 142.931 270.161 142.562C270.519 141.852 270.871 141.143 271.266 140.453C271.604 139.862 271.948 139.275 272.292 138.684C272.471 138.374 272.65 138.067 272.831 137.756C272.92 137.603 273.01 137.446 273.099 137.293C273.145 137.214 273.188 137.136 273.234 137.061C273.248 137.039 273.261 137.018 273.275 136.996C273.294 136.98 273.302 136.972 273.305 136.966C273.613 136.921 273.608 136.43 273.28 136.449C273.156 136.454 273.058 136.5 272.977 136.565L272.465 136.319C272.53 136.19 272.354 136.06 272.249 136.166C271.756 136.648 271.35 137.22 270.914 137.756C270.486 138.28 270.059 138.805 269.631 139.328C269.219 139.827 268.816 140.332 268.431 140.852C268.242 141.108 268.06 141.367 267.884 141.634C267.719 141.887 267.495 142.162 267.43 142.464C267.362 142.783 267.524 143.068 267.679 143.335C267.817 143.575 267.971 143.805 268.136 144.023C268.483 144.481 268.878 144.902 269.306 145.288C270.164 146.059 271.15 146.649 272.073 147.334C273.15 148.135 274.185 148.993 275.368 149.64C275.487 149.704 275.66 149.675 275.728 149.545C276.153 148.728 276.63 147.938 277.157 147.183C277.233 147.073 277.185 146.881 277.063 146.825L277.06 146.827Z" fill="#FC8230"/>
<path d="M277.06 146.827C275.116 145.905 273.202 144.897 271.466 143.619C271.014 143.287 270.581 142.931 270.161 142.562C270.519 141.852 270.871 141.143 271.266 140.453C271.604 139.862 271.948 139.275 272.292 138.684C272.471 138.374 272.65 138.067 272.831 137.756C272.92 137.603 273.01 137.446 273.099 137.293C273.145 137.214 273.188 137.136 273.234 137.061C273.248 137.039 273.261 137.018 273.275 136.996C273.294 136.98 273.302 136.972 273.305 136.966C273.613 136.921 273.608 136.43 273.28 136.449C273.156 136.454 273.058 136.5 272.977 136.565L272.465 136.319C272.53 136.19 272.354 136.06 272.249 136.166C271.756 136.648 271.35 137.22 270.914 137.756C270.486 138.28 270.059 138.805 269.631 139.328C269.219 139.827 268.816 140.332 268.431 140.852C268.242 141.108 268.06 141.367 267.884 141.634C267.719 141.887 267.495 142.162 267.43 142.464C267.362 142.783 267.524 143.068 267.679 143.335C267.817 143.575 267.971 143.805 268.136 144.023C268.483 144.481 268.878 144.902 269.306 145.288C270.164 146.059 271.15 146.649 272.073 147.334C273.15 148.135 274.185 148.993 275.368 149.64C275.487 149.704 275.66 149.675 275.728 149.545C276.153 148.728 276.63 147.938 277.157 147.183C277.233 147.073 277.185 146.881 277.063 146.825L277.06 146.827Z" fill="url(#paint2_radial_0_1)"/>
<path d="M316.673 175.424C316.578 174.828 316.28 174.251 315.89 173.793C315.492 173.324 314.986 172.992 314.42 172.766C314.285 172.712 314.136 172.655 314.044 172.536C313.941 172.407 313.898 172.229 313.846 172.078C313.716 171.692 313.583 171.304 313.453 170.919C312.417 167.85 311.339 164.795 310.278 161.734C309.679 160.009 309.076 158.283 308.442 156.568C308.393 156.433 308.16 156.511 308.204 156.649C308.228 156.73 308.255 156.813 308.282 156.894L307.692 160.246C307.524 160.227 307.335 160.351 307.373 160.567C307.494 161.279 307.754 161.956 308.012 162.627C308.266 163.285 308.531 163.937 308.81 164.585C309.357 165.86 309.939 167.122 310.497 168.395C311.055 169.67 311.585 170.962 312.024 172.283C312.127 172.596 312.235 172.9 312.289 173.221C312.3 173.278 312.308 173.335 312.319 173.391C312.067 173.747 311.813 174.119 311.764 174.553C311.732 174.839 311.778 175.141 311.794 175.43C311.81 175.718 311.824 176.007 311.813 176.293C311.805 176.535 311.723 176.824 311.818 177.058C311.91 177.288 312.149 177.409 312.392 177.368C312.893 177.285 313.034 176.657 313.134 176.228C313.134 176.228 313.137 176.231 313.139 176.233C313.204 176.311 313.248 176.414 313.294 176.511C313.397 176.735 313.494 176.975 313.673 177.15C313.914 177.382 314.263 177.433 314.561 177.274C314.826 177.131 314.972 176.888 315.07 176.622C315.281 176.729 315.519 176.77 315.752 176.673C315.915 176.603 316.034 176.484 316.101 176.341C316.191 176.341 316.28 176.325 316.361 176.287C316.686 176.136 316.732 175.745 316.681 175.43L316.673 175.424Z" fill="#FC8230"/>
<path d="M316.673 175.424C316.578 174.828 316.28 174.251 315.89 173.793C315.492 173.324 314.986 172.992 314.42 172.766C314.285 172.712 314.136 172.655 314.044 172.536C313.941 172.407 313.898 172.229 313.846 172.078C313.716 171.692 313.583 171.304 313.453 170.919C312.417 167.85 311.339 164.795 310.278 161.734C309.679 160.009 309.076 158.283 308.442 156.568C308.393 156.433 308.16 156.511 308.204 156.649C308.228 156.73 308.255 156.813 308.282 156.894L307.692 160.246C307.524 160.227 307.335 160.351 307.373 160.567C307.494 161.279 307.754 161.956 308.012 162.627C308.266 163.285 308.531 163.937 308.81 164.585C309.357 165.86 309.939 167.122 310.497 168.395C311.055 169.67 311.585 170.962 312.024 172.283C312.127 172.596 312.235 172.9 312.289 173.221C312.3 173.278 312.308 173.335 312.319 173.391C312.067 173.747 311.813 174.119 311.764 174.553C311.732 174.839 311.778 175.141 311.794 175.43C311.81 175.718 311.824 176.007 311.813 176.293C311.805 176.535 311.723 176.824 311.818 177.058C311.91 177.288 312.149 177.409 312.392 177.368C312.893 177.285 313.034 176.657 313.134 176.228C313.134 176.228 313.137 176.231 313.139 176.233C313.204 176.311 313.248 176.414 313.294 176.511C313.397 176.735 313.494 176.975 313.673 177.15C313.914 177.382 314.263 177.433 314.561 177.274C314.826 177.131 314.972 176.888 315.07 176.622C315.281 176.729 315.519 176.77 315.752 176.673C315.915 176.603 316.034 176.484 316.101 176.341C316.191 176.341 316.28 176.325 316.361 176.287C316.686 176.136 316.732 175.745 316.681 175.43L316.673 175.424Z" fill="url(#paint3_radial_0_1)"/>
<path d="M313.635 145.876C313.129 142.007 311.382 138.242 308.64 135.443C307.197 133.969 305.491 132.814 303.593 132.003C301.343 131.04 298.868 130.487 296.445 130.169C294.147 129.867 291.805 129.943 289.577 130.614C287.47 131.25 285.523 132.313 283.755 133.61C280.287 136.153 277.61 139.671 275.934 143.611C274.274 147.507 273.703 151.811 274.193 156.009C274.686 160.235 276.185 164.322 278.579 167.852C279.892 169.788 281.424 171.562 283.057 173.234C284.711 174.93 286.43 176.61 288.372 177.983C289.143 178.527 289.956 178.996 290.808 179.398L289.438 181.957L294.147 182.227L292.912 179.552C296.789 177.184 300.065 173.914 303.238 170.681C306.506 167.353 309.441 163.605 311.374 159.342C313.28 155.133 314.244 150.49 313.64 145.881L313.635 145.876Z" fill="#FC8230"/>
<path d="M244.936 103.509C246.727 103.436 248.119 101.901 248.045 100.08C247.971 98.2585 246.458 96.8409 244.667 96.9135C242.875 96.9861 241.483 98.5214 241.558 100.343C241.632 102.164 243.145 103.582 244.936 103.509Z" fill="white"/>
<path d="M247.839 99.6566C247.869 101.374 246.523 102.79 244.834 102.817C243.144 102.844 241.752 101.474 241.723 99.7563C241.693 98.0387 243.038 96.6231 244.728 96.5961C246.417 96.5691 247.809 97.9389 247.839 99.6566Z" fill="#403E3D"/>
<path d="M254.626 103.308C256.417 103.236 257.809 101.701 257.735 99.8797C257.661 98.0585 256.149 96.6406 254.357 96.7129C252.566 96.7852 251.174 98.3202 251.248 100.141C251.322 101.963 252.834 103.381 254.626 103.308Z" fill="white"/>
<path d="M257.515 99.4808C257.545 101.198 256.199 102.614 254.51 102.641C252.82 102.668 251.429 101.298 251.399 99.5806C251.369 97.8629 252.715 96.4473 254.404 96.4203C256.094 96.3933 257.485 97.7631 257.515 99.4808Z" fill="#403E3D"/>
<path d="M248.396 105.618C248.464 106.562 249.073 107.288 249.761 107.239C250.449 107.19 250.952 106.387 250.885 105.443C250.817 104.499 250.208 103.774 249.52 103.823C248.832 103.871 248.329 104.675 248.396 105.618Z" stroke="#403E3D" stroke-width="2" stroke-linecap="round" stroke-linejoin="round"/>
<path d="M290.262 142.986C290.097 144.685 288.61 145.933 286.94 145.772C285.269 145.61 284.048 144.1 284.211 142.401C284.376 140.702 285.862 139.454 287.533 139.616C289.203 139.777 290.424 141.287 290.262 142.986Z" fill="white"/>
<path d="M289.932 142.331C289.777 143.932 288.375 145.108 286.799 144.954C285.223 144.8 284.073 143.379 284.23 141.778C284.384 140.176 285.786 139 287.362 139.154C288.938 139.308 290.089 140.729 289.932 142.331Z" fill="#403E3D"/>
<path d="M299.302 143.82C299.137 145.519 297.65 146.767 295.98 146.606C294.309 146.444 293.088 144.934 293.251 143.235C293.416 141.536 294.902 140.288 296.573 140.45C298.243 140.611 299.464 142.121 299.302 143.82Z" fill="white"/>
<path d="M298.863 143.178C298.709 144.78 297.306 145.956 295.731 145.802C294.155 145.648 293.004 144.227 293.161 142.625C293.316 141.024 294.718 139.848 296.294 140.002C297.87 140.155 299.02 141.577 298.863 143.178Z" fill="#403E3D"/>
<path d="M288.347 147.436C288.347 147.436 290.67 151.901 293.76 147.829" stroke="#403E3D" stroke-width="2" stroke-linecap="round" stroke-linejoin="round"/>
<path d="M271.231 135.605C271.009 135.53 270.952 135.22 271.063 135.015C271.174 134.81 271.396 134.694 271.61 134.602C271.965 134.451 272.336 134.341 272.715 134.27C272.969 134.222 273.259 134.2 273.467 134.351C273.676 134.502 273.695 134.899 273.446 134.982C273.649 134.845 273.966 134.923 274.079 135.141C274.193 135.36 274.079 135.662 273.849 135.751C274.022 135.67 274.247 135.802 274.293 135.985C274.339 136.171 274.226 136.374 274.055 136.463C274.296 136.371 274.534 136.681 274.472 136.932C274.41 137.18 274.174 137.344 273.944 137.463C273.652 137.614 273.34 137.73 273.023 137.822C272.801 137.886 272.555 137.938 272.347 137.838C272.138 137.741 272.024 137.428 272.195 137.274C271.781 137.28 271.445 136.8 271.594 136.414C271.388 136.541 271.098 136.341 271.069 136.104C271.039 135.864 271.196 135.638 271.385 135.489" fill="#FC8230"/>
<path d="M271.299 135.489C271.052 135.373 271.245 135.038 271.396 134.933C271.645 134.758 271.976 134.664 272.265 134.583C272.541 134.505 272.869 134.399 273.159 134.443C273.264 134.459 273.375 134.502 273.413 134.61C273.427 134.647 273.448 134.769 273.394 134.79L273.551 135.16C273.66 135.095 273.827 135.109 273.898 135.227C273.979 135.365 273.879 135.518 273.749 135.578C273.54 135.672 273.689 136.023 273.906 135.947C273.987 135.918 274.079 135.95 274.101 136.042C274.128 136.147 274.036 136.244 273.957 136.29C273.765 136.406 273.89 136.721 274.112 136.656C274.19 136.635 274.244 136.705 274.269 136.772C274.304 136.869 274.261 136.958 274.198 137.034C274.039 137.228 273.754 137.339 273.527 137.43C273.272 137.533 272.988 137.646 272.715 137.676C272.604 137.689 272.468 137.689 272.387 137.603C272.346 137.56 272.303 137.473 272.352 137.425C272.482 137.287 272.387 137.066 272.2 137.061C271.911 137.053 271.718 136.735 271.808 136.473C271.873 136.282 271.645 136.149 271.488 136.228C271.391 136.276 271.293 136.133 271.291 136.052C271.28 135.885 271.429 135.742 271.548 135.642C271.767 135.462 271.453 135.154 271.236 135.332C270.963 135.559 270.749 135.942 270.906 136.295C271.044 136.602 271.402 136.756 271.707 136.6L271.388 136.354C271.207 136.888 271.643 137.471 272.2 137.484L272.049 137.12C271.772 137.419 271.938 137.891 272.295 138.04C272.75 138.226 273.327 137.959 273.743 137.781C274.112 137.622 274.583 137.398 274.672 136.964C274.751 136.581 274.412 136.152 274.003 136.268L274.158 136.635C274.41 136.484 274.577 136.182 274.475 135.891C274.38 135.621 274.066 135.459 273.795 135.556L273.952 135.926C274.282 135.777 274.434 135.338 274.247 135.022C274.06 134.707 273.646 134.629 273.346 134.809C273.159 134.923 273.283 135.27 273.503 135.179C273.871 135.025 273.936 134.548 273.665 134.262C273.324 133.898 272.723 134.052 272.306 134.159C272.054 134.224 271.808 134.308 271.567 134.41C271.35 134.502 271.134 134.612 270.982 134.798C270.727 135.114 270.795 135.586 271.196 135.737C271.339 135.791 271.439 135.556 271.301 135.491L271.299 135.489Z" fill="#FC8230"/>
<path d="M274.713 133.723C274.537 133.729 274.296 133.788 274.209 133.958C274.123 134.128 274.217 134.365 274.307 134.522C274.385 134.656 274.488 134.78 274.61 134.877C274.678 134.931 274.748 134.983 274.827 135.023C274.916 135.069 275.016 135.12 275.122 135.112C275.382 135.096 275.509 134.853 275.509 134.619C275.509 134.411 275.447 134.211 275.36 134.025C275.281 133.858 275.16 133.705 275 133.613C274.905 133.556 274.799 133.527 274.688 133.518C274.529 133.508 274.399 133.594 274.35 133.745C274.282 133.955 274.361 134.198 274.469 134.379C274.572 134.551 274.718 134.697 274.891 134.799C275.065 134.902 275.314 134.729 275.252 134.524C275.143 134.171 274.916 133.829 274.607 133.618C274.461 133.518 274.261 133.551 274.166 133.702C274.093 133.815 274.104 133.974 274.133 134.098C274.185 134.295 274.299 134.5 274.437 134.646C274.502 134.716 274.583 134.778 274.667 134.818C274.786 134.872 274.929 134.921 275.057 134.867C275.214 134.802 275.271 134.64 275.249 134.481C275.235 134.371 275.181 134.271 275.132 134.174C275.089 134.087 275.043 134.001 274.994 133.918C274.943 133.829 274.889 133.734 274.816 133.661C274.629 133.475 274.299 133.462 274.155 133.707C274.028 133.926 274.128 134.182 274.277 134.36C274.399 134.508 274.58 134.605 274.753 134.683C274.864 134.732 275.011 134.718 275.073 134.6C275.127 134.497 275.108 134.336 274.989 134.282C274.938 134.257 274.886 134.233 274.835 134.206C274.81 134.193 274.786 134.176 274.762 134.163C274.751 134.158 274.743 134.149 274.732 134.144C274.724 134.139 274.713 134.131 274.705 134.125L274.726 134.141C274.705 134.128 274.683 134.104 274.664 134.085C274.653 134.074 274.645 134.066 274.634 134.055C274.615 134.034 274.626 134.025 274.634 134.058C274.629 134.036 274.602 134.009 274.591 133.988C274.588 133.98 274.583 133.963 274.577 133.958C274.591 133.988 274.591 133.993 274.583 133.969V133.955C274.583 133.955 274.577 133.945 274.575 133.942C274.569 133.915 274.572 133.923 274.575 133.961V133.931C274.572 133.883 274.567 133.974 274.575 133.945C274.577 133.926 274.594 133.901 274.567 133.955C274.588 133.915 274.537 133.988 274.558 133.966C274.572 133.953 274.521 133.993 274.512 133.993C274.464 134.007 274.477 133.993 274.499 133.996C274.464 133.99 274.458 133.99 274.485 133.996C274.458 133.982 274.45 133.98 274.466 133.988C274.502 134.012 274.48 133.982 274.466 133.988C274.466 133.988 274.488 134.009 274.491 134.015C274.531 134.055 274.469 133.974 274.499 134.025C274.504 134.036 274.512 134.047 274.518 134.058C274.556 134.12 274.591 134.182 274.626 134.244C274.659 134.3 274.688 134.36 274.716 134.419C274.729 134.449 274.751 134.481 274.759 134.513C274.745 134.465 274.753 134.497 274.759 134.508C274.759 134.516 274.778 134.586 274.772 134.549V134.535C274.772 134.562 274.772 134.559 274.772 134.524L274.786 134.497L274.932 134.408C274.992 134.406 274.951 134.408 274.929 134.406C274.924 134.406 274.894 134.395 274.894 134.395C274.894 134.395 274.94 134.416 274.894 134.395C274.881 134.387 274.867 134.381 274.854 134.373C274.848 134.371 274.827 134.36 274.824 134.352C274.848 134.371 274.851 134.373 274.829 134.357C274.821 134.352 274.816 134.346 274.808 134.338C274.786 134.319 274.77 134.298 274.751 134.276C274.71 134.23 274.775 134.317 274.743 134.265C274.737 134.255 274.729 134.244 274.721 134.233C274.686 134.176 274.656 134.117 274.629 134.055C274.613 134.02 274.648 134.109 274.629 134.047C274.623 134.034 274.618 134.02 274.615 134.009C274.61 133.99 274.605 133.969 274.599 133.95C274.594 133.926 274.583 133.928 274.599 133.955C274.599 133.955 274.599 133.888 274.599 133.928V133.942C274.626 133.834 274.54 133.864 274.336 134.028C274.385 134.052 274.309 134.001 274.336 134.025C274.353 134.039 274.369 134.052 274.385 134.066C274.434 134.109 274.483 134.155 274.526 134.206C274.534 134.214 274.542 134.225 274.55 134.233C274.556 134.238 274.596 134.295 274.577 134.265C274.556 134.233 274.588 134.282 274.591 134.284C274.602 134.298 274.613 134.314 274.621 134.327C274.656 134.381 274.691 134.441 274.718 134.497C274.726 134.513 274.734 134.53 274.74 134.546C274.762 134.592 274.724 134.503 274.743 134.554C274.756 134.586 274.767 134.621 274.778 134.656L275.138 134.381C275.114 134.368 275.089 134.352 275.065 134.336C275.03 134.311 275.065 134.338 275.073 134.344C275.062 134.336 275.051 134.325 275.04 134.317C275.021 134.3 275.003 134.282 274.984 134.263C274.975 134.255 274.967 134.247 274.959 134.238C274.954 134.233 274.908 134.182 274.932 134.209C274.956 134.236 274.921 134.195 274.919 134.193C274.913 134.182 274.905 134.174 274.9 134.163C274.883 134.139 274.87 134.114 274.856 134.087C274.851 134.077 274.845 134.066 274.84 134.055C274.821 134.015 274.84 134.06 274.843 134.066C274.827 134.039 274.818 133.998 274.81 133.969C274.808 133.955 274.799 133.936 274.799 133.92C274.799 133.974 274.799 133.936 274.799 133.926C274.799 133.926 274.799 133.861 274.799 133.899C274.799 133.939 274.805 133.872 274.808 133.874L274.729 133.934C274.637 133.977 274.618 133.998 274.669 133.993H274.688C274.659 133.988 274.653 133.988 274.672 133.993C274.688 133.996 274.702 133.998 274.718 134.004L274.737 134.009C274.762 134.017 274.762 134.017 274.732 134.007C274.753 134.007 274.778 134.034 274.797 134.044C274.848 134.074 274.767 134.012 274.808 134.052C274.816 134.06 274.827 134.069 274.835 134.077C274.843 134.085 274.851 134.096 274.859 134.104C274.859 134.104 274.897 134.152 274.875 134.122C274.854 134.093 274.889 134.144 274.889 134.144C274.9 134.16 274.908 134.176 274.919 134.193C274.932 134.217 274.946 134.241 274.956 134.265C274.962 134.279 274.97 134.292 274.975 134.309C274.973 134.3 274.959 134.265 274.975 134.309C275 134.373 275.021 134.441 275.035 134.508C275.035 134.508 275.046 134.573 275.04 134.54C275.035 134.508 275.04 134.573 275.04 134.573C275.04 134.6 275.043 134.627 275.04 134.654C275.04 134.656 275.03 134.713 275.04 134.681C275.049 134.646 275.032 134.705 275.032 134.705C275.043 134.667 275.04 134.686 275.032 134.7C275.054 134.675 275.054 134.673 275.038 134.689L275.059 134.673C275.027 134.697 275.073 134.667 275.086 134.664C275.097 134.664 275.154 134.67 275.108 134.662C275.1 134.662 275.062 134.648 275.114 134.664C275.1 134.659 275.086 134.654 275.076 134.646C275.024 134.621 274.975 134.592 274.929 134.562C274.91 134.549 274.883 134.535 274.867 134.519C274.897 134.551 274.883 134.53 274.873 134.522C274.862 134.513 274.851 134.503 274.84 134.495C274.797 134.457 274.759 134.416 274.721 134.373C274.713 134.365 274.691 134.333 274.718 134.373C274.707 134.36 274.699 134.346 274.688 134.333C274.672 134.309 274.656 134.287 274.642 134.263C274.623 134.233 274.607 134.203 274.594 134.174C274.588 134.163 274.583 134.155 274.58 134.144C274.556 134.096 274.594 134.187 274.572 134.128C274.567 134.114 274.561 134.101 274.561 134.09C274.561 134.109 274.561 134.106 274.561 134.082C274.561 134.09 274.561 134.098 274.561 134.104C274.564 134.112 274.534 134.136 274.561 134.106C274.575 134.093 274.588 134.082 274.602 134.069C274.632 134.042 274.691 134.004 274.743 133.985C274.805 133.963 274.845 133.909 274.837 133.842C274.829 133.78 274.775 133.726 274.707 133.729L274.713 133.723Z" fill="#FC8230"/>
</g>
<g filter="url(#filter0_d_0_1)">
<rect x="7" y="5" width="191" height="60" rx="15" fill="white"/>
<path d="M180.358 74.8997C181.662 75.6786 183.324 74.7774 183.383 73.2599L184.213 51.7397C184.273 50.1907 182.624 49.1655 181.261 49.9044L161.943 60.3792C160.58 61.118 160.54 63.0592 161.87 63.8543L180.358 74.8997Z" fill="white"/>
<path d="M53.656 32.824C53.7307 32.76 53.8213 32.7813 53.928 32.888C54.0453 32.9947 54.1253 33.1173 54.168 33.256C54.2213 33.3947 54.2267 33.5067 54.184 33.592C54.1093 33.656 53.592 33.6987 52.632 33.72C52.0667 33.72 51.6667 33.736 51.432 33.768C51.1973 33.8 51.0107 33.864 50.872 33.96C50.776 34.0133 50.712 34.056 50.68 34.088C50.648 34.12 50.616 34.1947 50.584 34.312C50.552 34.4187 50.536 34.5413 50.536 34.68C50.536 34.808 50.536 35.032 50.536 35.352C50.536 36.1413 50.568 36.5627 50.632 36.616C50.696 36.648 50.9787 36.6693 51.48 36.68C52.0347 36.68 52.728 36.616 53.56 36.488C53.8587 36.4347 54.0667 36.4773 54.184 36.616C54.4507 36.9467 54.2213 37.1867 53.496 37.336C53.4107 37.3573 53.32 37.3733 53.224 37.384C52.68 37.4693 52.0507 37.5333 51.336 37.576C50.632 37.6187 50.2373 37.6187 50.152 37.576C50.0453 37.5013 49.9333 37.192 49.816 36.648C49.6987 36.0933 49.64 35.608 49.64 35.192C49.64 34.648 49.5973 34.3067 49.512 34.168C49.4267 33.9867 49.5013 33.8053 49.736 33.624C49.9707 33.4427 50.328 33.2933 50.808 33.176C51.288 33.048 51.8213 32.968 52.408 32.936C53.2187 32.8933 53.6347 32.856 53.656 32.824ZM54.024 39.768C54.0773 39.704 54.1947 39.6827 54.376 39.704C54.568 39.7253 54.696 39.768 54.76 39.832C54.8667 39.9387 54.888 40.072 54.824 40.232C54.7707 40.3813 54.664 40.4827 54.504 40.536C54.344 40.5893 53.8747 40.6107 53.096 40.6C52.4027 40.5893 51.6613 40.616 50.872 40.68C50.5627 40.7013 50.28 40.712 50.024 40.712C49.7787 40.712 49.6293 40.696 49.576 40.664C49.4693 40.6 49.4107 40.4933 49.4 40.344C49.3893 40.184 49.4427 40.0613 49.56 39.976C49.6453 39.9013 50.4027 39.8533 51.832 39.832C53.272 39.8213 54.0027 39.8 54.024 39.768ZM61.8416 33.88C61.895 33.7307 62.0283 33.6667 62.2416 33.688L62.5936 33.736L62.5296 36.488C62.5296 36.8933 62.5243 37.3787 62.5136 37.944C62.503 38.5093 62.4923 38.968 62.4816 39.32C62.471 39.6613 62.4656 39.8907 62.4656 40.008V40.76L62.0336 40.792L61.6016 40.84L61.6976 37.464C61.751 35.2773 61.799 34.0827 61.8416 33.88ZM57.7136 33.88C57.735 33.8587 58.039 33.8427 58.6256 33.832C58.807 33.8213 58.9563 33.816 59.0736 33.816C59.191 33.816 59.287 33.8267 59.3616 33.848C59.4363 33.8587 59.4896 33.88 59.5216 33.912C59.5643 33.9333 59.5963 33.9707 59.6176 34.024C59.703 34.184 59.6923 34.3333 59.5856 34.472C59.511 34.568 59.399 34.632 59.2496 34.664C59.111 34.6853 58.8336 34.6907 58.4176 34.68C57.735 34.6693 57.2176 34.7333 56.8656 34.872L56.3216 35.08L56.4016 36.424C56.4016 36.4773 56.407 36.5627 56.4176 36.68C56.4283 36.9893 56.4336 37.208 56.4336 37.336C56.4443 37.464 56.471 37.608 56.5136 37.768C56.5563 37.9173 56.5883 38.008 56.6096 38.04C56.6416 38.072 56.7163 38.1093 56.8336 38.152C56.951 38.184 57.0576 38.1947 57.1536 38.184C57.2603 38.1733 57.4363 38.1627 57.6816 38.152C57.7563 38.1413 57.8203 38.136 57.8736 38.136C58.5456 38.0933 59.1163 38.04 59.5856 37.976C59.8523 37.944 60.0176 37.944 60.0816 37.976C60.1456 37.9973 60.2096 38.088 60.2736 38.248C60.3696 38.4933 60.359 38.6747 60.2416 38.792C60.1243 38.8987 59.8843 38.9413 59.5216 38.92C59.1376 38.9093 58.4923 38.9573 57.5856 39.064C56.999 39.128 56.6096 39.16 56.4176 39.16C56.2363 39.16 56.1083 39.1227 56.0336 39.048C55.8523 38.8667 55.703 38.1147 55.5856 36.792C55.4683 35.4693 55.4843 34.7067 55.6336 34.504C55.751 34.3653 56.119 34.2267 56.7376 34.088C57.335 33.9707 57.6603 33.9013 57.7136 33.88ZM65.3163 33.96C65.4763 33.9067 65.6149 33.8907 65.7323 33.912C65.8603 33.9333 66.0576 34.0027 66.3243 34.12C66.7296 34.312 67.0443 34.5147 67.2683 34.728C67.5029 34.9413 67.6629 35.2027 67.7483 35.512C67.8443 35.8213 67.8923 36.232 67.8923 36.744C67.8923 37.4053 67.6949 37.96 67.3003 38.408C66.9056 38.8453 66.4149 39.0693 65.8283 39.08C65.4443 39.08 65.0176 38.9627 64.5483 38.728C64.0896 38.4827 63.7643 38.2053 63.5723 37.896C63.3589 37.5653 63.2469 37.2027 63.2363 36.808C63.2256 36.4027 63.3003 36.0133 63.4603 35.64C63.6203 35.2667 63.8656 34.9307 64.1963 34.632C64.5269 34.3227 64.9003 34.0987 65.3163 33.96ZM66.6123 35.16C66.3669 34.968 66.1216 34.8507 65.8763 34.808C65.6309 34.7547 65.4229 34.7813 65.2523 34.888C64.7403 35.208 64.3829 35.5867 64.1803 36.024C63.9883 36.4613 63.9936 36.856 64.1963 37.208C64.4203 37.5707 64.7456 37.8533 65.1723 38.056C65.5989 38.2587 65.9456 38.2907 66.2123 38.152C66.3936 38.0453 66.5536 37.928 66.6923 37.8C66.8416 37.672 66.9536 37.5333 67.0283 37.384C67.1029 37.2347 67.1403 37.0907 67.1403 36.952C67.1403 36.5253 67.0869 36.1467 66.9803 35.816C66.8843 35.4853 66.7616 35.2667 66.6123 35.16ZM70.2123 34.744C70.2656 34.5307 70.3936 34.424 70.5963 34.424C70.8096 34.424 70.9429 34.4773 70.9963 34.584C71.0709 34.7227 71.0763 35.368 71.0123 36.52C70.9589 37.64 70.9216 38.5893 70.9003 39.368C70.8896 39.848 70.8683 40.1573 70.8363 40.296C70.8043 40.4347 70.7403 40.5307 70.6443 40.584C70.4736 40.68 70.3243 40.7013 70.1963 40.648C70.1109 40.616 70.0629 40.4987 70.0523 40.296C70.0416 40.0827 70.0523 39.6133 70.0843 38.888C70.1269 38.056 70.1429 37.5653 70.1323 37.416C70.1216 37.256 70.0523 37.176 69.9243 37.176C69.7643 37.176 69.5616 37.224 69.3163 37.32C69.0709 37.416 68.8149 37.4373 68.5483 37.384C68.2816 37.32 68.1483 37.2133 68.1483 37.064C68.1483 36.9573 68.1963 36.8613 68.2923 36.776C68.3883 36.68 68.5269 36.6 68.7083 36.536C68.9003 36.472 69.1243 36.424 69.3803 36.392C69.8069 36.3493 70.0683 36.3013 70.1643 36.248C70.2496 36.1947 70.2603 35.9813 70.1963 35.608C70.1536 35.224 70.1589 34.936 70.2123 34.744ZM140.069 34.152C140.176 34.0453 140.309 34.0027 140.469 34.024C140.64 34.0347 140.752 34.104 140.805 34.232C140.848 34.3387 140.832 34.7653 140.757 35.512C140.469 38.0933 140.357 39.512 140.421 39.768C140.464 39.9387 140.427 40.0773 140.309 40.184C140.203 40.2907 140.043 40.328 139.829 40.296C139.691 40.2747 139.611 40.216 139.589 40.12C139.568 40.0133 139.568 39.6933 139.589 39.16C139.6 38.5093 139.573 38.1573 139.509 38.104C139.488 38.072 139.419 38.056 139.301 38.056C139.109 38.056 138.853 38.1253 138.533 38.264C138.224 38.392 137.968 38.4293 137.765 38.376C137.573 38.3227 137.477 38.1893 137.477 37.976C137.477 37.8587 137.509 37.768 137.573 37.704C137.637 37.6293 137.755 37.5547 137.925 37.48C138.235 37.3627 138.475 37.304 138.645 37.304C138.944 37.304 139.195 37.2507 139.397 37.144C139.611 37.0267 139.733 36.8827 139.765 36.712C139.819 36.456 139.792 36.3013 139.685 36.248C139.579 36.184 139.344 36.2 138.981 36.296C138.192 36.4987 137.792 36.4453 137.781 36.136C137.781 36.104 137.787 36.0667 137.797 36.024C137.861 35.8 137.973 35.6453 138.133 35.56C138.304 35.464 138.56 35.416 138.901 35.416C139.328 35.416 139.621 35.368 139.781 35.272C139.941 35.176 140 35.0053 139.957 34.76C139.893 34.504 139.931 34.3013 140.069 34.152ZM142.181 34.072C142.235 33.976 142.315 33.928 142.421 33.928C142.539 33.928 142.645 33.976 142.741 34.072C142.912 34.2427 142.901 35.3413 142.709 37.368C142.592 38.5733 142.56 39.3147 142.613 39.592C142.635 39.8053 142.624 39.9493 142.581 40.024C142.549 40.088 142.459 40.1467 142.309 40.2C142.085 40.2853 141.936 40.3013 141.861 40.248C141.787 40.1947 141.749 39.88 141.749 39.304C141.76 38.7173 141.803 38.0987 141.877 37.448C141.963 36.8187 142.021 36.104 142.053 35.304C142.085 34.5573 142.128 34.1467 142.181 34.072ZM134.469 34.312C134.779 34.248 135.072 34.248 135.349 34.312C135.659 34.3867 135.829 34.424 135.861 34.424C135.915 34.424 136.096 34.552 136.405 34.808L136.837 35.192V36.424C136.837 37.0107 136.821 37.384 136.789 37.544C136.757 37.704 136.645 37.9067 136.453 38.152C136.059 38.7067 135.552 38.9413 134.933 38.856C134.624 38.8133 134.283 38.696 133.909 38.504C133.536 38.3013 133.232 38.0827 132.997 37.848C132.784 37.6347 132.656 37.4747 132.613 37.368C132.581 37.2507 132.576 37.016 132.597 36.664C132.629 36.3013 132.731 35.9493 132.901 35.608C133.072 35.2667 133.296 34.984 133.573 34.76C133.851 34.5253 134.149 34.376 134.469 34.312ZM135.717 35.224C135.461 35.096 135.227 35.0427 135.013 35.064C134.811 35.0853 134.533 35.1813 134.181 35.352C133.744 35.576 133.477 35.864 133.381 36.216C133.296 36.568 133.387 36.904 133.653 37.224C133.92 37.5333 134.325 37.7627 134.869 37.912C135.061 37.9547 135.2 37.9707 135.285 37.96C135.381 37.9493 135.477 37.9013 135.573 37.816C135.915 37.528 136.085 36.984 136.085 36.184C136.085 35.8213 136.069 35.5973 136.037 35.512C136.005 35.416 135.899 35.32 135.717 35.224ZM145.051 32.12C145.435 31.9813 145.803 31.9387 146.155 31.992C146.518 32.0347 146.854 32.1787 147.163 32.424C147.483 32.6693 147.745 33 147.947 33.416C148.15 33.8107 148.246 34.1787 148.235 34.52C148.235 34.8613 148.129 35.24 147.915 35.656C147.745 35.9973 147.542 36.2533 147.307 36.424C147.073 36.584 146.774 36.6907 146.411 36.744C145.803 36.8293 145.227 36.712 144.683 36.392C144.139 36.072 143.793 35.6613 143.643 35.16C143.43 34.4773 143.451 33.8693 143.707 33.336C143.963 32.8027 144.411 32.3973 145.051 32.12ZM146.347 32.776C146.241 32.776 146.123 32.7547 145.995 32.712C145.803 32.648 145.499 32.7653 145.083 33.064C144.667 33.3627 144.417 33.6507 144.331 33.928C144.299 34.0347 144.294 34.1627 144.315 34.312C144.337 34.4507 144.374 34.5947 144.427 34.744C144.481 34.8827 144.55 35.0213 144.635 35.16C144.731 35.2987 144.833 35.416 144.939 35.512C145.345 35.8747 145.755 36.04 146.171 36.008C146.587 35.976 146.918 35.7573 147.163 35.352C147.558 34.712 147.494 34.0453 146.971 33.352C146.662 32.968 146.454 32.776 146.347 32.776ZM147.019 37.752C147.105 37.5493 147.211 37.448 147.339 37.448C147.478 37.4373 147.595 37.5387 147.691 37.752C147.777 37.9547 147.766 38.3067 147.659 38.808C147.553 39.288 147.531 39.5813 147.595 39.688C147.649 39.784 147.969 39.832 148.555 39.832C148.961 39.832 149.211 39.848 149.307 39.88C149.414 39.9013 149.494 39.976 149.547 40.104C149.622 40.328 149.595 40.4827 149.467 40.568C149.35 40.6533 149.083 40.6907 148.667 40.68C148.337 40.6693 147.926 40.6907 147.435 40.744C146.955 40.7867 146.614 40.8347 146.411 40.888C146.315 40.92 146.07 40.968 145.675 41.032C145.291 41.1067 144.913 41.176 144.539 41.24C144.166 41.304 143.942 41.336 143.867 41.336C143.739 41.336 143.643 41.2507 143.579 41.08C143.515 40.9093 143.531 40.7653 143.627 40.648C143.713 40.5413 143.921 40.4613 144.251 40.408L144.715 40.344V39.32C144.726 38.7547 144.769 38.3973 144.843 38.248C144.918 38.088 145.078 38.04 145.323 38.104C145.473 38.1467 145.558 38.216 145.579 38.312C145.611 38.3973 145.622 38.664 145.611 39.112L145.579 40.008L146.203 40.056C146.598 40.0773 146.795 40.056 146.795 39.992C146.795 39.704 146.806 39.4 146.827 39.08C146.859 38.76 146.891 38.4827 146.923 38.248C146.966 38.0133 146.998 37.848 147.019 37.752ZM151.414 32.968C151.468 32.9147 151.548 32.8933 151.654 32.904C151.761 32.9147 151.852 32.9573 151.926 33.032C151.98 33.0853 152.012 33.1547 152.022 33.24C152.033 33.3147 152.033 33.496 152.022 33.784C152.001 34.1893 151.953 34.6373 151.878 35.128C151.804 35.6187 151.734 35.9227 151.67 36.04C151.617 36.1467 151.596 36.3173 151.606 36.552C151.628 36.776 151.676 36.9947 151.75 37.208C151.825 37.432 151.852 37.608 151.83 37.736C151.809 37.864 151.734 37.992 151.606 38.12C151.489 38.2373 151.372 38.3013 151.254 38.312C151.148 38.312 151.062 38.264 150.998 38.168C150.934 38.072 150.897 37.6667 150.886 36.952C150.876 36.2267 150.902 35.7893 150.966 35.64C151.009 35.5333 151.052 35.336 151.094 35.048C151.158 34.6427 151.201 34.3707 151.222 34.232C151.265 33.912 151.297 33.6507 151.318 33.448C151.34 33.192 151.372 33.032 151.414 32.968ZM150.566 40.456C150.694 40.3813 150.849 40.392 151.03 40.488C151.233 40.5947 151.334 40.7813 151.334 41.048C151.334 41.304 151.233 41.48 151.03 41.576C150.838 41.6827 150.636 41.6667 150.422 41.528C150.284 41.4533 150.214 41.3413 150.214 41.192C150.214 41.0853 150.252 40.9467 150.326 40.776C150.412 40.6053 150.492 40.4987 150.566 40.456Z" fill="#999999"/>
<path d="M83.4421 33.704C83.5488 33.5867 83.6875 33.5387 83.8581 33.56C83.9861 33.5813 84.0608 33.672 84.0821 33.832C84.1035 33.9813 84.1035 34.4347 84.0821 35.192L84.0501 36.792L84.7701 36.728C85.2715 36.6853 85.5915 36.648 85.7301 36.616C85.9008 36.584 86.1035 36.616 86.3381 36.712C86.5728 36.808 86.7115 36.9093 86.7541 37.016C86.8075 37.1653 86.7861 37.272 86.6901 37.336C86.6048 37.4 86.4395 37.4427 86.1941 37.464C85.9061 37.464 85.4581 37.5067 84.8501 37.592L83.9381 37.72V38.904C83.9381 39.6827 83.9435 40.0827 83.9541 40.104C83.9968 40.168 83.9435 40.2853 83.7941 40.456C83.6448 40.616 83.5221 40.696 83.4261 40.696C83.2341 40.696 83.1115 40.5947 83.0581 40.392C83.0048 40.1787 83.0101 39.8 83.0741 39.256C83.1381 38.6373 83.1968 37.576 83.2501 36.072C83.2821 34.632 83.3461 33.8427 83.4421 33.704ZM79.0901 34.312C79.4421 34.2587 79.8155 34.216 80.2101 34.184C80.3595 34.184 80.5141 34.264 80.6741 34.424C80.8021 34.552 80.8715 34.68 80.8821 34.808C80.9035 34.9253 80.8981 35.1867 80.8661 35.592C80.8661 35.656 80.8448 35.9387 80.8021 36.44C80.7595 36.9413 80.7328 37.2987 80.7221 37.512C80.6581 38.1947 80.5995 38.5893 80.5461 38.696C80.4715 38.8027 80.1461 38.872 79.5701 38.904C78.9408 38.936 78.3115 38.9733 77.6821 39.016L76.6581 39.08L76.5141 38.344C76.4288 37.928 76.3701 37.2667 76.3381 36.36C76.3168 35.4533 76.3435 34.9147 76.4181 34.744C76.4608 34.648 76.4981 34.5947 76.5301 34.584C76.5621 34.5733 76.6155 34.6 76.6901 34.664C76.8288 34.7707 77.1168 34.7493 77.5541 34.6C78.0021 34.4613 78.5141 34.3653 79.0901 34.312ZM80.0661 35.176C80.0448 35.1013 79.9755 35.0693 79.8581 35.08C79.7408 35.08 79.3728 35.1333 78.7541 35.24C78.7115 35.2507 78.6475 35.2613 78.5621 35.272C78.2741 35.3253 78.0715 35.3627 77.9541 35.384C77.8475 35.4053 77.7195 35.448 77.5701 35.512C77.4315 35.5653 77.3461 35.608 77.3141 35.64C77.2821 35.6613 77.2448 35.736 77.2021 35.864C77.1595 35.992 77.1381 36.0987 77.1381 36.184C77.1381 36.2693 77.1381 36.4293 77.1381 36.664C77.1381 36.7173 77.1381 36.76 77.1381 36.792C77.1381 37.5387 77.1915 37.944 77.2981 38.008C77.3941 38.072 77.8208 38.0933 78.5781 38.072C79.3355 38.0507 79.7461 38.008 79.8101 37.944C79.8421 37.912 79.8848 37.688 79.9381 37.272C79.9915 36.8453 80.0288 36.408 80.0501 35.96C80.0821 35.512 80.0875 35.2507 80.0661 35.176ZM91.2361 34.104C91.6521 33.9973 91.9081 33.9653 92.0041 34.008C92.1535 34.0933 92.1375 34.3653 91.9561 34.824C91.7748 35.2827 91.4975 35.7627 91.1241 36.264L90.8041 36.68L91.2361 37.128C91.5455 37.416 91.8015 37.5973 92.0041 37.672C92.0788 37.704 92.1695 37.7787 92.2761 37.896C92.3828 38.0027 92.4628 38.12 92.5161 38.248C92.6441 38.4613 92.7081 38.6 92.7081 38.664C92.7081 38.728 92.6548 38.8027 92.5481 38.888C92.3775 39.0053 92.2068 39.0213 92.0361 38.936C91.8655 38.8507 91.5508 38.584 91.0921 38.136L90.3081 37.368L89.9881 37.752C89.7961 37.9867 89.6148 38.2853 89.4441 38.648C89.4015 38.7547 89.3481 38.8507 89.2841 38.936C89.2201 39.0213 89.1561 39.096 89.0921 39.16C89.0388 39.2133 88.9908 39.2453 88.9481 39.256C88.7988 39.2987 88.6548 39.2827 88.5161 39.208C88.3775 39.1227 88.3081 39.0213 88.3081 38.904C88.3081 38.8293 88.6388 38.3333 89.3001 37.416C89.9721 36.488 90.3561 35.9867 90.4521 35.912C90.5268 35.8693 90.6228 35.7253 90.7401 35.48C90.8575 35.2347 90.9055 35.0853 90.8841 35.032C90.8521 34.9787 90.5588 35.0053 90.0041 35.112C89.4601 35.208 89.0548 35.304 88.7881 35.4C88.5321 35.496 88.2388 35.544 87.9081 35.544C87.7161 35.544 87.5881 35.528 87.5241 35.496C87.4601 35.464 87.4281 35.3947 87.4281 35.288C87.4281 35.128 87.5241 34.9893 87.7161 34.872C87.8548 34.776 88.3455 34.632 89.1881 34.44C90.0308 34.2373 90.4788 34.1573 90.5321 34.2C90.5641 34.2427 90.7988 34.2107 91.2361 34.104ZM94.4041 34.072C94.4681 33.9547 94.6068 33.912 94.8201 33.944C94.9161 33.9547 94.9801 33.9653 95.0121 33.976C95.0548 33.9867 95.0868 34.0187 95.1081 34.072C95.1401 34.1147 95.1508 34.1787 95.1401 34.264C95.1401 34.3387 95.1401 34.4507 95.1401 34.6C95.1295 34.8133 95.1081 35.9013 95.0761 37.864C95.0761 37.864 95.0761 37.8693 95.0761 37.88C95.0548 39.1707 95.0281 39.9333 94.9961 40.168C94.9748 40.4027 94.8948 40.5467 94.7561 40.6C94.6281 40.6427 94.5268 40.6427 94.4521 40.6C94.3881 40.5467 94.3348 40.408 94.2921 40.184C94.2495 39.9493 94.2281 39.592 94.2281 39.112C94.2388 38.632 94.2441 37.992 94.2441 37.192C94.2761 35.208 94.3295 34.168 94.4041 34.072ZM102.808 32.52C102.882 32.4133 103.01 32.376 103.192 32.408C103.384 32.4293 103.496 32.4987 103.528 32.616C103.549 32.744 103.517 33.1547 103.432 33.848C103.325 34.5093 103.298 34.872 103.352 34.936C103.416 34.9893 103.666 34.9787 104.104 34.904C104.53 34.8293 104.808 34.8187 104.936 34.872C105.074 34.9147 105.144 35.0533 105.144 35.288C105.144 35.384 105.138 35.4533 105.128 35.496C105.128 35.5387 105.106 35.576 105.064 35.608C105.021 35.64 104.973 35.6613 104.92 35.672C104.866 35.672 104.781 35.672 104.664 35.672C104.354 35.672 104.029 35.7307 103.688 35.848L103.192 35.992L103.128 37.128C103.096 37.64 103.064 37.9547 103.032 38.072C103 38.1893 102.92 38.2587 102.792 38.28C102.61 38.312 102.45 38.2587 102.312 38.12C102.184 37.9707 102.136 37.7893 102.168 37.576C102.189 37.4587 102.221 37.208 102.264 36.824C102.317 36.4293 102.37 36.008 102.424 35.56C102.488 35.112 102.541 34.6747 102.584 34.248C102.626 33.8213 102.658 33.512 102.68 33.32C102.701 32.8827 102.744 32.616 102.808 32.52ZM97.5918 32.952C97.9758 32.8453 98.5091 32.792 99.1918 32.792L100.232 32.776V34.744C100.232 36.0667 100.184 36.8027 100.088 36.952C99.9918 37.144 99.7838 37.2773 99.4638 37.352C99.1544 37.416 98.5624 37.464 97.6878 37.496C97.0691 37.5173 96.6371 37.5227 96.3918 37.512C96.1571 37.4907 96.0291 37.4533 96.0078 37.4C95.9758 37.3253 95.9384 36.9947 95.8958 36.408C95.8531 35.8107 95.8211 35.2667 95.7998 34.776C95.7784 34.2747 95.7784 33.9547 95.7998 33.816C95.8318 33.7307 96.0344 33.592 96.4078 33.4C96.7918 33.208 97.1864 33.0587 97.5918 32.952ZM99.4318 33.672H98.8558C98.5358 33.6827 98.2798 33.7093 98.0878 33.752C97.9064 33.784 97.6078 33.864 97.1918 33.992L96.5838 34.2V35.288C96.5838 35.5653 96.5838 35.7733 96.5838 35.912C96.5838 36.04 96.6051 36.1733 96.6478 36.312C96.6904 36.44 96.7278 36.52 96.7598 36.552C96.8024 36.584 96.8931 36.616 97.0318 36.648C97.1811 36.68 97.3198 36.6907 97.4478 36.68C97.5758 36.6693 97.7838 36.6533 98.0718 36.632C98.7758 36.5787 99.1758 36.5093 99.2718 36.424C99.3571 36.3493 99.4051 35.8693 99.4158 34.984L99.4318 33.672ZM101.464 38.776C101.528 38.6907 101.714 38.664 102.024 38.696C102.344 38.7173 102.53 38.7707 102.584 38.856C102.669 38.952 102.738 39.5387 102.792 40.616L102.856 42.232L102.552 42.36C102.413 42.4027 102.301 42.4293 102.216 42.44C102.141 42.4507 102.082 42.3973 102.04 42.28C101.997 42.1627 101.97 42.0027 101.96 41.8C101.949 41.608 101.949 41.32 101.96 40.936C101.981 40.4347 101.981 40.0987 101.96 39.928C101.938 39.7573 101.89 39.656 101.816 39.624C101.677 39.5707 101.25 39.64 100.536 39.832C99.8211 40.0133 99.3998 40.0773 99.2718 40.024C99.1438 39.9707 99.0851 39.8427 99.0958 39.64C99.1171 39.4267 99.1918 39.2827 99.3198 39.208C99.4904 39.1227 99.8744 39.0427 100.472 38.968C101.09 38.8827 101.421 38.8187 101.464 38.776ZM113.121 32.584C113.75 32.4987 114.177 32.44 114.401 32.408C114.54 32.408 114.657 32.472 114.753 32.6C114.86 32.7173 114.897 32.8453 114.865 32.984C114.854 33.08 114.769 33.1493 114.609 33.192C114.46 33.224 114.134 33.2613 113.633 33.304C112.865 33.368 112.294 33.4587 111.921 33.576C111.9 33.5867 111.868 33.5973 111.825 33.608C111.676 33.6613 111.58 33.7093 111.537 33.752C111.505 33.7947 111.478 33.9173 111.457 34.12C111.436 34.3227 111.441 34.6267 111.473 35.032C111.473 35.1813 111.473 35.2987 111.473 35.384L111.505 36.216L112.929 36.152C113.206 36.1307 113.43 36.12 113.601 36.12C113.782 36.12 113.942 36.1253 114.081 36.136C114.23 36.136 114.337 36.152 114.401 36.184C114.476 36.2053 114.534 36.2373 114.577 36.28C114.63 36.3227 114.652 36.376 114.641 36.44C114.63 36.504 114.614 36.5787 114.593 36.664C114.561 36.76 114.476 36.8293 114.337 36.872C114.209 36.904 113.942 36.936 113.537 36.968C112.63 37.0533 112.097 37.1067 111.937 37.128C111.788 37.1493 111.665 37.16 111.569 37.16C111.484 37.16 111.393 37.1547 111.297 37.144C111.212 37.1333 111.142 37.1013 111.089 37.048C111.046 36.984 111.004 36.92 110.961 36.856C110.918 36.792 110.881 36.696 110.849 36.568C110.817 36.4293 110.79 36.2853 110.769 36.136C110.748 35.976 110.721 35.7733 110.689 35.528C110.582 34.632 110.497 34.1093 110.433 33.96C110.369 33.768 110.438 33.5653 110.641 33.352C110.844 33.1387 111.121 32.9893 111.473 32.904C111.857 32.7973 112.406 32.6907 113.121 32.584ZM116.737 32.552C116.769 32.456 116.86 32.408 117.009 32.408C117.233 32.408 117.377 32.504 117.441 32.696C117.505 32.888 117.51 33.272 117.457 33.848L117.377 34.92H117.777C118.033 34.92 118.236 34.872 118.385 34.776C118.566 34.6693 118.764 34.6693 118.977 34.776C119.19 34.8827 119.297 35.032 119.297 35.224C119.297 35.3093 119.281 35.3733 119.249 35.416C119.228 35.4587 119.174 35.496 119.089 35.528C119.014 35.5493 118.892 35.576 118.721 35.608C118.294 35.6507 117.953 35.7253 117.697 35.832L117.281 35.96V37.016C117.281 37.5173 117.265 37.8213 117.233 37.928C117.212 38.024 117.132 38.0933 116.993 38.136C116.705 38.2 116.534 38.1573 116.481 38.008C116.428 37.8587 116.422 37.432 116.465 36.728C116.476 36.5253 116.497 36.0987 116.529 35.448C116.572 34.7973 116.598 34.3387 116.609 34.072C116.652 33.144 116.694 32.6373 116.737 32.552ZM113.137 39.064C113.233 38.8933 113.372 38.824 113.553 38.856C113.628 38.8667 113.681 38.8827 113.713 38.904C113.745 38.9147 113.772 38.9627 113.793 39.048C113.814 39.1333 113.825 39.2347 113.825 39.352C113.825 39.4587 113.825 39.6453 113.825 39.912C113.825 40.5093 113.868 40.8827 113.953 41.032C114.038 41.1813 114.214 41.2027 114.481 41.096C114.716 40.9893 114.918 40.9467 115.089 40.968C115.281 40.968 115.681 40.9093 116.289 40.792C116.78 40.696 117.11 40.6693 117.281 40.712C117.452 40.744 117.537 40.8613 117.537 41.064C117.537 41.416 117.297 41.592 116.817 41.592C116.582 41.592 116.001 41.6773 115.073 41.848C114.305 42.008 113.798 42.0613 113.553 42.008C113.318 41.9653 113.158 41.784 113.073 41.464C113.009 41.1333 112.982 40.6853 112.993 40.12C113.014 39.5547 113.062 39.2027 113.137 39.064ZM129 33.512C129.086 33.4587 129.182 33.4587 129.288 33.512C129.395 33.5653 129.475 33.6507 129.528 33.768C129.582 33.928 129.566 34.248 129.48 34.728C129.128 36.7333 128.947 38.248 128.936 39.272C128.936 39.624 128.931 39.864 128.92 39.992C128.91 40.12 128.883 40.216 128.84 40.28C128.798 40.3333 128.723 40.3867 128.616 40.44C128.478 40.504 128.376 40.5307 128.312 40.52C128.248 40.5093 128.19 40.456 128.136 40.36C128.094 40.264 128.072 40.104 128.072 39.88C128.072 39.656 128.078 39.3627 128.088 39C128.099 38.392 128.062 38.0613 127.976 38.008C127.891 37.9547 127.566 38.008 127 38.168C126.574 38.3067 126.227 38.36 125.96 38.328C125.704 38.296 125.576 38.1893 125.576 38.008C125.576 37.912 125.678 37.8 125.88 37.672C126.094 37.5333 126.344 37.4213 126.632 37.336C126.931 37.24 127.192 37.1867 127.416 37.176C127.598 37.176 127.822 37.1173 128.088 37C128.227 36.9253 128.318 36.8507 128.36 36.776C128.414 36.6907 128.435 36.5787 128.424 36.44C128.414 36.2693 128.387 36.1627 128.344 36.12C128.302 36.0773 128.2 36.056 128.04 36.056C127.784 36.056 127.438 36.1253 127 36.264C126.648 36.36 126.36 36.3867 126.136 36.344C125.923 36.2907 125.816 36.1733 125.816 35.992C125.816 35.832 126.04 35.6613 126.488 35.48C126.936 35.288 127.358 35.1867 127.752 35.176C128.168 35.176 128.435 35.1333 128.552 35.048C128.67 34.952 128.707 34.76 128.664 34.472C128.632 34.2907 128.648 34.1093 128.712 33.928C128.787 33.736 128.883 33.5973 129 33.512ZM131.176 33.816C131.198 33.7307 131.283 33.6827 131.432 33.672C131.582 33.6613 131.715 33.6987 131.832 33.784C131.928 33.848 131.96 34.0773 131.928 34.472C131.907 34.856 131.795 35.88 131.592 37.544C131.422 38.8667 131.352 39.624 131.384 39.816C131.406 40.0187 131.299 40.1893 131.064 40.328C130.915 40.4027 130.814 40.44 130.76 40.44C130.707 40.44 130.648 40.4027 130.584 40.328C130.424 40.0933 130.494 39.1387 130.792 37.464C130.899 36.8453 130.984 36.088 131.048 35.192C131.102 34.36 131.144 33.9013 131.176 33.816ZM122.984 34.312C123.528 34.2267 123.864 34.1893 123.992 34.2C124.131 34.2 124.254 34.2533 124.36 34.36C124.478 34.4773 124.536 34.68 124.536 34.968C124.547 35.2453 124.494 35.6933 124.376 36.312C124.238 37.1013 124.131 37.7733 124.056 38.328C123.95 39.0747 123.859 39.448 123.784 39.448C123.752 39.448 123.656 39.4747 123.496 39.528C123.368 39.5707 123.262 39.48 123.176 39.256C123.112 39.1067 123.091 38.888 123.112 38.6C123.144 38.3013 123.251 37.6827 123.432 36.744C123.496 36.3707 123.55 36.056 123.592 35.8C123.635 35.544 123.656 35.3573 123.656 35.24C123.667 35.112 123.656 35.048 123.624 35.048C123.614 35.048 123.55 35.0587 123.432 35.08C123.326 35.0907 123.15 35.1173 122.904 35.16C122.67 35.2027 122.456 35.24 122.264 35.272C121.294 35.4533 120.712 35.5547 120.52 35.576C120.339 35.5973 120.19 35.5653 120.072 35.48C119.987 35.4053 119.944 35.352 119.944 35.32C119.955 35.2773 120.014 35.1973 120.12 35.08C120.387 34.824 121.342 34.568 122.984 34.312Z" fill="#EB8888"/>
</g>
<defs>
<filter id="filter0_d_0_1" x="0" y="0" width="205" height="84.1855" filterUnits="userSpaceOnUse" color-interpolation-filters="sRGB">
<feFlood flood-opacity="0" result="BackgroundImageFix"/>
<feColorMatrix in="SourceAlpha" type="matrix" values="0 0 0 0 0 0 0 0 0 0 0 0 0 0 0 0 0 0 127 0" result="hardAlpha"/>
<feOffset dy="2"/>
<feGaussianBlur stdDeviation="3.5"/>
<feComposite in2="hardAlpha" operator="out"/>
<feColorMatrix type="matrix" values="0 0 0 0 0.475 0 0 0 0 0.475 0 0 0 0 0.475 0 0 0 0.1 0"/>
<feBlend mode="normal" in2="BackgroundImageFix" result="effect1_dropShadow_0_1"/>
<feBlend mode="normal" in="SourceGraphic" in2="effect1_dropShadow_0_1" result="shape"/>
</filter>
<radialGradient id="paint0_radial_0_1" cx="0" cy="0" r="1" gradientUnits="userSpaceOnUse" gradientTransform="translate(268.223 121.049) scale(9.7847 9.74496)">
<stop stop-color="#5C8EBD" stop-opacity="0.9"/>
<stop offset="1" stop-color="#5C8EBD" stop-opacity="0"/>
</radialGradient>
<radialGradient id="paint1_radial_0_1" cx="0" cy="0" r="1" gradientUnits="userSpaceOnUse" gradientTransform="translate(230.998 100.16) scale(9.84427 9.80429)">
<stop stop-color="#5C8EBD" stop-opacity="0.9"/>
<stop offset="1" stop-color="#5C8EBD" stop-opacity="0"/>
</radialGradient>
<radialGradient id="paint2_radial_0_1" cx="0" cy="0" r="1" gradientUnits="userSpaceOnUse" gradientTransform="translate(275.601 146.949) scale(6.73341 6.70607)">
<stop stop-color="#C54C00" stop-opacity="0.9"/>
<stop offset="1" stop-color="#C54C00" stop-opacity="0"/>
</radialGradient>
<radialGradient id="paint3_radial_0_1" cx="0" cy="0" r="1" gradientUnits="userSpaceOnUse" gradientTransform="translate(308.228 162.826) scale(8.2171 8.18372)">
<stop stop-color="#C54C00" stop-opacity="0.9"/>
<stop offset="1" stop-color="#C54C00" stop-opacity="0"/>
</radialGradient>
<clipPath id="clip0_0_1">
<rect width="125" height="134" fill="white" transform="translate(198 83)"/>
</clipPath>
</defs>
</svg>
