<svg width="29" height="29" viewBox="0 0 29 29" fill="none" xmlns="http://www.w3.org/2000/svg">
<g clip-path="url(#clip0_838_545)">
<path fill-rule="evenodd" clip-rule="evenodd" d="M8.70924 5.89572C9.38906 5.2159 10.3111 4.83398 11.2725 4.83398H15.709C16.3763 4.83398 16.9173 5.37498 16.9173 6.04232C16.9173 6.70966 16.3763 7.25065 15.709 7.25065H11.2725C10.952 7.25065 10.6447 7.37796 10.4181 7.60456L9.41706 8.60558C8.73724 9.2854 7.81521 9.66732 6.8538 9.66732H4.83398C4.16665 9.66732 3.62565 10.2083 3.62565 10.8757V22.959C3.62565 23.6263 4.16665 24.1673 4.83398 24.1673H21.7507C22.418 24.1673 22.959 23.6263 22.959 22.959V14.5007C22.959 13.8333 23.5 13.2923 24.1673 13.2923C24.8347 13.2923 25.3757 13.8333 25.3757 14.5007V22.959C25.3757 24.9611 23.7527 26.584 21.7507 26.584H4.83398C2.83196 26.584 1.20898 24.9611 1.20898 22.959V10.8757C1.20898 8.87362 2.83196 7.25065 4.83398 7.25065H6.8538C7.17427 7.25065 7.48161 7.12334 7.70822 6.89674L8.70924 5.89572Z" fill="#BDBDBD"/>
<path d="M7.75 16.9167C7.75 13.8561 10.2311 11.375 13.2917 11.375C16.3522 11.375 18.8333 13.8561 18.8333 16.9167C18.8333 19.9772 16.3522 22.4583 13.2917 22.4583C10.2311 22.4583 7.75 19.9772 7.75 16.9167ZM13.2917 12.7917C11.0135 12.7917 9.16667 14.6384 9.16667 16.9167C9.16667 19.1949 11.0135 21.0417 13.2917 21.0417C15.5699 21.0417 17.4167 19.1949 17.4167 16.9167C17.4167 14.6384 15.5699 12.7917 13.2917 12.7917Z" fill="#BDBDBD" stroke="#BDBDBD"/>
<path fill-rule="evenodd" clip-rule="evenodd" d="M19.334 6.04232C19.334 5.37498 19.875 4.83398 20.5423 4.83398H27.7923C28.4597 4.83398 29.0007 5.37498 29.0007 6.04232C29.0007 6.70966 28.4597 7.25065 27.7923 7.25065H20.5423C19.875 7.25065 19.334 6.70966 19.334 6.04232Z" fill="#BDBDBD"/>
<path fill-rule="evenodd" clip-rule="evenodd" d="M24.1673 1.20898C24.8347 1.20898 25.3757 1.74998 25.3757 2.41732V9.66732C25.3757 10.3347 24.8347 10.8757 24.1673 10.8757C23.5 10.8757 22.959 10.3347 22.959 9.66732V2.41732C22.959 1.74998 23.5 1.20898 24.1673 1.20898Z" fill="#BDBDBD"/>
</g>
<defs>
<clipPath id="clip0_838_545">
<rect width="29" height="29" fill="white"/>
</clipPath>
</defs>
</svg>
