<svg width="16" height="16" viewBox="0 0 16 16" fill="none" xmlns="http://www.w3.org/2000/svg">
<path d="M12 1.33333C13.4707 1.33333 14.6667 2.52933 14.6667 4V12C14.6667 13.4707 13.4707 14.6667 12 14.6667H4C2.52933 14.6667 1.33333 13.4707 1.33333 12V4C1.33333 2.52933 2.52933 1.33333 4 1.33333H12ZM12 0H4C1.79067 0 0 1.79067 0 4V12C0 14.2093 1.79067 16 4 16H12C14.2093 16 16 14.2093 16 12V4C16 1.79067 14.2093 0 12 0Z" fill="#EB8888"/>
<rect x="1" y="1" width="14" height="14" rx="3" fill="#EB8888"/>
<path d="M6.63744 11.3342C6.46877 11.3342 6.30077 11.2702 6.17077 11.1435L4.2661 9.27684C4.00344 9.01951 3.99944 8.59751 4.25677 8.33418C4.51477 8.07084 4.93744 8.06751 5.19944 8.32418L6.63744 9.73418L10.9321 5.52484C11.1954 5.26751 11.6174 5.27018 11.8748 5.53418C12.1328 5.79684 12.1288 6.21951 11.8661 6.47684L7.10411 11.1435C6.97411 11.2702 6.80611 11.3342 6.63744 11.3342Z" fill="white"/>
</svg>
