<svg width="111" height="35" viewBox="0 0 111 35" fill="none" xmlns="http://www.w3.org/2000/svg">
<rect width="111" height="34.8235" rx="5.44118" fill="#EB8888"/>
<path d="M46.209 12.3203V23.6318H45.2061V12.3203H46.209ZM37.3223 17.1318C37.3286 14.7324 38.522 13.2026 40.2041 13.1963C41.8799 13.2026 43.0923 14.7324 43.0859 17.1318C43.0923 19.5376 41.8799 21.061 40.2041 21.0547C38.522 21.061 37.3286 19.5376 37.3223 17.1318ZM38.2871 17.1318C38.2871 18.9663 39.0742 20.1724 40.2041 20.166C41.3403 20.1724 42.1211 18.9663 42.1211 17.1318C42.1211 15.2974 41.3403 14.0913 40.2041 14.085C39.0742 14.0913 38.2871 15.2974 38.2871 17.1318ZM54.0166 13.4375V20.7754H48.7988V13.4375H54.0166ZM49.7764 19.9629H53.0391V14.2373H49.7764V19.9629ZM56.4414 23.6318V12.3203H57.4443V23.6318H56.4414ZM63.4111 15.7861C63.4175 17.7031 64.8076 19.6519 66.4707 20.3691L65.9121 21.1562C64.5918 20.5596 63.4556 19.2583 62.9287 17.6968C62.4019 19.3535 61.2593 20.7881 59.9707 21.4355L59.374 20.6484C60.9927 19.874 62.4019 17.7412 62.4082 15.7861V14.3135H59.7422V13.4883H66.1025V14.3135H63.4111V15.7861ZM67.6768 23.6064V12.3203H68.6797V23.6064H67.6768ZM77.7314 14.4531C77.7314 16.0273 78.874 17.5127 80.5244 18.1094L79.9658 18.8838C78.728 18.395 77.7378 17.4175 77.2554 16.186C76.7793 17.5508 75.751 18.6299 74.418 19.1631L73.8848 18.3506C75.5796 17.7285 76.7476 16.1479 76.7539 14.415V13.0186H77.7314V14.4531ZM75.9287 23.3652V19.8232H76.9316V22.5273H83.4824V23.3652H75.9287ZM79.7119 15.8242V14.9863H82.2256V12.333H83.2285V20.7881H82.2256V15.8242H79.7119ZM89.9951 13.1455V13.9834H86.5674V15.3926H89.8682V16.1797H86.5674V17.7412C88.2114 17.7349 89.2397 17.6714 90.4521 17.4365L90.5537 18.2617C89.2271 18.522 88.1606 18.5728 86.3262 18.5791H85.6152V13.1455H89.9951ZM87.0879 20.5723V19.7598H94.6924V23.6064H93.7148V20.5723H87.0879ZM91.2266 19.0996V12.5488H92.1533V15.2783H93.7402V12.333H94.6924V19.1758H93.7402V16.0908H92.1533V19.0996H91.2266Z" fill="white"/>
<path fill-rule="evenodd" clip-rule="evenodd" d="M18.5879 11.8663C19.0037 11.4504 19.5677 11.2168 20.1558 11.2168H22.8696C23.2778 11.2168 23.6087 11.5477 23.6087 11.9559C23.6087 12.3641 23.2778 12.6951 22.8696 12.6951H20.1558C19.9598 12.6951 19.7718 12.7729 19.6331 12.9115L19.0208 13.5239C18.605 13.9397 18.041 14.1733 17.4529 14.1733H16.2174C15.8092 14.1733 15.4783 14.5042 15.4783 14.9124V22.3038C15.4783 22.712 15.8092 23.0429 16.2174 23.0429H26.5652C26.9734 23.0429 27.3043 22.712 27.3043 22.3038V17.1298C27.3043 16.7216 27.6353 16.3907 28.0435 16.3907C28.4517 16.3907 28.7826 16.7216 28.7826 17.1298V22.3038C28.7826 23.5284 27.7899 24.5211 26.5652 24.5211H16.2174C14.9928 24.5211 14 23.5284 14 22.3038V14.9124C14 13.6878 14.9928 12.6951 16.2174 12.6951H17.4529C17.6489 12.6951 17.8369 12.6172 17.9755 12.4786L18.5879 11.8663Z" fill="white"/>
<path d="M18.0012 18.6078C18.0012 16.7356 19.5188 15.218 21.391 15.218C23.2631 15.218 24.7808 16.7356 24.7808 18.6078C24.7808 20.4799 23.2631 21.9976 21.391 21.9976C19.5188 21.9976 18.0012 20.4799 18.0012 18.6078ZM21.391 16.0845C19.9974 16.0845 18.8677 17.2142 18.8677 18.6078C18.8677 20.0013 19.9974 21.131 21.391 21.131C22.7845 21.131 23.9142 20.0013 23.9142 18.6078C23.9142 17.2142 22.7845 16.0845 21.391 16.0845Z" fill="white" stroke="white" stroke-width="0.611694"/>
<path fill-rule="evenodd" clip-rule="evenodd" d="M25.0879 11.9559C25.0879 11.5477 25.4188 11.2168 25.827 11.2168H30.2618C30.67 11.2168 31.0009 11.5477 31.0009 11.9559C31.0009 12.3641 30.67 12.6951 30.2618 12.6951H25.827C25.4188 12.6951 25.0879 12.3641 25.0879 11.9559Z" fill="white"/>
<path fill-rule="evenodd" clip-rule="evenodd" d="M28.0438 9C28.452 9 28.7829 9.33092 28.7829 9.73913V14.1739C28.7829 14.5821 28.452 14.913 28.0438 14.913C27.6356 14.913 27.3047 14.5821 27.3047 14.1739V9.73913C27.3047 9.33092 27.6356 9 28.0438 9Z" fill="white"/>
</svg>
