<svg width="86" height="98" viewBox="0 0 86 98" fill="none" xmlns="http://www.w3.org/2000/svg">
<g clip-path="url(#clip0_48_454)">
<path d="M0.206627 22.5047C0.282572 22.3227 0.38282 22.1589 0.483068 21.989C0.847603 21.3702 1.21214 20.7514 1.57668 20.1325C2.17816 19.1133 2.7766 18.0941 3.37809 17.0749C4.04336 15.9465 4.70864 14.818 5.37088 13.6896C5.86604 12.8494 6.36121 12.0091 6.85637 11.1689C6.65587 11.1082 6.47057 11.0051 6.30045 10.8686C5.92681 10.5682 5.702 10.1436 5.53492 9.70069C5.34354 9.19412 5.19773 8.66934 5.03673 8.15366C4.88484 7.66528 4.65396 7.1223 4.74814 6.60056C4.83319 6.12735 5.19773 5.79064 5.5653 5.5146C5.93895 5.23553 6.3612 5.02016 6.80472 4.87152C7.25735 4.71985 7.73733 4.64098 8.21426 4.63795C8.4421 4.63795 8.66689 4.65615 8.89169 4.68649C8.99801 4.70165 9.13775 4.75929 9.24407 4.75322C9.34736 4.74412 9.35647 4.66829 9.38381 4.56818C9.6481 3.61873 9.86986 2.66018 10.4683 1.85026C10.7356 1.48928 11.0607 1.17078 11.492 1.01911C11.9325 0.867437 12.4581 0.940238 12.7831 1.29515C13.096 1.64095 13.1051 2.10506 13.0018 2.53581C12.8864 3.02418 12.6859 3.48526 12.5857 3.9797C12.3669 5.05959 12.4125 6.16982 12.2181 7.24971C12.0388 8.25983 11.5801 9.19108 11.0364 10.0526C10.8997 10.2679 10.7569 10.4803 10.6111 10.6926C10.4683 10.8989 10.2952 11.1021 10.1706 11.3175C10.1585 11.3387 10.1493 11.363 10.1372 11.3873C9.90935 11.8726 9.67848 12.3579 9.45064 12.8433C8.5393 14.7816 7.61885 16.7169 6.71966 18.6614C6.10299 19.996 5.4924 21.3368 4.8818 22.6745C5.96629 22.8687 7.05382 23.0628 8.13832 23.2539C9.96403 23.5755 11.7897 23.897 13.6124 24.2246C14.0286 24.3004 14.4478 24.3732 14.864 24.4491C15.0554 24.4824 15.0827 24.7312 14.9703 24.8556C13.9132 26.0295 12.853 27.2004 11.7958 28.3713C11.647 28.5381 11.4951 28.7019 11.3462 28.8687C11.2855 28.9355 11.1761 28.9628 11.0941 28.9355C10.5351 28.7565 9.97315 28.5745 9.41419 28.3955C8.22641 28.0133 7.04168 27.6311 5.8539 27.2489C4.77852 26.9031 3.70313 26.5573 2.62775 26.2115C2.36954 26.1296 2.10829 26.0446 1.85008 25.9627C1.28201 25.7807 0.802044 25.4531 0.452697 24.9648C-0.054615 24.2519 -0.142716 23.2964 0.200555 22.4956L0.206627 22.5047Z" fill="#B2D7ED"/>
<path d="M0.206627 22.5047C0.282572 22.3227 0.38282 22.1589 0.483068 21.989C0.847603 21.3702 1.21214 20.7514 1.57668 20.1325C2.17816 19.1133 2.7766 18.0941 3.37809 17.0749C4.04336 15.9465 4.70864 14.818 5.37088 13.6896C5.86604 12.8494 6.36121 12.0091 6.85637 11.1689C6.65587 11.1082 6.47057 11.0051 6.30045 10.8686C5.92681 10.5682 5.702 10.1436 5.53492 9.70069C5.34354 9.19412 5.19773 8.66934 5.03673 8.15366C4.88484 7.66528 4.65396 7.1223 4.74814 6.60056C4.83319 6.12735 5.19773 5.79064 5.5653 5.5146C5.93895 5.23553 6.3612 5.02016 6.80472 4.87152C7.25735 4.71985 7.73733 4.64098 8.21426 4.63795C8.4421 4.63795 8.66689 4.65615 8.89169 4.68649C8.99801 4.70165 9.13775 4.75929 9.24407 4.75322C9.34736 4.74412 9.35647 4.66829 9.38381 4.56818C9.6481 3.61873 9.86986 2.66018 10.4683 1.85026C10.7356 1.48928 11.0607 1.17078 11.492 1.01911C11.9325 0.867437 12.4581 0.940238 12.7831 1.29515C13.096 1.64095 13.1051 2.10506 13.0018 2.53581C12.8864 3.02418 12.6859 3.48526 12.5857 3.9797C12.3669 5.05959 12.4125 6.16982 12.2181 7.24971C12.0388 8.25983 11.5801 9.19108 11.0364 10.0526C10.8997 10.2679 10.7569 10.4803 10.6111 10.6926C10.4683 10.8989 10.2952 11.1021 10.1706 11.3175C10.1585 11.3387 10.1493 11.363 10.1372 11.3873C9.90935 11.8726 9.67848 12.3579 9.45064 12.8433C8.5393 14.7816 7.61885 16.7169 6.71966 18.6614C6.10299 19.996 5.4924 21.3368 4.8818 22.6745C5.96629 22.8687 7.05382 23.0628 8.13832 23.2539C9.96403 23.5755 11.7897 23.897 13.6124 24.2246C14.0286 24.3004 14.4478 24.3732 14.864 24.4491C15.0554 24.4824 15.0827 24.7312 14.9703 24.8556C13.9132 26.0295 12.853 27.2004 11.7958 28.3713C11.647 28.5381 11.4951 28.7019 11.3462 28.8687C11.2855 28.9355 11.1761 28.9628 11.0941 28.9355C10.5351 28.7565 9.97315 28.5745 9.41419 28.3955C8.22641 28.0133 7.04168 27.6311 5.8539 27.2489C4.77852 26.9031 3.70313 26.5573 2.62775 26.2115C2.36954 26.1296 2.10829 26.0446 1.85008 25.9627C1.28201 25.7807 0.802044 25.4531 0.452697 24.9648C-0.054615 24.2519 -0.142716 23.2964 0.200555 22.4956L0.206627 22.5047Z" fill="url(#paint0_radial_48_454)"/>
<path d="M33.8685 78.9958C34.1479 79.0564 34.4274 79.1171 34.7069 79.1717L48.9238 4.38629C48.1704 4.25282 47.411 4.13756 46.6394 4.04959C45.5336 3.92218 44.437 3.84332 43.3434 3.80995L43.3373 0C44.5767 0.0333674 45.8252 0.121336 47.0798 0.266939C70.0851 2.9424 86.559 23.7303 83.8797 46.7022C81.2004 69.6711 60.3793 86.1243 37.3771 83.4488C35.8035 83.2668 34.2603 82.9938 32.7506 82.648L33.8715 78.9958H33.8685ZM80.0916 46.2593C82.3061 27.2703 70.1185 9.92225 52.1651 5.10824L37.9908 79.6843C58.8331 82.014 77.6613 67.0866 80.0885 46.2624L80.0916 46.2593Z" fill="#5B89B2"/>
<path d="M68.2289 64.4262C68.2775 64.1623 68.399 63.9166 68.5053 63.6709C68.6238 63.3979 68.7422 63.1249 68.8638 62.8549C69.0916 62.3453 69.3164 61.8327 69.5594 61.3291C69.6627 61.1138 69.7842 60.8954 69.9604 60.7285C70.1487 60.5465 70.3857 60.4343 70.6287 60.3433C71.7223 59.9307 72.8402 59.5758 73.943 59.1936C75.0609 58.8053 76.1757 58.4201 77.2936 58.0318C78.4115 57.6435 79.5264 57.2583 80.6443 56.87C80.9056 56.779 81.1668 56.688 81.4281 56.597C81.5071 56.5697 81.6346 56.5424 81.6954 56.4818C81.7562 56.4211 81.7015 56.3604 81.6559 56.2876C81.3734 55.8478 81.0058 55.4383 80.6717 55.0348C79.329 53.412 77.8344 51.9165 76.2152 50.5666C75.8203 50.239 75.4193 49.9175 75.0123 49.6081C74.8847 49.511 74.8178 49.3502 74.9059 49.2016C74.9697 49.0924 75.1277 49.0287 75.2522 49.0712L76.0238 46.6687C76.0238 46.6687 76.0056 46.6535 75.9935 46.6475C75.8294 46.5292 75.9752 46.2683 76.1545 46.3745C77.8769 47.3846 79.4687 48.6435 80.9147 50.0176C82.3698 51.4008 83.6882 52.9266 84.8486 54.5616C85.1312 54.959 85.4046 55.3624 85.6658 55.775C85.9331 56.1966 86.1275 56.6729 85.8906 57.1552C85.7144 57.5131 85.3529 57.7558 85.0005 57.9226C84.5084 58.1562 83.9829 58.3261 83.4725 58.5202C81.3066 59.3423 79.1497 60.1916 76.9595 60.956C75.8811 61.3322 74.7935 61.684 73.6908 61.9904C73.1531 62.139 72.6094 62.2786 72.0656 62.403C71.9866 62.4212 71.8104 62.4303 71.7497 62.4879C71.7162 62.5213 71.7284 62.5941 71.7284 62.6396C71.7375 62.949 71.7831 63.2644 71.8135 63.5708C71.8651 64.1472 71.9198 64.7235 71.9714 65.2968C71.9927 65.5304 72.0443 65.7852 71.9623 66.0157C71.8681 66.2827 71.6342 66.404 71.3669 66.4313C70.413 66.5344 69.2374 66.4707 68.5782 65.676C68.2835 65.3211 68.1408 64.8843 68.2258 64.4262H68.2289Z" fill="#B2D7ED"/>
<path d="M68.2289 64.4262C68.2775 64.1623 68.399 63.9166 68.5053 63.6709C68.6238 63.3979 68.7422 63.1249 68.8638 62.8549C69.0916 62.3453 69.3164 61.8327 69.5594 61.3291C69.6627 61.1138 69.7842 60.8954 69.9604 60.7285C70.1487 60.5465 70.3857 60.4343 70.6287 60.3433C71.7223 59.9307 72.8402 59.5758 73.943 59.1936C75.0609 58.8053 76.1757 58.4201 77.2936 58.0318C78.4115 57.6435 79.5264 57.2583 80.6443 56.87C80.9056 56.779 81.1668 56.688 81.4281 56.597C81.5071 56.5697 81.6346 56.5424 81.6954 56.4818C81.7562 56.4211 81.7015 56.3604 81.6559 56.2876C81.3734 55.8478 81.0058 55.4383 80.6717 55.0348C79.329 53.412 77.8344 51.9165 76.2152 50.5666C75.8203 50.239 75.4193 49.9175 75.0123 49.6081C74.8847 49.511 74.8178 49.3502 74.9059 49.2016C74.9697 49.0924 75.1277 49.0287 75.2522 49.0712L76.0238 46.6687C76.0238 46.6687 76.0056 46.6535 75.9935 46.6475C75.8294 46.5292 75.9752 46.2683 76.1545 46.3745C77.8769 47.3846 79.4687 48.6435 80.9147 50.0176C82.3698 51.4008 83.6882 52.9266 84.8486 54.5616C85.1312 54.959 85.4046 55.3624 85.6658 55.775C85.9331 56.1966 86.1275 56.6729 85.8906 57.1552C85.7144 57.5131 85.3529 57.7558 85.0005 57.9226C84.5084 58.1562 83.9829 58.3261 83.4725 58.5202C81.3066 59.3423 79.1497 60.1916 76.9595 60.956C75.8811 61.3322 74.7935 61.684 73.6908 61.9904C73.1531 62.139 72.6094 62.2786 72.0656 62.403C71.9866 62.4212 71.8104 62.4303 71.7497 62.4879C71.7162 62.5213 71.7284 62.5941 71.7284 62.6396C71.7375 62.949 71.7831 63.2644 71.8135 63.5708C71.8651 64.1472 71.9198 64.7235 71.9714 65.2968C71.9927 65.5304 72.0443 65.7852 71.9623 66.0157C71.8681 66.2827 71.6342 66.404 71.3669 66.4313C70.413 66.5344 69.2374 66.4707 68.5782 65.676C68.2835 65.3211 68.1408 64.8843 68.2258 64.4262H68.2289Z" fill="url(#paint1_radial_48_454)"/>
<path d="M33.4309 91.0534C37.8478 87.6347 38.9414 82.6751 38.9414 82.6751L42.2283 82.3809L45.5152 82.6751C45.5152 82.6751 46.6088 87.6377 51.0258 91.0534C51.0258 91.0534 56.105 94.0291 56.105 97.9998H28.3547C28.3547 94.0291 33.4339 91.0534 33.4339 91.0534H33.4309Z" fill="#5B89B2"/>
<path d="M47.3594 36.4199C47.3533 36.3956 47.3472 36.3713 47.3411 36.3471L47.4626 36.3076C47.4262 36.341 47.3928 36.3804 47.3594 36.4199Z" fill="#B2D7ED"/>
<path d="M25.7091 22.7324C26.3409 22.9083 26.9302 23.1571 27.2735 23.7668C27.5469 24.2551 27.6259 24.8376 27.6684 25.3927C27.7626 26.5818 27.6502 27.8042 27.9661 28.966C28.3124 30.237 29.239 31.1683 30.366 31.7325C31.73 32.415 33.2519 32.4848 34.7465 32.415C35.4908 32.3816 36.232 32.3149 36.9732 32.2846C36.8547 32.3725 36.7606 32.4969 36.7211 32.688C36.6694 32.9398 36.715 33.2219 36.7271 33.4736C36.7393 33.7588 36.7514 34.047 36.7666 34.3321C36.8183 35.4909 36.8699 36.6526 36.9246 37.8114C36.9519 38.3969 36.9762 38.9853 37.0036 39.5738C37.0279 40.1229 37.0734 40.6749 37.0431 41.224C36.9945 42.1431 36.6694 43.0501 35.7642 43.3625C35.4179 43.4839 35.0351 43.5658 34.7586 43.8327C34.382 44.1967 34.3577 44.7063 34.4701 45.1947C34.7252 46.2867 35.1293 47.3393 35.5181 48.3858C35.913 49.4475 36.3079 50.5122 36.7028 51.5739C37.0826 52.5932 37.4349 53.6306 37.9149 54.6013C38.3402 55.4627 38.8749 56.3515 39.6677 56.9006C40.0718 57.1797 40.5548 57.3495 41.0378 57.1766C41.3871 57.0523 41.6393 56.758 41.8094 56.4274C42.1982 55.6599 42.1557 54.7165 42.1769 53.8824C42.2347 51.6255 42.1587 49.3565 41.8033 47.13C41.7182 46.5901 41.6058 46.041 41.618 45.492C41.6241 45.2341 41.6514 44.9702 41.7334 44.7245C41.7456 44.6881 41.7942 44.5 41.8246 44.4879C41.8549 44.4727 42.0038 44.5577 42.0311 44.5698C42.9212 44.9793 43.6898 45.6285 44.6527 45.859C45.479 46.0562 46.3964 45.9075 46.9797 45.219C47.6085 44.4758 47.645 43.3383 47.7179 42.407C47.8029 41.3119 47.8242 40.1987 47.7452 39.1036C47.7331 38.952 47.7179 38.8003 47.7057 38.6486L49.656 36.2644C49.6894 36.2553 49.7198 36.2492 49.7532 36.2401C50.862 37.0227 50.8681 39.0126 50.4762 40.2199C50.1026 41.3726 49.5132 42.4434 49.2155 43.6204C48.9512 44.6669 49.0089 45.6831 49.331 46.6993C49.6438 47.6973 50.142 48.6194 50.4792 49.6083C50.7952 50.5365 50.8863 51.5102 50.9258 52.49C50.9562 53.2393 50.944 54.031 50.9957 54.8106C51.2934 55.123 51.6458 55.3566 52.0832 55.5143C52.7758 55.7631 53.5261 55.8207 54.2552 55.7661C55.8926 55.6478 57.4722 55.0472 58.9395 54.3465C60.4128 53.6427 61.7768 52.7752 63.1408 51.8864C64.0308 51.307 64.93 50.7397 65.8626 50.2301C66.3213 49.9784 66.7861 49.7478 67.2509 49.5112C67.4818 49.3929 67.7339 49.2352 67.9921 49.1927C68.4265 49.1229 68.5572 49.6477 68.7182 49.942C68.9095 50.2969 69.1495 50.6305 69.4138 50.9369C69.5687 51.1159 69.7814 51.3495 70.0396 51.3586C70.3069 51.3677 70.5591 51.1614 70.7535 51.0037C71.1363 50.6912 71.4856 50.3302 71.8258 49.9693C72.5276 49.2291 73.1655 48.4253 73.8004 47.6275C74.4262 46.8418 75.0793 46.0865 75.7324 45.3221C76.1091 44.8823 76.4888 44.4454 76.8777 44.0177C76.8382 44.6366 76.7835 45.2554 76.7106 45.8802C75.0337 60.2525 64.7751 71.5398 51.6427 75.2344C52.1318 74.4124 52.39 73.466 52.0802 72.5074C51.8857 71.9098 51.4513 71.4882 50.9015 71.2364C50.2362 70.93 49.498 70.7511 48.8024 70.5296C48.1401 70.3203 47.4688 70.0534 46.7822 69.9412C46.1534 69.835 45.558 69.9624 45.0963 70.4386C44.9049 70.6358 44.7165 70.8936 44.4401 70.9573C44.1272 71.0302 43.7839 70.8937 43.4862 70.8117C42.7754 70.6206 42.0402 70.5569 41.3081 70.6176C40.0383 70.7207 38.6379 71.2061 37.8694 72.3345C37.2132 73.2991 37.0856 74.5732 37.3833 75.6864C37.4319 75.8654 37.4896 76.0383 37.5565 76.2021C18.871 73.6662 5.58062 56.6458 7.7739 37.8599C8.86143 28.5383 13.5579 20.518 20.3079 15.0215C20.6724 17.1509 21.3042 19.2986 22.6743 20.8941C23.5066 21.8648 24.5243 22.4108 25.7242 22.7415L25.7091 22.7324ZM21.5898 38.3999C21.6141 39.1067 21.8298 39.8165 22.0029 40.496C22.1974 41.2573 22.41 42.0157 22.6348 42.768C23.0662 44.2088 23.5006 45.6649 24.017 47.0754C24.4727 48.3191 25.1228 49.5567 26.2224 50.2969C27.1247 50.9036 28.8471 51.3434 29.2572 49.8904C29.4273 49.2959 29.3119 48.674 29.2056 48.0825C29.0658 47.2968 28.9261 46.5112 28.7863 45.7225C28.6527 44.9611 28.5433 44.1846 28.3671 43.4323C28.197 42.7134 27.878 42.0946 27.4619 41.497C27.3525 41.3392 27.2371 41.1876 27.1247 41.0329C26.909 40.4596 26.6629 39.8953 26.3774 39.3524C26.0645 38.7578 25.7242 38.1693 25.3202 37.6355C24.9405 37.135 24.4544 36.6617 23.8499 36.4858C23.3092 36.3281 22.7077 36.3705 22.2369 36.7194C21.7144 37.1046 21.5655 37.772 21.5868 38.3969L21.5898 38.3999Z" fill="#B2D7ED"/>
<path d="M46.2445 7.43541C64.6596 9.57698 78.0168 25.745 76.8654 44.003C76.4766 44.4307 76.0969 44.8675 75.7202 45.3074C75.0701 46.0718 74.4139 46.8271 73.7882 47.6128C73.1533 48.4136 72.5184 49.2144 71.8136 49.9545C71.4734 50.3125 71.124 50.6735 70.7413 50.9889C70.5468 51.1497 70.2977 51.3529 70.0274 51.3438C69.7692 51.3347 69.5595 51.1042 69.4016 50.9222C69.1373 50.6189 68.9003 50.2822 68.7059 49.9272C68.5449 49.63 68.4143 49.1082 67.9799 49.178C67.7186 49.2205 67.4665 49.3782 67.2387 49.4965C66.7739 49.7331 66.3061 49.9636 65.8504 50.2154C64.9178 50.725 64.0186 51.2923 63.1285 51.8717C61.7646 52.7635 60.4006 53.628 58.9273 54.3317C57.46 55.0325 55.8773 55.6331 54.243 55.7514C53.5139 55.806 52.7636 55.7483 52.071 55.4996C51.6335 55.3419 51.2811 55.1083 50.9834 54.7959C50.9318 54.0163 50.9439 53.2276 50.9136 52.4753C50.8741 51.4955 50.7829 50.5218 50.467 49.5936C50.1298 48.6047 49.6316 47.6825 49.3187 46.6845C48.9997 45.6684 48.939 44.6522 49.2033 43.6056C49.501 42.4257 50.0873 41.3549 50.464 40.2052C50.8558 39.0009 50.8498 37.011 49.741 36.2254C49.7076 36.2345 49.6772 36.2406 49.6438 36.2497L47.6935 38.6339C47.7056 38.7856 47.7239 38.9372 47.733 39.0889C47.812 40.184 47.7907 41.2972 47.7056 42.3923C47.6327 43.3235 47.5963 44.4611 46.9675 45.2043C46.3842 45.8928 45.4668 46.0415 44.6405 45.8443C43.6775 45.6138 42.9059 44.9646 42.0189 44.5551C41.9885 44.543 41.8427 44.458 41.8123 44.4732C41.7819 44.4884 41.7333 44.6734 41.7212 44.7098C41.6392 44.9555 41.6118 45.2194 41.6058 45.4773C41.5936 46.0293 41.706 46.5753 41.7911 47.1153C42.1465 49.3418 42.2194 51.6108 42.1647 53.8676C42.1434 54.7049 42.189 55.6452 41.7971 56.4127C41.627 56.7463 41.3779 57.0375 41.0255 57.1619C40.5425 57.3348 40.0626 57.168 39.6555 56.8859C38.8626 56.3368 38.328 55.448 37.9027 54.5865C37.4227 53.6128 37.0673 52.5784 36.6906 51.5592C36.2957 50.4975 35.9008 49.4328 35.5059 48.3711C35.117 47.3246 34.713 46.272 34.4578 45.18C34.3454 44.6916 34.3667 44.182 34.7464 43.818C35.0229 43.551 35.4056 43.4661 35.7519 43.3478C36.6572 43.0354 36.9822 42.1254 37.0308 41.2093C37.0612 40.6602 37.0156 40.1081 36.9913 39.5591C36.964 38.9736 36.9397 38.3852 36.9124 37.7967C36.8607 36.6379 36.8091 35.4761 36.7544 34.3174C36.7422 34.0322 36.7301 33.7441 36.7149 33.4589C36.7028 33.2072 36.6602 32.922 36.7088 32.6733C36.7483 32.4822 36.8395 32.3578 36.961 32.2698C36.2167 32.3002 35.4755 32.3669 34.7343 32.4003C33.2397 32.467 31.7177 32.4003 30.3538 31.7178C29.2267 31.1535 28.3002 30.2253 27.9539 28.9513C27.638 27.7895 27.7473 26.5701 27.6562 25.378C27.6137 24.8228 27.5347 24.2404 27.2613 23.7521C26.9211 23.1423 26.3317 22.8936 25.6968 22.7177C24.4969 22.384 23.4792 21.838 22.6469 20.8703C21.2768 19.2748 20.645 17.1271 20.2804 14.9977C27.2977 9.28274 36.5296 6.29788 46.2323 7.4263L46.2445 7.43541ZM47.3593 36.4195C47.3928 36.3801 47.4262 36.3407 47.4626 36.3073L47.3411 36.3467C47.3472 36.371 47.3533 36.3953 47.3593 36.4195Z" fill="#91CE92"/>
<path d="M23.8528 36.49C24.4573 36.666 24.9434 37.1422 25.3231 37.6397C25.7271 38.1705 26.0674 38.762 26.3802 39.3566C26.6658 39.8996 26.9119 40.4607 27.1275 41.0371C27.2399 41.1918 27.3554 41.3435 27.4647 41.5012C27.8809 42.0988 28.1999 42.7176 28.37 43.4365C28.5492 44.1888 28.6556 44.9653 28.7892 45.7267C28.929 46.5124 29.0687 47.298 29.2084 48.0867C29.3148 48.6782 29.4272 49.3001 29.2601 49.8946C28.8469 51.3476 27.1275 50.9108 26.2253 50.3011C25.1226 49.5579 24.4725 48.3203 24.0199 47.0796C23.5034 45.6691 23.069 44.2161 22.6377 42.7722C22.4129 42.0199 22.2002 41.2616 22.0058 40.5002C21.8327 39.8207 21.62 39.1139 21.5927 38.4041C21.5714 37.7792 21.7203 37.1119 22.2428 36.7266C22.7136 36.3808 23.3151 36.3353 23.8558 36.4931L23.8528 36.49Z" fill="#91CE92"/>
<path d="M37.8542 72.3228C38.6197 71.1944 40.0201 70.7091 41.293 70.6059C42.0251 70.5453 42.7602 70.609 43.4711 70.8001C43.7688 70.8789 44.112 71.0185 44.4249 70.9457C44.7014 70.882 44.8897 70.6241 45.0811 70.427C45.5459 69.9507 46.1383 69.8233 46.7671 69.9295C47.4536 70.0447 48.125 70.3087 48.7872 70.518C49.4829 70.7364 50.2211 70.9184 50.8863 71.2247C51.4362 71.4765 51.8706 71.8982 52.065 72.4957C52.3779 73.4543 52.1166 74.4007 51.6275 75.2228C47.3898 76.4149 42.8544 76.8183 38.2096 76.2784C37.9848 76.2511 37.76 76.2207 37.5383 76.1904C37.4714 76.0236 37.4137 75.8537 37.3651 75.6747C37.0674 74.5615 37.195 73.2874 37.8511 72.3228H37.8542Z" fill="#91CE92"/>
<path d="M48.3156 27.9976C46.0402 27.7873 44.3701 25.7357 44.5853 23.4153C44.8005 21.0948 46.8194 19.3843 49.0947 19.5947C51.3701 19.805 53.0402 21.8567 52.825 24.1771C52.6099 26.4975 50.5909 28.208 48.3156 27.9976Z" fill="white"/>
<path d="M44.9049 22.569C44.753 24.7591 46.3722 26.655 48.5199 26.8006C50.6676 26.9462 52.5328 25.29 52.6847 23.0999C52.8366 20.9098 51.2175 19.0139 49.0697 18.8683C46.922 18.7227 45.0568 20.3789 44.9049 22.569Z" fill="#403E3D"/>
<path d="M37.1325 27.2476C34.8571 27.0373 33.187 24.9857 33.4022 22.6653C33.6174 20.3448 35.6363 18.6343 37.9116 18.8447C40.187 19.055 41.8571 21.1067 41.6419 23.4271C41.4267 25.7475 39.4078 27.458 37.1325 27.2476Z" fill="white"/>
<path d="M33.9628 21.8532C33.8109 24.0433 35.43 25.9392 37.5778 26.0848C39.7255 26.2304 41.5907 24.5742 41.7426 22.3841C41.8945 20.1939 40.2753 18.2981 38.1276 18.1525C35.9799 18.0069 34.1147 19.6631 33.9628 21.8532Z" fill="#403E3D"/>
<path d="M47.5781 29.9189C47.5781 29.9189 42.8908 33.5014 38.8748 29.0908" stroke="#403E3D" stroke-width="2" stroke-linecap="round" stroke-linejoin="round"/>
</g>
<defs>
<radialGradient id="paint0_radial_48_454" cx="0" cy="0" r="1" gradientUnits="userSpaceOnUse" gradientTransform="translate(8.28717 30.5219) rotate(180) scale(10.3012 10.2863)">
<stop stop-color="#75AAD6" stop-opacity="0.9"/>
<stop offset="1" stop-color="#75AAD6" stop-opacity="0"/>
</radialGradient>
<radialGradient id="paint1_radial_48_454" cx="0" cy="0" r="1" gradientUnits="userSpaceOnUse" gradientTransform="translate(75.2492 45.9073) rotate(180) scale(9.75132 9.73721)">
<stop stop-color="#75AAD6" stop-opacity="0.9"/>
<stop offset="1" stop-color="#75AAD6" stop-opacity="0"/>
</radialGradient>
<clipPath id="clip0_48_454">
<rect width="86" height="98" fill="white" transform="matrix(-1 0 0 1 86 0)"/>
</clipPath>
</defs>
</svg>
