<svg width="103" height="112" viewBox="0 0 103 112" fill="none" xmlns="http://www.w3.org/2000/svg">
<path d="M37.2687 2.78778L39.7689 111.276H47.8044V2.78778H37.2687Z" fill="#FFCF6E"/>
<path d="M102.44 22.1765L77.1245 0.00488281V9.39271L0 10.3972V34.982H77.1245V44.3481L102.44 22.1765Z" fill="#89BDC9"/>
<path d="M1.90454 58.9843L20.6193 75.3728V68.433L77.6333 67.6938V49.5182H20.6193V42.5915L1.90454 58.9843Z" fill="#FC8230"/>
<path d="M39.608 18.5718C39.621 21.2981 37.4643 23.5157 34.7988 23.5244C32.1334 23.5331 29.9549 21.3329 29.9462 18.6066C29.9375 15.8802 32.0899 13.6627 34.7553 13.654C37.4251 13.6453 39.5993 15.8455 39.608 18.5718Z" fill="white"/>
<path d="M40.0646 18.4022C40.0776 20.972 38.047 23.0592 35.5294 23.0679C33.0161 23.0766 30.9681 21.0025 30.955 18.4327C30.942 15.8629 32.9726 13.7757 35.4902 13.767C38.0035 13.7583 40.0515 15.8324 40.0646 18.4022Z" fill="#403E3D"/>
<path d="M54.0398 18.4588C54.0529 21.1851 51.8962 23.4027 49.2307 23.4114C46.5652 23.4201 44.3868 21.2199 44.3781 18.4936C44.3694 15.7672 46.5218 13.5496 49.1872 13.5409C51.857 13.5322 54.0311 15.7324 54.0398 18.4588Z" fill="white"/>
<path d="M54.5094 18.4414C54.5224 21.0112 52.4918 23.0983 49.9742 23.107C47.4609 23.1157 45.4129 21.0416 45.3998 18.4718C45.3868 15.902 47.4174 13.8148 49.935 13.8061C52.4483 13.7975 54.4963 15.8716 54.5094 18.4414Z" fill="#403E3D"/>
<path d="M37.66 26.4465C37.66 26.4465 41.5865 28.8989 46.2 26.7422" stroke="#403E3D" stroke-width="2" stroke-linecap="round" stroke-linejoin="round"/>
<path d="M37.9079 25.4812L37.1252 27.377" stroke="#403E3D" stroke-width="2" stroke-linecap="round" stroke-linejoin="round"/>
<path d="M42.8606 56.3753C42.8693 58.5973 41.1169 60.4018 38.9428 60.4105C36.7687 60.4192 34.999 58.6233 34.9859 56.4014C34.9729 54.1795 36.7296 52.3749 38.9037 52.3662C41.0778 52.3575 42.8475 54.1534 42.8606 56.3753Z" fill="white"/>
<path d="M42.0778 56.0883C42.0865 58.1798 40.4342 59.8843 38.3861 59.8887C36.3381 59.8974 34.6684 58.2059 34.6597 56.1144C34.651 54.0229 36.3033 52.3184 38.3514 52.3141C40.3994 52.3054 42.0691 53.9968 42.0778 56.0883Z" fill="#403E3D"/>
<path d="M54.6181 56.284C54.6268 58.5059 52.8744 60.3105 50.7003 60.3192C48.5262 60.3279 46.7565 58.532 46.7434 56.3101C46.7347 54.0881 48.4871 52.2836 50.6612 52.2749C52.8353 52.2662 54.605 54.0621 54.6181 56.284Z" fill="white"/>
<path d="M53.6615 55.784C53.6702 57.8755 52.0179 59.58 49.9699 59.5843C47.9219 59.593 46.2521 57.9016 46.2434 55.8101C46.2347 53.7186 47.8871 52.0141 49.9351 52.0097C51.9831 52.001 53.6528 53.6925 53.6615 55.784Z" fill="#403E3D"/>
<path d="M41.5822 61.8236L44.8303 65.224L48.1306 61.6497" stroke="#403E3D" stroke-width="2" stroke-linecap="round" stroke-linejoin="round"/>
</svg>
