<svg width="37" height="37" viewBox="0 0 37 37" fill="none" xmlns="http://www.w3.org/2000/svg">
<path d="M18.5 0C8.288 0 0 8.288 0 18.5C0 28.712 8.288 37 18.5 37C28.712 37 37 28.712 37 18.5C37 8.288 28.712 0 18.5 0ZM18.5 29.6C17.1433 29.6 16.0333 28.49 16.0333 27.1333C16.0333 25.7767 17.1433 24.6667 18.5 24.6667C19.8567 24.6667 20.9667 25.7767 20.9667 27.1333C20.9667 28.49 19.8567 29.6 18.5 29.6ZM21.3243 10.471L20.498 20.3623C20.4117 21.3983 19.5483 22.2 18.5 22.2C17.4517 22.2 16.5883 21.3983 16.502 20.3623L15.6757 10.471C15.54 8.81833 16.835 7.4 18.5 7.4C20.0787 7.4 21.3367 8.68267 21.3367 10.2367C21.3367 10.3107 21.3367 10.397 21.3243 10.471Z" fill="#FF6174"/>
</svg>
