<svg width="80" height="80" viewBox="0 0 80 80" fill="none" xmlns="http://www.w3.org/2000/svg">
<path d="M66.9844 29.2596C65.3275 26.6992 62.305 25.469 59.3355 25.4278C57.7933 25.4072 56.2482 25.6838 54.7885 26.1783C53.6849 26.552 52.5901 27.0465 51.6247 27.7175C51.6395 27.6292 51.6571 27.5438 51.6718 27.4555C51.919 25.9929 52.0691 24.4919 51.9102 23.0116C51.7572 21.5842 51.2892 20.2481 50.5447 19.0267C50.1856 18.4381 49.7795 17.8848 49.3468 17.3492C48.923 16.8253 48.4816 16.3103 47.9725 15.8659C47.4574 15.4156 46.8776 15.0684 46.2272 14.8506C45.5739 14.6299 44.8852 14.5416 44.1995 14.4798C42.7633 14.3532 41.2977 14.3326 39.9086 14.7652C37.6218 15.4804 35.7442 17.2197 34.567 19.2739C33.3898 21.3282 32.8895 23.7091 32.8159 26.0694C32.7335 25.9693 32.654 25.8693 32.5716 25.7692C31.6269 24.6479 30.5645 23.6267 29.3843 22.7526C26.9828 20.9721 24.028 19.7772 20.9938 20.1657C19.5458 20.3511 18.1537 20.8985 17.0089 21.8138C15.9435 22.6672 15.093 23.7885 14.5986 25.0658C14.0541 26.4785 13.9276 28.0265 14.2366 29.5098C14.5515 31.0313 15.3549 32.4145 16.2526 33.6683C17.056 34.7896 17.9742 35.8402 19.0102 36.7526C19.5458 37.2264 20.1226 37.6678 20.7318 38.0593C20.7083 38.0651 20.6818 38.0681 20.6583 38.074C19.9843 38.2211 19.3251 38.433 18.6894 38.695C17.4121 39.2218 16.2261 39.9722 15.2019 40.9022C13.1859 42.7328 11.8439 45.3521 12.0146 48.1215C12.0941 49.4193 12.5208 50.6819 13.2713 51.7473C13.9658 52.7332 14.887 53.5425 15.9259 54.1488C18.3568 55.5644 21.2881 55.688 23.978 55.0552C25.6055 54.6726 27.1417 54.0134 28.6044 53.2099C28.0629 54.599 27.7127 56.0558 27.7009 57.5538C27.6833 59.7905 28.5073 62.1714 30.2908 63.6017C31.2885 64.4052 32.5186 64.8555 33.7606 65.1145C35.085 65.3882 36.4593 65.4588 37.8014 65.3028C39.1434 65.1468 40.4795 64.776 41.6714 64.1344C42.2336 63.8343 42.7545 63.4487 43.1753 62.969C43.5903 62.5011 43.917 61.9595 44.1818 61.3945C44.7498 60.1878 45.1207 58.8723 45.3708 57.5656C45.568 56.5356 45.6769 55.4878 45.6975 54.4401C45.9741 54.8992 46.2743 55.3466 46.5833 55.7792C47.0601 56.4473 47.5663 57.0918 48.1049 57.7098C48.5934 58.2719 49.1173 58.8135 49.7147 59.2608C50.3445 59.7317 51.042 60.076 51.8013 60.282C52.5812 60.4969 53.4023 60.5852 54.2087 60.6175C55.795 60.6793 57.4284 60.4409 58.8764 59.7699C60.1448 59.1813 61.2602 58.2867 62.0401 57.1183C62.873 55.8704 63.2232 54.3342 63.2291 52.845C63.235 51.4559 62.9171 50.0638 62.3256 48.8072C61.6958 47.474 60.7717 46.335 59.6151 45.4198C58.8469 44.8106 58.0229 44.2602 57.1694 43.7628C57.4902 43.6363 57.8051 43.5038 58.1171 43.3655C59.5827 42.7122 60.9836 41.9117 62.2932 40.9846C63.6029 40.0576 64.8713 39.0157 65.9043 37.7856C66.9373 36.5554 67.7349 35.0839 67.9468 33.474C68.1439 31.9849 67.7878 30.5075 66.9726 29.2478L66.9844 29.2596Z" fill="#FFBD29"/>
<path d="M50.3897 40.3493C50.881 35.0734 46.2977 30.3325 40.1527 29.7603C34.0077 29.1881 28.6279 33.0012 28.1366 38.2772C27.6453 43.5531 32.2286 48.294 38.3736 48.8662C44.5186 49.4384 49.8984 45.6253 50.3897 40.3493Z" fill="#FFD78F"/>
<path d="M37.8867 38.0497C37.7925 39.6036 36.4829 40.7897 34.9614 40.6984C33.4398 40.6072 32.2803 39.2711 32.3715 37.7142C32.4657 36.1603 33.7753 34.9742 35.2969 35.0655C36.8184 35.1567 37.9779 36.4928 37.8867 38.0497Z" fill="white"/>
<path d="M37.3834 37.9698C37.2951 39.4354 36.062 40.5537 34.6258 40.4655C33.1896 40.3772 32.0977 39.1205 32.186 37.6549C32.2743 36.1892 33.5074 35.0709 34.9436 35.1592C36.3798 35.2475 37.4717 36.5041 37.3834 37.9698Z" fill="#403E3D"/>
<path d="M46.1279 38.4475C46.1844 36.8914 44.9938 35.585 43.4685 35.5296C41.9433 35.4742 40.661 36.6908 40.6045 38.2469C40.548 39.803 41.7386 41.1094 43.2639 41.1648C44.7891 41.2201 46.0714 40.0036 46.1279 38.4475Z" fill="white"/>
<path d="M45.5061 38.503C45.4178 39.9686 44.1847 41.0869 42.7485 40.9987C41.3123 40.9104 40.2204 39.6537 40.3087 38.1881C40.397 36.7224 41.6301 35.6041 43.0663 35.6924C44.5025 35.7807 45.5944 37.0374 45.5061 38.503Z" fill="#403E3D"/>
<path d="M38.8668 41.1426C38.8668 41.1426 37.6484 41.5517 38.5431 42.4228C38.5431 42.4228 37.6484 43.0114 38.6873 43.8825" stroke="#403E3D" stroke-linecap="round" stroke-linejoin="round"/>
</svg>