<svg width="44" height="56" viewBox="0 0 44 56" fill="none" xmlns="http://www.w3.org/2000/svg">
<path d="M36.0725 5.64773C35.9388 5.41259 35.7981 5.18667 35.6506 4.96536C35.6368 4.94461 35.6252 4.92617 35.6137 4.90542C33.1932 1.33222 28.9168 -0.48666 24.7443 0.112716H24.7489C24.7489 0.112716 24.735 0.112716 24.7258 0.112716C24.2187 0.186485 23.7138 0.297139 23.2136 0.444678C11.8047 3.13726 4.86111 9.40766 3.90211 10.3136C3.88828 10.3275 3.87214 10.3413 3.85831 10.3551C3.8122 10.4012 3.78684 10.4243 3.78684 10.4243H3.79145C0.769214 13.3635 -0.39496 17.8589 0.960553 21.9554C0.960553 21.9554 3.70155 30.425 10.9333 38.7102C10.9701 38.754 11.0093 38.7978 11.0485 38.8416C12.4893 40.4669 14.7047 41.5227 17.1622 42.0621C18.9534 38.3898 25.9015 26.9648 41.9671 29.7749C42.857 27.8246 43.3111 25.7937 43.0806 23.9195C43.0806 23.9195 42.638 16.3489 36.0702 5.64081L36.0725 5.64773Z" fill="#F36D88"/>
<path d="M41.9694 29.7799C25.9038 26.9698 18.9533 38.3948 17.1644 42.0671C20.0806 42.7057 23.338 42.6158 26.0559 41.8666C26.0559 41.8666 26.0629 41.8666 26.0652 41.8666C30.3161 41.0205 31.4019 43.8007 31.4711 43.9897C31.4711 43.9921 31.4711 43.9944 31.4734 43.999C32.1189 45.7971 33.4467 49.3911 35.2679 53.7596C35.2679 53.7596 36.1301 55.9888 38.1541 56.0003C38.9656 56.0049 39.7448 55.62 40.2358 54.9768C41.4622 53.3654 40.222 51.3229 40.222 51.3229C37.8706 47.2149 35.8327 43.969 34.8022 42.3622C33.3637 39.3123 36.273 36.8387 36.273 36.8387H36.2684C38.5967 35.1005 40.7176 32.5232 41.9717 29.7799H41.9694Z" fill="#D1B88B"/>
<path d="M23.413 15.9656C24.6605 15.3376 25.1521 13.796 24.5109 12.5223C23.8697 11.2486 22.3387 10.7252 21.0911 11.3532C19.8436 11.9811 19.352 13.5228 19.9932 14.7965C20.6343 16.0701 22.1654 16.5936 23.413 15.9656Z" fill="white"/>
<path d="M19.6104 14.5785C20.2421 15.7634 21.6967 16.2221 22.8563 15.602C24.0158 14.9819 24.4446 13.518 23.813 12.3331C23.1813 11.1482 21.7267 10.6894 20.5671 11.3096C19.4075 11.9297 18.9788 13.3935 19.6104 14.5785Z" fill="#403E3D"/>
<path d="M13.9808 18.0824C14.6516 19.3411 16.1939 19.8275 17.4249 19.1705C18.6559 18.5135 19.1124 16.9597 18.4415 15.701C17.7707 14.4423 16.2285 13.9559 14.9974 14.6129C13.7664 15.2699 13.31 16.8237 13.9808 18.0824Z" fill="white"/>
<path d="M13.6166 18.0707C14.2483 19.2556 15.7029 19.7143 16.8625 19.0942C18.022 18.4741 18.4508 17.0102 17.8192 15.8253C17.1875 14.6404 15.7329 14.1816 14.5733 14.8017C13.4138 15.4219 12.985 16.8857 13.6166 18.0707Z" fill="#403E3D"/>
<path d="M16.2079 21.2695L21.6737 21.0044L25.9063 15.9512" stroke="#403E3D" stroke-linecap="round" stroke-linejoin="round"/>
<path d="M25.4014 15.4785L26.4111 16.4214" stroke="#403E3D" stroke-linecap="round" stroke-linejoin="round"/>
</svg>