<svg width="144" height="59" viewBox="0 0 144 59" fill="none" xmlns="http://www.w3.org/2000/svg">
<path d="M81.657 49.6704C83.1348 44.3759 80.0087 38.9044 74.7089 37.4302C69.4091 35.956 63.8991 39.0252 62.4212 44.3197C60.9434 49.6142 64.0695 55.0857 69.3693 56.5599C74.6691 58.0341 80.1791 54.9649 81.657 49.6704Z" fill="#EB8888" stroke="#FBFBFB" stroke-width="4"/>
<path d="M69.638 46.0623C70.3776 46.2159 70.6167 45.0742 69.8751 44.9202C69.1335 44.7662 68.8964 45.9083 69.638 46.0623Z" fill="#392826"/>
<path d="M74.2346 46.1434C74.9743 46.297 75.2134 45.1552 74.4718 45.0012C73.7302 44.8472 73.493 45.9894 74.2346 46.1434Z" fill="#392826"/>
<path d="M70.0334 47.6819C70.4484 48.4174 71.2546 48.8766 72.0904 48.933C72.983 48.9953 73.9715 48.5473 74.2299 47.6399C74.333 47.278 73.7577 47.1606 73.655 47.5205C73.4719 48.1616 72.6488 48.4195 72.0479 48.3484C71.4102 48.2716 70.839 47.9226 70.5216 47.3623C70.3359 47.0338 69.8474 47.3553 70.0315 47.6815L70.0334 47.6819Z" fill="#392826"/>
<g filter="url(#filter0_d_495_395)">
<mask id="path-5-inside-1_495_395" fill="white">
<path fill-rule="evenodd" clip-rule="evenodd" d="M10.4545 0C5.7852 0 2 3.78519 2 8.45447V16.5455C2 21.2148 5.78519 25 10.4545 25H67.9472L72.0727 32.1455L76.1982 25H133.546C138.215 25 142 21.2148 142 16.5455V8.45447C142 3.78519 138.215 0 133.546 0H10.4545Z"/>
</mask>
<path fill-rule="evenodd" clip-rule="evenodd" d="M10.4545 0C5.7852 0 2 3.78519 2 8.45447V16.5455C2 21.2148 5.78519 25 10.4545 25H67.9472L72.0727 32.1455L76.1982 25H133.546C138.215 25 142 21.2148 142 16.5455V8.45447C142 3.78519 138.215 0 133.546 0H10.4545Z" fill="black" fill-opacity="0.8" shape-rendering="crispEdges"/>
<path d="M67.9472 25L68.3803 24.75L68.2359 24.5H67.9472V25ZM72.0727 32.1455L71.6397 32.3955L72.0727 33.1455L72.5057 32.3955L72.0727 32.1455ZM76.1982 25V24.5H75.9095L75.7652 24.75L76.1982 25ZM2.5 8.45447C2.5 4.06134 6.06134 0.5 10.4545 0.5V-0.5C5.50905 -0.5 1.5 3.50905 1.5 8.45447H2.5ZM2.5 16.5455V8.45447H1.5V16.5455H2.5ZM10.4545 24.5C6.06133 24.5 2.5 20.9387 2.5 16.5455H1.5C1.5 21.4909 5.50905 25.5 10.4545 25.5V24.5ZM67.9472 24.5H10.4545V25.5H67.9472V24.5ZM72.5057 31.8955L68.3803 24.75L67.5142 25.25L71.6397 32.3955L72.5057 31.8955ZM75.7652 24.75L71.6397 31.8955L72.5057 32.3955L76.6312 25.25L75.7652 24.75ZM133.546 24.5H76.1982V25.5H133.546V24.5ZM141.5 16.5455C141.5 20.9387 137.939 24.5 133.546 24.5V25.5C138.491 25.5 142.5 21.4909 142.5 16.5455H141.5ZM141.5 8.45447V16.5455H142.5V8.45447H141.5ZM133.546 0.5C137.939 0.5 141.5 4.06134 141.5 8.45447H142.5C142.5 3.50905 138.491 -0.5 133.546 -0.5V0.5ZM10.4545 0.5H133.546V-0.5H10.4545V0.5Z" fill="white" mask="url(#path-5-inside-1_495_395)"/>
</g>
<path d="M22.5273 5.9668V14.8809H21.4609V5.9668H22.5273ZM12.6152 12.2832C14.4541 11.5654 15.7051 9.78809 15.7051 7.86719V6.65039H16.7988V7.86719C16.7852 9.71973 18.0498 11.3809 19.8613 12.0371L19.3008 12.8984C17.8926 12.3584 16.7988 11.2646 16.2588 9.86328C15.7324 11.3535 14.625 12.5498 13.2031 13.1172L12.6152 12.2832ZM14.6797 17.8477V14.0605H15.7461V16.9453H22.9102V17.8477H14.6797ZM28.7344 8.56445C28.7412 10.0752 30.0469 11.4424 31.8379 11.9688L31.3184 12.8027C29.9102 12.3789 28.7891 11.4629 28.2354 10.2666C27.7158 11.5928 26.6016 12.6387 25.1523 13.1172L24.6328 12.2969C26.417 11.6953 27.6748 10.2119 27.6816 8.56445V8.30469H24.9336V7.44336H27.6816V5.89844H28.7617V7.44336H31.4824V8.30469H28.7344V8.56445ZM26.5605 15.8652C26.5537 14.4502 28.1055 13.6436 30.6348 13.6504C33.1572 13.6436 34.709 14.4502 34.709 15.8652C34.709 17.2734 33.1572 18.0801 30.6348 18.0801C28.1055 18.0801 26.5537 17.2734 26.5605 15.8652ZM27.627 15.8652C27.6201 16.7129 28.7686 17.2324 30.6348 17.2324C32.501 17.2324 33.6426 16.7129 33.6426 15.8652C33.6426 14.9971 32.501 14.498 30.6348 14.4844C28.7686 14.498 27.6201 14.9971 27.627 15.8652ZM31.0996 10.3281V9.43945H33.5879V5.95312H34.668V13.3223H33.5879V10.3281H31.0996ZM46.7129 5.95312V18.1348H45.6328V5.95312H46.7129ZM37.1426 11.1348C37.1494 8.55078 38.4346 6.90332 40.2461 6.89648C42.0508 6.90332 43.3564 8.55078 43.3496 11.1348C43.3564 13.7256 42.0508 15.3662 40.2461 15.3594C38.4346 15.3662 37.1494 13.7256 37.1426 11.1348ZM38.1816 11.1348C38.1816 13.1104 39.0293 14.4092 40.2461 14.4023C41.4697 14.4092 42.3105 13.1104 42.3105 11.1348C42.3105 9.15918 41.4697 7.86035 40.2461 7.85352C39.0293 7.86035 38.1816 9.15918 38.1816 11.1348ZM62.3672 5.95312V18.1074H61.3008V11.7363H58.4023V10.8477H61.3008V5.95312H62.3672ZM52.3184 14.9355C55.6064 13.3428 57.1309 10.998 57.3496 8.1543H52.8516V7.2793H58.4297C58.4229 10.7246 56.9668 13.7803 52.9062 15.7969L52.3184 14.9355ZM68.3828 6.8418C70.29 6.84863 71.6436 8.01074 71.6504 9.69922C71.6436 11.3945 70.29 12.5498 68.3828 12.5566C66.4619 12.5498 65.0947 11.3945 65.1016 9.69922C65.0947 8.01074 66.4619 6.84863 68.3828 6.8418ZM64.4727 14.5391C66.7148 14.5459 69.8115 14.5254 72.498 14.1289L72.5801 14.9219C69.7979 15.4414 66.8105 15.4551 64.623 15.4551L64.4727 14.5391ZM66.1543 9.69922C66.1475 10.834 67.084 11.6133 68.3828 11.6133C69.668 11.6133 70.6045 10.834 70.5977 9.69922C70.6045 8.57129 69.668 7.78516 68.3828 7.78516C67.084 7.78516 66.1475 8.57129 66.1543 9.69922ZM73.3047 18.1348V5.95312H74.3711V18.1348H73.3047ZM91.1328 10.6562V11.5312H80.0176V10.6562H83.4561C83.8389 9.16602 83.9277 8.05859 83.9551 7.32031H81.0566V6.44531H85.0215V6.75977C85.0078 7.39551 85.0078 8.7627 84.543 10.6562H88.2617C88.624 9.16602 88.6855 8.07227 88.6924 7.32031H85.8418V6.44531H89.7383V6.9375C89.7383 7.67578 89.7383 8.93359 89.3418 10.6562H91.1328ZM81.3984 17.9434V12.8301H89.7656V13.6641H82.4785V14.9492H89.4512V15.7559H82.4785V17.0957H89.8477V17.9434H81.3984ZM101.619 5.9668V8.85156H103.465V9.75391H101.619V12.7617H100.553V5.9668H101.619ZM92.6367 17.2188C94.1611 16.6582 95.1045 15.3252 95.1113 14.1562V13.2676H96.123V14.1562C96.123 15.2432 96.6904 16.4053 97.8457 17.0752C99.0215 16.3438 99.6025 15.0996 99.6094 14.1562V13.2676H100.662V14.1562C100.655 15.4209 101.564 16.6924 103.137 17.2188L102.59 18.0254C101.38 17.5811 100.539 16.7266 100.129 15.7012C99.7529 16.6924 99.0215 17.6357 97.873 18.1348C96.6836 17.6699 95.9453 16.7607 95.5967 15.7285C95.166 16.7197 94.332 17.5742 93.1836 18.0254L92.6367 17.2188ZM92.7051 11.9961V6.71875H93.7852V11.0938C95.5215 11.0869 97.3057 10.9502 99.2676 10.5605L99.4043 11.4492C97.3398 11.8662 95.501 12.0029 93.6758 11.9961H92.7051ZM107.484 6.89648C109.139 6.90332 110.335 8.3252 110.499 10.6016H113.227V5.95312H114.293V18.1348H113.227V11.4902H110.513C110.396 13.876 109.18 15.3662 107.484 15.3594C105.687 15.3662 104.429 13.7256 104.436 11.1348C104.429 8.55078 105.687 6.90332 107.484 6.89648ZM105.461 11.1348C105.468 13.1104 106.288 14.4092 107.484 14.4023C108.674 14.4092 109.508 13.1104 109.508 11.1348C109.508 9.15918 108.674 7.86035 107.484 7.85352C106.288 7.86035 105.468 9.15918 105.461 11.1348ZM127.445 15.6465V16.5488H116.316V15.6465H119.078V12.3721C118.039 11.832 117.41 10.957 117.41 9.84961C117.41 7.96973 119.256 6.73242 121.854 6.71875C124.451 6.73242 126.297 7.96973 126.297 9.84961C126.297 10.9365 125.688 11.7979 124.684 12.3379V15.6465H127.445ZM118.449 9.84961C118.442 11.21 119.857 12.1191 121.854 12.1191C123.829 12.1191 125.258 11.21 125.258 9.84961C125.258 8.48926 123.829 7.59375 121.854 7.60742C119.857 7.59375 118.442 8.48926 118.449 9.84961ZM120.131 15.6465H123.604V12.7549C123.077 12.8916 122.489 12.9668 121.854 12.9668C121.231 12.9668 120.65 12.8984 120.131 12.7617V15.6465ZM130.385 7.10156L130.289 14.2109H129.141L129.045 7.10156H130.385ZM128.84 16.1934C128.826 15.7148 129.236 15.3184 129.715 15.3184C130.2 15.3184 130.597 15.7148 130.59 16.1934C130.597 16.6787 130.2 17.0752 129.715 17.082C129.236 17.0752 128.826 16.6787 128.84 16.1934Z" fill="white"/>
<defs>
<filter id="filter0_d_495_395" x="0" y="0" width="144" height="36.1455" filterUnits="userSpaceOnUse" color-interpolation-filters="sRGB">
<feFlood flood-opacity="0" result="BackgroundImageFix"/>
<feColorMatrix in="SourceAlpha" type="matrix" values="0 0 0 0 0 0 0 0 0 0 0 0 0 0 0 0 0 0 127 0" result="hardAlpha"/>
<feOffset dy="2"/>
<feGaussianBlur stdDeviation="1"/>
<feComposite in2="hardAlpha" operator="out"/>
<feColorMatrix type="matrix" values="0 0 0 0 0.700081 0 0 0 0 0.700081 0 0 0 0 0.700081 0 0 0 0.25 0"/>
<feBlend mode="normal" in2="BackgroundImageFix" result="effect1_dropShadow_495_395"/>
<feBlend mode="normal" in="SourceGraphic" in2="effect1_dropShadow_495_395" result="shape"/>
</filter>
</defs>
</svg>
