<svg width="50" height="50" viewBox="0 0 50 50" fill="none" xmlns="http://www.w3.org/2000/svg">
<path d="M1.32331 47.728C1.30685 47.7114 1.2903 47.6949 1.27383 47.6784C-0.221056 46.1835 -0.420598 43.8365 0.783258 42.0986C4.21289 37.1473 8.70522 33.0442 13.9906 30.0586L18.9432 35.0112C15.9575 40.2966 11.8544 44.7889 6.90312 48.2185C5.16524 49.4224 2.81811 49.2229 1.32331 47.728Z" fill="url(#paint0_linear_607_1799)"/>
<path d="M7.86426 34.311L14.688 41.1347C16.2841 39.2407 17.7088 37.1929 18.9423 35.0092L13.9898 30.0566C11.8061 31.2901 9.75823 32.7149 7.86426 34.311Z" fill="url(#paint1_linear_607_1799)"/>
<path d="M0.0869141 45.463C0.251237 46.2789 0.648886 47.0527 1.27364 47.6775C1.2901 47.6941 1.30666 47.7105 1.32312 47.7271C2.81801 49.222 5.16504 49.4215 6.90292 48.2176C11.8542 44.788 15.9573 40.2957 18.9429 35.0103L14.7412 30.8086L0.0869141 45.463Z" fill="url(#paint2_linear_607_1799)"/>
<path d="M31.2034 35.5962C41.033 35.5962 49.0015 27.6277 49.0015 17.7981C49.0015 7.96848 41.033 0 31.2034 0C21.3737 0 13.4053 7.96848 13.4053 17.7981C13.4053 27.6277 21.3737 35.5962 31.2034 35.5962Z" fill="url(#paint3_linear_607_1799)"/>
<path d="M31.2035 32.1463C39.1278 32.1463 45.5516 25.7225 45.5516 17.7983C45.5516 9.87404 39.1278 3.4502 31.2035 3.4502C23.2793 3.4502 16.8555 9.87404 16.8555 17.7983C16.8555 25.7225 23.2793 32.1463 31.2035 32.1463Z" fill="url(#paint4_linear_607_1799)"/>
<path d="M13.4053 17.7983C13.4053 27.6278 21.3737 35.5964 31.2034 35.5964C41.033 35.5964 49.0015 27.6278 49.0015 17.7983C49.0015 15.6695 48.6264 13.6286 47.941 11.7363H14.4658C13.7803 13.6285 13.4053 15.6694 13.4053 17.7983Z" fill="url(#paint5_linear_607_1799)"/>
<path d="M18.6187 30.3835C25.5692 37.3341 36.8383 37.3341 43.7889 30.3835C50.7395 23.433 50.7395 12.1638 43.7889 5.21329C42.2836 3.70797 40.5753 2.53005 38.7526 1.67676L15.082 25.3472C15.9354 27.1699 17.1133 28.8782 18.6187 30.3835Z" fill="url(#paint6_linear_607_1799)"/>
<path d="M31.2026 29.9277C37.9015 29.9277 43.332 24.4972 43.332 17.7983C43.332 11.0995 37.9015 5.66895 31.2026 5.66895C24.5037 5.66895 19.0732 11.0995 19.0732 17.7983C19.0732 24.4972 24.5037 29.9277 31.2026 29.9277Z" fill="url(#paint7_linear_607_1799)"/>
<path d="M43.332 17.7983C43.332 11.0995 37.9015 5.66895 31.2026 5.66895C24.5038 5.66895 19.0732 11.0995 19.0732 17.7983C19.0732 19.2491 19.3289 20.64 19.796 21.9296H42.6092C43.0764 20.64 43.332 19.2491 43.332 17.7983Z" fill="url(#paint8_linear_607_1799)"/>
<path d="M39.7793 9.22155C35.0426 4.48479 27.3627 4.4847 22.6258 9.22155C17.8891 13.9583 17.8891 21.6382 22.6258 26.3751C23.6517 27.4009 24.8159 28.2037 26.058 28.7853L42.1894 12.6539C41.6079 11.4116 40.8052 10.2474 39.7793 9.22155Z" fill="url(#paint9_linear_607_1799)"/>
<path d="M31.2022 28.6417C37.1905 28.6417 42.045 23.7872 42.045 17.7989C42.045 11.8106 37.1905 6.95605 31.2022 6.95605C25.2139 6.95605 20.3594 11.8106 20.3594 17.7989C20.3594 23.7872 25.2139 28.6417 31.2022 28.6417Z" fill="url(#paint10_linear_607_1799)"/>
<path d="M17.979 35.8697L13.1293 31.02C12.7634 30.654 12.9572 29.8667 13.5623 29.2615C14.0803 28.7435 14.7471 28.5156 15.1606 28.7154L15.6316 28.943C17.5987 29.8935 19.1056 31.4003 20.056 33.3674L20.2836 33.8385C20.4833 34.2519 20.2555 34.9186 19.7375 35.4367C19.1323 36.0418 18.345 36.2357 17.979 35.8697Z" fill="url(#paint11_linear_607_1799)"/>
<path d="M17.9786 35.8691C18.3445 36.235 19.1319 36.0412 19.737 35.4361C20.2551 34.9181 20.4829 34.2514 20.2831 33.838L20.0555 33.3669C19.5803 32.3834 18.966 31.5149 18.2246 30.7734L15.5537 33.4443L17.9786 35.8691Z" fill="url(#paint12_linear_607_1799)"/>
<path d="M13.5623 29.2602C12.9572 29.8653 12.7633 30.6526 13.1294 31.0187L17.9791 35.8683C18.345 36.2343 19.1324 36.0405 19.7375 35.4354C20.0525 35.1204 20.2592 34.7508 20.3288 34.4163L14.5814 28.6689C14.2469 28.7385 13.8773 28.9453 13.5623 29.2602Z" fill="url(#paint13_linear_607_1799)"/>
<path d="M19.7941 33.2006L15.7998 29.2063C15.4984 28.9048 15.6581 28.2564 16.1564 27.758C16.5831 27.3314 17.1322 27.1437 17.4727 27.3082L17.8607 27.4957C19.4809 28.2784 20.722 29.5195 21.5047 31.1397L21.6922 31.5277C21.8567 31.8682 21.6691 32.4173 21.2424 32.844C20.744 33.3424 20.0955 33.502 19.7941 33.2006Z" fill="url(#paint14_linear_607_1799)"/>
<path d="M19.794 33.2008C20.0955 33.5023 20.7439 33.3425 21.2423 32.8442C21.6689 32.4176 21.8566 31.8684 21.6921 31.5279L21.5046 31.1399C21.1132 30.3298 20.6073 29.6145 19.9966 29.0039L17.7969 31.2037L19.794 33.2008Z" fill="url(#paint15_linear_607_1799)"/>
<path d="M16.1565 27.7584C15.658 28.2568 15.4984 28.9052 15.7999 29.2067L19.7941 33.201C20.0956 33.5025 20.744 33.3427 21.2424 32.8444C21.5018 32.585 21.6721 32.2806 21.7295 32.0051L16.9959 27.2715C16.7202 27.3288 16.4158 27.4991 16.1565 27.7584Z" fill="url(#paint16_linear_607_1799)"/>
<path d="M1.76483 40.7422C1.42872 41.1866 1.10131 41.6385 0.783291 42.0976C0.572456 42.4021 0.405549 42.7255 0.280273 43.0594L5.94152 48.7206C6.27543 48.5952 6.59881 48.4284 6.90325 48.2176C7.36243 47.8995 7.81425 47.5722 8.2587 47.2361L1.76483 40.7422Z" fill="url(#paint17_linear_607_1799)"/>
<defs>
<linearGradient id="paint0_linear_607_1799" x1="6.53648" y1="37.7729" x2="9.31523" y2="40.5516" gradientUnits="userSpaceOnUse">
<stop stop-color="#5A5A5A"/>
<stop offset="1" stop-color="#444444"/>
</linearGradient>
<linearGradient id="paint1_linear_607_1799" x1="13.1864" y1="35.8125" x2="15.6581" y2="33.3409" gradientUnits="userSpaceOnUse">
<stop stop-color="#433F43" stop-opacity="0"/>
<stop offset="1" stop-color="#1A1A1A"/>
</linearGradient>
<linearGradient id="paint2_linear_607_1799" x1="8.76503" y1="40.0006" x2="11.9518" y2="43.1874" gradientUnits="userSpaceOnUse">
<stop stop-color="#433F43" stop-opacity="0"/>
<stop offset="1" stop-color="#1A1A1A"/>
</linearGradient>
<linearGradient id="paint3_linear_607_1799" x1="20.3165" y1="6.91123" x2="39.9557" y2="26.5505" gradientUnits="userSpaceOnUse">
<stop stop-color="#B3DAFE"/>
<stop offset="1" stop-color="#0182FC"/>
</linearGradient>
<linearGradient id="paint4_linear_607_1799" x1="41.2457" y1="27.8404" x2="19.6326" y2="6.22723" gradientUnits="userSpaceOnUse">
<stop stop-color="#B3DAFE"/>
<stop offset="1" stop-color="#0182FC"/>
</linearGradient>
<linearGradient id="paint5_linear_607_1799" x1="31.2034" y1="18.0235" x2="31.2034" y2="38.9606" gradientUnits="userSpaceOnUse">
<stop stop-color="#314DC9" stop-opacity="0"/>
<stop offset="0.2761" stop-color="#304BC4" stop-opacity="0.276"/>
<stop offset="0.5628" stop-color="#2B45B8" stop-opacity="0.563"/>
<stop offset="0.8535" stop-color="#243BA3" stop-opacity="0.854"/>
<stop offset="1" stop-color="#1F3596"/>
</linearGradient>
<linearGradient id="paint6_linear_607_1799" x1="31.3886" y1="17.9462" x2="46.9699" y2="33.5275" gradientUnits="userSpaceOnUse">
<stop stop-color="#314DC9" stop-opacity="0"/>
<stop offset="0.2761" stop-color="#304BC4" stop-opacity="0.276"/>
<stop offset="0.5628" stop-color="#2B45B8" stop-opacity="0.563"/>
<stop offset="0.8535" stop-color="#243BA3" stop-opacity="0.854"/>
<stop offset="1" stop-color="#1F3596"/>
</linearGradient>
<linearGradient id="paint7_linear_607_1799" x1="38.622" y1="25.2176" x2="25.2379" y2="11.8336" gradientUnits="userSpaceOnUse">
<stop stop-color="#F5FBFF"/>
<stop offset="1" stop-color="#DBD5EF"/>
</linearGradient>
<linearGradient id="paint8_linear_607_1799" x1="29.8149" y1="13.7366" x2="26.8883" y2="5.1733" gradientUnits="userSpaceOnUse">
<stop stop-color="#DBD5EF" stop-opacity="0"/>
<stop offset="0.2853" stop-color="#D9D2EE" stop-opacity="0.285"/>
<stop offset="0.4739" stop-color="#D4C9E9" stop-opacity="0.474"/>
<stop offset="0.6346" stop-color="#CBBAE2" stop-opacity="0.635"/>
<stop offset="0.7795" stop-color="#BFA5D7" stop-opacity="0.78"/>
<stop offset="0.9126" stop-color="#AF8ACA" stop-opacity="0.913"/>
<stop offset="1" stop-color="#A274BF"/>
</linearGradient>
<linearGradient id="paint9_linear_607_1799" x1="25.2458" y1="14.9385" x2="19.826" y2="12.337" gradientUnits="userSpaceOnUse">
<stop stop-color="#DBD5EF" stop-opacity="0"/>
<stop offset="0.2853" stop-color="#D9D2EE" stop-opacity="0.285"/>
<stop offset="0.4739" stop-color="#D4C9E9" stop-opacity="0.474"/>
<stop offset="0.6346" stop-color="#CBBAE2" stop-opacity="0.635"/>
<stop offset="0.7795" stop-color="#BFA5D7" stop-opacity="0.78"/>
<stop offset="0.9126" stop-color="#AF8ACA" stop-opacity="0.913"/>
<stop offset="1" stop-color="#A274BF"/>
</linearGradient>
<linearGradient id="paint10_linear_607_1799" x1="19.2374" y1="5.83403" x2="34.9057" y2="21.5024" gradientUnits="userSpaceOnUse">
<stop stop-color="white"/>
<stop offset="1" stop-color="#EAF6FF" stop-opacity="0"/>
</linearGradient>
<linearGradient id="paint11_linear_607_1799" x1="17.7754" y1="31.189" x2="15.8448" y2="33.1195" gradientUnits="userSpaceOnUse">
<stop stop-color="#FEF0AE"/>
<stop offset="1" stop-color="#FAC600"/>
</linearGradient>
<linearGradient id="paint12_linear_607_1799" x1="18.1112" y1="34.1938" x2="18.6939" y2="35.9659" gradientUnits="userSpaceOnUse">
<stop stop-color="#FE9738" stop-opacity="0"/>
<stop offset="1" stop-color="#FE9738"/>
</linearGradient>
<linearGradient id="paint13_linear_607_1799" x1="16.6816" y1="32.2814" x2="15.4738" y2="33.4893" gradientUnits="userSpaceOnUse">
<stop stop-color="#FE9738" stop-opacity="0"/>
<stop offset="1" stop-color="#FE9738"/>
</linearGradient>
<linearGradient id="paint14_linear_607_1799" x1="19.6256" y1="29.3401" x2="18.0356" y2="30.9302" gradientUnits="userSpaceOnUse">
<stop stop-color="#FEF0AE"/>
<stop offset="1" stop-color="#FAC600"/>
</linearGradient>
<linearGradient id="paint15_linear_607_1799" x1="19.9025" y1="31.8156" x2="20.3824" y2="33.2752" gradientUnits="userSpaceOnUse">
<stop stop-color="#FE9738" stop-opacity="0"/>
<stop offset="1" stop-color="#FE9738"/>
</linearGradient>
<linearGradient id="paint16_linear_607_1799" x1="18.7248" y1="30.2414" x2="17.73" y2="31.2362" gradientUnits="userSpaceOnUse">
<stop stop-color="#FE9738" stop-opacity="0"/>
<stop offset="1" stop-color="#FE9738"/>
</linearGradient>
<linearGradient id="paint17_linear_607_1799" x1="0.0766161" y1="31.3909" x2="5.58005" y2="49.4476" gradientUnits="userSpaceOnUse">
<stop stop-color="#433F43" stop-opacity="0"/>
<stop offset="1" stop-color="#1A1A1A"/>
</linearGradient>
</defs>
</svg>
