<svg width="19" height="19" viewBox="0 0 19 19" fill="fill" xmlns="http://www.w3.org/2000/svg">
<path d="M13.7703 0.708984C12.8845 0.72274 12.018 0.969606 11.2583 1.42465C10.4987 1.8797 9.87272 2.52682 9.44371 3.30065C9.0147 2.52682 8.38875 1.8797 7.62908 1.42465C6.8694 0.969606 6.0029 0.72274 5.11709 0.708984C3.70499 0.770235 2.37457 1.38694 1.41648 2.42438C0.458386 3.46181 -0.0494882 4.83564 0.00380829 6.24572C0.00380829 11.5665 8.62244 17.7119 8.98902 17.9726L9.44371 18.2938L9.8984 17.9726C10.265 17.7134 18.8836 11.5665 18.8836 6.24572C18.9369 4.83564 18.429 3.46181 17.4709 2.42438C16.5129 1.38694 15.1824 0.770235 13.7703 0.708984Z" fill="fill"/>
</svg>
