<svg width="18" height="18" viewBox="0 0 18 18" fill="none" xmlns="http://www.w3.org/2000/svg">
<path d="M10.1953 0.308594V3.51541H13.402L10.1953 0.308594Z" fill="#EB8888"/>
<path d="M12.7796 6.32812C13.0995 6.32812 13.4112 6.36413 13.7109 6.43194V4.57031H9.66797C9.37673 4.57031 9.14062 4.3342 9.14062 4.04297V0H1.93359C0.86741 0 0 0.86741 0 1.93359V16.0664C0 17.1326 0.86741 18 1.93359 18H11.7773C12.8435 18 13.7109 17.1326 13.7109 16.0664V14.6618C13.4112 14.7296 13.0995 14.7656 12.7796 14.7656C10.4534 14.7656 8.56083 12.8731 8.56083 10.5469C8.56083 8.22066 10.4534 6.32812 12.7796 6.32812ZM7.20703 13.0078H2.63672C2.34548 13.0078 2.10938 12.7717 2.10938 12.4805C2.10938 12.1892 2.34548 11.9531 2.63672 11.9531H7.20703C7.49827 11.9531 7.73438 12.1892 7.73438 12.4805C7.73438 12.7717 7.49827 13.0078 7.20703 13.0078ZM7.20703 10.8984H2.63672C2.34548 10.8984 2.10938 10.6623 2.10938 10.3711C2.10938 10.0799 2.34548 9.84375 2.63672 9.84375H7.20703C7.49827 9.84375 7.73438 10.0799 7.73438 10.3711C7.73438 10.6623 7.49827 10.8984 7.20703 10.8984ZM7.20703 8.78906H2.63672C2.34548 8.78906 2.10938 8.55295 2.10938 8.26172C2.10938 7.97048 2.34548 7.73438 2.63672 7.73438H7.20703C7.49827 7.73438 7.73438 7.97048 7.73438 8.26172C7.73438 8.55295 7.49827 8.78906 7.20703 8.78906ZM8.61328 6.67969H2.63672C2.34548 6.67969 2.10938 6.44358 2.10938 6.15234C2.10938 5.86111 2.34548 5.625 2.63672 5.625H8.61328C8.90452 5.625 9.14062 5.86111 9.14062 6.15234C9.14062 6.44358 8.90452 6.67969 8.61328 6.67969Z" fill="#EB8888"/>
<path d="M17.8453 14.8671L15.3574 12.3792C15.7262 11.8618 15.9434 11.2292 15.9434 10.5469C15.9434 8.80221 14.524 7.38281 12.7793 7.38281C11.0346 7.38281 9.61523 8.80221 9.61523 10.5469C9.61523 12.2915 11.0346 13.7109 12.7793 13.7109C13.4617 13.7109 14.0942 13.4938 14.6116 13.125L17.0995 15.6128C17.2024 15.7158 17.3374 15.7673 17.4723 15.7673C17.6073 15.7673 17.7423 15.7158 17.8452 15.6128C18.0513 15.4069 18.0513 15.073 17.8453 14.8671Z" fill="#EB8888"/>
</svg>
