<svg width="357" height="364" viewBox="0 0 357 364" fill="none" xmlns="http://www.w3.org/2000/svg">
<path d="M80.839 40.416C80.967 40.256 81.135 40.184 81.343 40.2C81.471 40.232 81.551 40.352 81.583 40.56C81.615 40.752 81.623 41.16 81.607 41.784C81.559 42.808 81.591 43.36 81.703 43.44C81.783 43.504 82.199 43.48 82.951 43.368C83.687 43.24 84.143 43.248 84.319 43.392C84.511 43.536 84.583 43.68 84.535 43.824C84.487 43.968 84.255 44.32 83.839 44.88C83.407 45.424 83.159 45.808 83.095 46.032C83.047 46.256 83.151 46.408 83.407 46.488C83.839 46.632 84.271 46.832 84.703 47.088C85.151 47.328 85.407 47.512 85.471 47.64C85.535 47.832 85.471 48.024 85.279 48.216C85.151 48.344 85.007 48.4 84.847 48.384C84.703 48.352 84.383 48.224 83.887 48C83.055 47.616 82.583 47.392 82.471 47.328C82.391 47.248 82.295 47.24 82.183 47.304C82.071 47.368 81.943 47.48 81.799 47.64C81.655 47.784 81.447 48.024 81.175 48.36C80.759 48.856 80.455 49.184 80.263 49.344C80.071 49.504 79.863 49.584 79.639 49.584C78.951 49.584 78.823 49.28 79.255 48.672L79.903 47.928C80.655 47.112 81.271 46.4 81.751 45.792C82.247 45.184 82.495 44.816 82.495 44.688C82.495 44.544 82.335 44.504 82.015 44.568C81.711 44.648 81.215 44.728 80.527 44.808C79.855 44.872 79.295 44.96 78.847 45.072C78.015 45.248 77.599 45.128 77.599 44.712C77.599 44.424 77.695 44.224 77.887 44.112C78.095 43.984 78.495 43.888 79.087 43.824C79.871 43.728 80.287 43.616 80.335 43.488C80.383 43.36 80.439 42.848 80.503 41.952C80.583 41.104 80.695 40.592 80.839 40.416ZM88.039 44.544C88.167 44.384 88.279 44.312 88.375 44.328C88.471 44.344 88.591 44.432 88.735 44.592C88.831 44.704 88.879 45.024 88.879 45.552C88.879 46.08 88.847 47.072 88.783 48.528C88.719 49.488 88.679 50.392 88.663 51.24C88.647 52.088 88.655 52.584 88.687 52.728C88.751 53.208 88.607 53.576 88.255 53.832C87.919 54.04 87.671 53.968 87.511 53.616L87.487 53.52C87.423 53.344 87.423 52.2 87.487 50.088C87.551 47.96 87.639 46.504 87.751 45.72C87.815 45.08 87.911 44.688 88.039 44.544ZM82.375 49.56C82.519 49.448 82.687 49.416 82.879 49.464C82.991 49.48 83.055 49.568 83.071 49.728C83.103 49.872 83.111 50.168 83.095 50.616L83.047 51.672L84.463 51.552C85.119 51.504 85.519 51.496 85.663 51.528C85.823 51.544 85.935 51.656 85.999 51.864C86.095 52.184 86.023 52.432 85.783 52.608C85.559 52.784 85.207 52.856 84.727 52.824C84.215 52.808 83.535 52.872 82.687 53.016C81.855 53.144 81.223 53.304 80.791 53.496C80.343 53.672 79.983 53.696 79.711 53.568C79.455 53.44 79.319 53.328 79.303 53.232C79.287 53.12 79.375 52.928 79.567 52.656C79.775 52.4 80.191 52.224 80.815 52.128C81.263 52.064 81.527 52 81.607 51.936C81.703 51.872 81.751 51.688 81.751 51.384C81.751 51.016 81.815 50.648 81.943 50.28C82.071 49.896 82.215 49.656 82.375 49.56ZM93.5478 40.248C94.4598 40.104 95.0918 40.024 95.4438 40.008C95.8118 39.992 96.0678 40.04 96.2118 40.152C96.3718 40.248 96.4518 41.16 96.4518 42.888C96.4518 44.6 96.3718 45.56 96.2118 45.768C96.0838 45.928 95.8678 46.008 95.5638 46.008H95.0838L95.1798 43.656C95.1958 42.664 95.1878 42.024 95.1558 41.736C95.1398 41.432 95.0838 41.28 94.9878 41.28C94.7798 41.28 94.0598 41.384 92.8278 41.592C91.8038 41.752 91.1478 41.816 90.8598 41.784C90.5718 41.752 90.4278 41.592 90.4278 41.304C90.4278 41.096 90.6438 40.92 91.0758 40.776C91.5078 40.616 92.3318 40.44 93.5478 40.248ZM93.7158 47.568C96.2918 47.152 97.7478 47.064 98.0838 47.304C98.1958 47.384 98.2998 47.536 98.3958 47.76C98.4278 47.872 98.4278 47.968 98.3958 48.048C98.3638 48.128 98.2678 48.2 98.1078 48.264C97.9638 48.312 97.7638 48.36 97.5078 48.408C97.2518 48.456 96.9318 48.496 96.5478 48.528C95.7638 48.576 94.8518 48.68 93.8118 48.84C93.4918 48.888 93.1078 48.944 92.6598 49.008C92.2118 49.072 91.9798 49.112 91.9638 49.128C91.7398 49.16 91.4278 49.216 91.0278 49.296C90.6918 49.36 90.4358 49.336 90.2598 49.224C90.0998 49.112 90.0438 48.912 90.0918 48.624C90.1078 48.368 90.2758 48.2 90.5958 48.12C90.9158 48.024 91.9558 47.84 93.7158 47.568ZM92.4918 51.216C92.6518 50.992 92.8598 50.904 93.1158 50.952C93.3078 50.984 93.4278 51.072 93.4758 51.216C93.5238 51.344 93.5478 51.672 93.5478 52.2C93.5798 52.984 93.6118 53.4 93.6438 53.448C93.7078 53.496 94.4518 53.336 95.8758 52.968C97.2038 52.632 98.1238 52.456 98.6358 52.44C99.1638 52.424 99.4758 52.544 99.5718 52.8C99.6198 53.008 99.6118 53.184 99.5478 53.328C99.4838 53.456 99.3478 53.56 99.1398 53.64C98.9478 53.704 98.6918 53.736 98.3718 53.736C97.7798 53.736 96.9798 53.896 95.9718 54.216C94.0838 54.84 92.9958 54.992 92.7078 54.672C92.5318 54.432 92.4118 53.84 92.3478 52.896C92.2838 51.952 92.3318 51.392 92.4918 51.216ZM110.325 40.464C110.837 40.272 111.269 40.176 111.621 40.176C111.973 40.176 112.429 40.312 112.989 40.584C113.565 40.856 113.965 41.136 114.189 41.424C114.413 41.712 114.597 42.2 114.741 42.888C114.885 43.576 114.925 44.136 114.861 44.568C114.765 45.048 114.485 45.536 114.021 46.032C113.573 46.528 113.093 46.864 112.581 47.04C111.749 47.312 110.973 47.32 110.253 47.064C109.533 46.792 108.941 46.272 108.477 45.504C107.901 44.528 107.853 43.488 108.333 42.384C108.557 41.888 108.821 41.488 109.125 41.184C109.445 40.88 109.845 40.64 110.325 40.464ZM113.373 42.504C113.197 42.088 112.925 41.792 112.557 41.616C112.205 41.44 111.829 41.4 111.429 41.496C111.045 41.576 110.677 41.728 110.325 41.952C109.973 42.176 109.701 42.504 109.509 42.936C109.333 43.352 109.285 43.784 109.365 44.232C109.429 44.488 109.517 44.728 109.629 44.952C109.757 45.16 109.909 45.344 110.085 45.504C110.277 45.664 110.485 45.792 110.709 45.888C110.949 45.968 111.205 46.008 111.477 46.008C111.829 46.008 112.093 45.968 112.269 45.888C112.445 45.792 112.677 45.592 112.965 45.288C113.685 44.52 113.821 43.592 113.373 42.504ZM117.285 40.752C117.413 40.368 117.717 40.264 118.197 40.44C118.373 40.52 118.453 41.744 118.437 44.112C118.437 46.464 118.349 47.752 118.173 47.976C117.981 48.216 117.805 48.312 117.645 48.264C117.485 48.2 117.373 48.016 117.309 47.712C117.229 47.328 117.181 46.144 117.165 44.16C117.165 42.16 117.205 41.024 117.285 40.752ZM113.685 49.032C114.645 48.936 115.285 48.888 115.605 48.888C115.925 48.872 116.181 48.896 116.373 48.96C116.661 49.072 116.885 49.408 117.045 49.968C117.221 50.528 117.285 51.112 117.237 51.72C117.205 52.328 117.061 52.752 116.805 52.992C116.597 53.2 116.373 53.328 116.133 53.376C115.893 53.408 115.389 53.4 114.621 53.352C113.901 53.336 113.429 53.384 113.205 53.496C112.997 53.592 112.893 53.832 112.893 54.216C112.893 54.568 112.973 54.8 113.133 54.912C113.309 55.04 113.549 55.032 113.853 54.888C114.109 54.744 114.781 54.664 115.869 54.648C116.685 54.632 117.157 54.64 117.285 54.672C117.429 54.704 117.501 54.84 117.501 55.08C117.501 55.336 117.365 55.512 117.093 55.608C116.837 55.704 115.949 55.872 114.429 56.112L112.485 56.448L112.101 56.04C111.829 55.784 111.669 55.264 111.621 54.48C111.557 53.584 111.645 53.016 111.885 52.776C112.141 52.536 112.789 52.376 113.829 52.296C114.917 52.232 115.533 52.128 115.677 51.984C115.853 51.856 115.933 51.552 115.917 51.072C115.901 50.576 115.797 50.288 115.605 50.208C115.445 50.144 114.965 50.168 114.165 50.28C113.381 50.392 112.693 50.528 112.101 50.688C111.605 50.816 111.293 50.8 111.165 50.64C110.861 50.256 111.069 49.888 111.789 49.536C112.285 49.28 112.917 49.112 113.685 49.032ZM123.029 41.424C124.581 41.248 125.565 41.16 125.981 41.16C126.397 41.144 126.661 41.208 126.773 41.352C126.885 41.496 126.885 41.68 126.773 41.904C126.677 42.112 126.389 42.544 125.909 43.2L125.285 44.016L125.717 44.352C126.005 44.576 126.197 44.688 126.293 44.688C126.373 44.688 126.669 44.848 127.181 45.168C127.677 45.52 127.925 45.832 127.925 46.104C127.925 46.744 127.309 46.688 126.077 45.936C125.805 45.76 125.613 45.64 125.501 45.576C125.389 45.512 125.245 45.44 125.069 45.36C124.893 45.28 124.773 45.232 124.709 45.216C124.661 45.184 124.565 45.176 124.421 45.192C124.277 45.208 124.181 45.232 124.133 45.264C124.101 45.296 124.013 45.368 123.869 45.48C123.741 45.576 123.637 45.672 123.557 45.768C123.477 45.848 123.349 45.992 123.173 46.2C122.757 46.648 122.445 46.952 122.237 47.112C122.029 47.272 121.845 47.336 121.685 47.304C121.173 47.224 121.069 46.936 121.373 46.44C121.613 46.072 122.133 45.488 122.933 44.688C124.373 43.248 124.949 42.496 124.661 42.432C124.629 42.416 124.597 42.408 124.565 42.408C124.453 42.408 123.685 42.544 122.261 42.816C121.349 42.976 120.741 43.064 120.437 43.08C120.149 43.096 119.949 43.048 119.837 42.936C119.661 42.76 119.613 42.568 119.693 42.36C119.789 42.136 119.973 41.976 120.245 41.88C120.469 41.784 121.397 41.632 123.029 41.424ZM127.013 48.912C127.365 48.72 127.685 48.656 127.973 48.72C128.277 48.784 128.485 48.968 128.597 49.272C128.693 49.512 128.709 49.704 128.645 49.848C128.581 49.976 128.437 50.072 128.213 50.136C128.005 50.184 127.701 50.192 127.301 50.16C126.613 50.144 126.221 50.216 126.125 50.376C126.013 50.552 125.957 51.36 125.957 52.8C125.957 53.872 125.933 54.504 125.885 54.696C125.853 54.888 125.725 55 125.501 55.032C125.197 55.08 124.997 55.016 124.901 54.84C124.773 54.632 124.733 53.88 124.781 52.584C124.797 51.24 124.781 50.528 124.733 50.448C124.685 50.4 124.149 50.44 123.125 50.568C121.829 50.728 121.029 50.8 120.725 50.784C120.421 50.768 120.253 50.64 120.221 50.4C120.205 50.304 120.237 50.184 120.317 50.04C120.397 49.896 120.485 49.776 120.581 49.68C120.789 49.504 121.157 49.384 121.685 49.32C122.229 49.256 123.349 49.216 125.045 49.2C126.069 49.168 126.725 49.072 127.013 48.912ZM132.193 40.464C132.705 40.272 133.137 40.176 133.489 40.176C133.841 40.176 134.297 40.312 134.857 40.584C135.433 40.856 135.833 41.136 136.057 41.424C136.281 41.712 136.465 42.2 136.609 42.888C136.753 43.576 136.793 44.136 136.729 44.568C136.633 45.048 136.353 45.536 135.889 46.032C135.441 46.528 134.961 46.864 134.449 47.04C133.617 47.312 132.841 47.32 132.121 47.064C131.401 46.792 130.809 46.272 130.345 45.504C129.769 44.528 129.721 43.488 130.201 42.384C130.425 41.888 130.689 41.488 130.993 41.184C131.313 40.88 131.713 40.64 132.193 40.464ZM135.241 42.504C135.065 42.088 134.793 41.792 134.425 41.616C134.073 41.44 133.697 41.4 133.297 41.496C132.913 41.576 132.545 41.728 132.193 41.952C131.841 42.176 131.569 42.504 131.377 42.936C131.201 43.352 131.153 43.784 131.233 44.232C131.297 44.488 131.385 44.728 131.497 44.952C131.625 45.16 131.777 45.344 131.953 45.504C132.145 45.664 132.353 45.792 132.577 45.888C132.817 45.968 133.073 46.008 133.345 46.008C133.697 46.008 133.961 45.968 134.137 45.888C134.313 45.792 134.545 45.592 134.833 45.288C135.553 44.52 135.689 43.592 135.241 42.504ZM139.153 40.752C139.281 40.368 139.585 40.264 140.065 40.44C140.241 40.52 140.321 41.744 140.305 44.112C140.305 46.464 140.217 47.752 140.041 47.976C139.849 48.216 139.673 48.312 139.513 48.264C139.353 48.2 139.241 48.016 139.177 47.712C139.097 47.328 139.049 46.144 139.033 44.16C139.033 42.16 139.073 41.024 139.153 40.752ZM135.553 49.032C136.513 48.936 137.153 48.888 137.473 48.888C137.793 48.872 138.049 48.896 138.241 48.96C138.529 49.072 138.753 49.408 138.913 49.968C139.089 50.528 139.153 51.112 139.105 51.72C139.073 52.328 138.929 52.752 138.673 52.992C138.465 53.2 138.241 53.328 138.001 53.376C137.761 53.408 137.257 53.4 136.489 53.352C135.769 53.336 135.297 53.384 135.073 53.496C134.865 53.592 134.761 53.832 134.761 54.216C134.761 54.568 134.841 54.8 135.001 54.912C135.177 55.04 135.417 55.032 135.721 54.888C135.977 54.744 136.649 54.664 137.737 54.648C138.553 54.632 139.025 54.64 139.153 54.672C139.297 54.704 139.369 54.84 139.369 55.08C139.369 55.336 139.233 55.512 138.961 55.608C138.705 55.704 137.817 55.872 136.297 56.112L134.353 56.448L133.969 56.04C133.697 55.784 133.537 55.264 133.489 54.48C133.425 53.584 133.513 53.016 133.753 52.776C134.009 52.536 134.657 52.376 135.697 52.296C136.785 52.232 137.401 52.128 137.545 51.984C137.721 51.856 137.801 51.552 137.785 51.072C137.769 50.576 137.665 50.288 137.473 50.208C137.313 50.144 136.833 50.168 136.033 50.28C135.249 50.392 134.561 50.528 133.969 50.688C133.473 50.816 133.161 50.8 133.033 50.64C132.729 50.256 132.937 49.888 133.657 49.536C134.153 49.28 134.785 49.112 135.553 49.032ZM158.068 42.936C158.244 42.744 158.388 42.648 158.5 42.648C158.612 42.632 158.74 42.712 158.884 42.888C159.028 43.048 159.036 43.808 158.908 45.168C158.812 46.544 158.812 47.296 158.908 47.424C159.036 47.536 159.628 47.512 160.684 47.352C161.564 47.224 162.124 47.2 162.364 47.28C162.604 47.344 162.692 47.56 162.628 47.928C162.596 48.152 162.436 48.312 162.148 48.408C161.86 48.488 161.076 48.6 159.796 48.744L158.716 48.864V50.928C158.716 51.872 158.692 52.464 158.644 52.704C158.596 52.928 158.476 53.088 158.284 53.184C157.932 53.376 157.708 53.312 157.612 52.992C157.516 52.656 157.476 51.816 157.492 50.472C157.556 45.832 157.748 43.32 158.068 42.936ZM152.764 43.176C152.86 43.176 152.956 43.208 153.052 43.272C153.148 43.32 153.228 43.384 153.292 43.464C153.372 43.528 153.412 43.584 153.412 43.632C153.412 43.792 153.164 44.224 152.668 44.928C152.156 45.616 151.9 46.04 151.9 46.2C151.9 46.344 152.38 46.872 153.34 47.784C154.476 48.888 154.9 49.552 154.612 49.776C154.516 49.856 154.372 49.904 154.18 49.92C153.988 49.952 153.78 49.888 153.556 49.728C153.332 49.568 152.988 49.232 152.524 48.72C152.028 48.192 151.684 47.872 151.492 47.76C151.316 47.632 151.18 47.624 151.084 47.736C150.94 47.896 150.724 48.304 150.436 48.96C150.148 49.616 150.004 50.048 150.004 50.256C150.004 50.464 149.908 50.6 149.716 50.664C149.54 50.712 149.332 50.672 149.092 50.544C148.788 50.384 148.676 50.128 148.756 49.776C148.836 49.424 149.164 48.72 149.74 47.664C150.428 46.4 150.772 45.736 150.772 45.672C150.772 45.624 150.852 45.488 151.012 45.264C151.172 45.04 151.356 44.792 151.564 44.52C151.788 44.232 151.988 43.992 152.164 43.8L152.764 43.176ZM166.25 39.216C166.746 38.992 167.282 38.88 167.858 38.88C168.45 38.864 168.898 38.96 169.202 39.168C170.146 39.792 170.77 40.488 171.074 41.256C171.394 42.024 171.37 42.84 171.002 43.704C170.682 44.44 170.154 44.992 169.418 45.36C168.698 45.712 167.85 45.832 166.874 45.72C166.122 45.64 165.57 45.48 165.218 45.24C164.882 45 164.546 44.544 164.21 43.872C163.986 43.408 163.858 43.08 163.826 42.888C163.81 42.696 163.858 42.384 163.97 41.952C164.114 41.408 164.402 40.872 164.834 40.344C165.282 39.816 165.754 39.44 166.25 39.216ZM169.418 40.752C169.05 40.336 168.626 40.104 168.146 40.056C167.698 40.008 167.346 40.04 167.09 40.152C166.834 40.248 166.49 40.496 166.058 40.896C165.626 41.312 165.346 41.688 165.218 42.024C165.106 42.344 165.122 42.696 165.266 43.08C165.586 43.864 166.082 44.36 166.754 44.568C167.426 44.76 168.13 44.616 168.866 44.136C169.378 43.816 169.738 43.488 169.946 43.152C170.122 42.816 170.154 42.424 170.042 41.976C169.946 41.528 169.738 41.12 169.418 40.752ZM166.082 46.584C166.162 46.44 166.282 46.368 166.442 46.368C166.906 46.368 167.138 46.912 167.138 48C167.138 48.8 167.186 49.224 167.282 49.272C167.378 49.336 167.674 49.32 168.17 49.224L168.914 49.128L168.938 48.144C168.954 47.456 169.01 47.024 169.106 46.848C169.202 46.656 169.402 46.584 169.706 46.632C169.962 46.648 170.106 46.712 170.138 46.824C170.186 46.92 170.202 47.2 170.186 47.664C170.17 48.112 170.178 48.4 170.21 48.528C170.258 48.656 170.394 48.768 170.618 48.864C170.97 49.024 171.266 49.024 171.506 48.864C171.858 48.64 172.178 48.648 172.466 48.888C172.754 49.112 172.802 49.4 172.61 49.752C172.578 49.816 172.522 49.872 172.442 49.92C172.378 49.968 172.266 50.008 172.106 50.04C171.962 50.072 171.778 50.104 171.554 50.136C171.33 50.152 171.026 50.176 170.642 50.208C169.506 50.272 168.458 50.44 167.498 50.712C166.378 51 165.634 51.168 165.266 51.216C164.898 51.248 164.674 51.184 164.594 51.024C164.418 50.528 164.65 50.144 165.29 49.872C165.578 49.744 165.746 49.608 165.794 49.464C165.858 49.32 165.898 48.896 165.914 48.192C165.962 47.216 166.018 46.68 166.082 46.584ZM167.858 51.624C168.418 51.432 168.874 51.336 169.226 51.336C169.578 51.32 169.954 51.4 170.354 51.576C170.914 51.816 171.282 52.048 171.458 52.272C171.65 52.48 171.762 52.824 171.794 53.304C171.858 53.944 171.778 54.496 171.554 54.96C171.33 55.44 170.938 55.856 170.378 56.208C169.658 56.672 168.922 56.84 168.17 56.712C167.418 56.584 166.77 56.184 166.226 55.512C166.034 55.24 165.914 55.008 165.866 54.816C165.818 54.624 165.81 54.32 165.842 53.904C165.954 52.784 166.626 52.024 167.858 51.624ZM170.018 54.768C170.786 54 170.914 53.392 170.402 52.944C169.89 52.496 169.218 52.416 168.386 52.704C167.89 52.88 167.546 53.072 167.354 53.28C167.178 53.488 167.09 53.768 167.09 54.12C167.09 54.536 167.226 54.856 167.498 55.08C167.786 55.32 168.17 55.44 168.65 55.44C168.922 55.44 169.154 55.392 169.346 55.296C169.538 55.216 169.762 55.04 170.018 54.768ZM185.351 43.248C185.495 43.088 185.639 43.008 185.783 43.008C186.055 43.008 186.223 43.168 186.287 43.488C186.351 43.792 186.359 44.464 186.311 45.504L186.215 47.592L187.799 47.472C188.647 47.408 189.231 47.424 189.551 47.52C189.871 47.6 190.031 47.792 190.031 48.096C190.031 48.304 189.903 48.44 189.647 48.504C189.407 48.568 188.759 48.64 187.703 48.72C186.695 48.784 186.175 48.84 186.143 48.888C186.095 48.936 186.063 49.616 186.047 50.928C186.015 51.872 185.975 52.448 185.927 52.656C185.879 52.848 185.743 53 185.519 53.112C185.311 53.224 185.159 53.272 185.063 53.256C184.983 53.24 184.895 53.16 184.799 53.016C184.623 52.808 184.583 52.488 184.679 52.056C184.839 50.952 184.975 48.808 185.087 45.624C185.135 44.2 185.223 43.408 185.351 43.248ZM177.503 44.04C178.991 43.848 179.943 43.76 180.359 43.776C180.775 43.776 180.983 43.896 180.983 44.136C180.983 44.44 180.863 44.832 180.623 45.312C180.399 45.792 180.103 46.264 179.735 46.728C179.383 47.128 179.183 47.392 179.135 47.52C179.103 47.648 179.159 47.824 179.303 48.048C179.463 48.336 179.839 48.712 180.431 49.176C181.295 49.832 181.647 50.376 181.487 50.808C181.375 51.096 181.143 51.192 180.791 51.096C180.455 50.984 180.079 50.696 179.663 50.232C179.119 49.704 178.783 49.336 178.655 49.128C178.559 48.936 178.431 48.84 178.271 48.84C178.111 48.84 177.807 49.104 177.359 49.632C176.927 50.16 176.687 50.552 176.639 50.808C176.575 51.064 176.431 51.248 176.207 51.36C175.999 51.472 175.751 51.488 175.463 51.408C174.759 51.248 174.831 50.688 175.679 49.728C175.919 49.456 176.399 48.88 177.119 48C177.615 47.36 177.999 46.92 178.271 46.68C178.575 46.36 178.807 46.056 178.967 45.768C179.127 45.528 179.207 45.376 179.207 45.312C179.223 45.248 179.159 45.192 179.015 45.144C178.807 45.048 178.047 45.136 176.735 45.408C176.127 45.536 175.607 45.64 175.175 45.72C174.759 45.784 174.503 45.816 174.407 45.816C174.167 45.816 174.015 45.728 173.951 45.552C173.887 45.36 173.935 45.144 174.095 44.904C174.239 44.696 174.519 44.544 174.935 44.448C175.351 44.336 176.207 44.2 177.503 44.04ZM202.187 41.184C202.635 40.688 203.035 40.472 203.387 40.536C203.579 40.568 203.675 40.688 203.675 40.896C203.675 41.12 203.579 41.312 203.387 41.472C202.891 41.888 203.067 42.328 203.915 42.792C205.579 43.704 206.467 44.312 206.579 44.616C206.627 44.728 206.627 44.864 206.579 45.024C206.547 45.184 206.483 45.328 206.387 45.456C206.291 45.568 206.195 45.624 206.099 45.624C205.971 45.624 205.643 45.416 205.115 45C204.731 44.696 204.203 44.352 203.531 43.968C202.875 43.568 202.467 43.368 202.307 43.368C202.227 43.368 201.971 43.696 201.539 44.352C201.107 45.008 200.755 45.616 200.483 46.176C200.291 46.544 200.147 46.76 200.051 46.824C199.971 46.872 199.795 46.848 199.523 46.752C199.427 46.72 199.331 46.68 199.235 46.632C199.155 46.568 199.083 46.504 199.019 46.44C198.971 46.376 198.947 46.32 198.947 46.272C198.947 46.096 199.291 45.528 199.979 44.568C200.651 43.544 201.091 42.848 201.299 42.48C201.523 42.032 201.819 41.6 202.187 41.184ZM205.667 48.48C206.179 48.32 206.643 48.336 207.059 48.528C207.491 48.704 207.643 48.96 207.515 49.296C207.435 49.488 207.251 49.632 206.963 49.728C206.675 49.824 206.395 49.84 206.123 49.776C205.819 49.712 205.467 49.712 205.067 49.776L204.515 49.896L204.467 52.248C204.451 53.912 204.435 54.8 204.419 54.912C204.419 55.136 204.235 55.248 203.867 55.248C203.675 55.248 203.531 55.216 203.435 55.152C203.339 55.104 203.259 54.968 203.195 54.744C203.131 54.536 203.099 54.24 203.099 53.856C203.115 53.456 203.123 52.92 203.123 52.248C203.155 51.208 203.155 50.584 203.123 50.376C203.107 50.168 203.011 50.072 202.835 50.088C202.707 50.12 202.099 50.168 201.011 50.232C200.835 50.248 200.635 50.264 200.411 50.28C200.203 50.296 200.019 50.312 199.859 50.328C199.699 50.328 199.539 50.336 199.379 50.352C199.219 50.368 199.107 50.376 199.043 50.376C198.803 50.408 198.643 50.4 198.563 50.352C198.499 50.288 198.459 50.152 198.443 49.944C198.395 49.672 198.435 49.472 198.563 49.344C198.707 49.216 198.963 49.12 199.331 49.056C199.699 48.992 200.307 48.952 201.155 48.936C203.507 48.84 205.011 48.688 205.667 48.48ZM276.758 41.28C276.966 40.88 277.27 40.816 277.67 41.088C277.766 41.136 277.814 41.4 277.814 41.88C277.83 42.344 277.806 43.224 277.742 44.52C277.646 46.456 277.598 47.8 277.598 48.552C277.598 48.904 277.574 49.12 277.526 49.2C277.478 49.264 277.318 49.296 277.046 49.296C276.774 49.296 276.606 49.248 276.542 49.152C276.494 49.056 276.454 48.72 276.422 48.144L276.374 46.992L275.678 47.088C275.166 47.168 274.718 47.256 274.334 47.352C274.126 47.4 273.934 47.424 273.758 47.424C273.582 47.408 273.43 47.368 273.302 47.304C273.19 47.24 273.102 47.16 273.038 47.064C272.99 46.968 272.982 46.856 273.014 46.728C273.046 46.6 273.126 46.464 273.254 46.32C273.43 46.144 273.942 46.016 274.79 45.936C275.542 45.872 276.03 45.768 276.254 45.624C276.478 45.464 276.574 45.192 276.542 44.808C276.51 44.552 276.454 44.392 276.374 44.328C276.31 44.264 276.158 44.232 275.918 44.232C275.598 44.232 275.15 44.28 274.574 44.376C274.03 44.472 273.702 44.432 273.59 44.256C273.494 44.064 273.63 43.784 273.998 43.416C274.19 43.224 274.398 43.088 274.622 43.008C274.862 42.912 275.19 42.848 275.606 42.816C276.118 42.768 276.422 42.72 276.518 42.672C276.614 42.608 276.646 42.448 276.614 42.192C276.598 41.824 276.646 41.52 276.758 41.28ZM270.062 41.28C270.126 41.2 270.406 41.168 270.902 41.184C271.398 41.2 271.694 41.256 271.79 41.352C271.886 41.432 271.934 42.424 271.934 44.328C271.95 46.216 271.918 47.288 271.838 47.544C271.838 47.544 271.83 47.552 271.814 47.568C271.734 47.824 271.59 47.984 271.382 48.048C271.174 48.112 270.478 48.208 269.294 48.336C269.198 48.352 269.126 48.36 269.078 48.36C268.55 48.424 268.078 48.496 267.662 48.576C267.438 48.624 267.278 48.616 267.182 48.552C267.102 48.488 267.006 48.32 266.894 48.048C266.67 47.536 266.478 46.176 266.318 43.968C266.27 43.44 266.39 43.008 266.678 42.672C266.902 42.4 267.318 42.136 267.926 41.88C268.55 41.608 269.054 41.472 269.438 41.472C269.774 41.472 269.982 41.408 270.062 41.28ZM270.734 44.568C270.734 43.848 270.718 43.344 270.686 43.056C270.654 42.768 270.598 42.632 270.518 42.648C270.134 42.68 269.694 42.76 269.198 42.888C268.718 43.016 268.35 43.144 268.094 43.272C267.822 43.416 267.654 43.544 267.59 43.656C267.542 43.768 267.55 43.976 267.614 44.28C267.678 44.808 267.71 45.376 267.71 45.984V47.016L268.934 46.896C268.998 46.88 269.078 46.872 269.174 46.872C269.494 46.84 269.718 46.816 269.846 46.8C269.974 46.784 270.118 46.744 270.278 46.68C270.438 46.616 270.534 46.56 270.566 46.512C270.598 46.448 270.638 46.328 270.686 46.152C270.734 45.96 270.758 45.792 270.758 45.648C270.758 45.504 270.75 45.248 270.734 44.88C270.734 44.752 270.734 44.648 270.734 44.568ZM273.566 50.04C274.142 49.88 274.534 49.808 274.742 49.824C274.966 49.84 275.246 49.968 275.582 50.208C275.918 50.448 276.23 50.84 276.518 51.384C276.806 51.912 276.95 52.368 276.95 52.752C276.95 53.568 276.702 54.304 276.206 54.96C275.726 55.632 275.15 56.024 274.478 56.136C273.806 56.248 273.038 56.024 272.174 55.464C271.31 54.904 270.806 54.312 270.662 53.688C270.63 53.496 270.63 53.24 270.662 52.92C270.71 52.6 270.782 52.312 270.878 52.056C270.974 51.8 271.07 51.672 271.166 51.672C271.262 51.672 271.31 51.6 271.31 51.456C271.31 51.248 271.526 51.008 271.958 50.736C272.406 50.448 272.942 50.216 273.566 50.04ZM274.934 51.336C274.758 51.208 274.598 51.144 274.454 51.144C274.31 51.144 273.998 51.208 273.518 51.336C273.118 51.432 272.742 51.672 272.39 52.056C272.038 52.424 271.862 52.768 271.862 53.088C271.862 53.36 272.038 53.688 272.39 54.072C272.758 54.472 273.102 54.72 273.422 54.816C274.574 55.088 275.318 54.512 275.654 53.088C275.798 52.432 275.558 51.848 274.934 51.336Z" fill="#635E5E"/>
<path d="M117.429 81.3344C117.689 80.9444 118.166 80.7927 118.859 80.8794C119.552 80.966 120.007 81.2477 120.224 81.7244C120.527 82.2877 120.549 84.4544 120.289 88.2244C119.942 92.471 119.726 96.8044 119.639 101.224C119.596 104.171 119.509 106.164 119.379 107.204C119.249 108.244 119.011 108.851 118.664 109.024C118.187 109.371 117.624 109.436 116.974 109.219C116.541 109.046 116.302 108.309 116.259 107.009C116.216 105.709 116.281 102.113 116.454 96.2194C116.671 89.676 116.822 85.6677 116.909 84.1944C116.996 82.721 117.169 81.7677 117.429 81.3344ZM96.499 82.8944C98.4924 82.331 100.637 82.071 102.934 82.1144C105.274 82.1577 106.769 82.4827 107.419 83.0894C107.852 83.5227 108.112 86.296 108.199 91.4094C108.329 96.4794 108.199 99.2094 107.809 99.5994C107.549 99.8594 105.079 100.336 100.399 101.029C97.2357 101.419 95.264 101.614 94.484 101.614C93.704 101.614 93.184 101.419 92.924 101.029C92.274 100.119 91.8624 97.4544 91.689 93.0344C91.5157 88.571 91.689 85.8844 92.209 84.9744C92.6857 84.281 94.1157 83.5877 96.499 82.8944ZM104.169 85.6894C103.649 85.516 103.259 85.4294 102.999 85.4294C102.956 85.4727 102.782 85.516 102.479 85.5594C102.219 85.6027 101.851 85.6677 101.374 85.7544C100.897 85.841 100.464 85.906 100.074 85.9494C97.3874 86.3827 95.8274 86.8377 95.394 87.3144C94.9607 87.791 94.744 89.286 94.744 91.7994C94.744 94.5727 94.8307 96.241 95.004 96.8044C95.2207 97.3244 96.7157 97.4977 99.489 97.3244C102.176 97.1944 103.801 97.0427 104.364 96.8694C104.754 96.7394 104.949 94.8977 104.949 91.3444C104.949 89.1777 104.884 87.726 104.754 86.9894C104.667 86.2527 104.472 85.8194 104.169 85.6894ZM132.65 74.2494C134.123 74.076 136.138 73.9027 138.695 73.7294C139.388 73.686 139.93 74.011 140.32 74.7044C140.71 75.3977 140.731 76.0694 140.385 76.7194C140.211 77.0227 139.778 77.2177 139.085 77.3044C138.391 77.3477 137.07 77.3477 135.12 77.3044C131.956 77.1744 129.855 77.3477 128.815 77.8244C127.775 78.301 127.146 79.4277 126.93 81.2044C126.756 82.721 126.8 83.891 127.06 84.7144C127.32 85.2777 127.58 85.581 127.84 85.6244C128.1 85.6244 128.923 85.451 130.31 85.1044C132.26 84.6277 134.361 84.3894 136.615 84.3894C137.698 84.3894 138.5 84.411 139.02 84.4544C139.583 84.4977 139.995 84.5844 140.255 84.7144C140.515 84.8444 140.71 85.061 140.84 85.3644C141.403 86.361 140.818 87.0544 139.085 87.4444C138.218 87.661 136.918 87.8344 135.185 87.9644C131.935 88.311 129.833 88.636 128.88 88.9394C128.186 89.2427 127.753 89.5027 127.58 89.7194C127.406 89.936 127.385 90.3044 127.515 90.8244C127.601 91.431 127.731 91.7994 127.905 91.9294C128.121 92.016 128.62 91.9944 129.4 91.8644C134.253 91.041 137.59 90.6294 139.41 90.6294C141.23 90.6294 142.205 91.041 142.335 91.8644C142.335 91.9077 142.335 91.951 142.335 91.9944C142.421 92.4277 142.226 92.7527 141.75 92.9694C141.056 93.2294 137.763 93.9444 131.87 95.1144L131.805 95.1794H131.74H131.675H131.61H131.545L131.48 95.2444H131.415H131.35H131.285H131.22L131.155 95.3094H131.09H131.025H130.96H130.895L130.83 95.3744H130.765C128.901 95.7644 127.666 95.9594 127.06 95.9594C126.496 95.9594 126.063 95.8077 125.76 95.5044C124.893 94.681 124.243 90.716 123.81 83.6094C123.723 82.5694 123.68 81.7027 123.68 81.0094C123.68 80.316 123.723 79.6444 123.81 78.9944C123.896 78.301 124.005 77.7594 124.135 77.3694C124.265 76.9794 124.503 76.611 124.85 76.2644C125.196 75.8744 125.565 75.5927 125.955 75.4194C126.345 75.246 126.886 75.0727 127.58 74.8994C128.273 74.726 129.01 74.596 129.79 74.5094C130.57 74.4227 131.523 74.336 132.65 74.2494ZM146.82 77.4994C146.993 77.0227 147.383 76.7627 147.99 76.7194C148.596 76.676 149.073 76.871 149.42 77.3044C149.636 77.651 149.745 80.8577 149.745 86.9244C149.788 92.991 149.701 96.1544 149.485 96.4144C149.311 96.5444 148.77 96.4577 147.86 96.1544L146.495 95.6344V86.9894C146.495 81.2694 146.603 78.106 146.82 77.4994ZM141.685 99.0144C142.595 98.9277 143.158 98.841 143.375 98.7544C143.548 98.6677 143.916 98.7977 144.48 99.1444C145.086 99.4477 145.715 99.9027 146.365 100.509C147.015 101.073 147.513 101.614 147.86 102.134C148.466 102.958 148.856 103.651 149.03 104.214C149.203 104.778 149.268 105.709 149.225 107.009C149.181 108.266 149.051 109.241 148.835 109.934C148.618 110.628 148.206 111.386 147.6 112.209C145.563 115.026 143.158 116.131 140.385 115.524C138.998 115.221 137.568 114.484 136.095 113.314C134.621 112.188 133.603 110.974 133.04 109.674C132.39 108.374 132.173 107.183 132.39 106.099C132.606 104.973 133.278 103.781 134.405 102.524C134.795 102.048 135.163 101.658 135.51 101.354C135.856 101.051 136.225 100.791 136.615 100.574C137.048 100.314 137.503 100.098 137.98 99.9244C138.5 99.7077 139.041 99.5344 139.605 99.4044C140.211 99.2744 140.905 99.1444 141.685 99.0144ZM145 103.694C144.306 102.871 143.635 102.394 142.985 102.264C142.335 102.091 141.403 102.221 140.19 102.654C139.366 102.914 138.608 103.283 137.915 103.759C137.265 104.236 136.745 104.778 136.355 105.384C135.965 105.948 135.77 106.489 135.77 107.009C135.77 107.833 136.355 108.873 137.525 110.129C138.695 111.386 139.778 112.123 140.775 112.339C141.468 112.469 142.01 112.448 142.4 112.274C142.833 112.101 143.44 111.603 144.22 110.779C144.913 110.043 145.368 109.436 145.585 108.959C145.845 108.439 145.975 107.768 145.975 106.944C145.975 105.644 145.65 104.561 145 103.694ZM161.129 69.6994C161.476 69.3527 161.953 69.1577 162.559 69.1144C163.166 69.071 163.556 69.2227 163.729 69.5694C163.946 69.786 164.163 70.9777 164.379 73.1444L164.704 76.3294L167.824 75.8744C170.381 75.571 171.984 75.4627 172.634 75.5494C173.284 75.636 173.783 76.026 174.129 76.7194C174.519 77.5427 174.519 78.1927 174.129 78.6694C173.783 79.146 173.133 79.276 172.179 79.0594C171.573 78.9294 169.688 79.1244 166.524 79.6444C163.361 80.121 160.393 80.706 157.619 81.3994C154.586 82.1794 153.069 81.811 153.069 80.2944C153.069 79.8177 153.199 79.4494 153.459 79.1894C153.763 78.886 154.304 78.5827 155.084 78.2794C156.558 77.8027 157.923 77.6077 159.179 77.6944H161.129L160.869 73.9894C160.609 71.5194 160.696 70.0894 161.129 69.6994ZM180.174 79.3194C180.348 78.9727 180.868 78.7994 181.734 78.7994H183.034L182.839 83.2194L182.709 87.7044H185.504C187.064 87.7044 188.126 87.8344 188.689 88.0944C189.296 88.311 189.599 88.7877 189.599 89.5244C189.599 90.1744 189.361 90.6294 188.884 90.8894C188.408 91.106 187.606 91.1927 186.479 91.1494C185.223 91.106 184.139 91.236 183.229 91.5394C182.623 91.7994 182.254 92.081 182.124 92.3844C182.038 92.6444 182.081 93.2944 182.254 94.3344C182.471 96.0244 182.471 97.1944 182.254 97.8444C182.124 98.5377 181.669 99.036 180.889 99.3394C180.109 99.5994 179.568 99.491 179.264 99.0144C178.961 98.6244 178.896 95.6994 179.069 90.2394C179.243 86.036 179.394 83.2844 179.524 81.9844C179.654 80.641 179.871 79.7527 180.174 79.3194ZM160.934 84.2594C162.538 83.436 163.578 83.0244 164.054 83.0244C164.574 82.981 165.593 83.241 167.109 83.8044C169.319 84.5844 170.814 85.4944 171.594 86.5344C172.418 87.531 172.851 89.026 172.894 91.0194C173.024 94.3127 171.313 96.7827 167.759 98.4294C166.329 99.1227 165.029 99.5344 163.859 99.6644C162.689 99.751 161.368 99.5777 159.894 99.1444C158.248 98.711 157.056 98.0394 156.319 97.1294C155.583 96.2194 155.149 94.9194 155.019 93.2294C154.889 91.8427 154.889 90.8894 155.019 90.3694C155.149 89.8494 155.626 89.0477 156.449 87.9644C157.489 86.5344 158.984 85.2994 160.934 84.2594ZM168.474 87.5094C167.391 86.5127 165.918 86.231 164.054 86.6644C162.191 87.0977 160.523 88.0944 159.049 89.6544C158.486 90.2177 158.139 90.6944 158.009 91.0844C157.923 91.4744 157.944 92.0594 158.074 92.8394C158.421 94.2694 159.374 95.331 160.934 96.0244C162.538 96.7177 164.033 96.696 165.419 95.9594C167.499 94.9194 168.843 93.5544 169.449 91.8644C170.099 90.131 169.774 88.6794 168.474 87.5094ZM172.504 103.304C177.314 102.784 180.131 102.784 180.954 103.304C181.258 103.478 181.453 103.998 181.539 104.864C181.626 105.731 181.669 107.334 181.669 109.674V115.589L180.304 116.044C179.394 116.348 178.809 116.174 178.549 115.524C178.333 114.918 178.246 113.271 178.289 110.584C178.333 107.854 178.224 106.403 177.964 106.229C177.618 106.013 174.411 106.489 168.344 107.659C167.434 107.833 166.719 107.724 166.199 107.334C165.723 106.901 165.593 106.359 165.809 105.709C166.069 105.059 166.654 104.561 167.564 104.214C168.388 103.868 170.034 103.564 172.504 103.304ZM233.104 80.1644C233.624 79.9477 234.166 79.861 234.729 79.9044C235.292 79.9044 235.661 80.0344 235.834 80.2944C236.007 80.5544 235.899 83.1327 235.509 88.0294C235.162 92.4494 234.859 96.761 234.599 100.964C234.426 103.868 234.144 105.731 233.754 106.554C233.407 107.334 232.736 107.551 231.739 107.204C231.306 107.031 231.046 106.186 230.959 104.669C230.916 103.109 231.067 100.531 231.414 96.9344L231.739 92.9694L229.399 93.2294C227.796 93.446 226.257 93.8794 224.784 94.5294L222.314 95.5044V100.899C222.271 103.023 222.184 104.474 222.054 105.254C221.924 105.991 221.686 106.489 221.339 106.749C219.736 107.963 218.956 107.334 218.999 104.864C219.086 100.271 219.259 95.2877 219.519 89.9144C219.822 84.4977 220.082 81.5944 220.299 81.2044C220.516 80.7277 220.906 80.446 221.469 80.3594C222.076 80.2727 222.661 80.4244 223.224 80.8144C223.484 80.9877 223.614 81.3777 223.614 81.9844C223.657 82.591 223.549 83.826 223.289 85.6894C222.856 88.636 222.747 90.196 222.964 90.3694C223.051 90.4994 223.527 90.521 224.394 90.4344C225.304 90.3477 226.257 90.2177 227.254 90.0444C228.294 89.871 229.269 89.676 230.179 89.4594C231.132 89.1994 231.696 89.0044 231.869 88.8744C232.259 88.5277 232.454 87.0327 232.454 84.3894C232.454 81.746 232.671 80.3377 233.104 80.1644ZM204.894 83.0894C207.104 82.656 208.491 82.4394 209.054 82.4394C209.617 82.4394 210.094 82.656 210.484 83.0894C210.831 83.5227 210.961 84.3244 210.874 85.4944C210.831 86.621 210.571 88.7227 210.094 91.7994C210.051 92.146 209.877 93.251 209.574 95.1144C209.271 96.9777 209.054 98.3644 208.924 99.2744C208.577 101.918 208.231 103.369 207.884 103.629C207.711 103.759 207.386 103.824 206.909 103.824C205.956 103.824 205.392 103.456 205.219 102.719C205.089 101.983 205.241 100.401 205.674 97.9744C206.844 91.561 207.429 87.8994 207.429 86.9894C207.429 86.686 207.386 86.4694 207.299 86.3394C207.212 86.166 207.082 86.101 206.909 86.1444C206.562 86.4044 204.851 86.7727 201.774 87.2494C198.741 87.726 196.704 87.9644 195.664 87.9644C194.451 87.9644 193.627 87.7044 193.194 87.1844C192.414 86.2744 193.151 85.516 195.404 84.9094C196.097 84.736 196.964 84.5627 198.004 84.3894C200.474 83.9994 202.771 83.566 204.894 83.0894ZM244.864 70.9344C246.727 70.4144 248.699 70.1544 250.779 70.1544C252.902 70.111 254.289 70.436 254.939 71.1294C255.589 71.7794 256.044 73.361 256.304 75.8744C256.39 76.9577 256.455 77.7377 256.499 78.2144C256.542 78.691 256.52 79.2327 256.434 79.8394C256.347 80.4027 256.239 80.771 256.109 80.9444C255.979 81.0744 255.654 81.291 255.134 81.5944C254.657 81.8544 254.18 82.0494 253.704 82.1794C253.27 82.266 252.534 82.4394 251.494 82.6994C248.114 83.566 246.034 84.1727 245.254 84.5194C244.517 84.866 244.214 85.4727 244.344 86.3394C244.387 86.816 244.495 87.1627 244.669 87.3794C244.885 87.5527 245.189 87.596 245.579 87.5094C248.049 87.206 250.627 86.6427 253.314 85.8194C255.957 85.0394 257.279 85.6027 257.279 87.5094C257.279 87.986 257.149 88.3327 256.889 88.5494C256.672 88.7227 256.109 88.896 255.199 89.0694C254.289 89.1994 252.36 89.676 249.414 90.4994C245.644 91.5394 243.195 91.7994 242.069 91.2794C240.985 90.7594 240.574 89.1777 240.834 86.5344C241.007 84.5844 241.484 83.2627 242.264 82.5694C243.087 81.876 244.82 81.226 247.464 80.6194C248.59 80.3594 249.435 80.1644 249.999 80.0344C250.562 79.9044 251.104 79.7527 251.624 79.5794C252.187 79.3627 252.555 79.211 252.729 79.1244C252.902 78.9944 253.054 78.7777 253.184 78.4744C253.314 78.171 253.357 77.911 253.314 77.6944C253.314 77.4344 253.27 77.0444 253.184 76.5244C252.924 75.181 252.642 74.271 252.339 73.7944C251.819 73.1444 249.522 73.361 245.449 74.4444C243.759 74.921 242.264 75.1594 240.964 75.1594C240.227 75.1594 239.729 75.0944 239.469 74.9644C239.252 74.8344 239.144 74.5744 239.144 74.1844C239.144 73.0144 241.05 71.931 244.864 70.9344ZM249.284 92.9044C250.324 91.6477 251.082 91.6694 251.559 92.9694C251.775 93.6194 251.884 94.4644 251.884 95.5044C251.884 96.3277 251.949 96.826 252.079 96.9994C252.252 97.1294 252.75 97.1077 253.574 96.9344C254.44 96.761 255.892 96.566 257.929 96.3494C259.055 96.176 259.792 96.1327 260.139 96.2194C260.485 96.306 260.789 96.5877 261.049 97.0644C261.439 97.7577 261.525 98.3427 261.309 98.8194C261.135 99.296 260.659 99.6644 259.879 99.9244C259.142 100.141 258.124 100.249 256.824 100.249C255.48 100.249 253.444 100.509 250.714 101.029C244.864 102.113 241.744 102.069 241.354 100.899C241.05 100.163 241.354 99.5127 242.264 98.9494C243.217 98.386 244.387 98.1694 245.774 98.2994L248.114 98.4294L248.374 96.0894C248.547 94.5727 248.85 93.511 249.284 92.9044ZM245.384 105.774C245.817 105.471 246.38 105.363 247.074 105.449C247.594 105.536 247.897 105.796 247.984 106.229C248.07 106.619 248.005 107.594 247.789 109.154C247.789 109.154 247.789 109.176 247.789 109.219C247.702 109.999 247.854 110.433 248.244 110.519C248.634 110.606 250.02 110.498 252.404 110.194C252.62 110.194 252.794 110.194 252.924 110.194C253.097 110.151 253.335 110.108 253.639 110.064C257.929 109.544 260.442 109.306 261.179 109.349C261.959 109.349 262.479 109.631 262.739 110.194C262.739 110.238 262.76 110.281 262.804 110.324C263.02 110.931 263.02 111.429 262.804 111.819C262.63 112.209 262.219 112.491 261.569 112.664C260.919 112.881 260.074 112.989 259.034 112.989C257.43 112.903 254.96 113.271 251.624 114.094C248.287 114.874 246.38 115.069 245.904 114.679C245.08 114.203 244.582 112.708 244.409 110.194C244.235 107.724 244.56 106.251 245.384 105.774Z" fill="#1A1A1A"/>
<g clip-path="url(#clip0_719_516)">
<path d="M23.9446 12.377C29.1304 10.095 35.112 12.7256 37.3087 18.2545C37.8918 19.7183 38.1472 21.2391 38.1148 22.7266C38.1148 22.7266 38.1131 22.731 38.1114 22.7353C38.0978 23.4725 38.0101 24.2005 37.8559 24.9122C37.5335 27.8758 37.0682 33.0761 37.4678 35.5279L30.8366 38.7368C30.8366 38.7368 26.0256 34.3227 22.4842 31.5034C22.1161 31.2513 21.7607 30.979 21.4214 30.6777C20.2017 29.5927 19.1958 28.1935 18.5341 26.5317C16.3374 21.0028 18.7612 14.665 23.9429 12.3813L23.9446 12.377Z" fill="#EFC344"/>
<path d="M35.46 36.8432C35.0777 35.5499 34.8007 34.2226 34.5439 32.8933C34.2872 31.5639 34.0666 30.2539 33.8788 28.9216C33.7812 28.2464 33.6937 27.5701 33.6146 26.8972C33.5379 26.2556 33.389 25.5499 33.5346 24.9106C33.5916 24.6503 33.7095 24.3081 33.9666 24.1828C34.2987 24.0266 34.5083 24.3623 34.6011 24.6366C34.7824 25.1581 34.8256 25.7359 34.724 26.2866C34.6703 26.5634 34.5896 26.8345 34.4627 27.0872C34.3468 27.3241 34.2005 27.5641 33.9686 27.6994C33.698 27.8598 33.412 27.7716 33.2004 27.5664C32.9887 27.3612 32.7974 27.1287 32.6144 26.8995C31.8868 25.9845 31.3035 24.9348 30.8947 23.8229C30.791 23.5393 30.6949 23.2486 30.6132 22.9586C30.5414 22.6927 30.4791 22.3901 30.6556 22.147C30.8322 21.9038 31.1707 21.8815 31.3553 22.1315C31.5214 22.354 31.5828 22.6966 31.647 22.9696C31.7903 23.5518 31.8779 24.1776 31.8419 24.7846C31.812 25.288 31.6784 25.8463 31.2919 26.193C30.5148 26.8849 29.3408 26.0706 28.7216 25.5522C28.0672 24.9997 27.3922 24.2621 27.1359 23.4077C27.0475 23.11 26.9653 22.6581 27.1823 22.3855C27.4585 22.0354 27.833 22.3962 28.0058 22.6516C28.2457 23.0095 28.4282 23.4152 28.5425 23.8344C28.7135 24.4579 28.8331 25.1014 28.8819 25.7522C28.9243 26.2944 28.8281 27.0443 28.1638 27.0939C27.9027 27.1166 27.6504 27.0165 27.4175 26.9039C27.1636 26.783 26.9198 26.6358 26.6904 26.4639C26.2165 26.1092 25.8043 25.6578 25.4831 25.1465C25.3431 24.9192 25.1897 24.6764 25.096 24.417C25.0024 24.1576 25.0384 23.9143 25.2518 23.7514C25.6415 23.4463 26.065 24.0942 26.2352 24.3689C26.5463 24.856 26.8034 25.3823 27.0108 25.9243C27.2183 26.4662 27.4045 27.0756 27.4796 27.6711C27.5167 27.9637 27.4772 28.2663 27.3006 28.5094C27.1443 28.7252 26.9091 28.8693 26.6572 28.931C26.0515 29.0797 25.5088 28.6522 25.1327 28.2202C24.9673 28.0333 24.7617 27.8002 24.7969 27.5212C24.8321 27.2422 25.0741 27.1058 25.3156 27.146C25.5798 27.1903 25.7906 27.385 25.9855 27.5583C26.2089 27.7581 26.4214 27.9737 26.6187 28.2035C27.0308 28.6802 27.3864 29.2153 27.7159 29.7551C29.1068 32.0396 30.3627 34.422 31.5394 36.8336C31.8283 37.4281 32.1139 38.0314 32.3952 38.633C32.5175 38.8937 32.1104 39.0807 31.9881 38.8201C31.0127 36.7156 29.969 34.6497 28.851 32.6251C28.303 31.6348 27.7507 30.6428 27.1503 29.6874C26.8594 29.2234 26.5431 28.7746 26.183 28.3641C26.0151 28.1712 25.832 27.9925 25.6397 27.8252C25.5565 27.7518 25.4708 27.6724 25.3708 27.6175C25.3388 27.5998 25.2489 27.5439 25.2076 27.5629C25.2253 27.5548 25.2026 27.5508 25.2109 27.5794C25.2184 27.6227 25.2377 27.6607 25.2586 27.6943C25.324 27.801 25.4189 27.8942 25.5012 27.9825C25.6792 28.1743 25.885 28.357 26.1331 28.4554C26.4863 28.5955 26.9775 28.4418 27.0519 28.0116C27.0937 27.7656 27.0153 27.492 26.962 27.2536C26.9054 26.9988 26.8387 26.745 26.7602 26.4967C26.6057 26.006 26.4057 25.5327 26.1644 25.0783C26.0596 24.8852 25.9532 24.6965 25.8291 24.5159C25.7737 24.4333 25.7142 24.3491 25.6453 24.2763C25.5916 24.2146 25.5168 24.1697 25.4613 24.1124C25.4345 24.0815 25.4563 24.1003 25.463 24.108C25.484 24.1416 25.5172 23.9931 25.4588 24.1316C25.435 24.1929 25.4828 24.2825 25.5113 24.3342C25.6093 24.5449 25.7249 24.7473 25.8499 24.9384C26.1275 25.3617 26.4691 25.7447 26.864 26.0529C27.0573 26.2054 27.2674 26.3392 27.486 26.4512C27.6685 26.5438 27.866 26.6474 28.0723 26.6535C28.5934 26.6733 28.4558 25.8256 28.4204 25.5035C28.3595 24.959 28.2598 24.4143 28.1071 23.894C28.0119 23.5633 27.8621 23.2361 27.675 22.9548C27.6331 22.8877 27.5853 22.8232 27.5299 22.7659C27.5097 22.7427 27.5164 22.7505 27.4921 22.7257C27.4837 22.7223 27.4098 22.6627 27.4509 22.6942C27.4316 22.6814 27.4509 22.6942 27.4728 22.6877C27.5149 22.6791 27.4644 22.6844 27.5099 22.6671C27.5099 22.6671 27.5133 22.6583 27.5031 22.6846C27.4828 22.7371 27.4947 22.7065 27.4878 22.7492C27.4012 23.3615 27.8828 24.0223 28.2597 24.4648C28.7406 25.0395 29.3488 25.5737 30.0375 25.8621C30.3916 26.0127 30.8308 26.1061 31.1062 25.7455C31.3613 25.4123 31.4155 24.9337 31.414 24.524C31.412 24.0029 31.3275 23.4692 31.1966 22.9677C31.1649 22.8491 31.129 22.7288 31.0914 22.6128C31.0705 22.554 31.0538 22.4969 31.027 22.4408C31.0094 22.3984 30.99 22.411 31.0195 22.3974C30.8804 22.4685 31.0402 22.8703 31.0703 22.9681C31.3625 23.9428 31.7844 24.8831 32.3278 25.7351C32.5969 26.1551 32.8931 26.5555 33.2138 26.9302C33.3212 27.0536 33.5325 27.385 33.7204 27.3383C33.888 27.2936 34.0107 27.0392 34.0768 26.8937C34.2765 26.4779 34.3678 26.0039 34.3378 25.5424C34.3241 25.3147 34.2859 25.0874 34.2141 24.872C34.1974 24.8149 34.1748 24.7604 34.1522 24.706C34.1497 24.7 34.1145 24.6405 34.1153 24.6257L34.1061 24.612C34.086 24.5888 34.0961 24.5878 34.1381 24.6045C34.1373 24.6193 34.09 24.6662 34.0849 24.6793C34.0469 24.74 34.0214 24.8057 34.0002 24.873C33.823 25.3937 33.9561 26.0022 34.0137 26.5302C34.0813 27.1076 34.1505 27.6807 34.2282 28.257C34.5381 30.5521 34.9406 32.8334 35.4173 35.0986C35.532 35.6544 35.6468 36.2101 35.7515 36.7669C35.783 36.936 35.5151 37.0267 35.465 36.8553L35.46 36.8432Z" fill="#403E3D"/>
<path d="M39.0149 42.3341C38.8663 40.8759 37.6036 39.8395 36.1896 40.0211C34.7756 40.2027 33.7485 41.528 33.8972 42.9862C34.0459 44.4444 35.3086 45.4808 36.7226 45.2992C38.1365 45.1175 39.1636 43.7923 39.0149 42.3341Z" fill="#858481"/>
<path d="M30.8622 38.0695L37.1649 35.2456C37.7937 34.9747 38.5102 35.2791 38.7602 35.9239C38.9033 36.2938 38.8551 36.694 38.6792 37.0233C38.4469 36.9715 38.196 36.9932 37.9575 37.0956L31.6548 39.9196C31.3868 40.0355 31.1809 40.2417 31.0489 40.4824C30.6635 40.4002 30.3266 40.1302 30.1753 39.7317C29.9252 39.0869 30.2335 38.3404 30.8622 38.0695Z" fill="#ACABA8"/>
<path d="M31.7664 40.4089L38.0691 37.585C38.3371 37.4691 38.543 37.2628 38.675 37.0222C39.0603 37.1043 39.3972 37.3744 39.5486 37.7729C39.7067 38.1791 39.6416 38.6231 39.4159 38.968C39.1862 38.9223 38.9412 38.9413 38.7044 39.0393L32.4017 41.8632C32.1691 41.9629 31.9784 42.1297 31.8474 42.3303C31.4603 42.2525 31.1192 41.9808 30.9653 41.5763C30.8223 41.2064 30.8705 40.8062 31.0464 40.4769C31.2786 40.5286 31.5296 40.507 31.7681 40.4046L31.7664 40.4089Z" fill="#ACABA8"/>
<path d="M31.6563 39.9158L37.959 37.0919C38.1975 36.9895 38.4467 36.9722 38.6807 37.0195C38.547 37.2646 38.3411 37.4708 38.0748 37.5824L31.7721 40.4063C31.5336 40.5087 31.2843 40.526 31.0504 40.4786C31.184 40.2336 31.39 40.0274 31.6563 39.9158Z" fill="#858481"/>
<path d="M32.5588 42.2589L38.8615 39.4349C39.0941 39.3352 39.2848 39.1684 39.4158 38.9678C39.8029 39.0456 40.144 39.3173 40.2979 39.7218C40.5479 40.3666 40.2396 41.1132 39.6109 41.384L33.3082 44.208C32.6795 44.4788 31.963 44.1744 31.7129 43.5296C31.5548 43.1234 31.6199 42.6795 31.8456 42.3346C32.0753 42.3802 32.3245 42.3629 32.5571 42.2632L32.5588 42.2589Z" fill="#ACABA8"/>
<path d="M38.7084 39.0401C38.941 38.9404 39.1919 38.9187 39.4199 38.9688C39.2889 39.1694 39.0982 39.3362 38.8656 39.4359L32.5629 42.2598C32.3303 42.3595 32.0794 42.3812 31.8514 42.3311C31.9824 42.1305 32.1731 41.9637 32.4057 41.864L38.7084 39.0401Z" fill="#858481"/>
<path d="M17.0612 12.7521C16.1358 11.5212 15.2238 10.2805 14.3194 9.03264C14.212 8.88396 14.1063 8.7309 13.999 8.58222C13.8303 8.35368 13.6617 8.12513 13.499 7.89387C13.3664 7.70995 13.6582 7.50747 13.7908 7.69139C14.7195 8.96403 15.66 10.2313 16.5887 11.5039C16.8421 11.8519 17.0997 12.2016 17.353 12.5497C17.4856 12.7336 17.1972 12.9273 17.0629 12.7478L17.0612 12.7521Z" fill="#EFC344" stroke="#EFC344" stroke-miterlimit="10"/>
<path d="M21.5645 8.85016C21.3623 7.59294 21.1676 6.32864 20.9856 5.06933C20.9658 4.92003 20.9435 4.76468 20.9236 4.61537C20.8872 4.38369 20.8524 4.14764 20.8202 3.91763C20.7912 3.72933 21.0783 3.7018 21.1048 3.88406C21.2935 5.17631 21.4982 6.4648 21.691 7.75872C21.7432 8.1128 21.7953 8.46689 21.8474 8.82097C21.8722 9.0076 21.5952 9.03408 21.5645 8.85016Z" fill="#EFC344" stroke="#EFC344" stroke-miterlimit="10"/>
<path d="M14.4376 24.9218C12.9524 25.2874 11.4606 25.6452 9.97126 25.9839C9.791 26.0235 9.61494 26.0648 9.43638 26.1C9.16429 26.1638 8.8863 26.2304 8.61422 26.2942C8.39604 26.344 8.3439 25.9899 8.56377 25.9357C10.0885 25.5808 11.6123 25.2154 13.1387 24.8561C13.5549 24.7585 13.9752 24.6626 14.3913 24.565C14.6095 24.5152 14.6549 24.8615 14.4393 24.9174L14.4376 24.9218Z" fill="#EFC344" stroke="#EFC344" stroke-miterlimit="10"/>
<path d="M14.5341 18.919C13.0737 18.5063 8.88956 17.5233 7.43508 17.0827C7.26179 17.0291 7.08849 16.9755 6.9152 16.922C6.64601 16.8404 6.37933 16.7649 6.11014 16.6834C5.8931 16.6175 6.0194 16.2787 6.23223 16.3429C7.71954 16.7864 11.939 17.7784 13.4322 18.2192C13.8411 18.341 14.2499 18.4627 14.6545 18.5828C14.8674 18.6471 14.7445 18.9772 14.5341 18.919Z" fill="#EFC344" stroke="#EFC344" stroke-miterlimit="10"/>
</g>
<g clip-path="url(#clip1_719_516)">
<path d="M299.541 137.689L299.431 127L305.213 132.022L306.365 130.943L301.24 126.345L311.999 126.211V124.528H300.776L306.649 118.966L305.497 117.887L299.395 123.494L299.295 113.391L297.651 113.795L297.715 123.179L291.771 117.842L290.823 119.526L296.583 124.528H283.999V126.555L296.228 126.405L290.452 131.713L291.771 133.056L297.744 127.398L297.815 137.689H299.541Z" fill="#E76B6B"/>
</g>
<g clip-path="url(#clip2_719_516)">
<path d="M90.6359 258.852C90.6648 212.94 123.216 173.322 167.928 167.569C212.641 161.815 253.954 191.934 265.343 236.378L270.98 235.655C259.151 187.976 215.001 155.572 167.192 161.72C119.391 167.868 84.6598 210.421 84.999 259.582L90.6359 258.859V258.852Z" fill="#DD4B4B"/>
<path d="M96.4896 258.1C96.901 215.555 127.186 178.982 168.694 173.644C210.202 168.307 248.57 196.052 259.49 237.138L265.344 236.386C253.962 191.942 212.649 161.823 167.929 167.577C123.216 173.323 90.6651 212.941 90.6362 258.852L96.4896 258.1V258.1Z" fill="#F2D766"/>
<path d="M102.393 257.34C103.18 218.196 131.184 184.683 169.458 179.762C207.733 174.84 243.135 200.191 253.579 237.896L259.483 237.136C248.57 196.051 210.201 168.306 168.693 173.643C127.185 178.98 96.9007 215.553 96.4893 258.099L102.393 257.34V257.34Z" fill="#7EC182"/>
<path d="M108.218 256.596C109.373 220.796 135.125 190.298 170.216 185.779C205.308 181.266 237.787 204.273 247.761 238.649L253.586 237.896C243.142 200.199 207.74 174.841 169.466 179.762C131.191 184.683 103.187 218.197 102.4 257.34L108.225 256.588L108.218 256.596Z" fill="#5B89B2"/>
<path d="M113.516 255.909C114.988 223.147 138.705 195.38 170.909 191.24C203.107 187.1 232.937 207.975 242.471 239.32L247.769 238.641C237.801 204.273 205.315 181.259 170.224 185.771C135.132 190.283 109.38 220.782 108.225 256.588L113.523 255.909H113.516Z" fill="#9C7DB5"/>
<path d="M121.823 271.526C121.744 270.832 121.664 270.146 121.592 269.452C121.541 268.992 121.051 268.788 120.668 269.022C118.279 270.533 109.062 274.454 106.255 274.79C106.096 274.812 105.944 274.826 105.786 274.841C105.576 274.863 105.591 274.87 105.49 274.709C105.288 274.395 105.194 273.913 105.057 273.563C104.79 272.855 104.515 272.147 104.248 271.438C103.693 269.963 103.13 268.496 102.574 267.021C102.032 265.604 101.39 264.188 100.95 262.735C100.741 262.041 100.769 261.413 101.022 260.742C101.246 260.143 101.534 259.559 101.636 258.924C101.852 257.595 101.174 256.441 100.748 255.229C100.336 254.039 100.777 252.528 99.8239 251.564C98.8495 250.571 97.4349 251.169 96.7853 252.214C96.2007 253.141 96.3306 254.163 96.5183 255.178C96.1069 254.798 95.7027 254.419 95.2913 254.032C94.6345 253.418 93.9705 252.622 93.1116 252.316C91.6825 251.805 90.3184 252.951 90.304 254.309C89.9792 254.346 89.6544 254.499 89.409 254.74C89.0914 255.054 88.9615 255.448 88.9254 255.864C88.1676 255.755 87.3448 256.134 86.9334 256.813C86.1972 258.04 86.7241 259.508 87.5108 260.552C88.8172 262.282 90.8237 263.618 92.8301 264.363C93.3281 264.546 93.8694 264.699 94.418 264.772C96.6626 269.007 98.8495 273.286 101.174 277.477C102.112 279.178 103.599 281.471 105.836 280.886C106.948 280.594 108.023 280.025 109.077 279.579C110.181 279.119 117.803 275.724 118.907 275.257C119.484 275.016 120.069 274.775 120.646 274.527C121.181 274.308 121.816 274.111 121.96 273.468C122.097 272.862 121.888 272.117 121.816 271.511L121.823 271.526Z" fill="#EF6767"/>
<path d="M122.241 271.469C122.162 270.776 122.082 270.089 122.01 269.396C121.959 268.936 121.469 268.731 121.086 268.965C118.697 270.476 109.48 274.397 106.673 274.733C106.514 274.755 106.362 274.77 106.204 274.784C105.994 274.806 106.009 274.813 105.908 274.653C105.706 274.339 105.612 273.857 105.475 273.506C105.208 272.798 104.933 272.09 104.666 271.382C104.11 269.907 103.548 268.439 102.992 266.964C102.45 265.548 101.808 264.131 101.368 262.678C101.159 261.985 101.187 261.357 101.44 260.685C101.664 260.086 101.952 259.502 102.053 258.867C102.27 257.538 101.592 256.384 101.166 255.172C100.754 253.982 101.195 252.471 100.242 251.507C99.2675 250.514 97.8529 251.113 97.2033 252.157C96.6187 253.084 96.7486 254.106 96.9363 255.121C96.5249 254.742 96.1207 254.362 95.7093 253.975C95.0525 253.362 94.3885 252.566 93.5296 252.259C92.1005 251.748 90.7364 252.894 90.722 254.252C90.3972 254.289 90.0724 254.442 89.827 254.683C89.5094 254.997 89.3795 255.391 89.3434 255.808C88.5856 255.698 87.7628 256.078 87.3514 256.757C86.6152 257.983 87.1421 259.451 87.9288 260.495C89.2351 262.226 91.2416 263.562 93.2481 264.307C93.7461 264.489 94.2874 264.642 94.836 264.715C97.0806 268.95 99.2675 273.229 101.592 277.42C102.53 279.121 104.017 281.414 106.254 280.83C107.366 280.538 108.441 279.968 109.495 279.523C110.599 279.063 118.221 275.668 119.325 275.2C119.902 274.959 120.487 274.718 121.064 274.47C121.599 274.251 122.234 274.054 122.378 273.411C122.515 272.805 122.306 272.061 122.234 271.455L122.241 271.469Z" fill="url(#paint0_radial_719_516)"/>
<path d="M240.97 255.346C240.84 254.659 240.703 253.98 240.573 253.294C240.486 252.841 240.89 252.491 241.323 252.6C244.052 253.316 254.012 254.243 256.783 253.703C256.935 253.674 257.094 253.644 257.245 253.608C257.455 253.564 257.44 253.579 257.491 253.396C257.592 253.038 257.541 252.549 257.563 252.169C257.606 251.41 257.657 250.651 257.7 249.899C257.794 248.322 257.888 246.752 257.982 245.175C258.075 243.656 258.263 242.115 258.249 240.597C258.249 239.866 258.032 239.282 257.585 238.713C257.195 238.216 256.747 237.742 256.459 237.172C255.852 235.967 256.163 234.661 256.199 233.383C256.242 232.12 255.369 230.82 255.982 229.601C256.617 228.352 258.14 228.498 259.071 229.294C259.901 230.002 260.082 231.017 260.205 232.039L261.035 230.579C261.475 229.798 261.872 228.834 262.601 228.272C263.813 227.352 265.452 228.023 265.877 229.316C266.202 229.25 266.549 229.294 266.859 229.455C267.256 229.659 267.501 229.995 267.653 230.382C268.339 230.046 269.241 230.156 269.833 230.681C270.901 231.623 270.836 233.186 270.396 234.427C269.667 236.471 268.151 238.362 266.462 239.684C266.043 240.012 265.574 240.319 265.069 240.553C264.189 245.277 263.38 250.023 262.42 254.725C262.031 256.631 261.302 259.274 258.992 259.398C257.852 259.456 256.653 259.245 255.513 259.142C254.322 259.04 246.044 258.127 244.853 258.025C244.225 257.974 243.604 257.916 242.976 257.865C242.406 257.813 241.742 257.821 241.41 257.259C241.1 256.726 241.078 255.952 240.963 255.353L240.97 255.346Z" fill="#EF6767"/>
<path d="M240.97 255.346C240.84 254.659 240.703 253.98 240.573 253.294C240.486 252.841 240.89 252.491 241.323 252.6C244.052 253.316 254.012 254.243 256.783 253.703C256.935 253.674 257.094 253.644 257.245 253.608C257.455 253.564 257.44 253.579 257.491 253.396C257.592 253.038 257.541 252.549 257.563 252.169C257.606 251.41 257.657 250.651 257.7 249.899C257.794 248.322 257.888 246.752 257.982 245.175C258.075 243.656 258.263 242.115 258.249 240.597C258.249 239.866 258.032 239.282 257.585 238.713C257.195 238.216 256.747 237.742 256.459 237.172C255.852 235.967 256.163 234.661 256.199 233.383C256.242 232.12 255.369 230.82 255.982 229.601C256.617 228.352 258.14 228.498 259.071 229.294C259.901 230.002 260.082 231.017 260.205 232.039L261.035 230.579C261.475 229.798 261.872 228.834 262.601 228.272C263.813 227.352 265.452 228.023 265.877 229.316C266.202 229.25 266.549 229.294 266.859 229.455C267.256 229.659 267.501 229.995 267.653 230.382C268.339 230.046 269.241 230.156 269.833 230.681C270.901 231.623 270.836 233.186 270.396 234.427C269.667 236.471 268.151 238.362 266.462 239.684C266.043 240.012 265.574 240.319 265.069 240.553C264.189 245.277 263.38 250.023 262.42 254.725C262.031 256.631 261.302 259.274 258.992 259.398C257.852 259.456 256.653 259.245 255.513 259.142C254.322 259.04 246.044 258.127 244.853 258.025C244.225 257.974 243.604 257.916 242.976 257.865C242.406 257.813 241.742 257.821 241.41 257.259C241.1 256.726 241.078 255.952 240.963 255.353L240.97 255.346Z" fill="url(#paint1_radial_719_516)"/>
<path d="M171.119 317.336L168.022 327.981C168.022 327.981 157.312 331.464 158.784 335.882L177.261 334.21L179.282 317.92L171.119 317.336Z" fill="#EF6767"/>
<path d="M171.119 317.336L168.022 327.981C168.022 327.981 157.312 331.464 158.784 335.882L177.261 334.21L179.282 317.92L171.119 317.336Z" fill="url(#paint2_radial_719_516)"/>
<path d="M207.055 311.933L214.07 320.461C214.07 320.461 210.959 331.398 215.413 332.618L224.333 316.16L212.085 305.391L207.062 311.925L207.055 311.933Z" fill="#EF6767"/>
<path d="M207.055 311.933L214.07 320.461C214.07 320.461 210.959 331.398 215.413 332.618L224.333 316.16L212.085 305.391L207.062 311.925L207.055 311.933Z" fill="url(#paint3_radial_719_516)"/>
<path d="M193.738 326.492C192.035 328.2 189.444 328.624 187.293 327.543L156.676 312.166C124.205 296.118 118.69 274.732 118.69 274.732C112.267 246.511 131.206 239.925 131.206 239.925C154.381 232.054 171.696 244.766 178.372 250.951C182.782 242.956 195.254 225.374 219.707 225.461C219.707 225.461 239.736 225.673 242.421 254.506C242.421 254.506 243.842 276.557 218.018 302.141L193.746 326.492H193.738Z" fill="#EF6767"/>
<path d="M192.688 270.569C197.039 270.217 200.278 266.288 199.922 261.794C199.566 257.3 195.75 253.943 191.399 254.295C187.049 254.648 183.81 258.577 184.166 263.071C184.522 267.564 188.337 270.922 192.688 270.569Z" fill="white"/>
<path d="M183.843 262.852C184.276 267.08 187.942 270.154 192.035 269.723C196.127 269.292 199.093 265.51 198.66 261.29C198.227 257.062 194.561 253.988 190.468 254.419C186.376 254.85 183.41 258.632 183.843 262.852Z" fill="#403E3D"/>
<path d="M160.509 265.764C160.971 270.247 164.861 273.511 169.199 273.051C173.544 272.591 176.691 268.583 176.229 264.1C175.767 259.617 171.876 256.353 167.539 256.813C163.194 257.273 160.047 261.281 160.509 265.764V265.764Z" fill="white"/>
<path d="M160.307 265.188C160.74 269.416 164.406 272.49 168.499 272.059C172.591 271.628 175.557 267.846 175.124 263.626C174.691 259.398 171.025 256.324 166.932 256.755C162.84 257.186 159.874 260.968 160.307 265.188Z" fill="#403E3D"/>
<path d="M174.323 274.103C174.323 274.103 180.436 280.025 187.553 272.314" stroke="#403E3D" stroke-width="2" stroke-linecap="round" stroke-linejoin="round"/>
</g>
<defs>
<radialGradient id="paint0_radial_719_516" cx="0" cy="0" r="1" gradientUnits="userSpaceOnUse" gradientTransform="translate(124.471 273.455) scale(25.5356 25.8326)">
<stop stop-color="#C61C24" stop-opacity="0.9"/>
<stop offset="1" stop-color="#C61C24" stop-opacity="0"/>
</radialGradient>
<radialGradient id="paint1_radial_719_516" cx="0" cy="0" r="1" gradientUnits="userSpaceOnUse" gradientTransform="translate(243.669 258.244) scale(14.399 14.5664)">
<stop stop-color="#C61C24" stop-opacity="0.9"/>
<stop offset="1" stop-color="#C61C24" stop-opacity="0"/>
</radialGradient>
<radialGradient id="paint2_radial_719_516" cx="0" cy="0" r="1" gradientUnits="userSpaceOnUse" gradientTransform="translate(172.634 319.22) scale(12.0677 12.2081)">
<stop stop-color="#C61C24" stop-opacity="0.9"/>
<stop offset="1" stop-color="#C61C24" stop-opacity="0"/>
</radialGradient>
<radialGradient id="paint3_radial_719_516" cx="0" cy="0" r="1" gradientUnits="userSpaceOnUse" gradientTransform="translate(209.44 311.704) rotate(-56.4657) scale(12.1647 12.1107)">
<stop stop-color="#C61C24" stop-opacity="0.9"/>
<stop offset="1" stop-color="#C61C24" stop-opacity="0"/>
</radialGradient>
<clipPath id="clip0_719_516">
<rect width="40.9372" height="33.6349" fill="white" transform="matrix(-0.929529 -0.36875 -0.360941 0.932589 50.1924 15.0957)"/>
</clipPath>
<clipPath id="clip1_719_516">
<rect width="28" height="24.2981" fill="white" transform="translate(283.999 113.391)"/>
</clipPath>
<clipPath id="clip2_719_516">
<rect width="185.981" height="202.484" fill="white" transform="translate(84.999 160.975)"/>
</clipPath>
</defs>
</svg>
