<svg width="18" height="18" viewBox="0 0 18 18" fill="fill" xmlns="http://www.w3.org/2000/svg">
<path d="M16.9408 6.64484L11.3833 1.08656C10.6954 0.400744 9.76374 0.015625 8.79243 0.015625C7.82111 0.015625 6.88942 0.400744 6.2016 1.08656L0.644054 6.64484C0.439209 6.84837 0.276801 7.09054 0.166246 7.3573C0.0556906 7.62407 -0.000813592 7.91013 8.85066e-06 8.1989V15.3918C8.85066e-06 15.9748 0.231594 16.5339 0.643819 16.9461C1.05604 17.3583 1.61514 17.5899 2.19811 17.5899H15.3867C15.9697 17.5899 16.5288 17.3583 16.941 16.9461C17.3533 16.5339 17.5848 15.9748 17.5848 15.3918V8.1989C17.5857 7.91013 17.5292 7.62407 17.4186 7.3573C17.3081 7.09054 17.1456 6.84837 16.9408 6.64484ZM10.9905 16.1245H6.59432V13.2421C6.59432 12.6591 6.82591 12.1 7.23813 11.6878C7.65036 11.2756 8.20946 11.044 8.79243 11.044C9.3754 11.044 9.9345 11.2756 10.3467 11.6878C10.7589 12.1 10.9905 12.6591 10.9905 13.2421V16.1245ZM16.1194 15.3918C16.1194 15.5862 16.0422 15.7725 15.9048 15.9099C15.7674 16.0473 15.5811 16.1245 15.3867 16.1245H12.4559V13.2421C12.4559 12.2705 12.07 11.3386 11.3829 10.6516C10.6959 9.96455 9.76405 9.57857 8.79243 9.57857C7.82081 9.57857 6.88898 9.96455 6.20194 10.6516C5.5149 11.3386 5.12892 12.2705 5.12892 13.2421V16.1245H2.19811C2.00379 16.1245 1.81742 16.0473 1.68002 15.9099C1.54261 15.7725 1.46541 15.5862 1.46541 15.3918V8.1989C1.46609 8.00471 1.54322 7.81861 1.68009 7.68088L7.23764 2.1248C7.65066 1.7137 8.20969 1.48291 8.79243 1.48291C9.37517 1.48291 9.9342 1.7137 10.3472 2.1248L15.9048 7.68307C16.0411 7.82027 16.1182 8.00548 16.1194 8.1989V15.3918Z" fill="fill"/>
</svg>
