<svg width="375" height="560" viewBox="0 0 375 560" fill="none" xmlns="http://www.w3.org/2000/svg">
<g clip-path="url(#clip0_1050_2166)">
<rect width="375" height="560" fill="white"/>
<rect width="375" height="560" fill="url(#paint0_linear_1050_2166)"/>
<path d="M133.268 263.01L254.058 261.445L254.325 282.004L133.534 283.569L133.268 263.01Z" fill="#FFBFBF" fill-opacity="0.5"/>
<g filter="url(#filter0_d_1050_2166)">
<rect x="67" y="107" width="240" height="114" rx="8" fill="#FFF4F4"/>
<rect x="67.5" y="107.5" width="239" height="113" rx="7.5" stroke="#FFE8E8"/>
</g>
<path d="M206.419 123.777V134.874L210.52 161.529C210.923 164.149 212.25 166.538 214.262 168.264C216.274 169.99 218.837 170.939 221.487 170.939H224.452L217.746 132.946C217.293 130.377 215.949 128.05 213.951 126.373C211.953 124.697 209.428 123.777 206.819 123.777H206.419Z" fill="#B26049"/>
<path d="M206.42 123.777C207.523 123.777 208.582 124.216 209.362 124.996C210.142 125.777 210.581 126.835 210.581 127.939V132.1H202.258V127.939C202.258 126.835 202.697 125.777 203.477 124.996C204.258 124.216 205.316 123.777 206.42 123.777Z" fill="#FCAB68"/>
<path d="M208.5 124.354C207.87 123.98 207.152 123.781 206.42 123.777C205.316 123.777 204.258 124.216 203.477 124.996C202.697 125.777 202.258 126.835 202.258 127.939V132.1H206.42V127.939C206.421 127.211 206.614 126.497 206.98 125.868C207.345 125.238 207.869 124.717 208.5 124.354Z" fill="#EA8E49"/>
<path d="M191.161 182.082V207.003H144V182.082C144 179.671 144.785 177.326 146.237 175.401C147.688 173.476 149.727 172.076 152.045 171.413L163.419 168.164H171.742L183.116 171.413C185.434 172.076 187.473 173.476 188.925 175.401C190.376 177.326 191.161 179.671 191.161 182.082Z" fill="#DBE9FF"/>
<path d="M156.206 171.413L167.581 168.164H163.419L152.045 171.413C149.727 172.076 147.688 173.476 146.237 175.401C144.785 177.326 144 179.671 144 182.082V207.003H148.161V182.082C148.161 179.671 148.946 177.326 150.398 175.401C151.849 173.476 153.888 172.076 156.206 171.413Z" fill="#C0D9FF"/>
<path d="M152.323 190.357H144V206.986H152.323V190.357Z" fill="#F7D1C6"/>
<path d="M148.161 190.357H144V206.986H148.161V190.357Z" fill="#F4B19F"/>
<path d="M163.419 161.229H171.742V166.777C171.742 167.881 171.304 168.939 170.523 169.719C169.743 170.5 168.684 170.938 167.581 170.938C166.477 170.938 165.419 170.5 164.638 169.719C163.858 168.939 163.419 167.881 163.419 166.777V161.229Z" fill="#F7D1C6"/>
<path d="M155.097 134.873H180.064V151.518C180.064 154.829 178.749 158.004 176.408 160.346C174.067 162.687 170.891 164.002 167.581 164.002C164.27 164.002 161.094 162.687 158.753 160.346C156.412 158.004 155.097 154.829 155.097 151.518V134.873Z" fill="#F7D1C6"/>
<path d="M159.258 151.518V134.873H155.097V151.518C155.087 153.336 155.476 155.134 156.238 156.785C156.999 158.437 158.114 159.9 159.503 161.073C160.892 162.246 162.522 163.1 164.277 163.573C166.033 164.047 167.871 164.129 169.661 163.815C166.754 163.325 164.114 161.821 162.21 159.57C160.305 157.319 159.26 154.467 159.258 151.518Z" fill="#F4B19F"/>
<path d="M181.868 130.169L181.626 129.687C180.322 127.078 178.316 124.883 175.835 123.349C173.353 121.815 170.493 121.002 167.575 121.002C164.657 121.002 161.797 121.815 159.316 123.349C156.834 124.883 154.828 127.078 153.524 129.687L153.294 130.169C152.669 131.411 152.534 132.843 152.915 134.18L155.097 141.809C162.618 142.225 168.611 140.357 173.112 136.244C173.072 137.338 172.772 138.406 172.238 139.361C171.704 140.317 170.951 141.131 170.04 141.738L169.585 142.042C169.279 142.246 169.066 142.564 168.994 142.925C168.922 143.285 168.997 143.66 169.201 143.966C169.405 144.272 169.722 144.485 170.083 144.557C170.444 144.629 170.819 144.554 171.125 144.35L171.58 144.047C172.825 143.215 173.861 142.106 174.605 140.806C175.349 139.506 175.781 138.051 175.867 136.556L180.065 141.809L182.246 134.18C182.627 132.843 182.492 131.411 181.868 130.169Z" fill="#C67A60"/>
<path d="M155.097 141.809V150.131C153.993 150.131 152.935 149.693 152.154 148.912C151.374 148.132 150.936 147.074 150.936 145.97C150.936 144.866 151.374 143.808 152.154 143.027C152.935 142.247 153.993 141.809 155.097 141.809Z" fill="#F4B19F"/>
<path d="M180.064 150.131V141.808C181.168 141.808 182.226 142.247 183.007 143.027C183.787 143.807 184.226 144.866 184.226 145.97C184.226 147.073 183.787 148.132 183.007 148.912C182.226 149.692 181.168 150.131 180.064 150.131Z" fill="#F7D1C6"/>
<path d="M157.076 134.18C156.695 132.843 156.83 131.411 157.455 130.169L157.696 129.687C158.842 127.395 160.532 125.418 162.617 123.928C164.703 122.439 167.121 121.482 169.661 121.141C166.417 120.703 163.116 121.291 160.223 122.823C157.33 124.356 154.989 126.756 153.529 129.687L153.294 130.169C152.669 131.411 152.534 132.843 152.915 134.18L155.097 141.809C156.48 141.88 157.866 141.866 159.247 141.768L157.076 134.18Z" fill="#B26049"/>
<path d="M230 187.631V207.003H182.839V187.631C182.839 185.22 183.624 182.875 185.075 180.95C186.527 179.024 188.566 177.624 190.884 176.961L202.258 173.713H210.581L221.955 176.961C224.273 177.624 226.312 179.024 227.764 180.95C229.215 182.875 230 185.22 230 187.631Z" fill="#FFFBD5"/>
<path d="M195.045 176.961L206.42 173.713H202.258L190.884 176.961C188.566 177.624 186.527 179.024 185.075 180.95C183.624 182.875 182.839 185.22 182.839 187.631V207.003H187V187.631C187 185.22 187.785 182.875 189.237 180.95C190.688 179.024 192.727 177.624 195.045 176.961Z" fill="#FFF6A7"/>
<path d="M230 195.922H221.677V207.002H230V195.922Z" fill="#F7D1C6"/>
<path d="M191.161 195.922H182.839V207.002H191.161V195.922Z" fill="#F7D1C6"/>
<path d="M187 195.922H182.839V207.002H187V195.922Z" fill="#F4B19F"/>
<path d="M202.258 166.777H210.581V172.326C210.581 173.429 210.142 174.488 209.362 175.268C208.582 176.049 207.523 176.487 206.42 176.487C205.316 176.487 204.258 176.049 203.477 175.268C202.697 174.488 202.258 173.429 202.258 172.326V166.777Z" fill="#F7D1C6"/>
<path d="M193.936 141.809H218.903V157.067C218.903 160.378 217.588 163.553 215.247 165.894C212.906 168.235 209.73 169.551 206.419 169.551C203.108 169.551 199.933 168.235 197.592 165.894C195.251 163.553 193.936 160.378 193.936 157.067V141.809Z" fill="#F7D1C6"/>
<path d="M198.097 157.067V141.809H193.936V157.067C193.926 158.885 194.315 160.683 195.077 162.334C195.838 163.985 196.953 165.449 198.342 166.622C199.731 167.794 201.361 168.648 203.116 169.122C204.872 169.595 206.71 169.678 208.5 169.363C205.593 168.873 202.953 167.369 201.049 165.119C199.144 162.868 198.099 160.015 198.097 157.067Z" fill="#F4B19F"/>
<path d="M193.936 147.357V155.68C192.832 155.68 191.774 155.242 190.993 154.461C190.213 153.681 189.774 152.622 189.774 151.519C189.774 150.415 190.213 149.357 190.993 148.576C191.774 147.796 192.832 147.357 193.936 147.357Z" fill="#F4B19F"/>
<path d="M218.903 155.68V147.357C220.007 147.357 221.065 147.796 221.846 148.576C222.626 149.356 223.064 150.415 223.064 151.518C223.064 152.622 222.626 153.68 221.846 154.461C221.065 155.241 220.007 155.68 218.903 155.68Z" fill="#F7D1C6"/>
<path d="M206.42 129.326H206.177C202.686 129.316 199.306 130.547 196.638 132.798C193.97 135.049 192.189 138.175 191.612 141.617C191.457 142.558 191.343 143.483 191.268 144.374C191.239 144.755 191.289 145.139 191.416 145.5C191.542 145.861 191.742 146.193 192.002 146.473C192.263 146.753 192.579 146.977 192.93 147.129C193.281 147.282 193.66 147.36 194.042 147.359H202.993C204.857 147.358 206.683 146.838 208.268 145.859C209.853 144.879 211.134 143.477 211.968 141.81L212.928 143.728C213.473 144.819 214.311 145.736 215.348 146.378C216.385 147.019 217.58 147.358 218.799 147.359C219.184 147.36 219.566 147.281 219.918 147.127C220.271 146.973 220.588 146.748 220.849 146.464C221.11 146.181 221.309 145.847 221.434 145.483C221.559 145.118 221.606 144.732 221.574 144.349C221.506 143.555 221.409 142.737 221.277 141.903C220.701 138.382 218.889 135.182 216.166 132.877C213.443 130.572 209.987 129.313 206.42 129.326Z" fill="#C67A60"/>
<path d="M195.428 144.373C195.503 143.483 195.617 142.558 195.772 141.617C196.293 138.507 197.801 135.646 200.072 133.458C202.343 131.27 205.257 129.87 208.385 129.465C207.734 129.376 207.077 129.33 206.42 129.326H206.177C202.686 129.316 199.306 130.547 196.638 132.798C193.97 135.049 192.189 138.175 191.612 141.617C191.457 142.558 191.343 143.483 191.268 144.373C191.239 144.755 191.289 145.139 191.416 145.5C191.542 145.861 191.742 146.193 192.002 146.473C192.263 146.753 192.579 146.977 192.93 147.129C193.281 147.281 193.66 147.36 194.042 147.358H198.204C197.821 147.36 197.442 147.282 197.091 147.129C196.739 146.977 196.423 146.754 196.163 146.473C195.902 146.193 195.702 145.862 195.576 145.5C195.449 145.139 195.399 144.755 195.428 144.373Z" fill="#B26049"/>
<path d="M163.419 147.358C163.419 146.99 163.273 146.637 163.013 146.377C162.753 146.117 162.4 145.971 162.032 145.971C161.664 145.971 161.311 146.117 161.051 146.377C160.791 146.637 160.645 146.99 160.645 147.358V148.745C160.645 149.113 160.791 149.466 161.051 149.726C161.311 149.986 161.664 150.132 162.032 150.132C162.4 150.132 162.753 149.986 163.013 149.726C163.273 149.466 163.419 149.113 163.419 148.745V147.358Z" fill="#C67A60"/>
<path d="M173.129 150.132C173.497 150.132 173.849 149.986 174.11 149.726C174.37 149.466 174.516 149.113 174.516 148.745V147.358C174.516 146.99 174.37 146.637 174.11 146.377C173.849 146.117 173.497 145.971 173.129 145.971C172.761 145.971 172.408 146.117 172.148 146.377C171.888 146.637 171.742 146.99 171.742 147.358V148.745C171.742 149.113 171.888 149.466 172.148 149.726C172.408 149.986 172.761 150.132 173.129 150.132Z" fill="#C67A60"/>
<path d="M171.336 158.048C171.588 157.786 171.728 157.436 171.725 157.072C171.722 156.709 171.576 156.361 171.319 156.104C171.062 155.846 170.714 155.7 170.35 155.697C169.986 155.694 169.636 155.834 169.374 156.087C169.181 156.387 168.916 156.635 168.603 156.806C168.289 156.977 167.938 157.067 167.581 157.067C167.224 157.067 166.872 156.977 166.559 156.806C166.245 156.635 165.98 156.387 165.787 156.087C165.526 155.834 165.175 155.694 164.812 155.697C164.448 155.7 164.1 155.846 163.843 156.104C163.586 156.361 163.44 156.709 163.437 157.072C163.433 157.436 163.573 157.786 163.826 158.048C164.301 158.582 164.877 159.016 165.522 159.324C166.167 159.632 166.867 159.808 167.581 159.842C168.295 159.808 168.995 159.632 169.639 159.324C170.284 159.016 170.861 158.582 171.336 158.048Z" fill="#F96464"/>
<path d="M202.258 152.907C202.258 152.539 202.112 152.186 201.852 151.926C201.592 151.666 201.239 151.52 200.871 151.52C200.503 151.52 200.15 151.666 199.89 151.926C199.63 152.186 199.484 152.539 199.484 152.907V154.294C199.484 154.662 199.63 155.014 199.89 155.275C200.15 155.535 200.503 155.681 200.871 155.681C201.239 155.681 201.592 155.535 201.852 155.275C202.112 155.014 202.258 154.662 202.258 154.294V152.907Z" fill="#C67A60"/>
<path d="M211.968 155.681C212.336 155.681 212.688 155.535 212.948 155.275C213.209 155.014 213.355 154.662 213.355 154.294V152.907C213.355 152.539 213.209 152.186 212.948 151.926C212.688 151.666 212.336 151.52 211.968 151.52C211.6 151.52 211.247 151.666 210.987 151.926C210.727 152.186 210.581 152.539 210.581 152.907V154.294C210.581 154.662 210.727 155.014 210.987 155.275C211.247 155.535 211.6 155.681 211.968 155.681Z" fill="#C67A60"/>
<path d="M210.174 163.597C210.427 163.335 210.567 162.985 210.563 162.621C210.56 162.257 210.414 161.91 210.157 161.652C209.9 161.395 209.552 161.249 209.188 161.246C208.825 161.243 208.474 161.383 208.213 161.635C208.02 161.936 207.755 162.184 207.441 162.355C207.128 162.526 206.776 162.616 206.419 162.616C206.062 162.616 205.711 162.526 205.397 162.355C205.084 162.184 204.818 161.936 204.626 161.635C204.364 161.383 204.014 161.243 203.65 161.246C203.286 161.249 202.938 161.395 202.681 161.652C202.424 161.91 202.278 162.257 202.275 162.621C202.272 162.985 202.412 163.335 202.664 163.597C203.117 164.156 203.69 164.607 204.339 164.917C204.989 165.226 205.699 165.387 206.419 165.387C207.139 165.387 207.849 165.226 208.499 164.917C209.149 164.607 209.721 164.156 210.174 163.597Z" fill="#F96464"/>
<path d="M290 80H258C255.794 80 254 81.794 254 84V120L262 112H290C292.206 112 294 110.206 294 108V84C294 81.794 292.206 80 290 80ZM283.412 103.086L280.584 105.914L273.998 99.33L267.414 105.914L264.586 103.086L271.17 96.502L264.586 89.916L267.414 87.088L273.998 93.672L280.584 87.088L283.412 89.916L276.828 96.502L283.412 103.086Z" fill="#EB8888"/>
<path d="M144.958 264.938H136.97V266.441H143.112C143.044 267.438 142.878 268.395 142.604 269.293L136.071 269.703L136.364 271.305L142.038 270.768C140.973 272.994 139.079 274.879 136.012 276.441L137.048 277.848C143.268 274.684 144.948 270.094 144.958 264.938ZM144.919 271.617H148.766V280.66H150.602V263.16H148.766V270.094H144.919V271.617ZM167.668 263.16H165.793V280.66H167.668V263.16ZM153.078 274.879L153.293 276.422C156.516 276.412 160.676 276.354 164.465 275.738L164.367 274.371C163.498 274.469 162.6 274.557 161.691 274.625V266.48H163.508V264.957H153.547V266.48H155.383V274.859C154.572 274.869 153.801 274.879 153.078 274.879ZM157.18 274.83V266.48H159.875V274.732C158.967 274.771 158.059 274.811 157.18 274.83ZM188.635 263.18H186.78V276.266H188.635V270.348H191.174V268.805H188.635V263.18ZM174.905 266.715H185.334V265.211H181.057V263.16H179.202V265.211H174.905V266.715ZM175.862 270.855C175.852 272.838 177.58 274.127 180.12 274.137C182.629 274.127 184.358 272.838 184.358 270.855C184.358 268.854 182.629 267.545 180.12 267.555C177.58 267.545 175.852 268.854 175.862 270.855ZM177.541 280.289H189.377V278.785H179.397V275.23H177.541V280.289ZM177.659 270.855C177.639 269.703 178.635 268.99 180.12 268.98C181.604 268.99 182.6 269.703 182.62 270.855C182.6 271.998 181.604 272.701 180.12 272.691C178.635 272.701 177.639 271.998 177.659 270.855ZM202.766 266.695V266.109H206.536V264.625H197.102V266.109H200.911V266.695C200.901 269.117 199.251 271.441 196.536 272.379L197.512 273.863C199.573 273.121 201.087 271.578 201.858 269.654C202.62 271.383 204.055 272.74 205.989 273.414L207.024 272.027C204.339 271.109 202.757 268.99 202.766 266.695ZM199.309 280.289H211.145V278.785H201.165V274.781H199.309V280.289ZM208.548 275.953H210.403V269.977H212.942V268.434H210.403V263.141H208.548V275.953ZM232.054 263.16H230.198V280.641H232.054V271.676H234.769V270.133H232.054V263.16ZM218.441 275.973L219.476 277.418C225.237 274.576 227.464 270.055 227.484 264.996H219.32V266.539H225.589C225.208 270.621 222.825 273.785 218.441 275.973ZM244.784 264.312H236.678V265.816H242.791C242.45 268.6 239.92 270.826 235.76 271.949L236.463 273.414C240.243 272.398 242.938 270.436 244.12 267.691H248.241V269.898H243.827V271.402H248.241V273.59H250.096V263.18H248.241V266.207H244.588C244.715 265.602 244.784 264.977 244.784 264.312ZM238.241 275.816H248.241V280.621H250.096V274.352H238.241V275.816ZM260.56 264.215C256.898 264.215 254.105 266.158 254.115 269.098C254.105 272.057 256.898 273.99 260.56 273.98C264.232 273.99 267.025 272.057 267.025 269.098C267.025 266.158 264.232 264.215 260.56 264.215ZM252.591 278.395H268.607V276.852H252.591V278.395ZM255.892 269.098C255.882 267.066 257.875 265.709 260.56 265.719C263.236 265.709 265.218 267.066 265.228 269.098C265.218 271.139 263.236 272.457 260.56 272.457C257.875 272.457 255.882 271.139 255.892 269.098ZM285.692 277.008H278.563V273.941H284.149V272.418H273.466V269.859H283.739V264.391H271.591V265.914H281.903V268.375H271.63V273.941H276.727V277.008H269.677V278.57H285.692V277.008ZM98.7023 288.18H96.8469V301.07H98.7023V288.18ZM84.4836 297.574L85.4016 299.02C87.4914 298.355 89.0246 296.91 89.8059 295.084C90.5969 296.773 92.1301 298.092 94.1906 298.727L95.0891 297.262C92.384 296.451 90.6848 294.439 90.6945 292.242V291.891H94.5617V290.406H90.7141V288.238H88.8391V290.406H84.9523V291.891H88.8391V292.242C88.8488 294.566 87.1887 296.725 84.4836 297.574ZM87.257 305.289H99.2297V303.785H89.132V299.879H87.257V305.289ZM115.202 289.254H103.229V290.777H113.366V290.797C113.356 292.428 113.356 294.254 112.838 296.754H101.276V298.277H108.268V305.68H110.143V298.277H117.233V296.754H114.713C115.202 294.264 115.202 292.457 115.202 290.797V289.254ZM134.338 295.328H118.361V296.812H134.338V295.328ZM120.275 299.625H130.47V301.07H120.295V305.465H132.795V304H122.111V302.438H132.306V298.199H120.275V299.625ZM120.451 294.059H132.443V292.574H122.306V290.172H132.267V288.668H120.451V294.059ZM145.192 290.035H136.247V291.539H143.356C143.346 292.994 143.298 295.035 142.848 297.828L144.684 297.965C145.182 294.84 145.182 292.584 145.192 291.109V290.035ZM135.27 300.387L135.485 301.891C138.591 301.91 142.663 301.832 146.305 301.246L146.208 299.859C144.46 300.084 142.555 300.201 140.7 300.279V295.035H138.864V300.338C137.585 300.367 136.364 300.377 135.27 300.387ZM147.204 305.66H149.079V296.969H151.755V295.387H149.079V288.16H147.204V305.66ZM170.964 288.16H169.109V298.707H170.964V294.273H173.503V292.691H170.964V288.16ZM157.234 291.422H167.663V289.938H163.386V288.023H161.53V289.938H157.234V291.422ZM158.191 295.309C158.181 297.203 159.9 298.443 162.448 298.453C164.968 298.443 166.687 297.203 166.687 295.309C166.687 293.443 164.978 292.184 162.448 292.184C159.9 292.184 158.181 293.443 158.191 295.309ZM159.792 305.445H170.964V299.625H159.792V305.445ZM159.988 295.309C159.968 294.264 160.964 293.6 162.448 293.609C163.933 293.6 164.929 294.264 164.948 295.309C164.929 296.393 163.933 297.037 162.448 297.047C160.964 297.037 159.968 296.393 159.988 295.309ZM161.609 303.941V301.09H169.128V303.941H161.609ZM178.635 290.23H174.651V291.754H177.024C176.897 295.045 176.282 298.082 174.241 300.816L175.686 301.637C178.127 298.209 178.616 294.146 178.635 290.23ZM178.166 301.852L179.612 302.691C180.969 300.777 181.692 298.619 182.082 296.441H184.358V304.801H186.116V288.609H184.358V294.938H182.297C182.483 293.307 182.522 291.705 182.522 290.23H179.163V291.754H180.92C180.852 295.143 180.432 298.805 178.166 301.852ZM187.659 305.66H189.436V288.16H187.659V305.66ZM212.024 295.504H196.067V296.988H212.024V295.504ZM196.888 293.316L197.473 294.762C200.481 294.488 202.981 293.395 204.036 291.744C205.091 293.404 207.61 294.488 210.618 294.762L211.223 293.316C208.001 293.082 205.481 291.822 205.149 290.289H210.598V288.805H197.532V290.289H202.923C202.591 291.822 200.081 293.082 196.888 293.316ZM197.981 299.781H208.177V301.168H198.001V305.484H210.501V304.059H199.817V302.516H210.013V298.395H197.981V299.781ZM227.723 288.16H225.887V295.094H221.961V296.617H225.887V305.66H227.723V288.16ZM213.113 300.953L214.09 302.418C220.027 299.479 222 295.104 222.02 290.035H213.895V291.52H220.135C219.812 295.533 217.752 298.688 213.113 300.953ZM246.234 296.93H230.218V298.434H237.425V301.832H239.3V298.434H246.234V296.93ZM231.976 292.125C231.966 294.303 234.446 295.66 238.206 295.66C241.966 295.66 244.427 294.303 244.417 292.125C244.427 289.938 241.966 288.58 238.206 288.57C234.446 288.58 231.966 289.938 231.976 292.125ZM232.23 305.289H244.456V303.766H234.085V300.152H232.23V305.289ZM233.968 292.125C233.948 290.826 235.648 290.064 238.206 290.055C240.775 290.064 242.454 290.826 242.464 292.125C242.454 293.385 240.775 294.156 238.206 294.156C235.648 294.156 233.948 293.385 233.968 292.125ZM261.185 289.84H252.982V301.344H261.185V289.84ZM254.818 299.84V291.305H259.388V299.84H254.818ZM264.642 305.699H266.498V288.16H264.642V305.699ZM278.505 289.43H270.087V297.828H271.532C275.36 297.838 277.538 297.77 280.067 297.359L279.872 295.855C277.499 296.266 275.458 296.324 271.962 296.305V294.312H278.016V292.848H271.962V290.914H278.505V289.43ZM271.786 302.398C271.786 304.459 274.022 305.631 277.743 305.621C281.405 305.631 283.69 304.459 283.7 302.398C283.69 300.357 281.405 299.176 277.743 299.176C274.022 299.176 271.786 300.357 271.786 302.398ZM273.641 302.398C273.632 301.285 275.136 300.631 277.743 300.641C280.302 300.631 281.854 301.285 281.845 302.398C281.854 303.541 280.302 304.186 277.743 304.195C275.136 304.186 273.632 303.541 273.641 302.398ZM281.747 298.941H283.602V288.18H281.747V298.941ZM289.398 289.859H287.113L287.289 299.918H289.223L289.398 289.859ZM286.879 302.75C286.869 303.512 287.504 304.127 288.266 304.137C289.018 304.127 289.643 303.512 289.652 302.75C289.643 301.988 289.018 301.363 288.266 301.363C287.504 301.363 286.869 301.988 286.879 302.75Z" fill="black"/>
<g clip-path="url(#clip1_1050_2166)">
<path d="M112.428 266.336C112.815 265.942 113.031 265.412 113.031 264.859H101.008V266.336H112.428Z" fill="white"/>
<path d="M117.461 273.263L120.155 271.493C120.622 271.185 120.949 270.704 121.062 270.156C121.175 269.608 121.066 269.037 120.758 268.569C120.45 268.102 119.969 267.775 119.421 267.662C118.873 267.549 118.302 267.658 117.834 267.966L117.461 268.215V265.802C118.432 265.423 119.509 265.418 120.484 265.786C121.459 266.154 122.263 266.87 122.741 267.796C123.219 268.722 123.338 269.792 123.074 270.8C122.811 271.808 122.183 272.683 121.313 273.256L117.25 275.927L117.461 273.263Z" fill="#F0F5F7"/>
<path d="M118.938 274.816V272.293L117.672 273.124V275.647L118.938 274.816Z" fill="#C5D0D3"/>
<path d="M118.938 265.512C118.507 265.516 118.08 265.588 117.672 265.723V268.077L117.839 267.967C118.166 267.752 118.546 267.633 118.938 267.623V265.512Z" fill="#C5D0D3"/>
<path d="M117.25 275.927L121.317 273.256C122.19 272.684 122.819 271.808 123.084 270.799C123.349 269.789 123.23 268.717 122.751 267.79C122.271 266.863 121.465 266.147 120.488 265.78C119.511 265.412 118.432 265.42 117.461 265.802" stroke="#B0BCC1" stroke-width="1.125" stroke-linecap="round" stroke-linejoin="round"/>
<path d="M117.461 268.215L117.839 267.967C118.306 267.659 118.877 267.55 119.425 267.663C119.974 267.776 120.454 268.102 120.762 268.57C121.07 269.038 121.179 269.608 121.066 270.157C120.953 270.705 120.627 271.186 120.159 271.493L117.461 273.263" stroke="#B0BCC1" stroke-width="1.125" stroke-linecap="round" stroke-linejoin="round"/>
<path opacity="0.51" d="M101.008 264.859H117.461V274.141C117.461 276.155 116.661 278.086 115.237 279.51C113.813 280.934 111.881 281.734 109.867 281.734H108.602C106.588 281.734 104.656 280.934 103.232 279.51C101.808 278.086 101.008 276.155 101.008 274.141V264.859Z" fill="white"/>
<path opacity="0.4" d="M101.008 264.859H117.461V274.141C117.461 276.155 116.661 278.086 115.237 279.51C113.813 280.934 111.881 281.734 109.867 281.734H108.602C106.588 281.734 104.656 280.934 103.232 279.51C101.808 278.086 101.008 276.155 101.008 274.141V264.859Z" fill="#D7DFE2"/>
<path d="M112.428 266.336C112.815 265.942 113.031 265.412 113.031 264.859H101.008V266.336H112.428Z" fill="white"/>
<path d="M117.039 268.656H101.43V269.922H117.039V268.656Z" fill="#C9A581"/>
<path d="M117.039 266.336H101.43V268.656H117.039V266.336Z" fill="#EDD8B9"/>
<path d="M101.43 268.656V269.922H103.117V269.078C103.117 268.936 103.131 268.795 103.159 268.656H101.43Z" fill="#E0C7A0"/>
<path d="M101.43 266.336V268.656H103.159C103.257 268.18 103.516 267.752 103.892 267.444C104.269 267.137 104.74 266.969 105.227 266.969H110.922C111.202 266.969 111.48 266.913 111.739 266.804C111.997 266.695 112.232 266.536 112.428 266.336H101.43Z" fill="#FCEFDE"/>
<path d="M110.079 256.211C109.758 256.622 109.431 257.017 109.161 257.441C108.884 257.832 108.678 258.269 108.552 258.732C108.495 258.925 108.483 259.128 108.516 259.327C108.55 259.525 108.628 259.713 108.746 259.877C108.896 260.053 109.059 260.218 109.235 260.369C109.453 260.566 109.643 260.794 109.798 261.044C110.092 261.569 110.21 262.176 110.134 262.773C110.07 263.319 109.922 263.852 109.695 264.353C109.263 265.311 108.68 266.194 107.969 266.969C108.387 266.041 108.756 265.092 109.073 264.125C109.217 263.668 109.306 263.195 109.336 262.716C109.35 262.494 109.335 262.272 109.29 262.054C109.254 261.85 109.183 261.653 109.079 261.474C108.962 261.287 108.82 261.117 108.657 260.968C108.449 260.775 108.261 260.563 108.094 260.335C107.911 260.067 107.804 259.754 107.784 259.43C107.765 259.124 107.811 258.818 107.917 258.531C108.125 258.018 108.44 257.555 108.841 257.173C109.215 256.806 109.631 256.483 110.079 256.211Z" fill="#D1C8BD"/>
<path d="M106.809 256.949C106.626 257.542 106.417 258.095 106.305 258.637C106.193 259.179 106.193 259.691 106.415 260.073C106.555 260.305 106.712 260.526 106.885 260.733C107.092 260.993 107.256 261.285 107.37 261.596C107.48 261.905 107.524 262.233 107.5 262.56C107.477 262.886 107.386 263.205 107.233 263.495C107.207 262.927 107.047 262.374 106.767 261.879C106.623 261.651 106.457 261.439 106.269 261.246C106.039 261.015 105.838 260.755 105.672 260.474C105.5 260.15 105.419 259.786 105.438 259.419C105.458 259.081 105.54 258.749 105.679 258.441C105.938 257.865 106.325 257.355 106.809 256.949Z" fill="#D1C8BD"/>
<path d="M111.238 258.004C111.775 258.177 112.246 258.512 112.584 258.964C112.774 259.226 112.885 259.538 112.902 259.862C112.909 260.035 112.888 260.207 112.839 260.373C112.791 260.519 112.729 260.66 112.653 260.795C112.514 261.039 112.381 261.24 112.259 261.451C112.137 261.662 112.019 261.873 111.902 262.083C111.673 262.539 111.47 262.995 111.238 263.488C111.13 262.952 111.144 262.398 111.28 261.868C111.346 261.6 111.438 261.339 111.554 261.088C111.666 260.837 111.808 260.598 111.921 260.392C112.025 260.232 112.089 260.051 112.111 259.862C112.122 259.665 112.088 259.467 112.012 259.284C111.8 258.832 111.54 258.402 111.238 258.004Z" fill="#D1C8BD"/>
<path d="M101.008 269.922V264.859H117.461V269.922" stroke="#B0BCC1" stroke-width="1.125" stroke-linecap="round" stroke-linejoin="round"/>
<path d="M101.008 270.344V274.141C101.014 276.153 101.816 278.081 103.239 279.503C104.662 280.926 106.589 281.728 108.602 281.734H109.867C111.879 281.728 113.807 280.926 115.23 279.503C116.653 278.081 117.455 276.153 117.461 274.141V270.344H101.008Z" fill="#423621"/>
<path d="M101.035 274.752C101.045 274.873 101.058 274.994 101.073 275.115C101.073 275.155 101.073 275.193 101.088 275.233C101.111 275.387 101.136 275.541 101.168 275.693L101.183 275.754C101.212 275.887 101.245 276.017 101.28 276.147L101.314 276.265C101.35 276.39 101.39 276.514 101.434 276.638L101.457 276.708C101.511 276.848 101.568 276.993 101.63 277.14L101.664 277.212C101.717 277.33 101.773 277.447 101.83 277.562L101.879 277.657C101.949 277.792 102.022 277.923 102.1 278.054C102.411 277.866 102.667 277.601 102.845 277.285C103.023 276.969 103.117 276.613 103.117 276.25V270.403C102.454 270.501 101.781 270.516 101.113 270.449L101.008 270.158V274.141C101.008 274.301 101.008 274.459 101.025 274.617C101.027 274.662 101.031 274.708 101.035 274.752Z" fill="#684D45"/>
<path d="M101.008 270.344V274.141C101.014 276.153 101.816 278.081 103.239 279.503C104.662 280.926 106.589 281.728 108.602 281.734H109.867C111.879 281.728 113.807 280.926 115.23 279.503C116.653 278.081 117.455 276.153 117.461 274.141V270.344H101.008Z" stroke="#2B2111" stroke-width="1.125" stroke-miterlimit="10"/>
<path d="M102.999 281.102C103.326 281.751 103.896 282.578 104.805 282.578H113.664C114.573 282.578 115.141 281.751 115.47 281.102" fill="#C5D0D3"/>
<path d="M102.999 281.102C103.326 281.751 103.896 282.578 104.805 282.578H113.664C114.573 282.578 115.141 281.751 115.47 281.102" stroke="#B0BCC1" stroke-width="1.125" stroke-linecap="round" stroke-linejoin="round"/>
<path d="M102.999 281.102C103.326 281.751 103.896 282.578 104.805 282.578H113.664C114.573 282.578 115.141 281.751 115.47 281.102" fill="#C5D0D3"/>
<path d="M102.999 281.102C103.326 281.751 103.896 282.578 104.805 282.578H113.664C114.573 282.578 115.141 281.751 115.47 281.102" stroke="#B0BCC1" stroke-width="1.125" stroke-linecap="round" stroke-linejoin="round"/>
<path d="M120.625 280.258C120.625 280.258 118.094 281.102 113.031 281.102H105.438C100.375 281.102 97.8438 280.258 97.8438 280.258" stroke="#B0BCC1" stroke-width="1.125" stroke-linecap="round" stroke-linejoin="round"/>
<path d="M109.234 275.195C111.098 275.195 112.609 273.684 112.609 271.82C112.609 269.956 111.098 268.445 109.234 268.445C107.37 268.445 105.859 269.956 105.859 271.82C105.859 273.684 107.37 275.195 109.234 275.195Z" fill="white"/>
<path d="M109.234 274.773C110.865 274.773 112.188 273.451 112.188 271.82C112.188 270.189 110.865 268.867 109.234 268.867C107.603 268.867 106.281 270.189 106.281 271.82C106.281 273.451 107.603 274.773 109.234 274.773Z" fill="#007143"/>
<path d="M109.234 271.033L109.445 271.398H109.867L109.557 271.814L109.656 272.242L109.234 272.048L108.812 272.242L108.912 271.814L108.602 271.398H109.023L109.234 271.033Z" stroke="white" stroke-width="1.125" stroke-miterlimit="10" stroke-linecap="round"/>
<path d="M111.466 271.187C111.327 270.703 111.035 270.277 110.632 269.973C110.23 269.67 109.74 269.506 109.236 269.506C108.732 269.506 108.241 269.67 107.839 269.973C107.436 270.277 107.144 270.703 107.005 271.187" stroke="white" stroke-width="0.5625" stroke-miterlimit="10"/>
<path d="M106.958 272.268C107.047 272.72 107.269 273.135 107.594 273.46C107.92 273.786 108.335 274.008 108.787 274.096" stroke="white" stroke-width="0.5625" stroke-miterlimit="10"/>
<path d="M109.682 274.096C110.134 274.008 110.549 273.786 110.874 273.46C111.2 273.135 111.422 272.72 111.51 272.268" stroke="white" stroke-width="0.5625" stroke-miterlimit="10"/>
</g>
<g filter="url(#filter1_d_1050_2166)">
<rect x="67" y="351" width="240" height="114" rx="8" fill="white"/>
<rect x="67.5" y="351.5" width="239" height="113" rx="7.5" stroke="#EEEEEE"/>
</g>
<path d="M166.678 388.58H136.161L133.387 413.548H169.452L166.678 388.58Z" fill="#C67A60"/>
<path d="M112.581 365V376.097L108.48 402.751C108.077 405.371 106.75 407.76 104.738 409.486C102.726 411.212 100.163 412.161 97.5126 412.161H94.5483L101.254 374.169C101.707 371.6 103.051 369.273 105.049 367.596C107.047 365.919 109.573 365 112.181 365H112.581Z" fill="#B26049"/>
<path d="M116.742 373.322H108.42V369.161C108.42 368.057 108.858 366.999 109.638 366.218C110.419 365.438 111.477 365 112.581 365C113.685 365 114.743 365.438 115.523 366.218C116.304 366.999 116.742 368.057 116.742 369.161V373.322Z" fill="#FCAB68"/>
<path d="M136.161 428.854V451H89V428.854C88.9999 426.443 89.785 424.097 91.2365 422.172C92.6881 420.247 94.7271 418.847 97.0452 418.184L108.419 414.936H116.742L128.116 418.184C130.434 418.847 132.473 420.247 133.925 422.172C135.376 424.097 136.161 426.443 136.161 428.854Z" fill="#FFFBD4"/>
<path d="M101.206 418.184L112.581 414.936H108.419L97.0452 418.184C94.7271 418.847 92.6881 420.247 91.2365 422.172C89.785 424.097 88.9999 426.443 89 428.854V451H93.1613V428.854C93.1612 426.443 93.9463 424.097 95.3978 422.172C96.8494 420.247 98.8884 418.847 101.206 418.184Z" fill="#FFF6A7"/>
<path d="M97.3226 437.146H89V451.001H97.3226V437.146Z" fill="#F7D1C6"/>
<path d="M112.581 417.709C111.477 417.709 110.419 417.271 109.638 416.49C108.858 415.71 108.42 414.651 108.42 413.548V407.999H116.742V413.548C116.742 414.651 116.304 415.71 115.523 416.49C114.743 417.271 113.685 417.709 112.581 417.709Z" fill="#F7D1C6"/>
<path d="M112.581 410.773C109.27 410.773 106.094 409.458 103.753 407.117C101.412 404.776 100.097 401.6 100.097 398.29V383.032H125.064V398.29C125.064 401.6 123.749 404.776 121.408 407.117C119.067 409.458 115.892 410.773 112.581 410.773Z" fill="#F7D1C6"/>
<path d="M93.1613 437.146H89V451.001H93.1613V437.146Z" fill="#F4B19F"/>
<path d="M125.064 396.902V388.58C126.168 388.58 127.226 389.018 128.007 389.799C128.787 390.579 129.226 391.637 129.226 392.741C129.226 393.845 128.787 394.903 128.007 395.684C127.226 396.464 126.168 396.902 125.064 396.902Z" fill="#F7D1C6"/>
<path d="M104.258 398.291V383.033H100.097V398.291C100.087 400.109 100.476 401.907 101.238 403.559C101.999 405.21 103.114 406.673 104.503 407.846C105.892 409.019 107.522 409.873 109.277 410.346C111.033 410.82 112.871 410.903 114.661 410.588C111.754 410.098 109.114 408.594 107.21 406.343C105.305 404.092 104.26 401.24 104.258 398.291Z" fill="#F4B19F"/>
<path d="M100.097 388.58V396.903C98.9932 396.903 97.9348 396.464 97.1544 395.684C96.374 394.903 95.9355 393.845 95.9355 392.741C95.9355 391.638 96.374 390.579 97.1544 389.799C97.9348 389.018 98.9932 388.58 100.097 388.58Z" fill="#F4B19F"/>
<path d="M112.581 370.549H112.823C116.314 370.539 119.694 371.769 122.362 374.021C125.03 376.272 126.811 379.397 127.388 382.84C127.543 383.78 127.657 384.706 127.732 385.596C127.761 385.978 127.711 386.361 127.584 386.723C127.458 387.084 127.258 387.415 126.998 387.696C126.737 387.976 126.421 388.199 126.07 388.352C125.719 388.504 125.34 388.582 124.958 388.581H116.009C114.146 388.581 112.318 388.062 110.733 387.082C109.147 386.102 107.866 384.7 107.032 383.033L106.072 384.951C105.527 386.042 104.689 386.959 103.652 387.6C102.615 388.241 101.42 388.581 100.201 388.581C99.8157 388.583 99.4346 388.504 99.0817 388.35C98.7287 388.196 98.4117 387.97 98.1508 387.687C97.8898 387.404 97.6907 387.07 97.566 386.705C97.4413 386.341 97.3938 385.955 97.4265 385.571C97.4945 384.778 97.5916 383.959 97.7234 383.126C98.2994 379.605 100.112 376.405 102.835 374.1C105.558 371.795 109.013 370.536 112.581 370.549Z" fill="#C67A60"/>
<path d="M175 431.627V450.999H127.839V431.627C127.839 429.216 128.624 426.871 130.075 424.946C131.527 423.021 133.566 421.621 135.884 420.958L147.258 417.709H155.581L166.955 420.958C169.273 421.621 171.312 423.021 172.764 424.946C174.215 426.871 175 429.216 175 431.627Z" fill="#F96464"/>
<path d="M140.045 420.958L151.42 417.709H147.258L135.884 420.958C133.566 421.621 131.527 423.021 130.075 424.946C128.624 426.871 127.839 429.216 127.839 431.627V450.999H132V431.627C132 429.216 132.785 426.871 134.237 424.946C135.688 423.021 137.727 421.621 140.045 420.958Z" fill="#D34444"/>
<path d="M175 439.92H166.677V451H175V439.92Z" fill="#F7D1C6"/>
<path d="M136.161 439.92H127.839V451H136.161V439.92Z" fill="#F7D1C6"/>
<path d="M132 439.92H127.839V451H132V439.92Z" fill="#F4B19F"/>
<path d="M170.839 439.92H166.677V451H170.839V439.92Z" fill="#F4B19F"/>
<path d="M147.258 410.773H155.581V416.322C155.581 417.425 155.142 418.484 154.362 419.264C153.582 420.045 152.523 420.483 151.42 420.483C150.316 420.483 149.258 420.045 148.477 419.264C147.697 418.484 147.258 417.425 147.258 416.322V410.773Z" fill="#F7D1C6"/>
<path d="M138.936 385.807H163.903V401.065C163.903 404.376 162.588 407.551 160.247 409.892C157.906 412.233 154.73 413.549 151.419 413.549C148.108 413.549 144.933 412.233 142.592 409.892C140.251 407.551 138.936 404.376 138.936 401.065V385.807Z" fill="#F7D1C6"/>
<path d="M143.097 401.065V385.807H138.936V401.065C138.926 402.883 139.315 404.681 140.077 406.332C140.838 407.983 141.953 409.447 143.342 410.62C144.731 411.793 146.361 412.646 148.116 413.12C149.872 413.594 151.71 413.676 153.5 413.361C150.593 412.871 147.953 411.367 146.049 409.117C144.144 406.866 143.099 404.013 143.097 401.065Z" fill="#F4B19F"/>
<path d="M138.936 391.355V399.678C137.832 399.678 136.774 399.24 135.993 398.459C135.213 397.679 134.774 396.62 134.774 395.517C134.774 394.413 135.213 393.355 135.993 392.574C136.774 391.794 137.832 391.355 138.936 391.355Z" fill="#F4B19F"/>
<path d="M163.903 399.678V391.355C165.007 391.355 166.065 391.794 166.846 392.574C167.626 393.354 168.064 394.413 168.064 395.516C168.064 396.62 167.626 397.679 166.846 398.459C166.065 399.239 165.007 399.678 163.903 399.678Z" fill="#F7D1C6"/>
<path d="M152.807 373.322H150.032C145.986 373.322 142.105 374.93 139.243 377.791C136.382 380.653 134.774 384.534 134.774 388.58V391.355H150.765C151.795 391.355 152.805 391.068 153.682 390.526C154.559 389.984 155.267 389.209 155.728 388.288L156.968 385.806L158.208 388.288C158.669 389.209 159.377 389.984 160.254 390.526C161.13 391.068 162.141 391.355 163.171 391.355H168.065V388.58C168.065 384.534 166.457 380.653 163.596 377.791C160.734 374.93 156.853 373.322 152.807 373.322Z" fill="#C67A60"/>
<path d="M153.5 373.357C153.269 373.347 153.041 373.322 152.807 373.322H150.032C145.986 373.322 142.105 374.93 139.243 377.791C136.382 380.653 134.774 384.534 134.774 388.58V391.355H138.936V388.58C138.938 384.656 140.453 380.884 143.166 378.048C145.878 375.213 149.58 373.533 153.5 373.357Z" fill="#B26049"/>
<path d="M101.591 385.571C101.659 384.778 101.756 383.959 101.888 383.126C102.407 379.94 103.943 377.007 106.266 374.765C108.588 372.524 111.574 371.093 114.777 370.688C114.129 370.599 113.477 370.552 112.823 370.549H112.581C109.014 370.536 105.559 371.796 102.836 374.101C100.114 376.406 98.3023 379.605 97.7263 383.126C97.5876 383.958 97.4974 384.778 97.4295 385.571C97.3967 385.955 97.4442 386.341 97.5689 386.705C97.6936 387.07 97.8928 387.404 98.1537 387.687C98.4146 387.97 98.7317 388.196 99.0846 388.35C99.4375 388.504 99.8186 388.583 100.204 388.581C101.077 388.579 101.941 388.402 102.745 388.061C102.353 387.782 102.041 387.405 101.838 386.969C101.636 386.532 101.551 386.051 101.591 385.571Z" fill="#B26049"/>
<path d="M139.708 382.324L142.315 381.375C143.007 381.124 143.77 381.157 144.437 381.468C145.103 381.779 145.619 382.342 145.871 383.033C146.123 383.725 146.089 384.488 145.778 385.155C145.468 385.822 144.904 386.338 144.213 386.589L141.606 387.538L139.708 382.324Z" fill="#F96464"/>
<path d="M147.529 379.477L150.136 378.528L152.033 383.742L149.426 384.691C148.735 384.942 147.972 384.909 147.305 384.598C146.638 384.287 146.122 383.724 145.871 383.033C145.619 382.341 145.652 381.578 145.963 380.911C146.274 380.245 146.837 379.729 147.529 379.477Z" fill="#F96464"/>
<path d="M147.258 396.903C147.258 396.535 147.112 396.182 146.852 395.922C146.592 395.662 146.239 395.516 145.871 395.516C145.503 395.516 145.15 395.662 144.89 395.922C144.63 396.182 144.484 396.535 144.484 396.903V398.29C144.484 398.658 144.63 399.011 144.89 399.271C145.15 399.531 145.503 399.677 145.871 399.677C146.239 399.677 146.592 399.531 146.852 399.271C147.112 399.011 147.258 398.658 147.258 398.29V396.903Z" fill="#C67A60"/>
<path d="M156.968 399.677C157.336 399.677 157.688 399.531 157.948 399.271C158.209 399.011 158.355 398.658 158.355 398.29V396.903C158.355 396.535 158.209 396.182 157.948 395.922C157.688 395.662 157.336 395.516 156.968 395.516C156.6 395.516 156.247 395.662 155.987 395.922C155.727 396.182 155.581 396.535 155.581 396.903V398.29C155.581 398.658 155.727 399.011 155.987 399.271C156.247 399.531 156.6 399.677 156.968 399.677Z" fill="#C67A60"/>
<path d="M155.174 407.593C155.427 407.331 155.567 406.981 155.563 406.617C155.56 406.254 155.414 405.906 155.157 405.648C154.9 405.391 154.552 405.245 154.188 405.242C153.825 405.239 153.474 405.379 153.213 405.632C153.02 405.932 152.754 406.179 152.441 406.35C152.128 406.521 151.776 406.611 151.419 406.611C151.062 406.611 150.711 406.521 150.397 406.35C150.084 406.179 149.819 405.932 149.626 405.632C149.364 405.379 149.014 405.239 148.65 405.242C148.286 405.245 147.938 405.391 147.681 405.648C147.424 405.906 147.278 406.254 147.275 406.617C147.272 406.981 147.412 407.331 147.664 407.593C148.117 408.152 148.69 408.603 149.339 408.912C149.989 409.222 150.7 409.382 151.419 409.382C152.139 409.382 152.849 409.222 153.499 408.912C154.149 408.603 154.721 408.152 155.174 407.593Z" fill="#F96464"/>
<path d="M118.129 396.903C118.497 396.903 118.85 396.757 119.11 396.497C119.37 396.237 119.516 395.884 119.516 395.516V394.129C119.516 393.761 119.37 393.409 119.11 393.148C118.85 392.888 118.497 392.742 118.129 392.742C117.761 392.742 117.409 392.888 117.148 393.148C116.888 393.409 116.742 393.761 116.742 394.129V395.516C116.742 395.884 116.888 396.237 117.148 396.497C117.409 396.757 117.761 396.903 118.129 396.903Z" fill="#C67A60"/>
<path d="M108.419 394.129C108.419 393.761 108.273 393.409 108.013 393.148C107.753 392.888 107.4 392.742 107.032 392.742C106.664 392.742 106.311 392.888 106.051 393.148C105.791 393.409 105.645 393.761 105.645 394.129V395.516C105.645 395.884 105.791 396.237 106.051 396.497C106.311 396.757 106.664 396.903 107.032 396.903C107.4 396.903 107.753 396.757 108.013 396.497C108.273 396.237 108.419 395.884 108.419 395.516V394.129Z" fill="#C67A60"/>
<path d="M116.336 404.819C116.588 404.558 116.728 404.207 116.725 403.844C116.722 403.48 116.576 403.132 116.319 402.875C116.062 402.618 115.714 402.472 115.35 402.469C114.986 402.466 114.636 402.605 114.374 402.858C114.181 403.158 113.916 403.406 113.603 403.577C113.289 403.748 112.938 403.837 112.581 403.837C112.224 403.837 111.872 403.748 111.559 403.577C111.246 403.406 110.98 403.158 110.787 402.858C110.526 402.605 110.175 402.466 109.812 402.469C109.448 402.472 109.1 402.618 108.843 402.875C108.586 403.132 108.44 403.48 108.437 403.844C108.433 404.207 108.573 404.558 108.826 404.819C109.3 405.354 109.877 405.788 110.522 406.096C111.167 406.404 111.867 406.58 112.581 406.613C113.295 406.58 113.995 406.404 114.64 406.096C115.284 405.788 115.861 405.354 116.336 404.819Z" fill="#F96464"/>
<path d="M226.742 412.162H218.419L207.045 415.411C204.727 416.074 202.688 417.473 201.237 419.398C199.785 421.323 199 423.669 199 426.08V451L237.839 450.983V428.807H251.71V417.71L226.742 412.162Z" fill="#F96464"/>
<path d="M230.903 412.162H222.58L211.206 415.411C208.888 416.074 206.849 417.473 205.398 419.398C203.946 421.323 203.161 423.669 203.161 426.08V451L242 450.983V428.807H255.871V417.71L230.903 412.162Z" fill="#DBE9FF"/>
<path d="M226.742 412.162H218.419L207.045 415.411C204.727 416.074 202.688 417.473 201.237 419.398C199.785 421.323 199 423.669 199 426.08V451L237.839 450.983V428.807H251.71V417.71L226.742 412.162Z" fill="#DBE9FF"/>
<path d="M203.161 426.08C203.161 423.669 203.946 421.323 205.398 419.398C206.849 417.473 208.888 416.074 211.206 415.411L222.581 412.162H218.419L207.045 415.411C204.727 416.074 202.688 417.473 201.237 419.398C199.785 421.323 199 423.669 199 426.08V451H203.161V426.08Z" fill="#C0D9FF"/>
<path d="M207.323 434.355H199V450.983H207.323V434.355Z" fill="#F7D1C6"/>
<path d="M203.161 434.355H199V450.983H203.161V434.355Z" fill="#F4B19F"/>
<path d="M218.419 405.227H226.742V410.775C226.742 411.878 226.304 412.937 225.523 413.717C224.743 414.498 223.684 414.936 222.581 414.936C221.477 414.936 220.419 414.498 219.638 413.717C218.858 412.937 218.419 411.878 218.419 410.775V405.227Z" fill="#F7D1C6"/>
<path d="M210.097 378.873H235.064V395.518C235.064 398.828 233.749 402.004 231.408 404.345C229.067 406.686 225.891 408.001 222.581 408.001C219.27 408.001 216.094 406.686 213.753 404.345C211.412 402.004 210.097 398.828 210.097 395.518V378.873Z" fill="#F7D1C6"/>
<path d="M214.258 395.518V378.873H210.097V395.518C210.087 397.336 210.476 399.134 211.238 400.785C211.999 402.436 213.114 403.899 214.503 405.072C215.892 406.245 217.522 407.099 219.277 407.572C221.033 408.046 222.871 408.129 224.661 407.814C221.754 407.324 219.114 405.82 217.21 403.569C215.305 401.318 214.26 398.466 214.258 395.518Z" fill="#F4B19F"/>
<path d="M236.868 374.168L236.626 373.687C235.322 371.077 233.316 368.882 230.835 367.348C228.353 365.814 225.493 365.002 222.575 365.002C219.657 365.002 216.797 365.814 214.316 367.348C211.834 368.882 209.828 371.077 208.524 373.687L208.294 374.168C207.669 375.411 207.534 376.842 207.915 378.18L210.097 385.808C217.618 386.225 223.611 384.356 228.112 380.244C228.072 381.337 227.772 382.406 227.238 383.361C226.704 384.316 225.951 385.131 225.04 385.738L224.585 386.041C224.279 386.246 224.066 386.563 223.994 386.924C223.922 387.285 223.997 387.659 224.201 387.965C224.405 388.271 224.722 388.484 225.083 388.556C225.444 388.628 225.819 388.554 226.125 388.35L226.58 388.046C227.825 387.214 228.861 386.105 229.605 384.805C230.349 383.505 230.781 382.051 230.867 380.556L235.065 385.808L237.246 378.18C237.627 376.842 237.492 375.411 236.868 374.168Z" fill="#C67A60"/>
<path d="M210.097 385.809V394.131C208.993 394.131 207.935 393.693 207.154 392.912C206.374 392.132 205.936 391.073 205.936 389.97C205.936 388.866 206.374 387.808 207.154 387.027C207.935 386.247 208.993 385.809 210.097 385.809Z" fill="#F4B19F"/>
<path d="M235.064 394.131V385.809C236.168 385.809 237.226 386.247 238.007 387.027C238.787 387.808 239.226 388.866 239.226 389.97C239.226 391.073 238.787 392.132 238.007 392.912C237.226 393.692 236.168 394.131 235.064 394.131Z" fill="#F7D1C6"/>
<path d="M212.076 378.18C211.695 376.842 211.83 375.411 212.455 374.168L212.696 373.687C213.842 371.395 215.532 369.418 217.617 367.928C219.703 366.438 222.121 365.482 224.661 365.141C221.417 364.703 218.116 365.291 215.223 366.823C212.33 368.356 209.989 370.756 208.529 373.687L208.294 374.168C207.669 375.411 207.534 376.842 207.915 378.18L210.097 385.809C211.48 385.879 212.866 385.865 214.247 385.767L212.076 378.18Z" fill="#B26049"/>
<path d="M285 428.855V451.001H237.839V428.855C237.839 426.444 238.624 424.099 240.075 422.174C241.527 420.249 243.566 418.849 245.884 418.186L257.258 414.938H265.581L276.955 418.186C279.273 418.849 281.312 420.249 282.764 422.174C284.215 424.099 285 426.444 285 428.855Z" fill="#BEB4B4"/>
<path d="M250.045 418.186L261.42 414.938H257.258L245.884 418.186C243.566 418.849 241.527 420.249 240.075 422.174C238.624 424.099 237.839 426.444 237.839 428.855V451.001H242V428.855C242 426.444 242.785 424.099 244.237 422.174C245.688 420.249 247.727 418.849 250.045 418.186Z" fill="#9D9B9B"/>
<path d="M257.258 408.002H265.58V413.55C265.58 414.654 265.142 415.712 264.362 416.493C263.581 417.273 262.523 417.711 261.419 417.711C260.315 417.711 259.257 417.273 258.477 416.493C257.696 415.712 257.258 414.654 257.258 413.55V408.002Z" fill="#F7D1C6"/>
<path d="M248.936 381.646H273.903V398.291C273.903 401.602 272.588 404.777 270.247 407.118C267.906 409.459 264.73 410.775 261.419 410.775C258.108 410.775 254.933 409.459 252.592 407.118C250.251 404.777 248.936 401.602 248.936 398.291V381.646Z" fill="#F7D1C6"/>
<path d="M253.097 398.291V381.646H248.936V398.291C248.926 400.109 249.315 401.907 250.077 403.558C250.838 405.209 251.953 406.673 253.342 407.846C254.731 409.019 256.361 409.872 258.116 410.346C259.872 410.82 261.71 410.902 263.5 410.587C260.593 410.097 257.953 408.594 256.049 406.343C254.144 404.092 253.099 401.239 253.097 398.291Z" fill="#F4B19F"/>
<path d="M261.419 367.777C258.108 367.777 254.933 369.093 252.592 371.434C250.251 373.775 248.936 376.95 248.936 380.261V388.583H260.032C261.283 388.583 262.508 388.235 263.572 387.577C264.636 386.92 265.496 385.98 266.055 384.862L266.968 383.035L267.881 384.862C268.44 385.98 269.3 386.92 270.364 387.577C271.427 388.235 272.653 388.583 273.903 388.583V380.261C273.903 376.95 272.588 373.775 270.247 371.434C267.906 369.093 264.73 367.777 261.419 367.777Z" fill="#C67A60"/>
<path d="M263.5 367.965C261.71 367.65 259.872 367.732 258.116 368.206C256.361 368.68 254.731 369.533 253.342 370.706C251.953 371.879 250.838 373.343 250.077 374.994C249.315 376.645 248.926 378.443 248.936 380.261V388.583H253.097V380.261C253.099 377.313 254.144 374.46 256.049 372.209C257.953 369.958 260.593 368.455 263.5 367.965Z" fill="#B26049"/>
<path d="M248.936 388.582V396.904C247.832 396.904 246.774 396.466 245.993 395.686C245.213 394.905 244.774 393.847 244.774 392.743C244.774 391.64 245.213 390.581 245.993 389.801C246.774 389.02 247.832 388.582 248.936 388.582Z" fill="#F4B19F"/>
<path d="M273.903 396.904V388.582C275.007 388.582 276.065 389.02 276.846 389.801C277.626 390.581 278.064 391.64 278.064 392.743C278.064 393.847 277.626 394.905 276.846 395.686C276.065 396.466 275.007 396.904 273.903 396.904Z" fill="#F7D1C6"/>
<path d="M278.794 413.478C277.041 411.724 274.198 411.724 272.444 413.478C270.691 415.231 270.691 418.074 272.444 419.827L274.561 421.944C276.315 423.697 279.157 423.697 280.911 421.944C282.664 420.19 282.664 417.347 280.911 415.594L278.794 413.478Z" fill="#F7D1C6"/>
<path d="M278.722 421.944L276.605 419.827C276.188 419.41 275.858 418.915 275.632 418.37C275.406 417.826 275.29 417.242 275.29 416.652C275.29 416.062 275.406 415.478 275.632 414.934C275.858 414.389 276.188 413.894 276.605 413.477C276.929 413.163 277.298 412.9 277.7 412.696C276.855 412.248 275.889 412.082 274.944 412.222C273.998 412.363 273.122 412.803 272.444 413.477C272.027 413.894 271.696 414.389 271.471 414.934C271.245 415.478 271.129 416.062 271.129 416.652C271.129 417.242 271.245 417.826 271.471 418.37C271.696 418.915 272.027 419.41 272.444 419.827L274.561 421.944C275.239 422.618 276.115 423.058 277.06 423.198C278.006 423.339 278.972 423.173 279.817 422.725C279.414 422.521 279.045 422.258 278.722 421.944Z" fill="#F4B19F"/>
<path d="M285 434.355H276.677V451H285V434.355Z" fill="#F7D1C6"/>
<path d="M280.839 434.355H276.677V451H280.839V434.355Z" fill="#F4B19F"/>
<path d="M246.161 434.355H237.839V451H246.161V434.355Z" fill="#F7D1C6"/>
<path d="M242 434.355H237.839V451H242V434.355Z" fill="#F4B19F"/>
<path d="M257.258 394.131C257.258 393.763 257.112 393.411 256.852 393.15C256.592 392.89 256.239 392.744 255.871 392.744C255.503 392.744 255.15 392.89 254.89 393.15C254.63 393.411 254.484 393.763 254.484 394.131V395.518C254.484 395.886 254.63 396.239 254.89 396.499C255.15 396.759 255.503 396.905 255.871 396.905C256.239 396.905 256.592 396.759 256.852 396.499C257.112 396.239 257.258 395.886 257.258 395.518V394.131Z" fill="#C67A60"/>
<path d="M266.968 396.905C267.336 396.905 267.688 396.759 267.948 396.499C268.209 396.239 268.355 395.886 268.355 395.518V394.131C268.355 393.763 268.209 393.411 267.948 393.15C267.688 392.89 267.336 392.744 266.968 392.744C266.6 392.744 266.247 392.89 265.987 393.15C265.727 393.411 265.581 393.763 265.581 394.131V395.518C265.581 395.886 265.727 396.239 265.987 396.499C266.247 396.759 266.6 396.905 266.968 396.905Z" fill="#C67A60"/>
<path d="M265.174 404.821C265.427 404.56 265.567 404.209 265.563 403.846C265.56 403.482 265.414 403.134 265.157 402.877C264.9 402.62 264.552 402.474 264.188 402.471C263.825 402.468 263.474 402.607 263.213 402.86C263.019 403.159 262.753 403.406 262.44 403.576C262.127 403.747 261.776 403.836 261.419 403.836C261.063 403.836 260.712 403.747 260.398 403.576C260.085 403.406 259.819 403.159 259.626 402.86C259.364 402.607 259.014 402.468 258.65 402.471C258.286 402.474 257.938 402.62 257.681 402.877C257.424 403.134 257.278 403.482 257.275 403.846C257.272 404.209 257.412 404.56 257.664 404.821C258.117 405.381 258.689 405.833 259.339 406.144C259.988 406.454 260.699 406.615 261.419 406.615C262.139 406.615 262.85 406.454 263.5 406.144C264.149 405.833 264.722 405.381 265.174 404.821Z" fill="#F96464"/>
<path d="M218.419 391.356C218.419 390.988 218.273 390.635 218.013 390.375C217.753 390.115 217.4 389.969 217.032 389.969C216.664 389.969 216.311 390.115 216.051 390.375C215.791 390.635 215.645 390.988 215.645 391.356V392.743C215.645 393.111 215.791 393.464 216.051 393.724C216.311 393.984 216.664 394.13 217.032 394.13C217.4 394.13 217.753 393.984 218.013 393.724C218.273 393.464 218.419 393.111 218.419 392.743V391.356Z" fill="#C67A60"/>
<path d="M228.129 394.13C228.497 394.13 228.85 393.984 229.11 393.724C229.37 393.464 229.516 393.111 229.516 392.743V391.356C229.516 390.988 229.37 390.635 229.11 390.375C228.85 390.115 228.497 389.969 228.129 389.969C227.761 389.969 227.409 390.115 227.148 390.375C226.888 390.635 226.742 390.988 226.742 391.356V392.743C226.742 393.111 226.888 393.464 227.148 393.724C227.409 393.984 227.761 394.13 228.129 394.13Z" fill="#C67A60"/>
<path d="M226.336 402.046C226.588 401.784 226.728 401.434 226.725 401.07C226.722 400.707 226.576 400.359 226.319 400.102C226.062 399.844 225.714 399.699 225.35 399.695C224.986 399.692 224.636 399.832 224.374 400.085C224.181 400.384 223.915 400.63 223.602 400.801C223.288 400.971 222.937 401.06 222.581 401.06C222.224 401.06 221.873 400.971 221.56 400.801C221.247 400.63 220.981 400.384 220.787 400.085C220.526 399.832 220.175 399.692 219.812 399.695C219.448 399.699 219.1 399.844 218.843 400.102C218.586 400.359 218.44 400.707 218.437 401.07C218.433 401.434 218.573 401.784 218.826 402.046C219.299 402.582 219.876 403.016 220.521 403.325C221.166 403.633 221.867 403.808 222.581 403.839C223.295 403.808 223.995 403.633 224.641 403.325C225.286 403.016 225.862 402.582 226.336 402.046Z" fill="#F96464"/>
<path d="M290 322H258C255.794 322 254 323.794 254 326V362L262 354H290C292.206 354 294 352.206 294 350V326C294 323.794 292.206 322 290 322ZM272 345.828L264.586 338.414L267.414 335.586L272 340.172L281.586 330.586L284.414 333.414L272 345.828Z" fill="#EB8888"/>
<path d="M80.9973 58.4141H73.9465V57.1445C77.0129 56.998 78.7609 56.0703 78.7512 54.4883C78.7609 52.75 76.6516 51.832 73.009 51.832C69.3566 51.832 67.257 52.75 67.2668 54.4883C67.257 56.0801 69.0051 57.0078 72.091 57.1445V58.4141H65.0402V59.8789H80.9973V58.4141ZM65.8605 51.1484H80.0988V49.7227H73.9465V47.9844H72.091V49.7227H65.8605V51.1484ZM67.052 65.2891H79.2004V63.8047H68.927V60.9141H67.052V65.2891ZM69.1418 54.4883C69.132 53.6094 70.4602 53.1602 73.009 53.1602C75.5383 53.1602 76.8762 53.6094 76.8762 54.4883C76.8762 55.3672 75.5383 55.8164 73.009 55.8164C70.4602 55.8164 69.132 55.3672 69.1418 54.4883ZM88.2191 53.3164V51.4609H92.0277V49.918H82.4379V51.4609H86.3832V53.3164C86.3734 56.2754 84.4496 59.5762 81.7934 60.8555L82.8871 62.3203C84.8793 61.3242 86.5199 59.166 87.3207 56.6758C88.1117 58.9609 89.6742 60.9336 91.6371 61.8711L92.6918 60.4258C90.0355 59.166 88.2094 56.0801 88.2191 53.3164ZM93.9027 65.6602H95.7582V56.6562H98.5707V55.0938H95.7582V48.1602H93.9027V65.6602ZM120.241 55.0352H117.526V48.1602H115.671V65.6406H117.526V56.5586H120.241V55.0352ZM104.557 61.2461H106.003C108.63 61.2559 111.384 61.0801 114.382 60.4844L114.167 58.9219C111.384 59.4883 108.835 59.6934 106.393 59.7031V49.8594H104.557V61.2461ZM134.611 48.1602H132.756V65.6406H134.611V56.6758H137.326V55.1328H134.611V48.1602ZM120.998 60.9727L122.033 62.418C127.795 59.5762 130.021 55.0547 130.041 49.9961H121.877V51.5391H128.146C127.766 55.6211 125.383 58.7852 120.998 60.9727ZM152.224 53.2773H142.009V48.7852H140.173V54.7617H152.224V53.2773ZM138.044 58.4531H154.06V56.9688H138.044V58.4531ZM140.036 65.25H152.341V63.7266H141.892V60.1133H140.036V65.25ZM175.828 58.4531H159.812V59.918H166.863V65.6602H168.679V59.918H175.828V58.4531ZM161.804 56.4609H173.816V48.8633H171.961V51.1484H163.64V48.8633H161.804V56.4609ZM163.64 54.9766V52.6328H171.961V54.9766H163.64ZM190.667 48.1602H188.811V58.043H190.667V53.8633H193.206V52.3203H190.667V48.1602ZM177.698 57.1445H179.085C182.835 57.1445 184.905 57.0566 187.268 56.5586L187.054 55.0742C184.856 55.5039 182.942 55.6406 179.534 55.6406V50.8164H185.471V49.3125H177.698V57.1445ZM179.495 65.4258H190.667V58.9023H179.495V65.4258ZM181.311 63.9414V60.3867H188.831V63.9414H181.311ZM202.889 50.6406V49.3125H200.936V50.6406C200.926 53.4922 197.908 56.168 194.588 56.793L195.408 58.3359C198.211 57.7109 200.779 55.8848 201.932 53.4336C203.064 55.8945 205.633 57.7305 208.436 58.3359L209.295 56.793C205.926 56.1875 202.889 53.4922 202.889 50.6406ZM194.002 63.3555H210.018V61.8125H194.002V63.3555ZM225.657 48.1602H223.821V54.7422H220.618V56.2852H223.821V65.6992H225.657V48.1602ZM211.693 51.2461H217.786V54.4883H211.732V61.5391H213.118C216.204 61.5195 218.509 61.4121 221.126 60.9531L220.97 59.4297C218.529 59.8691 216.38 59.957 213.587 59.9766V55.9922H219.583V49.7422H211.693V51.2461ZM244.168 56.9297H228.153V58.4336H235.36V61.832H237.235V58.4336H244.168V56.9297ZM229.911 52.125C229.901 54.3027 232.381 55.6602 236.141 55.6602C239.901 55.6602 242.362 54.3027 242.352 52.125C242.362 49.9375 239.901 48.5801 236.141 48.5703C232.381 48.5801 229.901 49.9375 229.911 52.125ZM230.164 65.2891H242.391V63.7656H232.02V60.1523H230.164V65.2891ZM231.903 52.125C231.883 50.8262 233.582 50.0645 236.141 50.0547C238.709 50.0645 240.389 50.8262 240.399 52.125C240.389 53.3848 238.709 54.1562 236.141 54.1562C233.582 54.1562 231.883 53.3848 231.903 52.125ZM265.956 61.9102H258.788V57.75H256.952V61.9102H249.94V63.4336H265.956V61.9102ZM250.487 56.5391L251.307 58.0625C254.13 57.5059 256.708 55.7383 257.86 53.3555C259.012 55.748 261.61 57.5059 264.452 58.0625L265.253 56.5391C261.874 55.9727 258.827 53.375 258.827 50.6016V49.2734H256.874V50.6016C256.864 53.375 253.856 55.9727 250.487 56.5391ZM282.006 48.1602H280.229V55.0742H278.061V48.6289H276.322V64.8203H278.061V56.5781H280.229V65.6602H282.006V48.1602ZM266.967 60.6602L268.041 61.9492C273.051 59.127 274.574 54.9863 274.584 50.3867H267.709V51.9102H272.777C272.484 55.4746 270.854 58.4531 266.967 60.6602ZM293.525 49.4297H285.107V57.8281H286.552C290.38 57.8379 292.558 57.7695 295.087 57.3594L294.892 55.8555C292.519 56.2656 290.478 56.3242 286.982 56.3047V54.3125H293.036V52.8477H286.982V50.9141H293.525V49.4297ZM286.806 62.3984C286.806 64.459 289.042 65.6309 292.763 65.6211C296.425 65.6309 298.71 64.459 298.72 62.3984C298.71 60.3574 296.425 59.1758 292.763 59.1758C289.042 59.1758 286.806 60.3574 286.806 62.3984ZM288.661 62.3984C288.652 61.2852 290.155 60.6309 292.763 60.6406C295.321 60.6309 296.874 61.2852 296.864 62.3984C296.874 63.541 295.321 64.1855 292.763 64.1953C290.155 64.1855 288.652 63.541 288.661 62.3984ZM296.767 58.9414H298.622V48.1797H296.767V58.9414ZM319.629 48.1602H317.773V57.0078H319.629V53.3555H322.168V51.8125H319.629V48.1602ZM306.562 56.1875H314.746V49.0977H306.562V56.1875ZM308.32 59.2539H317.793V60.8555H308.359V65.4453H320.234V63.9609H310.175V62.2422H319.629V57.8086H308.32V59.2539ZM308.379 54.7031V50.582H312.929V54.7031H308.379ZM337.124 49.8398H324.643V51.3438H335.268V51.5586C335.259 53.6582 335.259 56.1387 334.585 59.5273L336.46 59.7227C337.114 56.1387 337.114 53.7168 337.124 51.5586V49.8398ZM322.964 63.2969H338.921V61.7539H330.874V55.582H329.038V61.7539H322.964V63.2969Z" fill="black"/>
<path d="M45.808 27.6377L38.2517 28.391L38.3145 29.0207L39.9704 28.8556L40.204 31.1994L38.5598 31.3634L38.6226 31.993L46.1439 31.2432L46.0811 30.6136L44.4486 30.7763L44.2149 28.4324L45.8708 28.2674L45.808 27.6377ZM37.8816 33.7746L42.1962 33.3444L42.3159 34.5455L43.0272 34.4746L42.9075 33.2735L47.292 32.8364L47.2304 32.2184L37.82 33.1565L37.8816 33.7746ZM39.0103 37.7722L39.29 38.3331C40.8287 37.9972 42.3355 37.2228 42.8337 36.1368C43.5313 37.1095 45.1718 37.5583 46.7413 37.5903L46.9164 36.984C45.1737 36.987 43.2353 36.3853 43.1214 35.1836L43.0901 34.8688L42.3321 34.9443L42.3635 35.2592C42.4826 36.4544 40.6901 37.4339 39.0103 37.7722ZM40.9387 31.1262L40.705 28.7824L43.4803 28.5057L43.714 30.8495L40.9387 31.1262ZM56.0085 26.6208L48.4523 27.3741L48.515 28.0038L50.1709 27.8387L50.4045 30.1825L48.7604 30.3465L48.8231 30.9761L56.3444 30.2263L56.2817 29.5967L54.6491 29.7594L54.4155 27.4155L56.0713 27.2505L56.0085 26.6208ZM48.0821 32.7577L52.3967 32.3275L52.5164 33.5286L53.2277 33.4577L53.108 32.2566L57.4925 31.8195L57.4309 31.2015L48.0205 32.1396L48.0821 32.7577ZM49.2108 36.7553L49.4905 37.3162C51.0292 36.9803 52.536 36.2059 53.0342 35.1199C53.7318 36.0926 55.3723 36.5414 56.9419 36.5734L57.1169 35.9671C55.3743 35.9701 53.4359 35.3684 53.322 34.1667L53.2906 33.8519L52.5326 33.9274L52.564 34.2423C52.6832 35.4375 50.8906 36.417 49.2108 36.7553ZM51.1392 30.1093L50.9055 27.7655L53.6808 27.4888L53.9145 29.8326L51.1392 30.1093ZM65.7369 25.3565L65.0023 25.4298L65.7718 33.1493L66.5065 33.0761L66.1461 29.4612L67.732 29.3031L67.6692 28.6734L66.0833 28.8315L65.7369 25.3565ZM57.9538 28.0874L64.0874 27.4759L64.0258 26.8579L61.3205 27.1276L61.1903 25.8216L60.4673 25.8936L60.5975 27.1997L57.8922 27.4694L57.9538 28.0874ZM58.8124 30.5574C58.9211 31.7066 59.9797 32.343 61.4612 32.2012C62.9182 32.05 63.8304 31.2171 63.7217 30.068C63.6002 28.9083 62.5416 28.2719 61.0834 28.4114C59.603 28.5648 58.6909 29.3977 58.8124 30.5574ZM59.5121 30.4876C59.4284 29.7069 60.0815 29.1118 61.1427 29.0061C62.1863 28.902 62.9441 29.3564 63.0337 30.1365C63.0993 30.9132 62.4456 31.5024 61.4008 31.5948C60.3408 31.7122 59.5835 31.2637 59.5121 30.4876ZM60.3709 36.0313L67.2392 35.3466L67.1776 34.7286L61.0323 35.3412L60.7998 33.009L60.0768 33.0811L60.3709 36.0313ZM79.4446 23.99L78.7333 24.0609L79.1506 28.2472L77.4831 28.4134L77.0902 24.472L76.4022 24.5406L77.3484 34.0326L78.0364 33.964L77.5447 29.0315L79.2122 28.8652L79.7586 34.3459L80.4699 34.275L79.4446 23.99ZM71.8603 32.4953L72.5016 32.4313C74.1505 32.2552 75.1778 32.1056 76.3871 31.7142L76.2427 31.0927C75.1022 31.4654 74.111 31.6231 72.531 31.7807L72.0183 26.6382L75.1434 26.3266L75.0818 25.7086L71.2221 26.0934L71.8603 32.4953ZM87.1715 24.3856L84.4661 24.6553L84.3464 23.4542L83.6234 23.5263L83.7432 24.7274L81.0378 24.9971L81.0994 25.6151L87.2331 25.0036L87.1715 24.3856ZM81.9499 28.0035C82.0557 29.1235 83.1125 29.7424 84.5929 29.5889C86.0627 29.4483 86.9649 28.6341 86.8592 27.5141C86.7406 26.3835 85.6966 25.7751 84.2267 25.9157C82.7463 26.0692 81.8313 26.8729 81.9499 28.0035ZM82.9785 31.3515L88.9256 30.7587L89.1895 33.4057L89.9241 33.3325L89.5998 30.0791L82.9181 30.7452L82.9785 31.3515ZM82.6496 27.9337C82.5688 27.1822 83.2243 26.6104 84.2848 26.4988C85.3291 26.4006 86.0845 26.8317 86.1712 27.5826C86.2333 28.3243 85.5778 28.896 84.5336 28.9942C83.473 29.1059 82.7176 28.6748 82.6496 27.9337ZM88.8035 29.5343L89.5382 29.461L89.251 26.5808L90.8369 26.4227L90.7742 25.793L89.1883 25.9511L88.8988 23.0475L88.1642 23.1207L88.8035 29.5343ZM94.2955 24.6411L94.1491 23.1718L93.4494 23.2416L93.5959 24.7109C93.704 25.8542 92.9351 27.297 91.6639 28.0125L92.129 28.5432C93.1098 27.9862 93.7998 26.9929 94.073 25.9529C94.5263 26.838 95.3628 27.5496 96.4168 27.8449L96.7551 27.2223C95.3956 26.875 94.41 25.7897 94.2955 24.6411ZM93.8423 31.0811C93.9568 32.2297 95.3169 32.7595 97.4508 32.5468C99.5614 32.3364 100.802 31.5473 100.687 30.3987C100.573 29.256 99.2011 28.7215 97.0904 28.9319C94.9565 29.1446 93.7284 29.9383 93.8423 31.0811ZM94.5769 31.0079C94.4897 30.2511 95.4927 29.68 97.1486 29.5149C98.7811 29.3522 99.8771 29.714 99.9643 30.4708C100.028 31.2299 99.0258 31.8068 97.3927 31.9637C95.7374 32.1346 94.6408 31.767 94.5769 31.0079ZM97.4521 28.307L98.1518 28.2372L97.8949 25.6602L99.4341 25.5067L99.7236 28.4103L100.423 28.3406L99.7873 21.962L99.0877 22.0318L99.3725 24.8887L97.8332 25.0421L97.5682 22.3834L96.8685 22.4532L97.4521 28.307ZM109.731 20.9707L108.997 21.0439L110.023 31.3405L110.758 31.2673L109.731 20.9707ZM102.133 26.1445C102.349 28.3134 103.566 29.5936 105.088 29.4419C106.598 29.2913 107.55 27.795 107.334 25.626C107.118 23.4629 105.889 22.184 104.379 22.3287C102.858 22.4862 101.917 23.9814 102.133 26.1445ZM102.844 26.0736C102.673 24.3536 103.331 23.0985 104.444 22.9817C105.558 22.8765 106.445 23.9775 106.611 25.6981C106.788 27.4175 106.136 28.6778 105.023 28.7888C103.909 28.8999 103.016 27.7936 102.844 26.0736ZM119.407 20.0061L118.672 20.0793L119.699 30.376L120.434 30.3027L119.885 24.7987L121.657 24.6221L121.593 23.9807L119.821 24.1574L119.407 20.0061ZM112.046 22.3651L115.964 21.9745L116.197 24.3067L112.302 24.695L112.685 28.5314L113.489 28.4512C115.535 28.2414 116.892 28.0296 118.5 27.5631L118.357 26.9532C116.784 27.4162 115.444 27.6204 113.426 27.8215L113.356 27.8285L113.099 25.2514L116.994 24.8632L116.636 21.2716L111.983 21.7354L112.046 22.3651ZM126.947 20.1848L122.283 20.6498L122.754 25.3724L127.418 24.9074L127.324 23.9629L129.901 23.706L130.183 26.5279L130.917 26.4547L130.167 18.9334L129.433 19.0066L129.62 20.884L127.043 21.141L126.947 20.1848ZM123.418 24.7057L123.067 21.1841L126.285 20.8632L126.636 24.3848L123.418 24.7057ZM124.58 29.6303L131.413 28.9491L131.352 28.331L125.253 28.939L124.997 26.3736L124.262 26.4468L124.58 29.6303ZM127.261 23.3332L127.106 21.7707L129.683 21.5137L129.838 23.0763L127.261 23.3332Z" fill="#343434"/>
<path fill-rule="evenodd" clip-rule="evenodd" d="M52.1731 56.0859C51.2383 53.237 49.0643 48.8414 46.6446 46.053C45.199 44.1027 46.988 42.1867 49.2489 43.6228C51.1299 45.0073 52.781 46.9961 54.5428 50.1367C59.2568 43.6292 65.4642 39.3699 71.5101 36.5404C73.6988 35.7009 73.8238 37.742 72.5698 38.4659C66.3178 42.4406 58.4366 50.7631 55.9443 56.4335C55.0344 58.1703 52.7347 57.8766 52.1731 56.0859Z" fill="#FFDCDC"/>
</g>
<defs>
<filter id="filter0_d_1050_2166" x="64" y="107" width="246" height="120" filterUnits="userSpaceOnUse" color-interpolation-filters="sRGB">
<feFlood flood-opacity="0" result="BackgroundImageFix"/>
<feColorMatrix in="SourceAlpha" type="matrix" values="0 0 0 0 0 0 0 0 0 0 0 0 0 0 0 0 0 0 127 0" result="hardAlpha"/>
<feOffset dy="3"/>
<feGaussianBlur stdDeviation="1.5"/>
<feComposite in2="hardAlpha" operator="out"/>
<feColorMatrix type="matrix" values="0 0 0 0 0.466667 0 0 0 0 0.466667 0 0 0 0 0.466667 0 0 0 0.25 0"/>
<feBlend mode="normal" in2="BackgroundImageFix" result="effect1_dropShadow_1050_2166"/>
<feBlend mode="normal" in="SourceGraphic" in2="effect1_dropShadow_1050_2166" result="shape"/>
</filter>
<filter id="filter1_d_1050_2166" x="64" y="351" width="246" height="120" filterUnits="userSpaceOnUse" color-interpolation-filters="sRGB">
<feFlood flood-opacity="0" result="BackgroundImageFix"/>
<feColorMatrix in="SourceAlpha" type="matrix" values="0 0 0 0 0 0 0 0 0 0 0 0 0 0 0 0 0 0 127 0" result="hardAlpha"/>
<feOffset dy="3"/>
<feGaussianBlur stdDeviation="1.5"/>
<feComposite in2="hardAlpha" operator="out"/>
<feColorMatrix type="matrix" values="0 0 0 0 0.466667 0 0 0 0 0.466667 0 0 0 0 0.466667 0 0 0 0.25 0"/>
<feBlend mode="normal" in2="BackgroundImageFix" result="effect1_dropShadow_1050_2166"/>
<feBlend mode="normal" in="SourceGraphic" in2="effect1_dropShadow_1050_2166" result="shape"/>
</filter>
<linearGradient id="paint0_linear_1050_2166" x1="187.5" y1="0" x2="187.5" y2="560" gradientUnits="userSpaceOnUse">
<stop stop-color="white" stop-opacity="0"/>
<stop offset="0.151042" stop-color="white" stop-opacity="0"/>
<stop offset="1" stop-color="#EB8888" stop-opacity="0.3"/>
</linearGradient>
<clipPath id="clip0_1050_2166">
<rect width="375" height="560" fill="white"/>
</clipPath>
<clipPath id="clip1_1050_2166">
<rect width="27" height="27" fill="white" transform="translate(97 256)"/>
</clipPath>
</defs>
</svg>
