<svg width="31" height="31" viewBox="0 0 31 31" fill="none" xmlns="http://www.w3.org/2000/svg">
<path d="M22.2812 22.7656H8.71875L6.29688 27.125H9.6875L12.1094 25.1875H18.8906L21.3125 27.125H24.7031L22.2812 22.7656Z" fill="#FFA1A1"/>
<path d="M15.5 26.1562C20.8503 26.1562 25.1875 21.819 25.1875 16.4688C25.1875 11.1185 20.8503 6.78125 15.5 6.78125C10.1497 6.78125 5.8125 11.1185 5.8125 16.4688C5.8125 21.819 10.1497 26.1562 15.5 26.1562Z" fill="#E1DED9"/>
<path d="M15.5 16.4684L20.2953 15.6934" stroke="white" stroke-width="4" stroke-miterlimit="10" stroke-linecap="round" stroke-linejoin="round"/>
<path d="M13.6112 9.83204L15.9362 16.2742C16.0331 16.5164 15.8878 16.807 15.6456 16.9039C15.4034 17.0008 15.1128 16.8555 15.0159 16.6133L12.7393 10.1711C12.6425 9.92892 12.7878 9.63829 13.03 9.58986C13.2721 9.49298 13.5628 9.58986 13.6112 9.83204Z" fill="#FF8686"/>
<path d="M15.4996 17.7277C16.1951 17.7277 16.759 17.1639 16.759 16.4684C16.759 15.7728 16.1951 15.209 15.4996 15.209C14.8041 15.209 14.2402 15.7728 14.2402 16.4684C14.2402 17.1639 14.8041 17.7277 15.4996 17.7277Z" fill="#FF8686"/>
<path d="M5.1832 11.7711C3.58477 10.1727 3.58477 7.55703 5.1832 5.95859C6.78164 4.36016 9.39727 4.36016 10.9957 5.95859" fill="#FFA1A1"/>
<path d="M25.8174 11.7711C27.4158 10.1727 27.4158 7.55703 25.8174 5.95859C24.2189 4.36016 21.6033 4.36016 20.0049 5.95859" fill="#FFA1A1"/>
</svg>
