<svg width="284" height="58" viewBox="0 0 284 58" fill="none" xmlns="http://www.w3.org/2000/svg">
<path d="M16.0365 6.34C17.0765 5.88 18.1165 5.93 19.1565 6.49C20.1365 7.03 20.8265 7.85 21.2265 8.95C21.6265 10.03 21.6665 11.13 21.3465 12.25C21.0465 13.35 20.4365 14.22 19.5165 14.86C18.5565 15.52 17.2565 15.45 15.6165 14.65C13.6965 13.67 12.9165 12.11 13.2765 9.97C13.3765 9.37 13.7265 8.67 14.3265 7.87C14.9465 7.07 15.5165 6.56 16.0365 6.34ZM18.3465 7.72C17.9665 7.5 17.7265 7.39 17.6265 7.39C17.5265 7.39 17.3265 7.48 17.0265 7.66C16.1865 8.14 15.6065 8.63 15.2865 9.13C14.9665 9.61 14.8065 10.21 14.8065 10.93C14.8065 11.33 14.8565 11.64 14.9565 11.86C15.0565 12.08 15.2765 12.35 15.6165 12.67C16.1565 13.19 16.7665 13.5 17.4465 13.6C17.9065 13.68 18.2265 13.69 18.4065 13.63C18.5865 13.55 18.8565 13.31 19.2165 12.91C19.5565 12.55 19.7665 12.25 19.8465 12.01C19.9465 11.75 19.9965 11.31 19.9965 10.69C19.9965 9.91 19.8665 9.3 19.6065 8.86C19.3665 8.4 18.9465 8.02 18.3465 7.72ZM26.7765 6.13C26.8965 5.99 27.0865 5.94 27.3465 5.98C27.6265 6 27.8265 6.09 27.9465 6.25C28.1065 6.45 28.1265 7.56 28.0065 9.58C27.8665 11.58 27.8065 13.48 27.8265 15.28C27.8265 16.46 27.7965 17.2 27.7365 17.5C27.6965 17.78 27.5665 18 27.3465 18.16C26.7665 18.56 26.3965 18.39 26.2365 17.65C26.1565 17.27 26.1165 16.7 26.1165 15.94V13.9L25.3665 14.05C24.6065 14.17 23.9365 14.26 23.3565 14.32C22.7765 14.4 22.4265 14.42 22.3065 14.38C22.1865 14.34 22.1265 14.18 22.1265 13.9C22.1265 13.16 22.5065 12.79 23.2665 12.79C23.6065 12.79 24.2065 12.67 25.0665 12.43C25.6465 12.25 25.9965 12.1 26.1165 11.98C26.2565 11.86 26.3665 11.6 26.4465 11.2C26.5265 10.62 26.4465 10.24 26.2065 10.06C25.9665 9.88 25.5165 9.86 24.8565 10C23.9565 10.18 23.3565 10.25 23.0565 10.21C22.7565 10.15 22.6065 9.95 22.6065 9.61C22.6065 8.73 23.4665 8.29 25.1865 8.29H26.6265V7.3C26.6265 6.6 26.6765 6.21 26.7765 6.13ZM36.1035 4.15C36.2435 3.99 36.5135 4.06 36.9135 4.36C37.0335 4.42 37.1135 4.51 37.1535 4.63C37.2135 4.75 37.2635 4.93 37.3035 5.17C37.3435 5.39 37.3735 5.67 37.3935 6.01C37.4335 6.35 37.4635 6.81 37.4835 7.39C37.5435 8.73 37.5535 9.54 37.5135 9.82C37.4735 10.1 37.2835 10.38 36.9435 10.66C36.5035 11.06 35.6935 11.42 34.5135 11.74L32.7135 12.19L32.6835 13.33C32.6635 13.79 32.6735 14.15 32.7135 14.41C32.7535 14.67 32.8235 14.89 32.9235 15.07C33.0235 15.23 33.2135 15.32 33.4935 15.34C33.7735 15.36 34.0935 15.35 34.4535 15.31C34.8335 15.27 35.3435 15.18 35.9835 15.04C37.0835 14.8 37.7435 14.77 37.9635 14.95C38.1235 15.11 38.2135 15.33 38.2335 15.61C38.2735 15.89 38.2235 16.08 38.0835 16.18C37.8635 16.32 37.1235 16.5 35.8635 16.72C34.6235 16.92 33.7135 17.02 33.1335 17.02C32.7135 17.02 32.4135 17.01 32.2335 16.99C32.0735 16.95 31.9435 16.88 31.8435 16.78C31.7635 16.68 31.6535 16.48 31.5135 16.18C31.2735 15.62 31.1535 14.74 31.1535 13.54C31.1535 12.78 31.1835 12.28 31.2435 12.04C31.3235 11.78 31.4935 11.53 31.7535 11.29C32.1735 10.91 32.7535 10.63 33.4935 10.45C33.9135 10.35 34.2235 10.27 34.4235 10.21C34.6235 10.15 34.8335 10.07 35.0535 9.97C35.2735 9.85 35.4135 9.75 35.4735 9.67C35.5335 9.59 35.5935 9.45 35.6535 9.25C35.7135 9.05 35.7435 8.86 35.7435 8.68C35.7635 8.5 35.7735 8.22 35.7735 7.84V6.07L34.8135 6.1C34.2735 6.1 33.5635 6.22 32.6835 6.46C30.6035 7.14 29.5635 7.17 29.5635 6.55C29.5635 6.47 29.5835 6.37 29.6235 6.25C29.7235 5.91 30.2035 5.58 31.0635 5.26C31.9235 4.92 32.9235 4.66 34.0635 4.48C35.3835 4.32 36.0635 4.21 36.1035 4.15ZM43.4835 6.16C43.5835 5.94 43.6735 5.83 43.7535 5.83C43.8335 5.81 43.9935 5.87 44.2335 6.01C44.5735 6.25 44.7335 6.67 44.7135 7.27C44.7135 7.39 44.7035 7.64 44.6835 8.02C44.6835 8.4 44.6735 8.83 44.6535 9.31C44.6535 9.77 44.6435 10.36 44.6235 11.08C44.6235 11.78 44.6235 12.41 44.6235 12.97C44.5835 15.35 44.5335 16.75 44.4735 17.17C44.4335 17.57 44.2735 17.8 43.9935 17.86C43.6135 17.96 43.3635 17.96 43.2435 17.86C43.0635 17.76 42.9735 16.69 42.9735 14.65V11.62H42.4035C42.0435 11.62 41.5135 11.73 40.8135 11.95C40.2135 12.17 39.7135 12.25 39.3135 12.19C38.9135 12.13 38.7135 11.95 38.7135 11.65C38.7135 11.49 38.7335 11.35 38.7735 11.23C38.8335 11.09 38.9135 10.97 39.0135 10.87C39.1335 10.75 39.2835 10.66 39.4635 10.6C39.6635 10.52 39.8835 10.45 40.1235 10.39C40.3835 10.33 40.6935 10.28 41.0535 10.24C41.5135 10.18 41.9335 10.1 42.3135 10C42.7135 9.88 42.9435 9.78 43.0035 9.7C43.1435 9.48 43.2135 8.91 43.2135 7.99C43.2135 7.09 43.3035 6.48 43.4835 6.16ZM52.9841 1.99C53.0041 1.83 53.1141 1.73 53.3141 1.69C53.5341 1.65 53.7541 1.69 53.9741 1.81C54.1941 1.91 54.3341 2.05 54.3941 2.23C54.5341 2.57 54.5641 2.82 54.4841 2.98C54.3841 3.14 54.3541 4.3 54.3941 6.46V9.73L53.7341 10.09C53.2141 10.37 51.5641 10.69 48.7841 11.05C48.0641 11.15 47.6241 11.09 47.4641 10.87C46.9041 10.17 46.6241 8.34 46.6241 5.38C46.6241 3.98 46.6541 3.09 46.7141 2.71C46.7741 2.31 46.8841 2.08 47.0441 2.02C47.4441 1.86 47.7341 1.92 47.9141 2.2C48.0941 2.48 48.1641 2.97 48.1241 3.67C48.1241 3.73 48.1141 3.82 48.0941 3.94C48.0541 4.54 48.1241 4.88 48.3041 4.96C48.5041 5.02 49.1841 4.96 50.3441 4.78C50.4241 4.76 50.4841 4.75 50.5241 4.75C50.5641 4.73 50.6141 4.71 50.6741 4.69C50.7541 4.67 50.8241 4.66 50.8841 4.66L52.8941 4.39L52.9241 3.31C52.9641 2.57 52.9841 2.13 52.9841 1.99ZM52.3541 6.19C51.7341 5.87 51.2941 5.85 51.0341 6.13C50.9541 6.23 50.4541 6.37 49.5341 6.55C48.9541 6.65 48.5841 6.75 48.4241 6.85C48.2641 6.95 48.1641 7.13 48.1241 7.39C48.0641 7.77 48.1241 8.18 48.3041 8.62C48.4241 8.96 48.5641 9.16 48.7241 9.22C48.9041 9.26 49.4341 9.25 50.3141 9.19C51.4741 9.11 52.1841 8.97 52.4441 8.77C52.7041 8.55 52.8241 8.11 52.8041 7.45C52.7841 6.77 52.6341 6.35 52.3541 6.19ZM54.9941 12.16C55.5541 11.8 56.0041 11.94 56.3441 12.58C56.5241 12.96 56.4541 13.28 56.1341 13.54C55.8341 13.8 55.3541 13.95 54.6941 13.99L53.6141 14.08V15.97V17.86H52.8941H52.2041L52.1441 16.03L52.0541 14.2L51.0641 14.32C50.8641 14.34 50.4541 14.39 49.8341 14.47C49.2141 14.55 48.7841 14.61 48.5441 14.65C47.9841 14.73 47.5241 14.76 47.1641 14.74C46.8041 14.72 46.5441 14.65 46.3841 14.53C46.2241 14.39 46.1641 14.21 46.2041 13.99C46.3241 13.35 47.4441 12.99 49.5641 12.91C52.6841 12.75 54.4941 12.5 54.9941 12.16ZM48.2441 16.93C48.3641 16.81 48.5841 16.78 48.9041 16.84C49.1041 16.88 49.2341 16.99 49.2941 17.17C49.3541 17.33 49.4041 17.73 49.4441 18.37C49.4641 19.15 49.5241 19.6 49.6241 19.72C49.7241 19.84 50.0341 19.82 50.5541 19.66C50.9941 19.48 51.8541 19.35 53.1341 19.27C53.1741 19.25 53.2241 19.24 53.2841 19.24C54.9641 19.12 55.9541 19.07 56.2541 19.09C56.5541 19.11 56.7241 19.25 56.7641 19.51C56.7641 19.51 56.7641 19.52 56.7641 19.54C56.8041 19.88 56.6741 20.12 56.3741 20.26C56.0941 20.42 55.5641 20.56 54.7841 20.68C54.3441 20.72 53.1341 20.9 51.1541 21.22C49.9741 21.38 49.2541 21.46 48.9941 21.46C48.7341 21.46 48.5241 21.36 48.3641 21.16C48.2041 20.92 48.1041 20.2 48.0641 19C48.0241 17.78 48.0841 17.09 48.2441 16.93ZM62.1144 4.39C62.2344 4.35 62.3644 4.31 62.5044 4.27C62.6444 4.23 62.7544 4.2 62.8344 4.18C62.9344 4.16 63.0244 4.14 63.1044 4.12C63.1844 4.1 63.2344 4.08 63.2544 4.06C63.3944 4.04 63.8344 4.25 64.5744 4.69C65.3144 5.13 65.7744 5.45 65.9544 5.65C66.9544 6.93 67.3444 8.23 67.1244 9.55C66.9244 10.85 66.1544 11.83 64.8144 12.49C64.3144 12.71 63.9344 12.84 63.6744 12.88C63.4144 12.92 62.9344 12.88 62.2344 12.76C61.1944 12.6 60.4044 12.34 59.8644 11.98C59.3244 11.62 58.9044 11.07 58.6044 10.33C58.0844 9.09 58.1644 7.9 58.8444 6.76C59.5444 5.6 60.6344 4.81 62.1144 4.39ZM64.3344 6.07C63.9144 5.85 63.5544 5.75 63.2544 5.77C62.9544 5.77 62.5444 5.88 62.0244 6.1C61.0844 6.52 60.4044 7.12 59.9844 7.9C59.8244 8.2 59.7544 8.44 59.7744 8.62C59.7944 8.8 59.9244 9.15 60.1644 9.67C60.5044 10.37 60.9644 10.84 61.5444 11.08C61.9844 11.26 62.5344 11.34 63.1944 11.32C63.8744 11.28 64.2444 11.15 64.3044 10.93C64.3844 10.75 64.5244 10.66 64.7244 10.66C64.9444 10.66 65.1744 10.49 65.4144 10.15C65.6744 9.79 65.8044 9.46 65.8044 9.16C65.8044 8.58 65.6544 7.97 65.3544 7.33C65.0544 6.67 64.7144 6.25 64.3344 6.07ZM70.2144 7.42C70.8344 6.98 71.1844 7.1 71.2644 7.78C71.3444 8.24 71.3344 9.01 71.2344 10.09C71.0144 12.43 70.8744 14.18 70.8144 15.34C70.6944 16.78 70.5644 17.69 70.4244 18.07C70.3044 18.45 70.0344 18.65 69.6144 18.67C69.0744 18.67 68.9044 17.83 69.1044 16.15C69.2444 15.11 69.3944 13.44 69.5544 11.14C69.6544 9.74 69.7444 8.8 69.8244 8.32C69.9244 7.84 70.0544 7.54 70.2144 7.42ZM66.0144 14.5C66.0744 14.44 66.4044 14.41 67.0044 14.41C67.5844 14.41 67.9244 14.57 68.0244 14.89C68.1644 15.35 68.1244 15.67 67.9044 15.85C67.6844 16.01 67.1844 16.09 66.4044 16.09C65.5444 16.09 64.3544 16.25 62.8344 16.57C61.2944 16.95 60.2844 17.17 59.8044 17.23C59.3444 17.27 59.0544 17.2 58.9344 17.02C58.7944 16.78 58.7344 16.57 58.7544 16.39C58.7744 16.21 58.9144 16.05 59.1744 15.91C59.4544 15.75 59.8144 15.62 60.2544 15.52C60.7144 15.4 61.3044 15.29 62.0244 15.19C62.2844 15.15 62.5644 15.11 62.8644 15.07C63.1844 15.01 63.4644 14.97 63.7044 14.95C63.9444 14.91 64.1944 14.88 64.4544 14.86C64.7144 14.82 64.8944 14.79 64.9944 14.77C65.5944 14.69 65.9344 14.6 66.0144 14.5ZM92.5691 2.98C92.6491 2.76 92.8291 2.65 93.1091 2.65C93.5091 2.65 93.7591 2.81 93.8591 3.13C93.9591 3.43 93.9391 4.05 93.7991 4.99C93.6591 6.11 93.6691 6.76 93.8291 6.94C94.0091 7.1 94.6291 7.08 95.6891 6.88C96.6291 6.72 97.2591 6.68 97.5791 6.76C97.8991 6.82 98.0591 7.04 98.0591 7.42C98.0591 7.68 97.9891 7.85 97.8491 7.93C97.7291 8.01 97.4291 8.08 96.9491 8.14C96.2091 8.22 95.4391 8.39 94.6391 8.65L93.4391 9.04L93.5591 10.69L93.6791 12.31H92.8991C92.3991 12.31 92.0991 12.19 91.9991 11.95C91.9191 11.75 91.9591 10.27 92.1191 7.51C92.2991 4.75 92.4491 3.24 92.5691 2.98ZM85.5791 4.03C85.9791 3.57 86.3391 3.25 86.6591 3.07C86.9991 2.89 87.2291 2.85 87.3491 2.95C87.4891 3.05 87.4991 3.28 87.3791 3.64C87.2591 4 87.0091 4.43 86.6291 4.93C86.0691 5.59 85.7891 6.03 85.7891 6.25C85.7891 6.33 85.9091 6.48 86.1491 6.7C86.3891 6.9 86.6591 7.1 86.9591 7.3C88.5591 8.38 89.3591 9.25 89.3591 9.91C89.3591 10.89 88.7291 10.81 87.4691 9.67C86.9891 9.19 86.4691 8.77 85.9091 8.41C85.3491 8.03 84.9691 7.84 84.7691 7.84C84.6491 7.84 84.4191 8.21 84.0791 8.95C83.7391 9.69 83.5391 10.26 83.4791 10.66C83.4191 11.04 83.3291 11.28 83.2091 11.38C83.1091 11.46 82.9091 11.5 82.6091 11.5C82.3091 11.5 82.1091 11.46 82.0091 11.38C81.9091 11.3 81.8491 11.13 81.8291 10.87C81.7691 10.37 82.1491 9.37 82.9691 7.87C83.8091 6.37 84.6791 5.09 85.5791 4.03ZM89.1491 13.72C89.8491 13.46 90.4191 13.36 90.8591 13.42C91.2991 13.46 91.8291 13.68 92.4491 14.08C93.8091 14.98 94.3991 16.28 94.2191 17.98C94.1591 18.74 93.9991 19.34 93.7391 19.78C93.4791 20.22 93.0391 20.64 92.4191 21.04C92.0791 21.26 91.7791 21.39 91.5191 21.43C91.2791 21.49 90.8991 21.49 90.3791 21.43C89.5391 21.33 88.8791 21.17 88.3991 20.95C87.9391 20.75 87.4891 20.4 87.0491 19.9C86.3891 19.14 86.0691 18.28 86.0891 17.32C86.1091 16.34 86.4691 15.52 87.1691 14.86C87.6091 14.4 88.2691 14.02 89.1491 13.72ZM92.1491 15.73C91.3291 14.91 90.3391 14.79 89.1791 15.37C88.6191 15.63 88.2291 15.92 88.0091 16.24C87.7891 16.56 87.6791 17 87.6791 17.56C87.6791 17.86 87.7591 18.17 87.9191 18.49C88.0991 18.79 88.3291 19.06 88.6091 19.3C88.9091 19.54 89.2091 19.7 89.5091 19.78C89.9491 19.9 90.4491 19.89 91.0091 19.75C91.5891 19.61 91.9991 19.41 92.2391 19.15C92.6191 18.77 92.7991 18.21 92.7791 17.47C92.7591 16.71 92.5491 16.13 92.1491 15.73ZM110.414 6.13C110.574 5.69 110.834 5.47 111.194 5.47C111.334 5.47 111.444 5.49 111.524 5.53C111.624 5.57 111.704 5.65 111.764 5.77C111.824 5.87 111.864 6 111.884 6.16C111.904 6.32 111.904 6.56 111.884 6.88C111.884 7.2 111.864 7.56 111.824 7.96C111.784 8.34 111.734 8.83 111.674 9.43L111.554 10.24L112.814 10.06C113.934 9.92 114.594 9.75 114.794 9.55C114.994 9.35 115.094 8.79 115.094 7.87C115.094 6.37 115.324 5.61 115.784 5.59C115.924 5.59 116.074 5.63 116.234 5.71C116.474 5.83 116.614 5.97 116.654 6.13C116.694 6.27 116.684 6.55 116.624 6.97C116.524 7.79 116.434 9.71 116.354 12.73C116.294 15.09 116.224 16.49 116.144 16.93C116.084 17.37 115.924 17.65 115.664 17.77C115.284 17.95 115.034 17.98 114.914 17.86C114.794 17.72 114.754 16.66 114.794 14.68C114.834 12.92 114.764 11.92 114.584 11.68C114.424 11.42 113.834 11.44 112.814 11.74L111.494 12.1L111.584 14.47C111.624 15.51 111.624 16.19 111.584 16.51C111.544 16.81 111.434 17.01 111.254 17.11C110.974 17.29 110.704 17.29 110.444 17.11C110.244 17.01 110.124 16.68 110.084 16.12C110.044 15.54 110.044 14.11 110.084 11.83C110.144 8.45 110.254 6.55 110.414 6.13ZM105.074 5.95C105.374 5.81 105.804 5.76 106.364 5.8C106.724 5.82 106.954 5.87 107.054 5.95C107.154 6.03 107.204 6.23 107.204 6.55V7.24L104.684 7.51C102.944 7.73 101.894 7.91 101.534 8.05C101.234 8.17 101.054 8.29 100.994 8.41C100.954 8.51 100.964 8.71 101.024 9.01C101.124 9.61 101.174 10.35 101.174 11.23C101.174 12.21 101.284 12.84 101.504 13.12C101.744 13.38 102.304 13.52 103.184 13.54C104.164 13.54 105.034 13.48 105.794 13.36C106.334 13.28 106.684 13.26 106.844 13.3C107.024 13.34 107.174 13.46 107.294 13.66C107.534 14.12 107.524 14.44 107.264 14.62C107.024 14.8 106.434 14.93 105.494 15.01C102.094 15.27 100.314 15.22 100.154 14.86C100.074 14.64 99.9337 13.38 99.7337 11.08C99.6137 9.56 99.5537 8.58 99.5537 8.14C99.5537 7.7 99.6337 7.41 99.7937 7.27C99.9337 7.13 100.234 6.98 100.694 6.82C101.154 6.64 101.664 6.49 102.224 6.37C102.784 6.25 103.254 6.18 103.634 6.16C104.274 6.16 104.754 6.09 105.074 5.95ZM122.507 2.44C122.547 2.44 122.607 2.43 122.687 2.41C124.127 2.27 124.977 2.22 125.237 2.26C125.497 2.28 125.687 2.42 125.807 2.68C125.827 2.72 125.837 2.75 125.837 2.77C125.917 2.99 125.967 3.18 125.987 3.34C126.007 3.48 125.907 3.59 125.687 3.67C125.467 3.75 125.177 3.81 124.817 3.85C124.477 3.87 123.957 3.89 123.257 3.91C122.577 3.93 122.037 3.96 121.637 4C121.257 4.04 120.917 4.1 120.617 4.18C120.337 4.26 120.137 4.4 120.017 4.6C119.897 4.78 119.807 4.99 119.747 5.23C119.707 5.47 119.687 5.81 119.687 6.25V7.66L120.557 7.48C124.057 6.8 125.807 6.88 125.807 7.72C125.807 8.04 125.677 8.26 125.417 8.38C125.177 8.48 124.697 8.54 123.977 8.56C123.217 8.56 122.327 8.7 121.307 8.98C120.627 9.16 120.207 9.31 120.047 9.43C119.887 9.53 119.827 9.71 119.867 9.97C119.907 10.45 120.057 10.73 120.317 10.81C120.577 10.87 121.157 10.8 122.057 10.6C124.617 10.04 126.047 10 126.347 10.48C126.507 10.72 126.487 10.97 126.287 11.23C126.107 11.49 125.837 11.62 125.477 11.62C125.157 11.62 124.217 11.77 122.657 12.07C121.217 12.37 120.247 12.52 119.747 12.52C119.247 12.52 118.957 12.39 118.877 12.13C118.537 11.07 118.317 9.48 118.217 7.36C118.117 5.24 118.197 4.03 118.457 3.73C119.057 3.05 120.407 2.62 122.507 2.44ZM128.777 3.73C128.857 3.51 129.037 3.39 129.317 3.37C129.617 3.33 129.827 3.41 129.947 3.61C130.047 3.77 130.117 5.31 130.157 8.23V12.58L129.617 12.7C129.257 12.78 129.007 12.72 128.867 12.52C128.707 12.28 128.607 10.88 128.567 8.32C128.547 5.76 128.617 4.23 128.777 3.73ZM127.397 14.41C127.817 14.27 128.047 14.2 128.087 14.2C128.127 14.2 128.207 14.23 128.327 14.29C128.467 14.33 128.607 14.4 128.747 14.5C128.887 14.6 129.017 14.7 129.137 14.8C129.277 14.88 129.367 14.95 129.407 15.01C129.527 15.21 129.587 16.09 129.587 17.65C129.587 19.03 129.477 19.85 129.257 20.11C129.057 20.37 128.357 20.56 127.157 20.68C126.877 20.7 126.407 20.74 125.747 20.8C125.107 20.88 124.697 20.93 124.517 20.95C124.237 20.99 124.007 21.01 123.827 21.01C123.647 21.01 123.477 20.99 123.317 20.95C123.157 20.93 123.037 20.87 122.957 20.77C122.877 20.67 122.797 20.55 122.717 20.41C122.657 20.29 122.607 20.09 122.567 19.81C122.547 19.55 122.527 19.28 122.507 19C122.507 18.7 122.507 18.32 122.507 17.86C122.507 16.3 122.567 15.43 122.687 15.25C122.807 15.07 123.177 14.98 123.797 14.98C124.957 14.98 126.157 14.79 127.397 14.41ZM128.027 16.21L127.097 16.15C126.757 16.15 126.397 16.18 126.017 16.24C125.637 16.28 125.277 16.36 124.937 16.48C124.617 16.6 124.387 16.72 124.247 16.84C124.027 17.02 123.917 17.49 123.917 18.25V19.39L125.297 19.24C125.537 19.2 125.887 19.15 126.347 19.09C126.807 19.05 127.097 19.02 127.217 19C127.297 19 127.387 18.99 127.487 18.97C127.607 18.95 127.697 18.94 127.757 18.94C127.837 18.94 127.887 18.94 127.907 18.94C127.987 18.9 128.027 18.43 128.027 17.53V16.21ZM134.723 6.1C135.803 5.54 136.983 5.71 138.263 6.61C139.303 7.31 140.043 8.18 140.483 9.22C140.923 10.24 141.003 11.28 140.723 12.34C140.543 13.08 140.283 13.63 139.943 13.99C139.623 14.35 139.103 14.68 138.383 14.98C137.683 15.28 137.043 15.43 136.463 15.43C135.983 15.45 135.463 15.36 134.903 15.16C134.343 14.96 133.823 14.68 133.343 14.32C132.883 13.96 132.513 13.58 132.233 13.18C131.953 12.74 131.783 12.39 131.723 12.13C131.663 11.85 131.653 11.4 131.693 10.78C131.753 9.82 131.913 9.11 132.173 8.65C132.413 8.19 132.783 7.71 133.283 7.21C133.783 6.71 134.263 6.34 134.723 6.1ZM137.513 7.84C136.933 7.42 136.453 7.23 136.073 7.27C135.693 7.29 135.233 7.54 134.693 8.02C133.893 8.78 133.423 9.56 133.283 10.36C133.163 11.14 133.393 11.88 133.973 12.58C134.653 13.4 135.483 13.82 136.463 13.84C137.463 13.84 138.283 13.42 138.923 12.58C139.123 12.34 139.253 12.1 139.313 11.86C139.373 11.6 139.383 11.22 139.343 10.72C139.283 10.08 139.123 9.56 138.863 9.16C138.603 8.74 138.153 8.3 137.513 7.84ZM144.053 6.34C144.133 6.2 144.363 6.15 144.743 6.19C145.123 6.23 145.323 6.32 145.343 6.46C145.383 6.8 145.303 9.58 145.103 14.8L144.923 18.55H144.233C144.033 18.55 143.893 18.55 143.813 18.55C143.733 18.53 143.663 18.48 143.603 18.4C143.543 18.3 143.503 18.19 143.483 18.07C143.483 17.93 143.473 17.7 143.453 17.38C143.413 16.72 143.473 14.75 143.633 11.47C143.813 8.19 143.953 6.48 144.053 6.34ZM166.843 5.89C167.023 5.43 167.453 5.37 168.133 5.71C168.293 5.81 168.383 5.93 168.403 6.07C168.443 6.21 168.423 6.46 168.343 6.82C168.223 7.46 168.123 8.16 168.043 8.92L167.923 10.18L169.003 10.03C170.463 9.85 171.193 9.61 171.193 9.31C171.273 7.75 171.383 6.73 171.523 6.25C171.683 5.75 171.963 5.55 172.363 5.65C172.683 5.73 172.873 5.93 172.933 6.25C173.013 6.55 172.993 7.05 172.873 7.75C172.713 8.57 172.573 10.39 172.453 13.21C172.393 15.15 172.323 16.37 172.243 16.87C172.183 17.35 172.053 17.65 171.853 17.77C171.553 17.93 171.283 17.96 171.043 17.86C170.883 17.8 170.783 17.58 170.743 17.2C170.723 16.8 170.723 15.93 170.743 14.59L170.833 11.5L170.083 11.53C169.603 11.53 169.093 11.64 168.553 11.86L167.833 12.16L167.923 14.56C167.983 15.38 167.993 16.01 167.953 16.45C167.913 16.87 167.833 17.15 167.713 17.29C167.613 17.43 167.433 17.5 167.173 17.5C166.713 17.5 166.443 17.2 166.363 16.6C166.303 16 166.323 14.32 166.423 11.56C166.603 8 166.743 6.11 166.843 5.89ZM161.293 6.1C162.333 5.94 162.943 6.07 163.123 6.49C163.303 6.89 163.343 8.23 163.243 10.51C163.163 12.35 163.093 13.44 163.033 13.78C162.973 14.12 162.793 14.36 162.493 14.5C162.093 14.74 160.963 14.87 159.103 14.89L156.373 14.95L156.133 14.02C156.033 13.64 155.953 12.82 155.893 11.56C155.833 10.3 155.823 9.24 155.863 8.38C155.903 7.4 157.713 6.64 161.293 6.1ZM161.923 7.84H161.083C160.563 7.84 159.803 7.98 158.803 8.26L157.393 8.65L157.333 10.45C157.273 11.53 157.293 12.29 157.393 12.73C157.473 13.01 157.603 13.17 157.783 13.21C157.963 13.25 158.533 13.24 159.493 13.18L161.413 13.09L161.563 12.28C161.663 11.74 161.743 10.87 161.803 9.67L161.923 7.84ZM178.425 1.18C178.465 1.06 178.645 0.999999 178.965 0.999999C179.225 0.999999 179.395 1.19 179.475 1.57C179.575 1.93 179.555 2.44 179.415 3.1C179.335 3.52 179.275 3.8 179.235 3.94C179.215 4.08 179.205 4.26 179.205 4.48C179.205 4.68 179.215 4.8 179.235 4.84C179.255 4.86 179.345 4.89 179.505 4.93C179.665 4.97 179.805 4.98 179.925 4.96C180.045 4.94 180.265 4.91 180.585 4.87C181.765 4.73 182.425 4.86 182.565 5.26C182.725 5.64 182.375 6.37 181.515 7.45C180.895 8.21 180.585 8.65 180.585 8.77C180.585 8.89 180.785 9.12 181.185 9.46C181.585 9.8 182.045 10.12 182.565 10.42C183.185 10.8 183.495 11.21 183.495 11.65C183.475 11.93 183.285 12.07 182.925 12.07C182.585 12.07 182.135 11.92 181.575 11.62C181.035 11.3 180.525 10.91 180.045 10.45L179.385 9.85L178.785 10.54C178.025 11.44 177.475 12.04 177.135 12.34C176.815 12.64 176.545 12.79 176.325 12.79C176.005 12.79 175.805 12.67 175.725 12.43C175.645 12.17 175.715 11.87 175.935 11.53C176.175 11.19 176.975 10.31 178.335 8.89C179.695 7.45 180.375 6.67 180.375 6.55C180.375 6.53 180.345 6.51 180.285 6.49C180.245 6.47 180.185 6.46 180.105 6.46C180.025 6.46 179.935 6.48 179.835 6.52C179.375 6.62 178.455 6.79 177.075 7.03C175.495 7.29 174.645 7.29 174.525 7.03C174.465 6.89 174.505 6.67 174.645 6.37C174.725 6.15 174.875 5.99 175.095 5.89C175.335 5.79 175.765 5.69 176.385 5.59C177.405 5.43 177.885 5.25 177.825 5.05C177.785 4.89 177.855 4.24 178.035 3.1C178.215 1.96 178.345 1.32 178.425 1.18ZM185.535 5.23C185.675 4.97 185.795 4.83 185.895 4.81C185.995 4.79 186.195 4.86 186.495 5.02C186.715 5.14 186.845 5.4 186.885 5.8C186.925 6.18 186.945 7.15 186.945 8.71C186.905 11.11 186.855 12.4 186.795 12.58C186.715 12.86 186.495 13.01 186.135 13.03C185.775 13.03 185.545 12.9 185.445 12.64C185.325 12.32 185.275 11.07 185.295 8.89C185.335 6.69 185.415 5.47 185.535 5.23ZM181.125 14.83C181.665 14.57 182.395 14.44 183.315 14.44C183.735 14.44 184.085 14.48 184.365 14.56C184.665 14.62 184.935 14.72 185.175 14.86C185.415 15 185.625 15.19 185.805 15.43C185.985 15.65 186.165 15.93 186.345 16.27C186.565 16.69 186.655 17.25 186.615 17.95C186.575 18.63 186.405 19.33 186.105 20.05C185.945 20.47 185.555 20.85 184.935 21.19C184.335 21.55 183.745 21.74 183.165 21.76C182.665 21.76 182.075 21.57 181.395 21.19C180.715 20.81 180.195 20.39 179.835 19.93C179.215 19.09 179.035 18.13 179.295 17.05C179.575 15.97 180.185 15.23 181.125 14.83ZM184.455 16.21C183.975 15.85 183.345 15.77 182.565 15.97C181.785 16.15 181.235 16.51 180.915 17.05C180.675 17.49 180.585 17.85 180.645 18.13C180.705 18.41 180.955 18.78 181.395 19.24C182.435 20.36 183.465 20.44 184.485 19.48C184.785 19.2 184.965 18.97 185.025 18.79C185.085 18.59 185.085 18.23 185.025 17.71C184.925 16.91 184.735 16.41 184.455 16.21ZM193.3 4.06C194.88 3.92 195.72 3.85 195.82 3.85C196.12 3.83 196.35 3.99 196.51 4.33C196.67 4.65 196.66 4.93 196.48 5.17C196.3 5.37 195.51 5.47 194.11 5.47C192.77 5.47 191.76 5.6 191.08 5.86L190.12 6.25V7.96C190.12 9.1 190.23 9.71 190.45 9.79C190.63 9.87 191.29 9.84 192.43 9.7C193.57 9.56 194.42 9.41 194.98 9.25C195.32 9.17 195.56 9.15 195.7 9.19C195.84 9.21 195.98 9.31 196.12 9.49C196.34 9.79 196.41 10.11 196.33 10.45C196.27 10.71 196.09 10.89 195.79 10.99C195.49 11.07 194.86 11.15 193.9 11.23C191.54 11.45 190.13 11.57 189.67 11.59C189.21 11.59 188.93 11.51 188.83 11.35C188.77 11.19 188.71 10.81 188.65 10.21C188.59 9.59 188.54 8.95 188.5 8.29C188.46 7.61 188.44 6.99 188.44 6.43C188.44 5.85 188.46 5.52 188.5 5.44C188.6 5.24 188.88 5.04 189.34 4.84C189.8 4.64 190.38 4.47 191.08 4.33C191.8 4.19 192.54 4.1 193.3 4.06ZM200.56 5.53C200.72 5.31 200.91 5.22 201.13 5.26C201.37 5.3 201.57 5.46 201.73 5.74C201.85 6 201.88 7.21 201.82 9.37C201.78 11.53 201.67 13.84 201.49 16.3C201.41 17.32 201.27 18 201.07 18.34C200.87 18.66 200.56 18.74 200.14 18.58C199.96 18.52 199.85 18.4 199.81 18.22C199.79 18.02 199.81 17.6 199.87 16.96C199.95 16.28 200.05 14.18 200.17 10.66C200.27 7.42 200.4 5.71 200.56 5.53ZM192.22 13.42C192.3 13.24 192.37 13.11 192.43 13.03C192.51 12.93 192.6 12.87 192.7 12.85C192.82 12.81 192.97 12.79 193.15 12.79C193.47 12.79 193.65 12.84 193.69 12.94C193.75 13.02 193.74 13.32 193.66 13.84C193.56 14.52 193.55 14.94 193.63 15.1C193.73 15.26 194.44 15.33 195.76 15.31C197.1 15.27 197.79 15.34 197.83 15.52C197.93 15.8 197.8 16.07 197.44 16.33C197.1 16.57 196.62 16.73 196 16.81C195.1 16.95 194 17.14 192.7 17.38C191.4 17.6 190.61 17.76 190.33 17.86C190.05 17.94 189.79 17.89 189.55 17.71C189.31 17.53 189.19 17.3 189.19 17.02C189.19 16.8 189.4 16.6 189.82 16.42C190.26 16.24 190.84 16.11 191.56 16.03C191.82 16.01 191.98 15.95 192.04 15.85C192.1 15.73 192.11 15.45 192.07 15.01C192.01 14.43 192.06 13.9 192.22 13.42ZM216.253 2.86C216.473 2.72 216.663 2.65 216.823 2.65C217.163 2.65 217.363 2.88 217.423 3.34C217.503 3.8 217.513 4.85 217.453 6.49C217.373 8.75 217.413 10.29 217.573 11.11C217.713 11.85 217.753 12.35 217.693 12.61C217.633 12.87 217.453 13 217.153 13C216.993 13 216.853 12.97 216.733 12.91C216.613 12.85 216.503 12.76 216.403 12.64C216.303 12.5 216.223 12.31 216.163 12.07C216.103 11.83 216.053 11.55 216.013 11.23C215.993 10.91 215.973 10.53 215.953 10.09C215.893 9.01 215.833 8.39 215.773 8.23C215.733 8.05 215.553 7.98 215.233 8.02C214.913 8.06 214.283 8.1 213.343 8.14L212.023 8.17L211.873 9.01C211.753 9.79 211.363 10.46 210.703 11.02C210.063 11.56 209.333 11.9 208.513 12.04C207.713 12.16 206.883 12.06 206.023 11.74C205.423 11.5 204.893 11.1 204.433 10.54C203.993 9.98 203.683 9.35 203.503 8.65C203.323 7.95 203.303 7.31 203.443 6.73C203.643 6.03 203.933 5.41 204.313 4.87C204.693 4.33 205.163 3.91 205.723 3.61C206.283 3.31 206.903 3.11 207.583 3.01C208.503 2.91 209.293 3.01 209.953 3.31C210.633 3.61 211.103 4.09 211.363 4.75C211.623 5.39 211.753 5.94 211.753 6.4C211.753 6.84 211.803 7.1 211.903 7.18C212.023 7.24 212.263 7.17 212.623 6.97C213.083 6.77 213.743 6.63 214.603 6.55L215.983 6.4L215.953 4.75C215.933 3.63 216.033 3 216.253 2.86ZM209.863 4.99C209.423 4.45 208.743 4.29 207.823 4.51C206.923 4.73 206.143 5.22 205.483 5.98C205.203 6.32 205.033 6.59 204.973 6.79C204.913 6.99 204.923 7.32 205.003 7.78C205.183 9 205.703 9.85 206.563 10.33C207.743 10.93 208.893 10.62 210.013 9.4C210.273 9.14 210.423 8.9 210.463 8.68C210.523 8.44 210.503 7.93 210.403 7.15C210.283 6.01 210.103 5.29 209.863 4.99ZM210.433 14.44C210.713 14.26 210.923 14.16 211.063 14.14C211.223 14.1 211.413 14.13 211.633 14.23C211.893 14.35 212.053 14.47 212.113 14.59C212.193 14.71 212.183 14.85 212.083 15.01C212.003 15.15 211.833 15.32 211.573 15.52C211.153 15.86 211.013 16.17 211.153 16.45C211.293 16.73 211.773 17.04 212.593 17.38C213.473 17.78 213.933 17.96 213.973 17.92C214.093 17.66 214.363 17.07 214.783 16.15C215.603 14.37 216.233 13.75 216.673 14.29C216.853 14.53 216.893 14.77 216.793 15.01C216.613 15.47 217.223 16.39 218.623 17.77C219.883 19.01 220.063 19.66 219.163 19.72C219.083 19.72 219.003 19.72 218.923 19.72C218.463 19.7 217.863 19.26 217.123 18.4C216.883 18.14 216.713 17.95 216.613 17.83C216.513 17.71 216.393 17.62 216.253 17.56C216.113 17.48 216.013 17.45 215.953 17.47C215.913 17.47 215.843 17.55 215.743 17.71C215.663 17.87 215.583 18.03 215.503 18.19C215.443 18.35 215.353 18.63 215.233 19.03C215.113 19.37 215.013 19.62 214.933 19.78C214.853 19.96 214.763 20.08 214.663 20.14C214.583 20.2 214.463 20.23 214.303 20.23C213.903 20.23 213.633 20.05 213.493 19.69C213.353 19.33 213.193 19.15 213.013 19.15C212.853 19.15 212.333 18.92 211.453 18.46C210.693 18.08 210.223 17.93 210.043 18.01C209.863 18.07 209.633 18.52 209.353 19.36C209.213 19.86 209.073 20.17 208.933 20.29C208.813 20.41 208.593 20.49 208.273 20.53C207.953 20.57 207.743 20.56 207.643 20.5C207.543 20.46 207.493 20.34 207.493 20.14C207.493 19.78 207.903 18.81 208.723 17.23C209.543 15.65 210.113 14.72 210.433 14.44ZM225.994 1.27C226.454 0.79 226.844 0.659999 227.164 0.879999C227.444 1.06 227.424 1.41 227.104 1.93C226.944 2.21 226.994 2.5 227.254 2.8C227.514 3.08 228.084 3.46 228.964 3.94C229.904 4.46 230.504 4.88 230.764 5.2C231.044 5.5 231.084 5.83 230.884 6.19C230.744 6.45 230.564 6.6 230.344 6.64C230.124 6.66 229.904 6.56 229.684 6.34C229.524 6.14 228.994 5.76 228.094 5.2C227.194 4.64 226.574 4.3 226.234 4.18C226.054 4.12 225.894 4.15 225.754 4.27C225.614 4.39 225.424 4.65 225.184 5.05C224.764 5.77 224.434 6.46 224.194 7.12C224.014 7.58 223.864 7.87 223.744 7.99C223.644 8.11 223.454 8.16 223.174 8.14C222.934 8.12 222.734 8.07 222.574 7.99C222.414 7.89 222.304 7.77 222.244 7.63C222.204 7.49 222.204 7.33 222.244 7.15C222.324 6.97 222.634 6.44 223.174 5.56C223.714 4.66 224.274 3.77 224.854 2.89C225.454 1.99 225.834 1.45 225.994 1.27ZM230.224 9.76C230.744 9.52 231.214 9.48 231.634 9.64C232.054 9.78 232.264 10.05 232.264 10.45C232.264 10.77 232.064 11 231.664 11.14C231.264 11.28 230.444 11.39 229.204 11.47C227.564 11.59 225.924 11.81 224.284 12.13C223.144 12.35 222.404 12.47 222.064 12.49C221.724 12.51 221.504 12.44 221.404 12.28C221.264 12.04 221.204 11.86 221.224 11.74C221.264 11.6 221.414 11.4 221.674 11.14C221.994 10.82 222.584 10.66 223.444 10.66C224.304 10.66 224.754 10.67 224.794 10.69C224.874 10.69 225.104 10.61 225.484 10.45C225.944 10.31 226.734 10.2 227.854 10.12C229.014 10.02 229.804 9.9 230.224 9.76ZM230.344 12.94C230.484 12.8 230.684 12.76 230.944 12.82C231.224 12.86 231.444 12.97 231.604 13.15C231.724 13.29 231.784 13.48 231.784 13.72C231.784 13.94 231.734 14.33 231.634 14.89C231.434 15.73 231.334 16.76 231.334 17.98C231.334 18.46 231.324 18.82 231.304 19.06C231.304 19.3 231.254 19.55 231.154 19.81C231.054 20.07 230.944 20.24 230.824 20.32C230.724 20.42 230.504 20.52 230.164 20.62C229.824 20.74 229.484 20.82 229.144 20.86C228.824 20.9 228.334 20.95 227.674 21.01C227.614 21.03 227.524 21.04 227.404 21.04C226.904 21.1 226.544 21.14 226.324 21.16C226.104 21.2 225.844 21.21 225.544 21.19C225.244 21.17 225.044 21.15 224.944 21.13C224.844 21.13 224.714 21.06 224.554 20.92C224.394 20.78 224.304 20.66 224.284 20.56C224.264 20.48 224.224 20.27 224.164 19.93C224.124 19.61 224.094 19.34 224.074 19.12C224.074 18.9 224.074 18.53 224.074 18.01C224.074 17.85 224.074 17.73 224.074 17.65C224.034 16.47 224.024 15.68 224.044 15.28C224.084 14.88 224.184 14.6 224.344 14.44C224.664 14.18 224.924 14.14 225.124 14.32C225.344 14.48 225.454 14.84 225.454 15.4V16.39L226.924 16.24C227.824 16.14 228.604 15.99 229.264 15.79C229.704 15.65 229.964 15.52 230.044 15.4C230.124 15.26 230.164 14.89 230.164 14.29C230.164 13.47 230.224 13.02 230.344 12.94ZM229.564 18.91C229.804 18.71 229.924 18.43 229.924 18.07C229.924 17.69 229.864 17.48 229.744 17.44C229.584 17.38 228.854 17.47 227.554 17.71L225.574 18.07L225.634 18.79C225.694 19.25 225.754 19.52 225.814 19.6C225.834 19.64 226.034 19.63 226.414 19.57C226.794 19.53 227.194 19.47 227.614 19.39C228.054 19.31 228.474 19.22 228.874 19.12C229.274 19.04 229.504 18.97 229.564 18.91ZM245.373 4.96C245.513 4.84 245.743 4.8 246.063 4.84C246.203 4.86 246.293 4.89 246.333 4.93C246.393 4.97 246.443 5.09 246.483 5.29C246.543 5.49 246.573 5.75 246.573 6.07C246.593 6.37 246.613 6.84 246.633 7.48C246.673 9.34 246.633 11.61 246.513 14.29L246.333 18.55H245.613H244.893L244.923 16.69C244.923 13.51 244.963 10.78 245.043 8.5C245.143 6.22 245.253 5.04 245.373 4.96ZM234.093 5.68C234.313 5.44 234.473 5.31 234.573 5.29C234.673 5.25 234.833 5.3 235.053 5.44C235.233 5.56 235.343 6.83 235.383 9.25L235.473 12.91H237.963C239.623 12.91 240.743 12.86 241.323 12.76C241.823 12.66 242.173 12.7 242.373 12.88C242.593 13.04 242.673 13.36 242.613 13.84L242.553 14.47L238.503 14.53C235.803 14.61 234.363 14.55 234.183 14.35C234.023 14.11 233.903 12.69 233.823 10.09C233.763 8.33 233.743 7.21 233.763 6.73C233.803 6.23 233.913 5.88 234.093 5.68ZM260.778 5.23C260.838 5.11 260.968 5.04 261.168 5.02C261.388 5 261.628 5.05 261.888 5.17C262.048 5.23 262.148 5.44 262.188 5.8C262.248 6.16 262.278 6.91 262.278 8.05C262.278 9.91 262.318 10.87 262.398 10.93C262.438 10.99 263.158 10.97 264.558 10.87C265.838 10.73 266.678 10.7 267.078 10.78C267.498 10.86 267.708 11.09 267.708 11.47C267.708 11.55 267.698 11.62 267.678 11.68C267.678 11.74 267.648 11.8 267.588 11.86C267.548 11.92 267.498 11.97 267.438 12.01C267.398 12.05 267.318 12.09 267.198 12.13C267.078 12.17 266.948 12.2 266.808 12.22C266.668 12.24 266.478 12.27 266.238 12.31C266.018 12.33 265.778 12.35 265.518 12.37C265.278 12.39 264.958 12.42 264.558 12.46C263.178 12.56 262.428 12.7 262.308 12.88C262.228 13.02 262.168 13.88 262.128 15.46C262.108 17 262.068 17.79 262.008 17.83C261.988 17.87 261.798 17.95 261.438 18.07C261.018 18.19 260.758 18.07 260.658 17.71C260.538 17.27 260.538 15.82 260.658 13.36C260.818 10.58 260.858 8.56 260.778 7.3C260.658 6.06 260.658 5.37 260.778 5.23ZM252.258 6.07C253.598 5.85 254.548 5.75 255.108 5.77C255.668 5.77 255.988 5.88 256.068 6.1C256.208 6.46 256.148 6.74 255.888 6.94C255.648 7.14 255.208 7.25 254.568 7.27C252.748 7.29 251.348 7.52 250.368 7.96L249.618 8.23L249.708 10.45C249.748 11.05 249.768 11.49 249.768 11.77C249.788 12.05 249.828 12.34 249.888 12.64C249.948 12.94 250.008 13.14 250.068 13.24C250.128 13.32 250.238 13.42 250.398 13.54C250.578 13.64 250.738 13.7 250.878 13.72C251.038 13.74 251.278 13.76 251.598 13.78C252.498 13.86 253.418 13.85 254.358 13.75C255.858 13.53 256.608 13.74 256.608 14.38C256.608 14.62 256.568 14.8 256.488 14.92C256.428 15.04 256.238 15.14 255.918 15.22C255.618 15.3 255.218 15.35 254.718 15.37C254.238 15.39 253.518 15.4 252.558 15.4C252.378 15.4 252.128 15.4 251.808 15.4C251.328 15.4 250.988 15.4 250.788 15.4C250.588 15.4 250.328 15.38 250.008 15.34C249.708 15.3 249.518 15.28 249.438 15.28C249.358 15.26 249.238 15.19 249.078 15.07C248.918 14.93 248.818 14.82 248.778 14.74C248.758 14.64 248.708 14.46 248.628 14.2C248.568 13.94 248.528 13.72 248.508 13.54C248.508 13.34 248.478 13.03 248.418 12.61C248.398 12.31 248.378 12.07 248.358 11.89C248.178 10.07 248.098 8.83 248.118 8.17C248.138 7.51 248.268 7.12 248.508 7C249.368 6.66 250.618 6.35 252.258 6.07ZM269.842 16.72C270.142 16.58 270.392 16.53 270.592 16.57C270.812 16.59 271.052 16.72 271.312 16.96C271.532 17.14 271.672 17.29 271.732 17.41C271.792 17.51 271.822 17.67 271.822 17.89C271.822 18.87 271.322 19.36 270.322 19.36C270.182 19.36 270.062 19.35 269.962 19.33C269.882 19.31 269.812 19.27 269.752 19.21C269.692 19.17 269.612 19.1 269.512 19C269.312 18.76 269.212 18.41 269.212 17.95C269.212 17.59 269.252 17.33 269.332 17.17C269.412 17.01 269.582 16.86 269.842 16.72ZM11.8123 37.98C11.8923 37.76 12.0723 37.65 12.3523 37.65C12.7523 37.65 13.0023 37.81 13.1023 38.13C13.2023 38.43 13.1823 39.05 13.0423 39.99C12.9023 41.11 12.9123 41.76 13.0723 41.94C13.2523 42.1 13.8723 42.08 14.9323 41.88C15.8723 41.72 16.5023 41.68 16.8223 41.76C17.1423 41.82 17.3023 42.04 17.3023 42.42C17.3023 42.68 17.2323 42.85 17.0923 42.93C16.9723 43.01 16.6723 43.08 16.1923 43.14C15.4523 43.22 14.6823 43.39 13.8823 43.65L12.6823 44.04L12.8023 45.69L12.9223 47.31H12.1423C11.6423 47.31 11.3423 47.19 11.2423 46.95C11.1623 46.75 11.2023 45.27 11.3623 42.51C11.5423 39.75 11.6923 38.24 11.8123 37.98ZM4.82227 39.03C5.22227 38.57 5.58227 38.25 5.90227 38.07C6.24227 37.89 6.47227 37.85 6.59227 37.95C6.73227 38.05 6.74227 38.28 6.62227 38.64C6.50227 39 6.25227 39.43 5.87227 39.93C5.31227 40.59 5.03227 41.03 5.03227 41.25C5.03227 41.33 5.15227 41.48 5.39227 41.7C5.63227 41.9 5.90227 42.1 6.20227 42.3C7.80227 43.38 8.60227 44.25 8.60227 44.91C8.60227 45.89 7.97227 45.81 6.71227 44.67C6.23227 44.19 5.71227 43.77 5.15227 43.41C4.59227 43.03 4.21227 42.84 4.01227 42.84C3.89227 42.84 3.66227 43.21 3.32227 43.95C2.98227 44.69 2.78227 45.26 2.72227 45.66C2.66227 46.04 2.57227 46.28 2.45227 46.38C2.35227 46.46 2.15227 46.5 1.85227 46.5C1.55227 46.5 1.35227 46.46 1.25227 46.38C1.15227 46.3 1.09227 46.13 1.07227 45.87C1.01227 45.37 1.39227 44.37 2.21227 42.87C3.05227 41.37 3.92227 40.09 4.82227 39.03ZM8.39227 48.72C9.09227 48.46 9.66227 48.36 10.1023 48.42C10.5423 48.46 11.0723 48.68 11.6923 49.08C13.0523 49.98 13.6423 51.28 13.4623 52.98C13.4023 53.74 13.2423 54.34 12.9823 54.78C12.7223 55.22 12.2823 55.64 11.6623 56.04C11.3223 56.26 11.0223 56.39 10.7623 56.43C10.5223 56.49 10.1423 56.49 9.62227 56.43C8.78227 56.33 8.12227 56.17 7.64227 55.95C7.18227 55.75 6.73227 55.4 6.29227 54.9C5.63227 54.14 5.31227 53.28 5.33227 52.32C5.35227 51.34 5.71227 50.52 6.41227 49.86C6.85227 49.4 7.51227 49.02 8.39227 48.72ZM11.3923 50.73C10.5723 49.91 9.58227 49.79 8.42227 50.37C7.86227 50.63 7.47227 50.92 7.25227 51.24C7.03227 51.56 6.92227 52 6.92227 52.56C6.92227 52.86 7.00227 53.17 7.16227 53.49C7.34227 53.79 7.57227 54.06 7.85227 54.3C8.15227 54.54 8.45227 54.7 8.75227 54.78C9.19227 54.9 9.69227 54.89 10.2523 54.75C10.8323 54.61 11.2423 54.41 11.4823 54.15C11.8623 53.77 12.0423 53.21 12.0223 52.47C12.0023 51.71 11.7923 51.13 11.3923 50.73ZM29.6569 41.13C29.8169 40.69 30.0769 40.47 30.4369 40.47C30.5769 40.47 30.6869 40.49 30.7669 40.53C30.8669 40.57 30.9469 40.65 31.0069 40.77C31.0669 40.87 31.1069 41 31.1269 41.16C31.1469 41.32 31.1469 41.56 31.1269 41.88C31.1269 42.2 31.1069 42.56 31.0669 42.96C31.0269 43.34 30.9769 43.83 30.9169 44.43L30.7969 45.24L32.0569 45.06C33.1769 44.92 33.8369 44.75 34.0369 44.55C34.2369 44.35 34.3369 43.79 34.3369 42.87C34.3369 41.37 34.5669 40.61 35.0269 40.59C35.1669 40.59 35.3169 40.63 35.4769 40.71C35.7169 40.83 35.8569 40.97 35.8969 41.13C35.9369 41.27 35.9269 41.55 35.8669 41.97C35.7669 42.79 35.6769 44.71 35.5969 47.73C35.5369 50.09 35.4669 51.49 35.3869 51.93C35.3269 52.37 35.1669 52.65 34.9069 52.77C34.5269 52.95 34.2769 52.98 34.1569 52.86C34.0369 52.72 33.9969 51.66 34.0369 49.68C34.0769 47.92 34.0069 46.92 33.8269 46.68C33.6669 46.42 33.0769 46.44 32.0569 46.74L30.7369 47.1L30.8269 49.47C30.8669 50.51 30.8669 51.19 30.8269 51.51C30.7869 51.81 30.6769 52.01 30.4969 52.11C30.2169 52.29 29.9469 52.29 29.6869 52.11C29.4869 52.01 29.3669 51.68 29.3269 51.12C29.2869 50.54 29.2869 49.11 29.3269 46.83C29.3869 43.45 29.4969 41.55 29.6569 41.13ZM24.3169 40.95C24.6169 40.81 25.0469 40.76 25.6069 40.8C25.9669 40.82 26.1969 40.87 26.2969 40.95C26.3969 41.03 26.4469 41.23 26.4469 41.55V42.24L23.9269 42.51C22.1869 42.73 21.1369 42.91 20.7769 43.05C20.4769 43.17 20.2969 43.29 20.2369 43.41C20.1969 43.51 20.2069 43.71 20.2669 44.01C20.3669 44.61 20.4169 45.35 20.4169 46.23C20.4169 47.21 20.5269 47.84 20.7469 48.12C20.9869 48.38 21.5469 48.52 22.4269 48.54C23.4069 48.54 24.2769 48.48 25.0369 48.36C25.5769 48.28 25.9269 48.26 26.0869 48.3C26.2669 48.34 26.4169 48.46 26.5369 48.66C26.7769 49.12 26.7669 49.44 26.5069 49.62C26.2669 49.8 25.6769 49.93 24.7369 50.01C21.3369 50.27 19.5569 50.22 19.3969 49.86C19.3169 49.64 19.1769 48.38 18.9769 46.08C18.8569 44.56 18.7969 43.58 18.7969 43.14C18.7969 42.7 18.8769 42.41 19.0369 42.27C19.1769 42.13 19.4769 41.98 19.9369 41.82C20.3969 41.64 20.9069 41.49 21.4669 41.37C22.0269 41.25 22.4969 41.18 22.8769 41.16C23.5169 41.16 23.9969 41.09 24.3169 40.95ZM41.7497 37.44C41.7897 37.44 41.8497 37.43 41.9297 37.41C43.3697 37.27 44.2197 37.22 44.4797 37.26C44.7397 37.28 44.9297 37.42 45.0497 37.68C45.0697 37.72 45.0797 37.75 45.0797 37.77C45.1597 37.99 45.2097 38.18 45.2297 38.34C45.2497 38.48 45.1497 38.59 44.9297 38.67C44.7097 38.75 44.4197 38.81 44.0597 38.85C43.7197 38.87 43.1997 38.89 42.4997 38.91C41.8197 38.93 41.2797 38.96 40.8797 39C40.4997 39.04 40.1597 39.1 39.8597 39.18C39.5797 39.26 39.3797 39.4 39.2597 39.6C39.1397 39.78 39.0497 39.99 38.9897 40.23C38.9497 40.47 38.9297 40.81 38.9297 41.25V42.66L39.7997 42.48C43.2997 41.8 45.0497 41.88 45.0497 42.72C45.0497 43.04 44.9197 43.26 44.6597 43.38C44.4197 43.48 43.9397 43.54 43.2197 43.56C42.4597 43.56 41.5697 43.7 40.5497 43.98C39.8697 44.16 39.4497 44.31 39.2897 44.43C39.1297 44.53 39.0697 44.71 39.1097 44.97C39.1497 45.45 39.2997 45.73 39.5597 45.81C39.8197 45.87 40.3997 45.8 41.2997 45.6C43.8597 45.04 45.2897 45 45.5897 45.48C45.7497 45.72 45.7297 45.97 45.5297 46.23C45.3497 46.49 45.0797 46.62 44.7197 46.62C44.3997 46.62 43.4597 46.77 41.8997 47.07C40.4597 47.37 39.4897 47.52 38.9897 47.52C38.4897 47.52 38.1997 47.39 38.1197 47.13C37.7797 46.07 37.5597 44.48 37.4597 42.36C37.3597 40.24 37.4397 39.03 37.6997 38.73C38.2997 38.05 39.6497 37.62 41.7497 37.44ZM48.0197 38.73C48.0997 38.51 48.2797 38.39 48.5597 38.37C48.8597 38.33 49.0697 38.41 49.1897 38.61C49.2897 38.77 49.3597 40.31 49.3997 43.23V47.58L48.8597 47.7C48.4997 47.78 48.2497 47.72 48.1097 47.52C47.9497 47.28 47.8497 45.88 47.8097 43.32C47.7897 40.76 47.8597 39.23 48.0197 38.73ZM46.6397 49.41C47.0597 49.27 47.2897 49.2 47.3297 49.2C47.3697 49.2 47.4497 49.23 47.5697 49.29C47.7097 49.33 47.8497 49.4 47.9897 49.5C48.1297 49.6 48.2597 49.7 48.3797 49.8C48.5197 49.88 48.6097 49.95 48.6497 50.01C48.7697 50.21 48.8297 51.09 48.8297 52.65C48.8297 54.03 48.7197 54.85 48.4997 55.11C48.2997 55.37 47.5997 55.56 46.3997 55.68C46.1197 55.7 45.6497 55.74 44.9897 55.8C44.3497 55.88 43.9397 55.93 43.7597 55.95C43.4797 55.99 43.2497 56.01 43.0697 56.01C42.8897 56.01 42.7197 55.99 42.5597 55.95C42.3997 55.93 42.2797 55.87 42.1997 55.77C42.1197 55.67 42.0397 55.55 41.9597 55.41C41.8997 55.29 41.8497 55.09 41.8097 54.81C41.7897 54.55 41.7697 54.28 41.7497 54C41.7497 53.7 41.7497 53.32 41.7497 52.86C41.7497 51.3 41.8097 50.43 41.9297 50.25C42.0497 50.07 42.4197 49.98 43.0397 49.98C44.1997 49.98 45.3997 49.79 46.6397 49.41ZM47.2697 51.21L46.3397 51.15C45.9997 51.15 45.6397 51.18 45.2597 51.24C44.8797 51.28 44.5197 51.36 44.1797 51.48C43.8597 51.6 43.6297 51.72 43.4897 51.84C43.2697 52.02 43.1597 52.49 43.1597 53.25V54.39L44.5397 54.24C44.7797 54.2 45.1297 54.15 45.5897 54.09C46.0497 54.05 46.3397 54.02 46.4597 54C46.5397 54 46.6297 53.99 46.7297 53.97C46.8497 53.95 46.9397 53.94 46.9997 53.94C47.0797 53.94 47.1297 53.94 47.1497 53.94C47.2297 53.9 47.2697 53.43 47.2697 52.53V51.21ZM54.7463 39.39C54.8663 39.35 54.9963 39.31 55.1363 39.27C55.2763 39.23 55.3863 39.2 55.4663 39.18C55.5663 39.16 55.6563 39.14 55.7363 39.12C55.8163 39.1 55.8663 39.08 55.8863 39.06C56.0263 39.04 56.4663 39.25 57.2063 39.69C57.9463 40.13 58.4063 40.45 58.5863 40.65C59.5863 41.93 59.9763 43.23 59.7563 44.55C59.5563 45.85 58.7863 46.83 57.4463 47.49C56.9463 47.71 56.5663 47.84 56.3063 47.88C56.0463 47.92 55.5663 47.88 54.8663 47.76C53.8263 47.6 53.0363 47.34 52.4963 46.98C51.9563 46.62 51.5363 46.07 51.2363 45.33C50.7163 44.09 50.7963 42.9 51.4763 41.76C52.1763 40.6 53.2663 39.81 54.7463 39.39ZM56.9663 41.07C56.5463 40.85 56.1863 40.75 55.8863 40.77C55.5863 40.77 55.1763 40.88 54.6563 41.1C53.7163 41.52 53.0363 42.12 52.6163 42.9C52.4563 43.2 52.3863 43.44 52.4063 43.62C52.4263 43.8 52.5563 44.15 52.7963 44.67C53.1363 45.37 53.5963 45.84 54.1763 46.08C54.6163 46.26 55.1663 46.34 55.8263 46.32C56.5063 46.28 56.8763 46.15 56.9363 45.93C57.0163 45.75 57.1563 45.66 57.3563 45.66C57.5763 45.66 57.8063 45.49 58.0463 45.15C58.3063 44.79 58.4363 44.46 58.4363 44.16C58.4363 43.58 58.2863 42.97 57.9863 42.33C57.6863 41.67 57.3463 41.25 56.9663 41.07ZM62.8463 42.42C63.4663 41.98 63.8163 42.1 63.8963 42.78C63.9763 43.24 63.9663 44.01 63.8663 45.09C63.6463 47.43 63.5063 49.18 63.4463 50.34C63.3263 51.78 63.1963 52.69 63.0563 53.07C62.9363 53.45 62.6663 53.65 62.2463 53.67C61.7063 53.67 61.5363 52.83 61.7363 51.15C61.8763 50.11 62.0263 48.44 62.1863 46.14C62.2863 44.74 62.3763 43.8 62.4563 43.32C62.5563 42.84 62.6863 42.54 62.8463 42.42ZM58.6463 49.5C58.7063 49.44 59.0363 49.41 59.6363 49.41C60.2163 49.41 60.5563 49.57 60.6563 49.89C60.7963 50.35 60.7563 50.67 60.5363 50.85C60.3163 51.01 59.8163 51.09 59.0363 51.09C58.1763 51.09 56.9863 51.25 55.4663 51.57C53.9263 51.95 52.9163 52.17 52.4363 52.23C51.9763 52.27 51.6863 52.2 51.5663 52.02C51.4263 51.78 51.3663 51.57 51.3863 51.39C51.4063 51.21 51.5463 51.05 51.8063 50.91C52.0863 50.75 52.4463 50.62 52.8863 50.52C53.3463 50.4 53.9363 50.29 54.6563 50.19C54.9163 50.15 55.1963 50.11 55.4963 50.07C55.8163 50.01 56.0963 49.97 56.3363 49.95C56.5763 49.91 56.8263 49.88 57.0863 49.86C57.3463 49.82 57.5263 49.79 57.6263 49.77C58.2263 49.69 58.5663 49.6 58.6463 49.5ZM86.3709 40.95C86.4909 40.77 86.7109 40.7 87.0309 40.74C87.3509 40.78 87.5609 40.91 87.6609 41.13C87.8009 41.39 87.8109 42.39 87.6909 44.13C87.5309 46.09 87.4309 48.09 87.3909 50.13C87.3709 51.49 87.3309 52.41 87.2709 52.89C87.2109 53.37 87.1009 53.65 86.9409 53.73C86.7209 53.89 86.4609 53.92 86.1609 53.82C85.9609 53.74 85.8509 53.4 85.8309 52.8C85.8109 52.2 85.8409 50.54 85.9209 47.82C86.0209 44.8 86.0909 42.95 86.1309 42.27C86.1709 41.59 86.2509 41.15 86.3709 40.95ZM76.7109 41.67C77.6309 41.41 78.6209 41.29 79.6809 41.31C80.7609 41.33 81.4509 41.48 81.7509 41.76C81.9509 41.96 82.0709 43.24 82.1109 45.6C82.1709 47.94 82.1109 49.2 81.9309 49.38C81.8109 49.5 80.6709 49.72 78.5109 50.04C77.0509 50.22 76.1409 50.31 75.7809 50.31C75.4209 50.31 75.1809 50.22 75.0609 50.04C74.7609 49.62 74.5709 48.39 74.4909 46.35C74.4109 44.29 74.4909 43.05 74.7309 42.63C74.9509 42.31 75.6109 41.99 76.7109 41.67ZM80.2509 42.96C80.0109 42.88 79.8309 42.84 79.7109 42.84C79.6909 42.86 79.6109 42.88 79.4709 42.9C79.3509 42.92 79.1809 42.95 78.9609 42.99C78.7409 43.03 78.5409 43.06 78.3609 43.08C77.1209 43.28 76.4009 43.49 76.2009 43.71C76.0009 43.93 75.9009 44.62 75.9009 45.78C75.9009 47.06 75.9409 47.83 76.0209 48.09C76.1209 48.33 76.8109 48.41 78.0909 48.33C79.3309 48.27 80.0809 48.2 80.3409 48.12C80.5209 48.06 80.6109 47.21 80.6109 45.57C80.6109 44.57 80.5809 43.9 80.5209 43.56C80.4809 43.22 80.3909 43.02 80.2509 42.96ZM93.3959 37.68C94.0759 37.6 95.0059 37.52 96.1859 37.44C96.5059 37.42 96.7559 37.57 96.9359 37.89C97.1159 38.21 97.1259 38.52 96.9659 38.82C96.8859 38.96 96.6859 39.05 96.3659 39.09C96.0459 39.11 95.4359 39.11 94.5359 39.09C93.0759 39.03 92.1059 39.11 91.6259 39.33C91.1459 39.55 90.8559 40.07 90.7559 40.89C90.6759 41.59 90.6959 42.13 90.8159 42.51C90.9359 42.77 91.0559 42.91 91.1759 42.93C91.2959 42.93 91.6759 42.85 92.3159 42.69C93.2159 42.47 94.1859 42.36 95.2259 42.36C95.7259 42.36 96.0959 42.37 96.3359 42.39C96.5959 42.41 96.7859 42.45 96.9059 42.51C97.0259 42.57 97.1159 42.67 97.1759 42.81C97.4359 43.27 97.1659 43.59 96.3659 43.77C95.9659 43.87 95.3659 43.95 94.5659 44.01C93.0659 44.17 92.0959 44.32 91.6559 44.46C91.3359 44.6 91.1359 44.72 91.0559 44.82C90.9759 44.92 90.9659 45.09 91.0259 45.33C91.0659 45.61 91.1259 45.78 91.2059 45.84C91.3059 45.88 91.5359 45.87 91.8959 45.81C94.1359 45.43 95.6759 45.24 96.5159 45.24C97.3559 45.24 97.8059 45.43 97.8659 45.81C97.8659 45.83 97.8659 45.85 97.8659 45.87C97.9059 46.07 97.8159 46.22 97.5959 46.32C97.2759 46.44 95.7559 46.77 93.0359 47.31L93.0059 47.34H92.9759H92.9459H92.9159H92.8859L92.8559 47.37H92.8259H92.7959H92.7659H92.7359L92.7059 47.4H92.6759H92.6459H92.6159H92.5859L92.5559 47.43H92.5259C91.6659 47.61 91.0959 47.7 90.8159 47.7C90.5559 47.7 90.3559 47.63 90.2159 47.49C89.8159 47.11 89.5159 45.28 89.3159 42C89.2759 41.52 89.2559 41.12 89.2559 40.8C89.2559 40.48 89.2759 40.17 89.3159 39.87C89.3559 39.55 89.4059 39.3 89.4659 39.12C89.5259 38.94 89.6359 38.77 89.7959 38.61C89.9559 38.43 90.1259 38.3 90.3059 38.22C90.4859 38.14 90.7359 38.06 91.0559 37.98C91.3759 37.9 91.7159 37.84 92.0759 37.8C92.4359 37.76 92.8759 37.72 93.3959 37.68ZM99.9359 39.18C100.016 38.96 100.196 38.84 100.476 38.82C100.756 38.8 100.976 38.89 101.136 39.09C101.236 39.25 101.286 40.73 101.286 43.53C101.306 46.33 101.266 47.79 101.166 47.91C101.086 47.97 100.836 47.93 100.416 47.79L99.7859 47.55V43.56C99.7859 40.92 99.8359 39.46 99.9359 39.18ZM97.5659 49.11C97.9859 49.07 98.2459 49.03 98.3459 48.99C98.4259 48.95 98.5959 49.01 98.8559 49.17C99.1359 49.31 99.4259 49.52 99.7259 49.8C100.026 50.06 100.256 50.31 100.416 50.55C100.696 50.93 100.876 51.25 100.956 51.51C101.036 51.77 101.066 52.2 101.046 52.8C101.026 53.38 100.966 53.83 100.866 54.15C100.766 54.47 100.576 54.82 100.296 55.2C99.3559 56.5 98.2459 57.01 96.9659 56.73C96.3259 56.59 95.6659 56.25 94.9859 55.71C94.3059 55.19 93.8359 54.63 93.5759 54.03C93.2759 53.43 93.1759 52.88 93.2759 52.38C93.3759 51.86 93.6859 51.31 94.2059 50.73C94.3859 50.51 94.5559 50.33 94.7159 50.19C94.8759 50.05 95.0459 49.93 95.2259 49.83C95.4259 49.71 95.6359 49.61 95.8559 49.53C96.0959 49.43 96.3459 49.35 96.6059 49.29C96.8859 49.23 97.2059 49.17 97.5659 49.11ZM99.0959 51.27C98.7759 50.89 98.4659 50.67 98.1659 50.61C97.8659 50.53 97.4359 50.59 96.8759 50.79C96.4959 50.91 96.1459 51.08 95.8259 51.3C95.5259 51.52 95.2859 51.77 95.1059 52.05C94.9259 52.31 94.8359 52.56 94.8359 52.8C94.8359 53.18 95.1059 53.66 95.6459 54.24C96.1859 54.82 96.6859 55.16 97.1459 55.26C97.4659 55.32 97.7159 55.31 97.8959 55.23C98.0959 55.15 98.3759 54.92 98.7359 54.54C99.0559 54.2 99.2659 53.92 99.3659 53.7C99.4859 53.46 99.5459 53.15 99.5459 52.77C99.5459 52.17 99.3959 51.67 99.0959 51.27ZM106.54 35.58C106.7 35.42 106.92 35.33 107.2 35.31C107.48 35.29 107.66 35.36 107.74 35.52C107.84 35.62 107.94 36.17 108.04 37.17L108.19 38.64L109.63 38.43C110.81 38.29 111.55 38.24 111.85 38.28C112.15 38.32 112.38 38.5 112.54 38.82C112.72 39.2 112.72 39.5 112.54 39.72C112.38 39.94 112.08 40 111.64 39.9C111.36 39.84 110.49 39.93 109.03 40.17C107.57 40.39 106.2 40.66 104.92 40.98C103.52 41.34 102.82 41.17 102.82 40.47C102.82 40.25 102.88 40.08 103 39.96C103.14 39.82 103.39 39.68 103.75 39.54C104.43 39.32 105.06 39.23 105.64 39.27H106.54L106.42 37.56C106.3 36.42 106.34 35.76 106.54 35.58ZM115.33 40.02C115.41 39.86 115.65 39.78 116.05 39.78H116.65L116.56 41.82L116.5 43.89H117.79C118.51 43.89 119 43.95 119.26 44.07C119.54 44.17 119.68 44.39 119.68 44.73C119.68 45.03 119.57 45.24 119.35 45.36C119.13 45.46 118.76 45.5 118.24 45.48C117.66 45.46 117.16 45.52 116.74 45.66C116.46 45.78 116.29 45.91 116.23 46.05C116.19 46.17 116.21 46.47 116.29 46.95C116.39 47.73 116.39 48.27 116.29 48.57C116.23 48.89 116.02 49.12 115.66 49.26C115.3 49.38 115.05 49.33 114.91 49.11C114.77 48.93 114.74 47.58 114.82 45.06C114.9 43.12 114.97 41.85 115.03 41.25C115.09 40.63 115.19 40.22 115.33 40.02ZM106.45 42.3C107.19 41.92 107.67 41.73 107.89 41.73C108.13 41.71 108.6 41.83 109.3 42.09C110.32 42.45 111.01 42.87 111.37 43.35C111.75 43.81 111.95 44.5 111.97 45.42C112.03 46.94 111.24 48.08 109.6 48.84C108.94 49.16 108.34 49.35 107.8 49.41C107.26 49.45 106.65 49.37 105.97 49.17C105.21 48.97 104.66 48.66 104.32 48.24C103.98 47.82 103.78 47.22 103.72 46.44C103.66 45.8 103.66 45.36 103.72 45.12C103.78 44.88 104 44.51 104.38 44.01C104.86 43.35 105.55 42.78 106.45 42.3ZM109.93 43.8C109.43 43.34 108.75 43.21 107.89 43.41C107.03 43.61 106.26 44.07 105.58 44.79C105.32 45.05 105.16 45.27 105.1 45.45C105.06 45.63 105.07 45.9 105.13 46.26C105.29 46.92 105.73 47.41 106.45 47.73C107.19 48.05 107.88 48.04 108.52 47.7C109.48 47.22 110.1 46.59 110.38 45.81C110.68 45.01 110.53 44.34 109.93 43.8ZM111.79 51.09C114.01 50.85 115.31 50.85 115.69 51.09C115.83 51.17 115.92 51.41 115.96 51.81C116 52.21 116.02 52.95 116.02 54.03V56.76L115.39 56.97C114.97 57.11 114.7 57.03 114.58 56.73C114.48 56.45 114.44 55.69 114.46 54.45C114.48 53.19 114.43 52.52 114.31 52.44C114.15 52.34 112.67 52.56 109.87 53.1C109.45 53.18 109.12 53.13 108.88 52.95C108.66 52.75 108.6 52.5 108.7 52.2C108.82 51.9 109.09 51.67 109.51 51.51C109.89 51.35 110.65 51.21 111.79 51.09ZM139.759 40.41C139.999 40.31 140.249 40.27 140.509 40.29C140.769 40.29 140.939 40.35 141.019 40.47C141.099 40.59 141.049 41.78 140.869 44.04C140.709 46.08 140.569 48.07 140.449 50.01C140.369 51.35 140.239 52.21 140.059 52.59C139.899 52.95 139.589 53.05 139.129 52.89C138.929 52.81 138.809 52.42 138.769 51.72C138.749 51 138.819 49.81 138.979 48.15L139.129 46.32L138.049 46.44C137.309 46.54 136.599 46.74 135.919 47.04L134.779 47.49V49.98C134.759 50.96 134.719 51.63 134.659 51.99C134.599 52.33 134.489 52.56 134.329 52.68C133.589 53.24 133.229 52.95 133.249 51.81C133.289 49.69 133.369 47.39 133.489 44.91C133.629 42.41 133.749 41.07 133.849 40.89C133.949 40.67 134.129 40.54 134.389 40.5C134.669 40.46 134.939 40.53 135.199 40.71C135.319 40.79 135.379 40.97 135.379 41.25C135.399 41.53 135.349 42.1 135.229 42.96C135.029 44.32 134.979 45.04 135.079 45.12C135.119 45.18 135.339 45.19 135.739 45.15C136.159 45.11 136.599 45.05 137.059 44.97C137.539 44.89 137.989 44.8 138.409 44.7C138.849 44.58 139.109 44.49 139.189 44.43C139.369 44.27 139.459 43.58 139.459 42.36C139.459 41.14 139.559 40.49 139.759 40.41ZM126.739 41.76C127.759 41.56 128.399 41.46 128.659 41.46C128.919 41.46 129.139 41.56 129.319 41.76C129.479 41.96 129.539 42.33 129.499 42.87C129.479 43.39 129.359 44.36 129.139 45.78C129.119 45.94 129.039 46.45 128.899 47.31C128.759 48.17 128.659 48.81 128.599 49.23C128.439 50.45 128.279 51.12 128.119 51.24C128.039 51.3 127.889 51.33 127.669 51.33C127.229 51.33 126.969 51.16 126.889 50.82C126.829 50.48 126.899 49.75 127.099 48.63C127.639 45.67 127.909 43.98 127.909 43.56C127.909 43.42 127.889 43.32 127.849 43.26C127.809 43.18 127.749 43.15 127.669 43.17C127.509 43.29 126.719 43.46 125.299 43.68C123.899 43.9 122.959 44.01 122.479 44.01C121.919 44.01 121.539 43.89 121.339 43.65C120.979 43.23 121.319 42.88 122.359 42.6C122.679 42.52 123.079 42.44 123.559 42.36C124.699 42.18 125.759 41.98 126.739 41.76ZM145.187 36.15C146.047 35.91 146.957 35.79 147.917 35.79C148.897 35.77 149.537 35.92 149.837 36.24C150.137 36.54 150.347 37.27 150.467 38.43C150.507 38.93 150.537 39.29 150.557 39.51C150.577 39.73 150.567 39.98 150.527 40.26C150.487 40.52 150.437 40.69 150.377 40.77C150.317 40.83 150.167 40.93 149.927 41.07C149.707 41.19 149.487 41.28 149.267 41.34C149.067 41.38 148.727 41.46 148.247 41.58C146.687 41.98 145.727 42.26 145.367 42.42C145.027 42.58 144.887 42.86 144.947 43.26C144.967 43.48 145.017 43.64 145.097 43.74C145.197 43.82 145.337 43.84 145.517 43.8C146.657 43.66 147.847 43.4 149.087 43.02C150.307 42.66 150.917 42.92 150.917 43.8C150.917 44.02 150.857 44.18 150.737 44.28C150.637 44.36 150.377 44.44 149.957 44.52C149.537 44.58 148.647 44.8 147.287 45.18C145.547 45.66 144.417 45.78 143.897 45.54C143.397 45.3 143.207 44.57 143.327 43.35C143.407 42.45 143.627 41.84 143.987 41.52C144.367 41.2 145.167 40.9 146.387 40.62C146.907 40.5 147.297 40.41 147.557 40.35C147.817 40.29 148.067 40.22 148.307 40.14C148.567 40.04 148.737 39.97 148.817 39.93C148.897 39.87 148.967 39.77 149.027 39.63C149.087 39.49 149.107 39.37 149.087 39.27C149.087 39.15 149.067 38.97 149.027 38.73C148.907 38.11 148.777 37.69 148.637 37.47C148.397 37.17 147.337 37.27 145.457 37.77C144.677 37.99 143.987 38.1 143.387 38.1C143.047 38.1 142.817 38.07 142.697 38.01C142.597 37.95 142.547 37.83 142.547 37.65C142.547 37.11 143.427 36.61 145.187 36.15ZM147.227 46.29C147.707 45.71 148.057 45.72 148.277 46.32C148.377 46.62 148.427 47.01 148.427 47.49C148.427 47.87 148.457 48.1 148.517 48.18C148.597 48.24 148.827 48.23 149.207 48.15C149.607 48.07 150.277 47.98 151.217 47.88C151.737 47.8 152.077 47.78 152.237 47.82C152.397 47.86 152.537 47.99 152.657 48.21C152.837 48.53 152.877 48.8 152.777 49.02C152.697 49.24 152.477 49.41 152.117 49.53C151.777 49.63 151.307 49.68 150.707 49.68C150.087 49.68 149.147 49.8 147.887 50.04C145.187 50.54 143.747 50.52 143.567 49.98C143.427 49.64 143.567 49.34 143.987 49.08C144.427 48.82 144.967 48.72 145.607 48.78L146.687 48.84L146.807 47.76C146.887 47.06 147.027 46.57 147.227 46.29ZM145.427 52.23C145.627 52.09 145.887 52.04 146.207 52.08C146.447 52.12 146.587 52.24 146.627 52.44C146.667 52.62 146.637 53.07 146.537 53.79C146.537 53.79 146.537 53.8 146.537 53.82C146.497 54.18 146.567 54.38 146.747 54.42C146.927 54.46 147.567 54.41 148.667 54.27C148.767 54.27 148.847 54.27 148.907 54.27C148.987 54.25 149.097 54.23 149.237 54.21C151.217 53.97 152.377 53.86 152.717 53.88C153.077 53.88 153.317 54.01 153.437 54.27C153.437 54.29 153.447 54.31 153.467 54.33C153.567 54.61 153.567 54.84 153.467 55.02C153.387 55.2 153.197 55.33 152.897 55.41C152.597 55.51 152.207 55.56 151.727 55.56C150.987 55.52 149.847 55.69 148.307 56.07C146.767 56.43 145.887 56.52 145.667 56.34C145.287 56.12 145.057 55.43 144.977 54.27C144.897 53.13 145.047 52.45 145.427 52.23ZM157.997 35.61C159.217 35.03 160.427 35.01 161.627 35.55C162.847 36.09 163.657 37.01 164.057 38.31C164.157 38.69 164.197 39.02 164.177 39.3C164.157 39.58 164.077 39.96 163.937 40.44C163.717 41.1 163.367 41.66 162.887 42.12C162.427 42.58 161.807 42.99 161.027 43.35C160.587 43.53 160.247 43.63 160.007 43.65C159.767 43.67 159.437 43.62 159.017 43.5C158.657 43.42 158.287 43.31 157.907 43.17C157.547 43.01 157.227 42.85 156.947 42.69C156.667 42.53 156.457 42.38 156.317 42.24C156.117 42.06 155.917 41.81 155.717 41.49C155.517 41.17 155.357 40.85 155.237 40.53C155.117 40.21 155.057 39.95 155.057 39.75C155.057 38.95 155.327 38.16 155.867 37.38C156.427 36.6 157.137 36.01 157.997 35.61ZM161.717 37.26C161.357 36.92 160.887 36.75 160.307 36.75C159.727 36.73 159.177 36.84 158.657 37.08C158.137 37.32 157.677 37.67 157.277 38.13C156.897 38.57 156.707 39.04 156.707 39.54C156.707 40 156.917 40.47 157.337 40.95C157.777 41.43 158.277 41.75 158.837 41.91C159.417 42.09 159.937 42.1 160.397 41.94C160.857 41.76 161.387 41.35 161.987 40.71C162.467 40.27 162.727 39.96 162.767 39.78C162.827 39.6 162.787 39.27 162.647 38.79C162.427 38.15 162.117 37.64 161.717 37.26ZM163.667 44.73C164.407 44.41 164.947 44.5 165.287 45C165.447 45.24 165.527 45.41 165.527 45.51C165.527 45.61 165.437 45.76 165.257 45.96C165.017 46.24 164.397 46.38 163.397 46.38C162.357 46.38 161.047 46.55 159.467 46.89C157.847 47.23 156.767 47.4 156.227 47.4C155.867 47.42 155.637 47.4 155.537 47.34C155.457 47.26 155.417 47.09 155.417 46.83C155.417 46.61 155.497 46.41 155.657 46.23C155.817 46.05 156.047 45.91 156.347 45.81C156.667 45.71 157.017 45.66 157.397 45.66C157.937 45.66 158.607 45.55 159.407 45.33C160.147 45.11 160.967 44.98 161.867 44.94C162.767 44.94 163.367 44.87 163.667 44.73ZM160.817 48.69C161.377 48.47 162.037 48.43 162.797 48.57C163.577 48.69 164.077 48.93 164.297 49.29C164.417 49.47 164.467 50 164.447 50.88C164.447 51.74 164.387 52.33 164.267 52.65C164.007 53.29 162.857 53.67 160.817 53.79C159.617 53.85 158.977 53.88 158.897 53.88C158.697 53.9 158.597 54.1 158.597 54.48C158.597 54.86 158.757 55.08 159.077 55.14C159.417 55.22 159.997 55.17 160.817 54.99C163.157 54.41 164.487 54.39 164.807 54.93C164.867 55.13 164.907 55.29 164.927 55.41C164.967 55.53 164.827 55.65 164.507 55.77C164.187 55.89 163.777 56 163.277 56.1C162.777 56.22 162.027 56.37 161.027 56.55C159.567 56.79 158.507 56.75 157.847 56.43C157.207 56.11 156.887 55.46 156.887 54.48C156.887 53.8 157.077 53.34 157.457 53.1C157.857 52.84 158.697 52.65 159.977 52.53C161.457 52.35 162.307 52.18 162.527 52.02C162.747 51.84 162.857 51.48 162.857 50.94C162.857 50.56 162.817 50.34 162.737 50.28C162.657 50.2 162.397 50.16 161.957 50.16C161.417 50.16 160.477 50.29 159.137 50.55C157.697 50.85 156.917 50.85 156.797 50.55C156.757 50.41 156.797 50.19 156.917 49.89C156.997 49.63 157.147 49.45 157.367 49.35C157.587 49.23 157.987 49.11 158.567 48.99C159.547 48.79 160.087 48.72 160.187 48.78C160.307 48.86 160.517 48.83 160.817 48.69ZM180.023 34.14C180.203 33.8 180.403 33.63 180.623 33.63C181.143 33.63 181.393 34.4 181.373 35.94C181.373 36.9 181.413 37.44 181.493 37.56C181.613 37.64 182.233 37.58 183.353 37.38C184.153 37.24 184.653 37.18 184.853 37.2C185.053 37.22 185.233 37.33 185.393 37.53C185.653 37.89 185.723 38.18 185.603 38.4C185.503 38.6 185.223 38.72 184.763 38.76C184.203 38.82 183.093 39.01 181.433 39.33C179.773 39.65 178.663 39.89 178.103 40.05C177.563 40.21 177.083 40.25 176.663 40.17C176.243 40.07 176.033 39.87 176.033 39.57C176.033 39.27 176.283 38.99 176.783 38.73C177.303 38.45 177.873 38.28 178.493 38.22C179.213 38.16 179.643 38.09 179.783 38.01C179.923 37.91 179.953 37.33 179.873 36.27C179.793 35.19 179.843 34.48 180.023 34.14ZM179.453 40.92C180.253 40.5 180.733 40.28 180.893 40.26C181.673 40.24 182.513 40.57 183.413 41.25C184.313 41.91 184.763 42.55 184.763 43.17C184.763 43.65 184.573 44.19 184.193 44.79C183.333 46.01 181.943 46.64 180.023 46.68C179.303 46.7 178.813 46.68 178.553 46.62C178.313 46.56 178.023 46.37 177.683 46.05C176.943 45.35 176.743 44.5 177.083 43.5C177.423 42.48 178.213 41.62 179.453 40.92ZM182.633 42.12C182.333 41.98 181.953 41.92 181.493 41.94C181.053 41.94 180.693 42.03 180.413 42.21C179.853 42.53 179.453 42.78 179.213 42.96C178.993 43.14 178.843 43.31 178.763 43.47C178.683 43.63 178.643 43.85 178.643 44.13C178.643 44.29 178.653 44.44 178.673 44.58C178.713 44.7 178.763 44.8 178.823 44.88C178.883 44.96 178.973 45.03 179.093 45.09C179.213 45.13 179.353 45.16 179.513 45.18C179.693 45.2 179.913 45.21 180.173 45.21C181.033 45.21 181.783 44.97 182.423 44.49C183.083 44.01 183.333 43.5 183.173 42.96C183.093 42.54 182.913 42.26 182.633 42.12ZM188.723 40.56C189.363 40.04 189.683 40.36 189.683 41.52C189.683 42 189.623 42.62 189.503 43.38L189.323 44.52L190.973 44.43L192.653 44.34V45.09C192.653 45.43 192.593 45.64 192.473 45.72C192.353 45.78 191.983 45.85 191.363 45.93C190.283 46.05 189.633 46.22 189.413 46.44C189.193 46.66 189.113 47.21 189.173 48.09C189.233 48.83 189.243 49.28 189.203 49.44C189.163 49.58 188.993 49.68 188.693 49.74C188.253 49.82 187.993 49.79 187.913 49.65C187.793 49.47 187.753 48.42 187.793 46.5C187.833 44.56 187.923 43.2 188.063 42.42C188.243 41.38 188.463 40.76 188.723 40.56ZM180.443 47.22C180.563 47.1 180.783 47.07 181.103 47.13C181.423 47.17 181.603 47.46 181.643 48C181.683 48.36 181.743 48.57 181.823 48.63C181.903 48.69 182.113 48.69 182.453 48.63C182.773 48.55 183.523 48.45 184.703 48.33C185.443 48.27 185.873 48.26 185.993 48.3C186.113 48.34 186.173 48.5 186.173 48.78C186.173 49.1 186.033 49.38 185.753 49.62C185.493 49.84 185.223 49.92 184.943 49.86C184.763 49.84 184.353 49.89 183.713 50.01C183.073 50.11 182.553 50.23 182.153 50.37C180.573 50.89 179.613 51.18 179.273 51.24C178.933 51.3 178.653 51.23 178.433 51.03C178.273 50.85 178.193 50.72 178.193 50.64C178.193 50.54 178.283 50.39 178.463 50.19C178.743 49.91 179.123 49.7 179.603 49.56C179.923 49.5 180.113 49.41 180.173 49.29C180.253 49.17 180.293 48.88 180.293 48.42C180.293 47.72 180.343 47.32 180.443 47.22ZM185.363 51.93C186.883 51.73 187.823 51.63 188.183 51.63C188.563 51.61 188.823 51.69 188.963 51.87C189.123 52.07 189.193 53.03 189.173 54.75L189.143 57.3L188.483 57.48C188.083 57.58 187.833 57.5 187.733 57.24C187.633 56.98 187.563 56.23 187.523 54.99L187.463 53.31L186.323 53.37C185.523 53.39 184.773 53.54 184.073 53.82C182.973 54.2 182.343 54.18 182.183 53.76C182.083 53.52 182.213 53.19 182.573 52.77C182.693 52.61 182.843 52.49 183.023 52.41C183.223 52.33 183.493 52.26 183.833 52.2C184.193 52.12 184.703 52.03 185.363 51.93ZM196.989 38.7C197.549 38.44 198.229 38.35 199.029 38.43C199.849 38.49 200.519 38.7 201.039 39.06C201.659 39.46 202.159 40.09 202.539 40.95C202.919 41.81 203.109 42.69 203.109 43.59C203.109 44.23 203.069 44.69 202.989 44.97C202.909 45.25 202.709 45.58 202.389 45.96C201.909 46.54 201.259 46.96 200.439 47.22C199.619 47.48 198.729 47.55 197.769 47.43C197.209 47.35 196.789 47.25 196.509 47.13C196.229 47.01 195.939 46.79 195.639 46.47C194.639 45.43 194.139 44.28 194.139 43.02C194.139 42.08 194.389 41.23 194.889 40.47C195.389 39.69 196.089 39.1 196.989 38.7ZM199.899 40.05C199.439 39.85 199.039 39.78 198.699 39.84C198.379 39.9 197.919 40.13 197.319 40.53C196.539 41.07 196.029 41.63 195.789 42.21C195.649 42.61 195.579 42.91 195.579 43.11C195.599 43.31 195.729 43.65 195.969 44.13C196.329 44.87 196.719 45.36 197.139 45.6C197.559 45.84 198.159 45.93 198.939 45.87C199.439 45.81 199.819 45.73 200.079 45.63C200.359 45.51 200.659 45.31 200.979 45.03C201.299 44.71 201.509 44.45 201.609 44.25C201.709 44.03 201.759 43.73 201.759 43.35C201.719 42.77 201.499 42.12 201.099 41.4C200.699 40.68 200.299 40.23 199.899 40.05ZM205.989 39.66C206.069 39.46 206.299 39.34 206.679 39.3C207.079 39.26 207.339 39.32 207.459 39.48C207.539 39.66 207.499 40.78 207.339 42.84C207.179 44.9 207.169 46.45 207.309 47.49C207.409 48.21 207.439 48.66 207.399 48.84C207.379 49 207.229 49.17 206.949 49.35C206.469 49.67 206.169 49.66 206.049 49.32C205.889 48.92 205.809 47.35 205.809 44.61C205.849 41.57 205.909 39.92 205.989 39.66ZM199.149 50.43C199.329 50.23 199.619 50.15 200.019 50.19C200.319 50.23 200.489 50.33 200.529 50.49C200.569 50.63 200.579 51.12 200.559 51.96C200.499 53.1 200.549 53.67 200.709 53.67C200.929 53.67 202.009 53.55 203.949 53.31C205.169 53.13 205.989 53.04 206.409 53.04C206.829 53.04 207.069 53.1 207.129 53.22C207.389 53.64 207.349 53.95 207.009 54.15C206.689 54.37 205.969 54.59 204.849 54.81C201.309 55.37 199.439 55.48 199.239 55.14C199.079 54.9 198.989 54.1 198.969 52.74C198.949 51.38 199.009 50.61 199.149 50.43ZM212.562 38.52C212.522 37.86 212.522 37.47 212.562 37.35C212.622 37.23 212.802 37.17 213.102 37.17C213.942 37.17 214.252 38.06 214.032 39.84L213.882 41.19L214.902 41.16C215.682 41.14 216.272 41.08 216.672 40.98C216.912 40.92 217.152 40.9 217.392 40.92C217.632 40.92 217.842 40.96 218.022 41.04C218.202 41.1 218.352 41.2 218.472 41.34C218.612 41.48 218.702 41.63 218.742 41.79C218.802 42.19 218.702 42.45 218.442 42.57C218.202 42.69 217.822 42.68 217.302 42.54C216.762 42.4 216.182 42.41 215.562 42.57C214.942 42.75 214.162 42.88 213.222 42.96C212.222 43.08 211.502 43.24 211.062 43.44C210.642 43.66 210.182 43.77 209.682 43.77C209.402 43.77 209.212 43.74 209.112 43.68C209.032 43.6 208.992 43.44 208.992 43.2C208.992 42.82 209.122 42.55 209.382 42.39C209.642 42.21 210.202 42.04 211.062 41.88C211.802 41.72 212.232 41.59 212.352 41.49C212.492 41.39 212.572 41.13 212.592 40.71C212.592 39.75 212.582 39.02 212.562 38.52ZM224.682 41.46C224.742 41.26 224.992 41.19 225.432 41.25L226.062 41.31L226.002 43.05C225.942 44.15 225.842 45.53 225.702 47.19C225.522 48.77 225.492 50.07 225.612 51.09C225.672 51.83 225.682 52.29 225.642 52.47C225.622 52.63 225.472 52.77 225.192 52.89C224.812 53.07 224.532 53.1 224.352 52.98C224.192 52.86 224.092 52 224.052 50.4C224.012 49.04 223.912 48.24 223.752 48C223.612 47.74 223.222 47.76 222.582 48.06L221.862 48.45L221.982 50.4C222.062 51.22 222.082 51.77 222.042 52.05C222.022 52.33 221.932 52.53 221.772 52.65C221.292 53.03 220.882 53.03 220.542 52.65C220.362 52.39 220.312 50.74 220.392 47.7C220.452 45.42 220.542 43.92 220.662 43.2C220.782 42.48 221.012 42.12 221.352 42.12C221.692 42.12 221.922 42.31 222.042 42.69C222.162 43.05 222.212 43.66 222.192 44.52L222.102 46.26L222.792 46.32C223.232 46.36 223.552 46.32 223.752 46.2C223.972 46.08 224.132 45.84 224.232 45.48C224.332 45.12 224.412 44.55 224.472 43.77C224.552 42.39 224.622 41.62 224.682 41.46ZM213.132 44.67C213.612 44.39 214.052 44.26 214.452 44.28C214.872 44.28 215.392 44.45 216.012 44.79C217.492 45.53 218.272 46.63 218.352 48.09C218.392 48.63 218.372 49.04 218.292 49.32C218.232 49.58 218.022 49.97 217.662 50.49C217.122 51.31 216.622 51.87 216.162 52.17C215.702 52.45 215.132 52.58 214.452 52.56C212.872 52.5 211.722 51.94 211.002 50.88C210.302 49.8 210.262 48.56 210.882 47.16C211.142 46.52 211.442 46.02 211.782 45.66C212.122 45.28 212.572 44.95 213.132 44.67ZM215.712 46.14C215.252 45.96 214.862 45.89 214.542 45.93C214.242 45.97 213.882 46.14 213.462 46.44C213.002 46.74 212.642 47.18 212.382 47.76C212.122 48.34 212.052 48.85 212.172 49.29C212.252 49.67 212.402 50 212.622 50.28C212.842 50.54 213.102 50.74 213.402 50.88C213.702 51.02 214.032 51.09 214.392 51.09C214.772 51.09 215.062 51.04 215.262 50.94C215.462 50.84 215.712 50.61 216.012 50.25C216.512 49.67 216.802 49.14 216.882 48.66C216.982 48.2 216.902 47.7 216.642 47.16C216.382 46.62 216.072 46.28 215.712 46.14ZM240.761 38.28C242.701 38.06 243.931 37.95 244.451 37.95C244.971 37.93 245.301 38.01 245.441 38.19C245.581 38.37 245.581 38.6 245.441 38.88C245.321 39.14 244.961 39.68 244.361 40.5L243.581 41.52L244.121 41.94C244.481 42.22 244.721 42.36 244.841 42.36C244.941 42.36 245.311 42.56 245.951 42.96C246.571 43.4 246.881 43.79 246.881 44.13C246.881 44.93 246.111 44.86 244.571 43.92C244.231 43.7 243.991 43.55 243.851 43.47C243.711 43.39 243.531 43.3 243.311 43.2C243.091 43.1 242.941 43.04 242.861 43.02C242.801 42.98 242.681 42.97 242.501 42.99C242.321 43.01 242.201 43.04 242.141 43.08C242.101 43.12 241.991 43.21 241.811 43.35C241.651 43.47 241.521 43.59 241.421 43.71C241.321 43.81 241.161 43.99 240.941 44.25C240.421 44.81 240.031 45.19 239.771 45.39C239.511 45.59 239.281 45.67 239.081 45.63C238.441 45.53 238.311 45.17 238.691 44.55C238.991 44.09 239.641 43.36 240.641 42.36C242.441 40.56 243.161 39.62 242.801 39.54C242.761 39.52 242.721 39.51 242.681 39.51C242.541 39.51 241.581 39.68 239.801 40.02C238.661 40.22 237.901 40.33 237.521 40.35C237.161 40.37 236.911 40.31 236.771 40.17C236.551 39.95 236.491 39.71 236.591 39.45C236.711 39.17 236.941 38.97 237.281 38.85C237.561 38.73 238.721 38.54 240.761 38.28ZM245.741 47.64C246.181 47.4 246.581 47.32 246.941 47.4C247.321 47.48 247.581 47.71 247.721 48.09C247.841 48.39 247.861 48.63 247.781 48.81C247.701 48.97 247.521 49.09 247.241 49.17C246.981 49.23 246.601 49.24 246.101 49.2C245.241 49.18 244.751 49.27 244.631 49.47C244.491 49.69 244.421 50.7 244.421 52.5C244.421 53.84 244.391 54.63 244.331 54.87C244.291 55.11 244.131 55.25 243.851 55.29C243.471 55.35 243.221 55.27 243.101 55.05C242.941 54.79 242.891 53.85 242.951 52.23C242.971 50.55 242.951 49.66 242.891 49.56C242.831 49.5 242.161 49.55 240.881 49.71C239.261 49.91 238.261 50 237.881 49.98C237.501 49.96 237.291 49.8 237.251 49.5C237.231 49.38 237.271 49.23 237.371 49.05C237.471 48.87 237.581 48.72 237.701 48.6C237.961 48.38 238.421 48.23 239.081 48.15C239.761 48.07 241.161 48.02 243.281 48C244.561 47.96 245.381 47.84 245.741 47.64ZM253.415 41.13C253.635 40.85 253.855 40.71 254.075 40.71C254.735 40.71 254.735 41.35 254.075 42.63C254.035 42.71 253.995 42.78 253.955 42.84C253.455 43.74 253.205 44.35 253.205 44.67C253.205 44.91 253.715 45.67 254.735 46.95C256.455 48.99 256.775 49.97 255.695 49.89C255.675 49.89 255.655 49.88 255.635 49.86C255.215 49.82 254.585 49.24 253.745 48.12C252.885 47.02 252.385 46.45 252.245 46.41C252.125 46.37 251.925 46.64 251.645 47.22C251.385 47.8 251.205 48.38 251.105 48.96C251.025 49.32 250.935 49.55 250.835 49.65C250.755 49.75 250.575 49.8 250.295 49.8C249.655 49.8 249.325 49.61 249.305 49.23C249.285 48.83 249.565 48.06 250.145 46.92C251.745 43.74 252.835 41.81 253.415 41.13ZM260.525 41.07C260.705 40.85 260.865 40.74 261.005 40.74C261.145 40.74 261.345 40.86 261.605 41.1C261.845 41.34 261.915 41.6 261.815 41.88C261.675 42.16 261.565 43.84 261.485 46.92C261.445 49.12 261.395 50.46 261.335 50.94C261.295 51.4 261.165 51.69 260.945 51.81C260.505 52.05 260.215 51.95 260.075 51.51C259.975 51.11 259.915 50.16 259.895 48.66C259.855 46.74 259.745 45.76 259.565 45.72C259.385 45.66 258.915 45.75 258.155 45.99C256.535 46.53 255.645 46.49 255.485 45.87C255.405 45.55 255.405 45.29 255.485 45.09C255.545 44.91 255.945 44.73 256.685 44.55C257.425 44.35 258.195 44.22 258.995 44.16L259.925 44.13L260.075 42.78C260.195 41.84 260.345 41.27 260.525 41.07ZM264.515 41.13C264.515 41.03 264.615 40.97 264.815 40.95C265.015 40.93 265.225 40.96 265.445 41.04C265.665 41.1 265.825 41.19 265.925 41.31C266.125 41.55 266.175 41.92 266.075 42.42C265.995 42.9 265.945 44.61 265.925 47.55C265.905 48.73 265.875 49.64 265.835 50.28C265.815 50.9 265.765 51.41 265.685 51.81C265.605 52.21 265.505 52.47 265.385 52.59C265.265 52.69 265.085 52.74 264.845 52.74C264.585 52.74 264.425 52.36 264.365 51.6C264.305 50.84 264.315 49.13 264.395 46.47C264.395 46.09 264.395 45.7 264.395 45.3C264.415 44.9 264.425 44.53 264.425 44.19C264.445 43.85 264.455 43.52 264.455 43.2C264.475 42.88 264.485 42.6 264.485 42.36C264.505 42.12 264.515 41.91 264.515 41.73C264.515 41.55 264.515 41.41 264.515 41.31C264.515 41.19 264.515 41.13 264.515 41.13ZM270.555 37.35C271.275 37.09 271.965 37.01 272.625 37.11C273.305 37.19 273.935 37.46 274.515 37.92C275.115 38.38 275.605 39 275.985 39.78C276.365 40.52 276.545 41.21 276.525 41.85C276.525 42.49 276.325 43.2 275.925 43.98C275.605 44.62 275.225 45.1 274.785 45.42C274.345 45.72 273.785 45.92 273.105 46.02C271.965 46.18 270.885 45.96 269.865 45.36C268.845 44.76 268.195 43.99 267.915 43.05C267.515 41.77 267.555 40.63 268.035 39.63C268.515 38.63 269.355 37.87 270.555 37.35ZM272.985 38.58C272.785 38.58 272.565 38.54 272.325 38.46C271.965 38.34 271.395 38.56 270.615 39.12C269.835 39.68 269.365 40.22 269.205 40.74C269.145 40.94 269.135 41.18 269.175 41.46C269.215 41.72 269.285 41.99 269.385 42.27C269.485 42.53 269.615 42.79 269.775 43.05C269.955 43.31 270.145 43.53 270.345 43.71C271.105 44.39 271.875 44.7 272.655 44.64C273.435 44.58 274.055 44.17 274.515 43.41C275.255 42.21 275.135 40.96 274.155 39.66C273.575 38.94 273.185 38.58 272.985 38.58ZM274.245 47.91C274.405 47.53 274.605 47.34 274.845 47.34C275.105 47.32 275.325 47.51 275.505 47.91C275.665 48.29 275.645 48.95 275.445 49.89C275.245 50.79 275.205 51.34 275.325 51.54C275.425 51.72 276.025 51.81 277.125 51.81C277.885 51.81 278.355 51.84 278.535 51.9C278.735 51.94 278.885 52.08 278.985 52.32C279.125 52.74 279.075 53.03 278.835 53.19C278.615 53.35 278.115 53.42 277.335 53.4C276.715 53.38 275.945 53.42 275.025 53.52C274.125 53.6 273.485 53.69 273.105 53.79C272.925 53.85 272.465 53.94 271.725 54.06C271.005 54.2 270.295 54.33 269.595 54.45C268.895 54.57 268.475 54.63 268.335 54.63C268.095 54.63 267.915 54.47 267.795 54.15C267.675 53.83 267.705 53.56 267.885 53.34C268.045 53.14 268.435 52.99 269.055 52.89L269.925 52.77V50.85C269.945 49.79 270.025 49.12 270.165 48.84C270.305 48.54 270.605 48.45 271.065 48.57C271.345 48.65 271.505 48.78 271.545 48.96C271.605 49.12 271.625 49.62 271.605 50.46L271.545 52.14L272.715 52.23C273.455 52.27 273.825 52.23 273.825 52.11C273.825 51.57 273.845 51 273.885 50.4C273.945 49.8 274.005 49.28 274.065 48.84C274.145 48.4 274.205 48.09 274.245 47.91ZM282.785 38.94C282.885 38.84 283.035 38.8 283.235 38.82C283.435 38.84 283.605 38.92 283.745 39.06C283.845 39.16 283.905 39.29 283.925 39.45C283.945 39.59 283.945 39.93 283.925 40.47C283.885 41.23 283.795 42.07 283.655 42.99C283.515 43.91 283.385 44.48 283.265 44.7C283.165 44.9 283.125 45.22 283.145 45.66C283.185 46.08 283.275 46.49 283.415 46.89C283.555 47.31 283.605 47.64 283.565 47.88C283.525 48.12 283.385 48.36 283.145 48.6C282.925 48.82 282.705 48.94 282.485 48.96C282.285 48.96 282.125 48.87 282.005 48.69C281.885 48.51 281.815 47.75 281.795 46.41C281.775 45.05 281.825 44.23 281.945 43.95C282.025 43.75 282.105 43.38 282.185 42.84C282.305 42.08 282.385 41.57 282.425 41.31C282.505 40.71 282.565 40.22 282.605 39.84C282.645 39.36 282.705 39.06 282.785 38.94ZM281.195 52.98C281.435 52.84 281.725 52.86 282.065 53.04C282.445 53.24 282.635 53.59 282.635 54.09C282.635 54.57 282.445 54.9 282.065 55.08C281.705 55.28 281.325 55.25 280.925 54.99C280.665 54.85 280.535 54.64 280.535 54.36C280.535 54.16 280.605 53.9 280.745 53.58C280.905 53.26 281.055 53.06 281.195 52.98Z" fill="#1A1A1A"/>
</svg>
