<svg width="161" height="94" viewBox="0 0 161 94" fill="none" xmlns="http://www.w3.org/2000/svg">
<path d="M11.3943 3.98C11.4743 3.76 11.6543 3.65 11.9343 3.65C12.3343 3.65 12.5843 3.81 12.6843 4.13C12.7843 4.43 12.7643 5.05 12.6243 5.99C12.4843 7.11 12.4943 7.76 12.6543 7.94C12.8343 8.1 13.4543 8.08 14.5143 7.88C15.4543 7.72 16.0843 7.68 16.4043 7.76C16.7243 7.82 16.8843 8.04 16.8843 8.42C16.8843 8.68 16.8143 8.85 16.6743 8.93C16.5543 9.01 16.2543 9.08 15.7743 9.14C15.0343 9.22 14.2643 9.39 13.4643 9.65L12.2643 10.04L12.3843 11.69L12.5043 13.31H11.7243C11.2243 13.31 10.9243 13.19 10.8243 12.95C10.7443 12.75 10.7843 11.27 10.9443 8.51C11.1243 5.75 11.2743 4.24 11.3943 3.98ZM4.4043 5.03C4.8043 4.57 5.1643 4.25 5.4843 4.07C5.8243 3.89 6.0543 3.85 6.1743 3.95C6.3143 4.05 6.3243 4.28 6.2043 4.64C6.0843 5 5.8343 5.43 5.4543 5.93C4.8943 6.59 4.6143 7.03 4.6143 7.25C4.6143 7.33 4.7343 7.48 4.9743 7.7C5.2143 7.9 5.4843 8.1 5.7843 8.3C7.3843 9.38 8.1843 10.25 8.1843 10.91C8.1843 11.89 7.5543 11.81 6.2943 10.67C5.8143 10.19 5.2943 9.77 4.7343 9.41C4.1743 9.03 3.7943 8.84 3.5943 8.84C3.4743 8.84 3.2443 9.21 2.9043 9.95C2.5643 10.69 2.3643 11.26 2.3043 11.66C2.2443 12.04 2.1543 12.28 2.0343 12.38C1.9343 12.46 1.7343 12.5 1.4343 12.5C1.1343 12.5 0.934297 12.46 0.834297 12.38C0.734297 12.3 0.674297 12.13 0.654297 11.87C0.594297 11.37 0.974297 10.37 1.7943 8.87C2.6343 7.37 3.5043 6.09 4.4043 5.03ZM7.9743 14.72C8.6743 14.46 9.2443 14.36 9.6843 14.42C10.1243 14.46 10.6543 14.68 11.2743 15.08C12.6343 15.98 13.2243 17.28 13.0443 18.98C12.9843 19.74 12.8243 20.34 12.5643 20.78C12.3043 21.22 11.8643 21.64 11.2443 22.04C10.9043 22.26 10.6043 22.39 10.3443 22.43C10.1043 22.49 9.7243 22.49 9.2043 22.43C8.3643 22.33 7.7043 22.17 7.2243 21.95C6.7643 21.75 6.3143 21.4 5.8743 20.9C5.2143 20.14 4.8943 19.28 4.9143 18.32C4.9343 17.34 5.2943 16.52 5.9943 15.86C6.4343 15.4 7.0943 15.02 7.9743 14.72ZM10.9743 16.73C10.1543 15.91 9.1643 15.79 8.0043 16.37C7.4443 16.63 7.0543 16.92 6.8343 17.24C6.6143 17.56 6.5043 18 6.5043 18.56C6.5043 18.86 6.5843 19.17 6.7443 19.49C6.9243 19.79 7.1543 20.06 7.4343 20.3C7.7343 20.54 8.0343 20.7 8.3343 20.78C8.7743 20.9 9.2743 20.89 9.8343 20.75C10.4143 20.61 10.8243 20.41 11.0643 20.15C11.4443 19.77 11.6243 19.21 11.6043 18.47C11.5843 17.71 11.3743 17.13 10.9743 16.73ZM29.2389 7.13C29.3989 6.69 29.6589 6.47 30.0189 6.47C30.1589 6.47 30.2689 6.49 30.3489 6.53C30.4489 6.57 30.5289 6.65 30.5889 6.77C30.6489 6.87 30.6889 7 30.7089 7.16C30.7289 7.32 30.7289 7.56 30.7089 7.88C30.7089 8.2 30.6889 8.56 30.6489 8.96C30.6089 9.34 30.5589 9.83 30.4989 10.43L30.3789 11.24L31.6389 11.06C32.7589 10.92 33.4189 10.75 33.6189 10.55C33.8189 10.35 33.9189 9.79 33.9189 8.87C33.9189 7.37 34.1489 6.61 34.6089 6.59C34.7489 6.59 34.8989 6.63 35.0589 6.71C35.2989 6.83 35.4389 6.97 35.4789 7.13C35.5189 7.27 35.5089 7.55 35.4489 7.97C35.3489 8.79 35.2589 10.71 35.1789 13.73C35.1189 16.09 35.0489 17.49 34.9689 17.93C34.9089 18.37 34.7489 18.65 34.4889 18.77C34.1089 18.95 33.8589 18.98 33.7389 18.86C33.6189 18.72 33.5789 17.66 33.6189 15.68C33.6589 13.92 33.5889 12.92 33.4089 12.68C33.2489 12.42 32.6589 12.44 31.6389 12.74L30.3189 13.1L30.4089 15.47C30.4489 16.51 30.4489 17.19 30.4089 17.51C30.3689 17.81 30.2589 18.01 30.0789 18.11C29.7989 18.29 29.5289 18.29 29.2689 18.11C29.0689 18.01 28.9489 17.68 28.9089 17.12C28.8689 16.54 28.8689 15.11 28.9089 12.83C28.9689 9.45 29.0789 7.55 29.2389 7.13ZM23.8989 6.95C24.1989 6.81 24.6289 6.76 25.1889 6.8C25.5489 6.82 25.7789 6.87 25.8789 6.95C25.9789 7.03 26.0289 7.23 26.0289 7.55V8.24L23.5089 8.51C21.7689 8.73 20.7189 8.91 20.3589 9.05C20.0589 9.17 19.8789 9.29 19.8189 9.41C19.7789 9.51 19.7889 9.71 19.8489 10.01C19.9489 10.61 19.9989 11.35 19.9989 12.23C19.9989 13.21 20.1089 13.84 20.3289 14.12C20.5689 14.38 21.1289 14.52 22.0089 14.54C22.9889 14.54 23.8589 14.48 24.6189 14.36C25.1589 14.28 25.5089 14.26 25.6689 14.3C25.8489 14.34 25.9989 14.46 26.1189 14.66C26.3589 15.12 26.3489 15.44 26.0889 15.62C25.8489 15.8 25.2589 15.93 24.3189 16.01C20.9189 16.27 19.1389 16.22 18.9789 15.86C18.8989 15.64 18.7589 14.38 18.5589 12.08C18.4389 10.56 18.3789 9.58 18.3789 9.14C18.3789 8.7 18.4589 8.41 18.6189 8.27C18.7589 8.13 19.0589 7.98 19.5189 7.82C19.9789 7.64 20.4889 7.49 21.0489 7.37C21.6089 7.25 22.0789 7.18 22.4589 7.16C23.0989 7.16 23.5789 7.09 23.8989 6.95ZM41.3317 3.44C41.3717 3.44 41.4317 3.43 41.5117 3.41C42.9517 3.27 43.8017 3.22 44.0617 3.26C44.3217 3.28 44.5117 3.42 44.6317 3.68C44.6517 3.72 44.6617 3.75 44.6617 3.77C44.7417 3.99 44.7917 4.18 44.8117 4.34C44.8317 4.48 44.7317 4.59 44.5117 4.67C44.2917 4.75 44.0017 4.81 43.6417 4.85C43.3017 4.87 42.7817 4.89 42.0817 4.91C41.4017 4.93 40.8617 4.96 40.4617 5C40.0817 5.04 39.7417 5.1 39.4417 5.18C39.1617 5.26 38.9617 5.4 38.8417 5.6C38.7217 5.78 38.6317 5.99 38.5717 6.23C38.5317 6.47 38.5117 6.81 38.5117 7.25V8.66L39.3817 8.48C42.8817 7.8 44.6317 7.88 44.6317 8.72C44.6317 9.04 44.5017 9.26 44.2417 9.38C44.0017 9.48 43.5217 9.54 42.8017 9.56C42.0417 9.56 41.1517 9.7 40.1317 9.98C39.4517 10.16 39.0317 10.31 38.8717 10.43C38.7117 10.53 38.6517 10.71 38.6917 10.97C38.7317 11.45 38.8817 11.73 39.1417 11.81C39.4017 11.87 39.9817 11.8 40.8817 11.6C43.4417 11.04 44.8717 11 45.1717 11.48C45.3317 11.72 45.3117 11.97 45.1117 12.23C44.9317 12.49 44.6617 12.62 44.3017 12.62C43.9817 12.62 43.0417 12.77 41.4817 13.07C40.0417 13.37 39.0717 13.52 38.5717 13.52C38.0717 13.52 37.7817 13.39 37.7017 13.13C37.3617 12.07 37.1417 10.48 37.0417 8.36C36.9417 6.24 37.0217 5.03 37.2817 4.73C37.8817 4.05 39.2317 3.62 41.3317 3.44ZM47.6017 4.73C47.6817 4.51 47.8617 4.39 48.1417 4.37C48.4417 4.33 48.6517 4.41 48.7717 4.61C48.8717 4.77 48.9417 6.31 48.9817 9.23V13.58L48.4417 13.7C48.0817 13.78 47.8317 13.72 47.6917 13.52C47.5317 13.28 47.4317 11.88 47.3917 9.32C47.3717 6.76 47.4417 5.23 47.6017 4.73ZM46.2217 15.41C46.6417 15.27 46.8717 15.2 46.9117 15.2C46.9517 15.2 47.0317 15.23 47.1517 15.29C47.2917 15.33 47.4317 15.4 47.5717 15.5C47.7117 15.6 47.8417 15.7 47.9617 15.8C48.1017 15.88 48.1917 15.95 48.2317 16.01C48.3517 16.21 48.4117 17.09 48.4117 18.65C48.4117 20.03 48.3017 20.85 48.0817 21.11C47.8817 21.37 47.1817 21.56 45.9817 21.68C45.7017 21.7 45.2317 21.74 44.5717 21.8C43.9317 21.88 43.5217 21.93 43.3417 21.95C43.0617 21.99 42.8317 22.01 42.6517 22.01C42.4717 22.01 42.3017 21.99 42.1417 21.95C41.9817 21.93 41.8617 21.87 41.7817 21.77C41.7017 21.67 41.6217 21.55 41.5417 21.41C41.4817 21.29 41.4317 21.09 41.3917 20.81C41.3717 20.55 41.3517 20.28 41.3317 20C41.3317 19.7 41.3317 19.32 41.3317 18.86C41.3317 17.3 41.3917 16.43 41.5117 16.25C41.6317 16.07 42.0017 15.98 42.6217 15.98C43.7817 15.98 44.9817 15.79 46.2217 15.41ZM46.8517 17.21L45.9217 17.15C45.5817 17.15 45.2217 17.18 44.8417 17.24C44.4617 17.28 44.1017 17.36 43.7617 17.48C43.4417 17.6 43.2117 17.72 43.0717 17.84C42.8517 18.02 42.7417 18.49 42.7417 19.25V20.39L44.1217 20.24C44.3617 20.2 44.7117 20.15 45.1717 20.09C45.6317 20.05 45.9217 20.02 46.0417 20C46.1217 20 46.2117 19.99 46.3117 19.97C46.4317 19.95 46.5217 19.94 46.5817 19.94C46.6617 19.94 46.7117 19.94 46.7317 19.94C46.8117 19.9 46.8517 19.43 46.8517 18.53V17.21ZM53.4283 1.61C54.6483 1.03 55.8583 1.01 57.0583 1.55C58.2783 2.09 59.0883 3.01 59.4883 4.31C59.5883 4.69 59.6283 5.02 59.6083 5.3C59.5883 5.58 59.5083 5.96 59.3683 6.44C59.1483 7.1 58.7983 7.66 58.3183 8.12C57.8583 8.58 57.2383 8.99 56.4583 9.35C56.0183 9.53 55.6783 9.63 55.4383 9.65C55.1983 9.67 54.8683 9.62 54.4483 9.5C54.0883 9.42 53.7183 9.31 53.3383 9.17C52.9783 9.01 52.6583 8.85 52.3783 8.69C52.0983 8.53 51.8883 8.38 51.7483 8.24C51.5483 8.06 51.3483 7.81 51.1483 7.49C50.9483 7.17 50.7883 6.85 50.6683 6.53C50.5483 6.21 50.4883 5.95 50.4883 5.75C50.4883 4.95 50.7583 4.16 51.2983 3.38C51.8583 2.6 52.5683 2.01 53.4283 1.61ZM57.1483 3.26C56.7883 2.92 56.3183 2.75 55.7383 2.75C55.1583 2.73 54.6083 2.84 54.0883 3.08C53.5683 3.32 53.1083 3.67 52.7083 4.13C52.3283 4.57 52.1383 5.04 52.1383 5.54C52.1383 6 52.3483 6.47 52.7683 6.95C53.2083 7.43 53.7083 7.75 54.2683 7.91C54.8483 8.09 55.3683 8.1 55.8283 7.94C56.2883 7.76 56.8183 7.35 57.4183 6.71C57.8983 6.27 58.1583 5.96 58.1983 5.78C58.2583 5.6 58.2183 5.27 58.0783 4.79C57.8583 4.15 57.5483 3.64 57.1483 3.26ZM59.0983 10.73C59.8383 10.41 60.3783 10.5 60.7183 11C60.8783 11.24 60.9583 11.41 60.9583 11.51C60.9583 11.61 60.8683 11.76 60.6883 11.96C60.4483 12.24 59.8283 12.38 58.8283 12.38C57.7883 12.38 56.4783 12.55 54.8983 12.89C53.2783 13.23 52.1983 13.4 51.6583 13.4C51.2983 13.42 51.0683 13.4 50.9683 13.34C50.8883 13.26 50.8483 13.09 50.8483 12.83C50.8483 12.61 50.9283 12.41 51.0883 12.23C51.2483 12.05 51.4783 11.91 51.7783 11.81C52.0983 11.71 52.4483 11.66 52.8283 11.66C53.3683 11.66 54.0383 11.55 54.8383 11.33C55.5783 11.11 56.3983 10.98 57.2983 10.94C58.1983 10.94 58.7983 10.87 59.0983 10.73ZM56.2483 14.69C56.8083 14.47 57.4683 14.43 58.2283 14.57C59.0083 14.69 59.5083 14.93 59.7283 15.29C59.8483 15.47 59.8983 16 59.8783 16.88C59.8783 17.74 59.8183 18.33 59.6983 18.65C59.4383 19.29 58.2883 19.67 56.2483 19.79C55.0483 19.85 54.4083 19.88 54.3283 19.88C54.1283 19.9 54.0283 20.1 54.0283 20.48C54.0283 20.86 54.1883 21.08 54.5083 21.14C54.8483 21.22 55.4283 21.17 56.2483 20.99C58.5883 20.41 59.9183 20.39 60.2383 20.93C60.2983 21.13 60.3383 21.29 60.3583 21.41C60.3983 21.53 60.2583 21.65 59.9383 21.77C59.6183 21.89 59.2083 22 58.7083 22.1C58.2083 22.22 57.4583 22.37 56.4583 22.55C54.9983 22.79 53.9383 22.75 53.2783 22.43C52.6383 22.11 52.3183 21.46 52.3183 20.48C52.3183 19.8 52.5083 19.34 52.8883 19.1C53.2883 18.84 54.1283 18.65 55.4083 18.53C56.8883 18.35 57.7383 18.18 57.9583 18.02C58.1783 17.84 58.2883 17.48 58.2883 16.94C58.2883 16.56 58.2483 16.34 58.1683 16.28C58.0883 16.2 57.8283 16.16 57.3883 16.16C56.8483 16.16 55.9083 16.29 54.5683 16.55C53.1283 16.85 52.3483 16.85 52.2283 16.55C52.1883 16.41 52.2283 16.19 52.3483 15.89C52.4283 15.63 52.5783 15.45 52.7983 15.35C53.0183 15.23 53.4183 15.11 53.9983 14.99C54.9783 14.79 55.5183 14.72 55.6183 14.78C55.7383 14.86 55.9483 14.83 56.2483 14.69ZM75.1848 2.03C75.4448 1.87 75.7148 1.87 75.9948 2.03C76.1748 2.13 76.2848 2.3 76.3248 2.54C76.3648 2.76 76.3448 3.28 76.2648 4.1L76.1148 5.96L77.5548 5.75C78.5748 5.57 79.1848 5.53 79.3848 5.63C79.6048 5.71 79.7148 5.91 79.7148 6.23C79.7148 6.53 79.6148 6.77 79.4148 6.95C79.1148 7.19 78.7348 7.69 78.2748 8.45C77.8148 9.19 77.5848 9.68 77.5848 9.92C77.5848 10.1 77.7048 10.35 77.9448 10.67C78.1848 10.97 78.4848 11.27 78.8448 11.57C79.2248 11.85 79.5748 12.06 79.8948 12.2C80.2148 12.34 80.3748 12.58 80.3748 12.92C80.3948 13.24 80.2448 13.43 79.9248 13.49C79.7248 13.53 79.4648 13.5 79.1448 13.4C78.8248 13.28 78.4848 13.11 78.1248 12.89C77.7848 12.65 77.4548 12.38 77.1348 12.08L76.3548 11.33L75.0948 12.74C74.5148 13.36 74.1248 13.73 73.9248 13.85C73.7248 13.95 73.4948 13.94 73.2348 13.82C72.8348 13.66 72.6448 13.46 72.6648 13.22C72.6848 12.98 72.9148 12.65 73.3548 12.23C73.8348 11.81 74.5248 11.04 75.4248 9.92C76.3448 8.8 76.9048 8.05 77.1048 7.67C77.2648 7.37 77.3148 7.22 77.2548 7.22L76.9848 7.28C76.7848 7.36 76.0648 7.53 74.8248 7.79C73.6048 8.03 72.8348 8.16 72.5148 8.18C72.1148 8.2 71.8348 8.17 71.6748 8.09C71.5348 7.99 71.4648 7.81 71.4648 7.55C71.4648 7.21 71.6248 6.95 71.9448 6.77C72.2848 6.57 72.7548 6.47 73.3548 6.47C74.0348 6.47 74.4348 6.37 74.5548 6.17C74.6948 5.95 74.7648 5.3 74.7648 4.22C74.7648 3.66 74.7748 3.24 74.7948 2.96C74.8348 2.68 74.8748 2.47 74.9148 2.33C74.9748 2.19 75.0648 2.09 75.1848 2.03ZM82.8048 5.48C82.9448 5.22 83.1148 5.09 83.3148 5.09C83.5348 5.07 83.7548 5.17 83.9748 5.39C84.1148 5.57 84.1748 5.82 84.1548 6.14C84.1348 6.46 84.0148 7.11 83.7948 8.09L83.6448 8.87L84.5748 8.81C85.1948 8.75 85.6348 8.65 85.8948 8.51C86.0748 8.41 86.2448 8.39 86.4048 8.45C86.5848 8.49 86.7348 8.61 86.8548 8.81C86.9748 8.99 87.0348 9.2 87.0348 9.44C87.0348 9.8 86.9748 9.99 86.8548 10.01C85.9148 10.09 85.0648 10.24 84.3048 10.46L83.3148 10.73L83.4348 12.62C83.4748 13.42 83.4748 13.94 83.4348 14.18C83.4148 14.42 83.3148 14.57 83.1348 14.63C82.7548 14.77 82.4548 14.72 82.2348 14.48C82.0348 14.22 81.9248 13.78 81.9048 13.16C81.8648 12.44 81.9648 11.06 82.2048 9.02C82.4448 6.98 82.6448 5.8 82.8048 5.48ZM78.7248 16.01C80.1848 15.83 81.2248 15.75 81.8448 15.77C82.2848 15.79 82.5748 15.83 82.7148 15.89C82.8548 15.95 82.9348 16.09 82.9548 16.31C83.0148 16.65 82.9148 17.07 82.6548 17.57C82.4148 18.05 82.3448 18.48 82.4448 18.86C82.5648 19.22 82.9048 19.71 83.4648 20.33C84.6248 21.65 85.0548 22.46 84.7548 22.76C84.4948 23.02 84.1448 23.02 83.7048 22.76C83.2848 22.52 82.8248 22.05 82.3248 21.35C81.6648 20.39 81.2648 19.91 81.1248 19.91C80.9648 19.91 80.4548 20.43 79.5948 21.47C78.6748 22.47 78.0248 22.97 77.6448 22.97C76.6248 22.97 77.0348 21.96 78.8748 19.94C78.9748 19.86 79.0648 19.78 79.1448 19.7C80.7448 17.98 81.3648 17.12 81.0048 17.12C80.9448 17.14 80.8548 17.17 80.7348 17.21C80.4748 17.31 79.8248 17.43 78.7848 17.57C77.8248 17.71 77.2748 17.82 77.1348 17.9C76.9948 17.98 76.7548 17.93 76.4148 17.75C76.0948 17.57 75.9348 17.41 75.9348 17.27C75.9348 16.95 76.1448 16.7 76.5648 16.52C76.9848 16.32 77.7048 16.15 78.7248 16.01ZM94.8449 4.1C95.4449 4 96.1949 3.95 97.0949 3.95L98.3849 3.98L98.3249 7.49C98.3049 9.81 98.2449 11.05 98.1449 11.21C98.0049 11.41 97.7849 11.48 97.4849 11.42C97.1849 11.36 96.9649 11.19 96.8249 10.91C96.6449 10.55 96.6049 9.54 96.7049 7.88L96.8549 5.39L94.5449 5.72C93.1449 5.9 92.1049 6.08 91.4249 6.26C90.7249 6.44 90.2349 6.51 89.9549 6.47C89.6749 6.43 89.5349 6.26 89.5349 5.96C89.5349 5.52 89.7549 5.21 90.1949 5.03C90.6349 4.83 91.5149 4.64 92.8349 4.46C93.4749 4.38 94.1449 4.26 94.8449 4.1ZM92.8349 12.83C93.2749 12.55 93.5549 12.59 93.6749 12.95C93.7749 13.27 93.8449 14.06 93.8849 15.32C93.9049 16.82 93.9949 17.64 94.1549 17.78C94.2749 17.9 95.2149 17.91 96.9749 17.81C98.0549 17.75 98.7749 17.73 99.1349 17.75C99.4949 17.77 99.7349 17.86 99.8549 18.02C100.255 18.52 100.165 18.95 99.5849 19.31C99.3449 19.47 99.1449 19.56 98.9849 19.58C98.8449 19.58 98.6749 19.53 98.4749 19.43C98.1149 19.25 97.5449 19.21 96.7649 19.31C95.8649 19.39 94.9449 19.47 94.0049 19.55C93.1449 19.63 92.1149 19.76 90.9149 19.94C89.8549 20.12 89.1949 20.11 88.9349 19.91C88.3349 19.39 88.4249 18.96 89.2049 18.62C89.6449 18.44 90.2149 18.32 90.9149 18.26L92.4149 18.14L92.4749 15.59C92.4749 15.07 92.4749 14.66 92.4749 14.36C92.4949 14.04 92.5149 13.77 92.5349 13.55C92.5749 13.33 92.6149 13.17 92.6549 13.07C92.7149 12.97 92.7749 12.89 92.8349 12.83ZM114.835 3.53C115.035 3.45 115.235 3.43 115.435 3.47C115.635 3.51 116.055 3.65 116.695 3.89C117.195 4.07 117.615 4.3 117.955 4.58C118.315 4.84 118.615 5.17 118.855 5.57C119.095 5.97 119.315 6.47 119.515 7.07C119.715 7.71 119.785 8.29 119.725 8.81C119.685 9.33 119.495 9.92 119.155 10.58C118.775 11.32 118.205 11.88 117.445 12.26C116.705 12.64 115.835 12.83 114.835 12.83C114.415 12.83 114.045 12.79 113.725 12.71C113.405 12.63 113.095 12.49 112.795 12.29C112.495 12.09 112.215 11.84 111.955 11.54C111.715 11.22 111.475 10.82 111.235 10.34C110.835 9.6 110.625 8.96 110.605 8.42C110.585 7.86 110.745 7.18 111.085 6.38C111.265 5.88 111.675 5.34 112.315 4.76C112.975 4.18 113.515 3.84 113.935 3.74C114.395 3.66 114.695 3.59 114.835 3.53ZM117.235 5.87C116.555 5.23 115.825 4.98 115.045 5.12C114.265 5.24 113.545 5.73 112.885 6.59C112.505 7.05 112.315 7.64 112.315 8.36C112.335 9.06 112.535 9.69 112.915 10.25C113.455 11.05 114.145 11.46 114.985 11.48C115.825 11.48 116.615 11.09 117.355 10.31C117.535 10.11 117.675 9.95 117.775 9.83C117.875 9.71 117.955 9.57 118.015 9.41C118.075 9.23 118.105 9.05 118.105 8.87C118.125 8.69 118.135 8.43 118.135 8.09C118.135 7.41 118.085 6.97 117.985 6.77C117.905 6.55 117.655 6.25 117.235 5.87ZM122.995 3.98C123.395 3.52 123.745 3.52 124.045 3.98C124.305 4.4 124.375 4.99 124.255 5.75C124.175 6.27 124.115 7.73 124.075 10.13C124.055 11.85 124.015 12.87 123.955 13.19C123.915 13.51 123.765 13.69 123.505 13.73C123.265 13.77 123.075 13.74 122.935 13.64C122.795 13.52 122.685 13.28 122.605 12.92C122.525 12.54 122.485 12 122.485 11.3C122.505 10.6 122.525 9.68 122.545 8.54C122.625 5.72 122.775 4.2 122.995 3.98ZM116.395 15.95C116.755 15.53 117.045 15.29 117.265 15.23C117.505 15.17 117.795 15.26 118.135 15.5C118.335 15.66 118.425 15.79 118.405 15.89C118.385 15.97 118.225 16.15 117.925 16.43C117.645 16.67 117.475 16.86 117.415 17C117.375 17.14 117.395 17.3 117.475 17.48C117.535 17.58 117.685 17.71 117.925 17.87C118.165 18.01 118.415 18.14 118.675 18.26C118.955 18.38 119.235 18.49 119.515 18.59C119.815 18.69 120.055 18.75 120.235 18.77C120.415 18.79 120.525 18.77 120.565 18.71C120.625 18.51 120.895 17.97 121.375 17.09C121.855 16.21 122.165 15.67 122.305 15.47C122.485 15.29 122.715 15.2 122.995 15.2C123.235 15.2 123.375 15.28 123.415 15.44C123.475 15.58 123.485 15.92 123.445 16.46C123.445 16.72 123.535 16.99 123.715 17.27C123.895 17.55 124.265 17.97 124.825 18.53C126.025 19.73 126.535 20.48 126.355 20.78C126.295 20.86 126.185 20.93 126.025 20.99C125.825 21.05 125.565 21.01 125.245 20.87C124.945 20.75 124.635 20.55 124.315 20.27C123.995 19.99 123.705 19.67 123.445 19.31C123.045 18.77 122.745 18.5 122.545 18.5C122.345 18.5 122.245 18.51 122.245 18.53C122.245 18.55 122.095 19.01 121.795 19.91C121.615 20.47 121.465 20.83 121.345 20.99C121.225 21.17 121.045 21.27 120.805 21.29C120.565 21.31 120.395 21.29 120.295 21.23C120.195 21.17 120.115 21.02 120.055 20.78C119.975 20.36 119.835 20.15 119.635 20.15C119.435 20.15 118.845 19.9 117.865 19.4C117.025 19 116.495 18.83 116.275 18.89C116.075 18.93 115.905 19.27 115.765 19.91C115.605 20.55 115.445 20.98 115.285 21.2C115.145 21.44 114.925 21.56 114.625 21.56C113.965 21.56 113.755 21.14 113.995 20.3C114.115 19.9 114.355 19.34 114.715 18.62C115.395 17.3 115.955 16.41 116.395 15.95ZM131.791 6.8C132.091 6.7 132.351 6.67 132.571 6.71C132.811 6.75 133.181 6.88 133.681 7.1C134.441 7.46 135.031 7.84 135.451 8.24C135.891 8.64 136.191 9.13 136.351 9.71C136.531 10.29 136.621 11.06 136.621 12.02C136.621 13.26 136.251 14.3 135.511 15.14C134.771 15.96 133.851 16.38 132.751 16.4C132.031 16.4 131.231 16.18 130.351 15.74C129.491 15.28 128.881 14.76 128.521 14.18C128.121 13.56 127.911 12.88 127.891 12.14C127.871 11.38 128.011 10.65 128.311 9.95C128.611 9.25 129.071 8.62 129.691 8.06C130.311 7.48 131.011 7.06 131.791 6.8ZM134.221 9.05C133.761 8.69 133.301 8.47 132.841 8.39C132.381 8.29 131.991 8.34 131.671 8.54C130.711 9.14 130.041 9.85 129.661 10.67C129.301 11.49 129.311 12.23 129.691 12.89C130.111 13.57 130.721 14.1 131.521 14.48C132.321 14.86 132.971 14.92 133.471 14.66C133.811 14.46 134.111 14.24 134.371 14C134.651 13.76 134.861 13.5 135.001 13.22C135.141 12.94 135.211 12.67 135.211 12.41C135.211 11.61 135.111 10.9 134.911 10.28C134.731 9.66 134.501 9.25 134.221 9.05ZM140.971 8.27C141.071 7.87 141.311 7.67 141.691 7.67C142.091 7.67 142.341 7.77 142.441 7.97C142.581 8.23 142.591 9.44 142.471 11.6C142.371 13.7 142.301 15.48 142.261 16.94C142.241 17.84 142.201 18.42 142.141 18.68C142.081 18.94 141.961 19.12 141.781 19.22C141.461 19.4 141.181 19.44 140.941 19.34C140.781 19.28 140.691 19.06 140.671 18.68C140.651 18.28 140.671 17.4 140.731 16.04C140.811 14.48 140.841 13.56 140.821 13.28C140.801 12.98 140.671 12.83 140.431 12.83C140.131 12.83 139.751 12.92 139.291 13.1C138.831 13.28 138.351 13.32 137.851 13.22C137.351 13.1 137.101 12.9 137.101 12.62C137.101 12.42 137.191 12.24 137.371 12.08C137.551 11.9 137.811 11.75 138.151 11.63C138.511 11.51 138.931 11.42 139.411 11.36C140.211 11.28 140.701 11.19 140.881 11.09C141.041 10.99 141.061 10.59 140.941 9.89C140.861 9.17 140.871 8.63 140.971 8.27ZM146.973 3.35C147.693 3.09 148.383 3.01 149.043 3.11C149.723 3.19 150.353 3.46 150.933 3.92C151.533 4.38 152.023 5 152.403 5.78C152.783 6.52 152.963 7.21 152.943 7.85C152.943 8.49 152.743 9.2 152.343 9.98C152.023 10.62 151.643 11.1 151.203 11.42C150.763 11.72 150.203 11.92 149.523 12.02C148.383 12.18 147.303 11.96 146.283 11.36C145.263 10.76 144.613 9.99 144.333 9.05C143.933 7.77 143.973 6.63 144.453 5.63C144.933 4.63 145.773 3.87 146.973 3.35ZM149.403 4.58C149.203 4.58 148.983 4.54 148.743 4.46C148.383 4.34 147.813 4.56 147.033 5.12C146.253 5.68 145.783 6.22 145.623 6.74C145.563 6.94 145.553 7.18 145.593 7.46C145.633 7.72 145.703 7.99 145.803 8.27C145.903 8.53 146.033 8.79 146.193 9.05C146.373 9.31 146.563 9.53 146.763 9.71C147.523 10.39 148.293 10.7 149.073 10.64C149.853 10.58 150.473 10.17 150.933 9.41C151.673 8.21 151.553 6.96 150.573 5.66C149.993 4.94 149.603 4.58 149.403 4.58ZM150.663 13.91C150.823 13.53 151.023 13.34 151.263 13.34C151.523 13.32 151.743 13.51 151.923 13.91C152.083 14.29 152.063 14.95 151.863 15.89C151.663 16.79 151.623 17.34 151.743 17.54C151.843 17.72 152.443 17.81 153.543 17.81C154.303 17.81 154.773 17.84 154.953 17.9C155.153 17.94 155.303 18.08 155.403 18.32C155.543 18.74 155.493 19.03 155.253 19.19C155.033 19.35 154.533 19.42 153.753 19.4C153.133 19.38 152.363 19.42 151.443 19.52C150.543 19.6 149.903 19.69 149.523 19.79C149.343 19.85 148.883 19.94 148.143 20.06C147.423 20.2 146.713 20.33 146.013 20.45C145.313 20.57 144.893 20.63 144.753 20.63C144.513 20.63 144.333 20.47 144.213 20.15C144.093 19.83 144.123 19.56 144.302 19.34C144.463 19.14 144.853 18.99 145.473 18.89L146.343 18.77V16.85C146.363 15.79 146.443 15.12 146.583 14.84C146.723 14.54 147.023 14.45 147.483 14.57C147.763 14.65 147.923 14.78 147.963 14.96C148.023 15.12 148.043 15.62 148.023 16.46L147.963 18.14L149.133 18.23C149.873 18.27 150.243 18.23 150.243 18.11C150.243 17.57 150.263 17 150.303 16.4C150.363 15.8 150.423 15.28 150.483 14.84C150.563 14.4 150.623 14.09 150.663 13.91ZM159.203 4.94C159.303 4.84 159.453 4.8 159.653 4.82C159.853 4.84 160.023 4.92 160.163 5.06C160.263 5.16 160.323 5.29 160.343 5.45C160.363 5.59 160.363 5.93 160.343 6.47C160.303 7.23 160.213 8.07 160.073 8.99C159.933 9.91 159.803 10.48 159.683 10.7C159.583 10.9 159.543 11.22 159.563 11.66C159.603 12.08 159.693 12.49 159.833 12.89C159.973 13.31 160.023 13.64 159.983 13.88C159.943 14.12 159.803 14.36 159.563 14.6C159.343 14.82 159.123 14.94 158.903 14.96C158.703 14.96 158.543 14.87 158.423 14.69C158.303 14.51 158.233 13.75 158.213 12.41C158.193 11.05 158.243 10.23 158.363 9.95C158.443 9.75 158.523 9.38 158.603 8.84C158.723 8.08 158.803 7.57 158.843 7.31C158.923 6.71 158.983 6.22 159.023 5.84C159.063 5.36 159.123 5.06 159.203 4.94ZM157.613 18.98C157.853 18.84 158.143 18.86 158.483 19.04C158.863 19.24 159.053 19.59 159.053 20.09C159.053 20.57 158.863 20.9 158.483 21.08C158.123 21.28 157.743 21.25 157.343 20.99C157.083 20.85 156.953 20.64 156.953 20.36C156.953 20.16 157.023 19.9 157.163 19.58C157.323 19.26 157.473 19.06 157.613 18.98ZM0.698242 41.62C0.698242 41.2 0.978242 40.88 1.53824 40.66C2.09824 40.42 3.26824 40.16 5.04824 39.88C6.82824 39.58 7.96824 39.42 8.46824 39.4C8.96824 39.38 9.25824 39.47 9.33824 39.67C9.39824 39.83 9.29824 40.22 9.03824 40.84C8.79824 41.46 8.46824 42.09 8.04824 42.73C7.84824 43.05 7.75824 43.27 7.77824 43.39C7.81824 43.51 8.05824 43.75 8.49824 44.11C9.03824 44.57 9.58824 44.95 10.1482 45.25C10.6882 45.55 11.0982 45.85 11.3782 46.15C11.5782 46.37 11.6782 46.53 11.6782 46.63C11.6782 46.71 11.5882 46.83 11.4082 46.99C11.1682 47.25 10.9282 47.38 10.6882 47.38C10.5482 47.38 10.1982 47.2 9.63824 46.84C9.07824 46.48 8.69824 46.19 8.49824 45.97C8.35824 45.81 8.03824 45.57 7.53824 45.25C7.03824 44.93 6.73824 44.77 6.63824 44.77C6.45824 44.77 5.88824 45.36 4.92824 46.54C4.20824 47.4 3.67824 47.93 3.33824 48.13C3.01824 48.31 2.65824 48.32 2.25824 48.16C2.13824 48.12 2.04824 48.07 1.98824 48.01C1.92824 47.95 1.89824 47.88 1.89824 47.8C1.89824 47.72 1.92824 47.62 1.98824 47.5C2.04824 47.38 2.13824 47.24 2.25824 47.08C2.39824 46.92 2.55824 46.74 2.73824 46.54C2.91824 46.32 3.15824 46.07 3.45824 45.79C4.57824 44.59 5.29824 43.78 5.61824 43.36C6.01824 42.84 6.35824 42.44 6.63824 42.16C6.95824 41.88 7.09824 41.56 7.05824 41.2C7.01824 41.1 6.95824 41.04 6.87824 41.02C5.81824 41.24 5.01824 41.4 4.47824 41.5C2.25824 41.98 1.04824 42.18 0.848242 42.1C0.748242 42.06 0.698242 41.9 0.698242 41.62ZM6.63824 48.52C6.95824 48.32 7.18824 48.34 7.32824 48.58C7.46824 48.8 7.53824 49.25 7.53824 49.93C7.51824 50.43 7.50824 51.1 7.50824 51.94L7.53824 52.63L9.63824 52.51C10.7182 52.45 11.4182 52.47 11.7382 52.57C12.0782 52.67 12.2482 52.92 12.2482 53.32C12.2482 53.64 12.0482 53.86 11.6482 53.98C11.2482 54.1 10.5182 54.17 9.45824 54.19C8.23824 54.19 6.93824 54.28 5.55824 54.46C4.23824 54.64 3.42824 54.73 3.12824 54.73C2.84824 54.73 2.63824 54.62 2.49824 54.4C2.29824 54.06 2.36824 53.75 2.70824 53.47C3.04824 53.17 3.51824 53.02 4.11824 53.02C4.95824 53.02 5.48824 52.96 5.70824 52.84C5.94824 52.7 6.02824 52.41 5.94824 51.97C5.88824 51.51 5.93824 50.85 6.09824 49.99C6.27824 49.13 6.45824 48.64 6.63824 48.52ZM19.0454 36.79C19.8254 36.67 20.5054 36.61 21.0854 36.61L21.8054 36.64V39.79C21.8054 41.35 21.7854 42.28 21.7454 42.58C21.7054 42.88 21.5354 43.09 21.2354 43.21C20.6754 43.47 20.3354 43.27 20.2154 42.61C20.1354 42.19 20.1254 41.45 20.1854 40.39L20.3354 38.14L19.4054 38.29C17.9054 38.57 17.0254 38.74 16.7654 38.8C16.0454 38.96 15.5554 39.04 15.2954 39.04C15.0554 39.04 14.9054 38.98 14.8454 38.86C14.5054 38.32 14.9754 37.83 16.2554 37.39C16.9954 37.15 17.9254 36.95 19.0454 36.79ZM19.4354 45.25C20.2754 45.07 21.2054 45 22.2254 45.04C23.2654 45.06 23.9154 45.16 24.1754 45.34C24.3554 45.48 24.4554 45.61 24.4754 45.73C24.5154 45.83 24.4754 45.96 24.3554 46.12C24.2954 46.24 24.1754 46.34 23.9954 46.42C23.8354 46.48 23.5854 46.53 23.2454 46.57C22.9254 46.61 22.4454 46.65 21.8054 46.69C20.1054 46.81 18.8454 46.96 18.0254 47.14C17.8254 47.2 17.5854 47.26 17.3054 47.32C17.0454 47.36 16.8354 47.4 16.6754 47.44C16.5154 47.48 16.4154 47.5 16.3754 47.5C15.9154 47.6 15.4954 47.68 15.1154 47.74C14.7554 47.78 14.4654 47.8 14.2454 47.8C14.0254 47.78 13.9154 47.73 13.9154 47.65C13.9154 47.51 13.8654 47.32 13.7654 47.08C13.6654 46.8 13.8354 46.54 14.2754 46.3C14.7354 46.06 15.3254 45.91 16.0454 45.85C16.8854 45.79 17.5054 45.69 17.9054 45.55C17.9854 45.55 18.1254 45.53 18.3254 45.49C18.5254 45.43 18.7254 45.38 18.9254 45.34C19.1254 45.3 19.2954 45.27 19.4354 45.25ZM22.1654 49.54C22.2654 49.44 22.5854 49.46 23.1254 49.6C23.6654 49.72 23.9854 49.85 24.0854 49.99C24.2054 50.21 24.2654 51.22 24.2654 53.02C24.2654 54.48 24.1754 55.43 23.9954 55.87C23.8354 56.33 23.4654 56.56 22.8854 56.56C22.4254 56.56 21.3654 56.73 19.7054 57.07C19.6854 57.07 19.6654 57.07 19.6454 57.07C17.9654 57.39 16.9754 57.42 16.6754 57.16C16.3954 56.92 16.2554 55.87 16.2554 54.01C16.2554 53.27 16.2654 52.7 16.2854 52.3C16.3054 51.9 16.3354 51.6 16.3754 51.4C16.4354 51.18 16.5154 51.01 16.6154 50.89C16.8754 50.61 17.1154 50.5 17.3354 50.56C17.5354 50.66 18.0454 50.57 18.8654 50.29C19.5254 50.11 20.2654 49.94 21.0854 49.78C21.7454 49.7 22.1054 49.62 22.1654 49.54ZM22.5854 53.29C22.6454 52.15 22.6054 51.52 22.4654 51.4C22.3654 51.3 21.9654 51.31 21.2654 51.43C20.5854 51.53 19.8254 51.7 18.9854 51.94L17.7854 52.24L17.7254 53.92L17.6354 55.66L19.0154 55.48C20.1354 55.38 20.9454 55.28 21.4454 55.18L22.5254 55.03L22.5854 53.29ZM38.9707 39.22C39.1107 39.02 39.3307 38.97 39.6307 39.07C39.9507 39.15 40.1507 39.31 40.2307 39.55C40.3107 39.79 40.2807 40.24 40.1407 40.9C39.9807 41.58 39.9007 42.3 39.9007 43.06C39.9007 43.66 39.9307 44.01 39.9907 44.11C40.0507 44.21 40.2407 44.24 40.5607 44.2C40.9807 44.14 41.3207 44.06 41.5807 43.96C41.8807 43.86 42.1607 43.85 42.4207 43.93C42.7007 43.99 42.9107 44.14 43.0507 44.38C43.1907 44.6 43.2107 44.84 43.1107 45.1C43.0107 45.34 42.6807 45.46 42.1207 45.46C41.5807 45.46 41.0007 45.63 40.3807 45.97L39.4207 46.45L39.3607 48.37C39.3407 48.85 39.3207 49.21 39.3007 49.45C39.2807 49.67 39.2407 49.87 39.1807 50.05C39.1407 50.21 39.0807 50.32 39.0007 50.38C38.9407 50.44 38.8407 50.51 38.7007 50.59C38.2007 50.85 37.9007 50.79 37.8007 50.41C37.6807 49.99 37.7707 48.47 38.0707 45.85C38.3307 43.55 38.5007 41.94 38.5807 41.02C38.7007 39.98 38.8307 39.38 38.9707 39.22ZM28.9207 39.85C29.8407 39.55 30.9007 39.39 32.1007 39.37C33.3207 39.33 33.9807 39.45 34.0807 39.73C34.1807 40.01 34.2307 41.25 34.2307 43.45C34.2307 44.79 34.1907 45.75 34.1107 46.33C34.0307 46.91 33.8907 47.31 33.6907 47.53C33.5107 47.73 33.1907 47.83 32.7307 47.83C31.9707 47.83 30.9307 47.87 29.6107 47.95C28.0307 48.05 27.1107 48 26.8507 47.8C26.6107 47.6 26.4007 46.87 26.2207 45.61C26.0407 44.33 25.9807 43.11 26.0407 41.95C26.0607 41.21 26.1007 40.77 26.1607 40.63C26.2407 40.49 26.4507 40.4 26.7907 40.36C27.2507 40.32 27.9607 40.15 28.9207 39.85ZM32.6707 42.01C32.7707 41.53 32.7907 41.25 32.7307 41.17C32.6907 41.07 32.5107 41.03 32.1907 41.05C31.4507 41.07 30.3307 41.26 28.8307 41.62L27.3607 42.01L27.5407 44.05C27.6407 45.43 27.7807 46.17 27.9607 46.27C28.1407 46.41 28.7807 46.42 29.8807 46.3C30.4807 46.26 31.1807 46.2 31.9807 46.12C32.1807 46.1 32.3007 46 32.3407 45.82C32.4007 45.62 32.4407 45.19 32.4607 44.53C32.4807 43.51 32.5507 42.67 32.6707 42.01ZM31.4107 51.52C31.7307 51.12 32.1107 51.07 32.5507 51.37C32.7707 51.51 32.8207 51.88 32.7007 52.48C32.3807 54.04 32.3707 54.87 32.6707 54.97C32.8307 55.05 33.4607 54.99 34.5607 54.79C35.7807 54.57 36.8507 54.44 37.7707 54.4L39.2707 54.31V55.03C39.2707 55.37 39.2007 55.58 39.0607 55.66C38.9407 55.74 38.5107 55.83 37.7707 55.93C36.7307 56.03 35.9107 56.17 35.3107 56.35C34.7107 56.51 33.9107 56.61 32.9107 56.65C31.9307 56.69 31.3707 56.64 31.2307 56.5C31.0907 56.34 31.0407 55.52 31.0807 54.04C31.1407 52.54 31.2507 51.7 31.4107 51.52ZM68.757 41.29C68.897 41.07 69.117 40.99 69.417 41.05C69.737 41.09 69.947 41.25 70.047 41.53C70.167 41.89 70.167 43.09 70.047 45.13C69.927 47.37 69.867 49.39 69.867 51.19C69.847 53.15 69.747 54.22 69.567 54.4C69.367 54.58 69.137 54.67 68.877 54.67C68.617 54.65 68.457 54.55 68.397 54.37C68.317 54.13 68.337 51.93 68.457 47.77C68.577 43.61 68.677 41.45 68.757 41.29ZM59.127 42.55C59.667 42.45 60.077 42.38 60.357 42.34C60.657 42.3 60.947 42.27 61.227 42.25C61.507 42.23 61.707 42.23 61.827 42.25C61.967 42.25 62.087 42.28 62.187 42.34C62.307 42.38 62.387 42.44 62.427 42.52C62.467 42.58 62.517 42.68 62.577 42.82C62.877 43.6 62.567 45.88 61.647 49.66C61.387 50.76 61.187 51.49 61.047 51.85C60.907 52.19 60.737 52.38 60.537 52.42C60.077 52.54 59.797 52.45 59.697 52.15C59.597 51.85 59.667 51.3 59.907 50.5C60.147 49.74 60.417 48.48 60.717 46.72C61.037 44.96 61.157 44.04 61.077 43.96C60.997 43.88 60.567 43.91 59.787 44.05C57.527 44.53 56.097 44.81 55.497 44.89C54.917 44.95 54.467 44.92 54.147 44.8C53.267 44.4 53.607 43.94 55.167 43.42C56.127 43.1 57.447 42.81 59.127 42.55ZM84.286 41.23C84.346 41.11 84.476 41.04 84.676 41.02C84.896 41 85.136 41.05 85.396 41.17C85.556 41.23 85.656 41.44 85.696 41.8C85.756 42.16 85.786 42.91 85.786 44.05C85.786 45.91 85.826 46.87 85.906 46.93C85.946 46.99 86.666 46.97 88.066 46.87C89.346 46.73 90.186 46.7 90.586 46.78C91.006 46.86 91.216 47.09 91.216 47.47C91.216 47.55 91.206 47.62 91.186 47.68C91.186 47.74 91.156 47.8 91.096 47.86C91.056 47.92 91.006 47.97 90.946 48.01C90.906 48.05 90.826 48.09 90.706 48.13C90.586 48.17 90.456 48.2 90.316 48.22C90.176 48.24 89.986 48.27 89.746 48.31C89.526 48.33 89.286 48.35 89.026 48.37C88.786 48.39 88.466 48.42 88.066 48.46C86.686 48.56 85.936 48.7 85.816 48.88C85.736 49.02 85.676 49.88 85.636 51.46C85.616 53 85.576 53.79 85.516 53.83C85.496 53.87 85.306 53.95 84.946 54.07C84.526 54.19 84.266 54.07 84.166 53.71C84.046 53.27 84.046 51.82 84.166 49.36C84.326 46.58 84.366 44.56 84.286 43.3C84.166 42.06 84.166 41.37 84.286 41.23ZM75.766 42.07C77.106 41.85 78.056 41.75 78.616 41.77C79.176 41.77 79.496 41.88 79.576 42.1C79.716 42.46 79.656 42.74 79.396 42.94C79.156 43.14 78.716 43.25 78.076 43.27C76.256 43.29 74.856 43.52 73.876 43.96L73.126 44.23L73.216 46.45C73.256 47.05 73.276 47.49 73.276 47.77C73.296 48.05 73.336 48.34 73.396 48.64C73.456 48.94 73.516 49.14 73.576 49.24C73.636 49.32 73.746 49.42 73.906 49.54C74.086 49.64 74.246 49.7 74.386 49.72C74.546 49.74 74.786 49.76 75.106 49.78C76.006 49.86 76.926 49.85 77.866 49.75C79.366 49.53 80.116 49.74 80.116 50.38C80.116 50.62 80.076 50.8 79.996 50.92C79.936 51.04 79.746 51.14 79.426 51.22C79.126 51.3 78.726 51.35 78.226 51.37C77.746 51.39 77.026 51.4 76.066 51.4C75.886 51.4 75.636 51.4 75.316 51.4C74.836 51.4 74.496 51.4 74.296 51.4C74.096 51.4 73.836 51.38 73.516 51.34C73.216 51.3 73.026 51.28 72.946 51.28C72.866 51.26 72.746 51.19 72.586 51.07C72.426 50.93 72.326 50.82 72.286 50.74C72.266 50.64 72.216 50.46 72.136 50.2C72.076 49.94 72.036 49.72 72.016 49.54C72.016 49.34 71.986 49.03 71.926 48.61C71.906 48.31 71.886 48.07 71.866 47.89C71.686 46.07 71.606 44.83 71.626 44.17C71.646 43.51 71.776 43.12 72.016 43C72.876 42.66 74.126 42.35 75.766 42.07ZM97.3997 40.57C98.5597 40.47 99.2997 40.45 99.6197 40.51C99.9397 40.55 100.14 40.74 100.22 41.08C100.32 41.48 100.37 42.44 100.37 43.96C100.39 45.46 100.35 46.29 100.25 46.45C100.17 46.59 99.9297 46.75 99.5297 46.93C99.1297 47.09 98.3897 47.36 97.3097 47.74L95.7797 48.25L95.6897 49.24C95.6297 50.12 95.6697 50.7 95.8097 50.98C95.9497 51.26 96.2797 51.4 96.7997 51.4C97.4797 51.4 98.1997 51.3 98.9597 51.1C99.5197 50.98 99.8797 50.93 100.04 50.95C100.22 50.97 100.38 51.08 100.52 51.28C100.74 51.58 100.83 51.84 100.79 52.06C100.71 52.48 99.2597 52.84 96.4397 53.14C95.7597 53.22 95.3297 53.25 95.1497 53.23C94.9897 53.19 94.8497 53.04 94.7297 52.78C94.5297 52.44 94.3897 51.56 94.3097 50.14C94.2497 49.12 94.2397 48.49 94.2797 48.25C94.3397 47.99 94.5297 47.7 94.8497 47.38C95.2697 46.92 95.9397 46.56 96.8597 46.3C97.8397 46 98.4297 45.7 98.6297 45.4C98.8497 45.08 98.9197 44.45 98.8397 43.51L98.6597 41.92L97.6697 42.1C97.1097 42.16 96.4797 42.31 95.7797 42.55C94.1397 43.09 93.1697 43.18 92.8697 42.82C92.4697 42.36 92.8197 41.89 93.9197 41.41C94.8397 40.99 95.9997 40.71 97.3997 40.57ZM107.33 41.77C107.43 41.43 107.66 41.26 108.02 41.26C108.44 41.26 108.71 41.38 108.83 41.62C108.97 41.86 108.98 42.24 108.86 42.76C108.7 43.52 108.58 45.09 108.5 47.47C108.44 49.83 108.47 51.35 108.59 52.03C108.71 52.73 108.7 53.23 108.56 53.53C108.42 53.83 108.12 53.98 107.66 53.98C107.36 53.98 107.17 53.87 107.09 53.65C107.03 53.41 106.95 52.7 106.85 51.52C106.77 50.1 106.69 49.35 106.61 49.27C106.53 49.21 105.91 49.28 104.75 49.48C103.71 49.66 103.04 49.72 102.74 49.66C102.46 49.58 102.35 49.33 102.41 48.91C102.49 48.57 102.66 48.34 102.92 48.22C103.18 48.1 103.8 47.97 104.78 47.83C105.64 47.73 106.22 47.59 106.52 47.41C106.82 47.21 106.97 46.91 106.97 46.51C106.97 46.13 106.82 45.91 106.52 45.85C106.24 45.79 105.69 45.87 104.87 46.09C104.05 46.31 103.48 46.39 103.16 46.33C102.86 46.27 102.71 46.03 102.71 45.61C102.71 45.23 102.89 44.95 103.25 44.77C103.61 44.59 104.21 44.46 105.05 44.38C105.95 44.28 106.53 44.15 106.79 43.99C107.07 43.83 107.21 43.52 107.21 43.06C107.21 42.6 107.25 42.17 107.33 41.77ZM123.638 39.28C125.578 39.06 126.808 38.95 127.328 38.95C127.848 38.93 128.178 39.01 128.318 39.19C128.458 39.37 128.458 39.6 128.318 39.88C128.198 40.14 127.838 40.68 127.238 41.5L126.458 42.52L126.998 42.94C127.358 43.22 127.598 43.36 127.718 43.36C127.818 43.36 128.188 43.56 128.828 43.96C129.448 44.4 129.758 44.79 129.758 45.13C129.758 45.93 128.988 45.86 127.448 44.92C127.108 44.7 126.868 44.55 126.728 44.47C126.588 44.39 126.408 44.3 126.188 44.2C125.968 44.1 125.818 44.04 125.738 44.02C125.678 43.98 125.558 43.97 125.378 43.99C125.198 44.01 125.078 44.04 125.018 44.08C124.978 44.12 124.868 44.21 124.688 44.35C124.528 44.47 124.398 44.59 124.298 44.71C124.198 44.81 124.038 44.99 123.818 45.25C123.298 45.81 122.908 46.19 122.648 46.39C122.388 46.59 122.158 46.67 121.958 46.63C121.318 46.53 121.188 46.17 121.568 45.55C121.868 45.09 122.518 44.36 123.518 43.36C125.318 41.56 126.038 40.62 125.678 40.54C125.638 40.52 125.598 40.51 125.558 40.51C125.418 40.51 124.458 40.68 122.678 41.02C121.538 41.22 120.778 41.33 120.398 41.35C120.038 41.37 119.788 41.31 119.648 41.17C119.428 40.95 119.368 40.71 119.468 40.45C119.588 40.17 119.818 39.97 120.158 39.85C120.438 39.73 121.598 39.54 123.638 39.28ZM128.618 48.64C129.058 48.4 129.458 48.32 129.818 48.4C130.198 48.48 130.458 48.71 130.598 49.09C130.718 49.39 130.738 49.63 130.658 49.81C130.578 49.97 130.398 50.09 130.118 50.17C129.858 50.23 129.478 50.24 128.978 50.2C128.118 50.18 127.628 50.27 127.508 50.47C127.368 50.69 127.298 51.7 127.298 53.5C127.298 54.84 127.268 55.63 127.208 55.87C127.168 56.11 127.008 56.25 126.728 56.29C126.348 56.35 126.098 56.27 125.978 56.05C125.818 55.79 125.768 54.85 125.828 53.23C125.848 51.55 125.828 50.66 125.768 50.56C125.708 50.5 125.038 50.55 123.758 50.71C122.138 50.91 121.138 51 120.758 50.98C120.378 50.96 120.168 50.8 120.128 50.5C120.108 50.38 120.148 50.23 120.248 50.05C120.348 49.87 120.458 49.72 120.578 49.6C120.838 49.38 121.298 49.23 121.958 49.15C122.638 49.07 124.038 49.02 126.158 49C127.438 48.96 128.258 48.84 128.618 48.64ZM143.463 41.71C143.603 41.45 143.723 41.31 143.823 41.29C143.943 41.25 144.123 41.31 144.363 41.47C144.623 41.61 144.733 43.74 144.693 47.86C144.673 51.96 144.543 54.14 144.303 54.4C144.063 54.62 143.833 54.69 143.613 54.61C143.433 54.53 143.323 54.14 143.283 53.44C143.243 52.72 143.223 51.01 143.223 48.31C143.223 44.21 143.303 42.01 143.463 41.71ZM136.683 42.07C137.383 41.59 137.783 41.54 137.883 41.92C138.003 42.26 137.783 42.76 137.223 43.42C136.643 44.1 136.353 44.55 136.353 44.77C136.353 45.01 137.003 45.77 138.303 47.05C139.723 48.49 140.293 49.37 140.013 49.69C139.913 49.79 139.733 49.86 139.473 49.9C139.253 49.94 138.993 49.86 138.693 49.66C138.413 49.46 138.003 49.06 137.463 48.46C136.463 47.42 135.833 46.9 135.573 46.9C135.353 46.9 135.003 47.37 134.523 48.31C134.043 49.23 133.803 49.91 133.803 50.35C133.803 50.73 133.633 50.97 133.293 51.07C132.953 51.17 132.673 51.07 132.453 50.77C132.193 50.43 132.113 50.06 132.213 49.66C132.333 49.24 132.713 48.42 133.353 47.2C134.873 44.28 135.983 42.57 136.683 42.07ZM150.806 39.55C151.026 39.41 151.466 39.34 152.126 39.34C152.506 39.34 152.766 39.37 152.906 39.43C153.046 39.49 153.116 39.59 153.116 39.73C153.116 40.21 153.156 41.51 153.236 43.63C153.276 45.17 153.276 46.16 153.236 46.6C153.216 47.04 153.116 47.36 152.936 47.56C152.716 47.82 152.156 48.04 151.256 48.22C150.376 48.4 149.426 48.48 148.406 48.46C147.746 48.44 147.346 48.39 147.206 48.31C147.086 48.23 146.956 47.96 146.816 47.5C146.636 46.98 146.486 45.8 146.366 43.96L146.216 41.35L146.846 40.84C147.246 40.5 147.956 40.24 148.976 40.06C149.916 39.88 150.526 39.71 150.806 39.55ZM151.586 41.26L150.836 41.32C150.436 41.34 149.866 41.46 149.126 41.68C148.386 41.9 147.946 42.08 147.806 42.22C147.706 42.34 147.716 43.05 147.836 44.35C147.976 45.63 148.116 46.36 148.256 46.54C148.376 46.72 148.546 46.81 148.766 46.81C148.986 46.81 149.416 46.75 150.056 46.63L151.586 46.33V43.78V41.26ZM158.936 39.85C158.976 39.65 159.046 39.52 159.146 39.46C159.246 39.38 159.426 39.36 159.686 39.4L160.316 39.46L160.196 42.43C160.116 44.23 160.076 46.01 160.076 47.77C160.076 48.93 160.046 49.64 159.986 49.9C159.946 50.14 159.796 50.31 159.536 50.41C159.116 50.63 158.826 50.61 158.666 50.35C158.506 50.07 158.396 49.46 158.336 48.52C158.296 47.68 158.246 47.2 158.186 47.08C158.126 46.96 157.936 46.93 157.616 46.99C155.896 47.39 154.886 47.41 154.586 47.05C154.106 46.49 154.546 46.03 155.906 45.67C156.146 45.59 156.396 45.52 156.656 45.46C157.736 45.28 158.366 45.08 158.546 44.86C158.746 44.66 158.816 44.3 158.756 43.78C158.736 43.48 158.676 43.28 158.576 43.18C158.496 43.08 158.366 43.04 158.186 43.06C158.106 43.06 157.976 43.08 157.796 43.12C157.616 43.14 157.396 43.17 157.136 43.21C156.896 43.23 156.686 43.25 156.506 43.27C155.886 43.35 155.516 43.37 155.396 43.33C155.296 43.29 155.246 43.13 155.246 42.85C155.246 42.43 155.406 42.12 155.726 41.92C156.046 41.7 156.586 41.55 157.346 41.47C157.886 41.43 158.246 41.38 158.426 41.32C158.606 41.24 158.716 41.1 158.756 40.9C158.776 40.66 158.836 40.31 158.936 39.85ZM152.096 51.49C152.296 51.29 152.456 51.19 152.576 51.19C152.696 51.17 152.866 51.23 153.086 51.37C153.226 51.45 153.296 51.6 153.296 51.82C153.316 52.04 153.276 52.44 153.176 53.02C153.036 53.98 153.026 54.5 153.146 54.58C153.246 54.62 153.736 54.62 154.616 54.58C155.496 54.52 156.376 54.44 157.256 54.34C158.136 54.24 158.646 54.15 158.786 54.07C158.906 54.03 159.106 54.11 159.386 54.31C159.646 54.49 159.736 54.71 159.656 54.97C159.576 55.23 159.356 55.44 158.996 55.6C158.676 55.72 157.756 55.88 156.236 56.08C154.716 56.3 153.556 56.42 152.756 56.44C152.296 56.44 152.016 56.4 151.916 56.32C151.836 56.24 151.756 55.92 151.676 55.36C151.556 54.66 151.546 53.89 151.646 53.05C151.746 52.21 151.896 51.69 152.096 51.49ZM12.0696 71.22C14.7696 70.78 16.1796 70.74 16.2996 71.1C16.3196 71.24 16.3796 72.31 16.4796 74.31L16.5696 77.25L15.9696 77.46C15.4896 77.62 15.1796 77.55 15.0396 77.25C14.9196 76.93 14.8596 76.13 14.8596 74.85C14.8596 74.77 14.8596 74.64 14.8596 74.46C14.8396 74.04 14.8296 73.75 14.8296 73.59C14.8496 73.41 14.8196 73.22 14.7396 73.02C14.6596 72.82 14.5896 72.7 14.5296 72.66C14.4896 72.62 14.3496 72.59 14.1096 72.57C13.8696 72.55 13.6496 72.56 13.4496 72.6C13.2496 72.64 12.9096 72.71 12.4296 72.81C12.2496 72.83 12.1196 72.85 12.0396 72.87C10.7396 73.09 9.91965 73.19 9.57965 73.17C9.23965 73.13 9.06965 72.94 9.06965 72.6C9.06965 72.22 9.25965 71.94 9.63965 71.76C10.0196 71.58 10.8296 71.4 12.0696 71.22ZM11.2296 78.03C11.3696 77.63 11.5996 77.43 11.9196 77.43C12.1996 77.43 12.3596 77.53 12.3996 77.73C12.4596 77.95 12.4996 78.54 12.5196 79.5V81.06L13.3296 81C14.0496 80.98 14.8496 80.93 15.7296 80.85C16.3896 80.81 16.8396 80.81 17.0796 80.85C17.3196 80.89 17.5196 81.01 17.6796 81.21C17.9396 81.49 18.0496 81.78 18.0096 82.08C17.9696 82.24 17.8496 82.35 17.6496 82.41C17.4696 82.47 17.0896 82.5 16.5096 82.5C15.1896 82.54 13.8796 82.63 12.5796 82.77C11.2996 82.89 10.3896 83.04 9.84965 83.22C8.70965 83.62 8.13965 83.41 8.13965 82.59C8.13965 82.31 8.24965 82.11 8.46965 81.99C8.70965 81.87 9.14965 81.76 9.78965 81.66L10.8696 81.54L10.8996 80.1C10.9596 79.08 11.0696 78.39 11.2296 78.03ZM16.0596 85.08C16.3996 84.98 16.6996 84.95 16.9596 84.99C17.2196 85.03 17.4196 85.14 17.5596 85.32C17.7196 85.5 17.7996 85.75 17.7996 86.07C17.7996 86.37 17.6596 86.58 17.3796 86.7C17.0996 86.82 16.7396 86.83 16.2996 86.73C15.7996 86.63 14.9696 86.67 13.8096 86.85C12.9096 86.99 12.3696 87.11 12.1896 87.21C12.0096 87.29 11.8896 87.5 11.8296 87.84C11.7296 88.38 11.6796 89.01 11.6796 89.73V90.9L12.8196 90.75C13.6796 90.59 14.5396 90.42 15.3996 90.24C16.6396 89.96 17.5096 89.87 18.0096 89.97C18.5096 90.07 18.7596 90.38 18.7596 90.9C18.7596 91.14 18.6396 91.31 18.3996 91.41C18.1596 91.53 17.7796 91.59 17.2596 91.59C16.7796 91.59 15.6996 91.76 14.0196 92.1C12.6596 92.4 11.7396 92.54 11.2596 92.52C10.7796 92.52 10.4796 92.38 10.3596 92.1C10.2396 91.84 10.1596 90.86 10.1196 89.16C10.0796 88.66 10.0496 88.3 10.0296 88.08C10.0296 87.86 10.0396 87.6 10.0596 87.3C10.0996 86.98 10.1296 86.77 10.1496 86.67C10.1696 86.57 10.2596 86.44 10.4196 86.28C10.5796 86.1 10.7096 85.99 10.8096 85.95C10.9096 85.91 11.1096 85.85 11.4096 85.77C11.7096 85.69 11.9796 85.63 12.2196 85.59C12.4596 85.55 12.8396 85.5 13.3596 85.44C15.0396 85.24 15.9396 85.12 16.0596 85.08ZM40.2727 76.89C40.4527 76.43 40.8827 76.37 41.5627 76.71C41.7227 76.81 41.8127 76.93 41.8327 77.07C41.8727 77.21 41.8527 77.46 41.7727 77.82C41.6527 78.46 41.5527 79.16 41.4727 79.92L41.3527 81.18L42.4327 81.03C43.8927 80.85 44.6227 80.61 44.6227 80.31C44.7027 78.75 44.8127 77.73 44.9527 77.25C45.1127 76.75 45.3927 76.55 45.7927 76.65C46.1127 76.73 46.3027 76.93 46.3627 77.25C46.4427 77.55 46.4227 78.05 46.3027 78.75C46.1427 79.57 46.0027 81.39 45.8827 84.21C45.8227 86.15 45.7527 87.37 45.6727 87.87C45.6127 88.35 45.4827 88.65 45.2827 88.77C44.9827 88.93 44.7127 88.96 44.4727 88.86C44.3127 88.8 44.2127 88.58 44.1727 88.2C44.1527 87.8 44.1527 86.93 44.1727 85.59L44.2627 82.5L43.5127 82.53C43.0327 82.53 42.5227 82.64 41.9827 82.86L41.2627 83.16L41.3527 85.56C41.4127 86.38 41.4227 87.01 41.3827 87.45C41.3427 87.87 41.2627 88.15 41.1427 88.29C41.0427 88.43 40.8627 88.5 40.6027 88.5C40.1427 88.5 39.8727 88.2 39.7927 87.6C39.7327 87 39.7527 85.32 39.8527 82.56C40.0327 79 40.1727 77.11 40.2727 76.89ZM34.7227 77.1C35.7627 76.94 36.3727 77.07 36.5527 77.49C36.7327 77.89 36.7727 79.23 36.6727 81.51C36.5927 83.35 36.5227 84.44 36.4627 84.78C36.4027 85.12 36.2227 85.36 35.9227 85.5C35.5227 85.74 34.3927 85.87 32.5327 85.89L29.8027 85.95L29.5627 85.02C29.4627 84.64 29.3827 83.82 29.3227 82.56C29.2627 81.3 29.2527 80.24 29.2927 79.38C29.3327 78.4 31.1427 77.64 34.7227 77.1ZM35.3527 78.84H34.5127C33.9927 78.84 33.2327 78.98 32.2327 79.26L30.8227 79.65L30.7627 81.45C30.7027 82.53 30.7227 83.29 30.8227 83.73C30.9027 84.01 31.0327 84.17 31.2127 84.21C31.3927 84.25 31.9627 84.24 32.9227 84.18L34.8427 84.09L34.9927 83.28C35.0927 82.74 35.1727 81.87 35.2327 80.67L35.3527 78.84ZM51.8548 72.18C51.8948 72.06 52.0748 72 52.3948 72C52.6548 72 52.8248 72.19 52.9048 72.57C53.0048 72.93 52.9848 73.44 52.8448 74.1C52.7648 74.52 52.7048 74.8 52.6648 74.94C52.6448 75.08 52.6348 75.26 52.6348 75.48C52.6348 75.68 52.6448 75.8 52.6648 75.84C52.6848 75.86 52.7748 75.89 52.9348 75.93C53.0948 75.97 53.2348 75.98 53.3548 75.96C53.4748 75.94 53.6948 75.91 54.0148 75.87C55.1948 75.73 55.8548 75.86 55.9948 76.26C56.1548 76.64 55.8048 77.37 54.9448 78.45C54.3248 79.21 54.0148 79.65 54.0148 79.77C54.0148 79.89 54.2148 80.12 54.6148 80.46C55.0148 80.8 55.4748 81.12 55.9948 81.42C56.6148 81.8 56.9248 82.21 56.9248 82.65C56.9048 82.93 56.7148 83.07 56.3548 83.07C56.0148 83.07 55.5648 82.92 55.0048 82.62C54.4648 82.3 53.9548 81.91 53.4748 81.45L52.8148 80.85L52.2148 81.54C51.4548 82.44 50.9048 83.04 50.5648 83.34C50.2448 83.64 49.9748 83.79 49.7548 83.79C49.4348 83.79 49.2348 83.67 49.1548 83.43C49.0748 83.17 49.1448 82.87 49.3648 82.53C49.6048 82.19 50.4048 81.31 51.7648 79.89C53.1248 78.45 53.8048 77.67 53.8048 77.55C53.8048 77.53 53.7748 77.51 53.7148 77.49C53.6748 77.47 53.6148 77.46 53.5348 77.46C53.4548 77.46 53.3648 77.48 53.2648 77.52C52.8048 77.62 51.8848 77.79 50.5048 78.03C48.9248 78.29 48.0748 78.29 47.9548 78.03C47.8948 77.89 47.9348 77.67 48.0748 77.37C48.1548 77.15 48.3048 76.99 48.5248 76.89C48.7648 76.79 49.1948 76.69 49.8148 76.59C50.8348 76.43 51.3148 76.25 51.2548 76.05C51.2148 75.89 51.2848 75.24 51.4648 74.1C51.6448 72.96 51.7748 72.32 51.8548 72.18ZM58.9648 76.23C59.1048 75.97 59.2248 75.83 59.3248 75.81C59.4248 75.79 59.6248 75.86 59.9248 76.02C60.1448 76.14 60.2748 76.4 60.3148 76.8C60.3548 77.18 60.3748 78.15 60.3748 79.71C60.3348 82.11 60.2848 83.4 60.2248 83.58C60.1448 83.86 59.9248 84.01 59.5648 84.03C59.2048 84.03 58.9748 83.9 58.8748 83.64C58.7548 83.32 58.7048 82.07 58.7248 79.89C58.7648 77.69 58.8448 76.47 58.9648 76.23ZM54.5548 85.83C55.0948 85.57 55.8248 85.44 56.7448 85.44C57.1648 85.44 57.5148 85.48 57.7948 85.56C58.0948 85.62 58.3648 85.72 58.6048 85.86C58.8448 86 59.0548 86.19 59.2348 86.43C59.4148 86.65 59.5948 86.93 59.7748 87.27C59.9948 87.69 60.0848 88.25 60.0448 88.95C60.0048 89.63 59.8348 90.33 59.5348 91.05C59.3748 91.47 58.9848 91.85 58.3648 92.19C57.7648 92.55 57.1748 92.74 56.5948 92.76C56.0948 92.76 55.5048 92.57 54.8248 92.19C54.1448 91.81 53.6248 91.39 53.2648 90.93C52.6448 90.09 52.4648 89.13 52.7248 88.05C53.0048 86.97 53.6148 86.23 54.5548 85.83ZM57.8848 87.21C57.4048 86.85 56.7748 86.77 55.9948 86.97C55.2148 87.15 54.6648 87.51 54.3448 88.05C54.1048 88.49 54.0148 88.85 54.0748 89.13C54.1348 89.41 54.3848 89.78 54.8248 90.24C55.8648 91.36 56.8948 91.44 57.9148 90.48C58.2148 90.2 58.3948 89.97 58.4548 89.79C58.5148 89.59 58.5148 89.23 58.4548 88.71C58.3548 87.91 58.1648 87.41 57.8848 87.21ZM65.4401 74.52C65.4001 73.86 65.4001 73.47 65.4401 73.35C65.5001 73.23 65.6801 73.17 65.9801 73.17C66.8201 73.17 67.1301 74.06 66.9101 75.84L66.7601 77.19L67.7801 77.16C68.5601 77.14 69.1501 77.08 69.5501 76.98C69.7901 76.92 70.0301 76.9 70.2701 76.92C70.5101 76.92 70.7201 76.96 70.9001 77.04C71.0801 77.1 71.2301 77.2 71.3501 77.34C71.4901 77.48 71.5801 77.63 71.6201 77.79C71.6801 78.19 71.5801 78.45 71.3201 78.57C71.0801 78.69 70.7001 78.68 70.1801 78.54C69.6401 78.4 69.0601 78.41 68.4401 78.57C67.8201 78.75 67.0401 78.88 66.1001 78.96C65.1001 79.08 64.3801 79.24 63.9401 79.44C63.5201 79.66 63.0601 79.77 62.5601 79.77C62.2801 79.77 62.0901 79.74 61.9901 79.68C61.9101 79.6 61.8701 79.44 61.8701 79.2C61.8701 78.82 62.0001 78.55 62.2601 78.39C62.5201 78.21 63.0801 78.04 63.9401 77.88C64.6801 77.72 65.1101 77.59 65.2301 77.49C65.3701 77.39 65.4501 77.13 65.4701 76.71C65.4701 75.75 65.4601 75.02 65.4401 74.52ZM77.5601 77.46C77.6201 77.26 77.8701 77.19 78.3101 77.25L78.9401 77.31L78.8801 79.05C78.8201 80.15 78.7201 81.53 78.5801 83.19C78.4001 84.77 78.3701 86.07 78.4901 87.09C78.5501 87.83 78.5601 88.29 78.5201 88.47C78.5001 88.63 78.3501 88.77 78.0701 88.89C77.6901 89.07 77.4101 89.1 77.2301 88.98C77.0701 88.86 76.9701 88 76.9301 86.4C76.8901 85.04 76.7901 84.24 76.6301 84C76.4901 83.74 76.1001 83.76 75.4601 84.06L74.7401 84.45L74.8601 86.4C74.9401 87.22 74.9601 87.77 74.9201 88.05C74.9001 88.33 74.8101 88.53 74.6501 88.65C74.1701 89.03 73.7601 89.03 73.4201 88.65C73.2401 88.39 73.1901 86.74 73.2701 83.7C73.3301 81.42 73.4201 79.92 73.5401 79.2C73.6601 78.48 73.8901 78.12 74.2301 78.12C74.5701 78.12 74.8001 78.31 74.9201 78.69C75.0401 79.05 75.0901 79.66 75.0701 80.52L74.9801 82.26L75.6701 82.32C76.1101 82.36 76.4301 82.32 76.6301 82.2C76.8501 82.08 77.0101 81.84 77.1101 81.48C77.2101 81.12 77.2901 80.55 77.3501 79.77C77.4301 78.39 77.5001 77.62 77.5601 77.46ZM66.0101 80.67C66.4901 80.39 66.9301 80.26 67.3301 80.28C67.7501 80.28 68.2701 80.45 68.8901 80.79C70.3701 81.53 71.1501 82.63 71.2301 84.09C71.2701 84.63 71.2501 85.04 71.1701 85.32C71.1101 85.58 70.9001 85.97 70.5401 86.49C70.0001 87.31 69.5001 87.87 69.0401 88.17C68.5801 88.45 68.0101 88.58 67.3301 88.56C65.7501 88.5 64.6001 87.94 63.8801 86.88C63.1801 85.8 63.1401 84.56 63.7601 83.16C64.0201 82.52 64.3201 82.02 64.6601 81.66C65.0001 81.28 65.4501 80.95 66.0101 80.67ZM68.5901 82.14C68.1301 81.96 67.7401 81.89 67.4201 81.93C67.1201 81.97 66.7601 82.14 66.3401 82.44C65.8801 82.74 65.5201 83.18 65.2601 83.76C65.0001 84.34 64.9301 84.85 65.0501 85.29C65.1301 85.67 65.2801 86 65.5001 86.28C65.7201 86.54 65.9801 86.74 66.2801 86.88C66.5801 87.02 66.9101 87.09 67.2701 87.09C67.6501 87.09 67.9401 87.04 68.1401 86.94C68.3401 86.84 68.5901 86.61 68.8901 86.25C69.3901 85.67 69.6801 85.14 69.7601 84.66C69.8601 84.2 69.7801 83.7 69.5201 83.16C69.2601 82.62 68.9501 82.28 68.5901 82.14ZM97.4185 74.67C97.5585 74.55 97.7285 74.59 97.9285 74.79C98.1485 74.99 98.2985 75.22 98.3785 75.48C98.4785 75.74 98.4885 75.95 98.4085 76.11C98.2685 76.23 97.2985 76.31 95.4985 76.35C94.4385 76.35 93.6885 76.38 93.2485 76.44C92.8085 76.5 92.4585 76.62 92.1985 76.8C92.0185 76.9 91.8985 76.98 91.8385 77.04C91.7785 77.1 91.7185 77.24 91.6585 77.46C91.5985 77.66 91.5685 77.89 91.5685 78.15C91.5685 78.39 91.5685 78.81 91.5685 79.41C91.5685 80.89 91.6285 81.68 91.7485 81.78C91.8685 81.84 92.3985 81.88 93.3385 81.9C94.3785 81.9 95.6785 81.78 97.2385 81.54C97.7985 81.44 98.1885 81.52 98.4085 81.78C98.9085 82.4 98.4785 82.85 97.1185 83.13C96.9585 83.17 96.7885 83.2 96.6085 83.22C95.5885 83.38 94.4085 83.5 93.0685 83.58C91.7485 83.66 91.0085 83.66 90.8485 83.58C90.6485 83.44 90.4385 82.86 90.2185 81.84C89.9985 80.8 89.8885 79.89 89.8885 79.11C89.8885 78.09 89.8085 77.45 89.6485 77.19C89.4885 76.85 89.6285 76.51 90.0685 76.17C90.5085 75.83 91.1785 75.55 92.0785 75.33C92.9785 75.09 93.9785 74.94 95.0785 74.88C96.5985 74.8 97.3785 74.73 97.4185 74.67ZM98.1085 87.69C98.2085 87.57 98.4285 87.53 98.7685 87.57C99.1285 87.61 99.3685 87.69 99.4885 87.81C99.6885 88.01 99.7285 88.26 99.6085 88.56C99.5085 88.84 99.3085 89.03 99.0085 89.13C98.7085 89.23 97.8285 89.27 96.3685 89.25C95.0685 89.23 93.6785 89.28 92.1985 89.4C91.6185 89.44 91.0885 89.46 90.6085 89.46C90.1485 89.46 89.8685 89.43 89.7685 89.37C89.5685 89.25 89.4585 89.05 89.4385 88.77C89.4185 88.47 89.5185 88.24 89.7385 88.08C89.8985 87.94 91.3185 87.85 93.9985 87.81C96.6985 87.79 98.0685 87.75 98.1085 87.69ZM104.757 71.88C105.637 71.7 106.357 71.59 106.917 71.55C107.357 71.55 107.617 71.68 107.697 71.94C107.797 72.18 107.917 73.05 108.057 74.55C108.097 74.87 108.117 75.14 108.117 75.36C108.117 75.56 108.097 75.76 108.057 75.96C108.017 76.16 107.937 76.32 107.817 76.44C107.697 76.56 107.557 76.68 107.397 76.8C107.237 76.92 106.997 77.03 106.677 77.13C106.357 77.23 106.027 77.33 105.687 77.43C105.347 77.51 104.907 77.62 104.367 77.76C104.067 77.82 103.877 77.91 103.797 78.03C103.737 78.15 103.707 78.41 103.707 78.81C103.707 79.33 103.797 79.66 103.977 79.8C104.177 79.92 104.597 79.92 105.237 79.8C105.997 79.66 106.517 79.53 106.797 79.41C107.197 79.27 107.547 79.26 107.847 79.38C108.167 79.48 108.337 79.68 108.357 79.98C108.377 80.16 108.377 80.31 108.357 80.43C108.357 80.55 108.307 80.66 108.207 80.76C108.107 80.84 107.977 80.91 107.817 80.97C107.657 81.01 107.437 81.06 107.157 81.12C106.557 81.2 106.057 81.31 105.657 81.45C105.297 81.59 104.787 81.67 104.127 81.69C103.467 81.69 103.047 81.62 102.867 81.48C102.307 81.14 102.027 80.3 102.027 78.96C102.027 78.38 102.067 77.98 102.147 77.76C102.247 77.52 102.447 77.24 102.747 76.92C103.227 76.48 103.677 76.26 104.097 76.26C104.537 76.26 105.087 76.1 105.747 75.78C106.207 75.56 106.477 75.39 106.557 75.27C106.657 75.15 106.677 74.9 106.617 74.52C106.517 73.96 106.447 73.61 106.407 73.47C106.327 73.31 106.067 73.26 105.627 73.32C105.187 73.38 104.437 73.57 103.377 73.89C102.517 74.17 101.967 74.31 101.727 74.31C101.487 74.31 101.317 74.2 101.217 73.98C101.077 73.58 101.317 73.2 101.937 72.84C102.557 72.46 103.497 72.14 104.757 71.88ZM111.747 77.16C111.707 75 111.707 73.72 111.747 73.32C111.787 72.92 111.927 72.72 112.167 72.72C112.707 72.72 113.017 72.91 113.097 73.29C113.197 73.65 113.247 74.96 113.247 77.22V81.51L112.677 81.72C112.257 81.84 112.017 81.86 111.957 81.78C111.877 81.68 111.807 80.14 111.747 77.16ZM107.277 84.24C108.577 83.96 109.647 83.84 110.487 83.88C111.407 83.92 111.997 84.13 112.257 84.51C112.537 84.89 112.677 85.76 112.677 87.12C112.677 87.5 112.677 87.78 112.677 87.96C112.677 88.14 112.657 88.35 112.617 88.59C112.577 88.81 112.537 88.96 112.497 89.04C112.477 89.12 112.407 89.22 112.287 89.34C112.167 89.44 112.047 89.5 111.927 89.52C111.827 89.54 111.647 89.57 111.387 89.61C111.147 89.65 110.917 89.67 110.697 89.67C110.497 89.67 110.187 89.67 109.767 89.67C108.627 89.67 107.867 89.76 107.487 89.94C107.127 90.1 106.977 90.45 107.037 90.99C107.057 91.33 107.117 91.53 107.217 91.59C107.337 91.65 107.617 91.65 108.057 91.59C108.637 91.51 109.617 91.47 110.997 91.47C111.897 91.47 112.457 91.49 112.677 91.53C112.917 91.57 113.057 91.69 113.097 91.89C113.157 92.21 113.077 92.44 112.857 92.58C112.657 92.72 112.227 92.82 111.567 92.88C110.887 92.94 109.897 93.06 108.597 93.24C107.317 93.42 106.587 93.46 106.407 93.36C105.907 93.18 105.577 92.57 105.417 91.53C105.277 90.49 105.397 89.72 105.777 89.22C105.957 89 106.197 88.85 106.497 88.77C106.797 88.67 107.407 88.57 108.327 88.47C109.747 88.33 110.547 88.22 110.727 88.14C110.927 88.08 110.997 87.64 110.937 86.82L110.877 85.53L109.437 85.59C108.557 85.63 107.617 85.8 106.617 86.1C105.797 86.36 105.257 86.47 104.997 86.43C104.757 86.39 104.637 86.18 104.637 85.8C104.637 85.4 104.807 85.1 105.147 84.9C105.487 84.7 106.197 84.48 107.277 84.24ZM129.751 77.1C129.871 76.8 130.021 76.62 130.201 76.56C130.401 76.48 130.671 76.5 131.011 76.62C131.251 76.72 131.371 76.93 131.371 77.25C131.371 77.55 131.251 78.15 131.011 79.05C130.751 80.07 130.581 81.83 130.501 84.33L130.321 88.14L129.691 88.35C129.171 88.53 128.861 88.48 128.761 88.2C128.661 87.88 128.661 86.91 128.761 85.29C128.901 83.45 128.941 82.48 128.881 82.38C128.821 82.32 128.291 82.42 127.291 82.68C126.371 82.92 125.691 83.05 125.251 83.07C124.811 83.07 124.501 82.96 124.321 82.74C124.141 82.5 124.161 82.28 124.381 82.08C124.661 81.82 125.111 81.57 125.731 81.33C126.351 81.09 126.871 80.97 127.291 80.97C127.591 80.97 127.871 80.94 128.131 80.88C128.411 80.8 128.651 80.7 128.851 80.58C129.071 80.44 129.231 80.29 129.331 80.13C129.451 79.95 129.511 79.5 129.511 78.78C129.511 78.02 129.591 77.46 129.751 77.1ZM134.311 76.83C134.391 76.63 134.571 76.52 134.851 76.5C135.151 76.48 135.401 76.57 135.601 76.77C135.761 76.95 135.851 77.74 135.871 79.14C135.891 80.54 135.811 81.58 135.631 82.26C135.471 83 135.351 84.2 135.271 85.86C135.191 87.12 135.111 87.9 135.031 88.2C134.951 88.48 134.791 88.68 134.551 88.8C134.071 89.02 133.781 88.99 133.681 88.71C133.521 88.25 133.651 86.08 134.071 82.2C134.111 81.82 134.161 81.37 134.221 80.85C134.361 79.61 134.391 78.69 134.311 78.09C134.231 77.51 134.231 77.09 134.311 76.83ZM120.751 77.55C120.851 77.45 121.241 77.43 121.921 77.49C122.621 77.53 123.021 77.61 123.121 77.73C123.281 77.93 123.281 78.53 123.121 79.53C123.041 80.05 122.821 81.58 122.461 84.12C122.441 84.14 122.431 84.16 122.431 84.18C122.251 85.7 122.111 86.59 122.011 86.85C121.931 87.11 121.731 87.25 121.411 87.27C120.991 87.33 120.731 87.23 120.631 86.97C120.531 86.75 120.611 85.7 120.871 83.82C121.311 80.94 121.491 79.4 121.411 79.2C121.391 79.12 121.251 79.11 120.991 79.17C119.311 79.49 118.021 79.7 117.121 79.8C116.241 79.9 115.641 79.9 115.321 79.8C114.501 79.48 114.571 79.11 115.531 78.69C116.431 78.29 117.831 77.98 119.731 77.76C120.311 77.68 120.651 77.61 120.751 77.55ZM140.278 73.35C140.998 73.09 141.688 73.01 142.348 73.11C143.028 73.19 143.658 73.46 144.238 73.92C144.838 74.38 145.328 75 145.708 75.78C146.088 76.52 146.268 77.21 146.248 77.85C146.248 78.49 146.048 79.2 145.648 79.98C145.328 80.62 144.948 81.1 144.508 81.42C144.068 81.72 143.508 81.92 142.828 82.02C141.688 82.18 140.608 81.96 139.588 81.36C138.568 80.76 137.918 79.99 137.638 79.05C137.238 77.77 137.278 76.63 137.758 75.63C138.238 74.63 139.078 73.87 140.278 73.35ZM142.708 74.58C142.508 74.58 142.288 74.54 142.048 74.46C141.688 74.34 141.118 74.56 140.338 75.12C139.558 75.68 139.088 76.22 138.928 76.74C138.868 76.94 138.858 77.18 138.898 77.46C138.938 77.72 139.008 77.99 139.108 78.27C139.208 78.53 139.338 78.79 139.498 79.05C139.678 79.31 139.868 79.53 140.068 79.71C140.828 80.39 141.598 80.7 142.378 80.64C143.158 80.58 143.778 80.17 144.238 79.41C144.978 78.21 144.858 76.96 143.878 75.66C143.298 74.94 142.908 74.58 142.708 74.58ZM143.968 83.91C144.128 83.53 144.328 83.34 144.568 83.34C144.828 83.32 145.048 83.51 145.228 83.91C145.388 84.29 145.368 84.95 145.168 85.89C144.968 86.79 144.928 87.34 145.048 87.54C145.148 87.72 145.748 87.81 146.848 87.81C147.608 87.81 148.078 87.84 148.258 87.9C148.458 87.94 148.608 88.08 148.708 88.32C148.848 88.74 148.798 89.03 148.558 89.19C148.338 89.35 147.838 89.42 147.058 89.4C146.438 89.38 145.668 89.42 144.748 89.52C143.848 89.6 143.208 89.69 142.828 89.79C142.648 89.85 142.188 89.94 141.448 90.06C140.728 90.2 140.018 90.33 139.318 90.45C138.618 90.57 138.198 90.63 138.058 90.63C137.818 90.63 137.638 90.47 137.518 90.15C137.398 89.83 137.428 89.56 137.608 89.34C137.768 89.14 138.158 88.99 138.778 88.89L139.648 88.77V86.85C139.668 85.79 139.748 85.12 139.888 84.84C140.028 84.54 140.328 84.45 140.788 84.57C141.068 84.65 141.228 84.78 141.268 84.96C141.328 85.12 141.348 85.62 141.328 86.46L141.268 88.14L142.438 88.23C143.178 88.27 143.548 88.23 143.548 88.11C143.548 87.57 143.568 87 143.608 86.4C143.668 85.8 143.728 85.28 143.788 84.84C143.868 84.4 143.928 84.09 143.968 83.91ZM150.889 87.72C151.189 87.58 151.439 87.53 151.639 87.57C151.859 87.59 152.099 87.72 152.359 87.96C152.579 88.14 152.719 88.29 152.779 88.41C152.839 88.51 152.869 88.67 152.869 88.89C152.869 89.87 152.369 90.36 151.369 90.36C151.229 90.36 151.109 90.35 151.009 90.33C150.929 90.31 150.859 90.27 150.799 90.21C150.739 90.17 150.659 90.1 150.559 90C150.359 89.76 150.259 89.41 150.259 88.95C150.259 88.59 150.299 88.33 150.379 88.17C150.459 88.01 150.629 87.86 150.889 87.72Z" fill="#1A1A1A"/>
</svg>
