<svg width="243" height="92" viewBox="0 0 243 92" fill="none" xmlns="http://www.w3.org/2000/svg">
<path d="M35.2996 2.98C35.3796 2.76 35.5596 2.65 35.8396 2.65C36.2396 2.65 36.4896 2.81 36.5896 3.13C36.6896 3.43 36.6696 4.05 36.5296 4.99C36.3896 6.11 36.3996 6.76 36.5596 6.94C36.7396 7.1 37.3596 7.08 38.4196 6.88C39.3596 6.72 39.9896 6.68 40.3096 6.76C40.6296 6.82 40.7896 7.04 40.7896 7.42C40.7896 7.68 40.7196 7.85 40.5796 7.93C40.4596 8.01 40.1596 8.08 39.6796 8.14C38.9396 8.22 38.1696 8.39 37.3696 8.65L36.1696 9.04L36.2896 10.69L36.4096 12.31H35.6296C35.1296 12.31 34.8296 12.19 34.7296 11.95C34.6496 11.75 34.6896 10.27 34.8496 7.51C35.0296 4.75 35.1796 3.24 35.2996 2.98ZM28.3096 4.03C28.7096 3.57 29.0696 3.25 29.3896 3.07C29.7296 2.89 29.9596 2.85 30.0796 2.95C30.2196 3.05 30.2296 3.28 30.1096 3.64C29.9896 4 29.7396 4.43 29.3596 4.93C28.7996 5.59 28.5196 6.03 28.5196 6.25C28.5196 6.33 28.6396 6.48 28.8796 6.7C29.1196 6.9 29.3896 7.1 29.6896 7.3C31.2896 8.38 32.0896 9.25 32.0896 9.91C32.0896 10.89 31.4596 10.81 30.1996 9.67C29.7196 9.19 29.1996 8.77 28.6396 8.41C28.0796 8.03 27.6996 7.84 27.4996 7.84C27.3796 7.84 27.1496 8.21 26.8096 8.95C26.4696 9.69 26.2696 10.26 26.2096 10.66C26.1496 11.04 26.0596 11.28 25.9396 11.38C25.8396 11.46 25.6396 11.5 25.3396 11.5C25.0396 11.5 24.8396 11.46 24.7396 11.38C24.6396 11.3 24.5796 11.13 24.5596 10.87C24.4996 10.37 24.8796 9.37 25.6996 7.87C26.5396 6.37 27.4096 5.09 28.3096 4.03ZM31.8796 13.72C32.5796 13.46 33.1496 13.36 33.5896 13.42C34.0296 13.46 34.5596 13.68 35.1796 14.08C36.5396 14.98 37.1296 16.28 36.9496 17.98C36.8896 18.74 36.7296 19.34 36.4696 19.78C36.2096 20.22 35.7696 20.64 35.1496 21.04C34.8096 21.26 34.5096 21.39 34.2496 21.43C34.0096 21.49 33.6296 21.49 33.1096 21.43C32.2696 21.33 31.6096 21.17 31.1296 20.95C30.6696 20.75 30.2196 20.4 29.7796 19.9C29.1196 19.14 28.7996 18.28 28.8196 17.32C28.8396 16.34 29.1996 15.52 29.8996 14.86C30.3396 14.4 30.9996 14.02 31.8796 13.72ZM34.8796 15.73C34.0596 14.91 33.0696 14.79 31.9096 15.37C31.3496 15.63 30.9596 15.92 30.7396 16.24C30.5196 16.56 30.4096 17 30.4096 17.56C30.4096 17.86 30.4896 18.17 30.6496 18.49C30.8296 18.79 31.0596 19.06 31.3396 19.3C31.6396 19.54 31.9396 19.7 32.2396 19.78C32.6796 19.9 33.1796 19.89 33.7396 19.75C34.3196 19.61 34.7296 19.41 34.9696 19.15C35.3496 18.77 35.5296 18.21 35.5096 17.47C35.4896 16.71 35.2796 16.13 34.8796 15.73ZM53.1442 6.13C53.3042 5.69 53.5642 5.47 53.9242 5.47C54.0642 5.47 54.1742 5.49 54.2542 5.53C54.3542 5.57 54.4342 5.65 54.4942 5.77C54.5542 5.87 54.5942 6 54.6142 6.16C54.6342 6.32 54.6342 6.56 54.6142 6.88C54.6142 7.2 54.5942 7.56 54.5542 7.96C54.5142 8.34 54.4642 8.83 54.4042 9.43L54.2842 10.24L55.5442 10.06C56.6642 9.92 57.3242 9.75 57.5242 9.55C57.7242 9.35 57.8242 8.79 57.8242 7.87C57.8242 6.37 58.0542 5.61 58.5142 5.59C58.6542 5.59 58.8042 5.63 58.9642 5.71C59.2042 5.83 59.3442 5.97 59.3842 6.13C59.4242 6.27 59.4142 6.55 59.3542 6.97C59.2542 7.79 59.1642 9.71 59.0842 12.73C59.0242 15.09 58.9542 16.49 58.8742 16.93C58.8142 17.37 58.6542 17.65 58.3942 17.77C58.0142 17.95 57.7642 17.98 57.6442 17.86C57.5242 17.72 57.4842 16.66 57.5242 14.68C57.5642 12.92 57.4942 11.92 57.3142 11.68C57.1542 11.42 56.5642 11.44 55.5442 11.74L54.2242 12.1L54.3142 14.47C54.3542 15.51 54.3542 16.19 54.3142 16.51C54.2742 16.81 54.1642 17.01 53.9842 17.11C53.7042 17.29 53.4342 17.29 53.1742 17.11C52.9742 17.01 52.8542 16.68 52.8142 16.12C52.7742 15.54 52.7742 14.11 52.8142 11.83C52.8742 8.45 52.9842 6.55 53.1442 6.13ZM47.8042 5.95C48.1042 5.81 48.5342 5.76 49.0942 5.8C49.4542 5.82 49.6842 5.87 49.7842 5.95C49.8842 6.03 49.9342 6.23 49.9342 6.55V7.24L47.4142 7.51C45.6742 7.73 44.6242 7.91 44.2642 8.05C43.9642 8.17 43.7842 8.29 43.7242 8.41C43.6842 8.51 43.6942 8.71 43.7542 9.01C43.8542 9.61 43.9042 10.35 43.9042 11.23C43.9042 12.21 44.0142 12.84 44.2342 13.12C44.4742 13.38 45.0342 13.52 45.9142 13.54C46.8942 13.54 47.7642 13.48 48.5242 13.36C49.0642 13.28 49.4142 13.26 49.5742 13.3C49.7542 13.34 49.9042 13.46 50.0242 13.66C50.2642 14.12 50.2542 14.44 49.9942 14.62C49.7542 14.8 49.1642 14.93 48.2242 15.01C44.8242 15.27 43.0442 15.22 42.8842 14.86C42.8042 14.64 42.6642 13.38 42.4642 11.08C42.3442 9.56 42.2842 8.58 42.2842 8.14C42.2842 7.7 42.3642 7.41 42.5242 7.27C42.6642 7.13 42.9642 6.98 43.4242 6.82C43.8842 6.64 44.3942 6.49 44.9542 6.37C45.5142 6.25 45.9842 6.18 46.3642 6.16C47.0042 6.16 47.4842 6.09 47.8042 5.95ZM65.237 2.44C65.277 2.44 65.337 2.43 65.417 2.41C66.857 2.27 67.707 2.22 67.967 2.26C68.227 2.28 68.417 2.42 68.537 2.68C68.557 2.72 68.567 2.75 68.567 2.77C68.647 2.99 68.697 3.18 68.717 3.34C68.737 3.48 68.637 3.59 68.417 3.67C68.197 3.75 67.907 3.81 67.547 3.85C67.207 3.87 66.687 3.89 65.987 3.91C65.307 3.93 64.767 3.96 64.367 4C63.987 4.04 63.647 4.1 63.347 4.18C63.067 4.26 62.867 4.4 62.747 4.6C62.627 4.78 62.537 4.99 62.477 5.23C62.437 5.47 62.417 5.81 62.417 6.25V7.66L63.287 7.48C66.787 6.8 68.537 6.88 68.537 7.72C68.537 8.04 68.407 8.26 68.147 8.38C67.907 8.48 67.427 8.54 66.707 8.56C65.947 8.56 65.057 8.7 64.037 8.98C63.357 9.16 62.937 9.31 62.777 9.43C62.617 9.53 62.557 9.71 62.597 9.97C62.637 10.45 62.787 10.73 63.047 10.81C63.307 10.87 63.887 10.8 64.787 10.6C67.347 10.04 68.777 10 69.077 10.48C69.237 10.72 69.217 10.97 69.017 11.23C68.837 11.49 68.567 11.62 68.207 11.62C67.887 11.62 66.947 11.77 65.387 12.07C63.947 12.37 62.977 12.52 62.477 12.52C61.977 12.52 61.687 12.39 61.607 12.13C61.267 11.07 61.047 9.48 60.947 7.36C60.847 5.24 60.927 4.03 61.187 3.73C61.787 3.05 63.137 2.62 65.237 2.44ZM71.507 3.73C71.587 3.51 71.767 3.39 72.047 3.37C72.347 3.33 72.557 3.41 72.677 3.61C72.777 3.77 72.847 5.31 72.887 8.23V12.58L72.347 12.7C71.987 12.78 71.737 12.72 71.597 12.52C71.437 12.28 71.337 10.88 71.297 8.32C71.277 5.76 71.347 4.23 71.507 3.73ZM70.127 14.41C70.547 14.27 70.777 14.2 70.817 14.2C70.857 14.2 70.937 14.23 71.057 14.29C71.197 14.33 71.337 14.4 71.477 14.5C71.617 14.6 71.747 14.7 71.867 14.8C72.007 14.88 72.097 14.95 72.137 15.01C72.257 15.21 72.317 16.09 72.317 17.65C72.317 19.03 72.207 19.85 71.987 20.11C71.787 20.37 71.087 20.56 69.887 20.68C69.607 20.7 69.137 20.74 68.477 20.8C67.837 20.88 67.427 20.93 67.247 20.95C66.967 20.99 66.737 21.01 66.557 21.01C66.377 21.01 66.207 20.99 66.047 20.95C65.887 20.93 65.767 20.87 65.687 20.77C65.607 20.67 65.527 20.55 65.447 20.41C65.387 20.29 65.337 20.09 65.297 19.81C65.277 19.55 65.257 19.28 65.237 19C65.237 18.7 65.237 18.32 65.237 17.86C65.237 16.3 65.297 15.43 65.417 15.25C65.537 15.07 65.907 14.98 66.527 14.98C67.687 14.98 68.887 14.79 70.127 14.41ZM70.757 16.21L69.827 16.15C69.487 16.15 69.127 16.18 68.747 16.24C68.367 16.28 68.007 16.36 67.667 16.48C67.347 16.6 67.117 16.72 66.977 16.84C66.757 17.02 66.647 17.49 66.647 18.25V19.39L68.027 19.24C68.267 19.2 68.617 19.15 69.077 19.09C69.537 19.05 69.827 19.02 69.947 19C70.027 19 70.117 18.99 70.217 18.97C70.337 18.95 70.427 18.94 70.487 18.94C70.567 18.94 70.617 18.94 70.637 18.94C70.717 18.9 70.757 18.43 70.757 17.53V16.21ZM77.4536 6.1C78.5336 5.54 79.7136 5.71 80.9936 6.61C82.0336 7.31 82.7736 8.18 83.2136 9.22C83.6536 10.24 83.7336 11.28 83.4536 12.34C83.2736 13.08 83.0136 13.63 82.6736 13.99C82.3536 14.35 81.8336 14.68 81.1136 14.98C80.4136 15.28 79.7736 15.43 79.1936 15.43C78.7136 15.45 78.1936 15.36 77.6336 15.16C77.0736 14.96 76.5536 14.68 76.0736 14.32C75.6136 13.96 75.2436 13.58 74.9636 13.18C74.6836 12.74 74.5136 12.39 74.4536 12.13C74.3936 11.85 74.3836 11.4 74.4236 10.78C74.4836 9.82 74.6436 9.11 74.9036 8.65C75.1436 8.19 75.5136 7.71 76.0136 7.21C76.5136 6.71 76.9936 6.34 77.4536 6.1ZM80.2436 7.84C79.6636 7.42 79.1836 7.23 78.8036 7.27C78.4236 7.29 77.9636 7.54 77.4236 8.02C76.6236 8.78 76.1536 9.56 76.0136 10.36C75.8936 11.14 76.1236 11.88 76.7036 12.58C77.3836 13.4 78.2136 13.82 79.1936 13.84C80.1936 13.84 81.0136 13.42 81.6536 12.58C81.8536 12.34 81.9836 12.1 82.0436 11.86C82.1036 11.6 82.1136 11.22 82.0736 10.72C82.0136 10.08 81.8536 9.56 81.5936 9.16C81.3336 8.74 80.8836 8.3 80.2436 7.84ZM86.7836 6.34C86.8636 6.2 87.0936 6.15 87.4736 6.19C87.8536 6.23 88.0536 6.32 88.0736 6.46C88.1136 6.8 88.0336 9.58 87.8336 14.8L87.6536 18.55H86.9636C86.7636 18.55 86.6236 18.55 86.5436 18.55C86.4636 18.53 86.3936 18.48 86.3336 18.4C86.2736 18.3 86.2336 18.19 86.2136 18.07C86.2136 17.93 86.2036 17.7 86.1836 17.38C86.1436 16.72 86.2036 14.75 86.3636 11.47C86.5436 8.19 86.6836 6.48 86.7836 6.34ZM103.273 2.98C103.833 2.36 104.333 2.09 104.773 2.17C105.013 2.21 105.133 2.36 105.133 2.62C105.133 2.9 105.013 3.14 104.773 3.34C104.153 3.86 104.373 4.41 105.433 4.99C107.513 6.13 108.623 6.89 108.763 7.27C108.823 7.41 108.823 7.58 108.763 7.78C108.723 7.98 108.643 8.16 108.523 8.32C108.403 8.46 108.283 8.53 108.163 8.53C108.003 8.53 107.593 8.27 106.933 7.75C106.453 7.37 105.793 6.94 104.953 6.46C104.133 5.96 103.623 5.71 103.423 5.71C103.323 5.71 103.003 6.12 102.463 6.94C101.923 7.76 101.483 8.52 101.143 9.22C100.903 9.68 100.723 9.95 100.603 10.03C100.503 10.09 100.283 10.06 99.9435 9.94C99.8235 9.9 99.7035 9.85 99.5835 9.79C99.4835 9.71 99.3935 9.63 99.3135 9.55C99.2535 9.47 99.2235 9.4 99.2235 9.34C99.2235 9.12 99.6535 8.41 100.513 7.21C101.353 5.93 101.903 5.06 102.163 4.6C102.443 4.04 102.813 3.5 103.273 2.98ZM107.623 12.1C108.263 11.9 108.843 11.92 109.363 12.16C109.903 12.38 110.093 12.7 109.933 13.12C109.833 13.36 109.603 13.54 109.243 13.66C108.883 13.78 108.533 13.8 108.193 13.72C107.813 13.64 107.373 13.64 106.873 13.72L106.183 13.87L106.123 16.81C106.103 18.89 106.083 20 106.063 20.14C106.063 20.42 105.833 20.56 105.373 20.56C105.133 20.56 104.953 20.52 104.833 20.44C104.713 20.38 104.613 20.21 104.533 19.93C104.453 19.67 104.413 19.3 104.413 18.82C104.433 18.32 104.443 17.65 104.443 16.81C104.483 15.51 104.483 14.73 104.443 14.47C104.423 14.21 104.303 14.09 104.083 14.11C103.923 14.15 103.163 14.21 101.803 14.29C101.583 14.31 101.333 14.33 101.053 14.35C100.793 14.37 100.563 14.39 100.363 14.41C100.163 14.41 99.9635 14.42 99.7635 14.44C99.5635 14.46 99.4235 14.47 99.3435 14.47C99.0435 14.51 98.8435 14.5 98.7435 14.44C98.6635 14.36 98.6135 14.19 98.5935 13.93C98.5335 13.59 98.5835 13.34 98.7435 13.18C98.9235 13.02 99.2435 12.9 99.7035 12.82C100.163 12.74 100.923 12.69 101.983 12.67C104.923 12.55 106.803 12.36 107.623 12.1ZM117.573 2.05C117.753 1.85 118.033 1.94 118.413 2.32C118.553 2.46 118.643 2.73 118.683 3.13C118.743 3.53 118.773 4.28 118.773 5.38C118.773 7.14 118.693 8.07 118.533 8.17C118.313 8.31 117.743 8.48 116.823 8.68C116.763 8.68 116.683 8.7 116.583 8.74C115.103 9.08 114.233 9.32 113.973 9.46C113.713 9.6 113.583 9.87 113.583 10.27C113.583 10.31 113.583 10.33 113.583 10.33C113.583 10.83 113.703 11.14 113.943 11.26C114.203 11.36 114.693 11.33 115.413 11.17C116.353 10.99 117.253 10.86 118.113 10.78C118.833 10.7 119.293 10.68 119.493 10.72C119.693 10.74 119.823 10.84 119.883 11.02C120.043 11.42 119.953 11.73 119.613 11.95C119.293 12.15 118.573 12.33 117.453 12.49C115.913 12.71 114.783 12.81 114.063 12.79C113.343 12.77 112.853 12.61 112.593 12.31C112.353 12.01 112.173 11.44 112.053 10.6C111.953 9.74 111.993 9.15 112.173 8.83C112.253 8.69 112.413 8.55 112.653 8.41C112.913 8.27 113.303 8.12 113.823 7.96C114.363 7.78 115.113 7.56 116.073 7.3L117.243 6.97L117.273 5.5C117.293 4.5 117.193 3.96 116.973 3.88C116.733 3.8 115.923 3.93 114.543 4.27C113.343 4.57 112.533 4.7 112.113 4.66C111.693 4.6 111.483 4.36 111.483 3.94C111.483 3.6 111.713 3.34 112.173 3.16C112.633 2.98 113.643 2.77 115.203 2.53C116.703 2.27 117.493 2.11 117.573 2.05ZM123.543 3.28C123.703 3 123.953 2.88 124.293 2.92C124.533 2.96 124.673 3.09 124.713 3.31C124.773 3.53 124.803 4.18 124.803 5.26C124.803 5.4 124.803 5.59 124.803 5.83C124.803 6.69 124.863 7.18 124.983 7.3C125.103 7.42 125.543 7.42 126.303 7.3C126.543 7.26 126.723 7.23 126.843 7.21C127.323 7.15 127.643 7.14 127.803 7.18C127.963 7.22 128.093 7.34 128.193 7.54C128.393 7.92 128.413 8.22 128.253 8.44C128.113 8.66 127.823 8.77 127.383 8.77C126.803 8.77 126.183 8.86 125.523 9.04L124.473 9.34V11.44V13.51L123.693 13.45C123.293 13.41 123.063 13.33 123.003 13.21C122.943 13.09 122.923 12.71 122.943 12.07C122.963 10.39 123.043 8.55 123.183 6.55C123.323 4.55 123.443 3.46 123.543 3.28ZM122.313 15.49C122.373 15.39 122.653 15.37 123.153 15.43C123.633 15.49 123.963 15.76 124.143 16.24C124.343 16.72 124.473 17.74 124.533 19.3L124.653 21.97L123.963 22.09C123.483 22.21 123.183 22.21 123.063 22.09C122.943 21.97 122.873 21.14 122.853 19.6C122.773 18.02 122.633 17.19 122.433 17.11C122.213 17.03 121.443 17.16 120.123 17.5C118.923 17.8 118.103 17.94 117.663 17.92C117.243 17.9 117.003 17.71 116.943 17.35C116.903 16.97 117.133 16.67 117.633 16.45C118.133 16.21 119.003 16.01 120.243 15.85C121.503 15.69 122.193 15.57 122.313 15.49ZM134.052 2.08C134.192 1.96 134.392 1.92 134.652 1.96C134.932 2 135.152 2.12 135.312 2.32C135.532 2.58 135.622 3.25 135.582 4.33L135.522 5.98L137.232 5.83C138.372 5.73 139.062 5.65 139.302 5.59C139.542 5.51 139.762 5.58 139.962 5.8C140.162 6.02 140.252 6.28 140.232 6.58C140.232 6.86 140.132 7.11 139.932 7.33C139.712 7.53 139.402 7.53 139.002 7.33C138.742 7.21 138.482 7.16 138.222 7.18C137.982 7.2 137.572 7.28 136.992 7.42C135.932 7.7 134.982 7.88 134.142 7.96C133.082 8.06 132.212 8.23 131.532 8.47C131.052 8.65 130.752 8.74 130.632 8.74C130.512 8.74 130.372 8.63 130.212 8.41C129.992 8.13 129.882 7.93 129.882 7.81C129.882 7.33 130.722 6.94 132.402 6.64L134.202 6.34L134.052 4.27C133.952 2.93 133.952 2.2 134.052 2.08ZM143.322 7.51C143.502 7.27 143.652 7.15 143.772 7.15C143.912 7.15 144.082 7.26 144.282 7.48C144.482 7.72 144.512 8.64 144.372 10.24L144.222 12.61L145.362 12.46C145.502 12.44 145.662 12.42 145.842 12.4C146.022 12.36 146.172 12.33 146.292 12.31C146.432 12.27 146.562 12.24 146.682 12.22C146.822 12.2 146.922 12.18 146.982 12.16C147.262 12.1 147.542 12.18 147.822 12.4C148.122 12.62 148.272 12.86 148.272 13.12C148.272 13.5 147.722 13.75 146.622 13.87C145.362 13.99 144.652 14.13 144.492 14.29C144.332 14.41 144.252 14.84 144.252 15.58C144.252 15.64 144.252 15.74 144.252 15.88C144.212 17.46 144.162 18.38 144.102 18.64C144.062 18.9 143.902 19.05 143.622 19.09C143.582 19.09 143.552 19.09 143.532 19.09C143.252 19.13 143.062 19.11 142.962 19.03C142.882 18.95 142.812 18.74 142.752 18.4C142.672 18.04 142.642 17.29 142.662 16.15C142.702 14.99 142.752 13.8 142.812 12.58C142.872 11.34 142.942 10.21 143.022 9.19C143.122 8.17 143.222 7.61 143.322 7.51ZM135.432 9.16C135.692 9.08 135.992 9.08 136.332 9.16C136.692 9.22 136.952 9.25 137.112 9.25C137.312 9.25 137.842 9.66 138.702 10.48C139.422 11.18 139.882 11.83 140.082 12.43C140.282 13.01 140.272 13.67 140.052 14.41C139.812 15.21 139.422 15.91 138.882 16.51C138.362 17.09 137.772 17.5 137.112 17.74C136.472 17.96 135.822 18.07 135.162 18.07C134.502 18.05 133.892 17.84 133.332 17.44C132.772 17.04 132.332 16.49 132.012 15.79C131.692 15.05 131.532 14.51 131.532 14.17C131.532 13.87 131.662 13.38 131.922 12.7C132.202 12 132.492 11.46 132.792 11.08C132.952 10.86 133.192 10.62 133.512 10.36C133.832 10.08 134.162 9.83 134.502 9.61C134.862 9.39 135.172 9.24 135.432 9.16ZM137.982 11.62C137.082 10.66 136.092 10.54 135.012 11.26C134.192 11.82 133.652 12.53 133.392 13.39C133.152 14.23 133.242 14.97 133.662 15.61C134.082 16.25 134.742 16.57 135.642 16.57C136.202 16.57 136.672 16.46 137.052 16.24C137.432 16 137.792 15.61 138.132 15.07C138.492 14.47 138.652 13.86 138.612 13.24C138.592 12.6 138.382 12.06 137.982 11.62ZM162.254 1.27C162.354 1.11 162.464 1.03 162.584 1.03C162.704 1.03 162.894 1.13 163.154 1.33C163.254 1.39 163.324 1.49 163.364 1.63C163.424 1.77 163.464 2.06 163.484 2.5C163.524 2.92 163.544 3.45 163.544 4.09C163.564 4.71 163.574 5.64 163.574 6.88C163.614 10.38 163.554 12.21 163.394 12.37C163.214 12.53 162.964 12.55 162.644 12.43C162.344 12.29 162.144 12.07 162.044 11.77C161.964 11.39 161.924 10.73 161.924 9.79C161.924 8.93 161.834 8.46 161.654 8.38C161.494 8.28 160.944 8.41 160.004 8.77C159.284 9.07 158.744 9.21 158.384 9.19C158.024 9.15 157.774 8.95 157.634 8.59C157.494 8.23 157.564 7.94 157.844 7.72C158.144 7.5 158.654 7.34 159.374 7.24C160.254 7.12 160.934 6.96 161.414 6.76C161.774 6.6 161.984 6.47 162.044 6.37C162.124 6.25 162.124 6.02 162.044 5.68C161.964 5.2 161.894 4.92 161.834 4.84C161.654 4.66 160.974 4.7 159.794 4.96C158.814 5.14 158.124 5.15 157.724 4.99C157.344 4.81 157.254 4.43 157.454 3.85C157.534 3.63 157.654 3.49 157.814 3.43C157.974 3.37 158.314 3.34 158.834 3.34C159.514 3.34 160.264 3.3 161.084 3.22C161.604 3.12 161.904 3.03 161.984 2.95C162.084 2.87 162.124 2.66 162.104 2.32C162.084 1.84 162.134 1.49 162.254 1.27ZM153.734 2.71C154.014 2.39 154.294 2.22 154.574 2.2C154.874 2.16 155.074 2.28 155.174 2.56C155.334 2.92 155.014 3.64 154.214 4.72C153.894 5.16 153.784 5.53 153.884 5.83C153.984 6.11 154.504 6.88 155.444 8.14C156.084 8.98 156.474 9.61 156.614 10.03C156.774 10.45 156.704 10.71 156.404 10.81C156.224 10.89 156.034 10.89 155.834 10.81C155.654 10.71 155.424 10.52 155.144 10.24C154.884 9.94 154.534 9.49 154.094 8.89C153.254 7.83 152.754 7.27 152.594 7.21C152.474 7.17 152.264 7.51 151.964 8.23C151.684 8.93 151.544 9.46 151.544 9.82C151.544 10.12 151.324 10.34 150.884 10.48C150.464 10.62 150.154 10.57 149.954 10.33C149.794 10.19 149.744 9.99 149.804 9.73C149.864 9.47 150.074 8.96 150.434 8.2C150.934 7.12 151.534 6.07 152.234 5.05C152.894 4.11 153.224 3.57 153.224 3.43C153.224 3.33 153.394 3.09 153.734 2.71ZM156.794 14.23C157.194 13.81 157.444 13.58 157.544 13.54C157.664 13.5 157.884 13.56 158.204 13.72C158.744 14.04 158.734 14.46 158.174 14.98C157.834 15.24 157.664 15.48 157.664 15.7C157.664 15.86 157.754 16.05 157.934 16.27C158.114 16.49 158.344 16.7 158.624 16.9C158.904 17.1 159.194 17.26 159.494 17.38C160.114 17.64 160.444 17.73 160.484 17.65C160.504 17.61 160.514 17.54 160.514 17.44C160.514 17.26 160.784 16.59 161.324 15.43C161.624 14.83 161.864 14.4 162.044 14.14C162.244 13.86 162.414 13.74 162.554 13.78C162.734 13.8 162.894 13.88 163.034 14.02C163.174 14.16 163.254 14.33 163.274 14.53C163.314 14.71 163.304 14.89 163.244 15.07C163.044 15.45 163.034 15.8 163.214 16.12C163.414 16.42 163.934 16.98 164.774 17.8C166.054 19.08 166.554 19.82 166.274 20.02C166.174 20.08 166.014 20.11 165.794 20.11C165.374 20.11 164.974 19.99 164.594 19.75C164.234 19.51 163.764 19.08 163.184 18.46C162.604 17.84 162.224 17.57 162.044 17.65C161.884 17.73 161.684 18.27 161.444 19.27C161.264 20.01 161.104 20.46 160.964 20.62C160.844 20.78 160.614 20.8 160.274 20.68C159.954 20.6 159.794 20.34 159.794 19.9C159.794 19.54 159.714 19.24 159.554 19C159.394 18.78 159.194 18.67 158.954 18.67C158.754 18.67 158.314 18.44 157.634 17.98C157.054 17.54 156.664 17.38 156.464 17.5C156.284 17.6 156.064 18.09 155.804 18.97C155.624 19.55 155.474 19.9 155.354 20.02C155.254 20.16 155.044 20.23 154.724 20.23C154.444 20.23 154.254 20.19 154.154 20.11C154.054 20.03 153.994 19.89 153.974 19.69C153.914 19.35 154.244 18.5 154.964 17.14C155.684 15.76 156.294 14.79 156.794 14.23ZM172.621 1.27C173.081 0.79 173.471 0.659999 173.791 0.879999C174.071 1.06 174.051 1.41 173.731 1.93C173.571 2.21 173.621 2.5 173.881 2.8C174.141 3.08 174.711 3.46 175.591 3.94C176.531 4.46 177.131 4.88 177.391 5.2C177.671 5.5 177.711 5.83 177.511 6.19C177.371 6.45 177.191 6.6 176.971 6.64C176.751 6.66 176.531 6.56 176.311 6.34C176.151 6.14 175.621 5.76 174.721 5.2C173.821 4.64 173.201 4.3 172.861 4.18C172.681 4.12 172.521 4.15 172.381 4.27C172.241 4.39 172.051 4.65 171.811 5.05C171.391 5.77 171.061 6.46 170.821 7.12C170.641 7.58 170.491 7.87 170.371 7.99C170.271 8.11 170.081 8.16 169.801 8.14C169.561 8.12 169.361 8.07 169.201 7.99C169.041 7.89 168.931 7.77 168.871 7.63C168.831 7.49 168.831 7.33 168.871 7.15C168.951 6.97 169.261 6.44 169.801 5.56C170.341 4.66 170.901 3.77 171.481 2.89C172.081 1.99 172.461 1.45 172.621 1.27ZM176.851 9.76C177.371 9.52 177.841 9.48 178.261 9.64C178.681 9.78 178.891 10.05 178.891 10.45C178.891 10.77 178.691 11 178.291 11.14C177.891 11.28 177.071 11.39 175.831 11.47C174.191 11.59 172.551 11.81 170.911 12.13C169.771 12.35 169.031 12.47 168.691 12.49C168.351 12.51 168.131 12.44 168.031 12.28C167.891 12.04 167.831 11.86 167.851 11.74C167.891 11.6 168.041 11.4 168.301 11.14C168.621 10.82 169.211 10.66 170.071 10.66C170.931 10.66 171.381 10.67 171.421 10.69C171.501 10.69 171.731 10.61 172.111 10.45C172.571 10.31 173.361 10.2 174.481 10.12C175.641 10.02 176.431 9.9 176.851 9.76ZM176.971 12.94C177.111 12.8 177.311 12.76 177.571 12.82C177.851 12.86 178.071 12.97 178.231 13.15C178.351 13.29 178.411 13.48 178.411 13.72C178.411 13.94 178.361 14.33 178.261 14.89C178.061 15.73 177.961 16.76 177.961 17.98C177.961 18.46 177.951 18.82 177.931 19.06C177.931 19.3 177.881 19.55 177.781 19.81C177.681 20.07 177.571 20.24 177.451 20.32C177.351 20.42 177.131 20.52 176.791 20.62C176.451 20.74 176.111 20.82 175.771 20.86C175.451 20.9 174.961 20.95 174.301 21.01C174.241 21.03 174.151 21.04 174.031 21.04C173.531 21.1 173.171 21.14 172.951 21.16C172.731 21.2 172.471 21.21 172.171 21.19C171.871 21.17 171.671 21.15 171.571 21.13C171.471 21.13 171.341 21.06 171.181 20.92C171.021 20.78 170.931 20.66 170.911 20.56C170.891 20.48 170.851 20.27 170.791 19.93C170.751 19.61 170.721 19.34 170.701 19.12C170.701 18.9 170.701 18.53 170.701 18.01C170.701 17.85 170.701 17.73 170.701 17.65C170.661 16.47 170.651 15.68 170.671 15.28C170.711 14.88 170.811 14.6 170.971 14.44C171.291 14.18 171.551 14.14 171.751 14.32C171.971 14.48 172.081 14.84 172.081 15.4V16.39L173.551 16.24C174.451 16.14 175.231 15.99 175.891 15.79C176.331 15.65 176.591 15.52 176.671 15.4C176.751 15.26 176.791 14.89 176.791 14.29C176.791 13.47 176.851 13.02 176.971 12.94ZM176.191 18.91C176.431 18.71 176.551 18.43 176.551 18.07C176.551 17.69 176.491 17.48 176.371 17.44C176.211 17.38 175.481 17.47 174.181 17.71L172.201 18.07L172.261 18.79C172.321 19.25 172.381 19.52 172.441 19.6C172.461 19.64 172.661 19.63 173.041 19.57C173.421 19.53 173.821 19.47 174.241 19.39C174.681 19.31 175.101 19.22 175.501 19.12C175.901 19.04 176.131 18.97 176.191 18.91ZM192 4.96C192.14 4.84 192.37 4.8 192.69 4.84C192.83 4.86 192.92 4.89 192.96 4.93C193.02 4.97 193.07 5.09 193.11 5.29C193.17 5.49 193.2 5.75 193.2 6.07C193.22 6.37 193.24 6.84 193.26 7.48C193.3 9.34 193.26 11.61 193.14 14.29L192.96 18.55H192.24H191.52L191.55 16.69C191.55 13.51 191.59 10.78 191.67 8.5C191.77 6.22 191.88 5.04 192 4.96ZM180.72 5.68C180.94 5.44 181.1 5.31 181.2 5.29C181.3 5.25 181.46 5.3 181.68 5.44C181.86 5.56 181.97 6.83 182.01 9.25L182.1 12.91H184.59C186.25 12.91 187.37 12.86 187.95 12.76C188.45 12.66 188.8 12.7 189 12.88C189.22 13.04 189.3 13.36 189.24 13.84L189.18 14.47L185.13 14.53C182.43 14.61 180.99 14.55 180.81 14.35C180.65 14.11 180.53 12.69 180.45 10.09C180.39 8.33 180.37 7.21 180.39 6.73C180.43 6.23 180.54 5.88 180.72 5.68ZM207.405 5.23C207.465 5.11 207.595 5.04 207.795 5.02C208.015 5 208.255 5.05 208.515 5.17C208.675 5.23 208.775 5.44 208.815 5.8C208.875 6.16 208.905 6.91 208.905 8.05C208.905 9.91 208.945 10.87 209.025 10.93C209.065 10.99 209.785 10.97 211.185 10.87C212.465 10.73 213.305 10.7 213.705 10.78C214.125 10.86 214.335 11.09 214.335 11.47C214.335 11.55 214.325 11.62 214.305 11.68C214.305 11.74 214.275 11.8 214.215 11.86C214.175 11.92 214.125 11.97 214.065 12.01C214.025 12.05 213.945 12.09 213.825 12.13C213.705 12.17 213.575 12.2 213.435 12.22C213.295 12.24 213.105 12.27 212.865 12.31C212.645 12.33 212.405 12.35 212.145 12.37C211.905 12.39 211.585 12.42 211.185 12.46C209.805 12.56 209.055 12.7 208.935 12.88C208.855 13.02 208.795 13.88 208.755 15.46C208.735 17 208.695 17.79 208.635 17.83C208.615 17.87 208.425 17.95 208.065 18.07C207.645 18.19 207.385 18.07 207.285 17.71C207.165 17.27 207.165 15.82 207.285 13.36C207.445 10.58 207.485 8.56 207.405 7.3C207.285 6.06 207.285 5.37 207.405 5.23ZM198.885 6.07C200.225 5.85 201.175 5.75 201.735 5.77C202.295 5.77 202.615 5.88 202.695 6.1C202.835 6.46 202.775 6.74 202.515 6.94C202.275 7.14 201.835 7.25 201.195 7.27C199.375 7.29 197.975 7.52 196.995 7.96L196.245 8.23L196.335 10.45C196.375 11.05 196.395 11.49 196.395 11.77C196.415 12.05 196.455 12.34 196.515 12.64C196.575 12.94 196.635 13.14 196.695 13.24C196.755 13.32 196.865 13.42 197.025 13.54C197.205 13.64 197.365 13.7 197.505 13.72C197.665 13.74 197.905 13.76 198.225 13.78C199.125 13.86 200.045 13.85 200.985 13.75C202.485 13.53 203.235 13.74 203.235 14.38C203.235 14.62 203.195 14.8 203.115 14.92C203.055 15.04 202.865 15.14 202.545 15.22C202.245 15.3 201.845 15.35 201.345 15.37C200.865 15.39 200.145 15.4 199.185 15.4C199.005 15.4 198.755 15.4 198.435 15.4C197.955 15.4 197.615 15.4 197.415 15.4C197.215 15.4 196.955 15.38 196.635 15.34C196.335 15.3 196.145 15.28 196.065 15.28C195.985 15.26 195.865 15.19 195.705 15.07C195.545 14.93 195.445 14.82 195.405 14.74C195.385 14.64 195.335 14.46 195.255 14.2C195.195 13.94 195.155 13.72 195.135 13.54C195.135 13.34 195.105 13.03 195.045 12.61C195.025 12.31 195.005 12.07 194.985 11.89C194.805 10.07 194.725 8.83 194.745 8.17C194.765 7.51 194.895 7.12 195.135 7C195.995 6.66 197.245 6.35 198.885 6.07ZM216.469 16.72C216.769 16.58 217.019 16.53 217.219 16.57C217.439 16.59 217.679 16.72 217.939 16.96C218.159 17.14 218.299 17.29 218.359 17.41C218.419 17.51 218.449 17.67 218.449 17.89C218.449 18.87 217.949 19.36 216.949 19.36C216.809 19.36 216.689 19.35 216.589 19.33C216.509 19.31 216.439 19.27 216.379 19.21C216.319 19.17 216.239 19.1 216.139 19C215.939 18.76 215.839 18.41 215.839 17.95C215.839 17.59 215.879 17.33 215.959 17.17C216.039 17.01 216.209 16.86 216.469 16.72ZM11.5252 37.98C11.6052 37.76 11.7852 37.65 12.0652 37.65C12.4652 37.65 12.7152 37.81 12.8152 38.13C12.9152 38.43 12.8952 39.05 12.7552 39.99C12.6152 41.11 12.6252 41.76 12.7852 41.94C12.9652 42.1 13.5852 42.08 14.6452 41.88C15.5852 41.72 16.2152 41.68 16.5352 41.76C16.8552 41.82 17.0152 42.04 17.0152 42.42C17.0152 42.68 16.9452 42.85 16.8052 42.93C16.6852 43.01 16.3852 43.08 15.9052 43.14C15.1652 43.22 14.3952 43.39 13.5952 43.65L12.3952 44.04L12.5152 45.69L12.6352 47.31H11.8552C11.3552 47.31 11.0552 47.19 10.9552 46.95C10.8752 46.75 10.9152 45.27 11.0752 42.51C11.2552 39.75 11.4052 38.24 11.5252 37.98ZM4.53516 39.03C4.93516 38.57 5.29516 38.25 5.61516 38.07C5.95516 37.89 6.18516 37.85 6.30516 37.95C6.44516 38.05 6.45516 38.28 6.33516 38.64C6.21516 39 5.96516 39.43 5.58516 39.93C5.02516 40.59 4.74516 41.03 4.74516 41.25C4.74516 41.33 4.86516 41.48 5.10516 41.7C5.34516 41.9 5.61516 42.1 5.91516 42.3C7.51516 43.38 8.31516 44.25 8.31516 44.91C8.31516 45.89 7.68516 45.81 6.42516 44.67C5.94516 44.19 5.42516 43.77 4.86516 43.41C4.30516 43.03 3.92516 42.84 3.72516 42.84C3.60516 42.84 3.37516 43.21 3.03516 43.95C2.69516 44.69 2.49516 45.26 2.43516 45.66C2.37516 46.04 2.28516 46.28 2.16516 46.38C2.06516 46.46 1.86516 46.5 1.56516 46.5C1.26516 46.5 1.06516 46.46 0.965156 46.38C0.865156 46.3 0.805156 46.13 0.785156 45.87C0.725156 45.37 1.10516 44.37 1.92516 42.87C2.76516 41.37 3.63516 40.09 4.53516 39.03ZM8.10516 48.72C8.80516 48.46 9.37516 48.36 9.81516 48.42C10.2552 48.46 10.7852 48.68 11.4052 49.08C12.7652 49.98 13.3552 51.28 13.1752 52.98C13.1152 53.74 12.9552 54.34 12.6952 54.78C12.4352 55.22 11.9952 55.64 11.3752 56.04C11.0352 56.26 10.7352 56.39 10.4752 56.43C10.2352 56.49 9.85516 56.49 9.33516 56.43C8.49516 56.33 7.83516 56.17 7.35516 55.95C6.89516 55.75 6.44516 55.4 6.00516 54.9C5.34516 54.14 5.02516 53.28 5.04516 52.32C5.06516 51.34 5.42516 50.52 6.12516 49.86C6.56516 49.4 7.22516 49.02 8.10516 48.72ZM11.1052 50.73C10.2852 49.91 9.29516 49.79 8.13516 50.37C7.57516 50.63 7.18516 50.92 6.96516 51.24C6.74516 51.56 6.63516 52 6.63516 52.56C6.63516 52.86 6.71516 53.17 6.87516 53.49C7.05516 53.79 7.28516 54.06 7.56516 54.3C7.86516 54.54 8.16516 54.7 8.46516 54.78C8.90516 54.9 9.40516 54.89 9.96516 54.75C10.5452 54.61 10.9552 54.41 11.1952 54.15C11.5752 53.77 11.7552 53.21 11.7352 52.47C11.7152 51.71 11.5052 51.13 11.1052 50.73ZM29.3698 41.13C29.5298 40.69 29.7898 40.47 30.1498 40.47C30.2898 40.47 30.3998 40.49 30.4798 40.53C30.5798 40.57 30.6598 40.65 30.7198 40.77C30.7798 40.87 30.8198 41 30.8398 41.16C30.8598 41.32 30.8598 41.56 30.8398 41.88C30.8398 42.2 30.8198 42.56 30.7798 42.96C30.7398 43.34 30.6898 43.83 30.6298 44.43L30.5098 45.24L31.7698 45.06C32.8898 44.92 33.5498 44.75 33.7498 44.55C33.9498 44.35 34.0498 43.79 34.0498 42.87C34.0498 41.37 34.2798 40.61 34.7398 40.59C34.8798 40.59 35.0298 40.63 35.1898 40.71C35.4298 40.83 35.5698 40.97 35.6098 41.13C35.6498 41.27 35.6398 41.55 35.5798 41.97C35.4798 42.79 35.3898 44.71 35.3098 47.73C35.2498 50.09 35.1798 51.49 35.0998 51.93C35.0398 52.37 34.8798 52.65 34.6198 52.77C34.2398 52.95 33.9898 52.98 33.8698 52.86C33.7498 52.72 33.7098 51.66 33.7498 49.68C33.7898 47.92 33.7198 46.92 33.5398 46.68C33.3798 46.42 32.7898 46.44 31.7698 46.74L30.4498 47.1L30.5398 49.47C30.5798 50.51 30.5798 51.19 30.5398 51.51C30.4998 51.81 30.3898 52.01 30.2098 52.11C29.9298 52.29 29.6598 52.29 29.3998 52.11C29.1998 52.01 29.0798 51.68 29.0398 51.12C28.9998 50.54 28.9998 49.11 29.0398 46.83C29.0998 43.45 29.2098 41.55 29.3698 41.13ZM24.0298 40.95C24.3298 40.81 24.7598 40.76 25.3198 40.8C25.6798 40.82 25.9098 40.87 26.0098 40.95C26.1098 41.03 26.1598 41.23 26.1598 41.55V42.24L23.6398 42.51C21.8998 42.73 20.8498 42.91 20.4898 43.05C20.1898 43.17 20.0098 43.29 19.9498 43.41C19.9098 43.51 19.9198 43.71 19.9798 44.01C20.0798 44.61 20.1298 45.35 20.1298 46.23C20.1298 47.21 20.2398 47.84 20.4598 48.12C20.6998 48.38 21.2598 48.52 22.1398 48.54C23.1198 48.54 23.9898 48.48 24.7498 48.36C25.2898 48.28 25.6398 48.26 25.7998 48.3C25.9798 48.34 26.1298 48.46 26.2498 48.66C26.4898 49.12 26.4798 49.44 26.2198 49.62C25.9798 49.8 25.3898 49.93 24.4498 50.01C21.0498 50.27 19.2698 50.22 19.1098 49.86C19.0298 49.64 18.8898 48.38 18.6898 46.08C18.5698 44.56 18.5098 43.58 18.5098 43.14C18.5098 42.7 18.5898 42.41 18.7498 42.27C18.8898 42.13 19.1898 41.98 19.6498 41.82C20.1098 41.64 20.6198 41.49 21.1798 41.37C21.7398 41.25 22.2098 41.18 22.5898 41.16C23.2298 41.16 23.7098 41.09 24.0298 40.95ZM41.4626 37.44C41.5026 37.44 41.5626 37.43 41.6426 37.41C43.0826 37.27 43.9326 37.22 44.1926 37.26C44.4526 37.28 44.6426 37.42 44.7626 37.68C44.7826 37.72 44.7926 37.75 44.7926 37.77C44.8726 37.99 44.9226 38.18 44.9426 38.34C44.9626 38.48 44.8626 38.59 44.6426 38.67C44.4226 38.75 44.1326 38.81 43.7726 38.85C43.4326 38.87 42.9126 38.89 42.2126 38.91C41.5326 38.93 40.9926 38.96 40.5926 39C40.2126 39.04 39.8726 39.1 39.5726 39.18C39.2926 39.26 39.0926 39.4 38.9726 39.6C38.8526 39.78 38.7626 39.99 38.7026 40.23C38.6626 40.47 38.6426 40.81 38.6426 41.25V42.66L39.5126 42.48C43.0126 41.8 44.7626 41.88 44.7626 42.72C44.7626 43.04 44.6326 43.26 44.3726 43.38C44.1326 43.48 43.6526 43.54 42.9326 43.56C42.1726 43.56 41.2826 43.7 40.2626 43.98C39.5826 44.16 39.1626 44.31 39.0026 44.43C38.8426 44.53 38.7826 44.71 38.8226 44.97C38.8626 45.45 39.0126 45.73 39.2726 45.81C39.5326 45.87 40.1126 45.8 41.0126 45.6C43.5726 45.04 45.0026 45 45.3026 45.48C45.4626 45.72 45.4426 45.97 45.2426 46.23C45.0626 46.49 44.7926 46.62 44.4326 46.62C44.1126 46.62 43.1726 46.77 41.6126 47.07C40.1726 47.37 39.2026 47.52 38.7026 47.52C38.2026 47.52 37.9126 47.39 37.8326 47.13C37.4926 46.07 37.2726 44.48 37.1726 42.36C37.0726 40.24 37.1526 39.03 37.4126 38.73C38.0126 38.05 39.3626 37.62 41.4626 37.44ZM47.7326 38.73C47.8126 38.51 47.9926 38.39 48.2726 38.37C48.5726 38.33 48.7826 38.41 48.9026 38.61C49.0026 38.77 49.0726 40.31 49.1126 43.23V47.58L48.5726 47.7C48.2126 47.78 47.9626 47.72 47.8226 47.52C47.6626 47.28 47.5626 45.88 47.5226 43.32C47.5026 40.76 47.5726 39.23 47.7326 38.73ZM46.3526 49.41C46.7726 49.27 47.0026 49.2 47.0426 49.2C47.0826 49.2 47.1626 49.23 47.2826 49.29C47.4226 49.33 47.5626 49.4 47.7026 49.5C47.8426 49.6 47.9726 49.7 48.0926 49.8C48.2326 49.88 48.3226 49.95 48.3626 50.01C48.4826 50.21 48.5426 51.09 48.5426 52.65C48.5426 54.03 48.4326 54.85 48.2126 55.11C48.0126 55.37 47.3126 55.56 46.1126 55.68C45.8326 55.7 45.3626 55.74 44.7026 55.8C44.0626 55.88 43.6526 55.93 43.4726 55.95C43.1926 55.99 42.9626 56.01 42.7826 56.01C42.6026 56.01 42.4326 55.99 42.2726 55.95C42.1126 55.93 41.9926 55.87 41.9126 55.77C41.8326 55.67 41.7526 55.55 41.6726 55.41C41.6126 55.29 41.5626 55.09 41.5226 54.81C41.5026 54.55 41.4826 54.28 41.4626 54C41.4626 53.7 41.4626 53.32 41.4626 52.86C41.4626 51.3 41.5226 50.43 41.6426 50.25C41.7626 50.07 42.1326 49.98 42.7526 49.98C43.9126 49.98 45.1126 49.79 46.3526 49.41ZM46.9826 51.21L46.0526 51.15C45.7126 51.15 45.3526 51.18 44.9726 51.24C44.5926 51.28 44.2326 51.36 43.8926 51.48C43.5726 51.6 43.3426 51.72 43.2026 51.84C42.9826 52.02 42.8726 52.49 42.8726 53.25V54.39L44.2526 54.24C44.4926 54.2 44.8426 54.15 45.3026 54.09C45.7626 54.05 46.0526 54.02 46.1726 54C46.2526 54 46.3426 53.99 46.4426 53.97C46.5626 53.95 46.6526 53.94 46.7126 53.94C46.7926 53.94 46.8426 53.94 46.8626 53.94C46.9426 53.9 46.9826 53.43 46.9826 52.53V51.21ZM55.6891 38.73C56.7491 38.57 57.4791 38.51 57.8791 38.55C58.2791 38.57 58.5691 38.69 58.7491 38.91C58.9091 39.09 58.9391 40.22 58.8391 42.3C58.7791 43.8 58.7091 44.71 58.6291 45.03C58.5691 45.33 58.4191 45.51 58.1791 45.57C57.6391 45.71 57.3191 45.63 57.2191 45.33C57.1391 45.03 57.1391 44.2 57.2191 42.84C57.3191 41.14 57.2891 40.25 57.1291 40.17C56.9891 40.07 55.9491 40.21 54.0091 40.59C52.7691 40.85 51.9591 41 51.5791 41.04C51.1991 41.06 50.9391 41 50.7991 40.86C50.6591 40.72 50.5991 40.61 50.6191 40.53C50.6391 40.43 50.7591 40.27 50.9791 40.05C51.5591 39.51 53.1291 39.07 55.6891 38.73ZM64.2691 41.01C64.4491 40.79 64.7291 40.71 65.1091 40.77C65.1291 40.77 65.1691 40.77 65.2291 40.77C65.4891 40.79 65.6291 40.92 65.6491 41.16C65.6691 41.38 65.6091 42.16 65.4691 43.5C65.4291 43.76 65.4091 43.97 65.4091 44.13C65.2891 45.41 65.2691 46.1 65.3491 46.2C65.4291 46.3 66.2391 46.23 67.7791 45.99C69.2591 45.73 70.1391 45.65 70.4191 45.75C70.6591 45.85 70.7791 46.09 70.7791 46.47C70.7791 46.55 70.7791 46.62 70.7791 46.68C70.7791 46.72 70.7691 46.77 70.7491 46.83C70.7291 46.89 70.6991 46.94 70.6591 46.98C70.6191 47 70.5791 47.03 70.5391 47.07C70.4991 47.09 70.4291 47.12 70.3291 47.16C70.2291 47.18 70.1191 47.2 69.9991 47.22C69.8991 47.24 69.7591 47.26 69.5791 47.28C69.4191 47.3 69.2491 47.33 69.0691 47.37C68.8891 47.39 68.6591 47.41 68.3791 47.43C67.3591 47.55 66.5691 47.7 66.0091 47.88L65.0491 48.15L65.0791 50.37C65.1191 51.25 65.1091 51.87 65.0491 52.23C65.0091 52.57 64.9091 52.83 64.7491 53.01C64.5091 53.29 64.2791 53.43 64.0591 53.43C63.8391 53.43 63.6691 53.29 63.5491 53.01C63.4091 52.73 63.3991 51.74 63.5191 50.04C63.5791 49.2 63.6891 47.3 63.8491 44.34C63.9691 42.3 64.1091 41.19 64.2691 41.01ZM53.8591 46.17C53.9791 45.99 54.1291 45.86 54.3091 45.78C54.4891 45.68 54.6491 45.65 54.7891 45.69C54.9291 45.71 55.0191 45.8 55.0591 45.96C55.0591 46 55.0591 46.12 55.0591 46.32C55.0591 46.5 55.0691 46.75 55.0891 47.07C55.1091 47.37 55.1191 47.65 55.1191 47.91C55.1391 48.97 55.2191 49.62 55.3591 49.86C55.4991 50.08 55.8791 50.14 56.4991 50.04C58.1591 49.72 59.2091 49.78 59.6491 50.22C59.9691 50.54 60.0191 50.83 59.7991 51.09C59.5991 51.33 59.1991 51.46 58.5991 51.48C57.3391 51.5 55.3391 51.78 52.5991 52.32C51.8391 52.46 51.3391 52.49 51.0991 52.41C50.8591 52.33 50.7391 52.09 50.7391 51.69C50.7391 51.07 51.4591 50.7 52.8991 50.58L53.7091 50.52L53.6191 48.57C53.5791 47.31 53.6591 46.51 53.8591 46.17ZM76.1095 39.39C76.2295 39.35 76.3595 39.31 76.4995 39.27C76.6395 39.23 76.7495 39.2 76.8295 39.18C76.9295 39.16 77.0195 39.14 77.0995 39.12C77.1795 39.1 77.2295 39.08 77.2495 39.06C77.3895 39.04 77.8295 39.25 78.5695 39.69C79.3095 40.13 79.7695 40.45 79.9495 40.65C80.9495 41.93 81.3395 43.23 81.1195 44.55C80.9195 45.85 80.1495 46.83 78.8095 47.49C78.3095 47.71 77.9295 47.84 77.6695 47.88C77.4095 47.92 76.9295 47.88 76.2295 47.76C75.1895 47.6 74.3995 47.34 73.8595 46.98C73.3195 46.62 72.8995 46.07 72.5995 45.33C72.0795 44.09 72.1595 42.9 72.8395 41.76C73.5395 40.6 74.6295 39.81 76.1095 39.39ZM78.3295 41.07C77.9095 40.85 77.5495 40.75 77.2495 40.77C76.9495 40.77 76.5395 40.88 76.0195 41.1C75.0795 41.52 74.3995 42.12 73.9795 42.9C73.8195 43.2 73.7495 43.44 73.7695 43.62C73.7895 43.8 73.9195 44.15 74.1595 44.67C74.4995 45.37 74.9595 45.84 75.5395 46.08C75.9795 46.26 76.5295 46.34 77.1895 46.32C77.8695 46.28 78.2395 46.15 78.2995 45.93C78.3795 45.75 78.5195 45.66 78.7195 45.66C78.9395 45.66 79.1695 45.49 79.4095 45.15C79.6695 44.79 79.7995 44.46 79.7995 44.16C79.7995 43.58 79.6495 42.97 79.3495 42.33C79.0495 41.67 78.7095 41.25 78.3295 41.07ZM84.2095 42.42C84.8295 41.98 85.1795 42.1 85.2595 42.78C85.3395 43.24 85.3295 44.01 85.2295 45.09C85.0095 47.43 84.8695 49.18 84.8095 50.34C84.6895 51.78 84.5595 52.69 84.4195 53.07C84.2995 53.45 84.0295 53.65 83.6095 53.67C83.0695 53.67 82.8995 52.83 83.0995 51.15C83.2395 50.11 83.3895 48.44 83.5495 46.14C83.6495 44.74 83.7395 43.8 83.8195 43.32C83.9195 42.84 84.0495 42.54 84.2095 42.42ZM80.0095 49.5C80.0695 49.44 80.3995 49.41 80.9995 49.41C81.5795 49.41 81.9195 49.57 82.0195 49.89C82.1595 50.35 82.1195 50.67 81.8995 50.85C81.6795 51.01 81.1795 51.09 80.3995 51.09C79.5395 51.09 78.3495 51.25 76.8295 51.57C75.2895 51.95 74.2795 52.17 73.7995 52.23C73.3395 52.27 73.0495 52.2 72.9295 52.02C72.7895 51.78 72.7295 51.57 72.7495 51.39C72.7695 51.21 72.9095 51.05 73.1695 50.91C73.4495 50.75 73.8095 50.62 74.2495 50.52C74.7095 50.4 75.2995 50.29 76.0195 50.19C76.2795 50.15 76.5595 50.11 76.8595 50.07C77.1795 50.01 77.4595 49.97 77.6995 49.95C77.9395 49.91 78.1895 49.88 78.4495 49.86C78.7095 49.82 78.8895 49.79 78.9895 49.77C79.5895 49.69 79.9295 49.6 80.0095 49.5ZM100.894 38.22C102.074 38.06 102.874 37.95 103.294 37.89C103.554 37.89 103.774 38.01 103.954 38.25C104.154 38.47 104.224 38.71 104.164 38.97C104.144 39.15 103.984 39.28 103.684 39.36C103.404 39.42 102.794 39.49 101.854 39.57C100.414 39.69 99.3442 39.86 98.6442 40.08C98.6042 40.1 98.5442 40.12 98.4642 40.14C98.1842 40.24 98.0042 40.33 97.9242 40.41C97.8642 40.49 97.8142 40.72 97.7742 41.1C97.7342 41.48 97.7442 42.05 97.8042 42.81C97.8042 43.09 97.8042 43.31 97.8042 43.47L97.8642 45.03L100.534 44.91C101.054 44.87 101.474 44.85 101.794 44.85C102.134 44.85 102.434 44.86 102.694 44.88C102.974 44.88 103.174 44.91 103.294 44.97C103.434 45.01 103.544 45.07 103.624 45.15C103.724 45.23 103.764 45.33 103.744 45.45C103.724 45.57 103.694 45.71 103.654 45.87C103.594 46.05 103.434 46.18 103.174 46.26C102.934 46.32 102.434 46.38 101.674 46.44C99.9742 46.6 98.9742 46.7 98.6742 46.74C98.3942 46.78 98.1642 46.8 97.9842 46.8C97.8242 46.8 97.6542 46.79 97.4742 46.77C97.3142 46.75 97.1842 46.69 97.0842 46.59C97.0042 46.47 96.9242 46.35 96.8442 46.23C96.7642 46.11 96.6942 45.93 96.6342 45.69C96.5742 45.43 96.5242 45.16 96.4842 44.88C96.4442 44.58 96.3942 44.2 96.3342 43.74C96.1342 42.06 95.9742 41.08 95.8542 40.8C95.7342 40.44 95.8642 40.06 96.2442 39.66C96.6242 39.26 97.1442 38.98 97.8042 38.82C98.5242 38.62 99.5542 38.42 100.894 38.22ZM107.674 38.16C107.734 37.98 107.904 37.89 108.184 37.89C108.604 37.89 108.874 38.07 108.994 38.43C109.114 38.79 109.124 39.51 109.024 40.59L108.874 42.6H109.624C110.104 42.6 110.484 42.51 110.764 42.33C111.104 42.13 111.474 42.13 111.874 42.33C112.274 42.53 112.474 42.81 112.474 43.17C112.474 43.33 112.444 43.45 112.384 43.53C112.344 43.61 112.244 43.68 112.084 43.74C111.944 43.78 111.714 43.83 111.394 43.89C110.594 43.97 109.954 44.11 109.474 44.31L108.694 44.55V46.53C108.694 47.47 108.664 48.04 108.604 48.24C108.564 48.42 108.414 48.55 108.154 48.63C107.614 48.75 107.294 48.67 107.194 48.39C107.094 48.11 107.084 47.31 107.164 45.99C107.184 45.61 107.224 44.81 107.284 43.59C107.364 42.37 107.414 41.51 107.434 41.01C107.514 39.27 107.594 38.32 107.674 38.16ZM100.924 50.37C101.104 50.05 101.364 49.92 101.704 49.98C101.844 50 101.944 50.03 102.004 50.07C102.064 50.09 102.114 50.18 102.154 50.34C102.194 50.5 102.214 50.69 102.214 50.91C102.214 51.11 102.214 51.46 102.214 51.96C102.214 53.08 102.294 53.78 102.454 54.06C102.614 54.34 102.944 54.38 103.444 54.18C103.884 53.98 104.264 53.9 104.584 53.94C104.944 53.94 105.694 53.83 106.834 53.61C107.754 53.43 108.374 53.38 108.694 53.46C109.014 53.52 109.174 53.74 109.174 54.12C109.174 54.78 108.724 55.11 107.824 55.11C107.384 55.11 106.294 55.27 104.554 55.59C103.114 55.89 102.164 55.99 101.704 55.89C101.264 55.81 100.964 55.47 100.804 54.87C100.684 54.25 100.634 53.41 100.654 52.35C100.694 51.29 100.784 50.63 100.924 50.37ZM116.358 36.42C117.158 36.14 118.308 36 119.808 36C121.328 35.98 122.198 36.11 122.418 36.39C122.798 36.85 122.668 37.18 122.028 37.38C121.548 37.52 120.928 37.52 120.168 37.38C119.948 37.34 119.558 37.35 118.998 37.41C118.438 37.47 117.888 37.56 117.348 37.68C116.828 37.8 116.488 37.9 116.328 37.98C116.188 38.08 116.078 38.19 115.998 38.31C115.918 38.43 115.858 38.58 115.818 38.76C115.798 38.92 115.788 39.14 115.788 39.42C115.788 39.7 115.788 39.9 115.788 40.02C115.808 40.14 115.828 40.24 115.848 40.32C115.888 40.4 115.938 40.43 115.998 40.41C116.058 40.39 116.128 40.38 116.208 40.38C116.448 40.26 117.048 40.13 118.008 39.99C118.808 39.87 119.488 39.84 120.048 39.9C120.628 39.94 121.058 40.07 121.338 40.29C121.638 40.51 121.718 40.78 121.578 41.1C121.538 41.24 121.418 41.33 121.218 41.37C121.038 41.39 120.688 41.37 120.168 41.31C119.328 41.19 118.338 41.3 117.198 41.64C116.418 41.86 115.948 42.03 115.788 42.15C115.628 42.27 115.548 42.5 115.548 42.84C115.548 43.06 115.568 43.22 115.608 43.32C115.648 43.4 115.708 43.46 115.788 43.5C115.888 43.52 116.058 43.53 116.298 43.53C116.738 43.53 117.528 43.41 118.668 43.17C119.808 42.91 120.468 42.71 120.648 42.57C120.828 42.43 121.118 42.52 121.518 42.84C121.938 43.16 122.098 43.43 121.998 43.65C121.918 43.85 121.548 44.05 120.888 44.25C120.248 44.43 119.098 44.67 117.438 44.97C116.858 45.07 116.418 45.15 116.118 45.21C115.818 45.25 115.518 45.27 115.218 45.27C114.938 45.25 114.738 45.22 114.618 45.18C114.518 45.14 114.418 45.05 114.318 44.91C114.238 44.75 114.188 44.58 114.168 44.4C114.148 44.2 114.138 43.93 114.138 43.59C114.098 42.75 114.108 42.22 114.168 42C114.208 41.76 114.218 41.19 114.198 40.29C114.178 39.37 114.128 38.74 114.048 38.4C113.968 38.08 113.958 37.86 114.018 37.74C114.098 37.6 114.268 37.44 114.528 37.26C114.888 37.02 115.498 36.74 116.358 36.42ZM117.918 46.11C118.198 45.59 118.498 45.48 118.818 45.78C119.158 46.08 119.288 46.58 119.208 47.28L119.058 48.24L120.678 48.09C121.998 47.95 122.788 47.9 123.048 47.94C123.328 47.98 123.478 48.15 123.498 48.45C123.558 48.87 123.458 49.16 123.198 49.32C122.958 49.46 122.468 49.54 121.728 49.56C120.948 49.58 120.028 49.68 118.968 49.86C117.908 50.02 117.108 50.2 116.568 50.4C116.068 50.56 115.558 50.62 115.038 50.58C114.518 50.52 114.238 50.37 114.198 50.13C114.158 49.87 114.268 49.61 114.528 49.35C114.788 49.09 115.078 48.96 115.398 48.96C115.738 48.96 116.208 48.87 116.808 48.69C117.208 48.59 117.448 48.48 117.528 48.36C117.628 48.24 117.678 47.96 117.678 47.52C117.678 46.92 117.758 46.45 117.918 46.11ZM118.698 51.42C120.198 51.24 121.148 51.15 121.548 51.15C121.948 51.13 122.208 51.2 122.328 51.36C122.488 51.58 122.598 52.55 122.658 54.27C122.698 55.55 122.698 56.3 122.658 56.52C122.618 56.76 122.458 56.9 122.178 56.94C121.738 57 121.448 56.89 121.308 56.61C121.188 56.33 121.148 55.71 121.188 54.75C121.208 53.99 121.198 53.5 121.158 53.28C121.118 53.04 121.018 52.89 120.858 52.83C120.598 52.71 119.748 52.78 118.308 53.04C116.848 53.26 116.068 53.34 115.968 53.28C115.808 53.18 115.748 52.99 115.788 52.71C115.848 52.41 115.978 52.18 116.178 52.02C116.418 51.8 117.258 51.6 118.698 51.42ZM132.143 37.59C132.343 37.47 132.503 37.42 132.623 37.44C132.743 37.46 132.913 37.58 133.133 37.8C133.293 37.96 133.383 38.18 133.403 38.46C133.443 38.72 133.423 39.23 133.343 39.99C133.223 41.17 133.153 42.43 133.133 43.77C133.113 44.27 133.103 44.6 133.103 44.76C133.123 44.92 133.103 45.16 133.043 45.48C132.983 45.8 132.943 45.99 132.923 46.05C132.923 46.09 132.833 46.2 132.653 46.38C132.473 46.54 132.333 46.63 132.233 46.65C132.153 46.65 131.923 46.7 131.543 46.8C131.183 46.88 130.883 46.93 130.643 46.95C130.423 46.95 130.013 46.98 129.413 47.04C129.313 47.04 129.163 47.05 128.963 47.07C128.443 47.11 128.073 47.15 127.853 47.19C127.633 47.21 127.353 47.21 127.013 47.19C126.673 47.15 126.453 47.13 126.353 47.13C126.273 47.11 126.143 47.03 125.963 46.89C125.803 46.73 125.703 46.6 125.663 46.5C125.643 46.4 125.593 46.18 125.513 45.84C125.433 45.5 125.383 45.21 125.363 44.97C125.343 44.73 125.303 44.33 125.243 43.77C125.223 43.57 125.213 43.42 125.213 43.32C125.053 41.7 124.993 40.6 125.033 40.02C125.093 39.42 125.273 39.06 125.573 38.94C125.933 38.82 126.173 38.89 126.293 39.15C126.433 39.41 126.473 39.89 126.413 40.59C126.373 41.39 126.453 41.86 126.653 42C126.853 42.12 127.403 42.04 128.303 41.76C129.103 41.52 129.883 41.34 130.643 41.22L131.693 41.07L131.753 39.39C131.813 38.29 131.943 37.69 132.143 37.59ZM131.813 42.84H130.913C130.293 42.88 129.693 42.99 129.113 43.17C128.513 43.39 127.983 43.5 127.523 43.5C127.183 43.52 126.983 43.58 126.923 43.68C126.863 43.76 126.853 44.04 126.893 44.52L126.953 45.54L128.993 45.45C130.313 45.41 131.093 45.33 131.333 45.21C131.573 45.09 131.713 44.66 131.753 43.92L131.813 42.84ZM137.783 38.4C137.943 38.16 138.143 38.07 138.383 38.13C138.623 38.19 138.813 38.38 138.953 38.7C139.113 39.06 139.113 39.81 138.953 40.95C138.853 41.77 138.813 42.25 138.833 42.39C138.873 42.53 139.033 42.6 139.313 42.6C139.653 42.6 139.983 42.52 140.303 42.36C140.583 42.2 140.933 42.2 141.353 42.36C141.593 42.46 141.753 42.57 141.833 42.69C141.933 42.81 141.953 43 141.893 43.26C141.853 43.54 141.783 43.72 141.683 43.8C141.583 43.86 141.353 43.9 140.993 43.92C140.433 43.92 139.903 44.02 139.403 44.22C139.043 44.36 138.823 44.53 138.743 44.73C138.683 44.93 138.643 45.47 138.623 46.35C138.603 46.75 138.583 47.04 138.563 47.22C138.543 47.4 138.523 47.57 138.503 47.73C138.483 47.89 138.443 47.99 138.383 48.03C138.323 48.07 138.263 48.11 138.203 48.15C138.143 48.17 138.043 48.19 137.903 48.21C137.503 48.25 137.233 48.07 137.093 47.67C136.973 47.27 136.983 46.49 137.123 45.33C137.243 43.99 137.353 42.61 137.453 41.19C137.573 39.51 137.683 38.58 137.783 38.4ZM133.883 49.29C134.363 49.11 134.813 49.01 135.233 48.99C135.573 48.97 135.983 49.11 136.463 49.41C136.943 49.69 137.383 50.07 137.783 50.55C138.183 51.01 138.473 51.47 138.653 51.93C138.793 52.31 138.823 52.82 138.743 53.46C138.683 54.1 138.533 54.66 138.293 55.14C138.013 55.66 137.513 56.09 136.793 56.43C136.093 56.79 135.363 56.97 134.603 56.97C134.043 56.97 133.623 56.92 133.343 56.82C133.083 56.74 132.743 56.54 132.323 56.22C131.363 55.46 130.763 54.54 130.523 53.46C130.363 52.74 130.633 51.95 131.333 51.09C132.053 50.21 132.903 49.61 133.883 49.29ZM136.463 51.36C136.023 50.92 135.633 50.69 135.293 50.67C134.953 50.63 134.443 50.78 133.763 51.12C132.883 51.56 132.353 52.12 132.173 52.8C132.013 53.46 132.263 54.11 132.923 54.75C133.143 54.99 133.363 55.15 133.583 55.23C133.823 55.31 134.163 55.35 134.603 55.35C135.223 55.35 135.733 55.23 136.133 54.99C136.533 54.77 136.873 54.39 137.153 53.85C137.393 53.41 137.463 53 137.363 52.62C137.263 52.24 136.963 51.82 136.463 51.36ZM146.372 35.61C147.592 35.03 148.802 35.01 150.002 35.55C151.222 36.09 152.032 37.01 152.432 38.31C152.532 38.69 152.572 39.02 152.552 39.3C152.532 39.58 152.452 39.96 152.312 40.44C152.092 41.1 151.742 41.66 151.262 42.12C150.802 42.58 150.182 42.99 149.402 43.35C148.962 43.53 148.622 43.63 148.382 43.65C148.142 43.67 147.812 43.62 147.392 43.5C147.032 43.42 146.662 43.31 146.282 43.17C145.922 43.01 145.602 42.85 145.322 42.69C145.042 42.53 144.832 42.38 144.692 42.24C144.492 42.06 144.292 41.81 144.092 41.49C143.892 41.17 143.732 40.85 143.612 40.53C143.492 40.21 143.432 39.95 143.432 39.75C143.432 38.95 143.702 38.16 144.242 37.38C144.802 36.6 145.512 36.01 146.372 35.61ZM150.092 37.26C149.732 36.92 149.262 36.75 148.682 36.75C148.102 36.73 147.552 36.84 147.032 37.08C146.512 37.32 146.052 37.67 145.652 38.13C145.272 38.57 145.082 39.04 145.082 39.54C145.082 40 145.292 40.47 145.712 40.95C146.152 41.43 146.652 41.75 147.212 41.91C147.792 42.09 148.312 42.1 148.772 41.94C149.232 41.76 149.762 41.35 150.362 40.71C150.842 40.27 151.102 39.96 151.142 39.78C151.202 39.6 151.162 39.27 151.022 38.79C150.802 38.15 150.492 37.64 150.092 37.26ZM152.042 44.73C152.782 44.41 153.322 44.5 153.662 45C153.822 45.24 153.902 45.41 153.902 45.51C153.902 45.61 153.812 45.76 153.632 45.96C153.392 46.24 152.772 46.38 151.772 46.38C150.732 46.38 149.422 46.55 147.842 46.89C146.222 47.23 145.142 47.4 144.602 47.4C144.242 47.42 144.012 47.4 143.912 47.34C143.832 47.26 143.792 47.09 143.792 46.83C143.792 46.61 143.872 46.41 144.032 46.23C144.192 46.05 144.422 45.91 144.722 45.81C145.042 45.71 145.392 45.66 145.772 45.66C146.312 45.66 146.982 45.55 147.782 45.33C148.522 45.11 149.342 44.98 150.242 44.94C151.142 44.94 151.742 44.87 152.042 44.73ZM149.192 48.69C149.752 48.47 150.412 48.43 151.172 48.57C151.952 48.69 152.452 48.93 152.672 49.29C152.792 49.47 152.842 50 152.822 50.88C152.822 51.74 152.762 52.33 152.642 52.65C152.382 53.29 151.232 53.67 149.192 53.79C147.992 53.85 147.352 53.88 147.272 53.88C147.072 53.9 146.972 54.1 146.972 54.48C146.972 54.86 147.132 55.08 147.452 55.14C147.792 55.22 148.372 55.17 149.192 54.99C151.532 54.41 152.862 54.39 153.182 54.93C153.242 55.13 153.282 55.29 153.302 55.41C153.342 55.53 153.202 55.65 152.882 55.77C152.562 55.89 152.152 56 151.652 56.1C151.152 56.22 150.402 56.37 149.402 56.55C147.942 56.79 146.882 56.75 146.222 56.43C145.582 56.11 145.262 55.46 145.262 54.48C145.262 53.8 145.452 53.34 145.832 53.1C146.232 52.84 147.072 52.65 148.352 52.53C149.832 52.35 150.682 52.18 150.902 52.02C151.122 51.84 151.232 51.48 151.232 50.94C151.232 50.56 151.192 50.34 151.112 50.28C151.032 50.2 150.772 50.16 150.332 50.16C149.792 50.16 148.852 50.29 147.512 50.55C146.072 50.85 145.292 50.85 145.172 50.55C145.132 50.41 145.172 50.19 145.292 49.89C145.372 49.63 145.522 49.45 145.742 49.35C145.962 49.23 146.362 49.11 146.942 48.99C147.922 48.79 148.462 48.72 148.562 48.78C148.682 48.86 148.892 48.83 149.192 48.69ZM182.978 40.41C183.218 40.31 183.468 40.27 183.728 40.29C183.988 40.29 184.158 40.35 184.238 40.47C184.318 40.59 184.268 41.78 184.088 44.04C183.928 46.08 183.788 48.07 183.668 50.01C183.588 51.35 183.458 52.21 183.278 52.59C183.118 52.95 182.808 53.05 182.348 52.89C182.148 52.81 182.028 52.42 181.988 51.72C181.968 51 182.038 49.81 182.198 48.15L182.348 46.32L181.268 46.44C180.528 46.54 179.818 46.74 179.138 47.04L177.998 47.49V49.98C177.978 50.96 177.938 51.63 177.878 51.99C177.818 52.33 177.708 52.56 177.548 52.68C176.808 53.24 176.448 52.95 176.468 51.81C176.508 49.69 176.588 47.39 176.708 44.91C176.848 42.41 176.968 41.07 177.068 40.89C177.168 40.67 177.348 40.54 177.608 40.5C177.888 40.46 178.158 40.53 178.418 40.71C178.538 40.79 178.598 40.97 178.598 41.25C178.618 41.53 178.568 42.1 178.448 42.96C178.248 44.32 178.198 45.04 178.298 45.12C178.338 45.18 178.558 45.19 178.958 45.15C179.378 45.11 179.818 45.05 180.278 44.97C180.758 44.89 181.208 44.8 181.628 44.7C182.068 44.58 182.328 44.49 182.408 44.43C182.588 44.27 182.678 43.58 182.678 42.36C182.678 41.14 182.778 40.49 182.978 40.41ZM169.958 41.76C170.978 41.56 171.618 41.46 171.878 41.46C172.138 41.46 172.358 41.56 172.538 41.76C172.698 41.96 172.758 42.33 172.718 42.87C172.698 43.39 172.578 44.36 172.358 45.78C172.338 45.94 172.258 46.45 172.118 47.31C171.978 48.17 171.878 48.81 171.818 49.23C171.658 50.45 171.498 51.12 171.338 51.24C171.258 51.3 171.108 51.33 170.888 51.33C170.448 51.33 170.188 51.16 170.108 50.82C170.048 50.48 170.118 49.75 170.318 48.63C170.858 45.67 171.128 43.98 171.128 43.56C171.128 43.42 171.108 43.32 171.068 43.26C171.028 43.18 170.968 43.15 170.888 43.17C170.728 43.29 169.938 43.46 168.518 43.68C167.118 43.9 166.178 44.01 165.698 44.01C165.138 44.01 164.758 43.89 164.558 43.65C164.198 43.23 164.538 42.88 165.578 42.6C165.898 42.52 166.298 42.44 166.778 42.36C167.918 42.18 168.978 41.98 169.958 41.76ZM196.896 37.23C196.856 36.69 196.856 36.35 196.896 36.21C196.936 36.07 197.046 36 197.226 36C197.726 36.02 198.026 36.25 198.126 36.69C198.246 37.13 198.316 38.5 198.336 40.8C198.356 42.7 198.346 43.93 198.306 44.49C198.266 45.05 198.156 45.42 197.976 45.6C197.516 46.04 197.196 45.9 197.016 45.18C196.916 44.72 196.836 43.96 196.776 42.9C196.676 41.24 196.536 40.35 196.356 40.23C196.156 40.11 195.746 40.16 195.126 40.38C194.526 40.6 193.906 40.71 193.266 40.71C192.806 40.71 192.536 40.68 192.456 40.62C192.396 40.54 192.376 40.32 192.396 39.96L192.486 39.18L194.736 38.82L196.956 38.46L196.896 37.23ZM189.606 36.99C189.786 36.81 190.046 36.72 190.386 36.72C191.026 36.72 191.066 37.24 190.506 38.28C190.466 38.38 190.416 38.48 190.356 38.58C189.956 39.28 189.796 39.8 189.876 40.14C189.956 40.42 190.466 41.1 191.406 42.18C191.786 42.58 192.076 42.91 192.276 43.17C192.496 43.43 192.646 43.66 192.726 43.86C192.806 44.04 192.826 44.19 192.786 44.31C192.746 44.41 192.646 44.49 192.486 44.55C192.146 44.69 191.796 44.64 191.436 44.4C191.096 44.14 190.656 43.65 190.116 42.93C189.336 41.93 188.856 41.43 188.676 41.43C188.456 41.43 187.996 42.42 187.296 44.4C187.236 44.62 186.956 44.73 186.456 44.73C186.256 44.73 186.106 44.71 186.006 44.67C185.926 44.63 185.866 44.57 185.826 44.49C185.786 44.41 185.766 44.29 185.766 44.13C185.766 43.75 186.086 42.98 186.726 41.82C186.726 41.82 187.326 40.78 188.526 38.7C189.086 37.72 189.446 37.15 189.606 36.99ZM190.986 47.67C191.786 47.47 192.926 47.36 194.406 47.34C194.926 47.34 195.306 47.34 195.546 47.34C195.786 47.34 196.026 47.38 196.266 47.46C196.526 47.52 196.696 47.59 196.776 47.67C196.856 47.73 196.936 47.88 197.016 48.12C197.096 48.34 197.136 48.56 197.136 48.78C197.156 49 197.166 49.36 197.166 49.86C197.186 50.98 197.036 51.69 196.716 51.99C196.416 52.29 195.606 52.49 194.286 52.59C193.266 52.69 192.606 52.83 192.306 53.01C192.026 53.19 191.886 53.56 191.886 54.12C191.886 54.58 192.156 54.75 192.696 54.63C193.156 54.53 194.056 54.43 195.396 54.33C196.756 54.25 197.516 54.23 197.676 54.27C197.916 54.37 198.026 54.61 198.006 54.99C197.986 55.37 197.856 55.6 197.616 55.68C197.256 55.78 196.386 55.9 195.006 56.04C193.646 56.2 192.666 56.28 192.066 56.28C191.686 56.28 191.416 56.26 191.256 56.22C191.096 56.2 190.966 56.13 190.866 56.01C190.786 55.91 190.686 55.73 190.566 55.47C190.366 54.95 190.306 54.23 190.386 53.31C190.486 52.51 190.696 51.99 191.016 51.75C191.336 51.51 192.026 51.35 193.086 51.27C193.766 51.21 194.286 51.14 194.646 51.06C195.006 50.96 195.266 50.82 195.426 50.64C195.586 50.46 195.666 50.23 195.666 49.95C195.666 49.51 195.556 49.18 195.336 48.96C195.116 48.8 194.596 48.76 193.776 48.84C192.956 48.9 192.016 49.06 190.956 49.32C190.056 49.58 189.556 49.66 189.456 49.56C189.376 49.5 189.296 49.33 189.216 49.05C189.116 48.73 189.196 48.47 189.456 48.27C189.716 48.05 190.226 47.85 190.986 47.67ZM203.398 38.52C203.358 37.86 203.358 37.47 203.398 37.35C203.458 37.23 203.638 37.17 203.938 37.17C204.778 37.17 205.088 38.06 204.868 39.84L204.718 41.19L205.738 41.16C206.518 41.14 207.108 41.08 207.508 40.98C207.748 40.92 207.988 40.9 208.228 40.92C208.468 40.92 208.678 40.96 208.858 41.04C209.038 41.1 209.188 41.2 209.308 41.34C209.448 41.48 209.538 41.63 209.578 41.79C209.638 42.19 209.538 42.45 209.278 42.57C209.038 42.69 208.658 42.68 208.138 42.54C207.598 42.4 207.018 42.41 206.398 42.57C205.778 42.75 204.998 42.88 204.058 42.96C203.058 43.08 202.338 43.24 201.898 43.44C201.478 43.66 201.018 43.77 200.518 43.77C200.238 43.77 200.048 43.74 199.948 43.68C199.868 43.6 199.828 43.44 199.828 43.2C199.828 42.82 199.958 42.55 200.218 42.39C200.478 42.21 201.038 42.04 201.898 41.88C202.638 41.72 203.068 41.59 203.188 41.49C203.328 41.39 203.408 41.13 203.428 40.71C203.428 39.75 203.418 39.02 203.398 38.52ZM215.518 41.46C215.578 41.26 215.828 41.19 216.268 41.25L216.898 41.31L216.838 43.05C216.778 44.15 216.678 45.53 216.538 47.19C216.358 48.77 216.328 50.07 216.448 51.09C216.508 51.83 216.518 52.29 216.478 52.47C216.458 52.63 216.308 52.77 216.028 52.89C215.648 53.07 215.368 53.1 215.188 52.98C215.028 52.86 214.928 52 214.888 50.4C214.848 49.04 214.748 48.24 214.588 48C214.448 47.74 214.058 47.76 213.418 48.06L212.698 48.45L212.818 50.4C212.898 51.22 212.918 51.77 212.878 52.05C212.858 52.33 212.768 52.53 212.608 52.65C212.128 53.03 211.718 53.03 211.378 52.65C211.198 52.39 211.148 50.74 211.228 47.7C211.288 45.42 211.378 43.92 211.498 43.2C211.618 42.48 211.848 42.12 212.188 42.12C212.528 42.12 212.758 42.31 212.878 42.69C212.998 43.05 213.048 43.66 213.028 44.52L212.938 46.26L213.628 46.32C214.068 46.36 214.388 46.32 214.588 46.2C214.808 46.08 214.968 45.84 215.068 45.48C215.168 45.12 215.248 44.55 215.308 43.77C215.388 42.39 215.458 41.62 215.518 41.46ZM203.968 44.67C204.448 44.39 204.888 44.26 205.288 44.28C205.708 44.28 206.228 44.45 206.848 44.79C208.328 45.53 209.108 46.63 209.188 48.09C209.228 48.63 209.208 49.04 209.128 49.32C209.068 49.58 208.858 49.97 208.498 50.49C207.958 51.31 207.458 51.87 206.998 52.17C206.538 52.45 205.968 52.58 205.288 52.56C203.708 52.5 202.558 51.94 201.838 50.88C201.138 49.8 201.098 48.56 201.718 47.16C201.978 46.52 202.278 46.02 202.618 45.66C202.958 45.28 203.408 44.95 203.968 44.67ZM206.548 46.14C206.088 45.96 205.698 45.89 205.378 45.93C205.078 45.97 204.718 46.14 204.298 46.44C203.838 46.74 203.478 47.18 203.218 47.76C202.958 48.34 202.888 48.85 203.008 49.29C203.088 49.67 203.238 50 203.458 50.28C203.678 50.54 203.938 50.74 204.238 50.88C204.538 51.02 204.868 51.09 205.228 51.09C205.608 51.09 205.898 51.04 206.098 50.94C206.298 50.84 206.548 50.61 206.848 50.25C207.348 49.67 207.638 49.14 207.718 48.66C207.818 48.2 207.738 47.7 207.478 47.16C207.218 46.62 206.908 46.28 206.548 46.14ZM226.382 38.67C226.522 38.55 226.692 38.59 226.892 38.79C227.112 38.99 227.262 39.22 227.342 39.48C227.442 39.74 227.452 39.95 227.372 40.11C227.232 40.23 226.262 40.31 224.462 40.35C223.402 40.35 222.652 40.38 222.212 40.44C221.772 40.5 221.422 40.62 221.162 40.8C220.982 40.9 220.862 40.98 220.802 41.04C220.742 41.1 220.682 41.24 220.622 41.46C220.562 41.66 220.532 41.89 220.532 42.15C220.532 42.39 220.532 42.81 220.532 43.41C220.532 44.89 220.592 45.68 220.712 45.78C220.832 45.84 221.362 45.88 222.302 45.9C223.342 45.9 224.642 45.78 226.202 45.54C226.762 45.44 227.152 45.52 227.372 45.78C227.872 46.4 227.442 46.85 226.082 47.13C225.922 47.17 225.752 47.2 225.572 47.22C224.552 47.38 223.372 47.5 222.032 47.58C220.712 47.66 219.972 47.66 219.812 47.58C219.612 47.44 219.402 46.86 219.182 45.84C218.962 44.8 218.852 43.89 218.852 43.11C218.852 42.09 218.772 41.45 218.612 41.19C218.452 40.85 218.592 40.51 219.032 40.17C219.472 39.83 220.142 39.55 221.042 39.33C221.942 39.09 222.942 38.94 224.042 38.88C225.562 38.8 226.342 38.73 226.382 38.67ZM227.072 51.69C227.172 51.57 227.392 51.53 227.732 51.57C228.092 51.61 228.332 51.69 228.452 51.81C228.652 52.01 228.692 52.26 228.572 52.56C228.472 52.84 228.272 53.03 227.972 53.13C227.672 53.23 226.792 53.27 225.332 53.25C224.032 53.23 222.642 53.28 221.162 53.4C220.582 53.44 220.052 53.46 219.572 53.46C219.112 53.46 218.832 53.43 218.732 53.37C218.532 53.25 218.422 53.05 218.402 52.77C218.382 52.47 218.482 52.24 218.702 52.08C218.862 51.94 220.282 51.85 222.962 51.81C225.662 51.79 227.032 51.75 227.072 51.69ZM233.72 35.88C234.6 35.7 235.32 35.59 235.88 35.55C236.32 35.55 236.58 35.68 236.66 35.94C236.76 36.18 236.88 37.05 237.02 38.55C237.06 38.87 237.08 39.14 237.08 39.36C237.08 39.56 237.06 39.76 237.02 39.96C236.98 40.16 236.9 40.32 236.78 40.44C236.66 40.56 236.52 40.68 236.36 40.8C236.2 40.92 235.96 41.03 235.64 41.13C235.32 41.23 234.99 41.33 234.65 41.43C234.31 41.51 233.87 41.62 233.33 41.76C233.03 41.82 232.84 41.91 232.76 42.03C232.7 42.15 232.67 42.41 232.67 42.81C232.67 43.33 232.76 43.66 232.94 43.8C233.14 43.92 233.56 43.92 234.2 43.8C234.96 43.66 235.48 43.53 235.76 43.41C236.16 43.27 236.51 43.26 236.81 43.38C237.13 43.48 237.3 43.68 237.32 43.98C237.34 44.16 237.34 44.31 237.32 44.43C237.32 44.55 237.27 44.66 237.17 44.76C237.07 44.84 236.94 44.91 236.78 44.97C236.62 45.01 236.4 45.06 236.12 45.12C235.52 45.2 235.02 45.31 234.62 45.45C234.26 45.59 233.75 45.67 233.09 45.69C232.43 45.69 232.01 45.62 231.83 45.48C231.27 45.14 230.99 44.3 230.99 42.96C230.99 42.38 231.03 41.98 231.11 41.76C231.21 41.52 231.41 41.24 231.71 40.92C232.19 40.48 232.64 40.26 233.06 40.26C233.5 40.26 234.05 40.1 234.71 39.78C235.17 39.56 235.44 39.39 235.52 39.27C235.62 39.15 235.64 38.9 235.58 38.52C235.48 37.96 235.41 37.61 235.37 37.47C235.29 37.31 235.03 37.26 234.59 37.32C234.15 37.38 233.4 37.57 232.34 37.89C231.48 38.17 230.93 38.31 230.69 38.31C230.45 38.31 230.28 38.2 230.18 37.98C230.04 37.58 230.28 37.2 230.9 36.84C231.52 36.46 232.46 36.14 233.72 35.88ZM240.71 41.16C240.67 39 240.67 37.72 240.71 37.32C240.75 36.92 240.89 36.72 241.13 36.72C241.67 36.72 241.98 36.91 242.06 37.29C242.16 37.65 242.21 38.96 242.21 41.22V45.51L241.64 45.72C241.22 45.84 240.98 45.86 240.92 45.78C240.84 45.68 240.77 44.14 240.71 41.16ZM236.24 48.24C237.54 47.96 238.61 47.84 239.45 47.88C240.37 47.92 240.96 48.13 241.22 48.51C241.5 48.89 241.64 49.76 241.64 51.12C241.64 51.5 241.64 51.78 241.64 51.96C241.64 52.14 241.62 52.35 241.58 52.59C241.54 52.81 241.5 52.96 241.46 53.04C241.44 53.12 241.37 53.22 241.25 53.34C241.13 53.44 241.01 53.5 240.89 53.52C240.79 53.54 240.61 53.57 240.35 53.61C240.11 53.65 239.88 53.67 239.66 53.67C239.46 53.67 239.15 53.67 238.73 53.67C237.59 53.67 236.83 53.76 236.45 53.94C236.09 54.1 235.94 54.45 236 54.99C236.02 55.33 236.08 55.53 236.18 55.59C236.3 55.65 236.58 55.65 237.02 55.59C237.6 55.51 238.58 55.47 239.96 55.47C240.86 55.47 241.42 55.49 241.64 55.53C241.88 55.57 242.02 55.69 242.06 55.89C242.12 56.21 242.04 56.44 241.82 56.58C241.62 56.72 241.19 56.82 240.53 56.88C239.85 56.94 238.86 57.06 237.56 57.24C236.28 57.42 235.55 57.46 235.37 57.36C234.87 57.18 234.54 56.57 234.38 55.53C234.24 54.49 234.36 53.72 234.74 53.22C234.92 53 235.16 52.85 235.46 52.77C235.76 52.67 236.37 52.57 237.29 52.47C238.71 52.33 239.51 52.22 239.69 52.14C239.89 52.08 239.96 51.64 239.9 50.82L239.84 49.53L238.4 49.59C237.52 49.63 236.58 49.8 235.58 50.1C234.76 50.36 234.22 50.47 233.96 50.43C233.72 50.39 233.6 50.18 233.6 49.8C233.6 49.4 233.77 49.1 234.11 48.9C234.45 48.7 235.16 48.48 236.24 48.24ZM15.1914 76.16C15.3914 75.96 15.6414 75.88 15.9414 75.92C16.2614 75.94 16.4714 76.07 16.5714 76.31C16.6514 76.51 16.6214 77.31 16.4814 78.71C15.9414 83.55 15.7314 86.21 15.8514 86.69C15.9314 87.01 15.8614 87.27 15.6414 87.47C15.4414 87.67 15.1414 87.74 14.7414 87.68C14.4814 87.64 14.3314 87.53 14.2914 87.35C14.2514 87.15 14.2514 86.55 14.2914 85.55C14.3114 84.33 14.2614 83.67 14.1414 83.57C14.1014 83.51 13.9714 83.48 13.7514 83.48C13.3914 83.48 12.9114 83.61 12.3114 83.87C11.7314 84.11 11.2514 84.18 10.8714 84.08C10.5114 83.98 10.3314 83.73 10.3314 83.33C10.3314 83.11 10.3914 82.94 10.5114 82.82C10.6314 82.68 10.8514 82.54 11.1714 82.4C11.7514 82.18 12.2014 82.07 12.5214 82.07C13.0814 82.07 13.5514 81.97 13.9314 81.77C14.3314 81.55 14.5614 81.28 14.6214 80.96C14.7214 80.48 14.6714 80.19 14.4714 80.09C14.2714 79.97 13.8314 80 13.1514 80.18C11.6714 80.56 10.9214 80.46 10.9014 79.88C10.9014 79.82 10.9114 79.75 10.9314 79.67C11.0514 79.25 11.2614 78.96 11.5614 78.8C11.8814 78.62 12.3614 78.53 13.0014 78.53C13.8014 78.53 14.3514 78.44 14.6514 78.26C14.9514 78.08 15.0614 77.76 14.9814 77.3C14.8614 76.82 14.9314 76.44 15.1914 76.16ZM19.1514 76.01C19.2514 75.83 19.4014 75.74 19.6014 75.74C19.8214 75.74 20.0214 75.83 20.2014 76.01C20.5214 76.33 20.5014 78.39 20.1414 82.19C19.9214 84.45 19.8614 85.84 19.9614 86.36C20.0014 86.76 19.9814 87.03 19.9014 87.17C19.8414 87.29 19.6714 87.4 19.3914 87.5C18.9714 87.66 18.6914 87.69 18.5514 87.59C18.4114 87.49 18.3414 86.9 18.3414 85.82C18.3614 84.72 18.4414 83.56 18.5814 82.34C18.7414 81.16 18.8514 79.82 18.9114 78.32C18.9714 76.92 19.0514 76.15 19.1514 76.01ZM4.69137 76.46C5.27137 76.34 5.82137 76.34 6.34137 76.46C6.92137 76.6 7.24137 76.67 7.30137 76.67C7.40137 76.67 7.74137 76.91 8.32137 77.39L9.13137 78.11V80.42C9.13137 81.52 9.10137 82.22 9.04137 82.52C8.98137 82.82 8.77137 83.2 8.41137 83.66C7.67137 84.7 6.72137 85.14 5.56137 84.98C4.98137 84.9 4.34137 84.68 3.64137 84.32C2.94137 83.94 2.37137 83.53 1.93137 83.09C1.53137 82.69 1.29137 82.39 1.21137 82.19C1.15137 81.97 1.14137 81.53 1.18137 80.87C1.24137 80.19 1.43137 79.53 1.75137 78.89C2.07137 78.25 2.49137 77.72 3.01137 77.3C3.53137 76.86 4.09137 76.58 4.69137 76.46ZM7.03137 78.17C6.55137 77.93 6.11137 77.83 5.71137 77.87C5.33137 77.91 4.81137 78.09 4.15137 78.41C3.33137 78.83 2.83137 79.37 2.65137 80.03C2.49137 80.69 2.66137 81.32 3.16137 81.92C3.66137 82.5 4.42137 82.93 5.44137 83.21C5.80137 83.29 6.06137 83.32 6.22137 83.3C6.40137 83.28 6.58137 83.19 6.76137 83.03C7.40137 82.49 7.72137 81.47 7.72137 79.97C7.72137 79.29 7.69137 78.87 7.63137 78.71C7.57137 78.53 7.37137 78.35 7.03137 78.17ZM29.0029 73.22C29.0629 73.12 29.3029 73.1 29.7229 73.16C29.9629 73.18 30.1229 73.25 30.2029 73.37C30.3029 73.47 30.3629 73.66 30.3829 73.94C30.4229 74.4 30.3029 74.8 30.0229 75.14C29.5829 75.62 29.1429 76.16 28.7029 76.76C28.2829 77.34 28.0729 77.67 28.0729 77.75C28.0729 77.89 28.5029 78.39 29.3629 79.25C30.7229 80.59 31.0329 81.41 30.2929 81.71C30.0529 81.79 29.7929 81.74 29.5129 81.56C29.2529 81.36 28.7629 80.87 28.0429 80.09L26.9929 78.89L26.2729 79.7C25.8929 80.14 25.5029 80.69 25.1029 81.35C24.9629 81.57 24.8429 81.74 24.7429 81.86C24.6429 81.98 24.5229 82.07 24.3829 82.13C24.2629 82.17 24.1129 82.19 23.9329 82.19C23.4729 82.19 23.2229 82.06 23.1829 81.8C23.1429 81.62 23.6129 80.86 24.5929 79.52C25.5729 78.16 26.4429 77.09 27.2029 76.31C27.4629 76.03 27.6929 75.72 27.8929 75.38C28.0129 75.16 27.9929 75.04 27.8329 75.02C27.7129 75 27.3529 75.03 26.7529 75.11C25.9729 75.19 25.0729 75.37 24.0529 75.65C23.4929 75.81 23.1029 75.9 22.8829 75.92C22.6629 75.92 22.4729 75.85 22.3129 75.71C21.4529 74.99 22.0229 74.4 24.0229 73.94C24.9029 73.76 26.0629 73.59 27.5029 73.43C28.4029 73.35 28.9029 73.28 29.0029 73.22ZM34.1929 74.54C34.3329 74.28 34.5929 74.12 34.9729 74.06C35.3529 74 35.5929 74.09 35.6929 74.33C35.7329 74.51 35.6929 75.44 35.5729 77.12C35.4329 78.88 35.4129 80.16 35.5129 80.96C35.5729 81.54 35.5829 81.92 35.5429 82.1C35.5029 82.28 35.3829 82.42 35.1829 82.52C34.9629 82.64 34.7729 82.69 34.6129 82.67C34.4729 82.63 34.3529 82.52 34.2529 82.34C34.1529 82.14 34.0829 81.87 34.0429 81.53C34.0029 81.17 33.9829 80.72 33.9829 80.18C33.9829 80.14 33.9829 80.09 33.9829 80.03C33.9829 79.09 33.9129 78.56 33.7729 78.44C33.6529 78.32 33.2129 78.35 32.4529 78.53C32.3929 78.53 32.3529 78.54 32.3329 78.56C31.6729 78.7 31.1529 78.73 30.7729 78.65C30.3929 78.57 30.2029 78.39 30.2029 78.11C30.2029 77.51 30.9329 77.13 32.3929 76.97C33.1529 76.89 33.6429 76.77 33.8629 76.61C34.1029 76.43 34.1729 76.13 34.0729 75.71C33.9729 75.29 34.0129 74.9 34.1929 74.54ZM30.0229 84.2C30.6029 84.08 31.3529 84.01 32.2729 83.99C32.8729 83.97 33.2629 84.01 33.4429 84.11C33.6229 84.19 33.8829 84.48 34.2229 84.98C34.5629 85.44 34.7629 85.8 34.8229 86.06C34.8829 86.3 34.8829 86.75 34.8229 87.41C34.7229 89.01 34.1929 90.09 33.2329 90.65C32.6929 90.97 32.0829 91.09 31.4029 91.01C30.7229 90.95 30.0829 90.78 29.4829 90.5C28.9029 90.24 28.4029 89.85 27.9829 89.33C27.5829 88.83 27.3829 88.31 27.3829 87.77C27.3829 87.15 27.4529 86.65 27.5929 86.27C27.7729 85.83 28.0929 85.41 28.5529 85.01C29.0329 84.59 29.5229 84.32 30.0229 84.2ZM32.8729 85.79C32.6529 85.57 32.4529 85.46 32.2729 85.46C32.1129 85.44 31.6529 85.51 30.8929 85.67C30.2729 85.81 29.8329 85.97 29.5729 86.15C29.3129 86.33 29.1129 86.62 28.9729 87.02C28.8329 87.4 28.8829 87.79 29.1229 88.19C29.3829 88.57 29.7229 88.86 30.1429 89.06C30.5629 89.28 31.0329 89.38 31.5529 89.36C32.0729 89.36 32.4829 89.21 32.7829 88.91C33.1229 88.57 33.3029 88.06 33.3229 87.38C33.3429 86.7 33.1929 86.17 32.8729 85.79ZM40.2758 76.1C41.3558 75.54 42.5358 75.71 43.8158 76.61C44.8558 77.31 45.5958 78.18 46.0358 79.22C46.4758 80.24 46.5558 81.28 46.2758 82.34C46.0958 83.08 45.8358 83.63 45.4958 83.99C45.1758 84.35 44.6558 84.68 43.9358 84.98C43.2358 85.28 42.5958 85.43 42.0158 85.43C41.5358 85.45 41.0158 85.36 40.4558 85.16C39.8958 84.96 39.3758 84.68 38.8958 84.32C38.4358 83.96 38.0658 83.58 37.7858 83.18C37.5058 82.74 37.3358 82.39 37.2758 82.13C37.2158 81.85 37.2058 81.4 37.2458 80.78C37.3058 79.82 37.4658 79.11 37.7258 78.65C37.9658 78.19 38.3358 77.71 38.8358 77.21C39.3358 76.71 39.8158 76.34 40.2758 76.1ZM43.0658 77.84C42.4858 77.42 42.0058 77.23 41.6258 77.27C41.2458 77.29 40.7858 77.54 40.2458 78.02C39.4458 78.78 38.9758 79.56 38.8358 80.36C38.7158 81.14 38.9458 81.88 39.5258 82.58C40.2058 83.4 41.0358 83.82 42.0158 83.84C43.0158 83.84 43.8358 83.42 44.4758 82.58C44.6758 82.34 44.8058 82.1 44.8658 81.86C44.9258 81.6 44.9358 81.22 44.8958 80.72C44.8358 80.08 44.6758 79.56 44.4158 79.16C44.1558 78.74 43.7058 78.3 43.0658 77.84ZM49.6058 76.34C49.6858 76.2 49.9158 76.15 50.2958 76.19C50.6758 76.23 50.8758 76.32 50.8958 76.46C50.9358 76.8 50.8558 79.58 50.6558 84.8L50.4758 88.55H49.7858C49.5858 88.55 49.4458 88.55 49.3658 88.55C49.2858 88.53 49.2158 88.48 49.1558 88.4C49.0958 88.3 49.0558 88.19 49.0358 88.07C49.0358 87.93 49.0258 87.7 49.0058 87.38C48.9658 86.72 49.0258 84.75 49.1858 81.47C49.3658 78.19 49.5058 76.48 49.6058 76.34ZM64.0016 74.96C64.1416 74.84 64.3716 74.8 64.6916 74.84C64.8316 74.86 64.9216 74.89 64.9616 74.93C65.0216 74.97 65.0716 75.09 65.1116 75.29C65.1716 75.49 65.2016 75.75 65.2016 76.07C65.2216 76.37 65.2416 76.84 65.2616 77.48C65.3016 79.34 65.2616 81.61 65.1416 84.29L64.9616 88.55H64.2416H63.5216L63.5516 86.69C63.5516 83.51 63.5916 80.78 63.6716 78.5C63.7716 76.22 63.8816 75.04 64.0016 74.96ZM52.7216 75.68C52.9416 75.44 53.1016 75.31 53.2016 75.29C53.3016 75.25 53.4616 75.3 53.6816 75.44C53.8616 75.56 53.9716 76.83 54.0116 79.25L54.1016 82.91H56.5916C58.2516 82.91 59.3716 82.86 59.9516 82.76C60.4516 82.66 60.8016 82.7 61.0016 82.88C61.2216 83.04 61.3016 83.36 61.2416 83.84L61.1816 84.47L57.1316 84.53C54.4316 84.61 52.9916 84.55 52.8116 84.35C52.6516 84.11 52.5316 82.69 52.4516 80.09C52.3916 78.33 52.3716 77.21 52.3916 76.73C52.4316 76.23 52.5416 75.88 52.7216 75.68ZM75.7412 75.62C75.7412 75.2 76.0212 74.88 76.5812 74.66C77.1412 74.42 78.3112 74.16 80.0912 73.88C81.8712 73.58 83.0112 73.42 83.5112 73.4C84.0112 73.38 84.3012 73.47 84.3812 73.67C84.4412 73.83 84.3412 74.22 84.0812 74.84C83.8412 75.46 83.5112 76.09 83.0912 76.73C82.8912 77.05 82.8012 77.27 82.8212 77.39C82.8612 77.51 83.1012 77.75 83.5412 78.11C84.0812 78.57 84.6312 78.95 85.1912 79.25C85.7312 79.55 86.1412 79.85 86.4212 80.15C86.6212 80.37 86.7212 80.53 86.7212 80.63C86.7212 80.71 86.6312 80.83 86.4512 80.99C86.2112 81.25 85.9712 81.38 85.7312 81.38C85.5912 81.38 85.2412 81.2 84.6812 80.84C84.1212 80.48 83.7412 80.19 83.5412 79.97C83.4012 79.81 83.0812 79.57 82.5812 79.25C82.0812 78.93 81.7812 78.77 81.6812 78.77C81.5012 78.77 80.9312 79.36 79.9712 80.54C79.2512 81.4 78.7212 81.93 78.3812 82.13C78.0612 82.31 77.7012 82.32 77.3012 82.16C77.1812 82.12 77.0912 82.07 77.0312 82.01C76.9712 81.95 76.9412 81.88 76.9412 81.8C76.9412 81.72 76.9712 81.62 77.0312 81.5C77.0912 81.38 77.1812 81.24 77.3012 81.08C77.4412 80.92 77.6012 80.74 77.7812 80.54C77.9612 80.32 78.2012 80.07 78.5012 79.79C79.6212 78.59 80.3412 77.78 80.6612 77.36C81.0612 76.84 81.4012 76.44 81.6812 76.16C82.0012 75.88 82.1412 75.56 82.1012 75.2C82.0612 75.1 82.0012 75.04 81.9212 75.02C80.8612 75.24 80.0612 75.4 79.5212 75.5C77.3012 75.98 76.0912 76.18 75.8912 76.1C75.7912 76.06 75.7412 75.9 75.7412 75.62ZM81.6812 82.52C82.0012 82.32 82.2312 82.34 82.3712 82.58C82.5112 82.8 82.5812 83.25 82.5812 83.93C82.5612 84.43 82.5512 85.1 82.5512 85.94L82.5812 86.63L84.6812 86.51C85.7612 86.45 86.4612 86.47 86.7812 86.57C87.1212 86.67 87.2912 86.92 87.2912 87.32C87.2912 87.64 87.0912 87.86 86.6912 87.98C86.2912 88.1 85.5612 88.17 84.5012 88.19C83.2812 88.19 81.9812 88.28 80.6012 88.46C79.2812 88.64 78.4712 88.73 78.1712 88.73C77.8912 88.73 77.6812 88.62 77.5412 88.4C77.3412 88.06 77.4112 87.75 77.7512 87.47C78.0912 87.17 78.5612 87.02 79.1612 87.02C80.0012 87.02 80.5312 86.96 80.7512 86.84C80.9912 86.7 81.0712 86.41 80.9912 85.97C80.9312 85.51 80.9812 84.85 81.1412 83.99C81.3212 83.13 81.5012 82.64 81.6812 82.52ZM94.0883 70.79C94.8683 70.67 95.5483 70.61 96.1283 70.61L96.8483 70.64V73.79C96.8483 75.35 96.8283 76.28 96.7883 76.58C96.7483 76.88 96.5783 77.09 96.2783 77.21C95.7183 77.47 95.3783 77.27 95.2583 76.61C95.1783 76.19 95.1683 75.45 95.2283 74.39L95.3783 72.14L94.4483 72.29C92.9483 72.57 92.0683 72.74 91.8083 72.8C91.0883 72.96 90.5983 73.04 90.3383 73.04C90.0983 73.04 89.9483 72.98 89.8883 72.86C89.5483 72.32 90.0183 71.83 91.2983 71.39C92.0383 71.15 92.9683 70.95 94.0883 70.79ZM94.4783 79.25C95.3183 79.07 96.2483 79 97.2683 79.04C98.3083 79.06 98.9583 79.16 99.2183 79.34C99.3983 79.48 99.4983 79.61 99.5183 79.73C99.5583 79.83 99.5183 79.96 99.3983 80.12C99.3383 80.24 99.2183 80.34 99.0383 80.42C98.8783 80.48 98.6283 80.53 98.2883 80.57C97.9683 80.61 97.4883 80.65 96.8483 80.69C95.1483 80.81 93.8883 80.96 93.0683 81.14C92.8683 81.2 92.6283 81.26 92.3483 81.32C92.0883 81.36 91.8783 81.4 91.7183 81.44C91.5583 81.48 91.4583 81.5 91.4183 81.5C90.9583 81.6 90.5383 81.68 90.1583 81.74C89.7983 81.78 89.5083 81.8 89.2883 81.8C89.0683 81.78 88.9583 81.73 88.9583 81.65C88.9583 81.51 88.9083 81.32 88.8083 81.08C88.7083 80.8 88.8783 80.54 89.3183 80.3C89.7783 80.06 90.3683 79.91 91.0883 79.85C91.9283 79.79 92.5483 79.69 92.9483 79.55C93.0283 79.55 93.1683 79.53 93.3683 79.49C93.5683 79.43 93.7683 79.38 93.9683 79.34C94.1683 79.3 94.3383 79.27 94.4783 79.25ZM97.2083 83.54C97.3083 83.44 97.6283 83.46 98.1683 83.6C98.7083 83.72 99.0283 83.85 99.1283 83.99C99.2483 84.21 99.3083 85.22 99.3083 87.02C99.3083 88.48 99.2183 89.43 99.0383 89.87C98.8783 90.33 98.5083 90.56 97.9283 90.56C97.4683 90.56 96.4083 90.73 94.7483 91.07C94.7283 91.07 94.7083 91.07 94.6883 91.07C93.0083 91.39 92.0183 91.42 91.7183 91.16C91.4383 90.92 91.2983 89.87 91.2983 88.01C91.2983 87.27 91.3083 86.7 91.3283 86.3C91.3483 85.9 91.3783 85.6 91.4183 85.4C91.4783 85.18 91.5583 85.01 91.6583 84.89C91.9183 84.61 92.1583 84.5 92.3783 84.56C92.5783 84.66 93.0883 84.57 93.9083 84.29C94.5683 84.11 95.3083 83.94 96.1283 83.78C96.7883 83.7 97.1483 83.62 97.2083 83.54ZM97.6283 87.29C97.6883 86.15 97.6483 85.52 97.5083 85.4C97.4083 85.3 97.0083 85.31 96.3083 85.43C95.6283 85.53 94.8683 85.7 94.0283 85.94L92.8283 86.24L92.7683 87.92L92.6783 89.66L94.0583 89.48C95.1783 89.38 95.9883 89.28 96.4883 89.18L97.5683 89.03L97.6283 87.29ZM114.014 73.22C114.154 73.02 114.374 72.97 114.674 73.07C114.994 73.15 115.194 73.31 115.274 73.55C115.354 73.79 115.324 74.24 115.184 74.9C115.024 75.58 114.944 76.3 114.944 77.06C114.944 77.66 114.974 78.01 115.034 78.11C115.094 78.21 115.284 78.24 115.604 78.2C116.024 78.14 116.364 78.06 116.624 77.96C116.924 77.86 117.204 77.85 117.464 77.93C117.744 77.99 117.954 78.14 118.094 78.38C118.234 78.6 118.254 78.84 118.154 79.1C118.054 79.34 117.724 79.46 117.164 79.46C116.624 79.46 116.044 79.63 115.424 79.97L114.464 80.45L114.404 82.37C114.384 82.85 114.364 83.21 114.344 83.45C114.324 83.67 114.284 83.87 114.224 84.05C114.184 84.21 114.124 84.32 114.044 84.38C113.984 84.44 113.884 84.51 113.744 84.59C113.244 84.85 112.944 84.79 112.844 84.41C112.724 83.99 112.814 82.47 113.114 79.85C113.374 77.55 113.544 75.94 113.624 75.02C113.744 73.98 113.874 73.38 114.014 73.22ZM103.964 73.85C104.884 73.55 105.944 73.39 107.144 73.37C108.364 73.33 109.024 73.45 109.124 73.73C109.224 74.01 109.274 75.25 109.274 77.45C109.274 78.79 109.234 79.75 109.154 80.33C109.074 80.91 108.934 81.31 108.734 81.53C108.554 81.73 108.234 81.83 107.774 81.83C107.014 81.83 105.974 81.87 104.654 81.95C103.074 82.05 102.154 82 101.894 81.8C101.654 81.6 101.444 80.87 101.264 79.61C101.084 78.33 101.024 77.11 101.084 75.95C101.104 75.21 101.144 74.77 101.204 74.63C101.284 74.49 101.494 74.4 101.834 74.36C102.294 74.32 103.004 74.15 103.964 73.85ZM107.714 76.01C107.814 75.53 107.834 75.25 107.774 75.17C107.734 75.07 107.554 75.03 107.234 75.05C106.494 75.07 105.374 75.26 103.874 75.62L102.404 76.01L102.584 78.05C102.684 79.43 102.824 80.17 103.004 80.27C103.184 80.41 103.824 80.42 104.924 80.3C105.524 80.26 106.224 80.2 107.024 80.12C107.224 80.1 107.344 80 107.384 79.82C107.444 79.62 107.484 79.19 107.504 78.53C107.524 77.51 107.594 76.67 107.714 76.01ZM106.454 85.52C106.774 85.12 107.154 85.07 107.594 85.37C107.814 85.51 107.864 85.88 107.744 86.48C107.424 88.04 107.414 88.87 107.714 88.97C107.874 89.05 108.504 88.99 109.604 88.79C110.824 88.57 111.894 88.44 112.814 88.4L114.314 88.31V89.03C114.314 89.37 114.244 89.58 114.104 89.66C113.984 89.74 113.554 89.83 112.814 89.93C111.774 90.03 110.954 90.17 110.354 90.35C109.754 90.51 108.954 90.61 107.954 90.65C106.974 90.69 106.414 90.64 106.274 90.5C106.134 90.34 106.084 89.52 106.124 88.04C106.184 86.54 106.294 85.7 106.454 85.52ZM143.8 75.29C143.94 75.07 144.16 74.99 144.46 75.05C144.78 75.09 144.99 75.25 145.09 75.53C145.21 75.89 145.21 77.09 145.09 79.13C144.97 81.37 144.91 83.39 144.91 85.19C144.89 87.15 144.79 88.22 144.61 88.4C144.41 88.58 144.18 88.67 143.92 88.67C143.66 88.65 143.5 88.55 143.44 88.37C143.36 88.13 143.38 85.93 143.5 81.77C143.62 77.61 143.72 75.45 143.8 75.29ZM134.17 76.55C134.71 76.45 135.12 76.38 135.4 76.34C135.7 76.3 135.99 76.27 136.27 76.25C136.55 76.23 136.75 76.23 136.87 76.25C137.01 76.25 137.13 76.28 137.23 76.34C137.35 76.38 137.43 76.44 137.47 76.52C137.51 76.58 137.56 76.68 137.62 76.82C137.92 77.6 137.61 79.88 136.69 83.66C136.43 84.76 136.23 85.49 136.09 85.85C135.95 86.19 135.78 86.38 135.58 86.42C135.12 86.54 134.84 86.45 134.74 86.15C134.64 85.85 134.71 85.3 134.95 84.5C135.19 83.74 135.46 82.48 135.76 80.72C136.08 78.96 136.2 78.04 136.12 77.96C136.04 77.88 135.61 77.91 134.83 78.05C132.57 78.53 131.14 78.81 130.54 78.89C129.96 78.95 129.51 78.92 129.19 78.8C128.31 78.4 128.65 77.94 130.21 77.42C131.17 77.1 132.49 76.81 134.17 76.55ZM159.329 75.23C159.389 75.11 159.519 75.04 159.719 75.02C159.939 75 160.179 75.05 160.439 75.17C160.599 75.23 160.699 75.44 160.739 75.8C160.799 76.16 160.829 76.91 160.829 78.05C160.829 79.91 160.869 80.87 160.949 80.93C160.989 80.99 161.709 80.97 163.109 80.87C164.389 80.73 165.229 80.7 165.629 80.78C166.049 80.86 166.259 81.09 166.259 81.47C166.259 81.55 166.249 81.62 166.229 81.68C166.229 81.74 166.199 81.8 166.139 81.86C166.099 81.92 166.049 81.97 165.989 82.01C165.949 82.05 165.869 82.09 165.749 82.13C165.629 82.17 165.499 82.2 165.359 82.22C165.219 82.24 165.029 82.27 164.789 82.31C164.569 82.33 164.329 82.35 164.069 82.37C163.829 82.39 163.509 82.42 163.109 82.46C161.729 82.56 160.979 82.7 160.859 82.88C160.779 83.02 160.719 83.88 160.679 85.46C160.659 87 160.619 87.79 160.559 87.83C160.539 87.87 160.349 87.95 159.989 88.07C159.569 88.19 159.309 88.07 159.209 87.71C159.089 87.27 159.089 85.82 159.209 83.36C159.369 80.58 159.409 78.56 159.329 77.3C159.209 76.06 159.209 75.37 159.329 75.23ZM150.809 76.07C152.149 75.85 153.099 75.75 153.659 75.77C154.219 75.77 154.539 75.88 154.619 76.1C154.759 76.46 154.699 76.74 154.439 76.94C154.199 77.14 153.759 77.25 153.119 77.27C151.299 77.29 149.899 77.52 148.919 77.96L148.169 78.23L148.259 80.45C148.299 81.05 148.319 81.49 148.319 81.77C148.339 82.05 148.379 82.34 148.439 82.64C148.499 82.94 148.559 83.14 148.619 83.24C148.679 83.32 148.789 83.42 148.949 83.54C149.129 83.64 149.289 83.7 149.429 83.72C149.589 83.74 149.829 83.76 150.149 83.78C151.049 83.86 151.969 83.85 152.909 83.75C154.409 83.53 155.159 83.74 155.159 84.38C155.159 84.62 155.119 84.8 155.039 84.92C154.979 85.04 154.789 85.14 154.469 85.22C154.169 85.3 153.769 85.35 153.269 85.37C152.789 85.39 152.069 85.4 151.109 85.4C150.929 85.4 150.679 85.4 150.359 85.4C149.879 85.4 149.539 85.4 149.339 85.4C149.139 85.4 148.879 85.38 148.559 85.34C148.259 85.3 148.069 85.28 147.989 85.28C147.909 85.26 147.789 85.19 147.629 85.07C147.469 84.93 147.369 84.82 147.329 84.74C147.309 84.64 147.259 84.46 147.179 84.2C147.119 83.94 147.079 83.72 147.059 83.54C147.059 83.34 147.029 83.03 146.969 82.61C146.949 82.31 146.929 82.07 146.909 81.89C146.729 80.07 146.649 78.83 146.669 78.17C146.689 77.51 146.819 77.12 147.059 77C147.919 76.66 149.169 76.35 150.809 76.07ZM172.443 74.57C173.603 74.47 174.343 74.45 174.663 74.51C174.983 74.55 175.183 74.74 175.263 75.08C175.363 75.48 175.413 76.44 175.413 77.96C175.433 79.46 175.393 80.29 175.293 80.45C175.213 80.59 174.973 80.75 174.573 80.93C174.173 81.09 173.433 81.36 172.353 81.74L170.823 82.25L170.733 83.24C170.673 84.12 170.713 84.7 170.853 84.98C170.993 85.26 171.323 85.4 171.843 85.4C172.523 85.4 173.243 85.3 174.003 85.1C174.563 84.98 174.923 84.93 175.083 84.95C175.263 84.97 175.423 85.08 175.563 85.28C175.783 85.58 175.873 85.84 175.833 86.06C175.753 86.48 174.303 86.84 171.483 87.14C170.803 87.22 170.373 87.25 170.193 87.23C170.033 87.19 169.893 87.04 169.773 86.78C169.573 86.44 169.433 85.56 169.353 84.14C169.293 83.12 169.283 82.49 169.323 82.25C169.383 81.99 169.573 81.7 169.893 81.38C170.313 80.92 170.983 80.56 171.903 80.3C172.883 80 173.473 79.7 173.673 79.4C173.893 79.08 173.963 78.45 173.883 77.51L173.703 75.92L172.713 76.1C172.153 76.16 171.523 76.31 170.823 76.55C169.183 77.09 168.213 77.18 167.913 76.82C167.513 76.36 167.863 75.89 168.963 75.41C169.883 74.99 171.043 74.71 172.443 74.57ZM182.373 75.77C182.473 75.43 182.703 75.26 183.063 75.26C183.483 75.26 183.753 75.38 183.873 75.62C184.013 75.86 184.023 76.24 183.903 76.76C183.743 77.52 183.623 79.09 183.543 81.47C183.483 83.83 183.513 85.35 183.633 86.03C183.753 86.73 183.743 87.23 183.603 87.53C183.463 87.83 183.163 87.98 182.703 87.98C182.403 87.98 182.213 87.87 182.133 87.65C182.073 87.41 181.993 86.7 181.893 85.52C181.813 84.1 181.733 83.35 181.653 83.27C181.573 83.21 180.953 83.28 179.793 83.48C178.753 83.66 178.083 83.72 177.783 83.66C177.503 83.58 177.393 83.33 177.453 82.91C177.533 82.57 177.703 82.34 177.963 82.22C178.223 82.1 178.843 81.97 179.823 81.83C180.683 81.73 181.263 81.59 181.563 81.41C181.863 81.21 182.013 80.91 182.013 80.51C182.013 80.13 181.863 79.91 181.563 79.85C181.283 79.79 180.733 79.87 179.913 80.09C179.093 80.31 178.523 80.39 178.203 80.33C177.903 80.27 177.753 80.03 177.753 79.61C177.753 79.23 177.933 78.95 178.293 78.77C178.653 78.59 179.253 78.46 180.093 78.38C180.993 78.28 181.573 78.15 181.833 77.99C182.113 77.83 182.253 77.52 182.253 77.06C182.253 76.6 182.293 76.17 182.373 75.77ZM198.681 73.28C200.621 73.06 201.851 72.95 202.371 72.95C202.891 72.93 203.221 73.01 203.361 73.19C203.501 73.37 203.501 73.6 203.361 73.88C203.241 74.14 202.881 74.68 202.281 75.5L201.501 76.52L202.041 76.94C202.401 77.22 202.641 77.36 202.761 77.36C202.861 77.36 203.231 77.56 203.871 77.96C204.491 78.4 204.801 78.79 204.801 79.13C204.801 79.93 204.031 79.86 202.491 78.92C202.151 78.7 201.911 78.55 201.771 78.47C201.631 78.39 201.451 78.3 201.231 78.2C201.011 78.1 200.861 78.04 200.781 78.02C200.721 77.98 200.601 77.97 200.421 77.99C200.241 78.01 200.121 78.04 200.061 78.08C200.021 78.12 199.911 78.21 199.731 78.35C199.571 78.47 199.441 78.59 199.341 78.71C199.241 78.81 199.081 78.99 198.861 79.25C198.341 79.81 197.951 80.19 197.691 80.39C197.431 80.59 197.201 80.67 197.001 80.63C196.361 80.53 196.231 80.17 196.611 79.55C196.911 79.09 197.561 78.36 198.561 77.36C200.361 75.56 201.081 74.62 200.721 74.54C200.681 74.52 200.641 74.51 200.601 74.51C200.461 74.51 199.501 74.68 197.721 75.02C196.581 75.22 195.821 75.33 195.441 75.35C195.081 75.37 194.831 75.31 194.691 75.17C194.471 74.95 194.411 74.71 194.511 74.45C194.631 74.17 194.861 73.97 195.201 73.85C195.481 73.73 196.641 73.54 198.681 73.28ZM203.661 82.64C204.101 82.4 204.501 82.32 204.861 82.4C205.241 82.48 205.501 82.71 205.641 83.09C205.761 83.39 205.781 83.63 205.701 83.81C205.621 83.97 205.441 84.09 205.161 84.17C204.901 84.23 204.521 84.24 204.021 84.2C203.161 84.18 202.671 84.27 202.551 84.47C202.411 84.69 202.341 85.7 202.341 87.5C202.341 88.84 202.311 89.63 202.251 89.87C202.211 90.11 202.051 90.25 201.771 90.29C201.391 90.35 201.141 90.27 201.021 90.05C200.861 89.79 200.811 88.85 200.871 87.23C200.891 85.55 200.871 84.66 200.811 84.56C200.751 84.5 200.081 84.55 198.801 84.71C197.181 84.91 196.181 85 195.801 84.98C195.421 84.96 195.211 84.8 195.171 84.5C195.151 84.38 195.191 84.23 195.291 84.05C195.391 83.87 195.501 83.72 195.621 83.6C195.881 83.38 196.341 83.23 197.001 83.15C197.681 83.07 199.081 83.02 201.201 83C202.481 82.96 203.301 82.84 203.661 82.64ZM211.336 76.13C211.556 75.85 211.776 75.71 211.996 75.71C212.656 75.71 212.656 76.35 211.996 77.63C211.956 77.71 211.916 77.78 211.876 77.84C211.376 78.74 211.126 79.35 211.126 79.67C211.126 79.91 211.636 80.67 212.656 81.95C214.376 83.99 214.696 84.97 213.616 84.89C213.596 84.89 213.576 84.88 213.556 84.86C213.136 84.82 212.506 84.24 211.666 83.12C210.806 82.02 210.306 81.45 210.166 81.41C210.046 81.37 209.846 81.64 209.566 82.22C209.306 82.8 209.126 83.38 209.026 83.96C208.946 84.32 208.856 84.55 208.756 84.65C208.676 84.75 208.496 84.8 208.216 84.8C207.576 84.8 207.246 84.61 207.226 84.23C207.206 83.83 207.486 83.06 208.066 81.92C209.666 78.74 210.756 76.81 211.336 76.13ZM218.446 76.07C218.626 75.85 218.786 75.74 218.926 75.74C219.066 75.74 219.266 75.86 219.526 76.1C219.766 76.34 219.836 76.6 219.736 76.88C219.596 77.16 219.486 78.84 219.406 81.92C219.366 84.12 219.316 85.46 219.256 85.94C219.216 86.4 219.086 86.69 218.866 86.81C218.426 87.05 218.136 86.95 217.996 86.51C217.896 86.11 217.836 85.16 217.816 83.66C217.776 81.74 217.666 80.76 217.486 80.72C217.306 80.66 216.836 80.75 216.076 80.99C214.456 81.53 213.566 81.49 213.406 80.87C213.326 80.55 213.326 80.29 213.406 80.09C213.466 79.91 213.866 79.73 214.606 79.55C215.346 79.35 216.116 79.22 216.916 79.16L217.846 79.13L217.996 77.78C218.116 76.84 218.266 76.27 218.446 76.07ZM222.436 76.13C222.436 76.03 222.536 75.97 222.736 75.95C222.936 75.93 223.146 75.96 223.366 76.04C223.586 76.1 223.746 76.19 223.846 76.31C224.046 76.55 224.096 76.92 223.996 77.42C223.916 77.9 223.866 79.61 223.846 82.55C223.826 83.73 223.796 84.64 223.756 85.28C223.736 85.9 223.686 86.41 223.606 86.81C223.526 87.21 223.426 87.47 223.306 87.59C223.186 87.69 223.006 87.74 222.766 87.74C222.506 87.74 222.346 87.36 222.286 86.6C222.226 85.84 222.236 84.13 222.316 81.47C222.316 81.09 222.316 80.7 222.316 80.3C222.336 79.9 222.346 79.53 222.346 79.19C222.366 78.85 222.376 78.52 222.376 78.2C222.396 77.88 222.406 77.6 222.406 77.36C222.426 77.12 222.436 76.91 222.436 76.73C222.436 76.55 222.436 76.41 222.436 76.31C222.436 76.19 222.436 76.13 222.436 76.13ZM228.475 72.35C229.195 72.09 229.885 72.01 230.545 72.11C231.225 72.19 231.855 72.46 232.435 72.92C233.035 73.38 233.525 74 233.905 74.78C234.285 75.52 234.465 76.21 234.445 76.85C234.445 77.49 234.245 78.2 233.845 78.98C233.525 79.62 233.145 80.1 232.705 80.42C232.265 80.72 231.705 80.92 231.025 81.02C229.885 81.18 228.805 80.96 227.785 80.36C226.765 79.76 226.115 78.99 225.835 78.05C225.435 76.77 225.475 75.63 225.955 74.63C226.435 73.63 227.275 72.87 228.475 72.35ZM230.905 73.58C230.705 73.58 230.485 73.54 230.245 73.46C229.885 73.34 229.315 73.56 228.535 74.12C227.755 74.68 227.285 75.22 227.125 75.74C227.065 75.94 227.055 76.18 227.095 76.46C227.135 76.72 227.205 76.99 227.305 77.27C227.405 77.53 227.535 77.79 227.695 78.05C227.875 78.31 228.065 78.53 228.265 78.71C229.025 79.39 229.795 79.7 230.575 79.64C231.355 79.58 231.975 79.17 232.435 78.41C233.175 77.21 233.055 75.96 232.075 74.66C231.495 73.94 231.105 73.58 230.905 73.58ZM232.165 82.91C232.325 82.53 232.525 82.34 232.765 82.34C233.025 82.32 233.245 82.51 233.425 82.91C233.585 83.29 233.565 83.95 233.365 84.89C233.165 85.79 233.125 86.34 233.245 86.54C233.345 86.72 233.945 86.81 235.045 86.81C235.805 86.81 236.275 86.84 236.455 86.9C236.655 86.94 236.805 87.08 236.905 87.32C237.045 87.74 236.995 88.03 236.755 88.19C236.535 88.35 236.035 88.42 235.255 88.4C234.635 88.38 233.865 88.42 232.945 88.52C232.045 88.6 231.405 88.69 231.025 88.79C230.845 88.85 230.385 88.94 229.645 89.06C228.925 89.2 228.215 89.33 227.515 89.45C226.815 89.57 226.395 89.63 226.255 89.63C226.015 89.63 225.835 89.47 225.715 89.15C225.595 88.83 225.625 88.56 225.805 88.34C225.965 88.14 226.355 87.99 226.975 87.89L227.845 87.77V85.85C227.865 84.79 227.945 84.12 228.085 83.84C228.225 83.54 228.525 83.45 228.985 83.57C229.265 83.65 229.425 83.78 229.465 83.96C229.525 84.12 229.545 84.62 229.525 85.46L229.465 87.14L230.635 87.23C231.375 87.27 231.745 87.23 231.745 87.11C231.745 86.57 231.765 86 231.805 85.4C231.865 84.8 231.925 84.28 231.985 83.84C232.065 83.4 232.125 83.09 232.165 82.91ZM240.706 73.94C240.806 73.84 240.956 73.8 241.156 73.82C241.356 73.84 241.526 73.92 241.666 74.06C241.766 74.16 241.826 74.29 241.846 74.45C241.866 74.59 241.866 74.93 241.846 75.47C241.806 76.23 241.716 77.07 241.576 77.99C241.436 78.91 241.306 79.48 241.186 79.7C241.086 79.9 241.046 80.22 241.066 80.66C241.106 81.08 241.196 81.49 241.336 81.89C241.476 82.31 241.526 82.64 241.486 82.88C241.446 83.12 241.306 83.36 241.066 83.6C240.846 83.82 240.626 83.94 240.406 83.96C240.206 83.96 240.046 83.87 239.926 83.69C239.806 83.51 239.736 82.75 239.716 81.41C239.696 80.05 239.746 79.23 239.866 78.95C239.946 78.75 240.026 78.38 240.106 77.84C240.226 77.08 240.306 76.57 240.346 76.31C240.426 75.71 240.486 75.22 240.526 74.84C240.566 74.36 240.626 74.06 240.706 73.94ZM239.116 87.98C239.356 87.84 239.646 87.86 239.986 88.04C240.366 88.24 240.556 88.59 240.556 89.09C240.556 89.57 240.366 89.9 239.986 90.08C239.626 90.28 239.246 90.25 238.846 89.99C238.586 89.85 238.456 89.64 238.456 89.36C238.456 89.16 238.526 88.9 238.666 88.58C238.826 88.26 238.976 88.06 239.116 87.98Z" fill="#1A1A1A"/>
</svg>
