<svg width="293" height="368" viewBox="0 0 293 368" fill="none" xmlns="http://www.w3.org/2000/svg">
<path d="M61.84 23.416C61.968 23.256 62.136 23.184 62.344 23.2C62.472 23.232 62.552 23.352 62.584 23.56C62.616 23.752 62.624 24.16 62.608 24.784C62.56 25.808 62.592 26.36 62.704 26.44C62.784 26.504 63.2 26.48 63.952 26.368C64.688 26.24 65.144 26.248 65.32 26.392C65.512 26.536 65.584 26.68 65.536 26.824C65.488 26.968 65.256 27.32 64.84 27.88C64.408 28.424 64.16 28.808 64.096 29.032C64.048 29.256 64.152 29.408 64.408 29.488C64.84 29.632 65.272 29.832 65.704 30.088C66.152 30.328 66.408 30.512 66.472 30.64C66.536 30.832 66.472 31.024 66.28 31.216C66.152 31.344 66.008 31.4 65.848 31.384C65.704 31.352 65.384 31.224 64.888 31C64.056 30.616 63.584 30.392 63.472 30.328C63.392 30.248 63.296 30.24 63.184 30.304C63.072 30.368 62.944 30.48 62.8 30.64C62.656 30.784 62.448 31.024 62.176 31.36C61.76 31.856 61.456 32.184 61.264 32.344C61.072 32.504 60.864 32.584 60.64 32.584C59.952 32.584 59.824 32.28 60.256 31.672L60.904 30.928C61.656 30.112 62.272 29.4 62.752 28.792C63.248 28.184 63.496 27.816 63.496 27.688C63.496 27.544 63.336 27.504 63.016 27.568C62.712 27.648 62.216 27.728 61.528 27.808C60.856 27.872 60.296 27.96 59.848 28.072C59.016 28.248 58.6 28.128 58.6 27.712C58.6 27.424 58.696 27.224 58.888 27.112C59.096 26.984 59.496 26.888 60.088 26.824C60.872 26.728 61.288 26.616 61.336 26.488C61.384 26.36 61.44 25.848 61.504 24.952C61.584 24.104 61.696 23.592 61.84 23.416ZM69.04 27.544C69.168 27.384 69.28 27.312 69.376 27.328C69.472 27.344 69.592 27.432 69.736 27.592C69.832 27.704 69.88 28.024 69.88 28.552C69.88 29.08 69.848 30.072 69.784 31.528C69.72 32.488 69.68 33.392 69.664 34.24C69.648 35.088 69.656 35.584 69.688 35.728C69.752 36.208 69.608 36.576 69.256 36.832C68.92 37.04 68.672 36.968 68.512 36.616L68.488 36.52C68.424 36.344 68.424 35.2 68.488 33.088C68.552 30.96 68.64 29.504 68.752 28.72C68.816 28.08 68.912 27.688 69.04 27.544ZM63.376 32.56C63.52 32.448 63.688 32.416 63.88 32.464C63.992 32.48 64.056 32.568 64.072 32.728C64.104 32.872 64.112 33.168 64.096 33.616L64.048 34.672L65.464 34.552C66.12 34.504 66.52 34.496 66.664 34.528C66.824 34.544 66.936 34.656 67 34.864C67.096 35.184 67.024 35.432 66.784 35.608C66.56 35.784 66.208 35.856 65.728 35.824C65.216 35.808 64.536 35.872 63.688 36.016C62.856 36.144 62.224 36.304 61.792 36.496C61.344 36.672 60.984 36.696 60.712 36.568C60.456 36.44 60.32 36.328 60.304 36.232C60.288 36.12 60.376 35.928 60.568 35.656C60.776 35.4 61.192 35.224 61.816 35.128C62.264 35.064 62.528 35 62.608 34.936C62.704 34.872 62.752 34.688 62.752 34.384C62.752 34.016 62.816 33.648 62.944 33.28C63.072 32.896 63.216 32.656 63.376 32.56ZM74.5488 23.248C75.4608 23.104 76.0928 23.024 76.4448 23.008C76.8128 22.992 77.0688 23.04 77.2128 23.152C77.3728 23.248 77.4528 24.16 77.4528 25.888C77.4528 27.6 77.3728 28.56 77.2128 28.768C77.0848 28.928 76.8688 29.008 76.5648 29.008H76.0848L76.1808 26.656C76.1968 25.664 76.1888 25.024 76.1568 24.736C76.1408 24.432 76.0848 24.28 75.9888 24.28C75.7808 24.28 75.0608 24.384 73.8288 24.592C72.8048 24.752 72.1488 24.816 71.8608 24.784C71.5728 24.752 71.4288 24.592 71.4288 24.304C71.4288 24.096 71.6448 23.92 72.0768 23.776C72.5088 23.616 73.3328 23.44 74.5488 23.248ZM74.7168 30.568C77.2928 30.152 78.7488 30.064 79.0848 30.304C79.1968 30.384 79.3008 30.536 79.3968 30.76C79.4288 30.872 79.4288 30.968 79.3968 31.048C79.3648 31.128 79.2688 31.2 79.1088 31.264C78.9648 31.312 78.7648 31.36 78.5088 31.408C78.2528 31.456 77.9328 31.496 77.5488 31.528C76.7648 31.576 75.8528 31.68 74.8128 31.84C74.4928 31.888 74.1088 31.944 73.6608 32.008C73.2128 32.072 72.9808 32.112 72.9648 32.128C72.7408 32.16 72.4288 32.216 72.0288 32.296C71.6928 32.36 71.4368 32.336 71.2607 32.224C71.1008 32.112 71.0448 31.912 71.0928 31.624C71.1088 31.368 71.2768 31.2 71.5968 31.12C71.9168 31.024 72.9568 30.84 74.7168 30.568ZM73.4928 34.216C73.6528 33.992 73.8608 33.904 74.1168 33.952C74.3088 33.984 74.4288 34.072 74.4768 34.216C74.5248 34.344 74.5488 34.672 74.5488 35.2C74.5808 35.984 74.6128 36.4 74.6448 36.448C74.7088 36.496 75.4528 36.336 76.8768 35.968C78.2048 35.632 79.1248 35.456 79.6368 35.44C80.1648 35.424 80.4768 35.544 80.5728 35.8C80.6208 36.008 80.6128 36.184 80.5488 36.328C80.4848 36.456 80.3488 36.56 80.1408 36.64C79.9488 36.704 79.6928 36.736 79.3728 36.736C78.7808 36.736 77.9808 36.896 76.9728 37.216C75.0848 37.84 73.9968 37.992 73.7088 37.672C73.5328 37.432 73.4128 36.84 73.3488 35.896C73.2848 34.952 73.3328 34.392 73.4928 34.216ZM91.3264 23.464C91.8384 23.272 92.2704 23.176 92.6224 23.176C92.9744 23.176 93.4304 23.312 93.9904 23.584C94.5664 23.856 94.9664 24.136 95.1904 24.424C95.4144 24.712 95.5984 25.2 95.7424 25.888C95.8864 26.576 95.9264 27.136 95.8624 27.568C95.7664 28.048 95.4864 28.536 95.0224 29.032C94.5744 29.528 94.0944 29.864 93.5824 30.04C92.7504 30.312 91.9744 30.32 91.2544 30.064C90.5344 29.792 89.9424 29.272 89.4784 28.504C88.9024 27.528 88.8544 26.488 89.3344 25.384C89.5584 24.888 89.8224 24.488 90.1264 24.184C90.4464 23.88 90.8464 23.64 91.3264 23.464ZM94.3744 25.504C94.1984 25.088 93.9264 24.792 93.5584 24.616C93.2064 24.44 92.8304 24.4 92.4304 24.496C92.0464 24.576 91.6784 24.728 91.3264 24.952C90.9744 25.176 90.7024 25.504 90.5104 25.936C90.3344 26.352 90.2864 26.784 90.3664 27.232C90.4304 27.488 90.5184 27.728 90.6304 27.952C90.7584 28.16 90.9104 28.344 91.0864 28.504C91.2784 28.664 91.4864 28.792 91.7104 28.888C91.9504 28.968 92.2064 29.008 92.4784 29.008C92.8304 29.008 93.0944 28.968 93.2704 28.888C93.4464 28.792 93.6784 28.592 93.9664 28.288C94.6864 27.52 94.8224 26.592 94.3744 25.504ZM98.2864 23.752C98.4144 23.368 98.7184 23.264 99.1984 23.44C99.3744 23.52 99.4544 24.744 99.4384 27.112C99.4384 29.464 99.3504 30.752 99.1744 30.976C98.9824 31.216 98.8064 31.312 98.6464 31.264C98.4864 31.2 98.3744 31.016 98.3104 30.712C98.2304 30.328 98.1824 29.144 98.1664 27.16C98.1664 25.16 98.2064 24.024 98.2864 23.752ZM94.6864 32.032C95.6464 31.936 96.2864 31.888 96.6064 31.888C96.9264 31.872 97.1824 31.896 97.3744 31.96C97.6624 32.072 97.8864 32.408 98.0464 32.968C98.2224 33.528 98.2864 34.112 98.2384 34.72C98.2064 35.328 98.0624 35.752 97.8064 35.992C97.5984 36.2 97.3744 36.328 97.1344 36.376C96.8944 36.408 96.3904 36.4 95.6224 36.352C94.9024 36.336 94.4304 36.384 94.2064 36.496C93.9984 36.592 93.8944 36.832 93.8944 37.216C93.8944 37.568 93.9744 37.8 94.1344 37.912C94.3104 38.04 94.5504 38.032 94.8544 37.888C95.1104 37.744 95.7824 37.664 96.8704 37.648C97.6864 37.632 98.1584 37.64 98.2864 37.672C98.4304 37.704 98.5024 37.84 98.5024 38.08C98.5024 38.336 98.3664 38.512 98.0944 38.608C97.8384 38.704 96.9504 38.872 95.4304 39.112L93.4864 39.448L93.1024 39.04C92.8304 38.784 92.6704 38.264 92.6224 37.48C92.5584 36.584 92.6464 36.016 92.8864 35.776C93.1424 35.536 93.7904 35.376 94.8304 35.296C95.9184 35.232 96.5344 35.128 96.6784 34.984C96.8544 34.856 96.9344 34.552 96.9184 34.072C96.9024 33.576 96.7984 33.288 96.6064 33.208C96.4464 33.144 95.9664 33.168 95.1664 33.28C94.3824 33.392 93.6944 33.528 93.1024 33.688C92.6064 33.816 92.2944 33.8 92.1664 33.64C91.8624 33.256 92.0704 32.888 92.7904 32.536C93.2864 32.28 93.9184 32.112 94.6864 32.032ZM104.03 24.424C105.582 24.248 106.566 24.16 106.982 24.16C107.398 24.144 107.662 24.208 107.774 24.352C107.886 24.496 107.886 24.68 107.774 24.904C107.678 25.112 107.39 25.544 106.91 26.2L106.286 27.016L106.718 27.352C107.006 27.576 107.198 27.688 107.294 27.688C107.374 27.688 107.67 27.848 108.182 28.168C108.678 28.52 108.926 28.832 108.926 29.104C108.926 29.744 108.31 29.688 107.078 28.936C106.806 28.76 106.614 28.64 106.502 28.576C106.39 28.512 106.246 28.44 106.07 28.36C105.894 28.28 105.774 28.232 105.71 28.216C105.662 28.184 105.566 28.176 105.422 28.192C105.278 28.208 105.182 28.232 105.134 28.264C105.102 28.296 105.014 28.368 104.87 28.48C104.742 28.576 104.638 28.672 104.558 28.768C104.478 28.848 104.35 28.992 104.174 29.2C103.758 29.648 103.446 29.952 103.238 30.112C103.03 30.272 102.846 30.336 102.686 30.304C102.174 30.224 102.07 29.936 102.374 29.44C102.614 29.072 103.134 28.488 103.934 27.688C105.374 26.248 105.95 25.496 105.662 25.432C105.63 25.416 105.598 25.408 105.566 25.408C105.454 25.408 104.686 25.544 103.262 25.816C102.35 25.976 101.742 26.064 101.438 26.08C101.15 26.096 100.95 26.048 100.838 25.936C100.662 25.76 100.614 25.568 100.694 25.36C100.79 25.136 100.974 24.976 101.246 24.88C101.47 24.784 102.398 24.632 104.03 24.424ZM108.014 31.912C108.366 31.72 108.686 31.656 108.974 31.72C109.278 31.784 109.486 31.968 109.598 32.272C109.694 32.512 109.71 32.704 109.646 32.848C109.582 32.976 109.438 33.072 109.214 33.136C109.006 33.184 108.702 33.192 108.302 33.16C107.614 33.144 107.222 33.216 107.126 33.376C107.014 33.552 106.958 34.36 106.958 35.8C106.958 36.872 106.934 37.504 106.886 37.696C106.854 37.888 106.726 38 106.502 38.032C106.198 38.08 105.998 38.016 105.902 37.84C105.774 37.632 105.734 36.88 105.782 35.584C105.798 34.24 105.782 33.528 105.734 33.448C105.686 33.4 105.15 33.44 104.126 33.568C102.83 33.728 102.03 33.8 101.726 33.784C101.422 33.768 101.254 33.64 101.222 33.4C101.206 33.304 101.238 33.184 101.318 33.04C101.398 32.896 101.486 32.776 101.582 32.68C101.79 32.504 102.158 32.384 102.686 32.32C103.23 32.256 104.35 32.216 106.046 32.2C107.07 32.168 107.726 32.072 108.014 31.912ZM113.194 23.464C113.706 23.272 114.138 23.176 114.49 23.176C114.842 23.176 115.298 23.312 115.858 23.584C116.434 23.856 116.834 24.136 117.058 24.424C117.282 24.712 117.466 25.2 117.61 25.888C117.754 26.576 117.794 27.136 117.73 27.568C117.634 28.048 117.354 28.536 116.89 29.032C116.442 29.528 115.962 29.864 115.45 30.04C114.618 30.312 113.842 30.32 113.122 30.064C112.402 29.792 111.81 29.272 111.346 28.504C110.77 27.528 110.722 26.488 111.202 25.384C111.426 24.888 111.69 24.488 111.994 24.184C112.314 23.88 112.714 23.64 113.194 23.464ZM116.242 25.504C116.066 25.088 115.794 24.792 115.426 24.616C115.074 24.44 114.698 24.4 114.298 24.496C113.914 24.576 113.546 24.728 113.194 24.952C112.842 25.176 112.57 25.504 112.378 25.936C112.202 26.352 112.154 26.784 112.234 27.232C112.298 27.488 112.386 27.728 112.498 27.952C112.626 28.16 112.778 28.344 112.954 28.504C113.146 28.664 113.354 28.792 113.578 28.888C113.818 28.968 114.074 29.008 114.346 29.008C114.698 29.008 114.962 28.968 115.138 28.888C115.314 28.792 115.546 28.592 115.834 28.288C116.554 27.52 116.69 26.592 116.242 25.504ZM120.154 23.752C120.282 23.368 120.586 23.264 121.066 23.44C121.242 23.52 121.322 24.744 121.306 27.112C121.306 29.464 121.218 30.752 121.042 30.976C120.85 31.216 120.674 31.312 120.514 31.264C120.354 31.2 120.242 31.016 120.178 30.712C120.098 30.328 120.05 29.144 120.034 27.16C120.034 25.16 120.074 24.024 120.154 23.752ZM116.554 32.032C117.514 31.936 118.154 31.888 118.474 31.888C118.794 31.872 119.05 31.896 119.242 31.96C119.53 32.072 119.754 32.408 119.914 32.968C120.09 33.528 120.154 34.112 120.106 34.72C120.074 35.328 119.93 35.752 119.674 35.992C119.466 36.2 119.242 36.328 119.002 36.376C118.762 36.408 118.258 36.4 117.49 36.352C116.77 36.336 116.298 36.384 116.074 36.496C115.866 36.592 115.762 36.832 115.762 37.216C115.762 37.568 115.842 37.8 116.002 37.912C116.178 38.04 116.418 38.032 116.722 37.888C116.978 37.744 117.65 37.664 118.738 37.648C119.554 37.632 120.026 37.64 120.154 37.672C120.298 37.704 120.37 37.84 120.37 38.08C120.37 38.336 120.234 38.512 119.962 38.608C119.706 38.704 118.818 38.872 117.298 39.112L115.354 39.448L114.97 39.04C114.698 38.784 114.538 38.264 114.49 37.48C114.426 36.584 114.514 36.016 114.754 35.776C115.01 35.536 115.658 35.376 116.698 35.296C117.786 35.232 118.402 35.128 118.546 34.984C118.722 34.856 118.802 34.552 118.786 34.072C118.77 33.576 118.666 33.288 118.474 33.208C118.314 33.144 117.834 33.168 117.034 33.28C116.25 33.392 115.562 33.528 114.97 33.688C114.474 33.816 114.162 33.8 114.034 33.64C113.73 33.256 113.938 32.888 114.658 32.536C115.154 32.28 115.786 32.112 116.554 32.032ZM139.069 25.936C139.245 25.744 139.389 25.648 139.501 25.648C139.613 25.632 139.741 25.712 139.885 25.888C140.029 26.048 140.037 26.808 139.909 28.168C139.813 29.544 139.813 30.296 139.909 30.424C140.037 30.536 140.629 30.512 141.685 30.352C142.565 30.224 143.125 30.2 143.365 30.28C143.605 30.344 143.693 30.56 143.629 30.928C143.597 31.152 143.437 31.312 143.149 31.408C142.861 31.488 142.077 31.6 140.797 31.744L139.717 31.864V33.928C139.717 34.872 139.693 35.464 139.645 35.704C139.597 35.928 139.477 36.088 139.285 36.184C138.933 36.376 138.709 36.312 138.613 35.992C138.517 35.656 138.477 34.816 138.493 33.472C138.557 28.832 138.749 26.32 139.069 25.936ZM133.765 26.176C133.861 26.176 133.957 26.208 134.053 26.272C134.149 26.32 134.229 26.384 134.293 26.464C134.373 26.528 134.413 26.584 134.413 26.632C134.413 26.792 134.165 27.224 133.669 27.928C133.157 28.616 132.901 29.04 132.901 29.2C132.901 29.344 133.381 29.872 134.341 30.784C135.477 31.888 135.901 32.552 135.613 32.776C135.517 32.856 135.373 32.904 135.181 32.92C134.989 32.952 134.781 32.888 134.557 32.728C134.333 32.568 133.989 32.232 133.525 31.72C133.029 31.192 132.685 30.872 132.493 30.76C132.317 30.632 132.181 30.624 132.085 30.736C131.941 30.896 131.725 31.304 131.437 31.96C131.149 32.616 131.005 33.048 131.005 33.256C131.005 33.464 130.909 33.6 130.717 33.664C130.541 33.712 130.333 33.672 130.093 33.544C129.789 33.384 129.677 33.128 129.757 32.776C129.837 32.424 130.165 31.72 130.741 30.664C131.429 29.4 131.773 28.736 131.773 28.672C131.773 28.624 131.853 28.488 132.013 28.264C132.173 28.04 132.357 27.792 132.565 27.52C132.789 27.232 132.989 26.992 133.165 26.8L133.765 26.176ZM147.251 22.216C147.747 21.992 148.283 21.88 148.859 21.88C149.451 21.864 149.899 21.96 150.203 22.168C151.147 22.792 151.771 23.488 152.075 24.256C152.395 25.024 152.371 25.84 152.003 26.704C151.683 27.44 151.155 27.992 150.419 28.36C149.699 28.712 148.851 28.832 147.875 28.72C147.123 28.64 146.571 28.48 146.219 28.24C145.883 28 145.547 27.544 145.211 26.872C144.987 26.408 144.859 26.08 144.827 25.888C144.811 25.696 144.859 25.384 144.971 24.952C145.115 24.408 145.403 23.872 145.835 23.344C146.283 22.816 146.755 22.44 147.251 22.216ZM150.419 23.752C150.051 23.336 149.627 23.104 149.147 23.056C148.699 23.008 148.347 23.04 148.091 23.152C147.835 23.248 147.491 23.496 147.059 23.896C146.627 24.312 146.347 24.688 146.219 25.024C146.107 25.344 146.123 25.696 146.267 26.08C146.587 26.864 147.083 27.36 147.755 27.568C148.427 27.76 149.131 27.616 149.867 27.136C150.379 26.816 150.739 26.488 150.947 26.152C151.123 25.816 151.155 25.424 151.043 24.976C150.947 24.528 150.739 24.12 150.419 23.752ZM147.083 29.584C147.163 29.44 147.283 29.368 147.443 29.368C147.907 29.368 148.139 29.912 148.139 31C148.139 31.8 148.187 32.224 148.283 32.272C148.379 32.336 148.675 32.32 149.171 32.224L149.915 32.128L149.939 31.144C149.955 30.456 150.011 30.024 150.107 29.848C150.203 29.656 150.403 29.584 150.707 29.632C150.963 29.648 151.107 29.712 151.139 29.824C151.187 29.92 151.203 30.2 151.187 30.664C151.171 31.112 151.179 31.4 151.211 31.528C151.259 31.656 151.395 31.768 151.619 31.864C151.971 32.024 152.267 32.024 152.507 31.864C152.859 31.64 153.179 31.648 153.467 31.888C153.755 32.112 153.803 32.4 153.611 32.752C153.579 32.816 153.523 32.872 153.443 32.92C153.379 32.968 153.267 33.008 153.107 33.04C152.963 33.072 152.779 33.104 152.555 33.136C152.331 33.152 152.027 33.176 151.643 33.208C150.507 33.272 149.459 33.44 148.499 33.712C147.379 34 146.635 34.168 146.267 34.216C145.899 34.248 145.675 34.184 145.595 34.024C145.419 33.528 145.651 33.144 146.291 32.872C146.579 32.744 146.747 32.608 146.795 32.464C146.859 32.32 146.899 31.896 146.915 31.192C146.963 30.216 147.019 29.68 147.083 29.584ZM148.859 34.624C149.419 34.432 149.875 34.336 150.227 34.336C150.579 34.32 150.955 34.4 151.355 34.576C151.915 34.816 152.283 35.048 152.459 35.272C152.651 35.48 152.763 35.824 152.795 36.304C152.859 36.944 152.779 37.496 152.555 37.96C152.331 38.44 151.939 38.856 151.379 39.208C150.659 39.672 149.923 39.84 149.171 39.712C148.419 39.584 147.771 39.184 147.227 38.512C147.035 38.24 146.915 38.008 146.867 37.816C146.819 37.624 146.811 37.32 146.843 36.904C146.955 35.784 147.627 35.024 148.859 34.624ZM151.019 37.768C151.787 37 151.915 36.392 151.403 35.944C150.891 35.496 150.219 35.416 149.387 35.704C148.891 35.88 148.547 36.072 148.355 36.28C148.179 36.488 148.091 36.768 148.091 37.12C148.091 37.536 148.227 37.856 148.499 38.08C148.787 38.32 149.171 38.44 149.651 38.44C149.923 38.44 150.155 38.392 150.347 38.296C150.539 38.216 150.763 38.04 151.019 37.768ZM166.352 26.248C166.496 26.088 166.64 26.008 166.784 26.008C167.056 26.008 167.224 26.168 167.288 26.488C167.352 26.792 167.36 27.464 167.312 28.504L167.216 30.592L168.8 30.472C169.648 30.408 170.232 30.424 170.552 30.52C170.872 30.6 171.032 30.792 171.032 31.096C171.032 31.304 170.904 31.44 170.648 31.504C170.408 31.568 169.76 31.64 168.704 31.72C167.696 31.784 167.176 31.84 167.144 31.888C167.096 31.936 167.064 32.616 167.048 33.928C167.016 34.872 166.976 35.448 166.928 35.656C166.88 35.848 166.744 36 166.52 36.112C166.312 36.224 166.16 36.272 166.064 36.256C165.984 36.24 165.896 36.16 165.8 36.016C165.624 35.808 165.584 35.488 165.68 35.056C165.84 33.952 165.976 31.808 166.088 28.624C166.136 27.2 166.224 26.408 166.352 26.248ZM158.504 27.04C159.992 26.848 160.944 26.76 161.36 26.776C161.776 26.776 161.984 26.896 161.984 27.136C161.984 27.44 161.864 27.832 161.624 28.312C161.4 28.792 161.104 29.264 160.736 29.728C160.384 30.128 160.184 30.392 160.136 30.52C160.104 30.648 160.16 30.824 160.304 31.048C160.464 31.336 160.84 31.712 161.432 32.176C162.296 32.832 162.648 33.376 162.488 33.808C162.376 34.096 162.144 34.192 161.792 34.096C161.456 33.984 161.08 33.696 160.664 33.232C160.12 32.704 159.784 32.336 159.656 32.128C159.56 31.936 159.432 31.84 159.272 31.84C159.112 31.84 158.808 32.104 158.36 32.632C157.928 33.16 157.688 33.552 157.64 33.808C157.576 34.064 157.432 34.248 157.208 34.36C157 34.472 156.752 34.488 156.464 34.408C155.76 34.248 155.832 33.688 156.68 32.728C156.92 32.456 157.4 31.88 158.12 31C158.616 30.36 159 29.92 159.272 29.68C159.576 29.36 159.808 29.056 159.968 28.768C160.128 28.528 160.208 28.376 160.208 28.312C160.224 28.248 160.16 28.192 160.016 28.144C159.808 28.048 159.048 28.136 157.736 28.408C157.128 28.536 156.608 28.64 156.176 28.72C155.76 28.784 155.504 28.816 155.408 28.816C155.168 28.816 155.016 28.728 154.952 28.552C154.888 28.36 154.936 28.144 155.096 27.904C155.24 27.696 155.52 27.544 155.936 27.448C156.352 27.336 157.208 27.2 158.504 27.04ZM183.188 24.184C183.636 23.688 184.036 23.472 184.388 23.536C184.58 23.568 184.676 23.688 184.676 23.896C184.676 24.12 184.58 24.312 184.388 24.472C183.892 24.888 184.068 25.328 184.916 25.792C186.58 26.704 187.468 27.312 187.58 27.616C187.628 27.728 187.628 27.864 187.58 28.024C187.548 28.184 187.484 28.328 187.388 28.456C187.292 28.568 187.196 28.624 187.1 28.624C186.972 28.624 186.644 28.416 186.116 28C185.732 27.696 185.204 27.352 184.532 26.968C183.876 26.568 183.468 26.368 183.308 26.368C183.228 26.368 182.972 26.696 182.54 27.352C182.108 28.008 181.756 28.616 181.484 29.176C181.292 29.544 181.148 29.76 181.052 29.824C180.972 29.872 180.796 29.848 180.524 29.752C180.428 29.72 180.332 29.68 180.236 29.632C180.156 29.568 180.084 29.504 180.02 29.44C179.972 29.376 179.948 29.32 179.948 29.272C179.948 29.096 180.292 28.528 180.98 27.568C181.652 26.544 182.092 25.848 182.3 25.48C182.524 25.032 182.82 24.6 183.188 24.184ZM186.668 31.48C187.18 31.32 187.644 31.336 188.06 31.528C188.492 31.704 188.644 31.96 188.516 32.296C188.436 32.488 188.252 32.632 187.964 32.728C187.676 32.824 187.396 32.84 187.124 32.776C186.82 32.712 186.468 32.712 186.068 32.776L185.516 32.896L185.468 35.248C185.452 36.912 185.436 37.8 185.42 37.912C185.42 38.136 185.236 38.248 184.868 38.248C184.676 38.248 184.532 38.216 184.436 38.152C184.34 38.104 184.26 37.968 184.196 37.744C184.132 37.536 184.1 37.24 184.1 36.856C184.116 36.456 184.124 35.92 184.124 35.248C184.156 34.208 184.156 33.584 184.124 33.376C184.108 33.168 184.012 33.072 183.836 33.088C183.708 33.12 183.1 33.168 182.012 33.232C181.836 33.248 181.636 33.264 181.412 33.28C181.204 33.296 181.02 33.312 180.86 33.328C180.7 33.328 180.54 33.336 180.38 33.352C180.22 33.368 180.108 33.376 180.044 33.376C179.804 33.408 179.644 33.4 179.564 33.352C179.5 33.288 179.46 33.152 179.444 32.944C179.396 32.672 179.436 32.472 179.564 32.344C179.708 32.216 179.964 32.12 180.332 32.056C180.7 31.992 181.308 31.952 182.156 31.936C184.508 31.84 186.012 31.688 186.668 31.48ZM257.759 24.28C257.967 23.88 258.271 23.816 258.671 24.088C258.767 24.136 258.815 24.4 258.815 24.88C258.831 25.344 258.807 26.224 258.743 27.52C258.647 29.456 258.599 30.8 258.599 31.552C258.599 31.904 258.575 32.12 258.527 32.2C258.479 32.264 258.319 32.296 258.047 32.296C257.775 32.296 257.607 32.248 257.543 32.152C257.495 32.056 257.455 31.72 257.423 31.144L257.375 29.992L256.679 30.088C256.167 30.168 255.719 30.256 255.335 30.352C255.127 30.4 254.935 30.424 254.759 30.424C254.583 30.408 254.431 30.368 254.303 30.304C254.191 30.24 254.103 30.16 254.039 30.064C253.991 29.968 253.983 29.856 254.015 29.728C254.047 29.6 254.127 29.464 254.255 29.32C254.431 29.144 254.943 29.016 255.791 28.936C256.543 28.872 257.031 28.768 257.255 28.624C257.479 28.464 257.575 28.192 257.543 27.808C257.511 27.552 257.455 27.392 257.375 27.328C257.311 27.264 257.159 27.232 256.919 27.232C256.599 27.232 256.151 27.28 255.575 27.376C255.031 27.472 254.703 27.432 254.591 27.256C254.495 27.064 254.631 26.784 254.999 26.416C255.191 26.224 255.399 26.088 255.623 26.008C255.863 25.912 256.191 25.848 256.607 25.816C257.119 25.768 257.423 25.72 257.519 25.672C257.615 25.608 257.647 25.448 257.615 25.192C257.599 24.824 257.647 24.52 257.759 24.28ZM251.063 24.28C251.127 24.2 251.407 24.168 251.903 24.184C252.399 24.2 252.695 24.256 252.791 24.352C252.887 24.432 252.935 25.424 252.935 27.328C252.951 29.216 252.919 30.288 252.839 30.544C252.839 30.544 252.831 30.552 252.815 30.568C252.735 30.824 252.591 30.984 252.383 31.048C252.175 31.112 251.479 31.208 250.295 31.336C250.199 31.352 250.127 31.36 250.079 31.36C249.551 31.424 249.079 31.496 248.663 31.576C248.439 31.624 248.279 31.616 248.183 31.552C248.103 31.488 248.007 31.32 247.895 31.048C247.671 30.536 247.479 29.176 247.319 26.968C247.271 26.44 247.391 26.008 247.679 25.672C247.903 25.4 248.319 25.136 248.927 24.88C249.551 24.608 250.055 24.472 250.439 24.472C250.775 24.472 250.983 24.408 251.063 24.28ZM251.735 27.568C251.735 26.848 251.719 26.344 251.687 26.056C251.655 25.768 251.599 25.632 251.519 25.648C251.135 25.68 250.695 25.76 250.199 25.888C249.719 26.016 249.351 26.144 249.095 26.272C248.823 26.416 248.655 26.544 248.591 26.656C248.543 26.768 248.551 26.976 248.615 27.28C248.679 27.808 248.711 28.376 248.711 28.984V30.016L249.935 29.896C249.999 29.88 250.079 29.872 250.175 29.872C250.495 29.84 250.719 29.816 250.847 29.8C250.975 29.784 251.119 29.744 251.279 29.68C251.439 29.616 251.535 29.56 251.567 29.512C251.599 29.448 251.639 29.328 251.687 29.152C251.735 28.96 251.759 28.792 251.759 28.648C251.759 28.504 251.751 28.248 251.735 27.88C251.735 27.752 251.735 27.648 251.735 27.568ZM254.567 33.04C255.143 32.88 255.535 32.808 255.743 32.824C255.967 32.84 256.247 32.968 256.583 33.208C256.919 33.448 257.231 33.84 257.519 34.384C257.807 34.912 257.951 35.368 257.951 35.752C257.951 36.568 257.703 37.304 257.207 37.96C256.727 38.632 256.151 39.024 255.479 39.136C254.807 39.248 254.039 39.024 253.175 38.464C252.311 37.904 251.807 37.312 251.663 36.688C251.631 36.496 251.631 36.24 251.663 35.92C251.711 35.6 251.783 35.312 251.879 35.056C251.975 34.8 252.071 34.672 252.167 34.672C252.263 34.672 252.311 34.6 252.311 34.456C252.311 34.248 252.527 34.008 252.959 33.736C253.407 33.448 253.943 33.216 254.567 33.04ZM255.935 34.336C255.759 34.208 255.599 34.144 255.455 34.144C255.311 34.144 254.999 34.208 254.519 34.336C254.119 34.432 253.743 34.672 253.391 35.056C253.039 35.424 252.863 35.768 252.863 36.088C252.863 36.36 253.039 36.688 253.391 37.072C253.759 37.472 254.103 37.72 254.423 37.816C255.575 38.088 256.319 37.512 256.655 36.088C256.799 35.432 256.559 34.848 255.935 34.336Z" fill="#635E5E"/>
<g clip-path="url(#clip0_0_1)">
<path d="M24.7522 13.2813C29.938 10.9993 35.9196 13.6299 38.1163 19.1588C38.6994 20.6226 38.9548 22.1434 38.9224 23.6309C38.9224 23.6309 38.9208 23.6353 38.9191 23.6396C38.9054 24.3768 38.8177 25.1048 38.6635 25.8165C38.3411 28.7801 37.8758 33.9804 38.2754 36.4322L31.6443 39.6411C31.6443 39.6411 26.8332 35.227 23.2918 32.4077C22.9237 32.1556 22.5683 31.8833 22.229 31.5819C21.0093 30.497 20.0035 29.0978 19.3418 27.436C17.145 21.9071 19.5688 15.5693 24.7505 13.2856L24.7522 13.2813Z" fill="#EFC344"/>
<path d="M36.2676 37.7475C35.8853 36.4542 35.6083 35.1269 35.3516 33.7975C35.0948 32.4682 34.8742 31.1582 34.6864 29.8259C34.5888 29.1507 34.5013 28.4744 34.4222 27.8015C34.3455 27.1599 34.1966 26.4542 34.3422 25.8149C34.3993 25.5546 34.5171 25.2124 34.7742 25.0871C35.1063 24.9309 35.3159 25.2666 35.4087 25.5409C35.5901 26.0624 35.6332 26.6402 35.5316 27.1909C35.4779 27.4677 35.3972 27.7388 35.2703 27.9915C35.1544 28.2284 35.0081 28.4684 34.7763 28.6037C34.5056 28.7641 34.2196 28.6759 34.008 28.4707C33.7963 28.2655 33.605 28.033 33.422 27.8038C32.6944 26.8888 32.1112 25.8391 31.7023 24.7272C31.5986 24.4436 31.5026 24.1529 31.4208 23.8629C31.3491 23.597 31.2867 23.2944 31.4633 23.0513C31.6398 22.8081 31.9783 22.7858 32.1629 23.0358C32.329 23.2583 32.3905 23.6009 32.4546 23.8739C32.5979 24.4561 32.6856 25.0819 32.6495 25.6889C32.6196 26.1923 32.486 26.7506 32.0996 27.0973C31.3224 27.7892 30.1484 26.9749 29.5293 26.4565C28.8748 25.9039 28.1998 25.1664 27.9436 24.312C27.8551 24.0143 27.7729 23.5624 27.9899 23.2898C28.2661 22.9397 28.6407 23.3005 28.8134 23.5559C29.0533 23.9138 29.2358 24.3195 29.3501 24.7387C29.5211 25.3622 29.6407 26.0057 29.6895 26.6565C29.7319 27.1987 29.6358 27.9486 28.9714 27.9982C28.7104 28.0209 28.458 27.9208 28.2251 27.8082C27.9712 27.6873 27.7274 27.5401 27.498 27.3682C27.0241 27.0135 26.6119 26.5621 26.2908 26.0508C26.1507 25.8235 25.9973 25.5807 25.9037 25.3213C25.81 25.0619 25.846 24.8186 26.0594 24.6557C26.4491 24.3506 26.8726 24.9985 27.0428 25.2732C27.3539 25.7603 27.6111 26.2866 27.8185 26.8286C28.0259 27.3705 28.2121 27.9799 28.2872 28.5754C28.3243 28.868 28.2848 29.1705 28.1083 29.4137C27.952 29.6295 27.7167 29.7736 27.4648 29.8353C26.8591 29.984 26.3164 29.5565 25.9403 29.1245C25.7749 28.9376 25.5693 28.7045 25.6045 28.4255C25.6397 28.1465 25.8817 28.0101 26.1232 28.0503C26.3874 28.0946 26.5983 28.2893 26.7931 28.4626C27.0166 28.6624 27.229 28.878 27.4263 29.1078C27.8384 29.5845 28.194 30.1196 28.5235 30.6594C29.9144 32.9439 31.1703 35.3263 32.347 37.7379C32.636 38.3324 32.9215 38.9357 33.2029 39.5373C33.3251 39.798 32.918 39.985 32.7958 39.7244C31.8203 37.6199 30.7766 35.554 29.6586 33.5294C29.1106 32.5391 28.5583 31.5471 27.9579 30.5917C27.667 30.1277 27.3507 29.6789 26.9906 29.2684C26.8227 29.0755 26.6397 28.8968 26.4473 28.7295C26.3641 28.6561 26.2785 28.5767 26.1784 28.5218C26.1465 28.5041 26.0565 28.4482 26.0152 28.4672C26.0329 28.4591 26.0102 28.4551 26.0186 28.4837C26.026 28.527 26.0453 28.565 26.0662 28.5986C26.1316 28.7053 26.2265 28.7985 26.3088 28.8868C26.4868 29.0786 26.6926 29.2613 26.9407 29.3597C27.2939 29.4998 27.7851 29.3461 27.8595 28.9159C27.9014 28.6699 27.8229 28.3963 27.7696 28.1579C27.713 27.9031 27.6463 27.6493 27.5678 27.401C27.4133 26.9103 27.2133 26.437 26.972 25.9826C26.8673 25.7895 26.7608 25.6008 26.6367 25.4202C26.5813 25.3376 26.5218 25.2534 26.4529 25.1806C26.3992 25.1189 26.3244 25.074 26.269 25.0167C26.2421 24.9858 26.2639 25.0046 26.2707 25.0123C26.2916 25.0459 26.3248 24.8974 26.2664 25.0359C26.2427 25.0972 26.2904 25.1868 26.3189 25.2385C26.4169 25.4492 26.5325 25.6516 26.6575 25.8427C26.9351 26.266 27.2768 26.649 27.6717 26.9572C27.8649 27.1097 28.075 27.2435 28.2936 27.3555C28.4761 27.4481 28.6737 27.5517 28.8799 27.5578C29.401 27.5776 29.2634 26.7299 29.228 26.4077C29.1671 25.8633 29.0674 25.3186 28.9147 24.7983C28.8196 24.4676 28.6697 24.1404 28.4827 23.8591C28.4407 23.792 28.3929 23.7275 28.3375 23.6702C28.3173 23.647 28.3241 23.6548 28.2997 23.6299C28.2913 23.6266 28.2174 23.567 28.2585 23.5985C28.2392 23.5857 28.2585 23.5985 28.2804 23.592C28.3226 23.5834 28.272 23.5887 28.3175 23.5713C28.3175 23.5713 28.3209 23.5626 28.3108 23.5889C28.2904 23.6414 28.3023 23.6108 28.2954 23.6535C28.2089 24.2658 28.6904 24.9266 29.0673 25.3691C29.5482 25.9438 30.1564 26.478 30.8452 26.7664C31.1992 26.917 31.6384 27.0104 31.9138 26.6498C32.1689 26.3166 32.2231 25.838 32.2217 25.4283C32.2196 24.9072 32.1351 24.3735 32.0042 23.872C31.9725 23.7534 31.9366 23.6331 31.899 23.5171C31.8781 23.4583 31.8614 23.4012 31.8346 23.3451C31.817 23.3027 31.7977 23.3153 31.8272 23.3017C31.6881 23.3728 31.8478 23.7746 31.8779 23.8724C32.1701 24.8471 32.592 25.7874 33.1354 26.6394C33.4046 27.0594 33.7007 27.4597 34.0214 27.8345C34.1288 27.9579 34.3401 28.2893 34.528 28.2426C34.6956 28.1979 34.8183 27.9435 34.8844 27.798C35.0841 27.3822 35.1754 26.9082 35.1454 26.4467C35.1317 26.219 35.0935 25.9917 35.0217 25.7763C35.005 25.7192 34.9824 25.6647 34.9598 25.6103C34.9573 25.6043 34.9221 25.5448 34.923 25.53L34.9137 25.5163C34.8936 25.4931 34.9037 25.4921 34.9457 25.5088C34.9449 25.5236 34.8976 25.5705 34.8925 25.5836C34.8545 25.6443 34.8291 25.71 34.8078 25.7773C34.6306 26.298 34.7637 26.9065 34.8213 27.4345C34.8889 28.0119 34.9582 28.585 35.0358 29.1613C35.3457 31.4564 35.7482 33.7377 36.2249 36.0029C36.3397 36.5587 36.4544 37.1144 36.5591 37.6712C36.5906 37.8403 36.3227 37.931 36.2726 37.7596L36.2676 37.7475Z" fill="#403E3D"/>
<path d="M39.8226 43.2384C39.6739 41.7802 38.4112 40.7438 36.9972 40.9254C35.5832 41.107 34.5562 42.4323 34.7048 43.8905C34.8535 45.3487 36.1162 46.3851 37.5302 46.2035C38.9442 46.0218 39.9712 44.6966 39.8226 43.2384Z" fill="#858481"/>
<path d="M31.6699 38.9738L37.9726 36.1499C38.6013 35.879 39.3178 36.1834 39.5679 36.8282C39.7109 37.1981 39.6627 37.5983 39.4868 37.9276C39.2546 37.8758 39.0036 37.8975 38.7651 37.9999L32.4624 40.8239C32.1944 40.9398 31.9885 41.146 31.8565 41.3867C31.4712 41.3045 31.1343 41.0345 30.9829 40.636C30.7328 39.9912 31.0411 39.2447 31.6699 38.9738V38.9738Z" fill="#ACABA8"/>
<path d="M32.574 41.3132L38.8767 38.4893C39.1447 38.3734 39.3506 38.1671 39.4826 37.9265C39.868 38.0086 40.2049 38.2787 40.3562 38.6772C40.5143 39.0834 40.4492 39.5274 40.2236 39.8723C39.9938 39.8266 39.7488 39.8456 39.512 39.9436L33.2093 42.7675C32.9767 42.8672 32.786 43.034 32.655 43.2346C32.2679 43.1568 31.9268 42.8851 31.7729 42.4806C31.6299 42.1107 31.6781 41.7105 31.854 41.3812C32.0863 41.4329 32.3372 41.4112 32.5757 41.3089L32.574 41.3132Z" fill="#ACABA8"/>
<path d="M32.4639 40.8201L38.7666 37.9962C39.0051 37.8938 39.2544 37.8765 39.4883 37.9238C39.3546 38.1688 39.1487 38.3751 38.8824 38.4866L32.5797 41.3106C32.3412 41.413 32.0919 41.4303 31.858 41.3829C31.9917 41.1379 32.1976 40.9317 32.4639 40.8201V40.8201Z" fill="#858481"/>
<path d="M33.3664 43.1631L39.6691 40.3392C39.9017 40.2395 40.0924 40.0727 40.2234 39.8721C40.6105 39.9499 40.9516 40.2216 41.1055 40.6261C41.3556 41.2709 41.0472 42.0174 40.4185 42.2883L34.1158 45.1123C33.4871 45.3831 32.7706 45.0787 32.5205 44.4339C32.3624 44.0277 32.4275 43.5838 32.6532 43.2388C32.8829 43.2845 33.1321 43.2672 33.3647 43.1675L33.3664 43.1631Z" fill="#ACABA8"/>
<path d="M39.516 39.9444C39.7486 39.8447 39.9995 39.823 40.2275 39.873C40.0965 40.0737 39.9059 40.2405 39.6732 40.3402L33.3705 43.1641C33.1379 43.2638 32.887 43.2854 32.659 43.2354C32.79 43.0348 32.9807 42.868 33.2133 42.7683L39.516 39.9444V39.9444Z" fill="#858481"/>
<path d="M17.8688 13.6564C16.9434 12.4255 16.0314 11.1848 15.127 9.93694C15.0197 9.78826 14.914 9.6352 14.8066 9.48652C14.6379 9.25797 14.4693 9.02943 14.3066 8.79817C14.174 8.61425 14.4658 8.41177 14.5984 8.59569C15.5271 9.86833 16.4676 11.1356 17.3964 12.4082C17.6497 12.7562 17.9073 13.1059 18.1606 13.454C18.2932 13.6379 18.0048 13.8316 17.8705 13.6521L17.8688 13.6564Z" fill="#EFC344" stroke="#EFC344" stroke-miterlimit="10"/>
<path d="M22.3721 9.75446C22.1699 8.49724 21.9753 7.23293 21.7932 5.97363C21.7734 5.82433 21.7511 5.66897 21.7313 5.51967C21.6948 5.28799 21.66 5.05194 21.6278 4.82193C21.5988 4.63363 21.8859 4.6061 21.9124 4.78835C22.1011 6.0806 22.3058 7.3691 22.4986 8.66302C22.5508 9.0171 22.6029 9.37118 22.6551 9.72526C22.6798 9.9119 22.4028 9.93838 22.3721 9.75446V9.75446Z" fill="#EFC344" stroke="#EFC344" stroke-miterlimit="10"/>
<path d="M15.2452 25.8261C13.76 26.1917 12.2682 26.5495 10.7789 26.8882C10.5986 26.9278 10.4226 26.9691 10.244 27.0043C9.97191 27.0681 9.69392 27.1346 9.42183 27.1985C9.20366 27.2483 9.15152 26.8942 9.37139 26.84C10.8961 26.4851 12.42 26.1197 13.9463 25.7604C14.3625 25.6628 14.7828 25.5669 15.1989 25.4693C15.4171 25.4195 15.4625 25.7658 15.2469 25.8217L15.2452 25.8261Z" fill="#EFC344" stroke="#EFC344" stroke-miterlimit="10"/>
<path d="M15.3418 19.8233C13.8813 19.4106 9.69718 18.4276 8.24269 17.987C8.0694 17.9334 7.89611 17.8798 7.72282 17.8263C7.45363 17.7447 7.18695 17.6692 6.91775 17.5877C6.70072 17.5218 6.82702 17.183 7.03985 17.2472C8.52716 17.6907 12.7466 18.6827 14.2398 19.1235C14.6487 19.2453 15.0575 19.367 15.4622 19.4871C15.675 19.5514 15.5521 19.8815 15.3418 19.8233V19.8233Z" fill="#EFC344" stroke="#EFC344" stroke-miterlimit="10"/>
</g>
<path d="M175.891 111.264L289.956 106.217L290.684 122.682L176.619 127.728L175.891 111.264Z" fill="#FFBFBF" fill-opacity="0.5"/>
<path d="M45.6083 82.627V80.7109H43.9559V82.5742C43.9472 84.9473 42.4882 87.1357 40.036 88.0059L40.9325 89.3242C42.787 88.6123 44.1317 87.1797 44.8085 85.3691C45.4852 86.9951 46.7772 88.2959 48.4911 88.9551L49.4052 87.6543C47.0321 86.8193 45.6171 84.7627 45.6083 82.627ZM42.9013 95.1602H53.536V93.8066H44.5888V90.1855H42.9013V95.1602ZM48.1923 84.7188H51.5145V91.5039H53.1845V79.7617H51.5145V83.3477H48.1923V84.7188ZM57.5396 81.2031H55.9576V91.6094H62.0923V81.2031H60.5455V84.9648H57.5396V81.2031ZM57.5396 90.2559V86.2832H60.5455V90.2559H57.5396ZM63.8502 94.7207H65.4322V87.2852H67.3834V95.4941H68.983V79.7441H67.3834V85.9141H65.4322V80.043H63.8502V94.7207ZM85.1858 86.1953H70.8069V87.5312H85.1858V86.1953ZM72.5295 90.0625H81.7053V91.3633H72.5471V95.3184H83.7971V94H74.1819V92.5938H83.3577V88.7793H72.5295V90.0625ZM72.6877 85.0527H83.4807V83.7168H74.3577V81.5547H83.3225V80.2012H72.6877V85.0527ZM99.7363 79.7441H98.1366V95.4941H99.7363V79.7441ZM86.3593 86.5469C86.3593 89.9658 87.6952 92.1104 89.7519 92.1016C91.703 92.1104 93.0126 90.2031 93.162 87.127H94.9374V94.7207H96.537V80.043H94.9374V85.7734H93.1532C92.9599 82.8203 91.6679 81.001 89.7519 81.0098C87.6952 81.001 86.3593 83.1367 86.3593 86.5469ZM87.9062 86.5469C87.9062 84.0332 88.6181 82.5654 89.7519 82.5742C90.912 82.5654 91.6327 84.0332 91.6327 86.5469C91.6327 89.0518 90.912 90.5283 89.7519 90.5195C88.6181 90.5283 87.9062 89.0518 87.9062 86.5469ZM115.095 79.7441H113.513V95.4941H115.095V79.7441ZM101.507 90.9414L102.457 92.1367C104.68 90.8359 106.183 89.2363 107.115 87.4082H110.191V94.7207H111.773V80.1484H110.191V86.0723H107.695C108.178 84.7012 108.389 83.2334 108.398 81.6953H102.246V83.0664H106.737C106.447 86.3096 104.847 88.9551 101.507 90.9414ZM129.413 81.2559H122.03V91.6094H129.413V81.2559ZM123.683 90.2559V82.5742H127.796V90.2559H123.683ZM132.524 95.5293H134.194V79.7441H132.524V95.5293ZM145.001 80.8867H137.424V88.4453H138.725C142.171 88.4541 144.131 88.3926 146.407 88.0234L146.231 86.6699C144.095 87.0391 142.258 87.0918 139.112 87.0742V85.2812H144.561V83.9629H139.112V82.2227H145.001V80.8867ZM138.954 92.5586C138.954 94.4131 140.966 95.4678 144.315 95.459C147.611 95.4678 149.668 94.4131 149.676 92.5586C149.668 90.7217 147.611 89.6582 144.315 89.6582C140.966 89.6582 138.954 90.7217 138.954 92.5586ZM140.624 92.5586C140.615 91.5566 141.968 90.9678 144.315 90.9766C146.618 90.9678 148.015 91.5566 148.006 92.5586C148.015 93.5869 146.618 94.167 144.315 94.1758C141.968 94.167 140.615 93.5869 140.624 92.5586ZM147.919 89.4473H149.589V79.7617H147.919V89.4473ZM170.516 89.0078H156.102V90.3262H162.447V95.4941H164.082V90.3262H170.516V89.0078ZM157.895 87.2148H168.705V80.377H167.035V82.4336H159.547V80.377H157.895V87.2148ZM159.547 85.8789V83.7695H167.035V85.8789H159.547ZM179.494 80.7988H172.181V88.498H173.412C176.646 88.5156 178.501 88.4365 180.654 88.0586L180.478 86.7227C178.466 87.0742 176.743 87.1621 173.851 87.1621V85.2637H179.195V83.9629H173.851V82.1523H179.494V80.7988ZM173.465 91.3633H182.201V95.4941H183.871V90.0098H173.465V91.3633ZM182.201 89.2891H183.871V85.2285H186.156V83.8223H183.871V79.7441H182.201V89.2891ZM201.234 87.9707H186.872V89.3066H201.234V87.9707ZM188.419 83.418C188.411 85.4043 190.617 86.6084 194.044 86.6172C197.454 86.6084 199.661 85.4043 199.669 83.418C199.661 81.4404 197.454 80.2627 194.044 80.2715C190.617 80.2627 188.411 81.4404 188.419 83.418ZM188.683 95.1602H199.617V93.8066H190.37V90.5898H188.683V95.1602ZM190.142 83.418C190.133 82.293 191.627 81.6074 194.044 81.6074C196.453 81.6074 197.955 82.293 197.947 83.418C197.955 84.5869 196.453 85.2461 194.044 85.2461C191.627 85.2461 190.133 84.5869 190.142 83.418ZM219.507 79.7441H217.837V95.5293H219.507V79.7441ZM207.009 86.4414C207.009 89.8428 208.705 91.9873 211.087 91.9785C213.425 91.9873 215.147 89.8428 215.147 86.4414C215.147 83.0752 213.425 80.9307 211.087 80.9219C208.705 80.9307 207.009 83.0752 207.009 86.4414ZM208.626 86.4414C208.617 83.9717 209.619 82.4248 211.087 82.416C212.528 82.4248 213.53 83.9717 213.53 86.4414C213.53 88.9463 212.528 90.4844 211.087 90.4844C209.619 90.4844 208.617 88.9463 208.626 86.4414ZM235.358 79.7441H233.758V95.4941H235.358V79.7441ZM221.612 91.1523L222.631 92.4004C224.169 91.4424 225.242 89.6846 225.804 87.6279C226.358 89.5264 227.386 91.1348 228.889 92.0312L229.891 90.8008C227.676 89.5264 226.586 86.8281 226.586 84.1387V82.873H229.293V81.5195H222.086V82.873H224.987V84.1387C224.978 86.9424 223.844 89.8076 221.612 91.1523ZM228.133 86.6875H230.577V94.7031H232.159V80.0781H230.577V85.3164H228.133V86.6875ZM253.912 81.3438H242.978V82.7148H252.26V83.0312C252.26 85.0176 252.26 87.3291 251.627 90.4844L253.332 90.6426C253.912 87.2764 253.912 85.0703 253.912 83.0312V81.3438ZM241.431 93.2617H255.793V91.873H241.431V93.2617ZM264.789 81.1328H257.423V88.4805H264.789V81.1328ZM259.058 87.1621V82.4863H263.154V87.1621H259.058ZM259.199 95.1602H269.851V93.8066H260.869V90.168H259.199V95.1602ZM267.513 91.2754H269.183V85.8438H271.468V84.4375H269.183V79.7266H267.513V91.2754ZM275.085 81.2734H273.028L273.187 90.3262H274.927L275.085 81.2734ZM272.818 92.875C272.809 93.5605 273.38 94.1143 274.066 94.123C274.742 94.1143 275.305 93.5605 275.314 92.875C275.305 92.1895 274.742 91.627 274.066 91.627C273.38 91.627 272.809 92.1895 272.818 92.875Z" fill="black"/>
<path d="M39.8511 105.592H29.1871V120.547H39.8511V105.592ZM31.5738 118.592V107.496H37.5152V118.592H31.5738ZM44.3453 126.209H46.7574V103.408H44.3453V126.209ZM62.3665 105.059H51.4232V115.977H53.3021C58.2786 115.989 61.1097 115.9 64.3978 115.367L64.1439 113.412C61.0589 113.945 58.4056 114.021 53.8607 113.996V111.406H61.7318V109.502H53.8607V106.988H62.3665V105.059ZM53.6322 121.918C53.6322 124.597 56.5394 126.12 61.3763 126.107C66.137 126.12 69.1077 124.597 69.1204 121.918C69.1077 119.265 66.137 117.729 61.3763 117.729C56.5394 117.729 53.6322 119.265 53.6322 121.918ZM56.0443 121.918C56.0316 120.471 57.9866 119.62 61.3763 119.633C64.7025 119.62 66.721 120.471 66.7083 121.918C66.721 123.403 64.7025 124.241 61.3763 124.254C57.9866 124.241 56.0316 123.403 56.0443 121.918ZM66.5814 117.424H68.9935V103.434H66.5814V117.424ZM82.6983 103.789C77.5694 103.776 74.5606 105.16 74.5733 107.699C74.5606 110.251 77.5694 111.635 82.6983 111.635C87.8272 111.635 90.8106 110.251 90.8233 107.699C90.8106 105.16 87.8272 103.776 82.6983 103.789ZM72.3389 114.961H93.0831V113.031H72.3389V114.961ZM74.8272 118.516H88.0811V120.293H74.8526V125.93H91.1026V124.076H77.2139V122.045H90.4679V116.713H74.8272V118.516ZM77.087 107.699C77.0743 106.354 79.0802 105.566 82.6983 105.566C86.3419 105.566 88.3477 106.354 88.335 107.699C88.3477 109.108 86.3419 109.832 82.6983 109.832C79.0802 109.832 77.0743 109.108 77.087 107.699ZM121.381 112.955H100.637V114.885H121.381V112.955ZM101.704 110.111L102.465 111.99C106.376 111.635 109.626 110.213 110.997 108.067C112.368 110.226 115.643 111.635 119.553 111.99L120.34 110.111C116.151 109.807 112.876 108.169 112.444 106.176H119.528V104.246H102.542V106.176H109.549C109.118 108.169 105.855 109.807 101.704 110.111ZM103.126 118.516H116.379V120.318H103.151V125.93H119.401V124.076H105.512V122.07H118.766V116.713H103.126V118.516ZM141.764 103.408H139.327V126.158H141.764V103.408ZM123.077 120.064L124.346 122.02C132.154 118.274 134.985 112.511 134.985 105.846H124.168V107.775H132.547C132.077 113.082 129.119 117.183 123.077 120.064ZM163.467 110.061H150.188V104.221H147.801V111.99H163.467V110.061ZM145.033 116.789H165.854V114.859H145.033V116.789ZM147.623 125.625H163.619V123.645H150.035V118.947H147.623V125.625ZM180.365 109.578V105.49H178.029V109.73C178.029 113.603 176.302 117.665 173.052 119.557L174.576 121.309C176.785 120.001 178.346 117.589 179.184 114.758C179.984 117.348 181.444 119.519 183.589 120.725L185.011 118.82C181.926 117.157 180.365 113.349 180.365 109.578ZM185.57 125.041H187.881V114.428H190.623V126.158H192.933V103.408H190.623V112.473H187.881V103.84H185.57V125.041ZM216.388 121.41H207.121V117.424H214.382V115.443H200.494V112.117H213.849V105.008H198.056V106.988H211.462V110.188H198.107V117.424H204.734V121.41H195.568V123.441H216.388V121.41ZM238.573 114.809H217.753V116.764H227.122V121.182H229.56V116.764H238.573V114.809ZM220.038 108.562C220.026 111.394 223.25 113.158 228.138 113.158C233.026 113.158 236.225 111.394 236.212 108.562C236.225 105.719 233.026 103.954 228.138 103.941C223.25 103.954 220.026 105.719 220.038 108.562ZM220.368 125.676H236.263V123.695H222.78V118.998H220.368V125.676ZM222.628 108.562C222.603 106.874 224.812 105.884 228.138 105.871C231.477 105.884 233.66 106.874 233.673 108.562C233.66 110.2 231.477 111.203 228.138 111.203C224.812 111.203 222.603 110.2 222.628 108.562ZM256.614 117.576C251.879 117.576 248.971 119.15 248.971 121.842C248.971 124.571 251.879 126.146 256.614 126.158C261.299 126.146 264.155 124.571 264.155 121.842C264.155 119.15 261.299 117.576 256.614 117.576ZM246.966 115.393H257.68V104.83H255.294V108.105H249.327V104.83H246.966V115.393ZM249.327 113.463V110.01H255.294V113.463H249.327ZM251.383 121.842C251.371 120.331 253.326 119.48 256.614 119.48C259.877 119.48 261.806 120.331 261.794 121.842C261.806 123.365 259.877 124.229 256.614 124.229C253.326 124.229 251.371 123.365 251.383 121.842ZM261.54 116.992H263.952V111.025H267.253V108.969H263.952V103.408H261.54V116.992ZM271.791 104.576H269.379V115.062H279.866V110.873H284.842V115.824H287.254V103.408H284.842V108.867H279.866V104.576H277.479V107.902H271.791V104.576ZM271.791 113.107V109.781H277.479V113.107H271.791ZM272.426 125.828H287.229V116.891H284.842V119.455H274.813V116.891H272.426V125.828ZM274.813 123.873V121.334H284.842V123.873H274.813Z" fill="black"/>
<g clip-path="url(#clip1_0_1)">
<path d="M68.6369 262.852C68.6658 216.94 101.217 177.322 145.929 171.569C190.642 165.815 231.955 195.934 243.344 240.378L248.981 239.655C237.152 191.976 193.002 159.572 145.193 165.72C97.3915 171.868 62.6608 214.421 63 263.582L68.6369 262.859V262.852Z" fill="#DD4B4B"/>
<path d="M74.4906 262.1C74.902 219.555 105.187 182.982 146.695 177.644C188.203 172.307 226.571 200.052 237.491 241.138L243.345 240.386C231.963 195.942 190.65 165.823 145.93 171.577C101.217 177.323 68.6661 216.941 68.6372 262.852L74.4906 262.1V262.1Z" fill="#F2D766"/>
<path d="M80.3942 261.34C81.1809 222.196 109.185 188.683 147.459 183.762C185.734 178.84 221.136 204.191 231.58 241.896L237.484 241.136C226.571 200.051 188.202 172.306 146.694 177.643C105.186 182.98 74.9016 219.553 74.4902 262.099L80.3942 261.34V261.34Z" fill="#7EC182"/>
<path d="M86.2187 260.596C87.3735 224.796 113.126 194.298 148.217 189.779C183.309 185.266 215.788 208.273 225.762 242.649L231.587 241.896C221.143 204.199 185.741 178.841 147.467 183.762C109.192 188.683 81.1881 222.197 80.4014 261.34L86.2259 260.588L86.2187 260.596Z" fill="#5B89B2"/>
<path d="M91.5165 259.909C92.9889 227.147 116.706 199.38 148.91 195.24C181.108 191.1 210.938 211.975 220.472 243.32L225.77 242.641C215.802 208.273 183.316 185.259 148.225 189.771C113.133 194.283 87.3809 224.782 86.2261 260.588L91.5237 259.909H91.5165Z" fill="#9C7DB5"/>
<path d="M99.8239 275.526C99.7445 274.832 99.6651 274.146 99.593 273.452C99.5424 272.992 99.0516 272.788 98.6691 273.022C96.2801 274.533 87.0633 278.454 84.2557 278.79C84.0969 278.812 83.9454 278.826 83.7866 278.841C83.5773 278.863 83.5917 278.87 83.4906 278.709C83.2886 278.395 83.1947 277.913 83.0576 277.563C82.7905 276.855 82.5163 276.147 82.2492 275.438C81.6935 273.963 81.1305 272.496 80.5748 271.021C80.0335 269.604 79.3911 268.188 78.9508 266.735C78.7415 266.041 78.7704 265.413 79.023 264.742C79.2467 264.143 79.5354 263.559 79.6365 262.924C79.853 261.595 79.1746 260.441 78.7487 259.229C78.3373 258.039 78.7776 256.528 77.8249 255.564C76.8505 254.571 75.4359 255.169 74.7863 256.214C74.2017 257.141 74.3316 258.163 74.5193 259.178C74.1079 258.798 73.7037 258.419 73.2923 258.032C72.6355 257.418 71.9715 256.622 71.1126 256.316C69.6835 255.805 68.3194 256.951 68.305 258.309C67.9802 258.346 67.6554 258.499 67.41 258.74C67.0924 259.054 66.9625 259.448 66.9264 259.864C66.1686 259.755 65.3458 260.134 64.9344 260.813C64.1982 262.04 64.7251 263.508 65.5118 264.552C66.8182 266.282 68.8246 267.618 70.8311 268.363C71.3291 268.546 71.8704 268.699 72.419 268.772C74.6636 273.007 76.8505 277.286 79.1746 281.477C80.1128 283.178 81.5997 285.471 83.8371 284.886C84.9486 284.594 86.024 284.025 87.0778 283.579C88.182 283.119 95.8038 279.724 96.908 279.257C97.4854 279.016 98.0701 278.775 98.6475 278.527C99.1816 278.308 99.8167 278.111 99.9611 277.468C100.098 276.862 99.8889 276.117 99.8167 275.511L99.8239 275.526Z" fill="#EF6767"/>
<path d="M100.242 275.469C100.162 274.776 100.083 274.089 100.011 273.396C99.9604 272.936 99.4696 272.731 99.0871 272.965C96.6981 274.476 87.4813 278.397 84.6737 278.733C84.5149 278.755 84.3633 278.77 84.2045 278.784C83.9952 278.806 84.0097 278.813 83.9086 278.653C83.7065 278.339 83.6127 277.857 83.4756 277.506C83.2085 276.798 82.9343 276.09 82.6672 275.382C82.1115 273.907 81.5485 272.439 80.9927 270.964C80.4514 269.548 79.8091 268.131 79.3688 266.678C79.1595 265.985 79.1884 265.357 79.441 264.685C79.6647 264.086 79.9534 263.502 80.0545 262.867C80.271 261.538 79.5925 260.384 79.1667 259.172C78.7553 257.982 79.1956 256.471 78.2429 255.507C77.2685 254.514 75.8539 255.113 75.2043 256.157C74.6197 257.084 74.7496 258.106 74.9372 259.121C74.5258 258.742 74.1216 258.362 73.7102 257.975C73.0535 257.362 72.3894 256.566 71.5306 256.259C70.1015 255.748 68.7374 256.894 68.7229 258.252C68.3981 258.289 68.0734 258.442 67.828 258.683C67.5104 258.997 67.3805 259.391 67.3444 259.808C66.5865 259.698 65.7637 260.078 65.3523 260.757C64.6162 261.983 65.143 263.451 65.9298 264.495C67.2361 266.226 69.2426 267.562 71.2491 268.307C71.7471 268.489 72.2884 268.642 72.8369 268.715C75.0816 272.95 77.2685 277.229 79.5925 281.42C80.5308 283.121 82.0176 285.414 84.2551 284.83C85.3666 284.538 86.442 283.968 87.4957 283.523C88.6 283.063 96.2217 279.668 97.326 279.2C97.9034 278.959 98.488 278.718 99.0654 278.47C99.5995 278.251 100.235 278.054 100.379 277.411C100.516 276.805 100.307 276.061 100.235 275.455L100.242 275.469Z" fill="url(#paint0_radial_0_1)"/>
<path d="M218.971 259.346C218.841 258.659 218.704 257.98 218.574 257.294C218.487 256.841 218.891 256.491 219.324 256.6C222.053 257.316 232.013 258.243 234.784 257.703C234.936 257.674 235.095 257.644 235.246 257.608C235.456 257.564 235.441 257.579 235.492 257.396C235.593 257.038 235.542 256.549 235.564 256.169C235.607 255.41 235.658 254.651 235.701 253.899C235.795 252.322 235.889 250.752 235.982 249.175C236.076 247.656 236.264 246.115 236.25 244.597C236.25 243.866 236.033 243.282 235.586 242.713C235.196 242.216 234.748 241.742 234.46 241.172C233.853 239.967 234.164 238.661 234.2 237.383C234.243 236.12 233.37 234.82 233.983 233.601C234.618 232.352 236.141 232.498 237.072 233.294C237.902 234.002 238.083 235.017 238.205 236.039L239.036 234.579C239.476 233.798 239.873 232.834 240.602 232.272C241.814 231.352 243.453 232.023 243.878 233.316C244.203 233.25 244.55 233.294 244.86 233.455C245.257 233.659 245.502 233.995 245.654 234.382C246.34 234.046 247.242 234.156 247.834 234.681C248.902 235.623 248.837 237.186 248.397 238.427C247.668 240.471 246.152 242.362 244.463 243.684C244.044 244.012 243.575 244.319 243.07 244.553C242.19 249.277 241.381 254.023 240.421 258.725C240.032 260.631 239.303 263.274 236.993 263.398C235.853 263.456 234.654 263.245 233.514 263.142C232.323 263.04 224.045 262.127 222.854 262.025C222.226 261.974 221.605 261.916 220.977 261.865C220.407 261.813 219.743 261.821 219.411 261.259C219.101 260.726 219.079 259.952 218.964 259.353L218.971 259.346Z" fill="#EF6767"/>
<path d="M218.971 259.346C218.841 258.659 218.704 257.98 218.574 257.294C218.487 256.841 218.891 256.491 219.324 256.6C222.053 257.316 232.013 258.243 234.784 257.703C234.936 257.674 235.095 257.644 235.246 257.608C235.456 257.564 235.441 257.579 235.492 257.396C235.593 257.038 235.542 256.549 235.564 256.169C235.607 255.41 235.658 254.651 235.701 253.899C235.795 252.322 235.889 250.752 235.982 249.175C236.076 247.656 236.264 246.115 236.25 244.597C236.25 243.866 236.033 243.282 235.586 242.713C235.196 242.216 234.748 241.742 234.46 241.172C233.853 239.967 234.164 238.661 234.2 237.383C234.243 236.12 233.37 234.82 233.983 233.601C234.618 232.352 236.141 232.498 237.072 233.294C237.902 234.002 238.083 235.017 238.205 236.039L239.036 234.579C239.476 233.798 239.873 232.834 240.602 232.272C241.814 231.352 243.453 232.023 243.878 233.316C244.203 233.25 244.55 233.294 244.86 233.455C245.257 233.659 245.502 233.995 245.654 234.382C246.34 234.046 247.242 234.156 247.834 234.681C248.902 235.623 248.837 237.186 248.397 238.427C247.668 240.471 246.152 242.362 244.463 243.684C244.044 244.012 243.575 244.319 243.07 244.553C242.19 249.277 241.381 254.023 240.421 258.725C240.032 260.631 239.303 263.274 236.993 263.398C235.853 263.456 234.654 263.245 233.514 263.142C232.323 263.04 224.045 262.127 222.854 262.025C222.226 261.974 221.605 261.916 220.977 261.865C220.407 261.813 219.743 261.821 219.411 261.259C219.101 260.726 219.079 259.952 218.964 259.353L218.971 259.346Z" fill="url(#paint1_radial_0_1)"/>
<path d="M149.12 321.336L146.023 331.981C146.023 331.981 135.313 335.464 136.785 339.882L155.262 338.21L157.283 321.92L149.12 321.336Z" fill="#EF6767"/>
<path d="M149.12 321.336L146.023 331.981C146.023 331.981 135.313 335.464 136.785 339.882L155.262 338.21L157.283 321.92L149.12 321.336Z" fill="url(#paint2_radial_0_1)"/>
<path d="M185.056 315.933L192.071 324.461C192.071 324.461 188.96 335.398 193.414 336.618L202.334 320.16L190.086 309.391L185.063 315.925L185.056 315.933Z" fill="#EF6767"/>
<path d="M185.056 315.933L192.071 324.461C192.071 324.461 188.96 335.398 193.414 336.618L202.334 320.16L190.086 309.391L185.063 315.925L185.056 315.933Z" fill="url(#paint3_radial_0_1)"/>
<path d="M171.739 330.492C170.036 332.2 167.445 332.624 165.294 331.543L134.677 316.166C102.206 300.118 96.6914 278.732 96.6914 278.732C90.2678 250.511 109.207 243.925 109.207 243.925C132.382 236.054 149.697 248.766 156.373 254.951C160.783 246.956 173.255 229.374 197.708 229.461C197.708 229.461 217.737 229.673 220.422 258.506C220.422 258.506 221.843 280.557 196.019 306.141L171.746 330.492H171.739Z" fill="#EF6767"/>
<path d="M170.689 274.569C175.04 274.217 178.279 270.288 177.923 265.794C177.567 261.3 173.751 257.943 169.4 258.295C165.05 258.648 161.811 262.577 162.167 267.071C162.523 271.564 166.338 274.922 170.689 274.569Z" fill="white"/>
<path d="M161.844 266.852C162.277 271.08 165.943 274.154 170.036 273.723C174.128 273.292 177.094 269.51 176.661 265.29C176.228 261.062 172.562 257.988 168.469 258.419C164.377 258.85 161.411 262.632 161.844 266.852Z" fill="#403E3D"/>
<path d="M138.51 269.764C138.972 274.247 142.862 277.511 147.2 277.051C151.545 276.591 154.692 272.583 154.23 268.1C153.768 263.617 149.877 260.353 145.54 260.813C141.195 261.273 138.048 265.281 138.51 269.764V269.764Z" fill="white"/>
<path d="M138.308 269.188C138.741 273.416 142.407 276.49 146.5 276.059C150.592 275.628 153.558 271.846 153.125 267.626C152.692 263.398 149.026 260.324 144.933 260.755C140.841 261.186 137.875 264.968 138.308 269.188Z" fill="#403E3D"/>
<path d="M152.324 278.103C152.324 278.103 158.437 284.025 165.554 276.314" stroke="#403E3D" stroke-width="2" stroke-linecap="round" stroke-linejoin="round"/>
</g>
<defs>
<radialGradient id="paint0_radial_0_1" cx="0" cy="0" r="1" gradientUnits="userSpaceOnUse" gradientTransform="translate(102.472 277.455) scale(25.5356 25.8326)">
<stop stop-color="#C61C24" stop-opacity="0.9"/>
<stop offset="1" stop-color="#C61C24" stop-opacity="0"/>
</radialGradient>
<radialGradient id="paint1_radial_0_1" cx="0" cy="0" r="1" gradientUnits="userSpaceOnUse" gradientTransform="translate(221.67 262.244) scale(14.399 14.5664)">
<stop stop-color="#C61C24" stop-opacity="0.9"/>
<stop offset="1" stop-color="#C61C24" stop-opacity="0"/>
</radialGradient>
<radialGradient id="paint2_radial_0_1" cx="0" cy="0" r="1" gradientUnits="userSpaceOnUse" gradientTransform="translate(150.635 323.22) scale(12.0677 12.2081)">
<stop stop-color="#C61C24" stop-opacity="0.9"/>
<stop offset="1" stop-color="#C61C24" stop-opacity="0"/>
</radialGradient>
<radialGradient id="paint3_radial_0_1" cx="0" cy="0" r="1" gradientUnits="userSpaceOnUse" gradientTransform="translate(187.441 315.704) rotate(-56.4657) scale(12.1647 12.1107)">
<stop stop-color="#C61C24" stop-opacity="0.9"/>
<stop offset="1" stop-color="#C61C24" stop-opacity="0"/>
</radialGradient>
<clipPath id="clip0_0_1">
<rect width="40.9372" height="33.6349" fill="white" transform="matrix(-0.929529 -0.36875 -0.360941 0.932589 51 16)"/>
</clipPath>
<clipPath id="clip1_0_1">
<rect width="185.981" height="202.484" fill="white" transform="translate(63 164.975)"/>
</clipPath>
</defs>
</svg>
