<svg width="80" height="80" viewBox="0 0 80 80" fill="none" xmlns="http://www.w3.org/2000/svg">
<path d="M26.8329 12L27.7082 17.8521L28.0994 20.4715L31.8329 45.3886C29.1306 44.6028 25.437 45.3787 22.1843 47.6831C17.486 51.0087 15.4834 56.254 17.7082 59.3973C19.933 62.5405 25.5464 62.3979 30.2447 59.0723C34.0709 56.3634 36.1101 52.3813 35.5298 49.2978L32.2308 27.2918L56.0869 34.4238L58.6797 51.7248C55.9775 50.9357 52.2805 51.7116 49.0245 54.0193C44.3263 57.3449 42.3236 62.5902 44.5484 65.7335C46.7732 68.8767 52.3866 68.7341 57.0849 65.4085C60.7188 62.8389 62.7381 59.1187 62.4364 56.1115H62.4463L58.4642 29.5531L57.9005 25.7865L56.9788 19.6293L26.8329 12ZM55.4669 30.2328L31.6671 23.4887L31.3621 21.443L55.2182 28.575L55.4669 30.2328Z" fill="#FFF3C0"/>
<path d="M26.8329 12L27.7082 17.8521L28.0994 20.4715L31.8329 45.3886C29.1306 44.6028 25.437 45.3787 22.1843 47.6831C17.486 51.0087 15.4834 56.254 17.7082 59.3973C19.933 62.5405 25.5464 62.3979 30.2447 59.0723C34.0709 56.3634 36.1101 52.3813 35.5298 49.2978L32.2308 27.2918L56.0869 34.4238L58.6797 51.7248C55.9775 50.9357 52.2805 51.7116 49.0245 54.0193C44.3263 57.3449 42.3236 62.5902 44.5484 65.7335C46.7732 68.8767 52.3866 68.7341 57.0849 65.4085C60.7188 62.8389 62.7381 59.1187 62.4364 56.1115H62.4463L58.4642 29.5531L57.9005 25.7865L56.9788 19.6293L26.8329 12ZM55.4669 30.2328L31.6671 23.4887L31.3621 21.443L55.2182 28.575L55.4669 30.2328Z" fill="#C6E4D0"/>
<path d="M27.244 52.6734C27.2407 53.6913 28.0431 54.5169 29.0378 54.5202C30.0325 54.5235 30.8448 53.7013 30.8515 52.6867C30.8581 51.6721 30.0524 50.8432 29.0577 50.8399C28.063 50.8365 27.2507 51.6588 27.244 52.6734Z" fill="white"/>
<path d="M27.6917 52.6728C27.6883 53.631 28.4443 54.4102 29.3826 54.4135C30.321 54.4168 31.0869 53.6443 31.0902 52.686C31.0935 51.7278 30.3376 50.9486 29.3992 50.9453C28.4609 50.942 27.695 51.7146 27.6917 52.6728Z" fill="#403E3D"/>
<path d="M22.3567 52.6558C22.3534 53.6737 23.1558 54.4993 24.1505 54.5027C25.1452 54.506 25.9575 53.6837 25.9641 52.6691C25.9674 51.6512 25.1651 50.8256 24.1704 50.8223C23.1757 50.819 22.3633 51.6412 22.3567 52.6558Z" fill="white"/>
<path d="M22.8507 52.6728C22.8474 53.631 23.6034 54.4102 24.5417 54.4135C25.48 54.4168 26.2459 53.6443 26.2493 52.686C26.2526 51.7278 25.4966 50.9486 24.5583 50.9453C23.62 50.942 22.854 51.7146 22.8507 52.6728Z" fill="#403E3D"/>
<path d="M25.0292 55.4737C25.0292 55.4737 26.5676 56.8331 27.8508 55.3477" stroke="#403E3D" stroke-linecap="round" stroke-linejoin="round"/>
<path d="M52.8176 59.025C52.8143 60.0429 53.6167 60.8685 54.6114 60.8718C55.6061 60.8751 56.4184 60.0528 56.4251 59.0382C56.4284 58.0203 55.626 57.1947 54.6313 57.1914C53.6366 57.1881 52.8243 58.0104 52.8176 59.025Z" fill="white"/>
<path d="M52.5953 58.8036C52.592 59.7619 53.348 60.541 54.2863 60.5444C55.2247 60.5477 55.9906 59.7751 55.9939 58.8169C55.9972 57.8587 55.2412 57.0795 54.3029 57.0762C53.3646 57.0729 52.5987 57.8454 52.5953 58.8036Z" fill="#403E3D"/>
<path d="M51.5448 59.0731C51.5736 58.0572 50.7896 57.2108 49.7939 57.1826C48.7981 57.1545 47.9676 57.9552 47.9389 58.9711C47.9101 59.987 48.6941 60.8334 49.6898 60.8615C50.6856 60.8897 51.5161 60.089 51.5448 59.0731Z" fill="white"/>
<path d="M47.7614 58.7861C47.758 59.7443 48.514 60.5235 49.4523 60.5268C50.3907 60.5301 51.1566 59.7575 51.1599 58.7993C51.1632 57.8411 50.4073 57.0619 49.4689 57.0586C48.5306 57.0553 47.7647 57.8278 47.7614 58.7861Z" fill="#403E3D"/>
<path d="M49.9131 62.2507C49.9131 62.2507 50.8514 63.1592 51.813 61.8926C51.813 61.8926 52.7314 63.189 53.9714 62.1413" stroke="#403E3D" stroke-linecap="round" stroke-linejoin="round"/>
</svg>