<svg width="54" height="57" viewBox="0 0 54 57" fill="none" xmlns="http://www.w3.org/2000/svg">
<path d="M17.8061 18.0663C18.6618 17.7028 19.6855 17.9272 20.309 18.6172C20.9223 19.2957 21.0502 20.3003 20.637 21.1138C20.2053 21.9635 19.239 22.4431 18.3006 22.2855C17.4002 22.1343 16.6825 21.4263 16.499 20.5361C16.2923 19.5186 16.854 18.4706 17.8061 18.0663ZM24.8296 20.5361C25.0135 21.4277 25.7354 22.1394 26.6386 22.2867C27.5636 22.4376 28.511 21.9749 28.9512 21.1458C29.3849 20.3295 29.2624 19.3033 28.6401 18.6171C28.0192 17.9322 27.0076 17.7052 26.1533 18.0592C25.1919 18.4575 24.6219 19.513 24.8296 20.5361ZM33.1614 20.5361C33.3312 21.4266 34.0726 22.1359 34.9631 22.2855C35.9052 22.4438 36.8627 21.9619 37.2988 21.1138C37.7154 20.3038 37.5825 19.2928 36.9716 18.6172C36.348 17.9277 35.3231 17.702 34.4676 18.0663C33.5158 18.4714 32.9549 19.519 33.1614 20.5361ZM51.7719 35.5224H35.2975C34.2289 39.0909 30.918 41.655 27 41.655C23.082 41.655 19.7712 39.0909 18.7025 35.5224H4.42708V47.8125C4.42708 50.2536 6.41307 52.2396 8.85416 52.2396H45.1458C47.5869 52.2396 49.5729 50.2536 49.5729 47.8125V44.3765C49.5729 43.154 50.5639 42.163 51.7865 42.163C53.009 42.163 54 43.154 54 44.3765V47.8125C54 52.6947 50.028 56.6667 45.1458 56.6667H8.85416C3.97198 56.6667 0 52.6947 0 47.8125V33.3088C0 33.0559 0.0556705 32.8154 0.0573307 32.8084L6.0796 6.8529C7.01593 2.81806 10.5626 0 14.7046 0H39.2954C43.4374 0 46.9842 2.81806 47.9205 6.8529L53.9428 32.8086C53.9612 32.9038 54.1645 34.0656 53.3213 34.8909C52.7116 35.4877 51.9524 35.5196 51.7719 35.5224ZM4.9995 31.0953H20.5596C21.7463 31.0953 22.7218 32.0309 22.7711 33.2166C22.865 35.4659 24.7225 37.2279 27 37.2279C29.2775 37.2279 31.135 35.4659 31.2289 33.2166C31.2782 32.0309 32.2538 31.0953 33.4404 31.0953H49.0005L43.608 7.85353C43.1398 5.83611 41.3664 4.42708 39.2954 4.42708H14.7046C12.6336 4.42708 10.8602 5.83611 10.392 7.85353L4.9995 31.0953Z" fill="#D4D4D4"/>
</svg>
