<svg width="57" height="57" viewBox="0 0 57 57" fill="none" xmlns="http://www.w3.org/2000/svg">
<path d="M21.5738 23.6341C23.911 23.6341 26.1957 22.9411 28.139 21.6426C30.0823 20.3441 31.5969 18.4986 32.4914 16.3393C33.3858 14.18 33.6198 11.804 33.1638 9.51168C32.7079 7.21939 31.5824 5.11379 29.9297 3.46115C28.2771 1.8085 26.1715 0.683031 23.8792 0.227067C21.5869 -0.228897 19.2109 0.00512014 17.0516 0.899526C14.8923 1.79393 13.0467 3.30856 11.7483 5.25186C10.4498 7.19517 9.75673 9.47988 9.75673 11.8171C9.76041 14.95 11.0066 17.9536 13.2219 20.1689C15.4373 22.3843 18.4409 23.6305 21.5738 23.6341ZM21.5738 4.17074C23.0861 4.17074 24.5645 4.61919 25.8219 5.45938C27.0793 6.29957 28.0594 7.49376 28.6381 8.89095C29.2168 10.2881 29.3683 11.8256 29.0732 13.3088C28.7782 14.792 28.0499 16.1545 26.9806 17.2239C25.9112 18.2932 24.5488 19.0215 23.0655 19.3165C21.5823 19.6115 20.0449 19.4601 18.6477 18.8814C17.2505 18.3026 16.0563 17.3226 15.2161 16.0652C14.3759 14.8077 13.9275 13.3294 13.9275 11.8171C13.9297 9.78982 14.736 7.84623 16.1695 6.41274C17.603 4.97925 19.5465 4.17294 21.5738 4.17074ZM4.17073 43.8483C4.17073 48.1942 6.042 50.0488 10.4268 50.0488H21.5488C22.1019 50.0488 22.6323 50.2685 23.0234 50.6596C23.4144 51.0507 23.6341 51.5811 23.6341 52.1341C23.6341 52.6872 23.4144 53.2176 23.0234 53.6087C22.6323 53.9998 22.1019 54.2195 21.5488 54.2195H10.4268C3.70361 54.2195 0 50.5354 0 43.8483C0 36.4466 4.18741 27.8049 15.9878 27.8049H27.1098C29.2524 27.7675 31.3843 28.114 33.4048 28.8281C33.884 29.0487 34.2619 29.4427 34.4622 29.9308C34.6625 30.4189 34.6704 30.9647 34.4842 31.4584C34.298 31.952 33.9316 32.3567 33.4589 32.591C32.9862 32.8253 32.4422 32.8716 31.9367 32.7208C30.3849 32.1869 28.7503 31.9345 27.1098 31.9756H15.9878C14.4 31.8533 12.8045 32.0769 11.3115 32.6311C9.81845 33.1852 8.46346 34.0568 7.34001 35.1855C6.21655 36.3143 5.35139 37.6733 4.80422 39.1689C4.25706 40.6645 4.04092 42.261 4.17073 43.8483ZM55.5736 32.326L52.4761 29.2313C52.026 28.7774 51.4901 28.4175 50.8997 28.1726C50.3092 27.9278 49.6759 27.8028 49.0367 27.8049C48.3967 27.8036 47.7628 27.9295 47.1718 28.1753C46.5809 28.4211 46.0447 28.782 45.5944 29.2368L28.4194 46.4925C28.2259 46.6854 28.0725 46.9147 27.968 47.1671C27.8635 47.4196 27.8099 47.6902 27.8104 47.9634V54.9146C27.8104 55.4677 28.0301 55.9981 28.4212 56.3892C28.8123 56.7803 29.3427 57 29.8958 57H36.847C37.398 56.9993 37.9265 56.7816 38.3179 56.3939L55.5569 39.216C56.0107 38.7644 56.3708 38.2275 56.6166 37.6363C56.8623 37.0451 56.9888 36.4112 56.9888 35.771C56.9888 35.1307 56.8623 34.4968 56.6166 33.9056C56.3708 33.3144 56.0107 32.7776 55.5569 32.326H55.5736ZM35.9795 52.8293H31.9756V48.8254L43.4368 37.3114L47.4935 41.3681L35.9795 52.8293ZM52.6235 36.2603L50.4492 38.4263L46.3813 34.3557L48.5473 32.1786C48.6114 32.114 48.6876 32.0629 48.7716 32.028C48.8556 31.9932 48.9457 31.9754 49.0367 31.9756C49.221 31.9759 49.3979 32.0488 49.5288 32.1786L52.6263 35.2761C52.6912 35.3398 52.7427 35.416 52.7775 35.5001C52.8124 35.5842 52.83 35.6744 52.8293 35.7654C52.8294 35.8574 52.8113 35.9486 52.776 36.0335C52.7407 36.1185 52.6889 36.1956 52.6235 36.2603Z" fill="#D4D4D4"/>
</svg>
