<svg width="56" height="56" viewBox="0 0 56 56" fill="none" xmlns="http://www.w3.org/2000/svg">
<g clip-path="url(#clip0_1499_2196)">
<path d="M40.25 24.5C31.5665 24.5 24.5 31.5665 24.5 40.25C24.5 48.9335 31.5665 56 40.25 56C48.9335 56 56 48.9335 56 40.25C56 31.5665 48.9335 24.5 40.25 24.5ZM46.739 46.739C46.396 47.0785 45.948 47.25 45.5 47.25C45.052 47.25 44.604 47.0785 44.261 46.739L39.011 41.489C38.6855 41.16 38.5 40.7155 38.5 40.25V33.25C38.5 32.284 39.284 31.5 40.25 31.5C41.216 31.5 42 32.284 42 33.25V39.5255L46.739 44.2645C47.4215 44.947 47.4215 46.053 46.739 46.739Z" fill="#B3B3B3"/>
<path d="M22.3125 33.3165C22.183 33.1695 22.078 33.0015 21.938 32.8615L17.5 28.427L13.062 32.865C11.41 34.5135 10.5 36.708 10.5 39.0495V42.0035H21.0875C21.035 41.426 21 40.8415 21 40.25C21 37.8035 21.476 35.4725 22.3125 33.3165Z" fill="#B3B3B3"/>
<path d="M10.5 7V9.9505C10.5 12.285 11.41 14.483 13.062 16.1385L17.5 20.5765L21.938 16.1385C23.59 14.4865 24.5 12.2885 24.5 9.9505V7H10.5Z" fill="#B3B3B3"/>
<path d="M33.25 0H1.75C0.784 0 0 0.7875 0 1.75C0 2.7195 0.784 3.5 1.75 3.5H3.5V9.9505C3.5 14.1575 5.138 18.1125 8.113 21.0875L11.5255 24.5L8.113 27.9125C5.138 30.891 3.5 34.8425 3.5 39.0495V45.5H1.75C0.784 45.5 0 46.284 0 47.25C0 48.216 0.784 49 1.75 49L23.1245 48.9965C22.554 47.887 22.092 46.718 21.7455 45.4965L7 45.5V39.0495C7 35.777 8.274 32.704 10.5875 30.387L15.239 25.739C15.5645 25.41 15.75 24.9655 15.75 24.5C15.75 24.038 15.5645 23.59 15.239 23.261L10.5875 18.613C8.274 16.2995 7 13.223 7 9.9505V3.5H28V9.9505C28 13.223 26.726 16.296 24.4125 18.613L19.761 23.2645C19.4355 23.5935 19.25 24.038 19.25 24.5C19.25 24.9655 19.4355 25.41 19.761 25.739L23.9995 29.974C24.633 28.9765 25.354 28.0455 26.1555 27.181L23.4745 24.5L26.887 21.084C29.862 18.1125 31.5 14.1575 31.5 9.9505V3.5H33.25C34.216 3.5 35 2.716 35 1.75C35 0.784 34.216 0 33.25 0Z" fill="#B3B3B3"/>
</g>
<defs>
<clipPath id="clip0_1499_2196">
<rect width="56" height="56" fill="white"/>
</clipPath>
</defs>
</svg>
