<svg width="58" height="57" viewBox="0 0 58 57" fill="none" xmlns="http://www.w3.org/2000/svg">
<path d="M30.3655 35.7169C32.3622 37.5713 35.1295 34.8056 33.2728 32.8077C30.6494 30.1861 26.381 30.1858 23.7576 32.8079C22.9544 33.6107 22.9539 34.9128 23.7568 35.716C24.5596 36.5195 25.8617 36.5197 26.6649 35.7169C27.685 34.6972 29.3452 34.6973 30.3655 35.7169Z" fill="#D4D4D4"/>
<path d="M37.3256 26.0081C38.4612 26.0081 39.382 25.0874 39.382 23.9517V21.749C39.2815 19.0247 35.3698 19.0244 35.2692 21.749V23.9517C35.2692 25.0875 36.1899 26.0081 37.3256 26.0081Z" fill="#D4D4D4"/>
<path d="M19.7046 19.6926C18.5689 19.6926 17.6482 20.6133 17.6482 21.749V23.9517C17.7487 26.676 21.6604 26.6763 21.761 23.9517V21.749C21.761 20.6133 20.8403 19.6926 19.7046 19.6926Z" fill="#D4D4D4"/>
<path fill-rule="evenodd" clip-rule="evenodd" d="M55.8552 20.4804C52.3862 8.65944 41.4436 0.00241183 28.5154 0.00241183C6.41294 -0.28521 -7.625 25.2134 4.43277 43.7058V54.9218C4.40247 56.2907 5.85209 57.3343 7.13954 56.8727L15.8007 53.9849C16.769 54.4685 17.7648 54.895 18.7817 55.2636L21.9608 56.2975L25.9441 56.8685L25.9401 56.8627C43.4091 58.6125 58.6378 43.3824 56.8878 25.9141L56.8931 25.9178L56.276 21.8766L55.8673 20.4862C55.8633 20.4843 55.8592 20.4823 55.8552 20.4804ZM16.9536 49.9499C16.7174 49.8222 16.0927 49.5524 15.3255 49.8081L8.54556 52.0686V43.0971C8.54556 42.6919 8.42588 42.2958 8.20146 41.9584C5.54459 37.9631 4.14021 33.3059 4.14021 28.4904C5.36199 -3.79672 51.6691 -3.79781 52.8906 28.4907C53.1135 46.6706 32.8264 58.7703 16.9536 49.9499Z" fill="#D4D4D4"/>
</svg>
