<svg width="144" height="37" viewBox="0 0 144 37" fill="none" xmlns="http://www.w3.org/2000/svg">
<g filter="url(#filter0_d_122_1292)">
<mask id="path-1-inside-1_122_1292" fill="white">
<path fill-rule="evenodd" clip-rule="evenodd" d="M10.4545 0C5.7852 0 2 3.78519 2 8.45447V16.5455C2 21.2148 5.78519 25 10.4545 25H67.9472L72.0727 32.1455L76.1982 25H133.546C138.215 25 142 21.2148 142 16.5455V8.45447C142 3.78519 138.215 0 133.546 0H10.4545Z"/>
</mask>
<path fill-rule="evenodd" clip-rule="evenodd" d="M10.4545 0C5.7852 0 2 3.78519 2 8.45447V16.5455C2 21.2148 5.78519 25 10.4545 25H67.9472L72.0727 32.1455L76.1982 25H133.546C138.215 25 142 21.2148 142 16.5455V8.45447C142 3.78519 138.215 0 133.546 0H10.4545Z" fill="black" fill-opacity="0.8" shape-rendering="crispEdges"/>
<path d="M67.9472 25L68.3803 24.75L68.2359 24.5H67.9472V25ZM72.0727 32.1455L71.6397 32.3955L72.0727 33.1455L72.5057 32.3955L72.0727 32.1455ZM76.1982 25V24.5H75.9095L75.7652 24.75L76.1982 25ZM2.5 8.45447C2.5 4.06134 6.06134 0.5 10.4545 0.5V-0.5C5.50905 -0.5 1.5 3.50905 1.5 8.45447H2.5ZM2.5 16.5455V8.45447H1.5V16.5455H2.5ZM10.4545 24.5C6.06133 24.5 2.5 20.9387 2.5 16.5455H1.5C1.5 21.4909 5.50905 25.5 10.4545 25.5V24.5ZM67.9472 24.5H10.4545V25.5H67.9472V24.5ZM72.5057 31.8955L68.3803 24.75L67.5142 25.25L71.6397 32.3955L72.5057 31.8955ZM75.7652 24.75L71.6397 31.8955L72.5057 32.3955L76.6312 25.25L75.7652 24.75ZM133.546 24.5H76.1982V25.5H133.546V24.5ZM141.5 16.5455C141.5 20.9387 137.939 24.5 133.546 24.5V25.5C138.491 25.5 142.5 21.4909 142.5 16.5455H141.5ZM141.5 8.45447V16.5455H142.5V8.45447H141.5ZM133.546 0.5C137.939 0.5 141.5 4.06134 141.5 8.45447H142.5C142.5 3.50905 138.491 -0.5 133.546 -0.5V0.5ZM10.4545 0.5H133.546V-0.5H10.4545V0.5Z" fill="white" mask="url(#path-1-inside-1_122_1292)"/>
</g>
<path d="M24.4297 7.10156V17H23.1855V8.38672H23.1309L20.7246 9.98633V8.74219L23.1855 7.10156H24.4297ZM37.7461 12.3926V13.2676H32.7969V15.6465H31.7305V13.2676H26.6172V12.3926H37.7461ZM28.0391 17.8477V14.5254H29.1055V16.9453H36.502V17.8477H28.0391ZM28.1074 11.2031V6.34961H29.1738V7.9082H35.1895V6.34961H36.2559V11.2031H28.1074ZM29.1738 10.3281H35.1895V8.72852H29.1738V10.3281ZM48.3828 7.06055V12.6523H42.7637V7.06055H48.3828ZM43.8164 11.791H47.3438V7.93555H43.8164V11.791ZM44.1445 17.8477V14.0195H45.1973V16.9453H52.3066V17.8477H44.1445ZM50.6797 14.8672V5.95312H51.7461V9.6582H53.5781V10.5605H51.7461V14.8672H50.6797ZM64.7617 5.95312V18.1074H63.7227V5.95312H64.7617ZM54.4941 11.2031C54.501 8.61914 55.5264 6.98535 57.1055 6.97852C58.582 6.98535 59.5801 8.40723 59.7168 10.6973H61.2891V6.21289H62.3145V17.4922H61.2891V11.5859H59.7236C59.6211 13.9512 58.6025 15.4346 57.1055 15.4277C55.5264 15.4346 54.501 13.7871 54.4941 11.2031ZM55.5059 11.2031C55.4922 13.1719 56.1211 14.416 57.1055 14.4023C58.0967 14.416 58.7256 13.1719 58.7188 11.2031C58.7256 9.22754 58.0967 7.99023 57.1055 7.99023C56.1211 7.99023 55.4922 9.22754 55.5059 11.2031ZM79.9922 5.95312V12.4746H78.9258V5.95312H79.9922ZM70.2441 9.34375C70.2373 7.68262 71.584 6.54102 73.4297 6.55469C75.2754 6.54102 76.6084 7.68262 76.6152 9.34375C76.6084 10.998 75.2754 12.1396 73.4297 12.1328C71.584 12.1396 70.2373 10.998 70.2441 9.34375ZM71.2969 9.34375C71.2832 10.4512 72.1787 11.2373 73.4297 11.2441C74.667 11.2373 75.5625 10.4512 75.5625 9.34375C75.5625 8.22949 74.667 7.4502 73.4297 7.45703C72.1787 7.4502 71.2832 8.22949 71.2969 9.34375ZM72.1172 17.9434V13.0898H73.1836V14.5664H78.9258V13.0898H79.9922V17.9434H72.1172ZM73.1836 17.0684H78.9258V15.4277H73.1836V17.0684ZM87.8262 6.70508V10.1094H83.6426V11.9961C85.9258 12.0029 87.1084 11.9551 88.5371 11.6953L88.6465 12.584C87.1357 12.8301 85.8984 12.8711 83.4375 12.8711H82.5762V9.28906H86.7598V7.56641H82.5488V6.70508H87.8262ZM83.9434 14.9629V14.0879H92.1328V18.1348H91.0527V14.9629H83.9434ZM88.6328 11.1758V10.2871H91.0527V8.64648H88.6328V7.77148H91.0527V5.9668H92.1328V13.4316H91.0527V11.1758H88.6328ZM107.076 5.95312V10.9023H109.045V11.8047H107.076V18.1074H106.01V5.95312H107.076ZM97.752 14.9492C100.89 13.3906 102.599 11.0459 102.845 8.16797H98.3125V7.26562H103.932C103.925 10.7041 102.312 13.8418 98.3535 15.7969L97.752 14.9492ZM119.586 9.35742V10.2461H111.287V6.19922H112.354V9.35742H119.586ZM109.77 12.5566V11.668H120.857V12.5566H109.77ZM111.109 15.8516C111.103 14.4365 112.682 13.6436 115.307 13.6504C117.911 13.6436 119.477 14.4365 119.49 15.8516C119.477 17.2598 117.911 18.0527 115.307 18.0527C112.682 18.0527 111.103 17.2598 111.109 15.8516ZM112.203 15.8516C112.189 16.6992 113.358 17.2119 115.307 17.2188C117.234 17.2119 118.403 16.6992 118.41 15.8516C118.403 14.9902 117.234 14.5049 115.307 14.498C113.358 14.5049 112.189 14.9902 112.203 15.8516ZM123.838 7.10156L123.742 14.2109H122.594L122.498 7.10156H123.838ZM122.293 16.1934C122.279 15.7148 122.689 15.3184 123.168 15.3184C123.653 15.3184 124.05 15.7148 124.043 16.1934C124.05 16.6787 123.653 17.0752 123.168 17.082C122.689 17.0752 122.279 16.6787 122.293 16.1934Z" fill="white"/>
<defs>
<filter id="filter0_d_122_1292" x="0" y="0" width="144" height="36.1455" filterUnits="userSpaceOnUse" color-interpolation-filters="sRGB">
<feFlood flood-opacity="0" result="BackgroundImageFix"/>
<feColorMatrix in="SourceAlpha" type="matrix" values="0 0 0 0 0 0 0 0 0 0 0 0 0 0 0 0 0 0 127 0" result="hardAlpha"/>
<feOffset dy="2"/>
<feGaussianBlur stdDeviation="1"/>
<feComposite in2="hardAlpha" operator="out"/>
<feColorMatrix type="matrix" values="0 0 0 0 0.700081 0 0 0 0 0.700081 0 0 0 0 0.700081 0 0 0 0.25 0"/>
<feBlend mode="normal" in2="BackgroundImageFix" result="effect1_dropShadow_122_1292"/>
<feBlend mode="normal" in="SourceGraphic" in2="effect1_dropShadow_122_1292" result="shape"/>
</filter>
</defs>
</svg>
