<svg width="76" height="37" viewBox="0 0 76 37" fill="none" xmlns="http://www.w3.org/2000/svg">
<g filter="url(#filter0_d_0_1)">
<mask id="path-1-inside-1_0_1" fill="white">
<path fill-rule="evenodd" clip-rule="evenodd" d="M10.4545 0C5.78519 0 2 3.78519 2 8.45447V16.5455C2 21.2148 5.78519 25 10.4545 25H57.9472L62.0727 32.1455L66.2132 24.974C70.5704 24.6336 74 20.9901 74 16.5455V8.45447C74 3.78519 70.2148 0 65.5455 0H10.4545Z"/>
</mask>
<path fill-rule="evenodd" clip-rule="evenodd" d="M10.4545 0C5.78519 0 2 3.78519 2 8.45447V16.5455C2 21.2148 5.78519 25 10.4545 25H57.9472L62.0727 32.1455L66.2132 24.974C70.5704 24.6336 74 20.9901 74 16.5455V8.45447C74 3.78519 70.2148 0 65.5455 0H10.4545Z" fill="black" fill-opacity="0.8" shape-rendering="crispEdges"/>
<path d="M57.9472 25L58.3803 24.75L58.2359 24.5H57.9472V25ZM62.0727 32.1455L61.6397 32.3955L62.0727 33.1455L62.5057 32.3955L62.0727 32.1455ZM66.2132 24.974L66.1742 24.4755L65.9118 24.496L65.7802 24.724L66.2132 24.974ZM2.5 8.45447C2.5 4.06134 6.06134 0.5 10.4545 0.5V-0.5C5.50905 -0.5 1.5 3.50905 1.5 8.45447H2.5ZM2.5 16.5455V8.45447H1.5V16.5455H2.5ZM10.4545 24.5C6.06134 24.5 2.5 20.9387 2.5 16.5455H1.5C1.5 21.4909 5.50905 25.5 10.4545 25.5V24.5ZM57.9472 24.5H10.4545V25.5H57.9472V24.5ZM62.5057 31.8955L58.3803 24.75L57.5142 25.25L61.6397 32.3955L62.5057 31.8955ZM65.7802 24.724L61.6397 31.8955L62.5057 32.3955L66.6462 25.224L65.7802 24.724ZM73.5 16.5455C73.5 20.727 70.2732 24.1553 66.1742 24.4755L66.2521 25.4725C70.8675 25.112 74.5 21.2532 74.5 16.5455H73.5ZM73.5 8.45447V16.5455H74.5V8.45447H73.5ZM65.5455 0.5C69.9387 0.5 73.5 4.06134 73.5 8.45447H74.5C74.5 3.50905 70.491 -0.5 65.5455 -0.5V0.5ZM10.4545 0.5H65.5455V-0.5H10.4545V0.5Z" fill="white" mask="url(#path-1-inside-1_0_1)"/>
</g>
<path d="M14.0938 17V7.10156H20.0547V8.19531H15.3242V11.5039H19.6035V12.584H15.3242V17H14.0938ZM23.1172 7.10156V17H21.8867V7.10156H23.1172ZM33.166 7.10156V17H31.9902L26.6309 9.28906H26.5352V17H25.3047V7.10156H26.4941L31.8535 14.8262H31.9492V7.10156H33.166ZM36.584 7.10156V17H35.3535V7.10156H36.584ZM44.1719 9.58984C44.0693 8.61914 43.167 8.05859 41.9844 8.05859C40.6719 8.05859 39.8174 8.74219 39.8105 9.68555C39.8174 10.7246 40.9727 11.1143 41.7246 11.2988L42.709 11.5723C43.7686 11.8457 45.5117 12.4541 45.5117 14.3066C45.5117 15.9199 44.2129 17.1709 41.916 17.1777C39.7832 17.1709 38.4639 16.0703 38.3477 14.4297H39.6055C39.708 15.5371 40.7402 16.0635 41.916 16.0566C43.2832 16.0635 44.3086 15.3594 44.3086 14.2793C44.3086 13.3154 43.3926 12.9463 42.3535 12.6523L41.1367 12.3242C39.585 11.873 38.6143 11.0801 38.6211 9.74023C38.6143 8.06543 40.1045 6.96484 42.0254 6.96484C43.9463 6.96484 45.3271 8.08594 45.375 9.58984H44.1719ZM47.2754 17V7.10156H48.5059V11.5039H53.7422V7.10156H54.9863V17H53.7422V12.584H48.5059V17H47.2754ZM62.041 7.10156L61.9453 14.2109H60.7969L60.7012 7.10156H62.041ZM60.4961 16.1934C60.4824 15.7148 60.8926 15.3184 61.3711 15.3184C61.8564 15.3184 62.2529 15.7148 62.2461 16.1934C62.2529 16.6787 61.8564 17.0752 61.3711 17.082C60.8926 17.0752 60.4824 16.6787 60.4961 16.1934Z" fill="white"/>
<defs>
<filter id="filter0_d_0_1" x="0" y="0" width="76" height="36.1455" filterUnits="userSpaceOnUse" color-interpolation-filters="sRGB">
<feFlood flood-opacity="0" result="BackgroundImageFix"/>
<feColorMatrix in="SourceAlpha" type="matrix" values="0 0 0 0 0 0 0 0 0 0 0 0 0 0 0 0 0 0 127 0" result="hardAlpha"/>
<feOffset dy="2"/>
<feGaussianBlur stdDeviation="1"/>
<feComposite in2="hardAlpha" operator="out"/>
<feColorMatrix type="matrix" values="0 0 0 0 0.700081 0 0 0 0 0.700081 0 0 0 0 0.700081 0 0 0 0.25 0"/>
<feBlend mode="normal" in2="BackgroundImageFix" result="effect1_dropShadow_0_1"/>
<feBlend mode="normal" in="SourceGraphic" in2="effect1_dropShadow_0_1" result="shape"/>
</filter>
</defs>
</svg>
