<svg width="20" height="19" viewBox="0 0 20 19" fill="none" xmlns="http://www.w3.org/2000/svg">
<path d="M17.6933 5.36302L16.0919 3.97237C14.9381 2.97039 14.4859 2.43137 13.8611 2.62193C13.082 2.85953 13.3385 4.35873 13.3385 4.86487C12.1272 4.86487 10.8679 4.77171 9.67395 4.96582C5.73248 5.60662 4.5 8.4109 4.5 11.4321C5.61556 10.7483 6.73001 9.98574 8.07079 9.6688C9.74445 9.27317 11.6137 9.46196 13.3385 9.46196C13.3385 9.96806 13.082 11.4673 13.8611 11.7049C14.5691 11.9208 14.9381 11.3564 16.0919 10.3545L17.6933 8.96381C18.6755 8.11081 19.1667 7.6843 19.1667 7.16341C19.1667 6.64253 18.6755 6.21603 17.6933 5.36302Z" stroke="white" stroke-width="1.5" stroke-linecap="round" stroke-linejoin="round"/>
<path d="M8.68662 0.75C5.14808 0.75636 3.29512 0.843056 2.11094 2.02484C0.833009 3.30018 0.833009 5.35281 0.833008 9.45808C0.833007 13.5633 0.833007 15.616 2.11093 16.8913C3.38886 18.1667 5.44566 18.1667 9.55925 18.1667C13.6728 18.1667 15.7296 18.1667 17.0076 16.8913C17.8973 16.0034 18.1676 14.7386 18.2497 12.6667" stroke="white" stroke-width="1.5" stroke-linecap="round" stroke-linejoin="round"/>
</svg>
