<svg width="35" height="36" viewBox="0 0 35 36" fill="none" xmlns="http://www.w3.org/2000/svg">
<path d="M28.6095 3.90124C26.2428 1.85338 23.2916 1.02674 20.2414 0.661516C12.117 -1.92984 4.86999 3.42946 1.70563 10.8607C-1.70512 18.8701 -0.082356 27.8112 7.31337 32.806C14.8639 37.905 25.2404 35.809 31.0324 29.0968C37.3619 21.7605 35.7994 10.1237 28.6095 3.90124ZM14.6936 33.0062C10.4104 32.3965 6.25431 29.7611 4.08386 26.0034C2.14347 22.6436 2.15972 18.4363 3.02953 14.7666C4.36663 9.12499 8.4124 4.03336 13.7001 2.81472C13.708 2.81511 13.7146 2.81739 13.7226 2.81739C15.6257 2.87376 17.6351 2.87704 19.5996 3.08948C19.7855 3.14776 19.9718 3.20565 20.1588 3.27408C20.4687 3.38697 20.7395 3.37248 20.9665 3.27949C23.0856 3.63625 25.1094 4.31529 26.8363 5.67405C30.6562 8.67983 32.67 14.0999 32.5596 18.8472C32.3528 27.7953 23.1696 34.2124 14.6936 33.0062Z" fill="black"/>
<path d="M12.5895 16.1646C14.3653 16.1646 14.3653 13.4106 12.5895 13.4106C10.8139 13.4106 10.8139 16.1646 12.5895 16.1646Z" fill="black"/>
<path d="M22.0937 16.3022C23.8692 16.3022 23.8692 13.5483 22.0937 13.5483C20.3177 13.5483 20.3177 16.3022 22.0937 16.3022Z" fill="black"/>
<path d="M22.7693 20.9743C19.4702 24.2524 15.2141 23.9254 11.9108 20.8364C10.6156 19.6251 8.6639 21.5685 9.96347 22.7839C14.3591 26.8948 20.3422 27.2681 24.7164 22.9214C25.9777 21.6683 24.0296 19.7216 22.7693 20.9743Z" fill="black"/>
</svg>
