<svg width="26" height="26" viewBox="0 0 26 26" fill="none" xmlns="http://www.w3.org/2000/svg">
<path d="M13.3281 25.8691C6.4356 25.8691 0.828125 20.2617 0.828125 13.3691C0.828125 6.47661 6.4356 0.869141 13.3281 0.869141C20.2207 0.869141 25.8281 6.47661 25.8281 13.3691C25.8281 20.2617 20.2207 25.8691 13.3281 25.8691Z" fill="#EB8888"/>
<path d="M25.8281 13.3691C25.8281 6.47661 20.2207 0.869141 13.3281 0.869141V25.8691C20.2207 25.8691 25.8281 20.2617 25.8281 13.3691Z" fill="#EB8888"/>
<path d="M13.3281 22.8906C8.07798 22.8906 3.80664 18.6193 3.80664 13.3691C3.80664 8.11899 8.07798 3.84766 13.3281 3.84766C18.5783 3.84766 22.8496 8.11899 22.8496 13.3691C22.8496 18.6193 18.5783 22.8906 13.3281 22.8906Z" fill="#FFB8B8"/>
<path d="M22.8496 13.3691C22.8496 8.11899 18.5783 3.84766 13.3281 3.84766V22.8906C18.5783 22.8906 22.8496 18.6193 22.8496 13.3691Z" fill="#FFB8B8"/>
<path d="M15.4826 11.961L13.8993 9.98191C13.6061 9.61541 13.0487 9.61541 12.7555 9.98191L11.1722 11.961L8.77213 10.7609C8.22701 10.4884 7.60684 10.962 7.72637 11.5596L8.70294 16.4425C8.77144 16.7848 9.07203 17.0312 9.42115 17.0312H17.2336C17.5828 17.0312 17.8834 16.7848 17.9519 16.4425L18.9284 11.5596C19.048 10.962 18.4278 10.4884 17.8827 10.7609L15.4826 11.961Z" fill="#EB8888"/>
<path d="M17.2344 17.0312C17.5835 17.0312 17.8841 16.7848 17.9526 16.4425L18.9292 11.5597C19.0487 10.962 18.4286 10.4884 17.8834 10.7609L15.4833 11.961L13.9 9.98193C13.7535 9.79868 13.5408 9.70703 13.3281 9.70703V17.0312H17.2344Z" fill="#EB8888"/>
</svg>
