<svg width="19" height="18" viewBox="0 0 19 18" fill="none" xmlns="http://www.w3.org/2000/svg">
<path fill-rule="evenodd" clip-rule="evenodd" d="M8.18582 0.68955C9.16814 -0.22985 10.6951 -0.22985 11.6775 0.68955L12.5281 1.48568C12.7678 1.71007 13.0809 1.83975 13.4091 1.85061L14.5735 1.88914C15.9183 1.93363 16.998 3.01338 17.0425 4.3581L17.081 5.52255C17.0919 5.85072 17.2216 6.1638 17.4459 6.40356L18.2421 7.25418C19.1615 8.2365 19.1615 9.7635 18.2421 10.7458L17.4459 11.5964C17.2216 11.8362 17.0919 12.1493 17.081 12.4775L17.0425 13.6419C16.998 14.9866 15.9183 16.0664 14.5735 16.1109L13.4091 16.1494C13.0809 16.1602 12.7678 16.2899 12.5281 16.5143L11.6775 17.3104C10.6951 18.2299 9.16814 18.2299 8.18582 17.3104L7.3352 16.5143C7.09544 16.2899 6.78236 16.1602 6.45419 16.1494L5.28974 16.1109C3.94502 16.0664 2.86527 14.9866 2.82078 13.6419L2.78225 12.4775C2.77139 12.1493 2.64171 11.8362 2.41732 11.5964L1.62119 10.7458C0.70179 9.7635 0.70179 8.2365 1.62119 7.25418L2.41732 6.40356C2.64171 6.1638 2.77139 5.85072 2.78225 5.52255L2.82078 4.3581C2.86527 3.01338 3.94502 1.93363 5.28974 1.88914L6.45419 1.85061C6.78236 1.83975 7.09544 1.71007 7.3352 1.48568L8.18582 0.68955ZM13.6696 7.01004C13.8961 6.76815 13.8836 6.38844 13.6417 6.162C13.3998 5.93553 13.0201 5.94804 12.7936 6.18996L8.73803 10.5221L7.06964 8.73996C6.8432 8.49804 6.46349 8.48553 6.2216 8.712C5.97968 8.93844 5.96717 9.31815 6.19364 9.56004L8.3 11.81C8.41346 11.9312 8.57204 12 8.73803 12C8.90402 12 9.0626 11.9312 9.17603 11.81L13.6696 7.01004Z" fill="#ECECEC"/>
</svg>
