<svg width="19" height="18" viewBox="0 0 19 18" fill="none" xmlns="http://www.w3.org/2000/svg">
<path fill-rule="evenodd" clip-rule="evenodd" d="M8.0823 0.68955C9.06462 -0.22985 10.5916 -0.22985 11.5739 0.68955L12.4246 1.48568C12.6643 1.71007 12.9774 1.83975 13.3056 1.85061L14.47 1.88914C15.8147 1.93363 16.8945 3.01338 16.939 4.3581L16.9775 5.52255C16.9884 5.85072 17.1181 6.1638 17.3424 6.40356L18.1386 7.25418C19.058 8.2365 19.058 9.7635 18.1386 10.7458L17.3424 11.5964C17.1181 11.8362 16.9884 12.1493 16.9775 12.4775L16.939 13.6419C16.8945 14.9866 15.8147 16.0664 14.47 16.1109L13.3056 16.1494C12.9774 16.1602 12.6643 16.2899 12.4246 16.5143L11.5739 17.3104C10.5916 18.2299 9.06462 18.2299 8.0823 17.3104L7.23168 16.5143C6.99192 16.2899 6.67884 16.1602 6.35067 16.1494L5.18622 16.1109C3.8415 16.0664 2.76175 14.9866 2.71726 13.6419L2.67874 12.4775C2.66788 12.1493 2.53819 11.8362 2.31381 11.5964L1.51768 10.7458C0.598275 9.7635 0.598275 8.2365 1.51768 7.25418L2.31381 6.40356C2.53819 6.1638 2.66788 5.85072 2.67874 5.52255L2.71726 4.3581C2.76175 3.01338 3.8415 1.93363 5.18622 1.88914L6.35067 1.85061C6.67884 1.83975 6.99192 1.71007 7.23168 1.48568L8.0823 0.68955ZM13.5661 7.01004C13.7926 6.76815 13.7801 6.38844 13.5382 6.162C13.2963 5.93553 12.9166 5.94804 12.6901 6.18996L8.63451 10.5221L6.96612 8.73996C6.73968 8.49804 6.35997 8.48553 6.11808 8.712C5.87616 8.93844 5.86365 9.31815 6.09012 9.56004L8.19648 11.81C8.30994 11.9312 8.46852 12 8.63451 12C8.8005 12 8.95908 11.9312 9.07251 11.81L13.5661 7.01004Z" fill="#AEAEAE"/>
</svg>
