<svg width="44" height="44" viewBox="0 0 44 44" fill="none" xmlns="http://www.w3.org/2000/svg">
<g filter="url(#filter0_d_1569_5225)">
<rect x="11" y="9" width="22" height="20" fill="white"/>
<path fill-rule="evenodd" clip-rule="evenodd" d="M18.1204 1.53233C20.3033 -0.510778 23.6967 -0.510778 25.8796 1.53233L27.7699 3.30151C28.3027 3.80015 28.9984 4.08834 29.7277 4.11247L32.3153 4.19808C35.3036 4.29695 37.7031 6.6964 37.8019 9.68466L37.8875 12.2723C37.9116 13.0016 38.1998 13.6973 38.6984 14.2301L40.4677 16.1204C42.5108 18.3033 42.5108 21.6967 40.4677 23.8796L38.6984 25.7699C38.1998 26.3027 37.9116 26.9984 37.8875 27.7277L37.8019 30.3153C37.7031 33.3036 35.3036 35.7031 32.3153 35.8019L29.7277 35.8875C28.9984 35.9116 28.3027 36.1998 27.7699 36.6984L25.8796 38.4677C23.6967 40.5108 20.3033 40.5108 18.1204 38.4677L16.2301 36.6984C15.6973 36.1998 15.0016 35.9116 14.2723 35.8875L11.6847 35.8019C8.6964 35.7031 6.29695 33.3036 6.19808 30.3153L6.11247 27.7277C6.08834 26.9984 5.80015 26.3027 5.30151 25.7699L3.53233 23.8796C1.48922 21.6967 1.48922 18.3033 3.53233 16.1204L5.30151 14.2301C5.80015 13.6973 6.08834 13.0016 6.11247 12.2723L6.19808 9.68466C6.29695 6.6964 8.6964 4.29695 11.6847 4.19808L14.2723 4.11247C15.0016 4.08834 15.6973 3.80015 16.2301 3.30151L18.1204 1.53233ZM30.3067 15.5779C30.8099 15.0403 30.7821 14.1965 30.2445 13.6933C29.707 13.1901 28.8632 13.2179 28.36 13.7555L19.3475 23.3824L15.64 19.4221C15.1368 18.8845 14.293 18.8567 13.7555 19.36C13.2179 19.8632 13.1901 20.707 13.6933 21.2445L18.3741 26.2445C18.6263 26.5139 18.9787 26.6667 19.3475 26.6667C19.7164 26.6667 20.0688 26.5139 20.3209 26.2445L30.3067 15.5779Z" fill="url(#paint0_linear_1569_5225)"/>
</g>
<defs>
<filter id="filter0_d_1569_5225" x="0" y="0" width="44" height="44" filterUnits="userSpaceOnUse" color-interpolation-filters="sRGB">
<feFlood flood-opacity="0" result="BackgroundImageFix"/>
<feColorMatrix in="SourceAlpha" type="matrix" values="0 0 0 0 0 0 0 0 0 0 0 0 0 0 0 0 0 0 127 0" result="hardAlpha"/>
<feOffset dy="2"/>
<feGaussianBlur stdDeviation="1"/>
<feComposite in2="hardAlpha" operator="out"/>
<feColorMatrix type="matrix" values="0 0 0 0 0 0 0 0 0 0 0 0 0 0 0 0 0 0 0.25 0"/>
<feBlend mode="normal" in2="BackgroundImageFix" result="effect1_dropShadow_1569_5225"/>
<feBlend mode="normal" in="SourceGraphic" in2="effect1_dropShadow_1569_5225" result="shape"/>
</filter>
<linearGradient id="paint0_linear_1569_5225" x1="2" y1="20" x2="42" y2="20" gradientUnits="userSpaceOnUse">
<stop stop-color="#CCB5F3"/>
<stop offset="1" stop-color="#FF9595"/>
</linearGradient>
</defs>
</svg>
