<svg width="141" height="41" viewBox="0 0 141 41" fill="none" xmlns="http://www.w3.org/2000/svg">
<g filter="url(#filter0_d_870_924)">
<rect x="10" y="10" width="121" height="21" rx="4" fill="#FFEDED" shape-rendering="crispEdges"/>
<path d="M31.6826 19.1338H30.1357V15.3203H29.2979V24.8701H30.1357V19.8428H31.6826V19.1338ZM23.1426 22.4424H23.9053C25.3501 22.4424 26.8325 22.3457 28.4814 22.0127L28.374 21.293C26.8003 21.626 25.377 21.7334 23.9805 21.7334V16.2656H23.1426V22.4424ZM39.9648 19.7998H34.2178V16.792H39.8682V16.1045H33.3691V20.4873H36.1836V22.958H32.252V23.667H40.9961V22.958H37.0107V20.4873H39.9648V19.7998ZM52.7158 16.416H49.2783V15.2666H48.4512V16.416H44.9707V17.1143H52.7158V16.416ZM44.5195 22.2061H48.4512V24.8916H49.2783V22.2061H53.2637V21.5078H44.5195V22.2061ZM45.7549 19.2627C45.7441 20.2725 46.915 20.8418 48.8701 20.8525C50.8091 20.8418 51.98 20.2725 51.9854 19.2627C51.98 18.2314 50.8091 17.6621 48.8701 17.6621C46.915 17.6621 45.7441 18.2314 45.7549 19.2627ZM46.625 19.2627C46.6143 18.6611 47.4468 18.312 48.8701 18.3066C50.2773 18.312 51.1045 18.6611 51.1152 19.2627C51.1045 19.8535 50.2773 20.2026 48.8701 20.1973C47.4468 20.2026 46.6143 19.8535 46.625 19.2627ZM61.9219 15.3203H61.0732V24.8701H61.9219V15.3203ZM54.1445 22.3887L54.6064 23.0762C57.8076 21.54 59.0859 19.1069 59.0967 16.3623H54.585V17.0498H58.2373C58.0493 19.3325 56.728 21.1641 54.1445 22.3887ZM69.1729 17.3184V16.0938H68.335V17.3184C68.3242 18.3765 67.6099 19.6709 66.3906 20.2295L66.8418 20.874C67.7549 20.439 68.4102 19.6118 68.7378 18.6987C69.0439 19.6333 69.6724 20.5249 70.6445 20.9814C71.6006 20.5356 72.2236 19.6763 72.5352 18.7471C72.8574 19.6655 73.502 20.4497 74.4365 20.874L74.9092 20.2295C73.647 19.6978 72.9595 18.4839 72.9648 17.3184V16.0938H72.1162V17.3184C72.1162 18.2583 71.6274 19.4131 70.6499 20.063C69.6616 19.397 69.1729 18.2153 69.1729 17.3184ZM66.2939 23.5811H75.0273V22.8828H66.2939V23.5811ZM83.707 15.3203H82.8691V18.9941H81.0107V19.7031H82.8691V24.8916H83.707V15.3203ZM76.1338 16.9102H79.6143V18.8545H76.166V22.5928H76.8965C78.626 22.5874 79.8667 22.5283 81.3008 22.2705L81.2363 21.5615C79.8452 21.8193 78.6528 21.873 77.0039 21.873V19.5527H80.4307V16.2119H76.1338V16.9102ZM95.459 15.3203H94.6211V24.8701H95.459V19.918H97.0059V19.209H95.459V15.3203ZM88.1328 22.3887L88.6055 23.0547C91.7153 21.5186 92.9829 19.0532 92.9883 16.3516H88.5732V17.0605H92.1343C91.9409 19.3218 90.5981 21.1641 88.1328 22.3887ZM105.471 15.3203H104.622V24.8701H105.471V15.3203ZM97.6934 22.3887L98.1553 23.0762C101.356 21.54 102.635 19.1069 102.646 16.3623H98.1338V17.0498H101.786C101.598 19.3325 100.277 21.1641 97.6934 22.3887ZM115.106 24.0107L118.522 20.5947L115.106 17.1787L114.505 17.7695L116.911 20.1758H110.713V21.0244H116.911L114.505 23.4307L115.106 24.0107Z" fill="#EB8888"/>
<rect x="10.25" y="10.25" width="120.5" height="20.5" rx="3.75" stroke="#EB8888" stroke-width="0.5" shape-rendering="crispEdges"/>
</g>
<defs>
<filter id="filter0_d_870_924" x="0" y="0" width="141" height="41" filterUnits="userSpaceOnUse" color-interpolation-filters="sRGB">
<feFlood flood-opacity="0" result="BackgroundImageFix"/>
<feColorMatrix in="SourceAlpha" type="matrix" values="0 0 0 0 0 0 0 0 0 0 0 0 0 0 0 0 0 0 127 0" result="hardAlpha"/>
<feOffset/>
<feGaussianBlur stdDeviation="5"/>
<feComposite in2="hardAlpha" operator="out"/>
<feColorMatrix type="matrix" values="0 0 0 0 0.729167 0 0 0 0 0.571181 0 0 0 0 0.571181 0 0 0 0.15 0"/>
<feBlend mode="normal" in2="BackgroundImageFix" result="effect1_dropShadow_870_924"/>
<feBlend mode="normal" in="SourceGraphic" in2="effect1_dropShadow_870_924" result="shape"/>
</filter>
</defs>
</svg>
