<svg width="185" height="77" viewBox="0 0 205 85" fill="none" xmlns="http://www.w3.org/2000/svg">
<g filter="url(#filter0_d_2_1621)">
<rect x="7" y="5" width="191" height="60" rx="15" fill="white"/>
<path d="M180.358 74.9007C181.662 75.6796 183.324 74.7784 183.383 73.2609L184.213 51.7407C184.273 50.1917 182.624 49.1665 181.261 49.9054L161.943 60.3801C160.58 61.119 160.54 63.0602 161.87 63.8552L180.358 74.9007Z" fill="white"/>
<path d="M49.238 31.802C49.322 31.73 49.424 31.754 49.544 31.874C49.676 31.994 49.766 32.132 49.814 32.288C49.874 32.444 49.88 32.57 49.832 32.666C49.748 32.738 49.166 32.786 48.086 32.81C47.45 32.81 47 32.828 46.736 32.864C46.472 32.9 46.262 32.972 46.106 33.08C45.998 33.14 45.926 33.188 45.89 33.224C45.854 33.26 45.818 33.344 45.782 33.476C45.746 33.596 45.728 33.734 45.728 33.89C45.728 34.034 45.728 34.286 45.728 34.646C45.728 35.534 45.764 36.008 45.836 36.068C45.908 36.104 46.226 36.128 46.79 36.14C47.414 36.14 48.194 36.068 49.13 35.924C49.466 35.864 49.7 35.912 49.832 36.068C50.132 36.44 49.874 36.71 49.058 36.878C48.962 36.902 48.86 36.92 48.752 36.932C48.14 37.028 47.432 37.1 46.628 37.148C45.836 37.196 45.392 37.196 45.296 37.148C45.176 37.064 45.05 36.716 44.918 36.104C44.786 35.48 44.72 34.934 44.72 34.466C44.72 33.854 44.672 33.47 44.576 33.314C44.48 33.11 44.564 32.906 44.828 32.702C45.092 32.498 45.494 32.33 46.034 32.198C46.574 32.054 47.174 31.964 47.834 31.928C48.746 31.88 49.214 31.838 49.238 31.802ZM49.652 39.614C49.712 39.542 49.844 39.518 50.048 39.542C50.264 39.566 50.408 39.614 50.48 39.686C50.6 39.806 50.624 39.956 50.552 40.136C50.492 40.304 50.372 40.418 50.192 40.478C50.012 40.538 49.484 40.562 48.608 40.55C47.828 40.538 46.994 40.568 46.106 40.64C45.758 40.664 45.44 40.676 45.152 40.676C44.876 40.676 44.708 40.658 44.648 40.622C44.528 40.55 44.462 40.43 44.45 40.262C44.438 40.082 44.498 39.944 44.63 39.848C44.726 39.764 45.578 39.71 47.186 39.686C48.806 39.674 49.628 39.65 49.652 39.614ZM58.4468 32.99C58.5068 32.822 58.6568 32.75 58.8968 32.774L59.2928 32.828L59.2208 35.924C59.2208 36.38 59.2148 36.926 59.2028 37.562C59.1908 38.198 59.1788 38.714 59.1668 39.11C59.1548 39.494 59.1488 39.752 59.1488 39.884V40.73L58.6628 40.766L58.1768 40.82L58.2848 37.022C58.3448 34.562 58.3988 33.218 58.4468 32.99ZM53.8028 32.99C53.8268 32.966 54.1688 32.948 54.8288 32.936C55.0328 32.924 55.2008 32.918 55.3328 32.918C55.4648 32.918 55.5728 32.93 55.6568 32.954C55.7408 32.966 55.8008 32.99 55.8368 33.026C55.8848 33.05 55.9208 33.092 55.9448 33.152C56.0408 33.332 56.0288 33.5 55.9088 33.656C55.8248 33.764 55.6988 33.836 55.5308 33.872C55.3748 33.896 55.0628 33.902 54.5948 33.89C53.8268 33.878 53.2448 33.95 52.8488 34.106L52.2368 34.34L52.3268 35.852C52.3268 35.912 52.3328 36.008 52.3448 36.14C52.3568 36.488 52.3628 36.734 52.3628 36.878C52.3748 37.022 52.4048 37.184 52.4528 37.364C52.5008 37.532 52.5368 37.634 52.5608 37.67C52.5968 37.706 52.6808 37.748 52.8128 37.796C52.9448 37.832 53.0648 37.844 53.1728 37.832C53.2928 37.82 53.4908 37.808 53.7668 37.796C53.8508 37.784 53.9228 37.778 53.9828 37.778C54.7388 37.73 55.3808 37.67 55.9088 37.598C56.2088 37.562 56.3948 37.562 56.4668 37.598C56.5388 37.622 56.6108 37.724 56.6828 37.904C56.7908 38.18 56.7788 38.384 56.6468 38.516C56.5148 38.636 56.2448 38.684 55.8368 38.66C55.4048 38.648 54.6788 38.702 53.6588 38.822C52.9988 38.894 52.5608 38.93 52.3448 38.93C52.1408 38.93 51.9968 38.888 51.9128 38.804C51.7088 38.6 51.5408 37.754 51.4088 36.266C51.2768 34.778 51.2948 33.92 51.4628 33.692C51.5948 33.536 52.0088 33.38 52.7048 33.224C53.3768 33.092 53.7428 33.014 53.8028 32.99ZM62.3558 33.08C62.5358 33.02 62.6918 33.002 62.8238 33.026C62.9678 33.05 63.1898 33.128 63.4898 33.26C63.9458 33.476 64.2998 33.704 64.5518 33.944C64.8158 34.184 64.9958 34.478 65.0918 34.826C65.1998 35.174 65.2538 35.636 65.2538 36.212C65.2538 36.956 65.0318 37.58 64.5878 38.084C64.1438 38.576 63.5918 38.828 62.9318 38.84C62.4998 38.84 62.0198 38.708 61.4918 38.444C60.9758 38.168 60.6098 37.856 60.3938 37.508C60.1538 37.136 60.0278 36.728 60.0158 36.284C60.0038 35.828 60.0878 35.39 60.2678 34.97C60.4478 34.55 60.7238 34.172 61.0958 33.836C61.4678 33.488 61.8878 33.236 62.3558 33.08ZM63.8138 34.43C63.5378 34.214 63.2618 34.082 62.9858 34.034C62.7098 33.974 62.4758 34.004 62.2838 34.124C61.7078 34.484 61.3058 34.91 61.0778 35.402C60.8618 35.894 60.8678 36.338 61.0958 36.734C61.3478 37.142 61.7138 37.46 62.1938 37.688C62.6738 37.916 63.0638 37.952 63.3638 37.796C63.5678 37.676 63.7478 37.544 63.9038 37.4C64.0718 37.256 64.1978 37.1 64.2818 36.932C64.3658 36.764 64.4078 36.602 64.4078 36.446C64.4078 35.966 64.3478 35.54 64.2278 35.168C64.1198 34.796 63.9818 34.55 63.8138 34.43ZM67.8638 33.962C67.9238 33.722 68.0678 33.602 68.2958 33.602C68.5358 33.602 68.6858 33.662 68.7458 33.782C68.8298 33.938 68.8358 34.664 68.7638 35.96C68.7038 37.22 68.6618 38.288 68.6378 39.164C68.6258 39.704 68.6018 40.052 68.5658 40.208C68.5298 40.364 68.4578 40.472 68.3498 40.532C68.1578 40.64 67.9898 40.664 67.8458 40.604C67.7498 40.568 67.6958 40.436 67.6838 40.208C67.6718 39.968 67.6838 39.44 67.7198 38.624C67.7678 37.688 67.7858 37.136 67.7738 36.968C67.7618 36.788 67.6838 36.698 67.5398 36.698C67.3598 36.698 67.1318 36.752 66.8558 36.86C66.5798 36.968 66.2918 36.992 65.9918 36.932C65.6918 36.86 65.5418 36.74 65.5418 36.572C65.5418 36.452 65.5958 36.344 65.7038 36.248C65.8118 36.14 65.9678 36.05 66.1718 35.978C66.3878 35.906 66.6398 35.852 66.9278 35.816C67.4078 35.768 67.7018 35.714 67.8098 35.654C67.9058 35.594 67.9178 35.354 67.8458 34.934C67.7978 34.502 67.8038 34.178 67.8638 33.962ZM146.453 33.296C146.573 33.176 146.723 33.128 146.903 33.152C147.095 33.164 147.221 33.242 147.281 33.386C147.329 33.506 147.311 33.986 147.227 34.826C146.903 37.73 146.777 39.326 146.849 39.614C146.897 39.806 146.855 39.962 146.723 40.082C146.603 40.202 146.423 40.244 146.183 40.208C146.027 40.184 145.937 40.118 145.913 40.01C145.889 39.89 145.889 39.53 145.913 38.93C145.925 38.198 145.895 37.802 145.823 37.742C145.799 37.706 145.721 37.688 145.589 37.688C145.373 37.688 145.085 37.766 144.725 37.922C144.377 38.066 144.089 38.108 143.861 38.048C143.645 37.988 143.537 37.838 143.537 37.598C143.537 37.466 143.573 37.364 143.645 37.292C143.717 37.208 143.849 37.124 144.041 37.04C144.389 36.908 144.659 36.842 144.851 36.842C145.187 36.842 145.469 36.782 145.697 36.662C145.937 36.53 146.075 36.368 146.111 36.176C146.171 35.888 146.141 35.714 146.021 35.654C145.901 35.582 145.637 35.6 145.229 35.708C144.341 35.936 143.891 35.876 143.879 35.528C143.879 35.492 143.885 35.45 143.897 35.402C143.969 35.15 144.095 34.976 144.275 34.88C144.467 34.772 144.755 34.718 145.139 34.718C145.619 34.718 145.949 34.664 146.129 34.556C146.309 34.448 146.375 34.256 146.327 33.98C146.255 33.692 146.297 33.464 146.453 33.296ZM148.829 33.206C148.889 33.098 148.979 33.044 149.099 33.044C149.231 33.044 149.351 33.098 149.459 33.206C149.651 33.398 149.639 34.634 149.423 36.914C149.291 38.27 149.255 39.104 149.315 39.416C149.339 39.656 149.327 39.818 149.279 39.902C149.243 39.974 149.141 40.04 148.973 40.1C148.721 40.196 148.553 40.214 148.469 40.154C148.385 40.094 148.343 39.74 148.343 39.092C148.355 38.432 148.403 37.736 148.487 37.004C148.583 36.296 148.649 35.492 148.685 34.592C148.721 33.752 148.769 33.29 148.829 33.206ZM140.153 33.476C140.501 33.404 140.831 33.404 141.143 33.476C141.491 33.56 141.683 33.602 141.719 33.602C141.779 33.602 141.983 33.746 142.331 34.034L142.817 34.466V35.852C142.817 36.512 142.799 36.932 142.763 37.112C142.727 37.292 142.601 37.52 142.385 37.796C141.941 38.42 141.371 38.684 140.675 38.588C140.327 38.54 139.943 38.408 139.523 38.192C139.103 37.964 138.761 37.718 138.497 37.454C138.257 37.214 138.113 37.034 138.065 36.914C138.029 36.782 138.023 36.518 138.047 36.122C138.083 35.714 138.197 35.318 138.389 34.934C138.581 34.55 138.833 34.232 139.145 33.98C139.457 33.716 139.793 33.548 140.153 33.476ZM141.557 34.502C141.269 34.358 141.005 34.298 140.765 34.322C140.537 34.346 140.225 34.454 139.829 34.646C139.337 34.898 139.037 35.222 138.929 35.618C138.833 36.014 138.935 36.392 139.235 36.752C139.535 37.1 139.991 37.358 140.603 37.526C140.819 37.574 140.975 37.592 141.071 37.58C141.179 37.568 141.287 37.514 141.395 37.418C141.779 37.094 141.971 36.482 141.971 35.582C141.971 35.174 141.953 34.922 141.917 34.826C141.881 34.718 141.761 34.61 141.557 34.502ZM152.058 31.01C152.49 30.854 152.904 30.806 153.3 30.866C153.708 30.914 154.086 31.076 154.434 31.352C154.794 31.628 155.088 32 155.316 32.468C155.544 32.912 155.652 33.326 155.64 33.71C155.64 34.094 155.52 34.52 155.28 34.988C155.088 35.372 154.86 35.66 154.596 35.852C154.332 36.032 153.996 36.152 153.588 36.212C152.904 36.308 152.256 36.176 151.644 35.816C151.032 35.456 150.642 34.994 150.474 34.43C150.234 33.662 150.258 32.978 150.546 32.378C150.834 31.778 151.338 31.322 152.058 31.01ZM153.516 31.748C153.396 31.748 153.264 31.724 153.12 31.676C152.904 31.604 152.562 31.736 152.094 32.072C151.626 32.408 151.344 32.732 151.248 33.044C151.212 33.164 151.206 33.308 151.23 33.476C151.254 33.632 151.296 33.794 151.356 33.962C151.416 34.118 151.494 34.274 151.59 34.43C151.698 34.586 151.812 34.718 151.932 34.826C152.388 35.234 152.85 35.42 153.318 35.384C153.786 35.348 154.158 35.102 154.434 34.646C154.878 33.926 154.806 33.176 154.218 32.396C153.87 31.964 153.636 31.748 153.516 31.748ZM154.272 37.346C154.368 37.118 154.488 37.004 154.632 37.004C154.788 36.992 154.92 37.106 155.028 37.346C155.124 37.574 155.112 37.97 154.992 38.534C154.872 39.074 154.848 39.404 154.92 39.524C154.98 39.632 155.34 39.686 156 39.686C156.456 39.686 156.738 39.704 156.846 39.74C156.966 39.764 157.056 39.848 157.116 39.992C157.2 40.244 157.17 40.418 157.026 40.514C156.894 40.61 156.594 40.652 156.126 40.64C155.754 40.628 155.292 40.652 154.74 40.712C154.2 40.76 153.816 40.814 153.588 40.874C153.48 40.91 153.204 40.964 152.76 41.036C152.328 41.12 151.902 41.198 151.482 41.27C151.062 41.342 150.81 41.378 150.726 41.378C150.582 41.378 150.474 41.282 150.402 41.09C150.33 40.898 150.348 40.736 150.456 40.604C150.552 40.484 150.786 40.394 151.158 40.334L151.68 40.262V39.11C151.692 38.474 151.74 38.072 151.824 37.904C151.908 37.724 152.088 37.67 152.364 37.742C152.532 37.79 152.628 37.868 152.652 37.976C152.688 38.072 152.7 38.372 152.688 38.876L152.652 39.884L153.354 39.938C153.798 39.962 154.02 39.938 154.02 39.866C154.02 39.542 154.032 39.2 154.056 38.84C154.092 38.48 154.128 38.168 154.164 37.904C154.212 37.64 154.248 37.454 154.272 37.346ZM159.216 31.964C159.276 31.904 159.366 31.88 159.486 31.892C159.606 31.904 159.708 31.952 159.792 32.036C159.852 32.096 159.888 32.174 159.9 32.27C159.912 32.354 159.912 32.558 159.9 32.882C159.876 33.338 159.822 33.842 159.738 34.394C159.654 34.946 159.576 35.288 159.504 35.42C159.444 35.54 159.42 35.732 159.432 35.996C159.456 36.248 159.51 36.494 159.594 36.734C159.678 36.986 159.708 37.184 159.684 37.328C159.66 37.472 159.576 37.616 159.432 37.76C159.3 37.892 159.168 37.964 159.036 37.976C158.916 37.976 158.82 37.922 158.748 37.814C158.676 37.706 158.634 37.25 158.622 36.446C158.61 35.63 158.64 35.138 158.712 34.97C158.76 34.85 158.808 34.628 158.856 34.304C158.928 33.848 158.976 33.542 159 33.386C159.048 33.026 159.084 32.732 159.108 32.504C159.132 32.216 159.168 32.036 159.216 31.964ZM158.262 40.388C158.406 40.304 158.58 40.316 158.784 40.424C159.012 40.544 159.126 40.754 159.126 41.054C159.126 41.342 159.012 41.54 158.784 41.648C158.568 41.768 158.34 41.75 158.1 41.594C157.944 41.51 157.866 41.384 157.866 41.216C157.866 41.096 157.908 40.94 157.992 40.748C158.088 40.556 158.178 40.436 158.262 40.388Z" fill="#999999"/>
<path d="M82.7474 32.792C82.8674 32.66 83.0234 32.606 83.2154 32.63C83.3594 32.654 83.4434 32.756 83.4674 32.936C83.4914 33.104 83.4914 33.614 83.4674 34.466L83.4314 36.266L84.2414 36.194C84.8054 36.146 85.1654 36.104 85.3214 36.068C85.5134 36.032 85.7414 36.068 86.0054 36.176C86.2694 36.284 86.4254 36.398 86.4734 36.518C86.5334 36.686 86.5094 36.806 86.4014 36.878C86.3054 36.95 86.1194 36.998 85.8434 37.022C85.5194 37.022 85.0154 37.07 84.3314 37.166L83.3054 37.31V38.642C83.3054 39.518 83.3114 39.968 83.3234 39.992C83.3714 40.064 83.3114 40.196 83.1434 40.388C82.9754 40.568 82.8374 40.658 82.7294 40.658C82.5134 40.658 82.3754 40.544 82.3154 40.316C82.2554 40.076 82.2614 39.65 82.3334 39.038C82.4054 38.342 82.4714 37.148 82.5314 35.456C82.5674 33.836 82.6394 32.948 82.7474 32.792ZM77.8514 33.476C78.2474 33.416 78.6674 33.368 79.1114 33.332C79.2794 33.332 79.4534 33.422 79.6334 33.602C79.7774 33.746 79.8554 33.89 79.8674 34.034C79.8914 34.166 79.8854 34.46 79.8494 34.916C79.8494 34.988 79.8254 35.306 79.7774 35.87C79.7294 36.434 79.6994 36.836 79.6874 37.076C79.6154 37.844 79.5494 38.288 79.4894 38.408C79.4054 38.528 79.0394 38.606 78.3914 38.642C77.6834 38.678 76.9754 38.72 76.2674 38.768L75.1154 38.84L74.9534 38.012C74.8574 37.544 74.7914 36.8 74.7554 35.78C74.7314 34.76 74.7614 34.154 74.8454 33.962C74.8934 33.854 74.9354 33.794 74.9714 33.782C75.0074 33.77 75.0674 33.8 75.1514 33.872C75.3074 33.992 75.6314 33.968 76.1234 33.8C76.6274 33.644 77.2034 33.536 77.8514 33.476ZM78.9494 34.448C78.9254 34.364 78.8474 34.328 78.7154 34.34C78.5834 34.34 78.1694 34.4 77.4734 34.52C77.4254 34.532 77.3534 34.544 77.2574 34.556C76.9334 34.616 76.7054 34.658 76.5734 34.682C76.4534 34.706 76.3094 34.754 76.1414 34.826C75.9854 34.886 75.8894 34.934 75.8534 34.97C75.8174 34.994 75.7754 35.078 75.7274 35.222C75.6794 35.366 75.6554 35.486 75.6554 35.582C75.6554 35.678 75.6554 35.858 75.6554 36.122C75.6554 36.182 75.6554 36.23 75.6554 36.266C75.6554 37.106 75.7154 37.562 75.8354 37.634C75.9434 37.706 76.4234 37.73 77.2754 37.706C78.1274 37.682 78.5894 37.634 78.6614 37.562C78.6974 37.526 78.7454 37.274 78.8054 36.806C78.8654 36.326 78.9074 35.834 78.9314 35.33C78.9674 34.826 78.9734 34.532 78.9494 34.448ZM91.5156 33.242C91.9836 33.122 92.2716 33.086 92.3796 33.134C92.5476 33.23 92.5296 33.536 92.3256 34.052C92.1216 34.568 91.8096 35.108 91.3896 35.672L91.0296 36.14L91.5156 36.644C91.8636 36.968 92.1516 37.172 92.3796 37.256C92.4636 37.292 92.5656 37.376 92.6856 37.508C92.8056 37.628 92.8956 37.76 92.9556 37.904C93.0996 38.144 93.1716 38.3 93.1716 38.372C93.1716 38.444 93.1116 38.528 92.9916 38.624C92.7996 38.756 92.6076 38.774 92.4156 38.678C92.2236 38.582 91.8696 38.282 91.3536 37.778L90.4716 36.914L90.1116 37.346C89.8956 37.61 89.6916 37.946 89.4996 38.354C89.4516 38.474 89.3916 38.582 89.3196 38.678C89.2476 38.774 89.1756 38.858 89.1036 38.93C89.0436 38.99 88.9896 39.026 88.9416 39.038C88.7736 39.086 88.6116 39.068 88.4556 38.984C88.2996 38.888 88.2216 38.774 88.2216 38.642C88.2216 38.558 88.5936 38 89.3376 36.968C90.0936 35.924 90.5256 35.36 90.6336 35.276C90.7176 35.228 90.8256 35.066 90.9576 34.79C91.0896 34.514 91.1436 34.346 91.1196 34.286C91.0836 34.226 90.7536 34.256 90.1296 34.376C89.5176 34.484 89.0616 34.592 88.7616 34.7C88.4736 34.808 88.1436 34.862 87.7716 34.862C87.5556 34.862 87.4116 34.844 87.3396 34.808C87.2676 34.772 87.2316 34.694 87.2316 34.574C87.2316 34.394 87.3396 34.238 87.5556 34.106C87.7116 33.998 88.2636 33.836 89.2116 33.62C90.1596 33.392 90.6636 33.302 90.7236 33.35C90.7596 33.398 91.0236 33.362 91.5156 33.242ZM95.0796 33.206C95.1516 33.074 95.3076 33.026 95.5476 33.062C95.6556 33.074 95.7276 33.086 95.7636 33.098C95.8116 33.11 95.8476 33.146 95.8716 33.206C95.9076 33.254 95.9196 33.326 95.9076 33.422C95.9076 33.506 95.9076 33.632 95.9076 33.8C95.8956 34.04 95.8716 35.264 95.8356 37.472C95.8356 37.472 95.8356 37.478 95.8356 37.49C95.8116 38.942 95.7816 39.8 95.7456 40.064C95.7216 40.328 95.6316 40.49 95.4756 40.55C95.3316 40.598 95.2176 40.598 95.1336 40.55C95.0616 40.49 95.0016 40.334 94.9536 40.082C94.9056 39.818 94.8816 39.416 94.8816 38.876C94.8936 38.336 94.8996 37.616 94.8996 36.716C94.9356 34.484 94.9956 33.314 95.0796 33.206ZM104.534 31.46C104.618 31.34 104.762 31.298 104.966 31.334C105.182 31.358 105.308 31.436 105.344 31.568C105.368 31.712 105.332 32.174 105.236 32.954C105.116 33.698 105.086 34.106 105.146 34.178C105.218 34.238 105.5 34.226 105.992 34.142C106.472 34.058 106.784 34.046 106.928 34.106C107.084 34.154 107.162 34.31 107.162 34.574C107.162 34.682 107.156 34.76 107.144 34.808C107.144 34.856 107.12 34.898 107.072 34.934C107.024 34.97 106.97 34.994 106.91 35.006C106.85 35.006 106.754 35.006 106.622 35.006C106.274 35.006 105.908 35.072 105.524 35.204L104.966 35.366L104.894 36.644C104.858 37.22 104.822 37.574 104.786 37.706C104.75 37.838 104.66 37.916 104.516 37.94C104.312 37.976 104.132 37.916 103.976 37.76C103.832 37.592 103.778 37.388 103.814 37.148C103.838 37.016 103.874 36.734 103.922 36.302C103.982 35.858 104.042 35.384 104.102 34.88C104.174 34.376 104.234 33.884 104.282 33.404C104.33 32.924 104.366 32.576 104.39 32.36C104.414 31.868 104.462 31.568 104.534 31.46ZM98.6657 31.946C99.0977 31.826 99.6977 31.766 100.466 31.766L101.636 31.748V33.962C101.636 35.45 101.582 36.278 101.474 36.446C101.366 36.662 101.132 36.812 100.772 36.896C100.424 36.968 99.7577 37.022 98.7737 37.058C98.0777 37.082 97.5917 37.088 97.3157 37.076C97.0517 37.052 96.9077 37.01 96.8837 36.95C96.8477 36.866 96.8057 36.494 96.7577 35.834C96.7097 35.162 96.6737 34.55 96.6497 33.998C96.6257 33.434 96.6257 33.074 96.6497 32.918C96.6857 32.822 96.9137 32.666 97.3337 32.45C97.7657 32.234 98.2097 32.066 98.6657 31.946ZM100.736 32.756H100.088C99.7277 32.768 99.4397 32.798 99.2237 32.846C99.0197 32.882 98.6837 32.972 98.2157 33.116L97.5317 33.35V34.574C97.5317 34.886 97.5317 35.12 97.5317 35.276C97.5317 35.42 97.5557 35.57 97.6037 35.726C97.6517 35.87 97.6937 35.96 97.7297 35.996C97.7777 36.032 97.8797 36.068 98.0357 36.104C98.2037 36.14 98.3597 36.152 98.5037 36.14C98.6477 36.128 98.8817 36.11 99.2057 36.086C99.9977 36.026 100.448 35.948 100.556 35.852C100.652 35.768 100.706 35.228 100.718 34.232L100.736 32.756ZM103.022 38.498C103.094 38.402 103.304 38.372 103.652 38.408C104.012 38.432 104.222 38.492 104.282 38.588C104.378 38.696 104.456 39.356 104.516 40.568L104.588 42.386L104.246 42.53C104.09 42.578 103.964 42.608 103.868 42.62C103.784 42.632 103.718 42.572 103.67 42.44C103.622 42.308 103.592 42.128 103.58 41.9C103.568 41.684 103.568 41.36 103.58 40.928C103.604 40.364 103.604 39.986 103.58 39.794C103.556 39.602 103.502 39.488 103.418 39.452C103.262 39.392 102.782 39.47 101.978 39.686C101.174 39.89 100.7 39.962 100.556 39.902C100.412 39.842 100.346 39.698 100.358 39.47C100.382 39.23 100.466 39.068 100.61 38.984C100.802 38.888 101.234 38.798 101.906 38.714C102.602 38.618 102.974 38.546 103.022 38.498ZM116.136 31.532C116.844 31.436 117.324 31.37 117.576 31.334C117.732 31.334 117.864 31.406 117.972 31.55C118.092 31.682 118.134 31.826 118.098 31.982C118.086 32.09 117.99 32.168 117.81 32.216C117.642 32.252 117.276 32.294 116.712 32.342C115.848 32.414 115.206 32.516 114.786 32.648C114.762 32.66 114.726 32.672 114.678 32.684C114.51 32.744 114.402 32.798 114.354 32.846C114.318 32.894 114.288 33.032 114.264 33.26C114.24 33.488 114.246 33.83 114.282 34.286C114.282 34.454 114.282 34.586 114.282 34.682L114.318 35.618L115.92 35.546C116.232 35.522 116.484 35.51 116.676 35.51C116.88 35.51 117.06 35.516 117.216 35.528C117.384 35.528 117.504 35.546 117.576 35.582C117.66 35.606 117.726 35.642 117.774 35.69C117.834 35.738 117.858 35.798 117.846 35.87C117.834 35.942 117.816 36.026 117.792 36.122C117.756 36.23 117.66 36.308 117.504 36.356C117.36 36.392 117.06 36.428 116.604 36.464C115.584 36.56 114.984 36.62 114.804 36.644C114.636 36.668 114.498 36.68 114.39 36.68C114.294 36.68 114.192 36.674 114.084 36.662C113.988 36.65 113.91 36.614 113.85 36.554C113.802 36.482 113.754 36.41 113.706 36.338C113.658 36.266 113.616 36.158 113.58 36.014C113.544 35.858 113.514 35.696 113.49 35.528C113.466 35.348 113.436 35.12 113.4 34.844C113.28 33.836 113.184 33.248 113.112 33.08C113.04 32.864 113.118 32.636 113.346 32.396C113.574 32.156 113.886 31.988 114.282 31.892C114.714 31.772 115.332 31.652 116.136 31.532ZM120.204 31.496C120.24 31.388 120.342 31.334 120.51 31.334C120.762 31.334 120.924 31.442 120.996 31.658C121.068 31.874 121.074 32.306 121.014 32.954L120.924 34.16H121.374C121.662 34.16 121.89 34.106 122.058 33.998C122.262 33.878 122.484 33.878 122.724 33.998C122.964 34.118 123.084 34.286 123.084 34.502C123.084 34.598 123.066 34.67 123.03 34.718C123.006 34.766 122.946 34.808 122.85 34.844C122.766 34.868 122.628 34.898 122.436 34.934C121.956 34.982 121.572 35.066 121.284 35.186L120.816 35.33V36.518C120.816 37.082 120.798 37.424 120.762 37.544C120.738 37.652 120.648 37.73 120.492 37.778C120.168 37.85 119.976 37.802 119.916 37.634C119.856 37.466 119.85 36.986 119.898 36.194C119.91 35.966 119.934 35.486 119.97 34.754C120.018 34.022 120.048 33.506 120.06 33.206C120.108 32.162 120.156 31.592 120.204 31.496ZM116.154 38.822C116.262 38.63 116.418 38.552 116.622 38.588C116.706 38.6 116.766 38.618 116.802 38.642C116.838 38.654 116.868 38.708 116.892 38.804C116.916 38.9 116.928 39.014 116.928 39.146C116.928 39.266 116.928 39.476 116.928 39.776C116.928 40.448 116.976 40.868 117.072 41.036C117.168 41.204 117.366 41.228 117.666 41.108C117.93 40.988 118.158 40.94 118.35 40.964C118.566 40.964 119.016 40.898 119.7 40.766C120.252 40.658 120.624 40.628 120.816 40.676C121.008 40.712 121.104 40.844 121.104 41.072C121.104 41.468 120.834 41.666 120.294 41.666C120.03 41.666 119.376 41.762 118.332 41.954C117.468 42.134 116.898 42.194 116.622 42.134C116.358 42.086 116.178 41.882 116.082 41.522C116.01 41.15 115.98 40.646 115.992 40.01C116.016 39.374 116.07 38.978 116.154 38.822ZM134 32.576C134.096 32.516 134.204 32.516 134.324 32.576C134.444 32.636 134.534 32.732 134.594 32.864C134.654 33.044 134.636 33.404 134.54 33.944C134.144 36.2 133.94 37.904 133.928 39.056C133.928 39.452 133.922 39.722 133.91 39.866C133.898 40.01 133.868 40.118 133.82 40.19C133.772 40.25 133.688 40.31 133.568 40.37C133.412 40.442 133.298 40.472 133.226 40.46C133.154 40.448 133.088 40.388 133.028 40.28C132.98 40.172 132.956 39.992 132.956 39.74C132.956 39.488 132.962 39.158 132.974 38.75C132.986 38.066 132.944 37.694 132.848 37.634C132.752 37.574 132.386 37.634 131.75 37.814C131.27 37.97 130.88 38.03 130.58 37.994C130.292 37.958 130.148 37.838 130.148 37.634C130.148 37.526 130.262 37.4 130.49 37.256C130.73 37.1 131.012 36.974 131.336 36.878C131.672 36.77 131.966 36.71 132.218 36.698C132.422 36.698 132.674 36.632 132.974 36.5C133.13 36.416 133.232 36.332 133.28 36.248C133.34 36.152 133.364 36.026 133.352 35.87C133.34 35.678 133.31 35.558 133.262 35.51C133.214 35.462 133.1 35.438 132.92 35.438C132.632 35.438 132.242 35.516 131.75 35.672C131.354 35.78 131.03 35.81 130.778 35.762C130.538 35.702 130.418 35.57 130.418 35.366C130.418 35.186 130.67 34.994 131.174 34.79C131.678 34.574 132.152 34.46 132.596 34.448C133.064 34.448 133.364 34.4 133.496 34.304C133.628 34.196 133.67 33.98 133.622 33.656C133.586 33.452 133.604 33.248 133.676 33.044C133.76 32.828 133.868 32.672 134 32.576ZM136.448 32.918C136.472 32.822 136.568 32.768 136.736 32.756C136.904 32.744 137.054 32.786 137.186 32.882C137.294 32.954 137.33 33.212 137.294 33.656C137.27 34.088 137.144 35.24 136.916 37.112C136.724 38.6 136.646 39.452 136.682 39.668C136.706 39.896 136.586 40.088 136.322 40.244C136.154 40.328 136.04 40.37 135.98 40.37C135.92 40.37 135.854 40.328 135.782 40.244C135.602 39.98 135.68 38.906 136.016 37.022C136.136 36.326 136.232 35.474 136.304 34.466C136.364 33.53 136.412 33.014 136.448 32.918ZM127.232 33.476C127.844 33.38 128.222 33.338 128.366 33.35C128.522 33.35 128.66 33.41 128.78 33.53C128.912 33.662 128.978 33.89 128.978 34.214C128.99 34.526 128.93 35.03 128.798 35.726C128.642 36.614 128.522 37.37 128.438 37.994C128.318 38.834 128.216 39.254 128.132 39.254C128.096 39.254 127.988 39.284 127.808 39.344C127.664 39.392 127.544 39.29 127.448 39.038C127.376 38.87 127.352 38.624 127.376 38.3C127.412 37.964 127.532 37.268 127.736 36.212C127.808 35.792 127.868 35.438 127.916 35.15C127.964 34.862 127.988 34.652 127.988 34.52C128 34.376 127.988 34.304 127.952 34.304C127.94 34.304 127.868 34.316 127.736 34.34C127.616 34.352 127.418 34.382 127.142 34.43C126.878 34.478 126.638 34.52 126.422 34.556C125.33 34.76 124.676 34.874 124.46 34.898C124.256 34.922 124.088 34.886 123.956 34.79C123.86 34.706 123.812 34.646 123.812 34.61C123.824 34.562 123.89 34.472 124.01 34.34C124.31 34.052 125.384 33.764 127.232 33.476Z" fill="#EB8888"/>
</g>
<defs>
<filter id="filter0_d_2_1621" x="0" y="0" width="205" height="84.1865" filterUnits="userSpaceOnUse" color-interpolation-filters="sRGB">
<feFlood flood-opacity="0" result="BackgroundImageFix"/>
<feColorMatrix in="SourceAlpha" type="matrix" values="0 0 0 0 0 0 0 0 0 0 0 0 0 0 0 0 0 0 127 0" result="hardAlpha"/>
<feOffset dy="2"/>
<feGaussianBlur stdDeviation="3.5"/>
<feComposite in2="hardAlpha" operator="out"/>
<feColorMatrix type="matrix" values="0 0 0 0 0.475 0 0 0 0 0.475 0 0 0 0 0.475 0 0 0 0.1 0"/>
<feBlend mode="normal" in2="BackgroundImageFix" result="effect1_dropShadow_2_1621"/>
<feBlend mode="normal" in="SourceGraphic" in2="effect1_dropShadow_2_1621" result="shape"/>
</filter>
</defs>
</svg>
