<svg width="112" height="111" viewBox="0 0 125 134" fill="none" xmlns="http://www.w3.org/2000/svg">
<g clip-path="url(#clip0_2_768)">
<path d="M55.703 58.9363C55.3239 61.3172 55.3916 63.7575 55.7246 66.1412C56.0604 68.5356 56.7914 70.8411 57.2408 73.2112C57.6848 75.5545 57.8581 77.9489 57.766 80.3326C57.674 82.7054 57.3058 85.0541 56.702 87.3514C56.0983 89.6407 55.2833 91.8869 54.823 94.2112C54.7662 94.4997 54.7337 94.7936 54.6958 95.0848C54.6633 95.3275 55.0667 95.3761 55.1236 95.1415C55.3997 93.9901 55.684 92.8387 56.0062 91.7008C56.3311 90.5602 56.6804 89.425 56.9998 88.2844C57.6415 85.9951 58.0855 83.6681 58.248 81.2952C58.4104 78.9115 58.3048 76.5171 57.942 74.155C57.5765 71.774 56.8428 69.4713 56.4096 67.1038C55.9764 64.7282 55.8492 62.2933 55.9629 59.8827C55.9764 59.5807 55.9845 59.2814 56.0008 58.9794C56.0089 58.8095 55.7273 58.7664 55.7003 58.9389L55.703 58.9363Z" fill="#898074"/>
<path d="M93.4312 93.556C93.5124 94.9123 93.4799 96.2848 93.4501 97.6411C93.4204 99.019 93.3364 100.392 93.1984 101.761C93.0603 103.12 92.868 104.474 92.6162 105.817C92.3645 107.165 92.0098 108.494 91.7796 109.845C91.5549 111.161 91.5089 112.461 91.7417 113.779C91.9638 115.041 92.3699 116.26 92.6542 117.509C92.7976 118.14 92.9087 118.776 92.9439 119.423C92.979 120.094 92.9384 120.771 92.8599 121.437C92.7002 122.772 92.3915 124.083 92.2155 125.415C91.8798 127.963 92.1424 130.643 93.0873 133.043C93.2011 133.334 93.3446 133.617 93.4826 133.898C93.5882 134.111 93.9564 133.96 93.8725 133.736C93.4177 132.539 93.0386 131.304 92.8247 130.042C92.6108 128.777 92.5594 127.483 92.665 126.205C92.776 124.881 93.0765 123.581 93.2796 122.268C93.4826 120.955 93.5666 119.652 93.3581 118.334C93.1577 117.069 92.757 115.848 92.4592 114.602C92.1506 113.313 92.0314 112.037 92.1885 110.719C92.3482 109.371 92.711 108.052 92.9818 106.725C93.2498 105.404 93.4637 104.072 93.618 102.732C93.9294 100.027 94.0187 97.2798 93.7669 94.5672C93.7344 94.2301 93.6938 93.8931 93.664 93.556C93.6505 93.4104 93.4258 93.4077 93.4339 93.556H93.4312Z" fill="#898074"/>
<path d="M78.1883 53.5488C78.1341 52.9502 77.8905 52.357 77.5331 51.877C77.1568 51.3727 76.6802 51.0006 76.1117 50.7337C75.9871 50.6744 75.8464 50.615 75.757 50.5099C75.646 50.3778 75.6108 50.1944 75.5648 50.0326C75.4565 49.6416 75.3509 49.2533 75.2426 48.8624C74.3789 45.7345 73.4773 42.6147 72.5893 39.4922C72.0884 37.7314 71.5767 35.9733 71.0542 34.2179C71.0081 34.0669 70.778 34.129 70.8186 34.2827C70.8376 34.3582 70.8565 34.431 70.8782 34.5038L70.0903 37.8447C70.0714 37.8393 70.0524 37.8339 70.0308 37.8339C69.9008 37.8339 69.7546 37.9525 69.7708 38.0927C69.8521 38.8127 70.0633 39.4976 70.2853 40.1852C70.5046 40.8674 70.7374 41.5442 70.9838 42.2183C71.4576 43.5261 71.9693 44.8204 72.4539 46.1228C72.9386 47.4332 73.3934 48.7572 73.7562 50.1081C73.8401 50.4236 73.9268 50.7013 73.962 51.0168C73.9972 51.3269 74.0297 51.6397 74.0649 51.9498C74.1325 52.5511 74.1975 53.1497 74.2652 53.751C74.2814 53.8912 74.3654 53.9883 74.5143 53.9991C74.5657 54.0018 74.6063 54.0341 74.647 54.0962C74.7038 54.1771 74.739 54.2714 74.7742 54.3631C74.869 54.6031 74.9529 54.8593 75.1343 55.0507C75.3726 55.2988 75.7299 55.3284 76.0277 55.1747C76.2741 55.0453 76.4203 54.8188 76.5205 54.5734C76.7154 54.6921 76.9429 54.7487 77.1703 54.6786C77.3409 54.6247 77.4816 54.506 77.5656 54.355C77.6387 54.3631 77.7145 54.355 77.793 54.3308C78.1206 54.2256 78.2235 53.8616 78.1937 53.5515L78.1883 53.5488Z" fill="#89BDC9"/>
<path d="M78.1883 53.5488C78.1341 52.9502 77.8905 52.357 77.5331 51.877C77.1568 51.3727 76.6802 51.0006 76.1117 50.7337C75.9871 50.6744 75.8464 50.615 75.757 50.5099C75.646 50.3778 75.6108 50.1944 75.5648 50.0326C75.4565 49.6416 75.3509 49.2533 75.2426 48.8624C74.3789 45.7345 73.4773 42.6147 72.5893 39.4922C72.0884 37.7314 71.5767 35.9733 71.0542 34.2179C71.0081 34.0669 70.778 34.129 70.8186 34.2827C70.8376 34.3582 70.8565 34.431 70.8782 34.5038L70.0903 37.8447C70.0714 37.8393 70.0524 37.8339 70.0308 37.8339C69.9008 37.8339 69.7546 37.9525 69.7708 38.0927C69.8521 38.8127 70.0633 39.4976 70.2853 40.1852C70.5046 40.8674 70.7374 41.5442 70.9838 42.2183C71.4576 43.5261 71.9693 44.8204 72.4539 46.1228C72.9386 47.4332 73.3934 48.7572 73.7562 50.1081C73.8401 50.4236 73.9268 50.7013 73.962 51.0168C73.9972 51.3269 74.0297 51.6397 74.0649 51.9498C74.1325 52.5511 74.1975 53.1497 74.2652 53.751C74.2814 53.8912 74.3654 53.9883 74.5143 53.9991C74.5657 54.0018 74.6063 54.0341 74.647 54.0962C74.7038 54.1771 74.739 54.2714 74.7742 54.3631C74.869 54.6031 74.9529 54.8593 75.1343 55.0507C75.3726 55.2988 75.7299 55.3284 76.0277 55.1747C76.2741 55.0453 76.4203 54.8188 76.5205 54.5734C76.7154 54.6921 76.9429 54.7487 77.1703 54.6786C77.3409 54.6247 77.4816 54.506 77.5656 54.355C77.6387 54.3631 77.7145 54.355 77.793 54.3308C78.1206 54.2256 78.2235 53.8616 78.1937 53.5515L78.1883 53.5488Z" fill="url(#paint0_radial_2_768)"/>
<path d="M37.157 22.847L37.1001 21.5635C37.0784 21.0673 37.0893 20.5577 37.0324 20.0642C37.0108 19.8809 36.8456 19.7946 36.7102 19.6921C36.4503 19.4953 36.1904 19.2957 35.9305 19.0989C35.4188 18.7133 34.9044 18.3304 34.3818 17.9556C33.3909 17.2437 32.3404 16.6155 31.3522 15.9036C30.8811 15.5666 30.429 15.1998 30.0364 14.7711C29.6384 14.3343 29.2973 13.8516 28.9832 13.3501C28.3063 12.2715 27.6999 11.1471 27.0771 10.0388C26.4301 8.88746 25.783 7.73607 25.1386 6.58469C24.8381 6.0481 24.5484 5.54656 24.4807 4.92637C24.4482 4.62707 24.4266 4.33046 24.3508 4.03655C24.2749 3.75072 24.1639 3.47838 24.0313 3.21143C23.7524 2.65057 23.4248 2.11128 23.1189 1.5666C22.9618 1.28617 22.8021 1.00574 22.6451 0.725307C22.5151 0.496109 22.3906 0.248036 22.1604 0.102428C21.9655 -0.0216087 21.7083 -0.0485732 21.5025 0.0619812C21.2426 0.1995 21.1993 0.493413 21.2507 0.757665C21.359 1.30504 21.5377 1.84973 21.7678 2.35936C21.2534 2.54002 20.8392 3.04695 20.5576 3.48917C20.4385 3.67522 20.314 3.87206 20.2842 4.09587C20.249 4.35203 20.3546 4.6028 20.4547 4.83469C20.6172 5.2095 20.8284 5.57352 21.1343 5.85126C21.2859 5.98877 21.47 6.08854 21.6704 6.13708C21.887 6.19101 22.0819 6.15326 22.2985 6.11012C22.5097 6.06697 22.5909 6.17483 22.6965 6.3474C22.8373 6.5766 22.9564 6.82198 23.0837 7.05926C23.5818 7.98684 24.0611 8.92521 24.524 9.86896C24.9978 10.8343 25.4527 11.8077 25.8913 12.7892C26.0998 13.2584 26.3001 13.7276 26.5059 14.1995C26.6873 14.6174 26.8876 15.0381 27.1746 15.3967C27.4129 15.6933 27.7134 15.9441 27.9977 16.1975C28.3009 16.4699 28.6014 16.7449 28.9047 17.0172C29.6546 17.6914 30.4317 18.3358 31.225 18.9614C33.0254 20.3824 34.9017 21.7037 36.7157 23.1058C36.9241 23.2649 37.1759 23.0789 37.1651 22.847H37.157Z" fill="#89BDC9"/>
<path d="M37.157 22.847L37.1001 21.5635C37.0784 21.0673 37.0893 20.5577 37.0324 20.0642C37.0108 19.8809 36.8456 19.7946 36.7102 19.6921C36.4503 19.4953 36.1904 19.2957 35.9305 19.0989C35.4188 18.7133 34.9044 18.3304 34.3818 17.9556C33.3909 17.2437 32.3404 16.6155 31.3522 15.9036C30.8811 15.5666 30.429 15.1998 30.0364 14.7711C29.6384 14.3343 29.2973 13.8516 28.9832 13.3501C28.3063 12.2715 27.6999 11.1471 27.0771 10.0388C26.4301 8.88746 25.783 7.73607 25.1386 6.58469C24.8381 6.0481 24.5484 5.54656 24.4807 4.92637C24.4482 4.62707 24.4266 4.33046 24.3508 4.03655C24.2749 3.75072 24.1639 3.47838 24.0313 3.21143C23.7524 2.65057 23.4248 2.11128 23.1189 1.5666C22.9618 1.28617 22.8021 1.00574 22.6451 0.725307C22.5151 0.496109 22.3906 0.248036 22.1604 0.102428C21.9655 -0.0216087 21.7083 -0.0485732 21.5025 0.0619812C21.2426 0.1995 21.1993 0.493413 21.2507 0.757665C21.359 1.30504 21.5377 1.84973 21.7678 2.35936C21.2534 2.54002 20.8392 3.04695 20.5576 3.48917C20.4385 3.67522 20.314 3.87206 20.2842 4.09587C20.249 4.35203 20.3546 4.6028 20.4547 4.83469C20.6172 5.2095 20.8284 5.57352 21.1343 5.85126C21.2859 5.98877 21.47 6.08854 21.6704 6.13708C21.887 6.19101 22.0819 6.15326 22.2985 6.11012C22.5097 6.06697 22.5909 6.17483 22.6965 6.3474C22.8373 6.5766 22.9564 6.82198 23.0837 7.05926C23.5818 7.98684 24.0611 8.92521 24.524 9.86896C24.9978 10.8343 25.4527 11.8077 25.8913 12.7892C26.0998 13.2584 26.3001 13.7276 26.5059 14.1995C26.6873 14.6174 26.8876 15.0381 27.1746 15.3967C27.4129 15.6933 27.7134 15.9441 27.9977 16.1975C28.3009 16.4699 28.6014 16.7449 28.9047 17.0172C29.6546 17.6914 30.4317 18.3358 31.225 18.9614C33.0254 20.3824 34.9017 21.7037 36.7157 23.1058C36.9241 23.2649 37.1759 23.0789 37.1651 22.847H37.157Z" fill="url(#paint1_radial_2_768)"/>
<path d="M74.6578 15.7985C73.3934 11.4518 70.7266 7.4422 67.0878 4.7134C65.1709 3.27619 63.0131 2.25154 60.6928 1.65293C57.942 0.943763 55.0071 0.744226 52.1752 0.803548C49.484 0.860174 46.8171 1.35632 44.3777 2.51849C42.0737 3.61594 40.0296 5.17719 38.2318 6.97302C34.704 10.4946 32.2592 15.0003 31.0327 19.8081C29.8198 24.5646 29.9254 29.5989 31.2277 34.3258C32.5381 39.085 34.9802 43.5072 38.3482 47.1339C40.1947 49.1212 42.2659 50.8874 44.4319 52.5214C46.6276 54.1743 48.8964 55.803 51.3629 57.0353C52.343 57.526 53.3583 57.9197 54.4061 58.2325L53.2879 61.4062L58.7326 60.8885L56.8455 58.0384C60.8715 54.6435 64.05 50.3211 67.1175 46.0553C70.2771 41.6655 72.9792 36.8551 74.4412 31.6293C75.8842 26.471 76.1658 20.9784 74.6578 15.7985Z" fill="#89BDC9"/>
<path d="M79.0601 63.8277C77.1161 62.9055 75.202 61.897 73.4665 60.6189C73.0144 60.2872 72.5812 59.9313 72.1615 59.5619C72.5189 58.8527 72.8709 58.1435 73.2662 57.4533C73.6046 56.8627 73.9484 56.2749 74.2923 55.6844C74.471 55.3743 74.6497 55.0669 74.8311 54.7568C74.9204 54.6031 75.0098 54.4467 75.0991 54.293C75.1451 54.2148 75.1884 54.1366 75.2345 54.0611C75.248 54.0395 75.2615 54.018 75.2751 53.9964C75.294 53.9802 75.3022 53.9721 75.3049 53.9667C75.6135 53.9209 75.6081 53.4301 75.2805 53.449C75.156 53.4544 75.0585 53.5003 74.9773 53.565L74.4656 53.3196C74.5305 53.1902 74.3545 53.0607 74.249 53.1659C73.7562 53.6486 73.3501 54.2202 72.9142 54.7568C72.4864 55.2799 72.0586 55.8057 71.6309 56.3288C71.2193 56.8277 70.8159 57.3319 70.4315 57.8523C70.2419 58.1085 70.0605 58.3673 69.8846 58.6343C69.7194 58.8878 69.4947 59.1628 69.4297 59.4648C69.362 59.783 69.5245 60.0688 69.6788 60.3358C69.8169 60.5757 69.9712 60.8049 70.1363 61.0233C70.4829 61.4817 70.8782 61.9024 71.306 62.288C72.1642 63.0592 73.1497 63.6497 74.073 64.3346C75.1505 65.1354 76.1848 65.9929 77.3679 66.64C77.4871 66.7048 77.6603 66.6751 77.728 66.5457C78.1531 65.7286 78.6296 64.9386 79.1576 64.1836C79.2334 64.073 79.1846 63.8816 79.0628 63.825L79.0601 63.8277Z" fill="#FC8230"/>
<path d="M79.0601 63.8277C77.1161 62.9055 75.202 61.897 73.4665 60.6189C73.0144 60.2872 72.5812 59.9313 72.1615 59.5619C72.5189 58.8527 72.8709 58.1435 73.2662 57.4533C73.6046 56.8627 73.9484 56.2749 74.2923 55.6844C74.471 55.3743 74.6497 55.0669 74.8311 54.7568C74.9204 54.6031 75.0098 54.4467 75.0991 54.293C75.1451 54.2148 75.1884 54.1366 75.2345 54.0611C75.248 54.0395 75.2615 54.018 75.2751 53.9964C75.294 53.9802 75.3022 53.9721 75.3049 53.9667C75.6135 53.9209 75.6081 53.4301 75.2805 53.449C75.156 53.4544 75.0585 53.5003 74.9773 53.565L74.4656 53.3196C74.5305 53.1902 74.3545 53.0607 74.249 53.1659C73.7562 53.6486 73.3501 54.2202 72.9142 54.7568C72.4864 55.2799 72.0586 55.8057 71.6309 56.3288C71.2193 56.8277 70.8159 57.3319 70.4315 57.8523C70.2419 58.1085 70.0605 58.3673 69.8846 58.6343C69.7194 58.8878 69.4947 59.1628 69.4297 59.4648C69.362 59.783 69.5245 60.0688 69.6788 60.3358C69.8169 60.5757 69.9712 60.8049 70.1363 61.0233C70.4829 61.4817 70.8782 61.9024 71.306 62.288C72.1642 63.0592 73.1497 63.6497 74.073 64.3346C75.1505 65.1354 76.1848 65.9929 77.3679 66.64C77.4871 66.7048 77.6603 66.6751 77.728 66.5457C78.1531 65.7286 78.6296 64.9386 79.1576 64.1836C79.2334 64.073 79.1846 63.8816 79.0628 63.825L79.0601 63.8277Z" fill="url(#paint2_radial_2_768)"/>
<path d="M118.673 92.4234C118.578 91.8275 118.28 91.2505 117.89 90.7921C117.492 90.3229 116.986 89.9912 116.42 89.7647C116.285 89.7108 116.136 89.6542 116.044 89.5355C115.941 89.4061 115.898 89.2281 115.846 89.0771C115.716 88.6915 115.584 88.3032 115.454 87.9177C114.417 84.8491 113.339 81.794 112.278 78.7336C111.679 77.0078 111.076 75.2821 110.442 73.5672C110.393 73.4323 110.16 73.5105 110.204 73.6481C110.228 73.7289 110.255 73.8125 110.282 73.8934L109.692 77.2451C109.524 77.2262 109.335 77.3503 109.373 77.566C109.494 78.2779 109.754 78.9547 110.012 79.6261C110.266 80.284 110.531 80.9366 110.81 81.5837C111.357 82.8591 111.939 84.1211 112.497 85.3938C113.055 86.6692 113.585 87.9608 114.024 89.2821C114.127 89.5948 114.235 89.8995 114.289 90.2204C114.3 90.2771 114.308 90.3337 114.319 90.3903C114.067 90.7462 113.813 91.1183 113.764 91.5525C113.732 91.8383 113.778 92.1403 113.794 92.4288C113.81 92.7173 113.824 93.0059 113.813 93.2917C113.805 93.5344 113.723 93.8229 113.818 94.0575C113.91 94.2867 114.149 94.408 114.392 94.3676C114.893 94.284 115.034 93.6557 115.134 93.227C115.134 93.227 115.137 93.2297 115.139 93.2324C115.204 93.3106 115.248 93.413 115.294 93.5101C115.397 93.7339 115.494 93.9739 115.673 94.1492C115.914 94.381 116.263 94.4323 116.561 94.2732C116.826 94.1303 116.972 93.8876 117.07 93.6206C117.281 93.7285 117.519 93.769 117.752 93.6719C117.915 93.6018 118.034 93.4831 118.101 93.3402C118.191 93.3402 118.28 93.324 118.361 93.2863C118.686 93.1353 118.732 92.7443 118.681 92.4288L118.673 92.4234Z" fill="#FC8230"/>
<path d="M118.673 92.4234C118.578 91.8275 118.28 91.2505 117.89 90.7921C117.492 90.3229 116.986 89.9912 116.42 89.7647C116.285 89.7108 116.136 89.6542 116.044 89.5355C115.941 89.4061 115.898 89.2281 115.846 89.0771C115.716 88.6915 115.584 88.3032 115.454 87.9177C114.417 84.8491 113.339 81.794 112.278 78.7336C111.679 77.0078 111.076 75.2821 110.442 73.5672C110.393 73.4323 110.16 73.5105 110.204 73.6481C110.228 73.7289 110.255 73.8125 110.282 73.8934L109.692 77.2451C109.524 77.2262 109.335 77.3503 109.373 77.566C109.494 78.2779 109.754 78.9547 110.012 79.6261C110.266 80.284 110.531 80.9366 110.81 81.5837C111.357 82.8591 111.939 84.1211 112.497 85.3938C113.055 86.6692 113.585 87.9608 114.024 89.2821C114.127 89.5948 114.235 89.8995 114.289 90.2204C114.3 90.2771 114.308 90.3337 114.319 90.3903C114.067 90.7462 113.813 91.1183 113.764 91.5525C113.732 91.8383 113.778 92.1403 113.794 92.4288C113.81 92.7173 113.824 93.0059 113.813 93.2917C113.805 93.5344 113.723 93.8229 113.818 94.0575C113.91 94.2867 114.149 94.408 114.392 94.3676C114.893 94.284 115.034 93.6557 115.134 93.227C115.134 93.227 115.137 93.2297 115.139 93.2324C115.204 93.3106 115.248 93.413 115.294 93.5101C115.397 93.7339 115.494 93.9739 115.673 94.1492C115.914 94.381 116.263 94.4323 116.561 94.2732C116.826 94.1303 116.972 93.8876 117.07 93.6206C117.281 93.7285 117.519 93.769 117.752 93.6719C117.915 93.6018 118.034 93.4831 118.101 93.3402C118.191 93.3402 118.28 93.324 118.361 93.2863C118.686 93.1353 118.732 92.7443 118.681 92.4288L118.673 92.4234Z" fill="url(#paint3_radial_2_768)"/>
<path d="M115.635 62.8758C115.129 59.0064 113.382 55.2421 110.64 52.4432C109.197 50.9683 107.491 49.8142 105.593 49.0025C103.343 48.0399 100.869 47.4871 98.4454 47.169C96.1468 46.867 93.8048 46.9425 91.5766 47.6139C89.4702 48.2502 87.5236 49.3126 85.7556 50.6096C82.2874 53.1524 79.6097 56.6712 77.9338 60.6108C76.2741 64.5071 75.7029 68.8107 76.1929 73.009C76.6857 77.2344 78.1856 81.3222 80.579 84.8518C81.8921 86.7879 83.4245 88.5621 85.0571 90.2339C86.7113 91.93 88.4305 93.6099 90.3718 94.9824C91.1434 95.5271 91.9556 95.9962 92.8085 96.398L91.4385 98.9569L96.1468 99.2266L94.9122 96.5517C98.7892 94.1842 102.065 90.9134 105.238 87.6804C108.506 84.353 111.441 80.6049 113.374 76.3418C115.28 72.1327 116.244 67.4894 115.64 62.8812L115.635 62.8758Z" fill="#FC8230"/>
<path d="M46.9361 20.5091C48.7274 20.4365 50.1193 18.9012 50.0449 17.0799C49.9705 15.2586 48.458 13.841 46.6666 13.9136C44.8752 13.9862 43.4834 15.5215 43.5578 17.3428C43.6322 19.164 45.1447 20.5816 46.9361 20.5091Z" fill="white"/>
<path d="M49.8386 16.656C49.8684 18.3736 48.5228 19.7892 46.8334 19.8162C45.1439 19.8432 43.7523 18.4734 43.7225 16.7557C43.6927 15.0381 45.0383 13.6224 46.7278 13.5955C48.4172 13.5685 49.8088 14.9383 49.8386 16.656Z" fill="#403E3D"/>
<path d="M56.6255 20.3075C58.4169 20.2352 59.809 18.7002 59.735 16.8789C59.6609 15.0576 58.1486 13.6397 56.3572 13.712C54.5659 13.7843 53.1737 15.3193 53.2478 17.1406C53.3219 18.9619 54.8342 20.3798 56.6255 20.3075Z" fill="white"/>
<path d="M59.515 16.4807C59.5448 18.1983 58.1992 19.6139 56.5098 19.6409C54.8203 19.6679 53.4287 18.2981 53.3989 16.5804C53.3691 14.8628 54.7147 13.4472 56.4042 13.4202C58.0936 13.3932 59.4853 14.763 59.515 16.4807Z" fill="#403E3D"/>
<path d="M50.3964 22.6178C50.4641 23.5616 51.0732 24.2869 51.7609 24.2384C52.4486 24.1899 52.9522 23.3863 52.8845 22.4426C52.8168 21.4988 52.2076 20.7735 51.52 20.822C50.8323 20.8705 50.3287 21.6741 50.3964 22.6178Z" stroke="#403E3D" stroke-width="2" stroke-linecap="round" stroke-linejoin="round"/>
<path d="M92.2616 59.9851C92.0964 61.6839 90.61 62.9323 88.9395 62.7706C87.2691 62.6088 86.048 61.0988 86.2104 59.4C86.3756 57.7012 87.862 56.4528 89.5325 56.6146C91.203 56.7764 92.424 58.2864 92.2616 59.9851Z" fill="white"/>
<path d="M91.9314 59.3299C91.7771 60.9316 90.3746 62.1073 88.7989 61.9536C87.2232 61.7999 86.0725 60.3789 86.2295 58.7772C86.3839 57.1755 87.7863 55.9998 89.362 56.1535C90.9378 56.3072 92.0884 57.7282 91.9314 59.3299Z" fill="#403E3D"/>
<path d="M101.302 60.8184C101.137 62.5171 99.6502 63.7656 97.9797 63.6038C96.3092 63.442 95.0882 61.932 95.2506 60.2333C95.4158 58.5345 96.9021 57.286 98.5726 57.4478C100.243 57.6096 101.464 59.1196 101.302 60.8184Z" fill="white"/>
<path d="M100.863 60.1766C100.709 61.7783 99.3063 62.954 97.7306 62.8003C96.1549 62.6466 95.0042 61.2255 95.1613 59.6238C95.3156 58.0222 96.718 56.8465 98.2938 57.0002C99.8695 57.1539 101.02 58.5749 100.863 60.1766Z" fill="#403E3D"/>
<path d="M90.3474 64.4343C90.3474 64.4343 92.6704 68.8996 95.7596 64.828" stroke="#403E3D" stroke-width="2" stroke-linecap="round" stroke-linejoin="round"/>
<path d="M73.231 52.605C73.0089 52.5295 72.9521 52.2194 73.0631 52.0144C73.1741 51.8095 73.3961 51.6936 73.61 51.6019C73.9647 51.4509 74.3356 51.3403 74.7146 51.2702C74.9691 51.2217 75.2588 51.2001 75.4673 51.3511C75.6758 51.5021 75.6947 51.8985 75.4456 51.9821C75.6487 51.8446 75.9655 51.9228 76.0792 52.1412C76.1929 52.3596 76.0792 52.6616 75.849 52.7506C76.0223 52.6697 76.247 52.8018 76.2931 52.9852C76.3391 53.1712 76.2254 53.3735 76.0548 53.4624C76.2958 53.3708 76.534 53.6809 76.4718 53.9316C76.4095 54.1797 76.1739 54.3442 75.9438 54.4628C75.6514 54.6138 75.3401 54.7298 75.0233 54.8215C74.8013 54.8862 74.5549 54.9374 74.3464 54.8376C74.1379 54.7406 74.0242 54.4278 74.1948 54.2741C73.7806 54.2795 73.4448 53.7995 73.5938 53.4139C73.388 53.5406 73.0983 53.3411 73.0685 53.1038C73.0387 52.8638 73.1958 52.6373 73.3853 52.489" fill="#FC8230"/>
<path d="M73.2987 52.489C73.0523 52.3731 73.2445 52.0387 73.3961 51.9336C73.6452 51.7583 73.9755 51.6639 74.2652 51.583C74.5414 51.5048 74.869 51.3997 75.1587 51.4428C75.2643 51.459 75.3753 51.5021 75.4132 51.61C75.4267 51.6477 75.4484 51.7691 75.3942 51.7907L75.5512 52.1601C75.6595 52.0953 75.8274 52.1088 75.8978 52.2275C75.979 52.365 75.8788 52.5187 75.7489 52.578C75.5404 52.6724 75.6893 53.0229 75.9059 52.9474C75.9871 52.9178 76.0792 52.9501 76.1009 53.0418C76.1279 53.147 76.0359 53.244 75.9574 53.2899C75.7651 53.4058 75.8897 53.7213 76.1117 53.6566C76.1902 53.635 76.2444 53.7051 76.2687 53.7725C76.3039 53.8696 76.2606 53.9586 76.1983 54.0341C76.0386 54.2282 75.7543 54.3388 75.5269 54.4305C75.2724 54.5329 74.9881 54.6462 74.7146 54.6758C74.6036 54.6893 74.4683 54.6893 74.387 54.603C74.3464 54.5599 74.3031 54.4736 74.3518 54.4251C74.4818 54.2876 74.387 54.0665 74.2002 54.0611C73.9105 54.053 73.7183 53.7348 73.8076 53.4732C73.8726 53.2818 73.6452 53.1497 73.4882 53.2279C73.3907 53.2764 73.2932 53.1335 73.2905 53.0526C73.2797 52.8854 73.4286 52.7425 73.5477 52.6427C73.767 52.4621 73.453 52.1547 73.2364 52.3326C72.9629 52.5591 72.749 52.942 72.9061 53.2953C73.0441 53.6027 73.4015 53.7564 73.7075 53.6L73.388 53.3546C73.2066 53.8885 73.6425 54.4709 74.2002 54.4844L74.0486 54.1204C73.7725 54.4197 73.9376 54.8916 74.295 55.0399C74.7498 55.2259 75.3265 54.959 75.7435 54.781C76.1117 54.6219 76.5828 54.3981 76.6721 53.964C76.7506 53.5811 76.4122 53.1524 76.0034 53.2683L76.1577 53.635C76.4095 53.484 76.5774 53.182 76.4745 52.8908C76.3797 52.6212 76.0657 52.4594 75.7949 52.5564L75.9519 52.9259C76.2823 52.7775 76.4339 52.338 76.2471 52.0225C76.0602 51.7071 75.646 51.6289 75.3455 51.8095C75.1587 51.9228 75.2832 52.2706 75.5025 52.1789C75.8707 52.0252 75.9357 51.548 75.665 51.2621C75.3238 50.8981 74.7228 51.0518 74.3058 51.1597C74.054 51.2244 73.8076 51.308 73.5667 51.4105C73.3501 51.5021 73.1335 51.6127 72.9819 51.7987C72.7274 52.1142 72.7951 52.5861 73.1958 52.7371C73.3393 52.791 73.4394 52.5564 73.3014 52.4917L73.2987 52.489Z" fill="#FC8230"/>
<path d="M76.7127 50.7229C76.5367 50.7283 76.2958 50.7876 76.2091 50.9575C76.1225 51.1274 76.2173 51.3647 76.3066 51.5211C76.3851 51.6559 76.488 51.7799 76.6098 51.877C76.6775 51.9309 76.7479 51.9822 76.8264 52.0226C76.9158 52.0684 77.016 52.1197 77.1216 52.1116C77.3815 52.0954 77.5087 51.8527 77.5087 51.6181C77.5087 51.4105 77.4465 51.211 77.3598 51.0249C77.2813 50.8577 77.1595 50.704 76.9997 50.6124C76.905 50.5557 76.7994 50.5261 76.6884 50.518C76.5286 50.5072 76.3987 50.5935 76.3499 50.7445C76.2822 50.9548 76.3608 51.1975 76.4691 51.3782C76.5719 51.5507 76.7181 51.6963 76.8914 51.7988C77.0647 51.9013 77.3138 51.7287 77.2515 51.5238C77.1432 51.1705 76.9158 50.8281 76.6071 50.6178C76.4609 50.518 76.2606 50.5503 76.1658 50.7014C76.0927 50.8146 76.1036 50.9737 76.1333 51.0977C76.1848 51.2946 76.2985 51.4995 76.4366 51.6451C76.5016 51.7152 76.5828 51.7772 76.6667 51.8177C76.7858 51.8716 76.9293 51.9201 77.0566 51.8662C77.2136 51.8015 77.2705 51.6397 77.2488 51.4806C77.2353 51.3701 77.1811 51.2703 77.1324 51.1732C77.0891 51.0869 77.043 51.0007 76.9943 50.9171C76.9429 50.8281 76.8887 50.7337 76.8156 50.6609C76.6288 50.4749 76.2985 50.4614 76.155 50.7067C76.0277 50.9252 76.1279 51.1813 76.2768 51.3593C76.3987 51.5076 76.5801 51.6047 76.7533 51.6829C76.8643 51.7314 77.0106 51.7179 77.0728 51.5993C77.127 51.4968 77.108 51.335 76.9889 51.2811C76.9374 51.2568 76.886 51.2325 76.8346 51.2056C76.8102 51.1921 76.7858 51.1759 76.7615 51.1624C76.7506 51.1571 76.7425 51.149 76.7317 51.1436C76.7236 51.1382 76.7127 51.1301 76.7046 51.1247L76.7263 51.1409C76.7046 51.1274 76.6829 51.1031 76.664 51.0842C76.6532 51.0735 76.645 51.0654 76.6342 51.0546C76.6153 51.033 76.6261 51.0249 76.6342 51.0573C76.6288 51.0357 76.6017 51.0087 76.5909 50.9872C76.5882 50.9791 76.5828 50.9629 76.5774 50.9575C76.5909 50.9872 76.5909 50.9926 76.5828 50.9683V50.9548C76.5828 50.9548 76.5774 50.944 76.5746 50.9413C76.5692 50.9144 76.5719 50.9225 76.5746 50.9602V50.9306C76.5719 50.882 76.5665 50.9737 76.5746 50.944C76.5774 50.9252 76.5936 50.9009 76.5665 50.9548C76.5882 50.9144 76.5367 50.9872 76.5584 50.9656C76.5719 50.9521 76.5205 50.9926 76.5124 50.9926C76.4636 51.006 76.4772 50.9926 76.4988 50.9953C76.4636 50.9899 76.4582 50.9899 76.4853 50.9953C76.4582 50.9818 76.4501 50.9791 76.4664 50.9872C76.5015 51.0114 76.4799 50.9818 76.4664 50.9872C76.4664 50.9872 76.488 51.0087 76.4907 51.0141C76.5313 51.0546 76.4691 50.9737 76.4988 51.0249C76.5043 51.0357 76.5124 51.0465 76.5178 51.0573C76.5557 51.1193 76.5909 51.1813 76.6261 51.2433C76.6586 51.3 76.6884 51.3593 76.7154 51.4186C76.729 51.4483 76.7506 51.4806 76.7588 51.513C76.7452 51.4644 76.7533 51.4968 76.7588 51.5076C76.7588 51.5157 76.7777 51.5858 76.7723 51.548V51.5346C76.7723 51.5615 76.7723 51.5588 76.7723 51.5238L76.7858 51.4968L76.932 51.4078C76.9916 51.4051 76.951 51.4078 76.9293 51.4051C76.9239 51.4051 76.8941 51.3943 76.8941 51.3943C76.8941 51.3943 76.9402 51.4159 76.8941 51.3943C76.8806 51.3863 76.8671 51.3809 76.8535 51.3728C76.8481 51.3701 76.8264 51.3593 76.8237 51.3512C76.8481 51.3701 76.8508 51.3728 76.8291 51.3566C76.821 51.3512 76.8156 51.3458 76.8075 51.3377C76.7858 51.3188 76.7696 51.2973 76.7506 51.2757C76.71 51.2299 76.775 51.3161 76.7425 51.2649C76.7371 51.2541 76.729 51.2433 76.7209 51.2326C76.6857 51.1759 76.6559 51.1166 76.6288 51.0546C76.6126 51.0195 76.6478 51.1085 76.6288 51.0465C76.6234 51.033 76.618 51.0195 76.6153 51.0087C76.6099 50.9899 76.6044 50.9683 76.599 50.9494C76.5936 50.9252 76.5828 50.9279 76.599 50.9548C76.599 50.9548 76.599 50.8874 76.599 50.9279V50.9413C76.6261 50.8335 76.5395 50.8631 76.3364 51.0276C76.3851 51.0519 76.3093 51.0007 76.3364 51.0249C76.3526 51.0384 76.3689 51.0519 76.3851 51.0654C76.4339 51.1085 76.4826 51.1544 76.5259 51.2056C76.534 51.2137 76.5422 51.2245 76.5503 51.2326C76.5557 51.2379 76.5963 51.2946 76.5774 51.2649C76.5557 51.2326 76.5882 51.2811 76.5909 51.2838C76.6017 51.2973 76.6126 51.3134 76.6207 51.3269C76.6559 51.3809 76.6911 51.4402 76.7181 51.4968C76.7263 51.513 76.7344 51.5292 76.7398 51.5453C76.7615 51.5912 76.7236 51.5022 76.7425 51.5534C76.7561 51.5858 76.7669 51.6208 76.7777 51.6559L77.1378 51.3809C77.1134 51.3674 77.0891 51.3512 77.0647 51.335C77.0295 51.3107 77.0647 51.3377 77.0728 51.3431C77.062 51.335 77.0512 51.3242 77.0403 51.3161C77.0214 51.3 77.0024 51.2811 76.9835 51.2622C76.9754 51.2541 76.9672 51.246 76.9591 51.2379C76.9537 51.2326 76.9077 51.1813 76.932 51.2083C76.9564 51.2352 76.9212 51.1948 76.9185 51.1921C76.9131 51.1813 76.905 51.1732 76.8995 51.1624C76.8833 51.1382 76.8698 51.1139 76.8562 51.0869C76.8508 51.0762 76.8454 51.0654 76.84 51.0546C76.821 51.0141 76.84 51.06 76.8427 51.0654C76.8264 51.0384 76.8183 50.998 76.8102 50.9683C76.8075 50.9548 76.7994 50.9359 76.7994 50.9198C76.7994 50.9737 76.7994 50.9359 76.7994 50.9252C76.7994 50.9252 76.7994 50.8604 76.7994 50.8982C76.7994 50.9386 76.8048 50.8712 76.8075 50.8739L76.729 50.9332C76.6369 50.9764 76.618 50.998 76.6694 50.9926H76.6884C76.6586 50.9872 76.6532 50.9872 76.6721 50.9926C76.6884 50.9953 76.7019 50.998 76.7181 51.0034L76.7371 51.0087C76.7615 51.0168 76.7615 51.0168 76.7317 51.0061C76.7533 51.0061 76.7777 51.033 76.7967 51.0438C76.8481 51.0735 76.7669 51.0114 76.8075 51.0519C76.8156 51.06 76.8264 51.0681 76.8346 51.0762C76.8427 51.0842 76.8508 51.095 76.8589 51.1031C76.8589 51.1031 76.8968 51.1517 76.8752 51.122C76.8535 51.0923 76.8887 51.1436 76.8887 51.1436C76.8995 51.1597 76.9077 51.1759 76.9185 51.1921C76.932 51.2164 76.9456 51.2406 76.9564 51.2649C76.9618 51.2784 76.9699 51.2919 76.9754 51.3081C76.9726 51.3 76.9591 51.2649 76.9754 51.3081C76.9997 51.3728 77.0214 51.4402 77.0349 51.5076C77.0349 51.5076 77.0457 51.5723 77.0403 51.5399C77.0349 51.5076 77.0403 51.5723 77.0403 51.5723C77.0403 51.5993 77.043 51.6262 77.0403 51.6532C77.0403 51.6559 77.0295 51.7125 77.0403 51.6802C77.0485 51.6451 77.0322 51.7044 77.0322 51.7044C77.043 51.6667 77.0403 51.6856 77.0322 51.699C77.0539 51.6748 77.0539 51.6721 77.0376 51.6883L77.0593 51.6721C77.0268 51.6963 77.0728 51.6667 77.0864 51.664C77.0972 51.664 77.154 51.6694 77.108 51.6613C77.0999 51.6613 77.062 51.6478 77.1134 51.664C77.0999 51.6586 77.0864 51.6532 77.0755 51.6451C77.0241 51.6208 76.9754 51.5912 76.9293 51.5615C76.9104 51.548 76.8833 51.5346 76.8671 51.5184C76.8968 51.5507 76.8833 51.5292 76.8725 51.5211C76.8616 51.513 76.8508 51.5022 76.84 51.4941C76.7967 51.4564 76.7588 51.4159 76.7209 51.3728C76.7127 51.3647 76.6911 51.3323 76.7181 51.3728C76.7073 51.3593 76.6992 51.3458 76.6884 51.3323C76.6721 51.3081 76.6559 51.2865 76.6423 51.2622C76.6234 51.2326 76.6071 51.2029 76.5936 51.1732C76.5882 51.1624 76.5828 51.1544 76.5801 51.1436C76.5557 51.095 76.5936 51.1867 76.5719 51.1274C76.5665 51.1139 76.5611 51.1004 76.5611 51.0896C76.5611 51.1085 76.5611 51.1058 76.5611 51.0816C76.5611 51.0896 76.5611 51.0977 76.5611 51.1031C76.5638 51.1112 76.534 51.1355 76.5611 51.1058C76.5747 51.0923 76.5882 51.0816 76.6017 51.0681C76.6315 51.0411 76.6911 51.0034 76.7425 50.9845C76.8048 50.9629 76.8454 50.909 76.8373 50.8416C76.8291 50.7795 76.775 50.7256 76.7073 50.7283L76.7127 50.7229Z" fill="#FC8230"/>
</g>
<defs>
<radialGradient id="paint0_radial_2_768" cx="0" cy="0" r="1" gradientUnits="userSpaceOnUse" gradientTransform="translate(70.223 38.0496) scale(9.7847 9.74496)">
<stop stop-color="#5C8EBD" stop-opacity="0.9"/>
<stop offset="1" stop-color="#5C8EBD" stop-opacity="0"/>
</radialGradient>
<radialGradient id="paint1_radial_2_768" cx="0" cy="0" r="1" gradientUnits="userSpaceOnUse" gradientTransform="translate(32.9983 17.1602) scale(9.84427 9.80429)">
<stop stop-color="#5C8EBD" stop-opacity="0.9"/>
<stop offset="1" stop-color="#5C8EBD" stop-opacity="0"/>
</radialGradient>
<radialGradient id="paint2_radial_2_768" cx="0" cy="0" r="1" gradientUnits="userSpaceOnUse" gradientTransform="translate(77.6008 63.949) scale(6.73341 6.70607)">
<stop stop-color="#C54C00" stop-opacity="0.9"/>
<stop offset="1" stop-color="#C54C00" stop-opacity="0"/>
</radialGradient>
<radialGradient id="paint3_radial_2_768" cx="0" cy="0" r="1" gradientUnits="userSpaceOnUse" gradientTransform="translate(110.228 79.8256) scale(8.2171 8.18372)">
<stop stop-color="#C54C00" stop-opacity="0.9"/>
<stop offset="1" stop-color="#C54C00" stop-opacity="0"/>
</radialGradient>
<clipPath id="clip0_2_768">
<rect width="125" height="134" fill="white"/>
</clipPath>
</defs>
</svg>
