<svg width="179" height="85" viewBox="0 0 179 85" fill="none" xmlns="http://www.w3.org/2000/svg">
<g filter="url(#filter0_d_2_1740)">
<rect x="7" y="5" width="165" height="60" rx="15" fill="white"/>
<path d="M154.358 74.9007C155.662 75.6796 157.324 74.7784 157.383 73.2609L158.213 51.7407C158.273 50.1917 156.624 49.1665 155.261 49.9054L135.943 60.3801C134.58 61.119 134.54 63.0602 135.87 63.8552L154.358 74.9007Z" fill="white"/>
<path d="M33.752 24.04C33.816 23.944 33.9333 23.9067 34.104 23.928C34.2747 23.9493 34.3867 24.0187 34.44 24.136C34.5147 24.2747 34.52 24.808 34.456 25.736C34.3707 26.7813 34.3173 27.848 34.296 28.936C34.2853 29.6613 34.264 30.152 34.232 30.408C34.2 30.664 34.1413 30.8133 34.056 30.856C33.9387 30.9413 33.8 30.9573 33.64 30.904C33.5333 30.8613 33.4747 30.68 33.464 30.36C33.4533 30.04 33.4693 29.1547 33.512 27.704C33.5653 26.0933 33.6027 25.1067 33.624 24.744C33.6453 24.3813 33.688 24.1467 33.752 24.04ZM28.6 24.424C29.0907 24.2853 29.6187 24.2213 30.184 24.232C30.76 24.2427 31.128 24.3227 31.288 24.472C31.3947 24.5787 31.4587 25.2613 31.48 26.52C31.512 27.768 31.48 28.44 31.384 28.536C31.32 28.6 30.712 28.7173 29.56 28.888C28.7813 28.984 28.296 29.032 28.104 29.032C27.912 29.032 27.784 28.984 27.72 28.888C27.56 28.664 27.4587 28.008 27.416 26.92C27.3733 25.8213 27.416 25.16 27.544 24.936C27.6613 24.7653 28.0133 24.5947 28.6 24.424ZM30.488 25.112C30.36 25.0693 30.264 25.048 30.2 25.048C30.1893 25.0587 30.1467 25.0693 30.072 25.08C30.008 25.0907 29.9173 25.1067 29.8 25.128C29.6827 25.1493 29.576 25.1653 29.48 25.176C28.8187 25.2827 28.4347 25.3947 28.328 25.512C28.2213 25.6293 28.168 25.9973 28.168 26.616C28.168 27.2987 28.1893 27.7093 28.232 27.848C28.2853 27.976 28.6533 28.0187 29.336 27.976C29.9973 27.944 30.3973 27.9067 30.536 27.864C30.632 27.832 30.68 27.3787 30.68 26.504C30.68 25.9707 30.664 25.6133 30.632 25.432C30.6107 25.2507 30.5627 25.144 30.488 25.112ZM37.3386 22.296C37.7013 22.2533 38.1973 22.2107 38.8266 22.168C38.9973 22.1573 39.1306 22.2373 39.2266 22.408C39.3226 22.5787 39.328 22.744 39.2426 22.904C39.2 22.9787 39.0933 23.0267 38.9226 23.048C38.752 23.0587 38.4266 23.0587 37.9466 23.048C37.168 23.016 36.6506 23.0587 36.3946 23.176C36.1386 23.2933 35.984 23.5707 35.9306 24.008C35.888 24.3813 35.8986 24.6693 35.9626 24.872C36.0266 25.0107 36.0906 25.0853 36.1546 25.096C36.2186 25.096 36.4213 25.0533 36.7626 24.968C37.2426 24.8507 37.76 24.792 38.3146 24.792C38.5813 24.792 38.7786 24.7973 38.9066 24.808C39.0453 24.8187 39.1466 24.84 39.2106 24.872C39.2746 24.904 39.3226 24.9573 39.3546 25.032C39.4933 25.2773 39.3493 25.448 38.9226 25.544C38.7093 25.5973 38.3893 25.64 37.9626 25.672C37.1626 25.7573 36.6453 25.8373 36.4106 25.912C36.24 25.9867 36.1333 26.0507 36.0906 26.104C36.048 26.1573 36.0426 26.248 36.0746 26.376C36.096 26.5253 36.128 26.616 36.1706 26.648C36.224 26.6693 36.3466 26.664 36.5386 26.632C37.7333 26.4293 38.5546 26.328 39.0026 26.328C39.4506 26.328 39.6906 26.4293 39.7226 26.632C39.7226 26.6427 39.7226 26.6533 39.7226 26.664C39.744 26.7707 39.696 26.8507 39.5786 26.904C39.408 26.968 38.5973 27.144 37.1466 27.432L37.1306 27.448H37.1146H37.0986H37.0826H37.0666L37.0506 27.464H37.0346H37.0186H37.0026H36.9866L36.9706 27.48H36.9546H36.9386H36.9226H36.9066L36.8906 27.496H36.8746C36.416 27.592 36.112 27.64 35.9626 27.64C35.824 27.64 35.7173 27.6027 35.6426 27.528C35.4293 27.3253 35.2693 26.3493 35.1626 24.6C35.1413 24.344 35.1306 24.1307 35.1306 23.96C35.1306 23.7893 35.1413 23.624 35.1626 23.464C35.184 23.2933 35.2106 23.16 35.2426 23.064C35.2746 22.968 35.3333 22.8773 35.4186 22.792C35.504 22.696 35.5946 22.6267 35.6906 22.584C35.7866 22.5413 35.92 22.4987 36.0906 22.456C36.2613 22.4133 36.4426 22.3813 36.6346 22.36C36.8266 22.3387 37.0613 22.3173 37.3386 22.296ZM40.8266 23.096C40.8693 22.9787 40.9653 22.9147 41.1146 22.904C41.264 22.8933 41.3813 22.9413 41.4666 23.048C41.52 23.1333 41.5466 23.9227 41.5466 25.416C41.5573 26.9093 41.536 27.688 41.4826 27.752C41.44 27.784 41.3066 27.7627 41.0826 27.688L40.7466 27.56V25.432C40.7466 24.024 40.7733 23.2453 40.8266 23.096ZM39.5626 28.392C39.7866 28.3707 39.9253 28.3493 39.9786 28.328C40.0213 28.3067 40.112 28.3387 40.2506 28.424C40.4 28.4987 40.5546 28.6107 40.7146 28.76C40.8746 28.8987 40.9973 29.032 41.0826 29.16C41.232 29.3627 41.328 29.5333 41.3706 29.672C41.4133 29.8107 41.4293 30.04 41.4186 30.36C41.408 30.6693 41.376 30.9093 41.3226 31.08C41.2693 31.2507 41.168 31.4373 41.0186 31.64C40.5173 32.3333 39.9253 32.6053 39.2426 32.456C38.9013 32.3813 38.5493 32.2 38.1866 31.912C37.824 31.6347 37.5733 31.336 37.4346 31.016C37.2746 30.696 37.2213 30.4027 37.2746 30.136C37.328 29.8587 37.4933 29.5653 37.7706 29.256C37.8666 29.1387 37.9573 29.0427 38.0426 28.968C38.128 28.8933 38.2186 28.8293 38.3146 28.776C38.4213 28.712 38.5333 28.6587 38.6506 28.616C38.7786 28.5627 38.912 28.52 39.0506 28.488C39.2 28.456 39.3706 28.424 39.5626 28.392ZM40.3786 29.544C40.208 29.3413 40.0426 29.224 39.8826 29.192C39.7226 29.1493 39.4933 29.1813 39.1946 29.288C38.992 29.352 38.8053 29.4427 38.6346 29.56C38.4746 29.6773 38.3466 29.8107 38.2506 29.96C38.1546 30.0987 38.1066 30.232 38.1066 30.36C38.1066 30.5627 38.2506 30.8187 38.5386 31.128C38.8266 31.4373 39.0933 31.6187 39.3386 31.672C39.5093 31.704 39.6426 31.6987 39.7386 31.656C39.8453 31.6133 39.9946 31.4907 40.1866 31.288C40.3573 31.1067 40.4693 30.9573 40.5226 30.84C40.5866 30.712 40.6186 30.5467 40.6186 30.344C40.6186 30.024 40.5386 29.7573 40.3786 29.544ZM44.429 21.976C44.5037 21.912 44.6103 21.8907 44.749 21.912C44.8983 21.9333 45.0157 21.9973 45.101 22.104C45.2183 22.2427 45.2663 22.6 45.245 23.176L45.213 24.056L46.125 23.976C46.733 23.9227 47.101 23.88 47.229 23.848C47.357 23.8053 47.4743 23.8427 47.581 23.96C47.6877 24.0773 47.7357 24.216 47.725 24.376C47.725 24.5253 47.6717 24.6587 47.565 24.776C47.4477 24.8827 47.2823 24.8827 47.069 24.776C46.9303 24.712 46.7917 24.6853 46.653 24.696C46.525 24.7067 46.3063 24.7493 45.997 24.824C45.4317 24.9733 44.925 25.0693 44.477 25.112C43.9117 25.1653 43.4477 25.256 43.085 25.384C42.829 25.48 42.669 25.528 42.605 25.528C42.541 25.528 42.4663 25.4693 42.381 25.352C42.2637 25.2027 42.205 25.096 42.205 25.032C42.205 24.776 42.653 24.568 43.549 24.408L44.509 24.248L44.429 23.144C44.3757 22.4293 44.3757 22.04 44.429 21.976ZM49.373 24.872C49.469 24.744 49.549 24.68 49.613 24.68C49.6877 24.68 49.7783 24.7387 49.885 24.856C49.9917 24.984 50.0077 25.4747 49.933 26.328L49.853 27.592L50.461 27.512C50.5357 27.5013 50.621 27.4907 50.717 27.48C50.813 27.4587 50.893 27.4427 50.957 27.432C51.0317 27.4107 51.101 27.3947 51.165 27.384C51.2397 27.3733 51.293 27.3627 51.325 27.352C51.4743 27.32 51.6237 27.3627 51.773 27.48C51.933 27.5973 52.013 27.7253 52.013 27.864C52.013 28.0667 51.7197 28.2 51.133 28.264C50.461 28.328 50.0823 28.4027 49.997 28.488C49.9117 28.552 49.869 28.7813 49.869 29.176C49.869 29.208 49.869 29.2613 49.869 29.336C49.8477 30.1787 49.821 30.6693 49.789 30.808C49.7677 30.9467 49.6823 31.0267 49.533 31.048C49.5117 31.048 49.4957 31.048 49.485 31.048C49.3357 31.0693 49.2343 31.0587 49.181 31.016C49.1383 30.9733 49.101 30.8613 49.069 30.68C49.0263 30.488 49.0103 30.088 49.021 29.48C49.0423 28.8613 49.069 28.2267 49.101 27.576C49.133 26.9147 49.1703 26.312 49.213 25.768C49.2663 25.224 49.3197 24.9253 49.373 24.872ZM45.165 25.752C45.3037 25.7093 45.4637 25.7093 45.645 25.752C45.837 25.784 45.9757 25.8 46.061 25.8C46.1677 25.8 46.4503 26.0187 46.909 26.456C47.293 26.8293 47.5383 27.176 47.645 27.496C47.7517 27.8053 47.7463 28.1573 47.629 28.552C47.501 28.9787 47.293 29.352 47.005 29.672C46.7277 29.9813 46.413 30.2 46.061 30.328C45.7197 30.4453 45.373 30.504 45.021 30.504C44.669 30.4933 44.3437 30.3813 44.045 30.168C43.7463 29.9547 43.5117 29.6613 43.341 29.288C43.1703 28.8933 43.085 28.6053 43.085 28.424C43.085 28.264 43.1543 28.0027 43.293 27.64C43.4423 27.2667 43.597 26.9787 43.757 26.776C43.8423 26.6587 43.9703 26.5307 44.141 26.392C44.3117 26.2427 44.4877 26.1093 44.669 25.992C44.861 25.8747 45.0263 25.7947 45.165 25.752ZM46.525 27.064C46.045 26.552 45.517 26.488 44.941 26.872C44.5037 27.1707 44.2157 27.5493 44.077 28.008C43.949 28.456 43.997 28.8507 44.221 29.192C44.445 29.5333 44.797 29.704 45.277 29.704C45.5757 29.704 45.8263 29.6453 46.029 29.528C46.2317 29.4 46.4237 29.192 46.605 28.904C46.797 28.584 46.8823 28.2587 46.861 27.928C46.8503 27.5867 46.7383 27.2987 46.525 27.064ZM60.7024 23.688C60.777 23.5707 60.8944 23.528 61.0544 23.56C61.225 23.5813 61.337 23.6667 61.3904 23.816C61.4544 24.008 61.4544 24.648 61.3904 25.736C61.3264 26.9307 61.2944 28.008 61.2944 28.968C61.2837 30.0133 61.2304 30.584 61.1344 30.68C61.0277 30.776 60.905 30.824 60.7664 30.824C60.6277 30.8133 60.5424 30.76 60.5104 30.664C60.4677 30.536 60.4784 29.3627 60.5424 27.144C60.6064 24.9253 60.6597 23.7733 60.7024 23.688ZM55.5664 24.36C55.8544 24.3067 56.073 24.2693 56.2224 24.248C56.3824 24.2267 56.537 24.2107 56.6864 24.2C56.8357 24.1893 56.9424 24.1893 57.0064 24.2C57.081 24.2 57.145 24.216 57.1984 24.248C57.2624 24.2693 57.305 24.3013 57.3264 24.344C57.3477 24.376 57.3744 24.4293 57.4064 24.504C57.5664 24.92 57.401 26.136 56.9104 28.152C56.7717 28.7387 56.665 29.128 56.5904 29.32C56.5157 29.5013 56.425 29.6027 56.3184 29.624C56.073 29.688 55.9237 29.64 55.8704 29.48C55.817 29.32 55.8544 29.0267 55.9824 28.6C56.1104 28.1947 56.2544 27.5227 56.4144 26.584C56.585 25.6453 56.649 25.1547 56.6064 25.112C56.5637 25.0693 56.3344 25.0853 55.9184 25.16C54.713 25.416 53.9504 25.5653 53.6304 25.608C53.321 25.64 53.081 25.624 52.9104 25.56C52.441 25.3467 52.6224 25.1013 53.4544 24.824C53.9664 24.6533 54.6704 24.4987 55.5664 24.36ZM70.9974 22.648C71.3067 22.5627 71.5307 22.5413 71.6694 22.584C71.808 22.6267 71.888 22.7387 71.9094 22.92C71.9414 23.0693 71.9307 23.1707 71.8774 23.224C71.8347 23.2773 71.7227 23.336 71.5414 23.4L71.1254 23.496V25V26.488L71.6214 26.552C71.8454 26.584 71.9894 26.6267 72.0534 26.68C72.1174 26.7227 72.16 26.8133 72.1814 26.952C72.1814 26.9627 72.1814 26.9787 72.1814 27C72.2027 27.16 72.1547 27.2613 72.0374 27.304C71.9307 27.3467 71.5414 27.416 70.8694 27.512C70.7414 27.5333 70.64 27.5493 70.5654 27.56C69.5734 27.6987 68.9707 27.7733 68.7574 27.784C68.544 27.784 68.416 27.7307 68.3734 27.624C68.32 27.4747 68.3467 27.3147 68.4534 27.144C68.5494 26.9627 68.5974 26.376 68.5974 25.384C68.5974 25.0747 68.5974 24.824 68.5974 24.632C68.5974 24.44 68.5867 24.296 68.5654 24.2C68.5547 24.0933 68.5387 24.0293 68.5174 24.008C68.496 23.976 68.464 23.96 68.4214 23.96C68.3574 23.992 68.0587 24.04 67.5254 24.104C67.12 24.1467 66.864 24.1307 66.7574 24.056C66.6614 23.9813 66.6934 23.832 66.8534 23.608C66.8534 23.608 66.8534 23.6027 66.8534 23.592C66.96 23.4213 67.0987 23.3093 67.2694 23.256C67.4507 23.2027 68.0107 23.112 68.9494 22.984C68.9707 22.984 68.9867 22.984 68.9974 22.984C69.008 22.9733 69.024 22.968 69.0454 22.968C69.0667 22.968 69.088 22.968 69.1094 22.968C70.1547 22.8187 70.784 22.712 70.9974 22.648ZM70.2134 24.92C70.2027 24.0133 70.1654 23.56 70.1014 23.56C69.9307 23.5813 69.7974 23.6293 69.7014 23.704C69.616 23.7787 69.5467 23.8907 69.4934 24.04C69.4507 24.1893 69.4134 24.4027 69.3814 24.68C69.3174 25.2347 69.3174 25.7307 69.3814 26.168C69.4347 26.488 69.4774 26.6747 69.5094 26.728C69.552 26.7813 69.6694 26.7973 69.8614 26.776C70 26.7653 70.096 26.744 70.1494 26.712C70.2134 26.6693 70.2454 26.6053 70.2454 26.52C70.2454 26.4667 70.2347 25.9333 70.2134 24.92ZM74.6134 23.304C74.6667 23.144 74.72 23.0373 74.7734 22.984C74.8267 22.9307 74.912 22.904 75.0294 22.904C75.232 22.904 75.3494 22.952 75.3814 23.048C75.4134 23.144 75.3974 23.4107 75.3334 23.848C75.28 24.1893 75.2427 24.7707 75.2214 25.592C75.2107 26.4133 75.2214 27.112 75.2534 27.688C75.264 27.8907 75.2534 28.0133 75.2214 28.056C75.1894 28.0987 75.0827 28.12 74.9014 28.12C74.7627 28.12 74.6507 28.088 74.5654 28.024C74.4907 27.9493 74.4374 27.8213 74.4054 27.64C74.3734 27.4587 74.352 27.192 74.3414 26.84C74.3307 26.5413 74.3147 26.36 74.2934 26.296C74.272 26.2213 74.2134 26.2 74.1174 26.232C73.6267 26.3707 73.2267 26.4293 72.9174 26.408C72.608 26.376 72.4534 26.264 72.4534 26.072C72.4534 25.944 72.4854 25.8427 72.5494 25.768C72.6134 25.6933 72.7147 25.6347 72.8534 25.592C73.0027 25.5387 73.2 25.5067 73.4454 25.496C74.1174 25.432 74.4534 25.24 74.4534 24.92C74.4534 24.7813 74.4214 24.6853 74.3574 24.632C74.304 24.5787 74.2347 24.584 74.1494 24.648C74.064 24.7227 73.808 24.792 73.3814 24.856C73.0294 24.8987 72.8 24.8933 72.6934 24.84C72.5867 24.776 72.5707 24.6373 72.6454 24.424C72.688 24.2853 72.7787 24.184 72.9174 24.12C73.056 24.056 73.3547 23.9707 73.8134 23.864C74.1334 23.8 74.3307 23.7413 74.4054 23.688C74.4907 23.624 74.56 23.496 74.6134 23.304ZM70.7574 29.144C70.8854 29.016 71.0347 28.9947 71.2054 29.08C71.312 29.144 71.376 29.2293 71.3974 29.336C71.4294 29.432 71.4347 29.6293 71.4134 29.928L71.3814 30.632H71.7494C71.952 30.632 72.3947 30.5947 73.0774 30.52C73.7067 30.4773 74.1227 30.44 74.3254 30.408C74.4534 30.3973 74.544 30.4133 74.5974 30.456C74.6507 30.4987 74.6827 30.5893 74.6934 30.728C74.7147 30.952 74.6187 31.1067 74.4054 31.192C74.2027 31.2773 73.696 31.368 72.8854 31.464C72.0427 31.56 71.4774 31.592 71.1894 31.56C70.9014 31.528 70.7307 31.4053 70.6774 31.192C70.592 30.8827 70.5547 30.4933 70.5654 30.024C70.5867 29.544 70.6507 29.2507 70.7574 29.144ZM78.0818 21.16C78.3484 20.904 78.5511 20.9787 78.6898 21.384C78.7644 21.6187 78.8018 21.9227 78.8018 22.296V22.936L79.3298 22.856C80.2578 22.7067 80.7804 22.6587 80.8978 22.712C80.9618 22.7333 81.0364 22.8133 81.1218 22.952C81.2818 23.1867 81.3031 23.3467 81.1858 23.432C81.0791 23.5173 80.7858 23.5707 80.3058 23.592C79.7938 23.6027 79.0311 23.72 78.0178 23.944C77.1858 24.1253 76.6471 24.2107 76.4018 24.2C76.1564 24.1787 76.0338 24.0613 76.0338 23.848C76.0338 23.7413 76.0871 23.6453 76.1938 23.56C76.3004 23.4747 76.4444 23.4053 76.6258 23.352C76.8178 23.2987 77.0364 23.272 77.2818 23.272C77.6231 23.272 77.8418 23.1973 77.9378 23.048C78.0338 22.888 78.0604 22.5733 78.0178 22.104C77.9644 21.5813 77.9858 21.2667 78.0818 21.16ZM82.6418 23.768C82.7058 23.6827 82.8231 23.656 82.9938 23.688C83.1218 23.7093 83.1964 23.7787 83.2178 23.896C83.2498 24.0133 83.2551 24.3707 83.2338 24.968L83.2018 26.216L84.0498 26.136C84.4658 26.0933 84.7164 26.0827 84.8018 26.104C84.8978 26.1147 84.9618 26.1893 84.9938 26.328C85.0471 26.5307 85.0151 26.6853 84.8978 26.792C84.7804 26.888 84.5671 26.936 84.2578 26.936C83.8951 26.936 83.6178 26.9733 83.4258 27.048C83.2871 27.1013 83.2018 27.1707 83.1698 27.256C83.1484 27.3307 83.1538 27.512 83.1858 27.8C83.2604 28.5893 83.1431 29.0267 82.8338 29.112C82.5991 29.176 82.4551 29.1067 82.4018 28.904C82.3271 28.6373 82.3378 27.784 82.4338 26.344C82.5191 24.712 82.5884 23.8533 82.6418 23.768ZM78.1138 24.616C78.3378 24.488 78.6151 24.424 78.9458 24.424C79.2764 24.424 79.5538 24.4773 79.7778 24.584C80.2258 24.8187 80.5618 25.176 80.7858 25.656C81.0098 26.136 81.0578 26.5947 80.9298 27.032C80.8444 27.32 80.6631 27.6027 80.3858 27.88C80.1191 28.1573 79.8151 28.3653 79.4738 28.504C79.2391 28.6213 78.9298 28.6853 78.5458 28.696C78.1618 28.7067 77.8631 28.664 77.6498 28.568C77.3831 28.472 77.1324 28.2853 76.8978 28.008C76.6631 27.72 76.5244 27.4427 76.4818 27.176C76.4391 26.888 76.4818 26.5787 76.6098 26.248C76.7378 25.9067 76.9351 25.5973 77.2018 25.32C77.4684 25.032 77.7724 24.7973 78.1138 24.616ZM79.8418 25.56C79.5004 25.1333 79.0471 25.0693 78.4818 25.368C78.0018 25.6133 77.6551 25.9493 77.4418 26.376C77.2284 26.8027 77.2338 27.16 77.4578 27.448C77.7564 27.832 78.1671 27.992 78.6898 27.928C79.2231 27.8533 79.6284 27.592 79.9058 27.144C80.2791 26.5573 80.2578 26.0293 79.8418 25.56ZM79.6178 29.768C79.7458 29.64 79.9004 29.6187 80.0818 29.704C80.1884 29.768 80.2524 29.848 80.2738 29.944C80.2951 30.04 80.2844 30.2533 80.2418 30.584C80.2204 30.712 80.2044 30.8347 80.1938 30.952C80.1938 31.0693 80.1938 31.16 80.1938 31.224C80.2044 31.2987 80.2151 31.336 80.2258 31.336C80.2578 31.336 80.5244 31.272 81.0258 31.144C81.5164 31.016 82.0444 30.952 82.6098 30.952C83.1858 30.952 83.4951 31.016 83.5378 31.144C83.6018 31.3253 83.5484 31.464 83.3778 31.56C83.2071 31.656 82.8924 31.7253 82.4338 31.768C81.8471 31.832 81.3244 31.9227 80.8658 32.04C80.4178 32.1573 80.0871 32.2107 79.8738 32.2C79.6711 32.2 79.5484 32.136 79.5058 32.008C79.4524 31.8587 79.4258 31.4853 79.4258 30.888C79.4258 30.2693 79.4898 29.896 79.6178 29.768ZM91.8595 22.12C92.2435 21.9813 92.6115 21.9387 92.9635 21.992C93.3262 22.0347 93.6622 22.1787 93.9715 22.424C94.2915 22.6693 94.5528 23 94.7555 23.416C94.9582 23.8107 95.0542 24.1787 95.0435 24.52C95.0435 24.8613 94.9368 25.24 94.7235 25.656C94.5528 25.9973 94.3502 26.2533 94.1155 26.424C93.8808 26.584 93.5822 26.6907 93.2195 26.744C92.6115 26.8293 92.0355 26.712 91.4915 26.392C90.9475 26.072 90.6008 25.6613 90.4515 25.16C90.2382 24.4773 90.2595 23.8693 90.5155 23.336C90.7715 22.8027 91.2195 22.3973 91.8595 22.12ZM93.1555 22.776C93.0488 22.776 92.9315 22.7547 92.8035 22.712C92.6115 22.648 92.3075 22.7653 91.8915 23.064C91.4755 23.3627 91.2248 23.6507 91.1395 23.928C91.1075 24.0347 91.1022 24.1627 91.1235 24.312C91.1448 24.4507 91.1822 24.5947 91.2355 24.744C91.2888 24.8827 91.3582 25.0213 91.4435 25.16C91.5395 25.2987 91.6408 25.416 91.7475 25.512C92.1528 25.8747 92.5635 26.04 92.9795 26.008C93.3955 25.976 93.7262 25.7573 93.9715 25.352C94.3662 24.712 94.3022 24.0453 93.7795 23.352C93.4702 22.968 93.2622 22.776 93.1555 22.776ZM93.8275 27.752C93.9128 27.5493 94.0195 27.448 94.1475 27.448C94.2862 27.4373 94.4035 27.5387 94.4995 27.752C94.5848 27.9547 94.5742 28.3067 94.4675 28.808C94.3608 29.288 94.3395 29.5813 94.4035 29.688C94.4568 29.784 94.7768 29.832 95.3635 29.832C95.7688 29.832 96.0195 29.848 96.1155 29.88C96.2222 29.9013 96.3022 29.976 96.3555 30.104C96.4302 30.328 96.4035 30.4827 96.2755 30.568C96.1582 30.6533 95.8915 30.6907 95.4755 30.68C95.1448 30.6693 94.7342 30.6907 94.2435 30.744C93.7635 30.7867 93.4222 30.8347 93.2195 30.888C93.1235 30.92 92.8782 30.968 92.4835 31.032C92.0995 31.1067 91.7208 31.176 91.3475 31.24C90.9742 31.304 90.7502 31.336 90.6755 31.336C90.5475 31.336 90.4515 31.2507 90.3875 31.08C90.3235 30.9093 90.3395 30.7653 90.4355 30.648C90.5208 30.5413 90.7288 30.4613 91.0595 30.408L91.5235 30.344V29.32C91.5342 28.7547 91.5768 28.3973 91.6515 28.248C91.7262 28.088 91.8862 28.04 92.1315 28.104C92.2808 28.1467 92.3662 28.216 92.3875 28.312C92.4195 28.3973 92.4302 28.664 92.4195 29.112L92.3875 30.008L93.0115 30.056C93.4062 30.0773 93.6035 30.056 93.6035 29.992C93.6035 29.704 93.6142 29.4 93.6355 29.08C93.6675 28.76 93.6995 28.4827 93.7315 28.248C93.7742 28.0133 93.8062 27.848 93.8275 27.752ZM98.5745 21.976C98.9158 21.848 99.2038 21.784 99.4385 21.784C99.6732 21.784 99.9772 21.8747 100.35 22.056C100.734 22.2373 101.001 22.424 101.15 22.616C101.3 22.808 101.422 23.1333 101.518 23.592C101.614 24.0507 101.641 24.424 101.598 24.712C101.534 25.032 101.348 25.3573 101.038 25.688C100.74 26.0187 100.42 26.2427 100.078 26.36C99.5238 26.5413 99.0065 26.5467 98.5265 26.376C98.0465 26.1947 97.6518 25.848 97.3425 25.336C96.9585 24.6853 96.9265 23.992 97.2465 23.256C97.3958 22.9253 97.5718 22.6587 97.7745 22.456C97.9878 22.2533 98.2545 22.0933 98.5745 21.976ZM100.606 23.336C100.489 23.0587 100.308 22.8613 100.062 22.744C99.8278 22.6267 99.5772 22.6 99.3105 22.664C99.0545 22.7173 98.8092 22.8187 98.5745 22.968C98.3398 23.1173 98.1585 23.336 98.0305 23.624C97.9132 23.9013 97.8812 24.1893 97.9345 24.488C97.9772 24.6587 98.0358 24.8187 98.1105 24.968C98.1958 25.1067 98.2972 25.2293 98.4145 25.336C98.5425 25.4427 98.6812 25.528 98.8305 25.592C98.9905 25.6453 99.1612 25.672 99.3425 25.672C99.5772 25.672 99.7532 25.6453 99.8705 25.592C99.9878 25.528 100.142 25.3947 100.334 25.192C100.814 24.68 100.905 24.0613 100.606 23.336ZM103.214 22.168C103.3 21.912 103.502 21.8427 103.822 21.96C103.94 22.0133 103.993 22.8293 103.982 24.408C103.982 25.976 103.924 26.8347 103.806 26.984C103.678 27.144 103.561 27.208 103.454 27.176C103.348 27.1333 103.273 27.0107 103.23 26.808C103.177 26.552 103.145 25.7627 103.134 24.44C103.134 23.1067 103.161 22.3493 103.214 22.168ZM100.814 27.688C101.454 27.624 101.881 27.592 102.094 27.592C102.308 27.5813 102.478 27.5973 102.606 27.64C102.798 27.7147 102.948 27.9387 103.054 28.312C103.172 28.6853 103.214 29.0747 103.182 29.48C103.161 29.8853 103.065 30.168 102.894 30.328C102.756 30.4667 102.606 30.552 102.446 30.584C102.286 30.6053 101.95 30.6 101.438 30.568C100.958 30.5573 100.644 30.5893 100.494 30.664C100.356 30.728 100.286 30.888 100.286 31.144C100.286 31.3787 100.34 31.5333 100.446 31.608C100.564 31.6933 100.724 31.688 100.926 31.592C101.097 31.496 101.545 31.4427 102.27 31.432C102.814 31.4213 103.129 31.4267 103.214 31.448C103.31 31.4693 103.358 31.56 103.358 31.72C103.358 31.8907 103.268 32.008 103.086 32.072C102.916 32.136 102.324 32.248 101.31 32.408L100.014 32.632L99.7585 32.36C99.5772 32.1893 99.4705 31.8427 99.4385 31.32C99.3958 30.7227 99.4545 30.344 99.6145 30.184C99.7852 30.024 100.217 29.9173 100.91 29.864C101.636 29.8213 102.046 29.752 102.142 29.656C102.26 29.5707 102.313 29.368 102.302 29.048C102.292 28.7173 102.222 28.5253 102.094 28.472C101.988 28.4293 101.668 28.4453 101.134 28.52C100.612 28.5947 100.153 28.6853 99.7585 28.792C99.4278 28.8773 99.2198 28.8667 99.1345 28.76C98.9318 28.504 99.0705 28.2587 99.5505 28.024C99.8812 27.8533 100.302 27.7413 100.814 27.688ZM106.212 21.192C106.862 20.8827 107.508 20.872 108.148 21.16C108.798 21.448 109.23 21.9387 109.444 22.632C109.497 22.8347 109.518 23.0107 109.508 23.16C109.497 23.3093 109.454 23.512 109.38 23.768C109.262 24.12 109.076 24.4187 108.82 24.664C108.574 24.9093 108.244 25.128 107.828 25.32C107.593 25.416 107.412 25.4693 107.284 25.48C107.156 25.4907 106.98 25.464 106.756 25.4C106.564 25.3573 106.366 25.2987 106.164 25.224C105.972 25.1387 105.801 25.0533 105.652 24.968C105.502 24.8827 105.39 24.8027 105.316 24.728C105.209 24.632 105.102 24.4987 104.996 24.328C104.889 24.1573 104.804 23.9867 104.74 23.816C104.676 23.6453 104.644 23.5067 104.644 23.4C104.644 22.9733 104.788 22.552 105.076 22.136C105.374 21.72 105.753 21.4053 106.212 21.192ZM108.196 22.072C108.004 21.8907 107.753 21.8 107.444 21.8C107.134 21.7893 106.841 21.848 106.564 21.976C106.286 22.104 106.041 22.2907 105.828 22.536C105.625 22.7707 105.524 23.0213 105.524 23.288C105.524 23.5333 105.636 23.784 105.86 24.04C106.094 24.296 106.361 24.4667 106.66 24.552C106.969 24.648 107.246 24.6533 107.492 24.568C107.737 24.472 108.02 24.2533 108.34 23.912C108.596 23.6773 108.734 23.512 108.756 23.416C108.788 23.32 108.766 23.144 108.692 22.888C108.574 22.5467 108.409 22.2747 108.196 22.072ZM109.236 26.056C109.63 25.8853 109.918 25.9333 110.1 26.2C110.185 26.328 110.228 26.4187 110.228 26.472C110.228 26.5253 110.18 26.6053 110.084 26.712C109.956 26.8613 109.625 26.936 109.092 26.936C108.537 26.936 107.838 27.0267 106.996 27.208C106.132 27.3893 105.556 27.48 105.268 27.48C105.076 27.4907 104.953 27.48 104.9 27.448C104.857 27.4053 104.836 27.3147 104.836 27.176C104.836 27.0587 104.878 26.952 104.964 26.856C105.049 26.76 105.172 26.6853 105.332 26.632C105.502 26.5787 105.689 26.552 105.892 26.552C106.18 26.552 106.537 26.4933 106.964 26.376C107.358 26.2587 107.796 26.1893 108.276 26.168C108.756 26.168 109.076 26.1307 109.236 26.056ZM107.716 28.168C108.014 28.0507 108.366 28.0293 108.772 28.104C109.188 28.168 109.454 28.296 109.572 28.488C109.636 28.584 109.662 28.8667 109.652 29.336C109.652 29.7947 109.62 30.1093 109.556 30.28C109.417 30.6213 108.804 30.824 107.716 30.888C107.076 30.92 106.734 30.936 106.692 30.936C106.585 30.9467 106.532 31.0533 106.532 31.256C106.532 31.4587 106.617 31.576 106.788 31.608C106.969 31.6507 107.278 31.624 107.716 31.528C108.964 31.2187 109.673 31.208 109.844 31.496C109.876 31.6027 109.897 31.688 109.908 31.752C109.929 31.816 109.854 31.88 109.684 31.944C109.513 32.008 109.294 32.0667 109.028 32.12C108.761 32.184 108.361 32.264 107.828 32.36C107.049 32.488 106.484 32.4667 106.132 32.296C105.79 32.1253 105.62 31.7787 105.62 31.256C105.62 30.8933 105.721 30.648 105.924 30.52C106.137 30.3813 106.585 30.28 107.268 30.216C108.057 30.12 108.51 30.0293 108.628 29.944C108.745 29.848 108.804 29.656 108.804 29.368C108.804 29.1653 108.782 29.048 108.74 29.016C108.697 28.9733 108.558 28.952 108.324 28.952C108.036 28.952 107.534 29.0213 106.82 29.16C106.052 29.32 105.636 29.32 105.572 29.16C105.55 29.0853 105.572 28.968 105.636 28.808C105.678 28.6693 105.758 28.5733 105.876 28.52C105.993 28.456 106.206 28.392 106.516 28.328C107.038 28.2213 107.326 28.184 107.38 28.216C107.444 28.2587 107.556 28.2427 107.716 28.168ZM33.176 43C33.176 42.6267 33.192 42.4133 33.224 42.36C33.256 42.3067 33.3573 42.2853 33.528 42.296L33.864 42.344V44.968C33.864 46.1413 33.8533 46.8827 33.832 47.192C33.8107 47.4907 33.752 47.672 33.656 47.736C33.4213 47.8747 33.2667 47.784 33.192 47.464C33.1387 47.208 33.1013 46.7547 33.08 46.104L33.032 44.648L32.648 44.712C32.5093 44.744 32.136 44.7973 31.528 44.872C31.1653 44.904 30.9467 44.9093 30.872 44.888C30.808 44.8667 30.7547 44.7707 30.712 44.6C30.6693 44.376 30.68 44.232 30.744 44.168C30.808 44.104 31.2347 44.0187 32.024 43.912L33.176 43.752V43ZM29.4 42.616C29.624 42.3387 29.8373 42.328 30.04 42.584C30.104 42.6587 30.12 42.7547 30.088 42.872C30.056 42.9787 29.96 43.1707 29.8 43.448C29.544 43.9067 29.416 44.1947 29.416 44.312C29.416 44.4187 29.7307 44.7867 30.36 45.416C30.7333 45.7787 30.9787 46.0507 31.096 46.232C31.224 46.4027 31.2827 46.5467 31.272 46.664C31.24 46.9093 31.144 47.0267 30.984 47.016C30.824 47.0053 30.6267 46.8667 30.392 46.6C30.232 46.4187 30.072 46.2373 29.912 46.056C29.752 45.8747 29.6027 45.72 29.464 45.592C29.336 45.464 29.224 45.3627 29.128 45.288C29.032 45.2027 28.968 45.16 28.936 45.16C28.8613 45.16 28.7493 45.3253 28.6 45.656C28.4613 45.976 28.3707 46.2747 28.328 46.552C28.264 46.872 28.1733 47.064 28.056 47.128C27.8853 47.1813 27.7307 47.1707 27.592 47.096C27.464 47.0107 27.4 46.888 27.4 46.728C27.4 46.5467 27.672 45.8907 28.216 44.76C28.7707 43.6293 29.1653 42.9147 29.4 42.616ZM29.768 48.552C29.864 48.392 30.008 48.3493 30.2 48.424C30.328 48.4667 30.4027 48.552 30.424 48.68C30.456 48.7973 30.472 49.08 30.472 49.528C30.472 49.5707 30.472 49.6347 30.472 49.72C30.472 50.168 30.5413 50.424 30.68 50.488C30.8187 50.5413 31.3093 50.5147 32.152 50.408C32.2907 50.3973 32.4027 50.3867 32.488 50.376C33.1173 50.3013 33.56 50.2693 33.816 50.28C34.072 50.28 34.2 50.3333 34.2 50.44C34.2 50.5467 34.1147 50.68 33.944 50.84C33.784 51 33.64 51.08 33.512 51.08C33.384 51.08 32.8133 51.16 31.8 51.32C30.968 51.4587 30.424 51.5173 30.168 51.496C29.9227 51.4747 29.7733 51.3467 29.72 51.112C29.6453 50.8133 29.6133 50.344 29.624 49.704C29.6347 49.064 29.6827 48.68 29.768 48.552ZM36.7858 42.536C38.0124 42.408 38.7218 42.3973 38.9138 42.504C38.9991 42.568 39.0578 42.7227 39.0898 42.968C39.1111 43.128 39.1058 43.2293 39.0738 43.272C39.0418 43.3147 38.9564 43.3253 38.8178 43.304C38.4338 43.2507 37.9644 43.24 37.4098 43.272C36.8658 43.2933 36.4764 43.352 36.2418 43.448L35.7298 43.608L35.6818 44.392L35.6498 45.176L36.5138 45.08C37.1324 45.016 37.6658 44.984 38.1138 44.984C38.4764 44.984 38.6951 45 38.7698 45.032C38.8551 45.064 38.9031 45.16 38.9138 45.32C38.9458 45.5227 38.8818 45.6507 38.7218 45.704C38.5724 45.7467 38.1191 45.7947 37.3618 45.848C37.0311 45.88 36.7804 45.9067 36.6098 45.928C36.4498 45.9387 36.3004 45.96 36.1618 45.992C36.0231 46.0133 35.9324 46.056 35.8898 46.12C35.8578 46.1733 35.8311 46.232 35.8098 46.296C35.7991 46.3493 35.7938 46.4347 35.7938 46.552C35.7938 46.872 35.8364 47.048 35.9218 47.08C36.0284 47.112 36.3911 47.0747 37.0098 46.968C37.6498 46.8613 38.1778 46.7973 38.5938 46.776C38.8924 46.7653 39.0791 46.776 39.1538 46.808C39.2284 46.8293 39.2764 46.8987 39.2978 47.016C39.3191 47.1973 39.2338 47.3307 39.0418 47.416C38.8498 47.4907 38.4391 47.5813 37.8098 47.688C37.2124 47.7733 36.6791 47.864 36.2098 47.96C35.6764 48.0667 35.3511 48.0027 35.2338 47.768C35.1271 47.5333 35.0151 46.68 34.8978 45.208C34.8124 44.1093 34.8124 43.4747 34.8978 43.304C34.9938 43.1227 35.2071 42.9627 35.5378 42.824C35.8791 42.6853 36.2951 42.5893 36.7858 42.536ZM40.3058 43.096C40.4018 42.9787 40.4711 42.92 40.5138 42.92C40.5671 42.9093 40.6791 42.9467 40.8498 43.032C40.9564 43.096 41.0151 43.1813 41.0258 43.288C41.0471 43.384 41.0418 43.6027 41.0098 43.944L40.9138 44.712L41.3778 44.632C41.6978 44.5787 41.9164 44.4987 42.0338 44.392C42.1618 44.2747 42.2044 44.1147 42.1618 43.912C42.1191 43.6987 42.1618 43.5013 42.2898 43.32C42.4178 43.128 42.5831 43.032 42.7858 43.032H43.0898L43.0098 44.008C42.9671 44.6267 42.9138 45.1813 42.8498 45.672C42.7964 46.1947 42.7964 46.616 42.8498 46.936C42.9458 47.64 42.8018 47.9653 42.4178 47.912C42.2684 47.8907 42.1564 47.7467 42.0818 47.48C42.0178 47.2027 41.9804 46.76 41.9698 46.152C41.9698 45.736 41.9271 45.4853 41.8418 45.4C41.7564 45.3147 41.5591 45.3093 41.2498 45.384C41.1644 45.416 41.1058 45.4427 41.0738 45.464C41.0418 45.4853 41.0044 45.512 40.9618 45.544C40.9298 45.5653 40.9084 45.624 40.8978 45.72C40.8871 45.816 40.8764 45.912 40.8658 46.008C40.8658 46.104 40.8604 46.2693 40.8498 46.504C40.8391 47.2187 40.8338 47.6187 40.8338 47.704C40.8231 47.8533 40.6951 47.928 40.4498 47.928C40.3431 47.928 40.2631 47.9227 40.2098 47.912C40.1564 47.8907 40.1084 47.8587 40.0658 47.816C40.0338 47.7733 40.0124 47.7147 40.0018 47.64C39.9378 47.3733 39.9484 46.5787 40.0338 45.256C40.1298 43.9333 40.2204 43.2133 40.3058 43.096ZM41.2498 48.888C41.3458 48.856 41.4791 48.8453 41.6498 48.856C41.7671 48.8773 41.8364 48.9733 41.8578 49.144C41.8898 49.3147 41.9111 49.8213 41.9218 50.664L41.9538 52.44L41.6338 52.52C41.4204 52.5733 41.2764 52.5733 41.2018 52.52C41.1164 52.4667 41.0738 52.0027 41.0738 51.128V49.832H40.7378C40.5138 49.832 40.1138 49.9227 39.5378 50.104C39.1538 50.2213 38.9031 50.2853 38.7858 50.296C38.6684 50.3067 38.5671 50.264 38.4818 50.168C38.3538 50.04 38.3324 49.896 38.4178 49.736C38.5031 49.576 38.6738 49.448 38.9298 49.352C39.1858 49.256 39.6071 49.1653 40.1938 49.08C40.7591 48.984 41.1111 48.92 41.2498 48.888ZM45.6403 42.744C45.6189 42.392 45.6189 42.184 45.6403 42.12C45.6723 42.056 45.7683 42.024 45.9283 42.024C46.3763 42.024 46.5416 42.4987 46.4243 43.448L46.3443 44.168L46.8883 44.152C47.3043 44.1413 47.6189 44.1093 47.8323 44.056C47.9603 44.024 48.0883 44.0133 48.2163 44.024C48.3443 44.024 48.4563 44.0453 48.5523 44.088C48.6483 44.12 48.7283 44.1733 48.7923 44.248C48.8669 44.3227 48.9149 44.4027 48.9363 44.488C48.9683 44.7013 48.9149 44.84 48.7763 44.904C48.6483 44.968 48.4456 44.9627 48.1683 44.888C47.8803 44.8133 47.5709 44.8187 47.2403 44.904C46.9096 45 46.4936 45.0693 45.9923 45.112C45.4589 45.176 45.0749 45.2613 44.8403 45.368C44.6163 45.4853 44.3709 45.544 44.1043 45.544C43.9549 45.544 43.8536 45.528 43.8003 45.496C43.7576 45.4533 43.7363 45.368 43.7363 45.24C43.7363 45.0373 43.8056 44.8933 43.9443 44.808C44.0829 44.712 44.3816 44.6213 44.8403 44.536C45.2349 44.4507 45.4643 44.3813 45.5283 44.328C45.6029 44.2747 45.6456 44.136 45.6563 43.912C45.6563 43.4 45.6509 43.0107 45.6403 42.744ZM52.1043 44.312C52.1363 44.2053 52.2696 44.168 52.5043 44.2L52.8403 44.232L52.8083 45.16C52.7763 45.7467 52.7229 46.4827 52.6483 47.368C52.5523 48.2107 52.5363 48.904 52.6003 49.448C52.6323 49.8427 52.6376 50.088 52.6163 50.184C52.6056 50.2693 52.5256 50.344 52.3763 50.408C52.1736 50.504 52.0243 50.52 51.9283 50.456C51.8429 50.392 51.7896 49.9333 51.7683 49.08C51.7469 48.3547 51.6936 47.928 51.6083 47.8C51.5336 47.6613 51.3256 47.672 50.9843 47.832L50.6003 48.04L50.6643 49.08C50.7069 49.5173 50.7176 49.8107 50.6963 49.96C50.6856 50.1093 50.6376 50.216 50.5523 50.28C50.2963 50.4827 50.0776 50.4827 49.8963 50.28C49.8003 50.1413 49.7736 49.2613 49.8163 47.64C49.8483 46.424 49.8963 45.624 49.9603 45.24C50.0243 44.856 50.1469 44.664 50.3283 44.664C50.5096 44.664 50.6323 44.7653 50.6963 44.968C50.7603 45.16 50.7869 45.4853 50.7763 45.944L50.7283 46.872L51.0963 46.904C51.3309 46.9253 51.5016 46.904 51.6083 46.84C51.7256 46.776 51.8109 46.648 51.8643 46.456C51.9176 46.264 51.9603 45.96 51.9923 45.544C52.0349 44.808 52.0723 44.3973 52.1043 44.312ZM45.9443 46.024C46.2003 45.8747 46.4349 45.8053 46.6483 45.816C46.8723 45.816 47.1496 45.9067 47.4803 46.088C48.2696 46.4827 48.6856 47.0693 48.7283 47.848C48.7496 48.136 48.7389 48.3547 48.6963 48.504C48.6643 48.6427 48.5523 48.8507 48.3603 49.128C48.0723 49.5653 47.8056 49.864 47.5603 50.024C47.3149 50.1733 47.0109 50.2427 46.6483 50.232C45.8056 50.2 45.1923 49.9013 44.8083 49.336C44.4349 48.76 44.4136 48.0987 44.7443 47.352C44.8829 47.0107 45.0429 46.744 45.2243 46.552C45.4056 46.3493 45.6456 46.1733 45.9443 46.024ZM47.3203 46.808C47.0749 46.712 46.8669 46.6747 46.6963 46.696C46.5363 46.7173 46.3443 46.808 46.1203 46.968C45.8749 47.128 45.6829 47.3627 45.5443 47.672C45.4056 47.9813 45.3683 48.2533 45.4323 48.488C45.4749 48.6907 45.5549 48.8667 45.6723 49.016C45.7896 49.1547 45.9283 49.2613 46.0883 49.336C46.2483 49.4107 46.4243 49.448 46.6163 49.448C46.8189 49.448 46.9736 49.4213 47.0803 49.368C47.1869 49.3147 47.3203 49.192 47.4803 49C47.7469 48.6907 47.9016 48.408 47.9443 48.152C47.9976 47.9067 47.9549 47.64 47.8163 47.352C47.6776 47.064 47.5123 46.8827 47.3203 46.808ZM55.7225 42.616C56.7572 42.4987 57.4132 42.44 57.6905 42.44C57.9678 42.4293 58.1438 42.472 58.2185 42.568C58.2932 42.664 58.2932 42.7867 58.2185 42.936C58.1545 43.0747 57.9625 43.3627 57.6425 43.8L57.2265 44.344L57.5145 44.568C57.7065 44.7173 57.8345 44.792 57.8985 44.792C57.9518 44.792 58.1492 44.8987 58.4905 45.112C58.8212 45.3467 58.9865 45.5547 58.9865 45.736C58.9865 46.1627 58.5758 46.1253 57.7545 45.624C57.5732 45.5067 57.4452 45.4267 57.3705 45.384C57.2958 45.3413 57.1998 45.2933 57.0825 45.24C56.9652 45.1867 56.8852 45.1547 56.8425 45.144C56.8105 45.1227 56.7465 45.1173 56.6505 45.128C56.5545 45.1387 56.4905 45.1547 56.4585 45.176C56.4372 45.1973 56.3785 45.2453 56.2825 45.32C56.1972 45.384 56.1278 45.448 56.0745 45.512C56.0212 45.5653 55.9358 45.6613 55.8185 45.8C55.5412 46.0987 55.3332 46.3013 55.1945 46.408C55.0558 46.5147 54.9332 46.5573 54.8265 46.536C54.4852 46.4827 54.4158 46.2907 54.6185 45.96C54.7785 45.7147 55.1252 45.3253 55.6585 44.792C56.6185 43.832 57.0025 43.3307 56.8105 43.288C56.7892 43.2773 56.7678 43.272 56.7465 43.272C56.6718 43.272 56.1598 43.3627 55.2105 43.544C54.6025 43.6507 54.1972 43.7093 53.9945 43.72C53.8025 43.7307 53.6692 43.6987 53.5945 43.624C53.4772 43.5067 53.4452 43.3787 53.4985 43.24C53.5625 43.0907 53.6852 42.984 53.8665 42.92C54.0158 42.856 54.6345 42.7547 55.7225 42.616ZM58.3785 47.608C58.6132 47.48 58.8265 47.4373 59.0185 47.48C59.2212 47.5227 59.3598 47.6453 59.4345 47.848C59.4985 48.008 59.5092 48.136 59.4665 48.232C59.4238 48.3173 59.3278 48.3813 59.1785 48.424C59.0398 48.456 58.8372 48.4613 58.5705 48.44C58.1118 48.4293 57.8505 48.4773 57.7865 48.584C57.7118 48.7013 57.6745 49.24 57.6745 50.2C57.6745 50.9147 57.6585 51.336 57.6265 51.464C57.6052 51.592 57.5198 51.6667 57.3705 51.688C57.1678 51.72 57.0345 51.6773 56.9705 51.56C56.8852 51.4213 56.8585 50.92 56.8905 50.056C56.9012 49.16 56.8905 48.6853 56.8585 48.632C56.8265 48.6 56.4692 48.6267 55.7865 48.712C54.9225 48.8187 54.3892 48.8667 54.1865 48.856C53.9838 48.8453 53.8718 48.76 53.8505 48.6C53.8398 48.536 53.8612 48.456 53.9145 48.36C53.9678 48.264 54.0265 48.184 54.0905 48.12C54.2292 48.0027 54.4745 47.9227 54.8265 47.88C55.1892 47.8373 55.9358 47.8107 57.0665 47.8C57.7492 47.7787 58.1865 47.7147 58.3785 47.608ZM62.3114 44.136C62.4287 43.9867 62.546 43.912 62.6634 43.912C63.0154 43.912 63.0154 44.2533 62.6634 44.936C62.642 44.9787 62.6207 45.016 62.5994 45.048C62.3327 45.528 62.1994 45.8533 62.1994 46.024C62.1994 46.152 62.4714 46.5573 63.0154 47.24C63.9327 48.328 64.1034 48.8507 63.5274 48.808C63.5167 48.808 63.506 48.8027 63.4954 48.792C63.2714 48.7707 62.9354 48.4613 62.4874 47.864C62.0287 47.2773 61.762 46.9733 61.6874 46.952C61.6234 46.9307 61.5167 47.0747 61.3674 47.384C61.2287 47.6933 61.1327 48.0027 61.0794 48.312C61.0367 48.504 60.9887 48.6267 60.9354 48.68C60.8927 48.7333 60.7967 48.76 60.6474 48.76C60.306 48.76 60.13 48.6587 60.1194 48.456C60.1087 48.2427 60.258 47.832 60.5674 47.224C61.4207 45.528 62.002 44.4987 62.3114 44.136ZM66.1034 44.104C66.1994 43.9867 66.2847 43.928 66.3594 43.928C66.434 43.928 66.5407 43.992 66.6794 44.12C66.8074 44.248 66.8447 44.3867 66.7914 44.536C66.7167 44.6853 66.658 45.5813 66.6154 47.224C66.594 48.3973 66.5674 49.112 66.5354 49.368C66.514 49.6133 66.4447 49.768 66.3274 49.832C66.0927 49.96 65.938 49.9067 65.8634 49.672C65.81 49.4587 65.778 48.952 65.7674 48.152C65.746 47.128 65.6874 46.6053 65.5914 46.584C65.4954 46.552 65.2447 46.6 64.8394 46.728C63.9754 47.016 63.5007 46.9947 63.4154 46.664C63.3727 46.4933 63.3727 46.3547 63.4154 46.248C63.4474 46.152 63.6607 46.056 64.0554 45.96C64.45 45.8533 64.8607 45.784 65.2874 45.752L65.7834 45.736L65.8634 45.016C65.9274 44.5147 66.0074 44.2107 66.1034 44.104ZM68.2314 44.136C68.2314 44.0827 68.2847 44.0507 68.3914 44.04C68.498 44.0293 68.61 44.0453 68.7274 44.088C68.8447 44.12 68.93 44.168 68.9834 44.232C69.09 44.36 69.1167 44.5573 69.0634 44.824C69.0207 45.08 68.994 45.992 68.9834 47.56C68.9727 48.1893 68.9567 48.6747 68.9354 49.016C68.9247 49.3467 68.898 49.6187 68.8554 49.832C68.8127 50.0453 68.7594 50.184 68.6954 50.248C68.6314 50.3013 68.5354 50.328 68.4074 50.328C68.2687 50.328 68.1834 50.1253 68.1514 49.72C68.1194 49.3147 68.1247 48.4027 68.1674 46.984C68.1674 46.7813 68.1674 46.5733 68.1674 46.36C68.178 46.1467 68.1834 45.9493 68.1834 45.768C68.194 45.5867 68.1994 45.4107 68.1994 45.24C68.21 45.0693 68.2154 44.92 68.2154 44.792C68.226 44.664 68.2314 44.552 68.2314 44.456C68.2314 44.36 68.2314 44.2853 68.2314 44.232C68.2314 44.168 68.2314 44.136 68.2314 44.136ZM71.2926 42.12C71.6766 41.9813 72.0446 41.9387 72.3966 41.992C72.7593 42.0347 73.0953 42.1787 73.4046 42.424C73.7246 42.6693 73.986 43 74.1886 43.416C74.3913 43.8107 74.4873 44.1787 74.4766 44.52C74.4766 44.8613 74.37 45.24 74.1566 45.656C73.986 45.9973 73.7833 46.2533 73.5486 46.424C73.314 46.584 73.0153 46.6907 72.6526 46.744C72.0446 46.8293 71.4686 46.712 70.9246 46.392C70.3806 46.072 70.034 45.6613 69.8846 45.16C69.6713 44.4773 69.6926 43.8693 69.9486 43.336C70.2046 42.8027 70.6526 42.3973 71.2926 42.12ZM72.5886 42.776C72.482 42.776 72.3646 42.7547 72.2366 42.712C72.0446 42.648 71.7406 42.7653 71.3246 43.064C70.9086 43.3627 70.658 43.6507 70.5726 43.928C70.5406 44.0347 70.5353 44.1627 70.5566 44.312C70.578 44.4507 70.6153 44.5947 70.6686 44.744C70.722 44.8827 70.7913 45.0213 70.8766 45.16C70.9726 45.2987 71.074 45.416 71.1806 45.512C71.586 45.8747 71.9966 46.04 72.4126 46.008C72.8286 45.976 73.1593 45.7573 73.4046 45.352C73.7993 44.712 73.7353 44.0453 73.2126 43.352C72.9033 42.968 72.6953 42.776 72.5886 42.776ZM73.2606 47.752C73.346 47.5493 73.4526 47.448 73.5806 47.448C73.7193 47.4373 73.8366 47.5387 73.9326 47.752C74.018 47.9547 74.0073 48.3067 73.9006 48.808C73.794 49.288 73.7726 49.5813 73.8366 49.688C73.89 49.784 74.21 49.832 74.7966 49.832C75.202 49.832 75.4526 49.848 75.5486 49.88C75.6553 49.9013 75.7353 49.976 75.7886 50.104C75.8633 50.328 75.8366 50.4827 75.7086 50.568C75.5913 50.6533 75.3246 50.6907 74.9086 50.68C74.578 50.6693 74.1673 50.6907 73.6766 50.744C73.1966 50.7867 72.8553 50.8347 72.6526 50.888C72.5566 50.92 72.3113 50.968 71.9166 51.032C71.5326 51.1067 71.154 51.176 70.7806 51.24C70.4073 51.304 70.1833 51.336 70.1086 51.336C69.9806 51.336 69.8846 51.2507 69.8206 51.08C69.7566 50.9093 69.7726 50.7653 69.8686 50.648C69.954 50.5413 70.162 50.4613 70.4926 50.408L70.9566 50.344V49.32C70.9673 48.7547 71.01 48.3973 71.0846 48.248C71.1593 48.088 71.3193 48.04 71.5646 48.104C71.714 48.1467 71.7993 48.216 71.8206 48.312C71.8526 48.3973 71.8633 48.664 71.8526 49.112L71.8206 50.008L72.4446 50.056C72.8393 50.0773 73.0366 50.056 73.0366 49.992C73.0366 49.704 73.0473 49.4 73.0686 49.08C73.1006 48.76 73.1326 48.4827 73.1646 48.248C73.2073 48.0133 73.2393 47.848 73.2606 47.752ZM77.6556 42.968C77.709 42.9147 77.789 42.8933 77.8956 42.904C78.0023 42.9147 78.093 42.9573 78.1676 43.032C78.221 43.0853 78.253 43.1547 78.2636 43.24C78.2743 43.3147 78.2743 43.496 78.2636 43.784C78.2423 44.1893 78.1943 44.6373 78.1196 45.128C78.045 45.6187 77.9756 45.9227 77.9116 46.04C77.8583 46.1467 77.837 46.3173 77.8476 46.552C77.869 46.776 77.917 46.9947 77.9916 47.208C78.0663 47.432 78.093 47.608 78.0716 47.736C78.0503 47.864 77.9756 47.992 77.8476 48.12C77.7303 48.2373 77.613 48.3013 77.4956 48.312C77.389 48.312 77.3036 48.264 77.2396 48.168C77.1756 48.072 77.1383 47.6667 77.1276 46.952C77.117 46.2267 77.1436 45.7893 77.2076 45.64C77.2503 45.5333 77.293 45.336 77.3356 45.048C77.3996 44.6427 77.4423 44.3707 77.4636 44.232C77.5063 43.912 77.5383 43.6507 77.5596 43.448C77.581 43.192 77.613 43.032 77.6556 42.968ZM76.8076 50.456C76.9356 50.3813 77.0903 50.392 77.2716 50.488C77.4743 50.5947 77.5756 50.7813 77.5756 51.048C77.5756 51.304 77.4743 51.48 77.2716 51.576C77.0796 51.6827 76.877 51.6667 76.6636 51.528C76.525 51.4533 76.4556 51.3413 76.4556 51.192C76.4556 51.0853 76.493 50.9467 76.5676 50.776C76.653 50.6053 76.733 50.4987 76.8076 50.456Z" fill="#999999"/>
</g>
<defs>
<filter id="filter0_d_2_1740" x="0" y="0" width="179" height="84.1865" filterUnits="userSpaceOnUse" color-interpolation-filters="sRGB">
<feFlood flood-opacity="0" result="BackgroundImageFix"/>
<feColorMatrix in="SourceAlpha" type="matrix" values="0 0 0 0 0 0 0 0 0 0 0 0 0 0 0 0 0 0 127 0" result="hardAlpha"/>
<feOffset dy="2"/>
<feGaussianBlur stdDeviation="3.5"/>
<feComposite in2="hardAlpha" operator="out"/>
<feColorMatrix type="matrix" values="0 0 0 0 0.475 0 0 0 0 0.475 0 0 0 0 0.475 0 0 0 0.1 0"/>
<feBlend mode="normal" in2="BackgroundImageFix" result="effect1_dropShadow_2_1740"/>
<feBlend mode="normal" in="SourceGraphic" in2="effect1_dropShadow_2_1740" result="shape"/>
</filter>
</defs>
</svg>
