<svg width="179" height="85" viewBox="0 0 179 85" fill="none" xmlns="http://www.w3.org/2000/svg">
<g filter="url(#filter0_d_2_2332)">
<rect x="7" y="5" width="165" height="60" rx="15" fill="white"/>
<path d="M154.358 74.9007C155.662 75.6796 157.324 74.7784 157.383 73.2609L158.213 51.7407C158.273 50.1917 156.624 49.1665 155.261 49.9054L135.943 60.3801C134.58 61.119 134.54 63.0602 135.87 63.8552L154.358 74.9007Z" fill="white"/>
<path d="M33.752 24.04C33.816 23.944 33.9333 23.9067 34.104 23.928C34.2747 23.9493 34.3867 24.0187 34.44 24.136C34.5147 24.2747 34.52 24.808 34.456 25.736C34.3707 26.7813 34.3173 27.848 34.296 28.936C34.2853 29.6613 34.264 30.152 34.232 30.408C34.2 30.664 34.1413 30.8133 34.056 30.856C33.9387 30.9413 33.8 30.9573 33.64 30.904C33.5333 30.8613 33.4747 30.68 33.464 30.36C33.4533 30.04 33.4693 29.1547 33.512 27.704C33.5653 26.0933 33.6027 25.1067 33.624 24.744C33.6453 24.3813 33.688 24.1467 33.752 24.04ZM28.6 24.424C29.0907 24.2853 29.6187 24.2213 30.184 24.232C30.76 24.2427 31.128 24.3227 31.288 24.472C31.3947 24.5787 31.4587 25.2613 31.48 26.52C31.512 27.768 31.48 28.44 31.384 28.536C31.32 28.6 30.712 28.7173 29.56 28.888C28.7813 28.984 28.296 29.032 28.104 29.032C27.912 29.032 27.784 28.984 27.72 28.888C27.56 28.664 27.4587 28.008 27.416 26.92C27.3733 25.8213 27.416 25.16 27.544 24.936C27.6613 24.7653 28.0133 24.5947 28.6 24.424ZM30.488 25.112C30.36 25.0693 30.264 25.048 30.2 25.048C30.1893 25.0587 30.1467 25.0693 30.072 25.08C30.008 25.0907 29.9173 25.1067 29.8 25.128C29.6827 25.1493 29.576 25.1653 29.48 25.176C28.8187 25.2827 28.4347 25.3947 28.328 25.512C28.2213 25.6293 28.168 25.9973 28.168 26.616C28.168 27.2987 28.1893 27.7093 28.232 27.848C28.2853 27.976 28.6533 28.0187 29.336 27.976C29.9973 27.944 30.3973 27.9067 30.536 27.864C30.632 27.832 30.68 27.3787 30.68 26.504C30.68 25.9707 30.664 25.6133 30.632 25.432C30.6107 25.2507 30.5627 25.144 30.488 25.112ZM37.3386 22.296C37.7013 22.2533 38.1973 22.2107 38.8266 22.168C38.9973 22.1573 39.1306 22.2373 39.2266 22.408C39.3226 22.5787 39.328 22.744 39.2426 22.904C39.2 22.9787 39.0933 23.0267 38.9226 23.048C38.752 23.0587 38.4266 23.0587 37.9466 23.048C37.168 23.016 36.6506 23.0587 36.3946 23.176C36.1386 23.2933 35.984 23.5707 35.9306 24.008C35.888 24.3813 35.8986 24.6693 35.9626 24.872C36.0266 25.0107 36.0906 25.0853 36.1546 25.096C36.2186 25.096 36.4213 25.0533 36.7626 24.968C37.2426 24.8507 37.76 24.792 38.3146 24.792C38.5813 24.792 38.7786 24.7973 38.9066 24.808C39.0453 24.8187 39.1466 24.84 39.2106 24.872C39.2746 24.904 39.3226 24.9573 39.3546 25.032C39.4933 25.2773 39.3493 25.448 38.9226 25.544C38.7093 25.5973 38.3893 25.64 37.9626 25.672C37.1626 25.7573 36.6453 25.8373 36.4106 25.912C36.24 25.9867 36.1333 26.0507 36.0906 26.104C36.048 26.1573 36.0426 26.248 36.0746 26.376C36.096 26.5253 36.128 26.616 36.1706 26.648C36.224 26.6693 36.3466 26.664 36.5386 26.632C37.7333 26.4293 38.5546 26.328 39.0026 26.328C39.4506 26.328 39.6906 26.4293 39.7226 26.632C39.7226 26.6427 39.7226 26.6533 39.7226 26.664C39.744 26.7707 39.696 26.8507 39.5786 26.904C39.408 26.968 38.5973 27.144 37.1466 27.432L37.1306 27.448H37.1146H37.0986H37.0826H37.0666L37.0506 27.464H37.0346H37.0186H37.0026H36.9866L36.9706 27.48H36.9546H36.9386H36.9226H36.9066L36.8906 27.496H36.8746C36.416 27.592 36.112 27.64 35.9626 27.64C35.824 27.64 35.7173 27.6027 35.6426 27.528C35.4293 27.3253 35.2693 26.3493 35.1626 24.6C35.1413 24.344 35.1306 24.1307 35.1306 23.96C35.1306 23.7893 35.1413 23.624 35.1626 23.464C35.184 23.2933 35.2106 23.16 35.2426 23.064C35.2746 22.968 35.3333 22.8773 35.4186 22.792C35.504 22.696 35.5946 22.6267 35.6906 22.584C35.7866 22.5413 35.92 22.4987 36.0906 22.456C36.2613 22.4133 36.4426 22.3813 36.6346 22.36C36.8266 22.3387 37.0613 22.3173 37.3386 22.296ZM40.8266 23.096C40.8693 22.9787 40.9653 22.9147 41.1146 22.904C41.264 22.8933 41.3813 22.9413 41.4666 23.048C41.52 23.1333 41.5466 23.9227 41.5466 25.416C41.5573 26.9093 41.536 27.688 41.4826 27.752C41.44 27.784 41.3066 27.7627 41.0826 27.688L40.7466 27.56V25.432C40.7466 24.024 40.7733 23.2453 40.8266 23.096ZM39.5626 28.392C39.7866 28.3707 39.9253 28.3493 39.9786 28.328C40.0213 28.3067 40.112 28.3387 40.2506 28.424C40.4 28.4987 40.5546 28.6107 40.7146 28.76C40.8746 28.8987 40.9973 29.032 41.0826 29.16C41.232 29.3627 41.328 29.5333 41.3706 29.672C41.4133 29.8107 41.4293 30.04 41.4186 30.36C41.408 30.6693 41.376 30.9093 41.3226 31.08C41.2693 31.2507 41.168 31.4373 41.0186 31.64C40.5173 32.3333 39.9253 32.6053 39.2426 32.456C38.9013 32.3813 38.5493 32.2 38.1866 31.912C37.824 31.6347 37.5733 31.336 37.4346 31.016C37.2746 30.696 37.2213 30.4027 37.2746 30.136C37.328 29.8587 37.4933 29.5653 37.7706 29.256C37.8666 29.1387 37.9573 29.0427 38.0426 28.968C38.128 28.8933 38.2186 28.8293 38.3146 28.776C38.4213 28.712 38.5333 28.6587 38.6506 28.616C38.7786 28.5627 38.912 28.52 39.0506 28.488C39.2 28.456 39.3706 28.424 39.5626 28.392ZM40.3786 29.544C40.208 29.3413 40.0426 29.224 39.8826 29.192C39.7226 29.1493 39.4933 29.1813 39.1946 29.288C38.992 29.352 38.8053 29.4427 38.6346 29.56C38.4746 29.6773 38.3466 29.8107 38.2506 29.96C38.1546 30.0987 38.1066 30.232 38.1066 30.36C38.1066 30.5627 38.2506 30.8187 38.5386 31.128C38.8266 31.4373 39.0933 31.6187 39.3386 31.672C39.5093 31.704 39.6426 31.6987 39.7386 31.656C39.8453 31.6133 39.9946 31.4907 40.1866 31.288C40.3573 31.1067 40.4693 30.9573 40.5226 30.84C40.5866 30.712 40.6186 30.5467 40.6186 30.344C40.6186 30.024 40.5386 29.7573 40.3786 29.544ZM44.189 21.176C44.2743 21.0907 44.3917 21.0427 44.541 21.032C44.6903 21.0213 44.7863 21.0587 44.829 21.144C44.8823 21.1973 44.9357 21.4907 44.989 22.024L45.069 22.808L45.837 22.696C46.4663 22.6213 46.861 22.5947 47.021 22.616C47.181 22.6373 47.3037 22.7333 47.389 22.904C47.485 23.1067 47.485 23.2667 47.389 23.384C47.3037 23.5013 47.1437 23.5333 46.909 23.48C46.7597 23.448 46.2957 23.496 45.517 23.624C44.7383 23.7413 44.0077 23.8853 43.325 24.056C42.5783 24.248 42.205 24.1573 42.205 23.784C42.205 23.6667 42.237 23.576 42.301 23.512C42.3757 23.4373 42.509 23.3627 42.701 23.288C43.0637 23.1707 43.3997 23.1227 43.709 23.144H44.189L44.125 22.232C44.061 21.624 44.0823 21.272 44.189 21.176ZM48.877 23.544C48.9197 23.4587 49.0477 23.416 49.261 23.416H49.581L49.533 24.504L49.501 25.608H50.189C50.573 25.608 50.8343 25.64 50.973 25.704C51.1223 25.7573 51.197 25.8747 51.197 26.056C51.197 26.216 51.1383 26.328 51.021 26.392C50.9037 26.4453 50.7063 26.4667 50.429 26.456C50.1197 26.4453 49.853 26.4773 49.629 26.552C49.4797 26.616 49.389 26.6853 49.357 26.76C49.3357 26.824 49.3463 26.984 49.389 27.24C49.4423 27.656 49.4423 27.944 49.389 28.104C49.357 28.2747 49.245 28.3973 49.053 28.472C48.861 28.536 48.7277 28.5093 48.653 28.392C48.5783 28.296 48.5623 27.576 48.605 26.232C48.6477 25.1973 48.685 24.52 48.717 24.2C48.749 23.8693 48.8023 23.6507 48.877 23.544ZM44.141 24.76C44.5357 24.5573 44.7917 24.456 44.909 24.456C45.037 24.4453 45.2877 24.5093 45.661 24.648C46.205 24.84 46.573 25.064 46.765 25.32C46.9677 25.5653 47.0743 25.9333 47.085 26.424C47.117 27.2347 46.6957 27.8427 45.821 28.248C45.469 28.4187 45.149 28.52 44.861 28.552C44.573 28.5733 44.2477 28.5307 43.885 28.424C43.4797 28.3173 43.1863 28.152 43.005 27.928C42.8237 27.704 42.717 27.384 42.685 26.968C42.653 26.6267 42.653 26.392 42.685 26.264C42.717 26.136 42.8343 25.9387 43.037 25.672C43.293 25.32 43.661 25.016 44.141 24.76ZM45.997 25.56C45.7303 25.3147 45.3677 25.2453 44.909 25.352C44.4503 25.4587 44.0397 25.704 43.677 26.088C43.5383 26.2267 43.453 26.344 43.421 26.44C43.3997 26.536 43.405 26.68 43.437 26.872C43.5223 27.224 43.757 27.4853 44.141 27.656C44.5357 27.8267 44.9037 27.8213 45.245 27.64C45.757 27.384 46.0877 27.048 46.237 26.632C46.397 26.2053 46.317 25.848 45.997 25.56ZM46.989 29.448C48.173 29.32 48.8663 29.32 49.069 29.448C49.1437 29.4907 49.1917 29.6187 49.213 29.832C49.2343 30.0453 49.245 30.44 49.245 31.016V32.472L48.909 32.584C48.685 32.6587 48.541 32.616 48.477 32.456C48.4237 32.3067 48.4023 31.9013 48.413 31.24C48.4237 30.568 48.397 30.2107 48.333 30.168C48.2477 30.1147 47.4583 30.232 45.965 30.52C45.741 30.5627 45.565 30.536 45.437 30.44C45.3197 30.3333 45.2877 30.2 45.341 30.04C45.405 29.88 45.549 29.7573 45.773 29.672C45.9757 29.5867 46.381 29.512 46.989 29.448ZM61.7459 23.752C61.8739 23.6987 62.0072 23.6773 62.1459 23.688C62.2845 23.688 62.3752 23.72 62.4179 23.784C62.4605 23.848 62.4339 24.4827 62.3379 25.688C62.2525 26.776 62.1779 27.8373 62.1139 28.872C62.0712 29.5867 62.0019 30.0453 61.9059 30.248C61.8205 30.44 61.6552 30.4933 61.4099 30.408C61.3032 30.3653 61.2392 30.1573 61.2179 29.784C61.2072 29.4 61.2445 28.7653 61.3299 27.88L61.4099 26.904L60.8339 26.968C60.4392 27.0213 60.0605 27.128 59.6979 27.288L59.0899 27.528V28.856C59.0792 29.3787 59.0579 29.736 59.0259 29.928C58.9939 30.1093 58.9352 30.232 58.8499 30.296C58.4552 30.5947 58.2632 30.44 58.2739 29.832C58.2952 28.7013 58.3379 27.4747 58.4019 26.152C58.4765 24.8187 58.5405 24.104 58.5939 24.008C58.6472 23.8907 58.7432 23.8213 58.8819 23.8C59.0312 23.7787 59.1752 23.816 59.3139 23.912C59.3779 23.9547 59.4099 24.0507 59.4099 24.2C59.4205 24.3493 59.3939 24.6533 59.3299 25.112C59.2232 25.8373 59.1965 26.2213 59.2499 26.264C59.2712 26.296 59.3885 26.3013 59.6019 26.28C59.8259 26.2587 60.0605 26.2267 60.3059 26.184C60.5619 26.1413 60.8019 26.0933 61.0259 26.04C61.2605 25.976 61.3992 25.928 61.4419 25.896C61.5379 25.8107 61.5859 25.4427 61.5859 24.792C61.5859 24.1413 61.6392 23.7947 61.7459 23.752ZM54.8019 24.472C55.3459 24.3653 55.6872 24.312 55.8259 24.312C55.9645 24.312 56.0819 24.3653 56.1779 24.472C56.2632 24.5787 56.2952 24.776 56.2739 25.064C56.2632 25.3413 56.1992 25.8587 56.0819 26.616C56.0712 26.7013 56.0285 26.9733 55.9539 27.432C55.8792 27.8907 55.8259 28.232 55.7939 28.456C55.7085 29.1067 55.6232 29.464 55.5379 29.528C55.4952 29.56 55.4152 29.576 55.2979 29.576C55.0632 29.576 54.9245 29.4853 54.8819 29.304C54.8499 29.1227 54.8872 28.7333 54.9939 28.136C55.2819 26.5573 55.4259 25.656 55.4259 25.432C55.4259 25.3573 55.4152 25.304 55.3939 25.272C55.3725 25.2293 55.3405 25.2133 55.2979 25.224C55.2125 25.288 54.7912 25.3787 54.0339 25.496C53.2872 25.6133 52.7859 25.672 52.5299 25.672C52.2312 25.672 52.0285 25.608 51.9219 25.48C51.7299 25.256 51.9112 25.0693 52.4659 24.92C52.6365 24.8773 52.8499 24.8347 53.1059 24.792C53.7139 24.696 54.2792 24.5893 54.8019 24.472ZM64.4805 21.48C64.9392 21.352 65.4245 21.288 65.9365 21.288C66.4592 21.2773 66.8005 21.3573 66.9605 21.528C67.1205 21.688 67.2325 22.0773 67.2965 22.696C67.3178 22.9627 67.3338 23.1547 67.3445 23.272C67.3552 23.3893 67.3498 23.5227 67.3285 23.672C67.3072 23.8107 67.2805 23.9013 67.2485 23.944C67.2165 23.976 67.1365 24.0293 67.0085 24.104C66.8912 24.168 66.7738 24.216 66.6565 24.248C66.5498 24.2693 66.3685 24.312 66.1125 24.376C65.2805 24.5893 64.7685 24.7387 64.5765 24.824C64.3952 24.9093 64.3205 25.0587 64.3525 25.272C64.3632 25.3893 64.3898 25.4747 64.4325 25.528C64.4858 25.5707 64.5605 25.5813 64.6565 25.56C65.2645 25.4853 65.8992 25.3467 66.5605 25.144C67.2112 24.952 67.5365 25.0907 67.5365 25.56C67.5365 25.6773 67.5045 25.7627 67.4405 25.816C67.3872 25.8587 67.2485 25.9013 67.0245 25.944C66.8005 25.976 66.3258 26.0933 65.6005 26.296C64.6725 26.552 64.0698 26.616 63.7925 26.488C63.5258 26.36 63.4245 25.9707 63.4885 25.32C63.5312 24.84 63.6485 24.5147 63.8405 24.344C64.0432 24.1733 64.4698 24.0133 65.1205 23.864C65.3978 23.8 65.6058 23.752 65.7445 23.72C65.8832 23.688 66.0165 23.6507 66.1445 23.608C66.2832 23.5547 66.3738 23.5173 66.4165 23.496C66.4592 23.464 66.4965 23.4107 66.5285 23.336C66.5605 23.2613 66.5712 23.1973 66.5605 23.144C66.5605 23.08 66.5498 22.984 66.5285 22.856C66.4645 22.5253 66.3952 22.3013 66.3205 22.184C66.1925 22.024 65.6272 22.0773 64.6245 22.344C64.2085 22.4613 63.8405 22.52 63.5205 22.52C63.3392 22.52 63.2165 22.504 63.1525 22.472C63.0992 22.44 63.0725 22.376 63.0725 22.28C63.0725 21.992 63.5418 21.7253 64.4805 21.48ZM65.5685 26.888C65.8245 26.5787 66.0112 26.584 66.1285 26.904C66.1818 27.064 66.2085 27.272 66.2085 27.528C66.2085 27.7307 66.2245 27.8533 66.2565 27.896C66.2992 27.928 66.4218 27.9227 66.6245 27.88C66.8378 27.8373 67.1952 27.7893 67.6965 27.736C67.9738 27.6933 68.1552 27.6827 68.2405 27.704C68.3258 27.7253 68.4005 27.7947 68.4645 27.912C68.5605 28.0827 68.5818 28.2267 68.5285 28.344C68.4858 28.4613 68.3685 28.552 68.1765 28.616C67.9952 28.6693 67.7445 28.696 67.4245 28.696C67.0938 28.696 66.5925 28.76 65.9205 28.888C64.4805 29.1547 63.7125 29.144 63.6165 28.856C63.5418 28.6747 63.6165 28.5147 63.8405 28.376C64.0752 28.2373 64.3632 28.184 64.7045 28.216L65.2805 28.248L65.3445 27.672C65.3872 27.2987 65.4618 27.0373 65.5685 26.888ZM64.6085 30.056C64.7152 29.9813 64.8538 29.9547 65.0245 29.976C65.1525 29.9973 65.2272 30.0613 65.2485 30.168C65.2698 30.264 65.2538 30.504 65.2005 30.888C65.2005 30.888 65.2005 30.8933 65.2005 30.904C65.1792 31.096 65.2165 31.2027 65.3125 31.224C65.4085 31.2453 65.7498 31.2187 66.3365 31.144C66.3898 31.144 66.4325 31.144 66.4645 31.144C66.5072 31.1333 66.5658 31.1227 66.6405 31.112C67.6965 30.984 68.3152 30.9253 68.4965 30.936C68.6885 30.936 68.8165 31.0053 68.8805 31.144C68.8805 31.1547 68.8858 31.1653 68.8965 31.176C68.9498 31.3253 68.9498 31.448 68.8965 31.544C68.8538 31.64 68.7525 31.7093 68.5925 31.752C68.4325 31.8053 68.2245 31.832 67.9685 31.832C67.5738 31.8107 66.9658 31.9013 66.1445 32.104C65.3232 32.296 64.8538 32.344 64.7365 32.248C64.5338 32.1307 64.4112 31.7627 64.3685 31.144C64.3258 30.536 64.4058 30.1733 64.6085 30.056ZM70.8324 22.056C71.035 21.928 71.2057 21.8533 71.3444 21.832C71.4937 21.8 71.723 21.7947 72.0324 21.816C72.459 21.848 72.811 21.9333 73.0884 22.072C73.3657 22.2107 73.6644 22.456 73.9844 22.808C74.4644 23.3627 74.6084 23.9973 74.4164 24.712C74.235 25.416 73.7817 25.9547 73.0564 26.328C72.3737 26.68 71.6324 26.584 70.8324 26.04C70.4377 25.7627 70.1284 25.4533 69.9044 25.112C69.691 24.7707 69.5844 24.4293 69.5844 24.088C69.5844 23.7787 69.707 23.4213 69.9524 23.016C70.2084 22.6 70.5017 22.28 70.8324 22.056ZM72.8004 22.728C72.5124 22.5893 72.331 22.5253 72.2564 22.536C71.9897 22.568 71.7124 22.664 71.4244 22.824C71.147 22.9733 70.9177 23.1653 70.7364 23.4C70.555 23.624 70.4644 23.832 70.4644 24.024C70.4644 24.4187 70.5817 24.7547 70.8164 25.032C71.051 25.3093 71.3284 25.4907 71.6484 25.576C71.9684 25.6613 72.299 25.6507 72.6404 25.544C72.9817 25.4267 73.2537 25.2027 73.4564 24.872C73.6484 24.5947 73.7444 24.3387 73.7444 24.104C73.7444 23.8587 73.6484 23.5973 73.4564 23.32C73.2644 23.0427 73.0457 22.8453 72.8004 22.728ZM73.1044 27.56C73.8084 27.464 74.283 27.432 74.5284 27.464C74.7737 27.4853 74.9337 27.5813 75.0084 27.752C75.1364 28.008 75.115 28.1787 74.9444 28.264C74.7844 28.3493 74.395 28.3973 73.7764 28.408C73.051 28.408 72.235 28.4613 71.3284 28.568C70.411 28.6747 69.9257 28.7013 69.8724 28.648C69.819 28.5947 69.8244 28.4667 69.8884 28.264C69.9844 27.88 70.5497 27.6827 71.5844 27.672C72.2564 27.6507 72.763 27.6133 73.1044 27.56ZM71.1684 29.528C71.5737 29.1227 71.7924 29.3147 71.8244 30.104C71.8564 30.584 71.9097 30.824 71.9844 30.824C72.0484 30.824 72.235 30.76 72.5444 30.632C72.8004 30.5253 73.291 30.424 74.0164 30.328C74.7417 30.2213 75.1684 30.1947 75.2964 30.248C75.4244 30.2907 75.483 30.4133 75.4724 30.616C75.4724 30.8187 75.4137 30.9467 75.2964 31C75.147 31.0533 74.8964 31.08 74.5444 31.08C74.171 31.08 73.675 31.1867 73.0564 31.4C72.7044 31.5173 72.4217 31.5973 72.2084 31.64C72.0057 31.6827 71.8244 31.704 71.6644 31.704C71.5044 31.704 71.3817 31.6507 71.2964 31.544C71.2217 31.4373 71.163 31.2987 71.1204 31.128C71.0777 30.968 71.0404 30.744 71.0084 30.456C70.987 30.168 70.987 29.9653 71.0084 29.848C71.0297 29.72 71.083 29.6133 71.1684 29.528ZM86.6364 24.008C86.7324 23.7627 86.9617 23.7307 87.3244 23.912C87.4097 23.9653 87.4577 24.0293 87.4684 24.104C87.4897 24.1787 87.479 24.312 87.4364 24.504C87.3724 24.8453 87.319 25.2187 87.2764 25.624L87.2124 26.296L87.7884 26.216C88.567 26.12 88.9564 25.992 88.9564 25.832C88.999 25 89.0577 24.456 89.1324 24.2C89.2177 23.9333 89.367 23.8267 89.5804 23.88C89.751 23.9227 89.8524 24.0293 89.8844 24.2C89.927 24.36 89.9164 24.6267 89.8524 25C89.767 25.4373 89.6924 26.408 89.6284 27.912C89.5964 28.9467 89.559 29.5973 89.5164 29.864C89.4844 30.12 89.415 30.28 89.3084 30.344C89.1484 30.4293 89.0044 30.4453 88.8764 30.392C88.791 30.36 88.7377 30.2427 88.7164 30.04C88.7057 29.8267 88.7057 29.3627 88.7164 28.648L88.7644 27L88.3644 27.016C88.1084 27.016 87.8364 27.0747 87.5484 27.192L87.1644 27.352L87.2124 28.632C87.2444 29.0693 87.2497 29.4053 87.2284 29.64C87.207 29.864 87.1644 30.0133 87.1004 30.088C87.047 30.1627 86.951 30.2 86.8124 30.2C86.567 30.2 86.423 30.04 86.3804 29.72C86.3484 29.4 86.359 28.504 86.4124 27.032C86.5084 25.1333 86.583 24.1253 86.6364 24.008ZM83.6764 24.12C84.231 24.0347 84.5564 24.104 84.6524 24.328C84.7484 24.5413 84.7697 25.256 84.7164 26.472C84.6737 27.4533 84.6364 28.0347 84.6044 28.216C84.5724 28.3973 84.4764 28.5253 84.3164 28.6C84.103 28.728 83.5004 28.7973 82.5084 28.808L81.0524 28.84L80.9244 28.344C80.871 28.1413 80.8284 27.704 80.7964 27.032C80.7644 26.36 80.759 25.7947 80.7804 25.336C80.8017 24.8133 81.767 24.408 83.6764 24.12ZM84.0124 25.048H83.5644C83.287 25.048 82.8817 25.1227 82.3484 25.272L81.5964 25.48L81.5644 26.44C81.5324 27.016 81.543 27.4213 81.5964 27.656C81.639 27.8053 81.7084 27.8907 81.8044 27.912C81.9004 27.9333 82.2044 27.928 82.7164 27.896L83.7404 27.848L83.8204 27.416C83.8737 27.128 83.9164 26.664 83.9484 26.024L84.0124 25.048ZM92.6535 21.496C92.6748 21.432 92.7708 21.4 92.9415 21.4C93.0802 21.4 93.1708 21.5013 93.2135 21.704C93.2668 21.896 93.2562 22.168 93.1815 22.52C93.1388 22.744 93.1068 22.8933 93.0855 22.968C93.0748 23.0427 93.0695 23.1387 93.0695 23.256C93.0695 23.3627 93.0748 23.4267 93.0855 23.448C93.0962 23.4587 93.1442 23.4747 93.2295 23.496C93.3148 23.5173 93.3895 23.5227 93.4535 23.512C93.5175 23.5013 93.6348 23.4853 93.8055 23.464C94.4348 23.3893 94.7868 23.4587 94.8615 23.672C94.9468 23.8747 94.7602 24.264 94.3015 24.84C93.9708 25.2453 93.8055 25.48 93.8055 25.544C93.8055 25.608 93.9122 25.7307 94.1255 25.912C94.3388 26.0933 94.5842 26.264 94.8615 26.424C95.1922 26.6267 95.3575 26.8453 95.3575 27.08C95.3468 27.2293 95.2455 27.304 95.0535 27.304C94.8722 27.304 94.6322 27.224 94.3335 27.064C94.0455 26.8933 93.7735 26.6853 93.5175 26.44L93.1655 26.12L92.8455 26.488C92.4402 26.968 92.1468 27.288 91.9655 27.448C91.7948 27.608 91.6508 27.688 91.5335 27.688C91.3628 27.688 91.2562 27.624 91.2135 27.496C91.1708 27.3573 91.2082 27.1973 91.3255 27.016C91.4535 26.8347 91.8802 26.3653 92.6055 25.608C93.3308 24.84 93.6935 24.424 93.6935 24.36C93.6935 24.3493 93.6775 24.3387 93.6455 24.328C93.6242 24.3173 93.5922 24.312 93.5495 24.312C93.5068 24.312 93.4588 24.3227 93.4055 24.344C93.1602 24.3973 92.6695 24.488 91.9335 24.616C91.0908 24.7547 90.6375 24.7547 90.5735 24.616C90.5415 24.5413 90.5628 24.424 90.6375 24.264C90.6802 24.1467 90.7602 24.0613 90.8775 24.008C91.0055 23.9547 91.2348 23.9013 91.5655 23.848C92.1095 23.7627 92.3655 23.6667 92.3335 23.56C92.3122 23.4747 92.3495 23.128 92.4455 22.52C92.5415 21.912 92.6108 21.5707 92.6535 21.496ZM96.4455 23.656C96.5202 23.5173 96.5842 23.4427 96.6375 23.432C96.6908 23.4213 96.7975 23.4587 96.9575 23.544C97.0748 23.608 97.1442 23.7467 97.1655 23.96C97.1868 24.1627 97.1975 24.68 97.1975 25.512C97.1762 26.792 97.1495 27.48 97.1175 27.576C97.0748 27.7253 96.9575 27.8053 96.7655 27.816C96.5735 27.816 96.4508 27.7467 96.3975 27.608C96.3335 27.4373 96.3068 26.7707 96.3175 25.608C96.3388 24.4347 96.3815 23.784 96.4455 23.656ZM94.0935 28.776C94.3815 28.6373 94.7708 28.568 95.2615 28.568C95.4855 28.568 95.6722 28.5893 95.8215 28.632C95.9815 28.664 96.1255 28.7173 96.2535 28.792C96.3815 28.8667 96.4935 28.968 96.5895 29.096C96.6855 29.2133 96.7815 29.3627 96.8775 29.544C96.9948 29.768 97.0428 30.0667 97.0215 30.44C97.0002 30.8027 96.9095 31.176 96.7495 31.56C96.6642 31.784 96.4562 31.9867 96.1255 32.168C95.8055 32.36 95.4908 32.4613 95.1815 32.472C94.9148 32.472 94.6002 32.3707 94.2375 32.168C93.8748 31.9653 93.5975 31.7413 93.4055 31.496C93.0748 31.048 92.9788 30.536 93.1175 29.96C93.2668 29.384 93.5922 28.9893 94.0935 28.776ZM95.8695 29.512C95.6135 29.32 95.2775 29.2773 94.8615 29.384C94.4455 29.48 94.1522 29.672 93.9815 29.96C93.8535 30.1947 93.8055 30.3867 93.8375 30.536C93.8695 30.6853 94.0028 30.8827 94.2375 31.128C94.7922 31.7253 95.3415 31.768 95.8855 31.256C96.0455 31.1067 96.1415 30.984 96.1735 30.888C96.2055 30.7813 96.2055 30.5893 96.1735 30.312C96.1202 29.8853 96.0188 29.6187 95.8695 29.512ZM104.712 20.92C104.915 20.5467 105.085 20.5147 105.224 20.824C105.331 21.0587 105.379 21.4213 105.368 21.912V22.808L105.768 22.728C105.907 22.696 106.28 22.6427 106.888 22.568C107.208 22.536 107.416 22.5307 107.512 22.552C107.608 22.5733 107.699 22.6533 107.784 22.792C107.933 23.0053 107.944 23.16 107.816 23.256C107.688 23.3413 107.363 23.4107 106.84 23.464C105.507 23.5707 104.477 23.7413 103.752 23.976C103.379 24.104 103.069 24.152 102.824 24.12C102.589 24.0773 102.472 23.9653 102.472 23.784C102.472 23.6773 102.515 23.5867 102.6 23.512C102.696 23.4373 102.851 23.368 103.064 23.304C103.288 23.2293 103.635 23.144 104.104 23.048L104.52 22.968L104.552 22.088C104.563 21.512 104.616 21.1227 104.712 20.92ZM104.76 24.456C105.091 24.3493 105.368 24.3067 105.592 24.328C105.827 24.3493 106.12 24.44 106.472 24.6C107.101 24.92 107.443 25.416 107.496 26.088C107.56 26.7493 107.315 27.3413 106.76 27.864C106.6 28.024 106.445 28.1307 106.296 28.184C106.147 28.2267 105.901 28.2587 105.56 28.28C104.717 28.3333 104.077 28.152 103.64 27.736C103.448 27.544 103.32 27.2453 103.256 26.84C103.203 26.4347 103.235 26.0667 103.352 25.736C103.395 25.6293 103.469 25.5067 103.576 25.368C103.683 25.2293 103.8 25.1013 103.928 24.984C104.067 24.856 104.211 24.744 104.36 24.648C104.509 24.552 104.643 24.488 104.76 24.456ZM106.584 25.624C106.264 25.1653 105.789 25.0427 105.16 25.256C104.616 25.4373 104.264 25.7413 104.104 26.168C103.955 26.5947 104.061 26.9627 104.424 27.272C104.573 27.4 104.707 27.48 104.824 27.512C104.941 27.544 105.133 27.5493 105.4 27.528C105.805 27.4853 106.109 27.3627 106.312 27.16C106.525 26.968 106.659 26.712 106.712 26.392C106.765 26.072 106.723 25.816 106.584 25.624ZM106.936 29.272C107.117 29.24 107.325 29.2347 107.56 29.256C107.72 29.256 107.827 29.2827 107.88 29.336C107.933 29.3787 107.965 29.464 107.976 29.592C108.008 29.784 107.96 29.912 107.832 29.976C107.715 30.0293 107.416 30.072 106.936 30.104L106.424 30.136V30.76C106.424 31.144 106.461 31.5547 106.536 31.992C106.589 32.28 106.605 32.456 106.584 32.52C106.563 32.584 106.467 32.632 106.296 32.664C106.083 32.7173 105.928 32.7013 105.832 32.616C105.747 32.5307 105.683 32.104 105.64 31.336L105.576 30.184L105.064 30.264C104.808 30.296 104.435 30.3653 103.944 30.472C103.432 30.5893 103.117 30.536 103 30.312C102.915 30.152 102.989 29.9707 103.224 29.768C103.384 29.6187 104.003 29.5067 105.08 29.432C106.136 29.3573 106.755 29.304 106.936 29.272ZM58.0383 44.2C58.2836 44.1253 58.4916 44.104 58.6623 44.136C58.8436 44.1573 59.1529 44.264 59.5903 44.456C60.3049 44.7547 60.6676 45.3947 60.6783 46.376C60.6783 46.8773 60.6303 47.2613 60.5343 47.528C60.4489 47.784 60.2836 48.056 60.0383 48.344C59.8143 48.6 59.6436 48.7547 59.5263 48.808C59.4196 48.8613 59.2116 48.888 58.9023 48.888C58.2943 48.888 57.7129 48.7067 57.1583 48.344C56.6143 47.9813 56.2996 47.576 56.2143 47.128C56.1396 46.6907 56.1556 46.312 56.2623 45.992C56.3689 45.672 56.5983 45.336 56.9503 44.984C57.1209 44.8027 57.3129 44.6373 57.5263 44.488C57.7503 44.3387 57.9209 44.2427 58.0383 44.2ZM59.1423 45.048C58.8756 44.9627 58.6836 44.9307 58.5663 44.952C58.4489 44.9627 58.2356 45.0533 57.9263 45.224C57.5636 45.4373 57.3236 45.624 57.2063 45.784C57.0889 45.944 57.0249 46.168 57.0143 46.456C57.0143 46.8187 57.1476 47.1333 57.4143 47.4C57.6916 47.6667 58.0543 47.848 58.5023 47.944C58.8436 48.0293 59.0569 48.0667 59.1423 48.056C59.2276 48.0347 59.3449 47.9333 59.4943 47.752C59.5796 47.656 59.6383 47.5653 59.6703 47.48C59.7129 47.384 59.7396 47.2667 59.7503 47.128C59.7716 46.9893 59.7823 46.7973 59.7823 46.552C59.7823 46.0187 59.7396 45.6613 59.6543 45.48C59.5796 45.288 59.4089 45.144 59.1423 45.048ZM65.3503 44.2C65.4249 44.0933 65.5209 44.0453 65.6383 44.056C65.7556 44.056 65.8623 44.1147 65.9583 44.232C66.0649 44.36 66.0863 45.192 66.0223 46.728C65.9476 48.232 65.9103 49.16 65.9103 49.512C65.8996 49.8213 65.8569 50.0293 65.7823 50.136C65.7183 50.2427 65.5796 50.3173 65.3663 50.36L65.0303 50.424L65.1423 48.568C65.2169 47.0747 65.2543 46.0667 65.2543 45.544C65.2543 44.7547 65.2863 44.3067 65.3503 44.2ZM63.4623 44.44C63.6756 44.2373 63.8729 44.248 64.0543 44.472C64.1503 44.5893 64.1503 45.1867 64.0543 46.264C63.9903 47.0853 63.9156 48.0027 63.8303 49.016L63.7503 50.136H63.3823H62.9983L63.0143 48.648C63.0143 48.6267 63.0143 48.6 63.0143 48.568C63.0356 47.8107 63.0143 47.384 62.9503 47.288C62.8863 47.1813 62.6516 47.1867 62.2463 47.304C62.2143 47.3147 62.1929 47.32 62.1823 47.32C61.9156 47.4053 61.6596 47.4267 61.4143 47.384C61.1689 47.3413 61.0463 47.2613 61.0463 47.144C61.0463 46.9413 61.1369 46.7813 61.3183 46.664C61.5103 46.5467 61.8196 46.4667 62.2463 46.424C62.8223 46.3493 63.1476 46.2587 63.2223 46.152C63.2863 46.024 63.3183 45.7307 63.3183 45.272C63.3183 44.8133 63.3663 44.536 63.4623 44.44ZM75.2666 43.688C75.3733 43.5813 75.5066 43.5387 75.6666 43.56C75.7733 43.5813 75.8426 43.6347 75.8746 43.72C75.9066 43.8053 75.9173 43.9973 75.9066 44.296C75.896 46.152 75.8533 47.4053 75.7786 48.056C75.704 48.7067 75.5706 49.064 75.3786 49.128C75.1973 49.16 74.6053 49.192 73.6026 49.224L72.0186 49.256L71.8586 48.76C71.784 48.5147 71.6773 47.864 71.5386 46.808C71.4106 45.752 71.3413 45.0267 71.3306 44.632C71.3306 44.4187 71.3946 44.28 71.5226 44.216C71.6613 44.1413 71.784 44.184 71.8906 44.344C71.9973 44.4827 72.0826 44.824 72.1466 45.368L72.2266 46.2L72.6106 46.136C72.824 46.104 73.2986 46.024 74.0346 45.896L75.0266 45.736L75.1066 45.224C75.1706 44.8827 75.1866 44.5733 75.1546 44.296C75.144 43.9867 75.1813 43.784 75.2666 43.688ZM74.9786 46.728C74.936 46.6853 74.76 46.68 74.4506 46.712C74.152 46.7333 73.8213 46.7813 73.4586 46.856C72.8933 46.984 72.568 47.08 72.4826 47.144C72.3973 47.208 72.376 47.3733 72.4186 47.64C72.472 48.0027 72.5733 48.2213 72.7226 48.296C72.872 48.36 73.2453 48.3707 73.8426 48.328L74.9146 48.248L74.9786 47.528C75.0213 47.048 75.0213 46.7813 74.9786 46.728ZM78.4346 43.816C78.4666 43.72 78.5573 43.672 78.7066 43.672C78.8666 43.672 78.9946 43.72 79.0906 43.816C79.1866 43.9013 79.208 44.408 79.1546 45.336C79.1226 46.3067 79.1386 46.808 79.2026 46.84C79.2666 46.8827 79.5226 46.8613 79.9706 46.776C80.4186 46.6907 80.7493 46.6747 80.9626 46.728C81.112 46.7707 81.256 46.8933 81.3946 47.096C81.5333 47.2987 81.56 47.4373 81.4746 47.512C81.4426 47.5547 81.096 47.5973 80.4346 47.64C79.816 47.672 79.4266 47.7253 79.2666 47.8C79.1813 47.8427 79.1226 47.96 79.0906 48.152C79.0586 48.344 79.0373 48.7013 79.0266 49.224C79.016 49.7467 78.9946 50.104 78.9626 50.296C78.9306 50.488 78.872 50.616 78.7866 50.68C78.6906 50.744 78.616 50.7707 78.5626 50.76C78.5093 50.7387 78.4346 50.6693 78.3386 50.552C78.1786 50.36 78.1253 50.0773 78.1786 49.704C78.2213 49.3093 78.2693 48.2587 78.3226 46.552C78.376 44.8027 78.4133 43.8907 78.4346 43.816ZM83.787 42.52C85.2163 42.264 86.0057 42.232 86.155 42.424C86.2297 42.552 86.3043 43.016 86.379 43.816C86.4643 44.616 86.4803 45.0693 86.427 45.176C86.3737 45.2827 86.1177 45.4053 85.659 45.544C85.211 45.672 84.7043 45.7733 84.139 45.848C83.8297 45.9013 83.627 46.0027 83.531 46.152C83.4457 46.3013 83.4563 46.5147 83.563 46.792C83.6163 46.92 83.6803 46.9947 83.755 47.016C83.8297 47.0373 84.0217 47.032 84.331 47C84.7683 46.936 85.2537 46.8453 85.787 46.728C86.235 46.632 86.5337 46.5947 86.683 46.616C86.8323 46.6373 86.955 46.728 87.051 46.888C87.147 47.08 87.131 47.2293 87.003 47.336C86.8857 47.4427 86.6457 47.5227 86.283 47.576C84.7363 47.7787 83.7923 47.8853 83.451 47.896C83.1203 47.896 82.923 47.8 82.859 47.608C82.8163 47.512 82.763 47.1867 82.699 46.632C82.6563 46.0987 82.7097 45.752 82.859 45.592C83.019 45.4213 83.4403 45.2613 84.123 45.112C84.379 45.0587 84.571 45.0213 84.699 45C84.827 44.968 84.9603 44.936 85.099 44.904C85.2377 44.8613 85.3283 44.824 85.371 44.792C85.4243 44.76 85.4777 44.728 85.531 44.696C85.5843 44.664 85.611 44.616 85.611 44.552C85.611 44.488 85.611 44.4293 85.611 44.376C85.611 44.3227 85.6057 44.2427 85.595 44.136C85.5097 43.6027 85.4243 43.2933 85.339 43.208C85.2537 43.1227 85.0083 43.112 84.603 43.176C84.315 43.2187 83.835 43.3147 83.163 43.464C82.7897 43.5493 82.5283 43.576 82.379 43.544C82.2297 43.512 82.155 43.4 82.155 43.208C82.155 43.048 82.2777 42.92 82.523 42.824C82.7683 42.7173 83.1897 42.616 83.787 42.52ZM84.683 49.064C84.7683 48.8933 84.923 48.824 85.147 48.856C85.3177 48.8667 85.4137 48.9147 85.435 49C85.4563 49.0747 85.4617 49.3253 85.451 49.752L85.403 50.616L86.267 50.52C86.6723 50.4773 87.0457 50.4293 87.387 50.376C87.5577 50.3333 87.7123 50.3813 87.851 50.52C88.0003 50.6587 88.0643 50.8187 88.043 51C88.0217 51.1173 87.963 51.192 87.867 51.224C87.7817 51.256 87.5737 51.288 87.243 51.32C86.9977 51.32 86.6403 51.3467 86.171 51.4C85.7017 51.464 85.2217 51.5333 84.731 51.608C84.251 51.6933 83.8457 51.7733 83.515 51.848C83.1523 51.9333 82.907 51.944 82.779 51.88C82.6617 51.8267 82.635 51.6987 82.699 51.496C82.7843 51.2293 83.2483 51.0267 84.091 50.888L84.539 50.808V50.056C84.539 49.5653 84.587 49.2347 84.683 49.064ZM96.7754 42.776C97.234 42.6907 97.506 42.6587 97.5914 42.68C97.6767 42.7013 97.7194 42.8187 97.7194 43.032C97.7194 43.2773 97.6714 43.496 97.5754 43.688C97.4794 43.88 97.282 44.1627 96.9834 44.536L96.5514 45.064L97.3834 45.848C97.6287 46.0827 97.8154 46.2693 97.9434 46.408C98.0714 46.5467 98.162 46.6693 98.2154 46.776C98.2687 46.8827 98.2847 46.968 98.2634 47.032C98.242 47.0853 98.1834 47.1333 98.0874 47.176C98.0234 47.208 97.97 47.2293 97.9274 47.24C97.8847 47.24 97.8154 47.2133 97.7194 47.16C97.634 47.1067 97.5327 47.0373 97.4154 46.952C97.298 46.856 97.1434 46.7227 96.9514 46.552L96.0714 45.752L95.5754 46.264C95.266 46.5413 95.0367 46.8187 94.8874 47.096C94.8127 47.2347 94.7327 47.3253 94.6474 47.368C94.5727 47.4107 94.4554 47.4267 94.2954 47.416C94.0394 47.384 93.8954 47.3253 93.8634 47.24C93.842 47.208 93.97 47.0107 94.2474 46.648C94.5247 46.2853 94.85 45.8747 95.2234 45.416C95.5967 44.9467 95.9167 44.5733 96.1834 44.296C96.578 43.88 96.6847 43.672 96.5034 43.672C96.354 43.672 95.938 43.7413 95.2554 43.88C94.5834 44.008 94.1727 44.104 94.0234 44.168C93.554 44.3387 93.3194 44.248 93.3194 43.896C93.3194 43.7467 93.3727 43.6293 93.4794 43.544C93.586 43.448 93.7567 43.3627 93.9914 43.288C94.2367 43.2133 94.5994 43.1387 95.0794 43.064C95.218 43.0427 95.3834 43.016 95.5754 42.984C95.7674 42.952 95.9327 42.9253 96.0714 42.904C96.21 42.872 96.3434 42.8453 96.4714 42.824C96.61 42.8027 96.7114 42.7867 96.7754 42.776ZM99.6074 43.208C99.7994 42.9627 100.007 42.9573 100.231 43.192C100.317 43.32 100.317 43.752 100.231 44.488C100.135 45.256 100.109 46.0347 100.151 46.824L100.231 48.04L99.8794 48.088C99.6447 48.1413 99.4954 48.1307 99.4314 48.056C99.3354 47.9707 99.314 47.176 99.3674 45.672C99.4207 44.1573 99.5007 43.336 99.6074 43.208ZM95.8634 48.824C95.97 48.6533 96.1087 48.5893 96.2794 48.632C96.3967 48.6853 96.482 48.7387 96.5354 48.792C96.5994 48.8453 96.6367 48.92 96.6474 49.016C96.658 49.112 96.6474 49.2347 96.6154 49.384C96.5727 49.608 96.5407 49.8587 96.5194 50.136V50.504L97.3514 50.488C98.2367 50.4347 98.786 50.4027 98.9994 50.392C99.4367 50.3493 99.7194 50.36 99.8474 50.424C99.9754 50.4773 99.9967 50.6107 99.9114 50.824C99.8687 50.9627 99.7674 51.0533 99.6074 51.096C99.458 51.1387 98.9567 51.2187 98.1034 51.336C97.9114 51.3573 97.698 51.3787 97.4634 51.4C97.2287 51.432 97.0154 51.4587 96.8234 51.48C96.642 51.512 96.5354 51.528 96.5034 51.528C96.1727 51.56 95.954 51.4853 95.8474 51.304C95.7514 51.1333 95.7034 50.7387 95.7034 50.12C95.7034 49.4267 95.7567 48.9947 95.8634 48.824ZM102.765 40.92C102.914 40.664 103.074 40.6747 103.245 40.952C103.383 41.1653 103.453 41.4533 103.453 41.816C103.453 42.0507 103.479 42.28 103.533 42.504C103.565 42.632 103.618 42.7067 103.693 42.728C103.778 42.7493 103.959 42.744 104.237 42.712C104.653 42.6693 104.903 42.6267 104.989 42.584C105.074 42.5307 105.229 42.5307 105.453 42.584C105.687 42.6373 105.831 42.7493 105.885 42.92C105.949 43.08 105.911 43.2293 105.773 43.368C105.634 43.496 105.453 43.5387 105.229 43.496C105.101 43.4747 104.567 43.5333 103.629 43.672C102.69 43.8107 101.981 43.9333 101.501 44.04C101.127 44.1253 100.941 44.024 100.941 43.736C100.941 43.512 101.053 43.352 101.277 43.256C101.511 43.16 101.959 43.0853 102.621 43.032C102.685 43.0213 102.711 42.6907 102.701 42.04C102.679 41.3787 102.701 41.0053 102.765 40.92ZM108.541 43.608C108.743 43.288 108.967 43.2187 109.213 43.4C109.277 43.4427 109.309 43.5387 109.309 43.688C109.319 43.8373 109.298 44.1253 109.245 44.552C109.138 45.2027 109.101 45.8907 109.133 46.616C109.154 47.0213 109.154 47.2933 109.133 47.432C109.111 47.5707 109.053 47.672 108.957 47.736C108.775 47.8427 108.631 47.8107 108.525 47.64C108.418 47.4587 108.359 47.1493 108.349 46.712C108.338 46.168 108.285 45.88 108.189 45.848C108.103 45.816 107.933 45.832 107.677 45.896L107.293 46.024V47C107.293 47.4373 107.277 47.7147 107.245 47.832C107.223 47.9493 107.159 48.0187 107.053 48.04C106.797 48.0827 106.637 47.9813 106.573 47.736C106.509 47.4907 106.477 46.8453 106.477 45.8C106.477 44.488 106.535 43.752 106.653 43.592C106.727 43.496 106.791 43.4427 106.845 43.432C106.898 43.4213 106.967 43.4427 107.053 43.496C107.213 43.592 107.303 43.8747 107.325 44.344C107.346 44.7387 107.41 44.984 107.517 45.08C107.623 45.176 107.821 45.1653 108.109 45.048C108.29 44.9733 108.391 44.904 108.413 44.84C108.445 44.776 108.445 44.632 108.413 44.408C108.359 44.088 108.402 43.8213 108.541 43.608ZM103.053 44.6C103.362 44.4827 103.581 44.4507 103.709 44.504C103.997 44.6107 104.189 44.68 104.285 44.712C104.413 44.7653 104.525 44.8187 104.621 44.872C104.717 44.9147 104.807 44.9733 104.893 45.048C104.978 45.112 105.047 45.1867 105.101 45.272C105.165 45.3573 105.229 45.4587 105.293 45.576C105.517 46.0347 105.527 46.52 105.325 47.032C105.122 47.5333 104.759 47.912 104.237 48.168C104.077 48.2533 103.789 48.3013 103.373 48.312C102.957 48.312 102.637 48.2747 102.413 48.2C102.231 48.1253 102.066 48.0187 101.917 47.88C101.778 47.7413 101.661 47.5813 101.565 47.4C101.469 47.208 101.405 47.0053 101.373 46.792C101.341 46.5467 101.335 46.36 101.357 46.232C101.389 46.0933 101.469 45.9173 101.597 45.704C101.682 45.5653 101.773 45.448 101.869 45.352C101.965 45.2453 102.071 45.1493 102.189 45.064C102.317 44.968 102.45 44.888 102.589 44.824C102.727 44.7493 102.882 44.6747 103.053 44.6ZM104.493 45.672C104.151 45.2773 103.65 45.2293 102.989 45.528C102.701 45.6667 102.493 45.8213 102.365 45.992C102.247 46.1627 102.189 46.3867 102.189 46.664C102.189 46.9093 102.301 47.1173 102.525 47.288C102.759 47.4587 103.01 47.5493 103.277 47.56C103.543 47.5707 103.789 47.496 104.013 47.336C104.354 47.048 104.567 46.76 104.653 46.472C104.738 46.184 104.685 45.9173 104.493 45.672ZM105.821 48.92C106.002 48.8027 106.247 48.7333 106.557 48.712C106.866 48.6907 107.138 48.7227 107.373 48.808C107.586 48.8933 107.847 49.0853 108.157 49.384C108.338 49.5653 108.461 49.72 108.525 49.848C108.589 49.976 108.621 50.1253 108.621 50.296C108.61 51.0533 108.402 51.6773 107.997 52.168C107.602 52.6693 107.143 52.872 106.621 52.776C106.418 52.744 106.183 52.6533 105.917 52.504C105.661 52.3653 105.453 52.2053 105.293 52.024C104.813 51.5653 104.621 51.0373 104.717 50.44C104.823 49.832 105.191 49.3253 105.821 48.92ZM107.389 49.704C107.175 49.5333 106.978 49.448 106.797 49.448C106.669 49.448 106.525 49.496 106.365 49.592C106.215 49.688 106.071 49.8107 105.933 49.96C105.805 50.1093 105.703 50.264 105.629 50.424C105.554 50.6267 105.522 50.776 105.533 50.872C105.554 50.9573 105.645 51.1173 105.805 51.352C106.093 51.768 106.407 51.9707 106.749 51.96C107.101 51.96 107.394 51.7467 107.629 51.32C107.97 50.6373 107.89 50.0987 107.389 49.704ZM111.68 41.16C112.128 41.032 112.608 40.952 113.12 40.92C113.632 40.888 113.957 40.9147 114.096 41C114.256 41.096 114.315 41.2987 114.272 41.608C114.261 41.6933 113.893 41.736 113.168 41.736C112.432 41.736 111.872 41.8267 111.488 42.008L110.896 42.248L110.816 43.032C110.763 43.5333 110.763 43.8373 110.816 43.944C110.848 44.008 111.099 44.024 111.568 43.992C112.037 43.96 112.571 43.8907 113.168 43.784C113.488 43.7307 113.707 43.7093 113.824 43.72C113.941 43.72 114.037 43.7573 114.112 43.832C114.229 43.9387 114.261 44.088 114.208 44.28C114.155 44.4613 114.059 44.552 113.92 44.552C113.099 44.584 112.293 44.7067 111.504 44.92C111.131 45.016 110.821 45.0533 110.576 45.032C110.341 45.0107 110.192 44.936 110.128 44.808C110.043 44.6693 109.989 44.1307 109.968 43.192C109.957 42.424 109.989 41.912 110.064 41.656C110.139 41.3893 110.293 41.2827 110.528 41.336C110.699 41.3893 111.083 41.3307 111.68 41.16ZM115.44 42.424C115.493 42.328 115.579 42.28 115.696 42.28C115.813 42.28 115.909 42.328 115.984 42.424C116.069 42.552 116.128 43.4853 116.16 45.224C116.181 46.376 116.181 47.1067 116.16 47.416C116.149 47.7253 116.101 47.8907 116.016 47.912C115.877 47.9227 115.739 47.88 115.6 47.784C115.504 47.7093 115.445 47.528 115.424 47.24C115.403 46.9413 115.381 46.232 115.36 45.112C115.349 43.4373 115.376 42.5413 115.44 42.424ZM111.568 45.56C111.6 45.464 111.717 45.416 111.92 45.416C112.219 45.416 112.368 45.7307 112.368 46.36C112.368 46.52 112.384 46.616 112.416 46.648C112.459 46.6693 112.56 46.664 112.72 46.632C113.029 46.568 113.424 46.52 113.904 46.488C114.245 46.4453 114.469 46.4347 114.576 46.456C114.693 46.4667 114.768 46.52 114.8 46.616C114.907 46.872 114.837 47.0587 114.592 47.176C114.357 47.2827 113.765 47.4053 112.816 47.544C112.133 47.6507 111.579 47.7733 111.152 47.912C110.832 48.008 110.629 48.056 110.544 48.056C110.459 48.0453 110.363 47.992 110.256 47.896C110.107 47.736 110.085 47.5867 110.192 47.448C110.309 47.2987 110.533 47.1867 110.864 47.112L111.44 46.968L111.472 46.36C111.483 45.9867 111.515 45.72 111.568 45.56ZM114.912 49.096C114.891 48.7867 114.891 48.6 114.912 48.536C114.933 48.472 115.003 48.44 115.12 48.44C115.323 48.44 115.483 48.52 115.6 48.68C115.717 48.84 115.755 49.0267 115.712 49.24C115.669 49.5067 115.648 50.0293 115.648 50.808C115.648 51.544 115.6 52.0133 115.504 52.216C115.408 52.4187 115.195 52.5093 114.864 52.488C114.523 52.4667 114.048 52.52 113.44 52.648C112.885 52.7547 112.528 52.776 112.368 52.712C112.219 52.6587 112.096 52.456 112 52.104C111.915 51.784 111.872 51.2507 111.872 50.504C111.883 49.7467 111.936 49.32 112.032 49.224C112.171 49.1067 112.299 49.064 112.416 49.096C112.544 49.1173 112.64 49.2133 112.704 49.384C112.768 49.5547 112.773 49.7413 112.72 49.944C112.688 50.0507 112.693 50.12 112.736 50.152C112.789 50.184 112.912 50.1947 113.104 50.184C113.413 50.184 113.803 50.1093 114.272 49.96L114.96 49.752L114.912 49.096ZM114.896 51.208C114.896 51.016 114.832 50.888 114.704 50.824C114.576 50.7493 114.405 50.7493 114.192 50.824C114.128 50.856 114 50.8933 113.808 50.936C113.627 50.968 113.445 50.9947 113.264 51.016C113.083 51.048 112.939 51.0693 112.832 51.08C112.768 51.08 112.747 51.1973 112.768 51.432C112.789 51.592 112.827 51.688 112.88 51.72C112.933 51.752 113.077 51.7627 113.312 51.752C113.664 51.72 114.016 51.6827 114.368 51.64C114.603 51.608 114.747 51.5707 114.8 51.528C114.864 51.4853 114.896 51.3787 114.896 51.208ZM123.031 43.512C123.106 43.448 123.229 43.4267 123.399 43.448C123.474 43.4587 123.522 43.4747 123.543 43.496C123.575 43.5173 123.602 43.5813 123.623 43.688C123.655 43.7947 123.671 43.9333 123.671 44.104C123.682 44.264 123.693 44.5147 123.703 44.856C123.725 45.848 123.703 47.0587 123.639 48.488L123.543 50.76H123.159H122.775L122.791 49.768C122.791 48.072 122.813 46.616 122.855 45.4C122.909 44.184 122.967 43.5547 123.031 43.512ZM117.015 43.896C117.133 43.768 117.218 43.6987 117.271 43.688C117.325 43.6667 117.41 43.6933 117.527 43.768C117.623 43.832 117.682 44.5093 117.703 45.8L117.751 47.752H119.079C119.965 47.752 120.562 47.7253 120.871 47.672C121.138 47.6187 121.325 47.64 121.431 47.736C121.549 47.8213 121.591 47.992 121.559 48.248L121.527 48.584L119.367 48.616C117.927 48.6587 117.159 48.6267 117.063 48.52C116.978 48.392 116.914 47.6347 116.871 46.248C116.839 45.3093 116.829 44.712 116.839 44.456C116.861 44.1893 116.919 44.0027 117.015 43.896ZM131.088 43.656C131.12 43.592 131.189 43.5547 131.296 43.544C131.413 43.5333 131.541 43.56 131.68 43.624C131.765 43.656 131.818 43.768 131.84 43.96C131.872 44.152 131.888 44.552 131.888 45.16C131.888 46.152 131.909 46.664 131.952 46.696C131.973 46.728 132.357 46.7173 133.104 46.664C133.786 46.5893 134.234 46.5733 134.448 46.616C134.672 46.6587 134.784 46.7813 134.784 46.984C134.784 47.0267 134.778 47.064 134.768 47.096C134.768 47.128 134.752 47.16 134.72 47.192C134.698 47.224 134.672 47.2507 134.64 47.272C134.618 47.2933 134.576 47.3147 134.512 47.336C134.448 47.3573 134.378 47.3733 134.304 47.384C134.229 47.3947 134.128 47.4107 134 47.432C133.882 47.4427 133.754 47.4533 133.616 47.464C133.488 47.4747 133.317 47.4907 133.104 47.512C132.368 47.5653 131.968 47.64 131.904 47.736C131.861 47.8107 131.829 48.2693 131.808 49.112C131.797 49.9333 131.776 50.3547 131.744 50.376C131.733 50.3973 131.632 50.44 131.44 50.504C131.216 50.568 131.077 50.504 131.024 50.312C130.96 50.0773 130.96 49.304 131.024 47.992C131.109 46.5093 131.13 45.432 131.088 44.76C131.024 44.0987 131.024 43.7307 131.088 43.656ZM126.544 44.104C127.258 43.9867 127.765 43.9333 128.064 43.944C128.362 43.944 128.533 44.0027 128.576 44.12C128.65 44.312 128.618 44.4613 128.48 44.568C128.352 44.6747 128.117 44.7333 127.776 44.744C126.805 44.7547 126.058 44.8773 125.536 45.112L125.136 45.256L125.184 46.44C125.205 46.76 125.216 46.9947 125.216 47.144C125.226 47.2933 125.248 47.448 125.28 47.608C125.312 47.768 125.344 47.8747 125.376 47.928C125.408 47.9707 125.466 48.024 125.552 48.088C125.648 48.1413 125.733 48.1733 125.808 48.184C125.893 48.1947 126.021 48.2053 126.192 48.216C126.672 48.2587 127.162 48.2533 127.664 48.2C128.464 48.0827 128.864 48.1947 128.864 48.536C128.864 48.664 128.842 48.76 128.8 48.824C128.768 48.888 128.666 48.9413 128.496 48.984C128.336 49.0267 128.122 49.0533 127.856 49.064C127.6 49.0747 127.216 49.08 126.704 49.08C126.608 49.08 126.474 49.08 126.304 49.08C126.048 49.08 125.866 49.08 125.76 49.08C125.653 49.08 125.514 49.0693 125.344 49.048C125.184 49.0267 125.082 49.016 125.04 49.016C124.997 49.0053 124.933 48.968 124.848 48.904C124.762 48.8293 124.709 48.7707 124.688 48.728C124.677 48.6747 124.65 48.5787 124.608 48.44C124.576 48.3013 124.554 48.184 124.544 48.088C124.544 47.9813 124.528 47.816 124.496 47.592C124.485 47.432 124.474 47.304 124.464 47.208C124.368 46.2373 124.325 45.576 124.336 45.224C124.346 44.872 124.416 44.664 124.544 44.6C125.002 44.4187 125.669 44.2533 126.544 44.104Z" fill="#999999"/>
<path d="M34.152 43.656C34.184 43.592 34.2533 43.5547 34.36 43.544C34.4773 43.5333 34.6053 43.56 34.744 43.624C34.8293 43.656 34.8827 43.768 34.904 43.96C34.936 44.152 34.952 44.552 34.952 45.16C34.952 46.152 34.9733 46.664 35.016 46.696C35.0373 46.728 35.4213 46.7173 36.168 46.664C36.8507 46.5893 37.2987 46.5733 37.512 46.616C37.736 46.6587 37.848 46.7813 37.848 46.984C37.848 47.0267 37.8427 47.064 37.832 47.096C37.832 47.128 37.816 47.16 37.784 47.192C37.7627 47.224 37.736 47.2507 37.704 47.272C37.6827 47.2933 37.64 47.3147 37.576 47.336C37.512 47.3573 37.4427 47.3733 37.368 47.384C37.2933 47.3947 37.192 47.4107 37.064 47.432C36.9467 47.4427 36.8187 47.4533 36.68 47.464C36.552 47.4747 36.3813 47.4907 36.168 47.512C35.432 47.5653 35.032 47.64 34.968 47.736C34.9253 47.8107 34.8933 48.2693 34.872 49.112C34.8613 49.9333 34.84 50.3547 34.808 50.376C34.7973 50.3973 34.696 50.44 34.504 50.504C34.28 50.568 34.1413 50.504 34.088 50.312C34.024 50.0773 34.024 49.304 34.088 47.992C34.1733 46.5093 34.1947 45.432 34.152 44.76C34.088 44.0987 34.088 43.7307 34.152 43.656ZM29.608 44.104C30.3227 43.9867 30.8293 43.9333 31.128 43.944C31.4267 43.944 31.5973 44.0027 31.64 44.12C31.7147 44.312 31.6827 44.4613 31.544 44.568C31.416 44.6747 31.1813 44.7333 30.84 44.744C29.8693 44.7547 29.1227 44.8773 28.6 45.112L28.2 45.256L28.248 46.44C28.2693 46.76 28.28 46.9947 28.28 47.144C28.2907 47.2933 28.312 47.448 28.344 47.608C28.376 47.768 28.408 47.8747 28.44 47.928C28.472 47.9707 28.5307 48.024 28.616 48.088C28.712 48.1413 28.7973 48.1733 28.872 48.184C28.9573 48.1947 29.0853 48.2053 29.256 48.216C29.736 48.2587 30.2267 48.2533 30.728 48.2C31.528 48.0827 31.928 48.1947 31.928 48.536C31.928 48.664 31.9067 48.76 31.864 48.824C31.832 48.888 31.7307 48.9413 31.56 48.984C31.4 49.0267 31.1867 49.0533 30.92 49.064C30.664 49.0747 30.28 49.08 29.768 49.08C29.672 49.08 29.5387 49.08 29.368 49.08C29.112 49.08 28.9307 49.08 28.824 49.08C28.7173 49.08 28.5787 49.0693 28.408 49.048C28.248 49.0267 28.1467 49.016 28.104 49.016C28.0613 49.0053 27.9973 48.968 27.912 48.904C27.8267 48.8293 27.7733 48.7707 27.752 48.728C27.7413 48.6747 27.7147 48.5787 27.672 48.44C27.64 48.3013 27.6187 48.184 27.608 48.088C27.608 47.9813 27.592 47.816 27.56 47.592C27.5493 47.432 27.5387 47.304 27.528 47.208C27.432 46.2373 27.3893 45.576 27.4 45.224C27.4107 44.872 27.48 44.664 27.608 44.6C28.0667 44.4187 28.7333 44.2533 29.608 44.104ZM40.042 41.608C40.298 41.48 40.5967 41.416 40.938 41.416C41.2793 41.416 41.5727 41.48 41.818 41.608C42.1273 41.7787 42.442 42.024 42.762 42.344C43.0927 42.664 43.2793 42.9147 43.322 43.096C43.3753 43.32 43.3807 43.6133 43.338 43.976C43.2953 44.3387 43.2207 44.632 43.114 44.856C42.9753 45.144 42.7033 45.4213 42.298 45.688C41.8927 45.944 41.53 46.0773 41.21 46.088C40.9433 46.088 40.6607 46.0347 40.362 45.928C40.0633 45.8107 39.7807 45.656 39.514 45.464C39.2473 45.272 39.034 45.0587 38.874 44.824C38.6287 44.4613 38.5007 44.1573 38.49 43.912C38.4793 43.656 38.57 43.3253 38.762 42.92C39.0713 42.3333 39.498 41.896 40.042 41.608ZM42.154 42.744C41.8233 42.4453 41.5567 42.2747 41.354 42.232C41.1513 42.1787 40.874 42.2373 40.522 42.408C40.1807 42.568 39.9033 42.776 39.69 43.032C39.53 43.2027 39.434 43.3467 39.402 43.464C39.37 43.5813 39.37 43.7307 39.402 43.912C39.4447 44.1893 39.5833 44.4453 39.818 44.68C40.0527 44.9147 40.3353 45.08 40.666 45.176C40.9967 45.2613 41.2527 45.2773 41.434 45.224C41.626 45.1707 41.866 45 42.154 44.712C42.2607 44.616 42.3407 44.536 42.394 44.472C42.458 44.408 42.506 44.3387 42.538 44.264C42.57 44.1893 42.5913 44.1147 42.602 44.04C42.6233 43.9653 42.634 43.8693 42.634 43.752C42.634 43.528 42.602 43.352 42.538 43.224C42.4847 43.096 42.3567 42.936 42.154 42.744ZM43.578 46.888C43.642 46.8347 43.7593 46.872 43.93 47C44.1007 47.1173 44.202 47.24 44.234 47.368C44.266 47.5173 44.2447 47.624 44.17 47.688C44.0953 47.7627 43.466 47.8213 42.282 47.864C41.13 47.896 40.4047 47.96 40.106 48.056C39.498 48.2267 39.13 48.2107 39.002 48.008C38.9273 47.8907 38.9913 47.7307 39.194 47.528C39.4393 47.2827 40.5913 47.112 42.65 47.016C43.2047 47.0053 43.514 46.9627 43.578 46.888ZM41.93 48.728C42.8367 48.5467 43.418 48.552 43.674 48.744C43.7807 48.8187 43.8447 48.936 43.866 49.096C43.8873 49.2453 43.8873 49.5813 43.866 50.104C43.8233 50.9253 43.754 51.384 43.658 51.48C43.5833 51.5547 43.1513 51.656 42.362 51.784C41.5727 51.9227 40.9913 51.992 40.618 51.992C40.3513 51.992 40.1807 51.9547 40.106 51.88C40.0313 51.8053 39.9993 51.304 40.01 50.376L40.042 49.016L40.666 48.92C41.1673 48.856 41.5887 48.792 41.93 48.728ZM43.066 49.512L42.57 49.48C42.218 49.4693 41.834 49.5387 41.418 49.688C41.1513 49.784 40.9753 49.8693 40.89 49.944C40.8153 50.0187 40.762 50.1467 40.73 50.328C40.6447 50.7227 40.6873 50.952 40.858 51.016C41.0287 51.08 41.482 51.0427 42.218 50.904L43.034 50.76L43.05 50.136L43.066 49.512ZM51.7694 42.616C52.804 42.4987 53.46 42.44 53.7374 42.44C54.0147 42.4293 54.1907 42.472 54.2654 42.568C54.34 42.664 54.34 42.7867 54.2654 42.936C54.2014 43.0747 54.0094 43.3627 53.6894 43.8L53.2734 44.344L53.5614 44.568C53.7534 44.7173 53.8814 44.792 53.9454 44.792C53.9987 44.792 54.196 44.8987 54.5374 45.112C54.868 45.3467 55.0334 45.5547 55.0334 45.736C55.0334 46.1627 54.6227 46.1253 53.8014 45.624C53.62 45.5067 53.492 45.4267 53.4174 45.384C53.3427 45.3413 53.2467 45.2933 53.1294 45.24C53.012 45.1867 52.932 45.1547 52.8894 45.144C52.8574 45.1227 52.7934 45.1173 52.6974 45.128C52.6014 45.1387 52.5374 45.1547 52.5054 45.176C52.484 45.1973 52.4254 45.2453 52.3294 45.32C52.244 45.384 52.1747 45.448 52.1214 45.512C52.068 45.5653 51.9827 45.6613 51.8654 45.8C51.588 46.0987 51.38 46.3013 51.2414 46.408C51.1027 46.5147 50.98 46.5573 50.8734 46.536C50.532 46.4827 50.4627 46.2907 50.6654 45.96C50.8254 45.7147 51.172 45.3253 51.7054 44.792C52.6654 43.832 53.0494 43.3307 52.8574 43.288C52.836 43.2773 52.8147 43.272 52.7934 43.272C52.7187 43.272 52.2067 43.3627 51.2574 43.544C50.6494 43.6507 50.244 43.7093 50.0414 43.72C49.8494 43.7307 49.716 43.6987 49.6414 43.624C49.524 43.5067 49.492 43.3787 49.5454 43.24C49.6094 43.0907 49.732 42.984 49.9134 42.92C50.0627 42.856 50.6814 42.7547 51.7694 42.616ZM54.4254 47.608C54.66 47.48 54.8734 47.4373 55.0654 47.48C55.268 47.5227 55.4067 47.6453 55.4814 47.848C55.5454 48.008 55.556 48.136 55.5134 48.232C55.4707 48.3173 55.3747 48.3813 55.2254 48.424C55.0867 48.456 54.884 48.4613 54.6174 48.44C54.1587 48.4293 53.8974 48.4773 53.8334 48.584C53.7587 48.7013 53.7214 49.24 53.7214 50.2C53.7214 50.9147 53.7054 51.336 53.6734 51.464C53.652 51.592 53.5667 51.6667 53.4174 51.688C53.2147 51.72 53.0814 51.6773 53.0174 51.56C52.932 51.4213 52.9054 50.92 52.9374 50.056C52.948 49.16 52.9374 48.6853 52.9054 48.632C52.8734 48.6 52.516 48.6267 51.8334 48.712C50.9694 48.8187 50.436 48.8667 50.2334 48.856C50.0307 48.8453 49.9187 48.76 49.8974 48.6C49.8867 48.536 49.908 48.456 49.9614 48.36C50.0147 48.264 50.0734 48.184 50.1374 48.12C50.276 48.0027 50.5214 47.9227 50.8734 47.88C51.236 47.8373 51.9827 47.8107 53.1134 47.8C53.796 47.7787 54.2334 47.7147 54.4254 47.608Z" fill="#F49393"/>
</g>
<defs>
<filter id="filter0_d_2_2332" x="0" y="0" width="179" height="84.1865" filterUnits="userSpaceOnUse" color-interpolation-filters="sRGB">
<feFlood flood-opacity="0" result="BackgroundImageFix"/>
<feColorMatrix in="SourceAlpha" type="matrix" values="0 0 0 0 0 0 0 0 0 0 0 0 0 0 0 0 0 0 127 0" result="hardAlpha"/>
<feOffset dy="2"/>
<feGaussianBlur stdDeviation="3.5"/>
<feComposite in2="hardAlpha" operator="out"/>
<feColorMatrix type="matrix" values="0 0 0 0 0.475 0 0 0 0 0.475 0 0 0 0 0.475 0 0 0 0.1 0"/>
<feBlend mode="normal" in2="BackgroundImageFix" result="effect1_dropShadow_2_2332"/>
<feBlend mode="normal" in="SourceGraphic" in2="effect1_dropShadow_2_2332" result="shape"/>
</filter>
</defs>
</svg>
