<svg width="81" height="82" viewBox="0 0 90 91" fill="none" xmlns="http://www.w3.org/2000/svg">
<path d="M10.2088 21.4514L4.36042 18.7446C1.56436 24.8067 0 31.5533 0 38.6692C0 52.8559 6.20798 65.5835 16.0436 74.2937L33.2336 53.6486C34.1956 54.4547 35.243 55.1663 36.3623 55.7653L38.111 53.0676C33.4134 50.005 30.3027 44.7042 30.3027 38.6692C30.3027 37.4667 30.433 36.2957 30.6668 35.1653L8.42865 24.8787C8.96808 23.7033 9.57045 22.5638 10.2088 21.4514Z" fill="#9C7DB5"/>
<path d="M47.2499 0C31.413 0 17.5945 8.62915 10.2088 21.4513L31.885 31.4766C31.3456 32.643 30.941 33.8771 30.6713 35.1651L33.2291 36.3496C35.679 31.0442 41.0329 27.3602 47.2499 27.3602C55.7774 27.3602 62.6912 34.2869 62.6912 42.8305C62.6912 51.3741 56.2584 57.8054 48.149 58.2738L49.7403 85.5889C72.1897 84.2963 90 65.6509 90 42.8305C90 20.0101 70.8591 0 47.2499 0Z" fill="#F79A9A"/>
<path d="M10.2088 21.4514C9.56596 22.5638 8.96808 23.7078 8.42865 24.8787L30.6713 35.1652C30.941 33.8772 31.3456 32.6387 31.885 31.4767L10.2088 21.4514Z" fill="#AA4F7D"/>
<path d="M16.0436 74.2936L12.2496 78.8514C19.6039 85.0125 28.7653 89.1784 38.992 90.4079C39.99 90.5295 40.979 90.6151 41.9679 90.6782L43.9683 57.9225C43.6132 57.9 43.2536 57.8685 42.8939 57.8279C40.5384 57.5442 38.3402 56.8281 36.3668 55.7697L21.6088 78.5406C19.6489 77.2615 17.7923 75.8429 16.0436 74.2981V74.2936Z" fill="#C7A7D6"/>
<path d="M16.0436 74.2935C17.7878 75.8383 19.6489 77.2614 21.6088 78.536L36.3668 55.7651C35.2475 55.1616 34.2001 54.4545 33.2381 53.6484L16.0481 74.2935H16.0436Z" fill="#7A4EA5"/>
<path d="M47.7804 13.6823C47.8388 16.254 49.9201 18.2851 52.433 18.2266C54.9458 18.168 56.9328 16.0378 56.8743 13.4662C56.8159 10.8945 54.7346 8.86334 52.2217 8.92189C49.7088 8.98044 47.7219 11.1107 47.7804 13.6823Z" fill="white"/>
<path d="M47.2499 13.6733C47.3039 16.0963 49.2683 18.0104 51.6328 17.9563C53.9973 17.9023 55.8719 15.8936 55.8179 13.4706C55.764 11.0476 53.7995 9.1335 51.435 9.18755C49.0705 9.24159 47.196 11.2503 47.2499 13.6733Z" fill="#403E3D"/>
<path d="M35.4903 14.0068C35.5487 16.5784 37.63 18.6096 40.1429 18.551C42.6557 18.4925 44.6427 16.3622 44.5842 13.7906C44.5258 11.219 42.4445 9.18777 39.9316 9.24632C37.4187 9.30487 35.4318 11.4351 35.4903 14.0068Z" fill="white"/>
<path d="M35.1711 14.0022C35.225 16.4252 37.1894 18.3393 39.554 18.2853C41.9185 18.2312 43.793 16.2226 43.7391 13.7995C43.6851 11.3765 41.7207 9.46245 39.3562 9.5165C36.9916 9.57054 35.1171 11.5792 35.1711 14.0022Z" fill="#403E3D"/>
<path d="M38.4346 20.9153C38.4346 20.9153 45.218 26.0451 54.5772 20.3028" stroke="#403E3D" stroke-width="2" stroke-linecap="round" stroke-linejoin="round"/>
<path d="M54.5772 19.5823L54.9728 21.0775" stroke="#403E3D" stroke-width="2" stroke-linecap="round" stroke-linejoin="round"/>
</svg>
