<svg width="91" height="17" viewBox="0 0 101 19" fill="none" xmlns="http://www.w3.org/2000/svg">
<path d="M3.912 2.04C4.216 1.736 4.424 1.552 4.536 1.488C4.648 1.424 4.768 1.44 4.896 1.536C5.088 1.696 5.176 1.848 5.16 1.992C5.144 2.12 5.024 2.328 4.8 2.616C4.56 2.92 4.472 3.128 4.536 3.24C4.6 3.352 5.264 3.824 6.528 4.656C7.056 5.008 7.448 5.28 7.704 5.472C7.96 5.664 8.136 5.824 8.232 5.952C8.344 6.08 8.4 6.208 8.4 6.336C8.4 6.816 8.08 6.904 7.44 6.6C7.04 6.408 6.48 6.064 5.76 5.568C5.232 5.232 4.76 4.952 4.344 4.728C3.944 4.504 3.712 4.408 3.648 4.44C3.488 4.488 3.184 4.904 2.736 5.688C2.304 6.472 2.056 7.032 1.992 7.368C1.928 7.704 1.728 7.904 1.392 7.968C1.056 8.016 0.816 7.904 0.672 7.632C0.592 7.456 0.568 7.288 0.6 7.128C0.648 6.952 0.768 6.688 0.96 6.336C1.328 5.648 1.808 4.872 2.4 4.008C3.008 3.128 3.512 2.472 3.912 2.04ZM4.464 8.76C4.8 8.36 5.024 8.432 5.136 8.976C5.216 9.344 5.264 9.984 5.28 10.896L5.304 12.768L6.24 12.792C7.456 12.808 8.216 12.84 8.52 12.888C8.84 12.92 9.032 13.016 9.096 13.176C9.192 13.384 9.08 13.6 8.76 13.824C8.584 13.968 8.4 14.056 8.208 14.088C8.016 14.12 7.68 14.112 7.2 14.064C6.448 14 5.288 14.096 3.72 14.352C3.08 14.464 2.584 14.544 2.232 14.592C1.896 14.64 1.608 14.664 1.368 14.664C1.144 14.648 1 14.608 0.936 14.544C0.872 14.464 0.84 14.352 0.84 14.208C0.84 13.936 0.96 13.744 1.2 13.632C1.44 13.504 1.896 13.4 2.568 13.32L3.84 13.2L3.936 11.664C4.032 10.048 4.208 9.08 4.464 8.76ZM25.206 4.128C25.398 4.048 25.598 4.016 25.806 4.032C26.014 4.032 26.15 4.08 26.214 4.176C26.278 4.272 26.238 5.224 26.094 7.032C25.966 8.664 25.854 10.256 25.758 11.808C25.694 12.88 25.59 13.568 25.446 13.872C25.318 14.16 25.07 14.24 24.702 14.112C24.542 14.048 24.446 13.736 24.414 13.176C24.398 12.6 24.454 11.648 24.582 10.32L24.702 8.856L23.838 8.952C23.246 9.032 22.678 9.192 22.134 9.432L21.222 9.792V11.784C21.206 12.568 21.174 13.104 21.126 13.392C21.078 13.664 20.99 13.848 20.862 13.944C20.27 14.392 19.982 14.16 19.998 13.248C20.03 11.552 20.094 9.712 20.19 7.728C20.302 5.728 20.398 4.656 20.478 4.512C20.558 4.336 20.702 4.232 20.91 4.2C21.134 4.168 21.35 4.224 21.558 4.368C21.654 4.432 21.702 4.576 21.702 4.8C21.718 5.024 21.678 5.48 21.582 6.168C21.422 7.256 21.382 7.832 21.462 7.896C21.494 7.944 21.67 7.952 21.99 7.92C22.326 7.888 22.678 7.84 23.046 7.776C23.43 7.712 23.79 7.64 24.126 7.56C24.478 7.464 24.686 7.392 24.75 7.344C24.894 7.216 24.966 6.664 24.966 5.688C24.966 4.712 25.046 4.192 25.206 4.128ZM14.79 5.208C15.606 5.048 16.118 4.968 16.326 4.968C16.534 4.968 16.71 5.048 16.854 5.208C16.982 5.368 17.03 5.664 16.998 6.096C16.982 6.512 16.886 7.288 16.71 8.424C16.694 8.552 16.63 8.96 16.518 9.648C16.406 10.336 16.326 10.848 16.278 11.184C16.15 12.16 16.022 12.696 15.894 12.792C15.83 12.84 15.71 12.864 15.534 12.864C15.182 12.864 14.974 12.728 14.91 12.456C14.862 12.184 14.918 11.6 15.078 10.704C15.51 8.336 15.726 6.984 15.726 6.648C15.726 6.536 15.71 6.456 15.678 6.408C15.646 6.344 15.598 6.32 15.534 6.336C15.406 6.432 14.774 6.568 13.638 6.744C12.518 6.92 11.766 7.008 11.382 7.008C10.934 7.008 10.63 6.912 10.47 6.72C10.182 6.384 10.454 6.104 11.286 5.88C11.542 5.816 11.862 5.752 12.246 5.688C13.158 5.544 14.006 5.384 14.79 5.208ZM30.7479 1.944C31.2919 1.88 32.0359 1.816 32.9799 1.752C33.2359 1.736 33.4359 1.856 33.5799 2.112C33.7239 2.368 33.7319 2.616 33.6039 2.856C33.5399 2.968 33.3799 3.04 33.1239 3.072C32.8679 3.088 32.3799 3.088 31.6599 3.072C30.4919 3.024 29.7159 3.088 29.3319 3.264C28.9479 3.44 28.7159 3.856 28.6359 4.512C28.5719 5.072 28.5879 5.504 28.6839 5.808C28.7799 6.016 28.8759 6.128 28.9719 6.144C29.0679 6.144 29.3719 6.08 29.8839 5.952C30.6039 5.776 31.3799 5.688 32.2119 5.688C32.6119 5.688 32.9079 5.696 33.0999 5.712C33.3079 5.728 33.4599 5.76 33.5559 5.808C33.6519 5.856 33.7239 5.936 33.7719 6.048C33.9799 6.416 33.7639 6.672 33.1239 6.816C32.8039 6.896 32.3239 6.96 31.6839 7.008C30.4839 7.136 29.7079 7.256 29.3559 7.368C29.0999 7.48 28.9399 7.576 28.8759 7.656C28.8119 7.736 28.8039 7.872 28.8519 8.064C28.8839 8.288 28.9319 8.424 28.9959 8.472C29.0759 8.504 29.2599 8.496 29.5479 8.448C31.3399 8.144 32.5719 7.992 33.2439 7.992C33.9159 7.992 34.2759 8.144 34.3239 8.448C34.3239 8.464 34.3239 8.48 34.3239 8.496C34.3559 8.656 34.2839 8.776 34.1079 8.856C33.8519 8.952 32.6359 9.216 30.4599 9.648L30.4359 9.672H30.4119H30.3879H30.3639H30.3399L30.3159 9.696H30.2919H30.2679H30.2439H30.2199L30.1959 9.72H30.1719H30.1479H30.1239H30.0999L30.0759 9.744H30.0519C29.3639 9.888 28.9079 9.96 28.6839 9.96C28.4759 9.96 28.3159 9.904 28.2039 9.792C27.8839 9.488 27.6439 8.024 27.4839 5.4C27.4519 5.016 27.4359 4.696 27.4359 4.44C27.4359 4.184 27.4519 3.936 27.4839 3.696C27.5159 3.44 27.5559 3.24 27.6039 3.096C27.6519 2.952 27.7399 2.816 27.8679 2.688C27.9959 2.544 28.1319 2.44 28.2759 2.376C28.4199 2.312 28.6199 2.248 28.8759 2.184C29.1319 2.12 29.4039 2.072 29.6919 2.04C29.9799 2.008 30.3319 1.976 30.7479 1.944ZM35.9799 3.144C36.0439 2.968 36.1879 2.872 36.4119 2.856C36.6359 2.84 36.8119 2.912 36.9399 3.072C37.0199 3.2 37.0599 4.384 37.0599 6.624C37.0759 8.864 37.0439 10.032 36.9639 10.128C36.8999 10.176 36.6999 10.144 36.3639 10.032L35.8599 9.84V6.648C35.8599 4.536 35.8999 3.368 35.9799 3.144ZM34.0839 11.088C34.4199 11.056 34.6279 11.024 34.7079 10.992C34.7719 10.96 34.9079 11.008 35.1159 11.136C35.3399 11.248 35.5719 11.416 35.8119 11.64C36.0519 11.848 36.2359 12.048 36.3639 12.24C36.5879 12.544 36.7319 12.8 36.7959 13.008C36.8599 13.216 36.8839 13.56 36.8679 14.04C36.8519 14.504 36.8039 14.864 36.7239 15.12C36.6439 15.376 36.4919 15.656 36.2679 15.96C35.5159 17 34.6279 17.408 33.6039 17.184C33.0919 17.072 32.5639 16.8 32.0199 16.368C31.4759 15.952 31.0999 15.504 30.8919 15.024C30.6519 14.544 30.5719 14.104 30.6519 13.704C30.7319 13.288 30.9799 12.848 31.3959 12.384C31.5399 12.208 31.6759 12.064 31.8039 11.952C31.9319 11.84 32.0679 11.744 32.2119 11.664C32.3719 11.568 32.5399 11.488 32.7159 11.424C32.9079 11.344 33.1079 11.28 33.3159 11.232C33.5399 11.184 33.7959 11.136 34.0839 11.088ZM35.3079 12.816C35.0519 12.512 34.8039 12.336 34.5639 12.288C34.3239 12.224 33.9799 12.272 33.5319 12.432C33.2279 12.528 32.9479 12.664 32.6919 12.84C32.4519 13.016 32.2599 13.216 32.1159 13.44C31.9719 13.648 31.8999 13.848 31.8999 14.04C31.8999 14.344 32.1159 14.728 32.5479 15.192C32.9799 15.656 33.3799 15.928 33.7479 16.008C34.0039 16.056 34.2039 16.048 34.3479 15.984C34.5079 15.92 34.7319 15.736 35.0199 15.432C35.2759 15.16 35.4439 14.936 35.5239 14.76C35.6199 14.568 35.6679 14.32 35.6679 14.016C35.6679 13.536 35.5479 13.136 35.3079 12.816ZM55.7068 1.104C55.8988 0.767999 56.1948 0.719999 56.5948 0.959999C56.7228 1.056 56.7788 1.256 56.7628 1.56C56.7628 1.864 56.6668 2.672 56.4748 3.984L56.3788 4.8L57.4828 4.68C57.7228 4.648 58.3628 4.568 59.4028 4.44C59.7388 4.392 59.9548 4.392 60.0508 4.44C60.1628 4.472 60.2428 4.576 60.2908 4.752C60.3708 4.992 60.3388 5.208 60.1948 5.4C60.0508 5.592 59.8428 5.688 59.5708 5.688C59.3308 5.688 58.7308 5.784 57.7708 5.976C56.8268 6.168 56.3308 6.288 56.2828 6.336C56.2348 6.384 56.1948 6.904 56.1628 7.896C56.1628 8.6 56.1388 9.024 56.0908 9.168C56.0428 9.312 55.9148 9.4 55.7068 9.432C55.3868 9.464 55.1708 9.424 55.0588 9.312C54.9468 9.216 54.9868 7.888 55.1788 5.328C55.3868 2.768 55.5628 1.36 55.7068 1.104ZM47.9548 1.92C49.3308 1.808 50.2028 1.76 50.5708 1.776C50.9548 1.776 51.2028 1.856 51.3148 2.016C51.4588 2.176 51.4988 2.504 51.4348 3C51.3708 3.48 51.1948 4.248 50.9068 5.304C50.6668 6.2 50.4988 6.952 50.4028 7.56C50.3548 7.944 50.2908 8.192 50.2108 8.304C50.1468 8.4 49.9948 8.464 49.7548 8.496C49.3868 8.544 49.1788 8.424 49.1308 8.136C49.0828 7.832 49.1868 7.208 49.4428 6.264C49.7468 5.096 49.9148 4.264 49.9468 3.768L50.0428 2.832L49.3228 2.952C48.9708 2.984 48.2748 3.072 47.2348 3.216C47.1868 3.232 47.1148 3.248 47.0188 3.264C46.2508 3.36 45.8028 3.4 45.6748 3.384C45.5468 3.352 45.4828 3.216 45.4828 2.976C45.4828 2.96 45.4828 2.952 45.4828 2.952C45.4828 2.616 45.6588 2.376 46.0108 2.232C46.3628 2.088 47.0108 1.984 47.9548 1.92ZM52.5628 10.824C54.7388 10.28 55.9628 10.256 56.2348 10.752C56.4108 11.088 56.4108 11.336 56.2348 11.496C56.0588 11.64 55.6268 11.744 54.9388 11.808C54.1228 11.888 53.5148 11.96 53.1148 12.024C52.7148 12.072 52.3788 12.136 52.1068 12.216C51.8508 12.296 51.6908 12.384 51.6268 12.48C51.5628 12.56 51.5308 12.68 51.5308 12.84C51.5308 12.984 51.6748 13.072 51.9628 13.104C52.2508 13.12 52.9788 13.12 54.1468 13.104C55.3788 13.088 56.1388 13.096 56.4268 13.128C56.7148 13.16 56.9068 13.256 57.0028 13.416C57.1148 13.656 57.1388 13.872 57.0748 14.064C57.0268 14.192 56.8508 14.272 56.5468 14.304C56.2588 14.336 55.6508 14.352 54.7228 14.352C53.2668 14.352 52.3548 14.416 51.9868 14.544C51.7468 14.64 51.6028 14.744 51.5548 14.856C51.5228 14.952 51.5308 15.208 51.5788 15.624C51.6268 16.184 51.7148 16.528 51.8428 16.656C51.9708 16.784 52.7628 16.736 54.2188 16.512C55.6748 16.32 56.5068 16.256 56.7148 16.32C56.8588 16.384 56.9468 16.536 56.9788 16.776C57.0108 17.016 56.9628 17.184 56.8348 17.28C56.6748 17.376 55.9628 17.52 54.6988 17.712C53.4508 17.904 52.5548 18.008 52.0108 18.024C51.4508 18.04 51.1068 18.016 50.9788 17.952C50.8668 17.904 50.7708 17.744 50.6908 17.472C50.5948 17.12 50.4828 16.824 50.3548 16.584C50.2268 16.376 50.2108 15.512 50.3068 13.992C50.3868 12.504 50.5308 11.656 50.7388 11.448C50.9308 11.272 51.5388 11.064 52.5628 10.824ZM63.4095 1.584C63.7135 1.392 63.9695 1.28 64.1775 1.248C64.4015 1.2 64.7455 1.192 65.2095 1.224C65.8495 1.272 66.3775 1.4 66.7935 1.608C67.2095 1.816 67.6575 2.184 68.1375 2.712C68.8575 3.544 69.0735 4.496 68.7855 5.568C68.5135 6.624 67.8335 7.432 66.7455 7.992C65.7215 8.52 64.6095 8.376 63.4095 7.56C62.8175 7.144 62.3535 6.68 62.0175 6.168C61.6975 5.656 61.5375 5.144 61.5375 4.632C61.5375 4.168 61.7215 3.632 62.0895 3.024C62.4735 2.4 62.9135 1.92 63.4095 1.584ZM66.3615 2.592C65.9295 2.384 65.6575 2.288 65.5455 2.304C65.1455 2.352 64.7295 2.496 64.2975 2.736C63.8815 2.96 63.5375 3.248 63.2655 3.6C62.9935 3.936 62.8575 4.248 62.8575 4.536C62.8575 5.128 63.0335 5.632 63.3855 6.048C63.7375 6.464 64.1535 6.736 64.6335 6.864C65.1135 6.992 65.6095 6.976 66.1215 6.816C66.6335 6.64 67.0415 6.304 67.3455 5.808C67.6335 5.392 67.7775 5.008 67.7775 4.656C67.7775 4.288 67.6335 3.896 67.3455 3.48C67.0575 3.064 66.7295 2.768 66.3615 2.592ZM66.8175 9.84C67.8735 9.696 68.5855 9.648 68.9535 9.696C69.3215 9.728 69.5615 9.872 69.6735 10.128C69.8655 10.512 69.8335 10.768 69.5775 10.896C69.3375 11.024 68.7535 11.096 67.8255 11.112C66.7375 11.112 65.5135 11.192 64.1535 11.352C62.7775 11.512 62.0495 11.552 61.9695 11.472C61.8895 11.392 61.8975 11.2 61.9935 10.896C62.1375 10.32 62.9855 10.024 64.5375 10.008C65.5455 9.976 66.3055 9.92 66.8175 9.84ZM63.9135 12.792C64.5215 12.184 64.8495 12.472 64.8975 13.656C64.9455 14.376 65.0255 14.736 65.1375 14.736C65.2335 14.736 65.5135 14.64 65.9775 14.448C66.3615 14.288 67.0975 14.136 68.1855 13.992C69.2735 13.832 69.9135 13.792 70.1055 13.872C70.2975 13.936 70.3855 14.12 70.3695 14.424C70.3695 14.728 70.2815 14.92 70.1055 15C69.8815 15.08 69.5055 15.12 68.9775 15.12C68.4175 15.12 67.6735 15.28 66.7455 15.6C66.2175 15.776 65.7935 15.896 65.4735 15.96C65.1695 16.024 64.8975 16.056 64.6575 16.056C64.4175 16.056 64.2335 15.976 64.1055 15.816C63.9935 15.656 63.9055 15.448 63.8415 15.192C63.7775 14.952 63.7215 14.616 63.6735 14.184C63.6415 13.752 63.6415 13.448 63.6735 13.272C63.7055 13.08 63.7855 12.92 63.9135 12.792ZM88.3155 4.56C88.4115 4.416 88.5875 4.36 88.8435 4.392C89.0995 4.424 89.2675 4.528 89.3475 4.704C89.4595 4.912 89.4675 5.712 89.3715 7.104C89.2435 8.672 89.1635 10.272 89.1315 11.904C89.1155 12.992 89.0835 13.728 89.0355 14.112C88.9875 14.496 88.8995 14.72 88.7715 14.784C88.5955 14.912 88.3875 14.936 88.1475 14.856C87.9875 14.792 87.8995 14.52 87.8835 14.04C87.8675 13.56 87.8915 12.232 87.9555 10.056C88.0355 7.64 88.0915 6.16 88.1235 5.616C88.1555 5.072 88.2195 4.72 88.3155 4.56ZM80.5875 5.136C81.3235 4.928 82.1155 4.832 82.9635 4.848C83.8275 4.864 84.3795 4.984 84.6195 5.208C84.7795 5.368 84.8755 6.392 84.9075 8.28C84.9555 10.152 84.9075 11.16 84.7635 11.304C84.6675 11.4 83.7555 11.576 82.0275 11.832C80.8595 11.976 80.1315 12.048 79.8435 12.048C79.5555 12.048 79.3635 11.976 79.2675 11.832C79.0275 11.496 78.8755 10.512 78.8115 8.88C78.7475 7.232 78.8115 6.24 79.0035 5.904C79.1795 5.648 79.7075 5.392 80.5875 5.136ZM83.4195 6.168C83.2275 6.104 83.0835 6.072 82.9875 6.072C82.9715 6.088 82.9075 6.104 82.7955 6.12C82.6995 6.136 82.5635 6.16 82.3875 6.192C82.2115 6.224 82.0515 6.248 81.9075 6.264C80.9155 6.424 80.3395 6.592 80.1795 6.768C80.0195 6.944 79.9395 7.496 79.9395 8.424C79.9395 9.448 79.9715 10.064 80.0355 10.272C80.1155 10.464 80.6675 10.528 81.6915 10.464C82.6835 10.416 83.2835 10.36 83.4915 10.296C83.6355 10.248 83.7075 9.568 83.7075 8.256C83.7075 7.456 83.6835 6.92 83.6355 6.648C83.6035 6.376 83.5315 6.216 83.4195 6.168ZM93.9354 1.944C94.4794 1.88 95.2234 1.816 96.1674 1.752C96.4234 1.736 96.6234 1.856 96.7674 2.112C96.9114 2.368 96.9194 2.616 96.7914 2.856C96.7274 2.968 96.5674 3.04 96.3114 3.072C96.0554 3.088 95.5674 3.088 94.8474 3.072C93.6794 3.024 92.9034 3.088 92.5194 3.264C92.1354 3.44 91.9034 3.856 91.8234 4.512C91.7594 5.072 91.7754 5.504 91.8714 5.808C91.9674 6.016 92.0634 6.128 92.1594 6.144C92.2554 6.144 92.5594 6.08 93.0714 5.952C93.7914 5.776 94.5674 5.688 95.3994 5.688C95.7994 5.688 96.0954 5.696 96.2874 5.712C96.4954 5.728 96.6474 5.76 96.7434 5.808C96.8394 5.856 96.9114 5.936 96.9594 6.048C97.1674 6.416 96.9514 6.672 96.3114 6.816C95.9914 6.896 95.5114 6.96 94.8714 7.008C93.6714 7.136 92.8954 7.256 92.5434 7.368C92.2874 7.48 92.1274 7.576 92.0634 7.656C91.9994 7.736 91.9914 7.872 92.0394 8.064C92.0714 8.288 92.1194 8.424 92.1834 8.472C92.2634 8.504 92.4474 8.496 92.7354 8.448C94.5274 8.144 95.7594 7.992 96.4314 7.992C97.1034 7.992 97.4634 8.144 97.5114 8.448C97.5114 8.464 97.5114 8.48 97.5114 8.496C97.5434 8.656 97.4714 8.776 97.2954 8.856C97.0394 8.952 95.8234 9.216 93.6474 9.648L93.6234 9.672H93.5994H93.5754H93.5514H93.5274L93.5034 9.696H93.4794H93.4554H93.4314H93.4074L93.3834 9.72H93.3594H93.3354H93.3114H93.2874L93.2634 9.744H93.2394C92.5514 9.888 92.0954 9.96 91.8714 9.96C91.6634 9.96 91.5034 9.904 91.3914 9.792C91.0714 9.488 90.8314 8.024 90.6714 5.4C90.6394 5.016 90.6234 4.696 90.6234 4.44C90.6234 4.184 90.6394 3.936 90.6714 3.696C90.7034 3.44 90.7434 3.24 90.7914 3.096C90.8394 2.952 90.9274 2.816 91.0554 2.688C91.1834 2.544 91.3194 2.44 91.4634 2.376C91.6074 2.312 91.8074 2.248 92.0634 2.184C92.3194 2.12 92.5914 2.072 92.8794 2.04C93.1674 2.008 93.5194 1.976 93.9354 1.944ZM99.1674 3.144C99.2314 2.968 99.3754 2.872 99.5994 2.856C99.8234 2.84 99.9994 2.912 100.127 3.072C100.207 3.2 100.247 4.384 100.247 6.624C100.263 8.864 100.231 10.032 100.151 10.128C100.087 10.176 99.8874 10.144 99.5514 10.032L99.0474 9.84V6.648C99.0474 4.536 99.0874 3.368 99.1674 3.144ZM97.2714 11.088C97.6074 11.056 97.8154 11.024 97.8954 10.992C97.9594 10.96 98.0954 11.008 98.3034 11.136C98.5274 11.248 98.7594 11.416 98.9994 11.64C99.2394 11.848 99.4234 12.048 99.5514 12.24C99.7754 12.544 99.9194 12.8 99.9834 13.008C100.047 13.216 100.071 13.56 100.055 14.04C100.039 14.504 99.9914 14.864 99.9114 15.12C99.8314 15.376 99.6794 15.656 99.4554 15.96C98.7034 17 97.8154 17.408 96.7914 17.184C96.2794 17.072 95.7514 16.8 95.2074 16.368C94.6634 15.952 94.2874 15.504 94.0794 15.024C93.8394 14.544 93.7594 14.104 93.8394 13.704C93.9194 13.288 94.1674 12.848 94.5834 12.384C94.7274 12.208 94.8634 12.064 94.9914 11.952C95.1194 11.84 95.2554 11.744 95.3994 11.664C95.5594 11.568 95.7274 11.488 95.9034 11.424C96.0954 11.344 96.2954 11.28 96.5034 11.232C96.7274 11.184 96.9834 11.136 97.2714 11.088ZM98.4954 12.816C98.2394 12.512 97.9914 12.336 97.7514 12.288C97.5114 12.224 97.1674 12.272 96.7194 12.432C96.4154 12.528 96.1354 12.664 95.8794 12.84C95.6394 13.016 95.4474 13.216 95.3034 13.44C95.1594 13.648 95.0874 13.848 95.0874 14.04C95.0874 14.344 95.3034 14.728 95.7354 15.192C96.1674 15.656 96.5674 15.928 96.9354 16.008C97.1914 16.056 97.3914 16.048 97.5354 15.984C97.6954 15.92 97.9194 15.736 98.2074 15.432C98.4634 15.16 98.6314 14.936 98.7114 14.76C98.8074 14.568 98.8554 14.32 98.8554 14.016C98.8554 13.536 98.7354 13.136 98.4954 12.816Z" fill="#1A1A1A"/>
</svg>
