<svg width="51" height="46" viewBox="0 0 51 46" fill="none" xmlns="http://www.w3.org/2000/svg">
<g clip-path="url(#clip0_2_78)">
<path d="M23.9448 12.2245C29.1306 9.9705 35.1122 12.5688 37.309 18.0299C37.892 19.4758 38.1475 20.9779 38.1151 22.4471C38.1151 22.4471 38.1134 22.4514 38.1117 22.4557C38.098 23.1838 38.0103 23.9029 37.8561 24.6059C37.5337 27.5331 37.0685 32.6696 37.468 35.0914L30.8369 38.2609C30.8369 38.2609 26.0258 33.901 22.4845 31.1163C22.1164 30.8672 21.761 30.5982 21.4216 30.3006C20.2019 29.229 19.1961 27.8469 18.5344 26.2055C16.3376 20.7445 18.7615 14.4844 23.9431 12.2288L23.9448 12.2245Z" fill="#EFC344"/>
<path d="M35.4602 36.3902C35.0779 35.1128 34.801 33.8018 34.5442 32.4888C34.2874 31.1757 34.0668 29.8818 33.8791 28.5659C33.7814 27.8989 33.6939 27.231 33.6148 26.5663C33.5381 25.9325 33.3892 25.2355 33.5348 24.604C33.5919 24.347 33.7098 24.009 33.9669 23.8852C34.299 23.7309 34.5086 24.0625 34.6013 24.3334C34.7827 24.8485 34.8258 25.4193 34.7243 25.9632C34.6705 26.2365 34.5899 26.5043 34.4629 26.7539C34.347 26.9879 34.2007 27.225 33.9689 27.3587C33.6982 27.5171 33.4122 27.4299 33.2006 27.2273C32.989 27.0246 32.7976 26.7949 32.6147 26.5686C31.8871 25.6648 31.3038 24.6279 30.8949 23.5297C30.7913 23.2496 30.6952 22.9625 30.6134 22.676C30.5417 22.4134 30.4793 22.1145 30.6559 21.8743C30.8325 21.6342 31.1709 21.6121 31.3555 21.8591C31.5216 22.0788 31.5831 22.4173 31.6472 22.6869C31.7905 23.2619 31.8782 23.8801 31.8421 24.4796C31.8122 24.9768 31.6786 25.5282 31.2922 25.8708C30.5151 26.5542 29.341 25.7499 28.7219 25.2378C28.0675 24.692 27.3925 23.9635 27.1362 23.1196C27.0477 22.8255 26.9655 22.3792 27.1826 22.11C27.4587 21.7641 27.8333 22.1205 28.0061 22.3728C28.2459 22.7262 28.4284 23.127 28.5427 23.541C28.7137 24.1569 28.8333 24.7925 28.8822 25.4354C28.9246 25.9709 28.8284 26.7115 28.164 26.7606C27.903 26.783 27.6507 26.6842 27.4178 26.5729C27.1638 26.4535 26.9201 26.3081 26.6907 26.1383C26.2167 25.788 25.8045 25.3421 25.4834 24.837C25.3434 24.6125 25.1899 24.3728 25.0963 24.1165C25.0027 23.8603 25.0386 23.62 25.252 23.4591C25.6418 23.1578 26.0653 23.7977 26.2355 24.069C26.5466 24.5501 26.8037 25.07 27.0111 25.6053C27.2185 26.1406 27.4047 26.7424 27.4798 27.3307C27.5169 27.6197 27.4774 27.9185 27.3009 28.1587C27.1446 28.3719 26.9093 28.5142 26.6575 28.5752C26.0518 28.722 25.509 28.2998 25.1329 27.873C24.9676 27.6885 24.7619 27.4582 24.7971 27.1826C24.8324 26.907 25.0743 26.7723 25.3158 26.8121C25.5801 26.8557 25.7909 27.0481 25.9858 27.2193C26.2092 27.4166 26.4216 27.6296 26.6189 27.8565C27.031 28.3274 27.3866 28.8559 27.7161 29.3892C29.107 31.6456 30.3629 33.9988 31.5396 36.3808C31.8286 36.968 32.1141 37.5639 32.3955 38.1581C32.5177 38.4156 32.1106 38.6003 31.9884 38.3429C31.0129 36.2642 29.9692 34.2237 28.8513 32.2239C28.3032 31.2458 27.7509 30.266 27.1506 29.3222C26.8596 28.8639 26.5434 28.4207 26.1832 28.0151C26.0154 27.8246 25.8323 27.6481 25.6399 27.4829C25.5568 27.4104 25.4711 27.3319 25.371 27.2778C25.3391 27.2603 25.2492 27.2051 25.2079 27.2238C25.2256 27.2158 25.2028 27.2119 25.2112 27.2401C25.2186 27.2829 25.2379 27.3204 25.2589 27.3536C25.3243 27.459 25.4192 27.5511 25.5014 27.6382C25.6794 27.8277 25.8852 28.0081 26.1333 28.1054C26.4866 28.2438 26.9778 28.092 27.0521 27.667C27.094 27.424 27.0155 27.1538 26.9623 26.9183C26.9057 26.6667 26.839 26.416 26.7604 26.1707C26.6059 25.686 26.4059 25.2185 26.1646 24.7697C26.0599 24.5789 25.9534 24.3925 25.8293 24.2142C25.774 24.1326 25.7144 24.0494 25.6455 23.9775C25.5918 23.9165 25.517 23.8723 25.4616 23.8156C25.4347 23.7851 25.4566 23.8037 25.4633 23.8113C25.4842 23.8445 25.5175 23.6978 25.459 23.8346C25.4353 23.8951 25.483 23.9837 25.5115 24.0348C25.6095 24.2428 25.7252 24.4428 25.8501 24.6315C26.1277 25.0496 26.4694 25.428 26.8643 25.7324C27.0575 25.8829 27.2677 26.0152 27.4863 26.1258C27.6687 26.2172 27.8663 26.3196 28.0725 26.3256C28.5936 26.3451 28.456 25.5079 28.4206 25.1896C28.3597 24.6518 28.2601 24.1139 28.1073 23.6C28.0122 23.2733 27.8623 22.9501 27.6753 22.6723C27.6334 22.6059 27.5855 22.5423 27.5301 22.4857C27.51 22.4628 27.5167 22.4704 27.4923 22.4459C27.4839 22.4426 27.41 22.3837 27.4512 22.4148C27.4318 22.4022 27.4512 22.4148 27.4731 22.4084C27.5152 22.4 27.4647 22.4051 27.5102 22.388C27.5102 22.388 27.5136 22.3794 27.5034 22.4053C27.483 22.4572 27.4949 22.427 27.4881 22.4692C27.4015 23.0739 27.883 23.7266 28.2599 24.1637C28.7409 24.7313 29.349 25.259 30.0378 25.5439C30.3918 25.6926 30.8311 25.7849 31.1064 25.4287C31.3615 25.0996 31.4158 24.6269 31.4143 24.2222C31.4122 23.7075 31.3277 23.1804 31.1968 22.685C31.1651 22.5678 31.1292 22.449 31.0916 22.3345C31.0707 22.2764 31.054 22.2199 31.0272 22.1645C31.0097 22.1227 30.9903 22.1351 31.0198 22.1217C30.8807 22.1919 31.0405 22.5888 31.0705 22.6854C31.3627 23.6481 31.7846 24.5769 32.328 25.4184C32.5972 25.8333 32.8934 26.2287 33.214 26.5989C33.3214 26.7208 33.5328 27.0481 33.7206 27.0019C33.8883 26.9579 34.011 26.7066 34.077 26.5628C34.2767 26.1521 34.368 25.6839 34.338 25.2281C34.3243 25.0032 34.2862 24.7787 34.2143 24.5659C34.1976 24.5095 34.175 24.4557 34.1524 24.402C34.1499 24.396 34.1147 24.3373 34.1156 24.3227L34.1064 24.3091C34.0862 24.2862 34.0963 24.2852 34.1384 24.3017C34.1375 24.3163 34.0902 24.3626 34.0851 24.3756C34.0471 24.4355 34.0217 24.5004 34.0005 24.567C33.8232 25.0813 33.9564 25.6823 34.0139 26.2038C34.0815 26.7741 34.1508 27.3401 34.2285 27.9094C34.5383 30.1763 34.9409 32.4297 35.4175 34.6671C35.5323 35.216 35.647 35.7649 35.7517 36.3149C35.7833 36.4819 35.5153 36.5715 35.4652 36.4022L35.4602 36.3902Z" fill="#403E3D"/>
<path d="M39.0149 41.8147C38.8663 40.3743 37.6036 39.3507 36.1896 39.5301C34.7756 39.7095 33.7485 41.0184 33.8972 42.4588C34.0459 43.8991 35.3086 44.9228 36.7226 44.7434C38.1365 44.564 39.1636 43.255 39.0149 41.8147Z" fill="#858481"/>
<path d="M30.8622 37.6023L37.1649 34.813C37.7937 34.5455 38.5102 34.8462 38.7602 35.483C38.9033 35.8484 38.8551 36.2437 38.6792 36.5689C38.4469 36.5178 38.196 36.5393 37.9575 36.6404L31.6548 39.4297C31.3868 39.5442 31.1809 39.7479 31.0489 39.9856C30.6635 39.9044 30.3266 39.6377 30.1753 39.2441C29.9252 38.6072 30.2335 37.8699 30.8622 37.6023V37.6023Z" fill="#ACABA8"/>
<path d="M31.7664 39.9125L38.0691 37.1232C38.3371 37.0087 38.543 36.8049 38.675 36.5673C39.0603 36.6484 39.3972 36.9151 39.5486 37.3087C39.7067 37.71 39.6416 38.1485 39.4159 38.4892C39.1862 38.4441 38.9412 38.4628 38.7044 38.5596L32.4017 41.3489C32.1691 41.4473 31.9784 41.6121 31.8474 41.8103C31.4603 41.7334 31.1192 41.4651 30.9653 41.0655C30.8223 40.7001 30.8705 40.3048 31.0464 39.9796C31.2786 40.0307 31.5296 40.0093 31.7681 39.9081L31.7664 39.9125Z" fill="#ACABA8"/>
<path d="M31.6565 39.4253L37.9592 36.6361C38.1977 36.5349 38.447 36.5178 38.6809 36.5646C38.5473 36.8066 38.3413 37.0103 38.075 37.1205L31.7723 39.9098C31.5338 40.0109 31.2846 40.028 31.0507 39.9813C31.1843 39.7392 31.3902 39.5355 31.6565 39.4253Z" fill="#858481"/>
<path d="M32.5591 41.7398L38.8618 38.9505C39.0944 38.852 39.2851 38.6872 39.4161 38.4891C39.8031 38.5659 40.1442 38.8343 40.2981 39.2339C40.5482 39.8707 40.2399 40.6081 39.6111 40.8757L33.3084 43.665C32.6797 43.9325 31.9632 43.6318 31.7131 42.9949C31.555 42.5937 31.6201 42.1552 31.8458 41.8145C32.0755 41.8596 32.3248 41.8425 32.5574 41.7441L32.5591 41.7398Z" fill="#ACABA8"/>
<path d="M38.7086 38.5612C38.9412 38.4627 39.1921 38.4413 39.4202 38.4907C39.2892 38.6889 39.0985 38.8536 38.8659 38.9521L32.5632 41.7414C32.3306 41.8398 32.0796 41.8613 31.8516 41.8118C31.9826 41.6137 32.1733 41.4489 32.4059 41.3505L38.7086 38.5612Z" fill="#858481"/>
<path d="M17.0615 12.5959C16.136 11.38 15.224 10.1545 14.3197 8.92198C14.2123 8.77512 14.1066 8.62394 13.9992 8.47709C13.8306 8.25134 13.6619 8.0256 13.4992 7.79718C13.3666 7.61552 13.6585 7.41552 13.791 7.59718C14.7197 8.85421 15.6603 10.1059 16.589 11.3629C16.8423 11.7067 17.0999 12.0521 17.3533 12.3959C17.4858 12.5775 17.1974 12.7689 17.0632 12.5915L17.0615 12.5959Z" fill="#EFC344" stroke="#EFC344" stroke-miterlimit="10"/>
<path d="M21.5645 8.74219C21.3623 7.5004 21.1676 6.25161 20.9856 5.00775C20.9658 4.86028 20.9435 4.70683 20.9236 4.55936C20.8872 4.33053 20.8524 4.09737 20.8202 3.87018C20.7912 3.68419 21.0783 3.657 21.1048 3.83702C21.2935 5.11341 21.4982 6.3861 21.691 7.66415C21.7432 8.01388 21.7953 8.36362 21.8474 8.71336C21.8722 8.8977 21.5952 8.92386 21.5645 8.74219Z" fill="#EFC344" stroke="#EFC344" stroke-miterlimit="10"/>
<path d="M14.4378 24.6154C12.9527 24.9764 11.4608 25.3299 9.9715 25.6644C9.79124 25.7035 9.61519 25.7443 9.43662 25.7791C9.16453 25.8421 8.88655 25.9078 8.61446 25.9709C8.39629 26.0201 8.34415 25.6704 8.56401 25.6168C10.0887 25.2662 11.6126 24.9054 13.139 24.5505C13.5551 24.4541 13.9754 24.3593 14.3916 24.2629C14.6097 24.2137 14.6552 24.5558 14.4395 24.611L14.4378 24.6154Z" fill="#EFC344" stroke="#EFC344" stroke-miterlimit="10"/>
<path d="M14.5346 18.6859C13.0742 18.2783 8.89005 17.3074 7.43556 16.8722C7.26228 16.8192 7.08898 16.7663 6.91569 16.7134C6.6465 16.6328 6.37982 16.5583 6.11063 16.4777C5.89359 16.4126 6.01989 16.0779 6.23272 16.1414C7.72003 16.5795 11.9395 17.5592 13.4327 17.9947C13.8416 18.1149 14.2504 18.2352 14.655 18.3539C14.8679 18.4173 14.745 18.7434 14.5346 18.6859Z" fill="#EFC344" stroke="#EFC344" stroke-miterlimit="10"/>
</g>
<defs>
<clipPath id="clip0_2_78">
<rect width="40.8693" height="33.2763" fill="white" transform="matrix(-0.931074 -0.364831 -0.364831 0.931074 50.1926 14.9104)"/>
</clipPath>
</defs>
</svg>
