<svg width="177" height="33" viewBox="0 0 177 33" fill="none" xmlns="http://www.w3.org/2000/svg">
<path d="M11.064 9.48926H6.51912V6.87402H4.90681V9.48926H0.488846V10.7842H11.064V9.48926ZM0.742752 5.89648L1.4283 7.24219C3.44685 6.88037 4.95125 5.78223 5.70662 4.34766C6.46834 5.78857 7.97908 6.87402 10.0103 7.24219L10.6959 5.89648C8.05525 5.49023 6.56355 3.75098 6.5699 2.10059V1.27539H4.84334V2.10059C4.83064 3.73193 3.35799 5.49023 0.742752 5.89648ZM21.56 0.615234H19.9985V4.99512H18.9448V0.919922H17.434V11.6602H18.9448V6.29004H19.9985V12.168H21.56V0.615234ZM11.4545 8.67676L12.394 9.79395C15.6503 7.90234 16.6152 5.26172 16.6215 2.03711H12.0385V3.33203H15.041C14.8252 5.59814 13.8095 7.29297 11.4545 8.67676ZM28.9329 1.41504H23.3343V7.08984H24.3245C26.7938 7.10254 28.2664 7.06445 29.9105 6.79785L29.7454 5.52832C28.2855 5.76953 26.9969 5.79492 24.9593 5.79492V4.86816H28.5902V3.61133H24.9593V2.70996H28.9329V1.41504ZM24.4642 9.97168C24.4642 11.3682 25.9686 12.1743 28.4378 12.168C30.8817 12.1743 32.4242 11.3682 32.4369 9.97168C32.4242 8.58789 30.8817 7.78174 28.4378 7.77539C25.9686 7.78174 24.4642 8.58789 24.4642 9.97168ZM26.0765 9.97168C26.0765 9.35596 26.889 9.02588 28.4378 9.03223C29.9676 9.02588 30.8119 9.35596 30.8119 9.97168C30.8119 10.6128 29.9676 10.9365 28.4378 10.9365C26.889 10.9365 26.0765 10.6128 26.0765 9.97168ZM30.7484 7.62305H32.3734V0.62793H30.7484V7.62305ZM37.55 1.38965C35.7282 1.3833 34.3318 2.56396 34.3381 4.2207C34.3318 5.88379 35.7282 7.05811 37.55 7.06445C39.3845 7.05811 40.7429 5.88379 40.7492 4.2207C40.7429 2.56396 39.3845 1.3833 37.55 1.38965ZM33.8557 8.51172L34.0461 9.83203C36.0647 9.83203 38.8069 9.81299 41.3713 9.31152L41.2444 8.14355C38.7751 8.49268 35.9187 8.51807 33.8557 8.51172ZM35.9504 4.2207C35.9441 3.31934 36.636 2.78613 37.55 2.78613C38.4704 2.78613 39.1687 3.31934 39.175 4.2207C39.1687 5.13477 38.4704 5.66162 37.55 5.65527C36.636 5.66162 35.9441 5.13477 35.9504 4.2207ZM41.9045 12.1934H43.5168V0.615234H41.9045V12.1934ZM57.5136 0.615234H55.9013V2.3418H53.7304V3.62402H55.9013V6.49316H57.5136V0.615234ZM47.6875 5.2998L48.5254 6.58203C49.8774 6.15674 50.7851 5.29346 51.2929 4.18262C51.7944 5.17285 52.6577 5.94727 53.8955 6.34082L54.7461 5.09668C52.9053 4.55078 52.0991 3.21143 52.1054 1.83398V0.996094H50.4678V1.83398C50.4614 3.32568 49.6045 4.73486 47.6875 5.2998ZM49.833 8.21973H55.914V8.87988H49.8457V12.041H57.8437V10.7715H51.4453V10.0605H57.5136V6.97559H49.833V8.21973ZM63.2997 1.77051H59.1991V3.05273H61.7381V4.86816H59.2118V9.46387H60.0243C61.4779 9.45117 62.7728 9.42578 64.2899 9.14648L64.1503 7.82617C62.9505 8.04834 61.8905 8.10547 60.7606 8.11816V6.15039H63.2997V1.77051ZM63.7821 5.87109H64.9628V11.6094H66.4735V0.831055H64.9628V4.56348H63.7821V5.87109ZM67.3368 12.168H68.8729V0.615234H67.3368V12.168ZM79.6609 0.62793H78.0359V7.15332H79.6609V0.62793ZM70.1648 3.94141C70.1648 5.52832 71.5232 6.69629 73.3259 6.69629C75.1223 6.69629 76.4807 5.52832 76.487 3.94141C76.4807 2.29102 75.1223 1.14844 73.3259 1.14844C71.5232 1.14844 70.1648 2.29102 70.1648 3.94141ZM71.7517 3.94141C71.739 3.03369 72.3992 2.50684 73.3259 2.50684C74.2273 2.50684 74.8811 3.03369 74.8874 3.94141C74.8811 4.79834 74.2273 5.33789 73.3259 5.33789C72.3992 5.33789 71.739 4.79834 71.7517 3.94141ZM71.9167 12.041H79.6609V7.67383H71.9167V12.041ZM73.5163 10.7461V8.95605H78.074V10.7461H73.5163ZM87.4654 1.99902H81.7272V2.81152H86.4625C86.4689 3.71289 86.4435 5.08398 86.1324 6.97559L87.1354 7.06445C87.4591 4.96973 87.4591 3.47803 87.4654 2.58301V1.99902ZM81.0924 8.71484L81.2194 9.54004C83.2379 9.55273 85.8912 9.50195 88.2653 9.13379L88.2145 8.38477C87.0402 8.52441 85.7579 8.60693 84.5074 8.65137V5.22363H83.5299V8.68311C82.6603 8.70215 81.8351 8.7085 81.0924 8.71484ZM88.9254 12.0283H89.9156V6.32812H91.7438V5.46484H89.9156V0.742188H88.9254V12.0283ZM101.488 1.65625H95.9017V9.41309H101.488V1.65625ZM97.5267 8.13086V2.92578H99.9135V8.13086H97.5267ZM103.367 12.1934H105.004V0.615234H103.367V12.1934ZM112.669 1.41504H107.071V7.08984H108.061C110.53 7.10254 112.003 7.06445 113.647 6.79785L113.482 5.52832C112.022 5.76953 110.733 5.79492 108.696 5.79492V4.86816H112.326V3.61133H108.696V2.70996H112.669V1.41504ZM108.2 9.97168C108.2 11.3682 109.705 12.1743 112.174 12.168C114.618 12.1743 116.16 11.3682 116.173 9.97168C116.16 8.58789 114.618 7.78174 112.174 7.77539C109.705 7.78174 108.2 8.58789 108.2 9.97168ZM109.813 9.97168C109.813 9.35596 110.625 9.02588 112.174 9.03223C113.704 9.02588 114.548 9.35596 114.548 9.97168C114.548 10.6128 113.704 10.9365 112.174 10.9365C110.625 10.9365 109.813 10.6128 109.813 9.97168ZM114.485 7.62305H116.11V0.62793H114.485V7.62305ZM121.286 1.38965C119.464 1.3833 118.068 2.56396 118.074 4.2207C118.068 5.88379 119.464 7.05811 121.286 7.06445C123.121 7.05811 124.479 5.88379 124.485 4.2207C124.479 2.56396 123.121 1.3833 121.286 1.38965ZM117.592 8.51172L117.782 9.83203C119.801 9.83203 122.543 9.81299 125.108 9.31152L124.981 8.14355C122.511 8.49268 119.655 8.51807 117.592 8.51172ZM119.687 4.2207C119.68 3.31934 120.372 2.78613 121.286 2.78613C122.207 2.78613 122.905 3.31934 122.911 4.2207C122.905 5.13477 122.207 5.66162 121.286 5.65527C120.372 5.66162 119.68 5.13477 119.687 4.2207ZM125.641 12.1934H127.253V0.615234H125.641V12.1934ZM140.679 0.615234H139.054V9.03223H140.679V5.27441H142.24V3.92871H140.679V0.615234ZM131.589 4.29688C131.582 5.9917 132.985 7.22949 134.763 7.22949C136.534 7.22949 137.911 5.9917 137.911 4.29688C137.911 2.57666 136.534 1.35791 134.763 1.36426C132.985 1.35791 131.582 2.57666 131.589 4.29688ZM133.188 11.9648H141.098V10.6699H134.801V8.14355H133.188V11.9648ZM133.188 4.29688C133.176 3.33203 133.88 2.76709 134.763 2.77344C135.651 2.76709 136.33 3.33203 136.337 4.29688C136.33 5.23633 135.651 5.82031 134.763 5.82031C133.88 5.82031 133.176 5.23633 133.188 4.29688ZM152.355 0.615234H150.743V3.43359H148.94V4.74121H150.743V7.4707H152.355V0.615234ZM142.542 6.20117L143.38 7.4834C144.751 7.01367 145.678 6.06787 146.185 4.89355C146.687 5.92822 147.569 6.76611 148.839 7.17871L149.638 5.90918C147.842 5.3125 147.017 3.9541 146.985 2.6084H149.283V1.31348H143.012V2.6084H145.335C145.297 4.05566 144.433 5.56641 142.542 6.20117ZM144.433 9.95898C144.433 11.3618 145.944 12.1807 148.407 12.1807C150.876 12.1807 152.387 11.3618 152.393 9.95898C152.387 8.55615 150.876 7.73096 148.407 7.72461C145.944 7.73096 144.433 8.55615 144.433 9.95898ZM146.046 9.95898C146.046 9.29248 146.877 8.9624 148.407 8.96875C149.943 8.9624 150.775 9.29248 150.781 9.95898C150.775 10.6191 149.943 10.9492 148.407 10.9492C146.877 10.9492 146.046 10.6191 146.046 9.95898ZM162.889 0.615234H161.264V7.07715H162.889V4.47461H164.451V3.1416H162.889V0.615234ZM153.596 6.04883L154.244 7.33105C157.71 6.41699 159.646 4.34766 159.652 1.28809H154.168V2.58301H157.881C157.621 4.11914 156.193 5.40137 153.596 6.04883ZM155.336 12.0283H162.889V7.50879H155.336V12.0283ZM156.948 10.7588V8.81641H161.29V10.7588H156.948ZM170.085 0.945312C167.564 0.945312 166.085 1.63721 166.085 2.8877C166.085 4.16992 167.564 4.86182 170.085 4.86816C172.592 4.86182 174.064 4.16992 174.071 2.8877C174.064 1.63721 172.592 0.945312 170.085 0.945312ZM164.943 6.44238H175.226V5.62988H164.943V6.44238ZM166.187 8.18164H172.928V9.20996H166.212V11.9014H174.249V11.1143H167.203V9.94629H173.906V7.41992H166.187V8.18164ZM167.126 2.8877C167.114 2.14502 168.212 1.70068 170.085 1.69434C171.957 1.70068 173.049 2.14502 173.055 2.8877C173.049 3.6748 171.957 4.10645 170.085 4.10645C168.212 4.10645 167.114 3.6748 167.126 2.8877ZM7.7427 21.8594H2.52493V29.1973H7.7427V21.8594ZM3.50246 28.3848V22.6592H6.76516V28.3848H3.50246ZM10.1675 32.0537H11.1704V20.7422H10.1675V32.0537ZM19.0385 21.5801H13.6303V26.9375H14.5443C17.039 26.9438 18.4228 26.8867 20.0668 26.6201L19.9652 25.8076C18.3783 26.0742 17.0326 26.1187 14.6332 26.1123V24.627H18.7211V23.8145H14.6332V22.3926H19.0385V21.5801ZM14.7221 29.9463C14.7221 31.2603 16.1503 32.0029 18.5434 32.0029C20.892 32.0029 22.3456 31.2603 22.3393 29.9463C22.3456 28.6577 20.892 27.9023 18.5434 27.915C16.1503 27.9023 14.7221 28.6577 14.7221 29.9463ZM15.7123 29.9463C15.7123 29.1782 16.766 28.7021 18.5434 28.7021C20.2699 28.7021 21.3554 29.1782 21.3617 29.9463C21.3554 30.7461 20.2699 31.2158 18.5434 31.2158C16.766 31.2158 15.7123 30.7461 15.7123 29.9463ZM21.2982 27.75H22.2885V20.7549H21.2982V27.75ZM30.8294 21.9609H27.9602V20.6914H26.97V21.9609H24.1009V22.7734H30.8294V21.9609ZM24.7483 25.4014C24.742 26.6265 25.8338 27.4263 27.4651 27.4326C29.0838 27.4263 30.1692 26.6265 30.1819 25.4014C30.1692 24.1572 29.0838 23.3701 27.4651 23.3574C25.8338 23.3701 24.742 24.1572 24.7483 25.4014ZM25.51 29.2354H31.9085V32.0283H32.8987V28.4229H25.51V29.2354ZM25.7005 25.4014C25.6941 24.6333 26.3987 24.1382 27.4651 24.1318C28.5188 24.1382 29.2298 24.6333 29.2425 25.4014C29.2298 26.1504 28.5188 26.6392 27.4651 26.6328C26.3987 26.6392 25.6941 26.1504 25.7005 25.4014ZM31.9085 27.8008H32.8987V24.7158H34.5999V23.8779H32.8987V20.7422H31.9085V27.8008ZM44.8166 20.7422H43.839V25.2998H42.2775V21.0469H41.3254V31.4697H42.2775V26.125H43.839V32.0283H44.8166V20.7422ZM35.1935 28.9053L35.7775 29.6035C39.0212 27.7944 40.0304 25.084 40.0431 22.2148H35.6252V23.04H39.0656C38.8942 25.376 37.8151 27.439 35.1935 28.9053ZM56.6075 27.1914H51.9229V25.9473H55.5157V25.1602H48.6094V23.9033H55.2745V21.1104H47.5811V21.9102H54.2715V23.167H47.6192V25.9473H50.9454V27.1914H46.2735V28.0166H56.6075V27.1914ZM47.6446 31.9141H55.5157V31.0889H48.6475V28.7783H47.6446V31.9141ZM66.6972 20.7422H65.6943V32.0537H66.6972V20.7422ZM57.8105 25.5537C57.8168 27.9595 59.0102 29.4829 60.6923 29.4766C62.3681 29.4829 63.5805 27.9595 63.5741 25.5537C63.5805 23.1543 62.3681 21.6245 60.6923 21.6182C59.0102 21.6245 57.8168 23.1543 57.8105 25.5537ZM58.7753 25.5537C58.7753 23.7192 59.5624 22.5132 60.6923 22.5068C61.8285 22.5132 62.6093 23.7192 62.6093 25.5537C62.6093 27.3882 61.8285 28.5942 60.6923 28.5879C59.5624 28.5942 58.7753 27.3882 58.7753 25.5537ZM77.3298 21.7705H72.112V26.9629H77.3298V21.7705ZM73.0895 26.1631V22.583H76.3649V26.1631H73.0895ZM73.3942 31.7871H80.9733V30.9492H74.3718V28.2324H73.3942V31.7871ZM79.4626 29.0195H80.4528V25.0205H82.154V24.1826H80.4528V20.7422H79.4626V29.0195ZM93.0308 25.4902H82.7349V26.29H93.0308V25.4902ZM83.9791 28.0801H90.7203V29.1719H84.0045V31.9014H92.0406V31.0889H84.9947V29.9209H91.6978V27.3057H83.9791V28.0801ZM84.106 24.5635H91.7994V23.751H85.1089V21.9355H91.6851V21.1357H84.106V24.5635ZM96.8745 21.6182C95.205 21.6245 94.0371 23.1543 94.0434 25.5537C94.0371 27.9595 95.205 29.4829 96.8745 29.4766C98.4487 29.4829 99.5786 28.0991 99.6865 25.8838H102.206V32.0537H103.197V20.7422H102.206V25.0586H99.6738C99.5214 22.9448 98.4106 21.6245 96.8745 21.6182ZM94.9956 25.5537C95.0019 23.7192 95.7636 22.5132 96.8745 22.5068C97.979 22.5132 98.7534 23.7192 98.7534 25.5537C98.7534 27.3882 97.979 28.5942 96.8745 28.5879C95.7636 28.5942 95.0019 27.3882 94.9956 25.5537ZM117.194 26.1758H110.389V22.6211H117.079V21.7959H109.399V27.001H117.194V26.1758ZM108.078 30.4922H118.412V29.6543H108.078V30.4922ZM128.502 20.7422H127.512V32.0537H128.502V20.7422ZM119.818 22.6211H124.071V24.9951H119.844V29.3115H120.783C122.732 29.3115 124.446 29.229 126.522 28.9053L126.42 28.0674C124.401 28.3911 122.732 28.48 120.859 28.4736V25.8076H125.074V21.7959H119.818V22.6211ZM135.291 21.5801H130.886V22.4053H134.263C134.06 24.3159 132.72 25.814 130.403 26.7598L130.924 27.4961C132.479 26.8296 133.641 25.9219 134.377 24.792H136.649V27.1025H137.602V20.9961H136.649V23.9668H134.821C135.132 23.2432 135.291 22.4497 135.291 21.5801ZM130.962 31.2539L131.47 31.9902C132.542 31.5776 133.323 30.7842 133.729 29.8638C134.06 30.8159 134.745 31.6602 135.85 32.0918C136.903 31.6411 137.589 30.7651 137.932 29.8447C138.319 30.7969 139.112 31.5903 140.242 31.9902L140.737 31.2539C139.284 30.7778 138.427 29.5908 138.427 28.4229V27.6611H137.462V28.4229C137.456 29.2798 136.903 30.4287 135.818 31.1079C134.751 30.4922 134.212 29.4385 134.225 28.4229V27.6611H133.272V28.4229C133.272 29.5083 132.384 30.7397 130.962 31.2539ZM138.922 27.2803H139.874V20.7549H138.922V27.2803ZM143.692 27.5215H142.702V31.876H150.332V27.5215H149.329V28.8418H143.692V27.5215ZM141.394 26.7217H151.678V25.8965H141.394V26.7217ZM141.978 24.2969L142.359 25.0967C144.098 24.8364 145.825 23.9541 146.542 22.6846C147.26 23.9478 148.98 24.8364 150.725 25.0967L151.094 24.2969C149.107 24.043 147.05 22.7925 147.056 21.4023V20.8691H146.028V21.4023C146.028 22.8369 143.991 24.0239 141.978 24.2969ZM143.692 31.0762V29.6289H149.329V31.0762H143.692ZM161.805 20.7422H160.815V32.0283H161.805V20.7422ZM153.236 29.1211H154.15C155.959 29.1211 157.743 28.9814 159.749 28.5625L159.609 27.7119C157.717 28.1118 155.94 28.2451 154.214 28.2578V21.8594H153.236V29.1211ZM172.339 20.7422H171.349V32.0537H172.339V26.0488H174.231V25.2109H172.339V20.7422ZM164.1 29.2227H164.989C167.134 29.2227 168.613 29.1592 170.384 28.8418L170.257 27.9785C168.575 28.2896 167.134 28.3784 165.09 28.3848V22.6719H169.369V21.8467H164.1V29.2227ZM176.539 21.8086H175.294L175.383 28.4102H176.45L176.539 21.8086ZM175.104 30.251C175.091 30.7017 175.472 31.0698 175.916 31.0762C176.367 31.0698 176.735 30.7017 176.729 30.251C176.735 29.8066 176.367 29.4385 175.916 29.4385C175.472 29.4385 175.091 29.8066 175.104 30.251Z" fill="#1A1A1A"/>
</svg>
