<svg width="151" height="34" viewBox="0 0 151 34" fill="none" xmlns="http://www.w3.org/2000/svg">
<path d="M11.1723 0.164062H10.059V5.33496H8.24258V0.442383H7.14394V12.5273H8.24258V6.28711H10.059V13.1865H11.1723V0.164062ZM0.493553 9.68555H5.47402V1.6875H0.493553V9.68555ZM1.57754 8.7627V2.61035H4.39004V8.7627H1.57754ZM17.5555 2.88867V2.71289H20.5437V1.79004H17.5701V0.164062H16.4129V1.79004H13.41V2.71289H16.4129V2.88867C16.4129 4.67578 15.0213 6.27246 13.0877 6.8877L13.659 7.7959C15.2264 7.27588 16.4422 6.15527 17.0135 4.71973C17.6067 6.01611 18.8445 7.01221 20.3826 7.45898L20.9246 6.56543C18.9764 6.00146 17.5481 4.54395 17.5555 2.88867ZM14.8309 10.7842C14.8235 12.3003 16.4788 13.1572 19.2254 13.1572C21.95 13.1572 23.6053 12.3003 23.6199 10.7842C23.6053 9.29736 21.95 8.42578 19.2254 8.44043C16.4788 8.42578 14.8235 9.29736 14.8309 10.7842ZM15.9881 10.7842C15.9881 9.89795 17.1966 9.34863 19.2254 9.34863C21.2469 9.34863 22.4773 9.89795 22.4773 10.7842C22.4773 11.707 21.2469 12.249 19.2254 12.249C17.1966 12.249 15.9881 11.707 15.9881 10.7842ZM22.4334 8.16211H23.576V0.178711H22.4334V8.16211ZM37.5471 7.89844H25.6232V8.83594H30.9846V13.1865H32.1125V8.83594H37.5471V7.89844ZM27.1467 6.31641H36.009V0.706055H34.8518V2.50781H28.2893V0.706055H27.1467V6.31641ZM28.2893 5.37891V3.44531H34.8518V5.37891H28.2893ZM49.2477 0.164062H48.1051V5.08594H45.3512V6.03809H48.1051V13.2158H49.2477V0.164062ZM39.0523 10.0664H40.0484C42.568 10.0664 44.1573 9.97852 46.0543 9.6709L45.9225 8.71875C44.1353 9.04102 42.5973 9.10693 40.2096 9.11426V5.96484H44.5602V5.02734H40.2096V2.31738H45.1314V1.36523H39.0523V10.0664ZM65.0609 0.164062H63.9184V9.59766H65.0609V5.0127H67.0385V4.0459H65.0609V0.164062ZM55.4955 7.2832H56.5062C59.2455 7.2832 60.7982 7.19531 62.6293 6.84375L62.4828 5.8916C60.7396 6.24316 59.2528 6.32373 56.6381 6.31641V2.25879H61.2963V1.29199H55.4955V7.2832ZM56.9164 12.9082H65.6615V11.9414H58.0443V8.64551H56.9164V12.9082ZM79.5594 7.19531H74.1834V5.80371H78.1531V4.91016H70.4187V3.57715H77.7283V2.68359H70.4187V1.43848H78.0799V0.515625H69.2615V5.80371H73.0408V7.19531H67.6795V8.13281H79.5594V7.19531ZM69.0125 10.2275H76.8494V13.1865H78.0213V9.29004H69.0125V10.2275ZM90.8205 0.164062H89.6633V13.1865H90.8205V6.50684H92.798V5.54004H90.8205V0.164062ZM80.4641 9.58301L81.3869 10.2422C83.7526 7.74463 84.4484 4.68311 84.4631 1.58496H80.8742V2.55176H83.3718C83.2253 5.14453 82.4269 7.56885 80.4641 9.58301ZM84.1994 10.4619L85.1369 11.1064C87.5759 8.27197 88.03 4.67578 88.0373 1.58496H84.8732V2.55176H86.9533C86.8435 5.26904 86.2355 8.16211 84.1994 10.4619ZM97.9801 4.16309V2.46387H101.086V1.51172H93.7467V2.46387H96.8229V4.16309C96.8155 6.41895 95.1896 8.87988 93.3219 9.77344L94.0104 10.6816C95.4972 9.93457 96.8155 8.2793 97.4234 6.36768C98.0313 8.16943 99.3424 9.6709 100.866 10.3594L101.51 9.45117C99.5914 8.62354 97.9874 6.375 97.9801 4.16309ZM102.902 13.1865H104.059V0.164062H102.902V13.1865ZM119.931 0.178711H118.788V9.93457H119.931V5.4375H121.894V4.4707H119.931V0.178711ZM109.78 2.71289H117.543V1.77539H114.233V0.178711H113.09V1.77539H109.78V2.71289ZM110.527 5.8623C110.519 7.32715 111.779 8.27197 113.662 8.26465C115.522 8.27197 116.782 7.32715 116.796 5.8623C116.782 4.38281 115.522 3.43066 113.662 3.43066C111.779 3.43066 110.519 4.38281 110.527 5.8623ZM111.625 5.8623C111.618 4.93213 112.431 4.33154 113.662 4.33887C114.877 4.33154 115.698 4.93213 115.712 5.8623C115.698 6.77783 114.877 7.37109 113.662 7.35645C112.431 7.37109 111.618 6.77783 111.625 5.8623ZM111.787 12.9082H120.532V11.9414H112.914V9.1582H111.787V12.9082ZM133.36 0.178711H132.203V3.84082H129.127V1.04297H127.999V3.35742H124.366V1.04297H123.223V7.59082H129.127V4.80762H132.203V9.81738H133.36V0.178711ZM124.366 6.63867V4.26562H127.999V6.63867H124.366ZM124.937 12.9082H133.653V11.9414H126.095V8.86523H124.937V12.9082ZM146.54 0.164062H145.427V13.1865H146.54V0.164062ZM135.539 5.78906C135.547 8.55762 136.645 10.3228 138.337 10.3154C139.941 10.3228 141.032 8.7334 141.142 6.19922H142.82V12.5273H143.918V0.442383H142.82V5.24707H141.135C140.988 2.79346 139.919 1.27002 138.337 1.2627C136.645 1.27002 135.547 3.02051 135.539 5.78906ZM136.623 5.78906C136.609 3.67236 137.282 2.34668 138.337 2.34668C139.399 2.34668 140.073 3.67236 140.066 5.78906C140.073 7.89844 139.399 9.23145 138.337 9.2168C137.282 9.23145 136.609 7.89844 136.623 5.78906ZM150.301 1.39453H148.866L148.968 9.01172H150.199L150.301 1.39453ZM148.646 11.1357C148.631 11.6558 149.071 12.0806 149.584 12.0879C150.104 12.0806 150.528 11.6558 150.521 11.1357C150.528 10.623 150.104 10.1982 149.584 10.1982C149.071 10.1982 148.631 10.623 148.646 11.1357ZM19.3335 24.1631V22.4639H22.439V21.5117H15.1001V22.4639H18.1763V24.1631C18.1689 26.4189 16.543 28.8799 14.6753 29.7734L15.3638 30.6816C16.8506 29.9346 18.1689 28.2793 18.7769 26.3677C19.3848 28.1694 20.6958 29.6709 22.2192 30.3594L22.8638 29.4512C20.9448 28.6235 19.3408 26.375 19.3335 24.1631ZM24.2554 33.1865H25.4126V20.1641H24.2554V33.1865ZM37.8456 20.8672H28.9979V21.8193H36.703V21.834C36.7104 22.8447 36.7104 24.0166 36.3441 25.6572H27.4892V26.6094H39.413V25.6572H37.5014C37.8456 24.0312 37.8456 22.8447 37.8456 21.834V20.8672ZM28.954 33.0107H37.9042V28.4111H28.954V33.0107ZM30.0966 32.0732V29.3193H36.7616V32.0732H30.0966ZM53.9958 20.1641H52.8532V33.1865H53.9958V26.2871H56.1784V25.291H53.9958V20.1641ZM44.4597 30.0664H50.5534V21.2773H49.4108V24.7197H45.6022V21.2773H44.4597V30.0664ZM45.6022 29.0996V25.6426H49.4108V29.0996H45.6022ZM68.6554 30.6084H63.2208V28.1475H67.4542V27.1953H59.3683V25.0713H67.1466V21.1309H58.1964V22.083H66.0187V24.1338H58.2257V28.1475H62.0929V30.6084H56.7315V31.5752H68.6554V30.6084ZM79.9423 21.4531H73.9218V29.9199H79.9423V21.4531ZM75.0497 28.9824V22.376H78.8144V28.9824H75.0497ZM82.7401 33.2158H83.8974V20.1641H82.7401V33.2158ZM92.9759 21.1309H86.7356V27.3125H87.7903C90.6687 27.3198 92.2654 27.2539 94.1624 26.9463L94.0452 26.0088C92.2142 26.3164 90.6614 26.3677 87.8929 26.3604V24.6465H92.6097V23.709H87.8929V22.0684H92.9759V21.1309ZM87.9954 30.7842C87.9954 32.3003 89.6434 33.1572 92.4046 33.1572C95.1145 33.1572 96.7918 32.3003 96.7845 30.7842C96.7918 29.2974 95.1145 28.4258 92.4046 28.4404C89.6434 28.4258 87.9954 29.2974 87.9954 30.7842ZM89.138 30.7842C89.138 29.8979 90.3538 29.3486 92.4046 29.3486C94.3968 29.3486 95.6492 29.8979 95.6565 30.7842C95.6492 31.707 94.3968 32.249 92.4046 32.249C90.3538 32.249 89.138 31.707 89.138 30.7842ZM95.5833 28.25H96.7259V20.1787H95.5833V28.25ZM106.581 21.5703H103.27V20.1055H102.128V21.5703H98.8171V22.5078H106.581V21.5703ZM99.5642 25.54C99.5568 26.9536 100.817 27.8765 102.699 27.8838C104.567 27.8765 105.819 26.9536 105.834 25.54C105.819 24.1045 104.567 23.1963 102.699 23.1816C100.817 23.1963 99.5568 24.1045 99.5642 25.54ZM100.443 29.9639H107.826V33.1865H108.968V29.0264H100.443V29.9639ZM100.663 25.54C100.655 24.6538 101.468 24.0825 102.699 24.0752C103.915 24.0825 104.735 24.6538 104.75 25.54C104.735 26.4043 103.915 26.9683 102.699 26.9609C101.468 26.9683 100.655 26.4043 100.663 25.54ZM107.826 28.3086H108.968V24.749H110.931V23.7822H108.968V20.1641H107.826V28.3086ZM122.72 20.1641H121.592V25.4229H119.79V20.5156H118.692V32.542H119.79V26.375H121.592V33.1865H122.72V20.1641ZM111.616 29.583L112.29 30.3887C116.033 28.3013 117.197 25.1738 117.212 21.8633H112.114V22.8154H116.084C115.886 25.5107 114.641 27.8911 111.616 29.583ZM136.325 27.6055H130.919V26.1699H135.065V25.2617H127.096V23.8115H134.787V20.5889H125.91V21.5117H133.629V22.9619H125.954V26.1699H129.792V27.6055H124.401V28.5576H136.325V27.6055ZM125.983 33.0547H135.065V32.1025H127.14V29.4365H125.983V33.0547Z" fill="#1A1A1A"/>
</svg>
