<svg width="90" height="18" viewBox="0 0 90 18" fill="none" xmlns="http://www.w3.org/2000/svg">
<path d="M9.54863 4.512C9.69263 4.144 10.0366 4.096 10.5806 4.368C10.7086 4.448 10.7806 4.544 10.7966 4.656C10.8286 4.768 10.8126 4.968 10.7486 5.256C10.6526 5.768 10.5726 6.328 10.5086 6.936L10.4126 7.944L11.2766 7.824C12.4446 7.68 13.0286 7.488 13.0286 7.248C13.0926 6 13.1806 5.184 13.2926 4.8C13.4206 4.4 13.6446 4.24 13.9646 4.32C14.2206 4.384 14.3726 4.544 14.4206 4.8C14.4846 5.04 14.4686 5.44 14.3726 6C14.2446 6.656 14.1326 8.112 14.0366 10.368C13.9886 11.92 13.9326 12.896 13.8686 13.296C13.8206 13.68 13.7166 13.92 13.5566 14.016C13.3166 14.144 13.1006 14.168 12.9086 14.088C12.7806 14.04 12.7006 13.864 12.6686 13.56C12.6526 13.24 12.6526 12.544 12.6686 11.472L12.7406 9L12.1406 9.024C11.7566 9.024 11.3486 9.112 10.9166 9.288L10.3406 9.528L10.4126 11.448C10.4606 12.104 10.4686 12.608 10.4366 12.96C10.4046 13.296 10.3406 13.52 10.2446 13.632C10.1646 13.744 10.0206 13.8 9.81263 13.8C9.44463 13.8 9.22863 13.56 9.16463 13.08C9.11663 12.6 9.13263 11.256 9.21263 9.048C9.35663 6.2 9.46863 4.688 9.54863 4.512ZM5.10863 4.68C5.94063 4.552 6.42863 4.656 6.57263 4.992C6.71663 5.312 6.74863 6.384 6.66863 8.208C6.60463 9.68 6.54863 10.552 6.50063 10.824C6.45263 11.096 6.30863 11.288 6.06863 11.4C5.74863 11.592 4.84463 11.696 3.35663 11.712L1.17263 11.76L0.980625 11.016C0.900625 10.712 0.836625 10.056 0.788625 9.048C0.740625 8.04 0.732625 7.192 0.764625 6.504C0.796625 5.72 2.24463 5.112 5.10863 4.68ZM5.61263 6.072H4.94063C4.52463 6.072 3.91663 6.184 3.11663 6.408L1.98863 6.72L1.94063 8.16C1.89263 9.024 1.90863 9.632 1.98863 9.984C2.05263 10.208 2.15663 10.336 2.30063 10.368C2.44463 10.4 2.90063 10.392 3.66862 10.344L5.20463 10.272L5.32463 9.624C5.40463 9.192 5.46863 8.496 5.51663 7.536L5.61263 6.072ZM18.8143 0.743999C18.8463 0.647999 18.9903 0.599999 19.2463 0.599999C19.4543 0.599999 19.5903 0.751999 19.6543 1.056C19.7343 1.344 19.7183 1.752 19.6063 2.28C19.5423 2.616 19.4943 2.84 19.4623 2.952C19.4463 3.064 19.4383 3.208 19.4383 3.384C19.4383 3.544 19.4463 3.64 19.4623 3.672C19.4783 3.688 19.5503 3.712 19.6783 3.744C19.8063 3.776 19.9183 3.784 20.0143 3.768C20.1103 3.752 20.2863 3.728 20.5423 3.696C21.4863 3.584 22.0143 3.688 22.1263 4.008C22.2543 4.312 21.9743 4.896 21.2863 5.76C20.7903 6.368 20.5423 6.72 20.5423 6.816C20.5423 6.912 20.7023 7.096 21.0223 7.368C21.3423 7.64 21.7103 7.896 22.1263 8.136C22.6223 8.44 22.8703 8.768 22.8703 9.12C22.8543 9.344 22.7023 9.456 22.4143 9.456C22.1423 9.456 21.7823 9.336 21.3343 9.096C20.9023 8.84 20.4943 8.528 20.1103 8.16L19.5823 7.68L19.1023 8.232C18.4943 8.952 18.0543 9.432 17.7823 9.672C17.5263 9.912 17.3103 10.032 17.1343 10.032C16.8783 10.032 16.7183 9.936 16.6543 9.744C16.5903 9.536 16.6463 9.296 16.8223 9.024C17.0143 8.752 17.6543 8.048 18.7423 6.912C19.8303 5.76 20.3743 5.136 20.3743 5.04C20.3743 5.024 20.3503 5.008 20.3023 4.992C20.2703 4.976 20.2223 4.968 20.1583 4.968C20.0943 4.968 20.0223 4.984 19.9423 5.016C19.5743 5.096 18.8383 5.232 17.7343 5.424C16.4703 5.632 15.7903 5.632 15.6943 5.424C15.6463 5.312 15.6783 5.136 15.7903 4.896C15.8543 4.72 15.9743 4.592 16.1503 4.512C16.3423 4.432 16.6863 4.352 17.1823 4.272C17.9983 4.144 18.3823 4 18.3343 3.84C18.3023 3.712 18.3583 3.192 18.5023 2.28C18.6463 1.368 18.7503 0.855999 18.8143 0.743999ZM24.5023 3.984C24.6143 3.776 24.7103 3.664 24.7903 3.648C24.8703 3.632 25.0303 3.688 25.2703 3.816C25.4463 3.912 25.5503 4.12 25.5823 4.44C25.6143 4.744 25.6303 5.52 25.6303 6.768C25.5983 8.688 25.5583 9.72 25.5103 9.864C25.4463 10.088 25.2703 10.208 24.9823 10.224C24.6943 10.224 24.5103 10.12 24.4303 9.912C24.3343 9.656 24.2943 8.656 24.3103 6.912C24.3423 5.152 24.4063 4.176 24.5023 3.984ZM20.9743 11.664C21.4063 11.456 21.9903 11.352 22.7263 11.352C23.0623 11.352 23.3423 11.384 23.5663 11.448C23.8063 11.496 24.0223 11.576 24.2143 11.688C24.4063 11.8 24.5743 11.952 24.7183 12.144C24.8623 12.32 25.0063 12.544 25.1503 12.816C25.3263 13.152 25.3983 13.6 25.3663 14.16C25.3343 14.704 25.1983 15.264 24.9583 15.84C24.8303 16.176 24.5183 16.48 24.0223 16.752C23.5423 17.04 23.0703 17.192 22.6063 17.208C22.2063 17.208 21.7343 17.056 21.1903 16.752C20.6463 16.448 20.2303 16.112 19.9423 15.744C19.4463 15.072 19.3023 14.304 19.5103 13.44C19.7343 12.576 20.2223 11.984 20.9743 11.664ZM23.6383 12.768C23.2543 12.48 22.7503 12.416 22.1263 12.576C21.5023 12.72 21.0623 13.008 20.8063 13.44C20.6143 13.792 20.5423 14.08 20.5903 14.304C20.6383 14.528 20.8383 14.824 21.1903 15.192C22.0223 16.088 22.8463 16.152 23.6623 15.384C23.9023 15.16 24.0463 14.976 24.0943 14.832C24.1423 14.672 24.1423 14.384 24.0943 13.968C24.0143 13.328 23.8623 12.928 23.6383 12.768ZM43.0459 4.368C43.1579 4.16 43.2539 4.048 43.3339 4.032C43.4299 4 43.5739 4.048 43.7659 4.176C43.9739 4.288 44.0619 5.992 44.0299 9.288C44.0139 12.568 43.9099 14.312 43.7179 14.52C43.5259 14.696 43.3419 14.752 43.1659 14.688C43.0219 14.624 42.9339 14.312 42.9019 13.752C42.8699 13.176 42.8539 11.808 42.8539 9.648C42.8539 6.368 42.9179 4.608 43.0459 4.368ZM37.6219 4.656C38.1819 4.272 38.5019 4.232 38.5819 4.536C38.6779 4.808 38.5019 5.208 38.0539 5.736C37.5899 6.28 37.3579 6.64 37.3579 6.816C37.3579 7.008 37.8779 7.616 38.9179 8.64C40.0539 9.792 40.5099 10.496 40.2859 10.752C40.2059 10.832 40.0619 10.888 39.8539 10.92C39.6779 10.952 39.4699 10.888 39.2299 10.728C39.0059 10.568 38.6779 10.248 38.2459 9.768C37.4459 8.936 36.9419 8.52 36.7339 8.52C36.5579 8.52 36.2779 8.896 35.8939 9.648C35.5099 10.384 35.3179 10.928 35.3179 11.28C35.3179 11.584 35.1819 11.776 34.9099 11.856C34.6379 11.936 34.4139 11.856 34.2379 11.616C34.0299 11.344 33.9659 11.048 34.0459 10.728C34.1419 10.392 34.4459 9.736 34.9579 8.76C36.1739 6.424 37.0619 5.056 37.6219 4.656ZM55.1364 2.832C55.2164 2.624 55.3364 2.512 55.4964 2.496C55.6564 2.48 55.8164 2.568 55.9764 2.76C56.1364 2.952 56.1844 3.52 56.1204 4.464C56.0244 5.392 56.0324 5.88 56.1444 5.928C56.2244 5.992 56.6324 5.968 57.3684 5.856C57.9924 5.76 58.4244 5.76 58.6644 5.856C58.9204 5.952 59.0244 6.168 58.9764 6.504C58.9604 6.664 58.8964 6.776 58.7844 6.84C58.6884 6.904 58.5124 6.944 58.2564 6.96C57.8244 6.992 57.2644 7.072 56.5764 7.2L55.5684 7.416L55.6404 8.856C55.6724 9.832 55.6404 10.392 55.5444 10.536C55.4484 10.696 55.2484 10.776 54.9444 10.776C54.6564 10.76 54.4884 10.68 54.4404 10.536C54.3604 10.328 54.4244 9.104 54.6324 6.864C54.8404 4.608 55.0084 3.264 55.1364 2.832ZM49.4724 2.952C50.0964 2.792 50.6564 2.72 51.1524 2.736C51.6484 2.752 51.9604 2.864 52.0884 3.072C52.1684 3.216 52.1524 3.416 52.0404 3.672C51.9284 3.912 51.6644 4.344 51.2484 4.968C51.0404 5.256 50.8804 5.488 50.7684 5.664C50.6724 5.84 50.5684 6.016 50.4564 6.192C50.3604 6.368 50.3204 6.512 50.3364 6.624C50.3524 6.736 50.3684 6.856 50.3844 6.984C50.4164 7.096 50.4964 7.216 50.6244 7.344C50.7684 7.472 50.9124 7.592 51.0564 7.704C51.2004 7.816 51.4084 7.968 51.6804 8.16C52.0644 8.4 52.2964 8.672 52.3764 8.976C52.4724 9.28 52.3844 9.48 52.1124 9.576C51.9364 9.656 51.6004 9.552 51.1044 9.264C50.6244 8.96 50.2084 8.608 49.8564 8.208L49.2564 7.56L48.6084 8.304C48.1764 8.784 47.8564 9.224 47.6484 9.624C47.5044 9.896 47.3764 10.064 47.2644 10.128C47.1524 10.192 46.9684 10.208 46.7124 10.176C46.2964 10.128 46.0724 10.016 46.0404 9.84C46.0244 9.712 46.4564 9.08 47.3364 7.944C48.2324 6.808 49.0564 5.84 49.8084 5.04C50.1604 4.656 50.3364 4.416 50.3364 4.32C50.3044 4.256 50.1444 4.232 49.8564 4.248C49.5844 4.248 49.2164 4.296 48.7524 4.392C48.3044 4.472 47.8644 4.576 47.4324 4.704C46.6004 4.944 46.0484 5.072 45.7764 5.088C45.5204 5.104 45.3604 5.024 45.2964 4.848C45.1524 4.496 45.2884 4.192 45.7044 3.936C46.1204 3.664 46.7844 3.472 47.6964 3.36C48.3524 3.248 48.9444 3.112 49.4724 2.952ZM54.1044 11.472C54.1684 11.456 54.2324 11.448 54.2964 11.448C54.3764 11.432 54.4404 11.424 54.4884 11.424C54.5524 11.408 54.6084 11.392 54.6564 11.376C54.7204 11.36 54.7604 11.352 54.7764 11.352C54.9204 11.352 55.0884 11.464 55.2804 11.688C55.4884 11.928 55.6084 12.784 55.6404 14.256C55.6724 15.36 55.6644 16.016 55.6164 16.224C55.5844 16.432 55.4564 16.584 55.2324 16.68C54.8804 16.808 54.6324 16.72 54.4884 16.416C54.3604 16.128 54.2964 15.528 54.2964 14.616C54.2964 13.688 54.2164 13.152 54.0564 13.008C53.9124 12.848 53.4564 12.864 52.6884 13.056C51.7604 13.28 51.1044 13.416 50.7204 13.464C50.3524 13.512 50.1204 13.488 50.0244 13.392C49.8164 13.232 49.7364 13.048 49.7844 12.84C49.8324 12.616 49.9764 12.448 50.2164 12.336C50.6644 12.096 51.9604 11.808 54.1044 11.472ZM63.5141 1.464C63.6261 1.368 63.7861 1.336 63.9941 1.368C64.2181 1.4 64.3941 1.496 64.5221 1.656C64.6981 1.864 64.7701 2.4 64.7381 3.264L64.6901 4.584L66.0581 4.464C66.9701 4.384 67.5221 4.32 67.7141 4.272C67.9061 4.208 68.0821 4.264 68.2421 4.44C68.4021 4.616 68.4741 4.824 68.4581 5.064C68.4581 5.288 68.3781 5.488 68.2181 5.664C68.0421 5.824 67.7941 5.824 67.4741 5.664C67.2661 5.568 67.0581 5.528 66.8501 5.544C66.6581 5.56 66.3301 5.624 65.8661 5.736C65.0181 5.96 64.2581 6.104 63.5861 6.168C62.7381 6.248 62.0421 6.384 61.4981 6.576C61.1141 6.72 60.8741 6.792 60.7781 6.792C60.6821 6.792 60.5701 6.704 60.4421 6.528C60.2661 6.304 60.1781 6.144 60.1781 6.048C60.1781 5.664 60.8501 5.352 62.1941 5.112L63.6341 4.872L63.5141 3.216C63.4341 2.144 63.4341 1.56 63.5141 1.464ZM70.9301 5.808C71.0741 5.616 71.1941 5.52 71.2901 5.52C71.4021 5.52 71.5381 5.608 71.6981 5.784C71.8581 5.976 71.8821 6.712 71.7701 7.992L71.6501 9.888L72.5621 9.768C72.6741 9.752 72.8021 9.736 72.9461 9.72C73.0901 9.688 73.2101 9.664 73.3061 9.648C73.4181 9.616 73.5221 9.592 73.6181 9.576C73.7301 9.56 73.8101 9.544 73.8581 9.528C74.0821 9.48 74.3061 9.544 74.5301 9.72C74.7701 9.896 74.8901 10.088 74.8901 10.296C74.8901 10.6 74.4501 10.8 73.5701 10.896C72.5621 10.992 71.9941 11.104 71.8661 11.232C71.7381 11.328 71.6741 11.672 71.6741 12.264C71.6741 12.312 71.6741 12.392 71.6741 12.504C71.6421 13.768 71.6021 14.504 71.5541 14.712C71.5221 14.92 71.3941 15.04 71.1701 15.072C71.1381 15.072 71.1141 15.072 71.0981 15.072C70.8741 15.104 70.7221 15.088 70.6421 15.024C70.5781 14.96 70.5221 14.792 70.4741 14.52C70.4101 14.232 70.3861 13.632 70.4021 12.72C70.4341 11.792 70.4741 10.84 70.5221 9.864C70.5701 8.872 70.6261 7.968 70.6901 7.152C70.7701 6.336 70.8501 5.888 70.9301 5.808ZM64.6181 7.128C64.8261 7.064 65.0661 7.064 65.3381 7.128C65.6261 7.176 65.8341 7.2 65.9621 7.2C66.1221 7.2 66.5461 7.528 67.2341 8.184C67.8101 8.744 68.1781 9.264 68.3381 9.744C68.4981 10.208 68.4901 10.736 68.3141 11.328C68.1221 11.968 67.8101 12.528 67.3781 13.008C66.9621 13.472 66.4901 13.8 65.9621 13.992C65.4501 14.168 64.9301 14.256 64.4021 14.256C63.8741 14.24 63.3861 14.072 62.9381 13.752C62.4901 13.432 62.1381 12.992 61.8821 12.432C61.6261 11.84 61.4981 11.408 61.4981 11.136C61.4981 10.896 61.6021 10.504 61.8101 9.96C62.0341 9.4 62.2661 8.968 62.5061 8.664C62.6341 8.488 62.8261 8.296 63.0821 8.088C63.3381 7.864 63.6021 7.664 63.8741 7.488C64.1621 7.312 64.4101 7.192 64.6181 7.128ZM66.6581 9.096C65.9381 8.328 65.1461 8.232 64.2821 8.808C63.6261 9.256 63.1941 9.824 62.9861 10.512C62.7941 11.184 62.8661 11.776 63.2021 12.288C63.5381 12.8 64.0661 13.056 64.7861 13.056C65.2341 13.056 65.6101 12.968 65.9141 12.792C66.2181 12.6 66.5061 12.288 66.7781 11.856C67.0661 11.376 67.1941 10.888 67.1621 10.392C67.1461 9.88 66.9781 9.448 66.6581 9.096ZM88.1642 4.032C88.2762 3.856 88.4522 3.792 88.6922 3.84C88.9482 3.872 89.1162 4 89.1962 4.224C89.2922 4.512 89.2922 5.472 89.1962 7.104C89.1002 8.896 89.0522 10.512 89.0522 11.952C89.0362 13.52 88.9562 14.376 88.8122 14.52C88.6522 14.664 88.4682 14.736 88.2602 14.736C88.0522 14.72 87.9242 14.64 87.8762 14.496C87.8122 14.304 87.8282 12.544 87.9242 9.216C88.0202 5.888 88.1002 4.16 88.1642 4.032ZM80.4602 5.04C80.8922 4.96 81.2202 4.904 81.4442 4.872C81.6842 4.84 81.9162 4.816 82.1402 4.8C82.3642 4.784 82.5242 4.784 82.6202 4.8C82.7322 4.8 82.8282 4.824 82.9082 4.872C83.0042 4.904 83.0682 4.952 83.1002 5.016C83.1322 5.064 83.1722 5.144 83.2202 5.256C83.4602 5.88 83.2122 7.704 82.4762 10.728C82.2682 11.608 82.1082 12.192 81.9962 12.48C81.8842 12.752 81.7482 12.904 81.5882 12.936C81.2202 13.032 80.9962 12.96 80.9162 12.72C80.8362 12.48 80.8922 12.04 81.0842 11.4C81.2762 10.792 81.4922 9.784 81.7322 8.376C81.9882 6.968 82.0842 6.232 82.0202 6.168C81.9562 6.104 81.6122 6.128 80.9882 6.24C79.1802 6.624 78.0362 6.848 77.5562 6.912C77.0922 6.96 76.7322 6.936 76.4762 6.84C75.7722 6.52 76.0442 6.152 77.2922 5.736C78.0602 5.48 79.1162 5.248 80.4602 5.04Z" fill="white"/>
</svg>
