<svg width="173" height="48" viewBox="0 0 173 48" fill="none" xmlns="http://www.w3.org/2000/svg">
<path d="M26.43 12.725C26.69 12.335 27.1667 12.1833 27.86 12.27C28.5533 12.3567 29.0083 12.6383 29.225 13.115C29.5283 13.6783 29.55 15.845 29.29 19.615C28.9433 23.8617 28.7267 28.195 28.64 32.615C28.5967 35.5617 28.51 37.555 28.38 38.595C28.25 39.635 28.0117 40.2417 27.665 40.415C27.1883 40.7617 26.625 40.8267 25.975 40.61C25.5417 40.4367 25.3033 39.7 25.26 38.4C25.2167 37.1 25.2817 33.5033 25.455 27.61C25.6717 21.0667 25.8233 17.0583 25.91 15.585C25.9967 14.1117 26.17 13.1583 26.43 12.725ZM5.5 14.285C7.49333 13.7217 9.63833 13.4617 11.935 13.505C14.275 13.5483 15.77 13.8733 16.42 14.48C16.8533 14.9133 17.1133 17.6867 17.2 22.8C17.33 27.87 17.2 30.6 16.81 30.99C16.55 31.25 14.08 31.7267 9.4 32.42C6.23667 32.81 4.265 33.005 3.485 33.005C2.705 33.005 2.185 32.81 1.925 32.42C1.275 31.51 0.863333 28.845 0.69 24.425C0.516667 19.9617 0.69 17.275 1.21 16.365C1.68667 15.6717 3.11667 14.9783 5.5 14.285ZM13.17 17.08C12.65 16.9067 12.26 16.82 12 16.82C11.9567 16.8633 11.7833 16.9067 11.48 16.95C11.22 16.9933 10.8517 17.0583 10.375 17.145C9.89833 17.2317 9.465 17.2967 9.075 17.34C6.38833 17.7733 4.82833 18.2283 4.395 18.705C3.96167 19.1817 3.745 20.6767 3.745 23.19C3.745 25.9633 3.83167 27.6317 4.005 28.195C4.22167 28.715 5.71667 28.8883 8.49 28.715C11.1767 28.585 12.8017 28.4333 13.365 28.26C13.755 28.13 13.95 26.2883 13.95 22.735C13.95 20.5683 13.885 19.1167 13.755 18.38C13.6683 17.6433 13.4733 17.21 13.17 17.08ZM41.6507 5.64C43.124 5.46666 45.139 5.29333 47.6957 5.12C48.389 5.07666 48.9307 5.40167 49.3207 6.095C49.7107 6.78833 49.7323 7.46 49.3857 8.11C49.2123 8.41333 48.779 8.60833 48.0857 8.695C47.3923 8.73833 46.0707 8.73833 44.1207 8.695C40.9573 8.565 38.8557 8.73833 37.8157 9.215C36.7757 9.69167 36.1473 10.8183 35.9307 12.595C35.7573 14.1117 35.8007 15.2817 36.0607 16.105C36.3207 16.6683 36.5807 16.9717 36.8407 17.015C37.1007 17.015 37.924 16.8417 39.3107 16.495C41.2607 16.0183 43.3623 15.78 45.6157 15.78C46.699 15.78 47.5007 15.8017 48.0207 15.845C48.584 15.8883 48.9957 15.975 49.2557 16.105C49.5157 16.235 49.7107 16.4517 49.8407 16.755C50.404 17.7517 49.819 18.445 48.0857 18.835C47.219 19.0517 45.919 19.225 44.1857 19.355C40.9357 19.7017 38.834 20.0267 37.8807 20.33C37.1873 20.6333 36.754 20.8933 36.5807 21.11C36.4073 21.3267 36.3857 21.695 36.5157 22.215C36.6023 22.8217 36.7323 23.19 36.9057 23.32C37.1223 23.4067 37.6207 23.385 38.4007 23.255C43.254 22.4317 46.5907 22.02 48.4107 22.02C50.2307 22.02 51.2057 22.4317 51.3357 23.255C51.3357 23.2983 51.3357 23.3417 51.3357 23.385C51.4223 23.8183 51.2273 24.1433 50.7507 24.36C50.0573 24.62 46.764 25.335 40.8707 26.505L40.8057 26.57H40.7407H40.6757H40.6107H40.5457L40.4807 26.635H40.4157H40.3507H40.2857H40.2207L40.1557 26.7H40.0907H40.0257H39.9607H39.8957L39.8307 26.765H39.7657C37.9023 27.155 36.6673 27.35 36.0607 27.35C35.4973 27.35 35.064 27.1983 34.7607 26.895C33.894 26.0717 33.244 22.1067 32.8107 15C32.724 13.96 32.6807 13.0933 32.6807 12.4C32.6807 11.7067 32.724 11.035 32.8107 10.385C32.8973 9.69167 33.0057 9.15 33.1357 8.76C33.2657 8.37 33.504 8.00167 33.8507 7.655C34.1973 7.265 34.5657 6.98333 34.9557 6.81C35.3457 6.63666 35.8873 6.46333 36.5807 6.29C37.274 6.11666 38.0107 5.98666 38.7907 5.9C39.5707 5.81333 40.524 5.72666 41.6507 5.64ZM55.8207 8.89C55.994 8.41333 56.384 8.15333 56.9907 8.11C57.5973 8.06666 58.074 8.26167 58.4207 8.695C58.6373 9.04167 58.7457 12.2483 58.7457 18.315C58.789 24.3817 58.7023 27.545 58.4857 27.805C58.3123 27.935 57.7707 27.8483 56.8607 27.545L55.4957 27.025V18.38C55.4957 12.66 55.604 9.49667 55.8207 8.89ZM50.6857 30.405C51.5957 30.3183 52.159 30.2317 52.3757 30.145C52.549 30.0583 52.9173 30.1883 53.4807 30.535C54.0873 30.8383 54.7157 31.2933 55.3657 31.9C56.0157 32.4633 56.514 33.005 56.8607 33.525C57.4673 34.3483 57.8573 35.0417 58.0307 35.605C58.204 36.1683 58.269 37.1 58.2257 38.4C58.1823 39.6567 58.0523 40.6317 57.8357 41.325C57.619 42.0183 57.2073 42.7767 56.6007 43.6C54.564 46.4167 52.159 47.5217 49.3857 46.915C47.999 46.6117 46.569 45.875 45.0957 44.705C43.6223 43.5783 42.604 42.365 42.0407 41.065C41.3907 39.765 41.174 38.5733 41.3907 37.49C41.6073 36.3633 42.279 35.1717 43.4057 33.915C43.7957 33.4383 44.164 33.0483 44.5107 32.745C44.8573 32.4417 45.2257 32.1817 45.6157 31.965C46.049 31.705 46.504 31.4883 46.9807 31.315C47.5007 31.0983 48.0423 30.925 48.6057 30.795C49.2123 30.665 49.9057 30.535 50.6857 30.405ZM54.0007 35.085C53.3073 34.2617 52.6357 33.785 51.9857 33.655C51.3357 33.4817 50.404 33.6117 49.1907 34.045C48.3673 34.305 47.609 34.6733 46.9157 35.15C46.2657 35.6267 45.7457 36.1683 45.3557 36.775C44.9657 37.3383 44.7707 37.88 44.7707 38.4C44.7707 39.2233 45.3557 40.2633 46.5257 41.52C47.6957 42.7767 48.779 43.5133 49.7757 43.73C50.469 43.86 51.0107 43.8383 51.4007 43.665C51.834 43.4917 52.4407 42.9933 53.2207 42.17C53.914 41.4333 54.369 40.8267 54.5857 40.35C54.8457 39.83 54.9757 39.1583 54.9757 38.335C54.9757 37.035 54.6507 35.9517 54.0007 35.085ZM70.1303 1.09C70.477 0.743331 70.9536 0.548331 71.5603 0.504998C72.167 0.461666 72.557 0.613332 72.7303 0.959996C72.947 1.17667 73.1636 2.36833 73.3803 4.535L73.7053 7.72L76.8253 7.265C79.382 6.96166 80.9853 6.85333 81.6353 6.94C82.2853 7.02666 82.7836 7.41667 83.1303 8.11C83.5203 8.93333 83.5203 9.58333 83.1303 10.06C82.7836 10.5367 82.1336 10.6667 81.1803 10.45C80.5736 10.32 78.6886 10.515 75.5253 11.035C72.362 11.5117 69.3936 12.0967 66.6203 12.79C63.587 13.57 62.0703 13.2017 62.0703 11.685C62.0703 11.2083 62.2003 10.84 62.4603 10.58C62.7636 10.2767 63.3053 9.97333 64.0853 9.67C65.5586 9.19333 66.9236 8.99833 68.1803 9.085H70.1303L69.8703 5.38C69.6103 2.91 69.697 1.48 70.1303 1.09ZM89.1753 10.71C89.3486 10.3633 89.8686 10.19 90.7353 10.19H92.0353L91.8403 14.61L91.7103 19.095H94.5053C96.0653 19.095 97.127 19.225 97.6903 19.485C98.297 19.7017 98.6003 20.1783 98.6003 20.915C98.6003 21.565 98.362 22.02 97.8853 22.28C97.4086 22.4967 96.607 22.5833 95.4803 22.54C94.2236 22.4967 93.1403 22.6267 92.2303 22.93C91.6236 23.19 91.2553 23.4717 91.1253 23.775C91.0386 24.035 91.082 24.685 91.2553 25.725C91.472 27.415 91.472 28.585 91.2553 29.235C91.1253 29.9283 90.6703 30.4267 89.8903 30.73C89.1103 30.99 88.5686 30.8817 88.2653 30.405C87.962 30.015 87.897 27.09 88.0703 21.63C88.2436 17.4267 88.3953 14.675 88.5253 13.375C88.6553 12.0317 88.872 11.1433 89.1753 10.71ZM69.9353 15.65C71.5386 14.8267 72.5786 14.415 73.0553 14.415C73.5753 14.3717 74.5936 14.6317 76.1103 15.195C78.3203 15.975 79.8153 16.885 80.5953 17.925C81.4186 18.9217 81.852 20.4167 81.8953 22.41C82.0253 25.7033 80.3136 28.1733 76.7603 29.82C75.3303 30.5133 74.0303 30.925 72.8603 31.055C71.6903 31.1417 70.3686 30.9683 68.8953 30.535C67.2486 30.1017 66.057 29.43 65.3203 28.52C64.5836 27.61 64.1503 26.31 64.0203 24.62C63.8903 23.2333 63.8903 22.28 64.0203 21.76C64.1503 21.24 64.627 20.4383 65.4503 19.355C66.4903 17.925 67.9853 16.69 69.9353 15.65ZM77.4753 18.9C76.392 17.9033 74.9186 17.6217 73.0553 18.055C71.192 18.4883 69.5236 19.485 68.0503 21.045C67.487 21.6083 67.1403 22.085 67.0103 22.475C66.9236 22.865 66.9453 23.45 67.0753 24.23C67.422 25.66 68.3753 26.7217 69.9353 27.415C71.5386 28.1083 73.0336 28.0867 74.4203 27.35C76.5003 26.31 77.8436 24.945 78.4503 23.255C79.1003 21.5217 78.7753 20.07 77.4753 18.9ZM81.5053 34.695C86.3153 34.175 89.132 34.175 89.9553 34.695C90.2586 34.8683 90.4536 35.3883 90.5403 36.255C90.627 37.1217 90.6703 38.725 90.6703 41.065V46.98L89.3053 47.435C88.3953 47.7383 87.8103 47.565 87.5503 46.915C87.3336 46.3083 87.247 44.6617 87.2903 41.975C87.3336 39.245 87.2253 37.7933 86.9653 37.62C86.6186 37.4033 83.412 37.88 77.3453 39.05C76.4353 39.2233 75.7203 39.115 75.2003 38.725C74.7236 38.2917 74.5936 37.75 74.8103 37.1C75.0703 36.45 75.6553 35.9517 76.5653 35.605C77.3886 35.2583 79.0353 34.955 81.5053 34.695ZM142.105 11.555C142.625 11.3383 143.167 11.2517 143.73 11.295C144.293 11.295 144.662 11.425 144.835 11.685C145.008 11.945 144.9 14.5233 144.51 19.42C144.163 23.84 143.86 28.1517 143.6 32.355C143.427 35.2583 143.145 37.1217 142.755 37.945C142.408 38.725 141.737 38.9417 140.74 38.595C140.307 38.4217 140.047 37.5767 139.96 36.06C139.917 34.5 140.068 31.9217 140.415 28.325L140.74 24.36L138.4 24.62C136.797 24.8367 135.258 25.27 133.785 25.92L131.315 26.895V32.29C131.272 34.4133 131.185 35.865 131.055 36.645C130.925 37.3817 130.687 37.88 130.34 38.14C128.737 39.3533 127.957 38.725 128 36.255C128.087 31.6617 128.26 26.6783 128.52 21.305C128.823 15.8883 129.083 12.985 129.3 12.595C129.517 12.1183 129.907 11.8367 130.47 11.75C131.077 11.6633 131.662 11.815 132.225 12.205C132.485 12.3783 132.615 12.7683 132.615 13.375C132.658 13.9817 132.55 15.2167 132.29 17.08C131.857 20.0267 131.748 21.5867 131.965 21.76C132.052 21.89 132.528 21.9117 133.395 21.825C134.305 21.7383 135.258 21.6083 136.255 21.435C137.295 21.2617 138.27 21.0667 139.18 20.85C140.133 20.59 140.697 20.395 140.87 20.265C141.26 19.9183 141.455 18.4233 141.455 15.78C141.455 13.1367 141.672 11.7283 142.105 11.555ZM113.895 14.48C116.105 14.0467 117.492 13.83 118.055 13.83C118.618 13.83 119.095 14.0467 119.485 14.48C119.832 14.9133 119.962 15.715 119.875 16.885C119.832 18.0117 119.572 20.1133 119.095 23.19C119.052 23.5367 118.878 24.6417 118.575 26.505C118.272 28.3683 118.055 29.755 117.925 30.665C117.578 33.3083 117.232 34.76 116.885 35.02C116.712 35.15 116.387 35.215 115.91 35.215C114.957 35.215 114.393 34.8467 114.22 34.11C114.09 33.3733 114.242 31.7917 114.675 29.365C115.845 22.9517 116.43 19.29 116.43 18.38C116.43 18.0767 116.387 17.86 116.3 17.73C116.213 17.5567 116.083 17.4917 115.91 17.535C115.563 17.795 113.852 18.1633 110.775 18.64C107.742 19.1167 105.705 19.355 104.665 19.355C103.452 19.355 102.628 19.095 102.195 18.575C101.415 17.665 102.152 16.9067 104.405 16.3C105.098 16.1267 105.965 15.9533 107.005 15.78C109.475 15.39 111.772 14.9567 113.895 14.48ZM153.865 2.325C155.728 1.805 157.7 1.545 159.78 1.545C161.903 1.50166 163.29 1.82666 163.94 2.52C164.59 3.17 165.045 4.75166 165.305 7.265C165.391 8.34833 165.456 9.12833 165.5 9.605C165.543 10.0817 165.521 10.6233 165.435 11.23C165.348 11.7933 165.24 12.1617 165.11 12.335C164.98 12.465 164.655 12.6817 164.135 12.985C163.658 13.245 163.181 13.44 162.705 13.57C162.271 13.6567 161.535 13.83 160.495 14.09C157.115 14.9567 155.035 15.5633 154.255 15.91C153.518 16.2567 153.215 16.8633 153.345 17.73C153.388 18.2067 153.496 18.5533 153.67 18.77C153.886 18.9433 154.19 18.9867 154.58 18.9C157.05 18.5967 159.628 18.0333 162.315 17.21C164.958 16.43 166.28 16.9933 166.28 18.9C166.28 19.3767 166.15 19.7233 165.89 19.94C165.673 20.1133 165.11 20.2867 164.2 20.46C163.29 20.59 161.361 21.0667 158.415 21.89C154.645 22.93 152.196 23.19 151.07 22.67C149.986 22.15 149.575 20.5683 149.835 17.925C150.008 15.975 150.485 14.6533 151.265 13.96C152.088 13.2667 153.821 12.6167 156.465 12.01C157.591 11.75 158.436 11.555 159 11.425C159.563 11.295 160.105 11.1433 160.625 10.97C161.188 10.7533 161.556 10.6017 161.73 10.515C161.903 10.385 162.055 10.1683 162.185 9.865C162.315 9.56166 162.358 9.30166 162.315 9.085C162.315 8.825 162.271 8.435 162.185 7.915C161.925 6.57167 161.643 5.66167 161.34 5.185C160.82 4.535 158.523 4.75166 154.45 5.835C152.76 6.31167 151.265 6.55 149.965 6.55C149.228 6.55 148.73 6.485 148.47 6.355C148.253 6.225 148.145 5.965 148.145 5.575C148.145 4.405 150.051 3.32166 153.865 2.325ZM158.285 24.295C159.325 23.0383 160.083 23.06 160.56 24.36C160.776 25.01 160.885 25.855 160.885 26.895C160.885 27.7183 160.95 28.2167 161.08 28.39C161.253 28.52 161.751 28.4983 162.575 28.325C163.441 28.1517 164.893 27.9567 166.93 27.74C168.056 27.5667 168.793 27.5233 169.14 27.61C169.486 27.6967 169.79 27.9783 170.05 28.455C170.44 29.1483 170.526 29.7333 170.31 30.21C170.136 30.6867 169.66 31.055 168.88 31.315C168.143 31.5317 167.125 31.64 165.825 31.64C164.481 31.64 162.445 31.9 159.715 32.42C153.865 33.5033 150.745 33.46 150.355 32.29C150.051 31.5533 150.355 30.9033 151.265 30.34C152.218 29.7767 153.388 29.56 154.775 29.69L157.115 29.82L157.375 27.48C157.548 25.9633 157.851 24.9017 158.285 24.295ZM154.385 37.165C154.818 36.8617 155.381 36.7533 156.075 36.84C156.595 36.9267 156.898 37.1867 156.985 37.62C157.071 38.01 157.006 38.985 156.79 40.545C156.79 40.545 156.79 40.5667 156.79 40.61C156.703 41.39 156.855 41.8233 157.245 41.91C157.635 41.9967 159.021 41.8883 161.405 41.585C161.621 41.585 161.795 41.585 161.925 41.585C162.098 41.5417 162.336 41.4983 162.64 41.455C166.93 40.935 169.443 40.6967 170.18 40.74C170.96 40.74 171.48 41.0217 171.74 41.585C171.74 41.6283 171.761 41.6717 171.805 41.715C172.021 42.3217 172.021 42.82 171.805 43.21C171.631 43.6 171.22 43.8817 170.57 44.055C169.92 44.2717 169.075 44.38 168.035 44.38C166.431 44.2933 163.961 44.6617 160.625 45.485C157.288 46.265 155.381 46.46 154.905 46.07C154.081 45.5933 153.583 44.0983 153.41 41.585C153.236 39.115 153.561 37.6417 154.385 37.165Z" fill="#1A1A1A"/>
</svg>
