<svg width="152" height="162" viewBox="0 0 186 200" fill="none" xmlns="http://www.w3.org/2000/svg">
<g clip-path="url(#clip0_41_3012)">
<path d="M5.63667 96.6751C5.66554 51.3268 38.2166 12.1951 82.9292 6.51216C127.642 0.829195 168.955 30.5782 180.344 74.477L185.981 73.763C174.152 26.6694 130.002 -5.33697 82.193 0.735441C34.3913 6.80785 -0.339446 48.8387 -0.000222126 97.3963L5.63667 96.6824V96.6751Z" fill="#DD4B4B"/>
<path d="M11.4901 95.9327C11.9015 53.909 42.1863 17.7847 83.6943 12.5128C125.202 7.24091 163.571 34.6461 174.491 75.2273L180.344 74.4845C168.962 30.5858 127.649 0.836757 82.9293 6.51972C38.2167 12.1955 5.66559 51.3272 5.63672 96.6755L11.4901 95.9327Z" fill="#F2D766"/>
<path d="M17.3942 95.1826C18.1809 56.5197 46.1849 23.4171 84.4595 18.5563C122.734 13.6955 158.136 38.7352 168.58 75.9774L174.484 75.2273C163.571 34.6461 125.202 7.24089 83.6944 12.5128C42.1864 17.7847 11.9016 53.909 11.4902 95.9327L17.3942 95.1826Z" fill="#7EC182"/>
<path d="M23.2187 94.4467C24.3735 59.0868 50.1256 28.9627 85.2173 24.4986C120.309 20.0416 152.788 42.7663 162.762 76.7198L168.587 75.977C158.143 38.7421 122.741 13.6952 84.4667 18.556C46.1921 23.4168 18.1881 56.5194 17.4014 95.1823L23.2259 94.4395L23.2187 94.4467Z" fill="#5B89B2"/>
<path d="M28.5163 93.769C29.9887 61.4093 53.7055 33.9825 85.9101 29.8934C118.107 25.8042 147.938 46.423 157.472 77.3836L162.77 76.7129C152.802 42.7666 120.316 20.0347 85.2244 24.4917C50.1328 28.9486 24.3806 59.0726 23.2258 94.4397L28.5235 93.769H28.5163Z" fill="#9C7DB5"/>
<path d="M36.8239 109.195C36.7445 108.51 36.6651 107.832 36.593 107.147C36.5424 106.693 36.0516 106.491 35.6691 106.722C33.2801 108.214 24.0633 112.087 21.2557 112.419C21.0969 112.441 20.9454 112.455 20.7866 112.469C20.5773 112.491 20.5917 112.498 20.4906 112.34C20.2886 112.029 20.1947 111.553 20.0576 111.207C19.7905 110.508 19.5163 109.808 19.2492 109.109C18.6935 107.652 18.1305 106.202 17.5748 104.745C17.0335 103.346 16.3911 101.947 15.9508 100.512C15.7415 99.827 15.7704 99.2067 16.023 98.5432C16.2467 97.9519 16.5354 97.3749 16.6365 96.7475C16.853 95.4349 16.1746 94.2954 15.7487 93.0983C15.3373 91.9227 15.7776 90.4299 14.8249 89.4779C13.8505 88.4971 12.4359 89.0885 11.7863 90.1198C11.2017 91.0357 11.3316 92.0453 11.5193 93.0478C11.1079 92.6728 10.7037 92.2977 10.2923 91.9155C9.63548 91.3097 8.97147 90.5236 8.11258 90.2207C6.68351 89.7159 5.3194 90.8482 5.30497 92.1896C4.98018 92.2256 4.65539 92.3771 4.40999 92.6151C4.09242 92.9252 3.96251 93.3146 3.92642 93.7257C3.16858 93.6175 2.34578 93.9925 1.93438 94.6632C1.19819 95.8748 1.72507 97.3244 2.51178 98.3557C3.81815 100.065 5.82463 101.385 7.8311 102.12C8.32911 102.301 8.87043 102.452 9.41896 102.524C11.6636 106.707 13.8505 110.933 16.1746 115.073C17.1128 116.753 18.5997 119.018 20.8371 118.441C21.9486 118.152 23.024 117.59 24.0778 117.15C25.182 116.696 32.8038 113.342 33.908 112.88C34.4854 112.642 35.0701 112.404 35.6475 112.159C36.1816 111.943 36.8167 111.748 36.9611 111.114C37.0982 110.515 36.8889 109.779 36.8167 109.181L36.8239 109.195Z" fill="#EF6767"/>
<path d="M36.8239 109.195C36.7445 108.51 36.6651 107.832 36.593 107.147C36.5424 106.693 36.0516 106.491 35.6691 106.722C33.2801 108.214 24.0633 112.087 21.2557 112.419C21.0969 112.441 20.9454 112.455 20.7866 112.469C20.5773 112.491 20.5917 112.498 20.4906 112.34C20.2886 112.029 20.1947 111.553 20.0576 111.207C19.7905 110.508 19.5163 109.808 19.2492 109.109C18.6935 107.652 18.1305 106.202 17.5748 104.745C17.0335 103.346 16.3911 101.947 15.9508 100.512C15.7415 99.827 15.7704 99.2067 16.023 98.5432C16.2467 97.9519 16.5354 97.3749 16.6365 96.7475C16.853 95.4349 16.1746 94.2954 15.7487 93.0983C15.3373 91.9227 15.7776 90.4299 14.8249 89.4779C13.8505 88.4971 12.4359 89.0885 11.7863 90.1198C11.2017 91.0357 11.3316 92.0453 11.5193 93.0478C11.1079 92.6728 10.7037 92.2977 10.2923 91.9155C9.63548 91.3097 8.97147 90.5236 8.11258 90.2207C6.68351 89.7159 5.3194 90.8482 5.30497 92.1896C4.98018 92.2256 4.65539 92.3771 4.40999 92.6151C4.09242 92.9252 3.96251 93.3146 3.92642 93.7257C3.16858 93.6175 2.34578 93.9925 1.93438 94.6632C1.19819 95.8748 1.72507 97.3244 2.51178 98.3557C3.81815 100.065 5.82463 101.385 7.8311 102.12C8.32911 102.301 8.87043 102.452 9.41896 102.524C11.6636 106.707 13.8505 110.933 16.1746 115.073C17.1128 116.753 18.5997 119.018 20.8371 118.441C21.9486 118.152 23.024 117.59 24.0778 117.15C25.182 116.696 32.8038 113.342 33.908 112.88C34.4854 112.642 35.0701 112.404 35.6475 112.159C36.1816 111.943 36.8167 111.748 36.9611 111.114C37.0982 110.515 36.8889 109.779 36.8167 109.181L36.8239 109.195Z" fill="url(#paint0_radial_41_3012)"/>
<path d="M155.971 93.2137C155.841 92.5358 155.704 91.8651 155.574 91.1872C155.487 90.7401 155.891 90.3939 156.324 90.5021C159.053 91.2088 169.013 92.1248 171.784 91.5911C171.936 91.5622 172.095 91.5334 172.246 91.4973C172.456 91.454 172.441 91.4685 172.492 91.2882C172.593 90.9348 172.542 90.4516 172.564 90.0766C172.607 89.3265 172.658 88.5765 172.701 87.8337C172.795 86.2759 172.889 84.7254 172.982 83.1676C173.076 81.6675 173.264 80.1458 173.25 78.6457C173.25 77.9246 173.033 77.3476 172.586 76.7851C172.196 76.2947 171.748 75.8259 171.46 75.2634C170.853 74.0734 171.164 72.7825 171.2 71.5204C171.243 70.2727 170.37 68.989 170.983 67.7846C171.618 66.5514 173.141 66.6956 174.072 67.4817C174.902 68.1813 175.083 69.1837 175.205 70.1934L176.036 68.751C176.476 67.9794 176.873 67.0274 177.602 66.4721C178.814 65.5634 180.453 66.2269 180.878 67.5034C181.203 67.4385 181.55 67.4817 181.86 67.6404C182.257 67.8423 182.502 68.1741 182.654 68.5563C183.34 68.2246 184.242 68.3327 184.834 68.852C185.902 69.7823 185.837 71.3257 185.397 72.5517C184.668 74.571 183.152 76.4389 181.463 77.7443C181.044 78.0688 180.575 78.3717 180.07 78.6025C179.19 83.2686 178.381 87.9563 177.421 92.6007C177.032 94.483 176.303 97.0937 173.993 97.2163C172.853 97.274 171.654 97.0649 170.514 96.9639C169.323 96.863 161.045 95.9615 159.854 95.8605C159.226 95.81 158.605 95.7523 157.977 95.7018C157.407 95.6514 156.743 95.6586 156.411 95.1033C156.101 94.5768 156.079 93.8123 155.964 93.221L155.971 93.2137Z" fill="#EF6767"/>
<path d="M155.971 93.2137C155.841 92.5358 155.704 91.8651 155.574 91.1872C155.487 90.7401 155.891 90.3939 156.324 90.5021C159.053 91.2088 169.013 92.1248 171.784 91.5911C171.936 91.5622 172.095 91.5334 172.246 91.4973C172.456 91.454 172.441 91.4685 172.492 91.2882C172.593 90.9348 172.542 90.4516 172.564 90.0766C172.607 89.3265 172.658 88.5765 172.701 87.8337C172.795 86.2759 172.889 84.7254 172.982 83.1676C173.076 81.6675 173.264 80.1458 173.25 78.6457C173.25 77.9246 173.033 77.3476 172.586 76.7851C172.196 76.2947 171.748 75.8259 171.46 75.2634C170.853 74.0734 171.164 72.7825 171.2 71.5204C171.243 70.2727 170.37 68.989 170.983 67.7846C171.618 66.5514 173.141 66.6956 174.072 67.4817C174.902 68.1813 175.083 69.1837 175.205 70.1934L176.036 68.751C176.476 67.9794 176.873 67.0274 177.602 66.4721C178.814 65.5634 180.453 66.2269 180.878 67.5034C181.203 67.4385 181.55 67.4817 181.86 67.6404C182.257 67.8423 182.502 68.1741 182.654 68.5563C183.34 68.2246 184.242 68.3327 184.834 68.852C185.902 69.7823 185.837 71.3257 185.397 72.5517C184.668 74.571 183.152 76.4389 181.463 77.7443C181.044 78.0688 180.575 78.3717 180.07 78.6025C179.19 83.2686 178.381 87.9563 177.421 92.6007C177.032 94.483 176.303 97.0937 173.993 97.2163C172.853 97.274 171.654 97.0649 170.514 96.9639C169.323 96.863 161.045 95.9615 159.854 95.8605C159.226 95.81 158.605 95.7523 157.977 95.7018C157.407 95.6514 156.743 95.6586 156.411 95.1033C156.101 94.5768 156.079 93.8123 155.964 93.221L155.971 93.2137Z" fill="url(#paint1_radial_41_3012)"/>
<path d="M86.1195 154.442L83.0232 164.957C83.0232 164.957 72.3124 168.397 73.7847 172.761L92.2616 171.109L94.2825 155.019L86.1195 154.442Z" fill="#EF6767"/>
<path d="M86.1195 154.442L83.0232 164.957C83.0232 164.957 72.3124 168.397 73.7847 172.761L92.2616 171.109L94.2825 155.019L86.1195 154.442Z" fill="url(#paint2_radial_41_3012)"/>
<path d="M122.056 149.106L129.071 157.529C129.071 157.529 125.96 168.333 130.414 169.537L139.334 153.282L127.086 142.644L122.063 149.099L122.056 149.106Z" fill="#EF6767"/>
<path d="M122.056 149.106L129.071 157.529C129.071 157.529 125.96 168.333 130.414 169.537L139.334 153.282L127.086 142.644L122.063 149.099L122.056 149.106Z" fill="url(#paint3_radial_41_3012)"/>
<path d="M108.739 163.486C107.036 165.174 104.445 165.592 102.294 164.525L71.6773 149.336C39.2056 133.485 33.6914 112.361 33.6914 112.361C27.2678 84.487 46.2066 77.9819 46.2066 77.9819C69.3821 70.2075 86.6969 82.7634 93.3732 88.8718C97.7831 80.9748 110.255 63.6086 134.708 63.6951C134.708 63.6951 154.737 63.9043 157.422 92.384C157.422 92.384 158.843 114.164 133.019 139.434L108.746 163.486H108.739Z" fill="#EF6767"/>
<path d="M107.689 108.249C112.04 107.901 115.279 104.02 114.923 99.5812C114.567 95.1424 110.752 91.8263 106.401 92.1746C102.05 92.5229 98.8112 96.4035 99.167 100.842C99.5229 105.281 103.338 108.597 107.689 108.249Z" fill="white"/>
<path d="M98.844 100.627C99.277 104.803 102.944 107.839 107.036 107.414C111.128 106.988 114.095 103.252 113.662 99.084C113.229 94.9083 109.562 91.8721 105.47 92.2976C101.377 92.7231 98.4109 96.4588 98.844 100.627Z" fill="#403E3D"/>
<path d="M75.5096 103.505C75.9715 107.933 79.8618 111.157 84.1995 110.703C88.5445 110.248 91.6913 106.289 91.2294 101.861C90.7675 97.4327 86.8772 94.209 82.5395 94.6633C78.1945 95.1177 75.0477 99.077 75.5096 103.505Z" fill="white"/>
<path d="M75.3076 102.935C75.7407 107.111 79.4072 110.147 83.4995 109.722C87.5918 109.296 90.5583 105.561 90.1252 101.392C89.6921 97.2164 86.0256 94.1802 81.9333 94.6057C77.841 95.0312 74.8746 98.767 75.3076 102.935Z" fill="#403E3D"/>
<path d="M89.324 111.741C89.324 111.741 95.4372 117.59 102.554 109.974" stroke="#403E3D" stroke-width="2" stroke-linecap="round" stroke-linejoin="round"/>
</g>
<defs>
<radialGradient id="paint0_radial_41_3012" cx="0" cy="0" r="1" gradientUnits="userSpaceOnUse" gradientTransform="translate(39.0541 111.157) scale(25.5356 25.5156)">
<stop stop-color="#C61C24" stop-opacity="0.9"/>
<stop offset="1" stop-color="#C61C24" stop-opacity="0"/>
</radialGradient>
<radialGradient id="paint1_radial_41_3012" cx="0" cy="0" r="1" gradientUnits="userSpaceOnUse" gradientTransform="translate(158.67 96.0769) scale(14.399 14.3877)">
<stop stop-color="#C61C24" stop-opacity="0.9"/>
<stop offset="1" stop-color="#C61C24" stop-opacity="0"/>
</radialGradient>
<radialGradient id="paint2_radial_41_3012" cx="0" cy="0" r="1" gradientUnits="userSpaceOnUse" gradientTransform="translate(87.6352 156.303) scale(12.0677 12.0583)">
<stop stop-color="#C61C24" stop-opacity="0.9"/>
<stop offset="1" stop-color="#C61C24" stop-opacity="0"/>
</radialGradient>
<radialGradient id="paint3_radial_41_3012" cx="0" cy="0" r="1" gradientUnits="userSpaceOnUse" gradientTransform="translate(124.441 148.88) rotate(-56.1393) scale(12.0612 12.0648)">
<stop stop-color="#C61C24" stop-opacity="0.9"/>
<stop offset="1" stop-color="#C61C24" stop-opacity="0"/>
</radialGradient>
<clipPath id="clip0_41_3012">
<rect width="185.981" height="200" fill="white"/>
</clipPath>
</defs>
</svg>
