<svg width="36" height="24" viewBox="0 0 36 24" fill="none" xmlns="http://www.w3.org/2000/svg">
<path d="M18.0026 4C14.6617 4 13.6847 4.00345 13.4948 4.0192C12.8092 4.07619 12.3825 4.18414 11.9178 4.41554C11.5596 4.5934 11.2771 4.79958 10.9983 5.08858C10.4906 5.61564 10.1828 6.26407 10.0715 7.03484C10.0173 7.40903 10.0015 7.48534 9.99834 9.39664C9.99711 10.0337 9.99834 10.8722 9.99834 11.9969C9.99834 15.335 10.002 16.3111 10.018 16.5006C10.0734 17.1678 10.178 17.5875 10.3996 18.0466C10.823 18.9254 11.6317 19.5852 12.5844 19.8314C12.9143 19.9163 13.2786 19.9631 13.7463 19.9852C13.9445 19.9938 15.9644 20 17.9855 20C20.0066 20 22.0277 19.9975 22.2209 19.9877C22.7625 19.9622 23.077 19.92 23.4247 19.8301C23.8971 19.709 24.3373 19.4862 24.7147 19.1773C25.0921 18.8684 25.3974 18.4808 25.6095 18.0417C25.8268 17.5936 25.9369 17.1579 25.9868 16.5256C25.9976 16.3878 26.0022 14.1898 26.0022 11.9948C26.0022 9.79938 25.9972 7.60547 25.9864 7.46762C25.9359 6.8251 25.8258 6.39306 25.6015 5.93641C25.4175 5.56259 25.2132 5.28343 24.9165 4.99799C24.3872 4.49235 23.7398 4.18463 22.9682 4.07336C22.5944 4.01932 22.5199 4.00332 20.6071 4H18.0026Z" fill="url(#paint0_radial_26_127)"/>
<path d="M18.0026 4C14.6617 4 13.6847 4.00345 13.4948 4.0192C12.8092 4.07619 12.3825 4.18414 11.9178 4.41554C11.5596 4.5934 11.2771 4.79958 10.9983 5.08858C10.4906 5.61564 10.1828 6.26407 10.0715 7.03484C10.0173 7.40903 10.0015 7.48534 9.99834 9.39664C9.99711 10.0337 9.99834 10.8722 9.99834 11.9969C9.99834 15.335 10.002 16.3111 10.018 16.5006C10.0734 17.1678 10.178 17.5875 10.3996 18.0466C10.823 18.9254 11.6317 19.5852 12.5844 19.8314C12.9143 19.9163 13.2786 19.9631 13.7463 19.9852C13.9445 19.9938 15.9644 20 17.9855 20C20.0066 20 22.0277 19.9975 22.2209 19.9877C22.7625 19.9622 23.077 19.92 23.4247 19.8301C23.8971 19.709 24.3373 19.4862 24.7147 19.1773C25.0921 18.8684 25.3974 18.4808 25.6095 18.0417C25.8268 17.5936 25.9369 17.1579 25.9868 16.5256C25.9976 16.3878 26.0022 14.1898 26.0022 11.9948C26.0022 9.79938 25.9972 7.60547 25.9864 7.46762C25.9359 6.8251 25.8258 6.39306 25.6015 5.93641C25.4175 5.56259 25.2132 5.28343 24.9165 4.99799C24.3872 4.49235 23.7398 4.18463 22.9682 4.07336C22.5944 4.01932 22.5199 4.00332 20.6071 4H18.0026Z" fill="url(#paint1_radial_26_127)"/>
<path d="M17.9989 6.0925C16.3943 6.0925 16.193 6.09951 15.5627 6.12819C14.9338 6.157 14.5044 6.25657 14.1288 6.40268C13.7402 6.55358 13.4106 6.75545 13.0822 7.08397C12.7535 7.41236 12.5517 7.74199 12.4003 8.13046C12.2538 8.50624 12.1541 8.93569 12.1258 9.56442C12.0977 10.1946 12.0903 10.3961 12.0903 12.0007C12.0903 13.6053 12.0975 13.806 12.126 14.4362C12.155 15.0652 12.2545 15.4945 12.4005 15.8702C12.5515 16.2588 12.7534 16.5884 13.0819 16.9168C13.4102 17.2454 13.7398 17.4478 14.1282 17.5987C14.5041 17.7448 14.9335 17.8444 15.5624 17.8732C16.1926 17.9019 16.3938 17.9089 17.9983 17.9089C19.603 17.9089 19.8037 17.9019 20.4339 17.8732C21.0629 17.8444 21.4927 17.7448 21.8686 17.5987C22.2571 17.4478 22.5862 17.2454 22.9145 16.9168C23.2432 16.5884 23.445 16.2588 23.5964 15.8703C23.7417 15.4945 23.8414 15.0651 23.8709 14.4363C23.8992 13.8061 23.9066 13.6053 23.9066 12.0007C23.9066 10.3961 23.8992 10.1948 23.8709 9.56455C23.8414 8.93557 23.7417 8.50624 23.5964 8.13058C23.445 7.74199 23.2432 7.41236 22.9145 7.08397C22.5859 6.75532 22.2572 6.55346 21.8683 6.40268C21.4916 6.25657 21.062 6.157 20.4331 6.12819C19.8029 6.09951 19.6022 6.0925 17.9972 6.0925H17.9989ZM17.4689 7.1572C17.6262 7.15696 17.8017 7.1572 17.9989 7.1572C19.5764 7.1572 19.7634 7.16287 20.3863 7.19118C20.9623 7.21752 21.275 7.31377 21.4833 7.39464C21.759 7.50173 21.9555 7.62974 22.1622 7.83652C22.369 8.04331 22.497 8.24025 22.6043 8.51597C22.6852 8.72398 22.7816 9.03662 22.8078 9.61267C22.8361 10.2355 22.8423 10.4226 22.8423 11.9993C22.8423 13.5761 22.8361 13.7632 22.8078 14.386C22.7815 14.962 22.6852 15.2747 22.6043 15.4827C22.4972 15.7584 22.369 15.9547 22.1622 16.1614C21.9554 16.3682 21.7591 16.4962 21.4833 16.6033C21.2752 16.6845 20.9623 16.7805 20.3863 16.8069C19.7635 16.8352 19.5764 16.8413 17.9989 16.8413C16.4213 16.8413 16.2343 16.8352 15.6115 16.8069C15.0354 16.7803 14.7228 16.684 14.5144 16.6032C14.2387 16.4961 14.0418 16.3681 13.835 16.1613C13.6282 15.9545 13.5002 15.7581 13.3928 15.4822C13.312 15.2742 13.2156 14.9616 13.1894 14.3855C13.1611 13.7627 13.1554 13.5756 13.1554 11.9979C13.1554 10.4201 13.1611 10.234 13.1894 9.6112C13.2157 9.03515 13.312 8.72251 13.3928 8.51424C13.4999 8.23853 13.6282 8.04159 13.835 7.8348C14.0418 7.62801 14.2387 7.5 14.5144 7.39267C14.7227 7.31143 15.0354 7.21542 15.6115 7.18896C16.1565 7.16434 16.3677 7.15696 17.4689 7.15573V7.1572ZM21.1526 8.13821C21.0124 8.13821 20.8753 8.1798 20.7587 8.25771C20.6421 8.33563 20.5513 8.44637 20.4976 8.57593C20.4439 8.7055 20.4299 8.84806 20.4573 8.9856C20.4847 9.12314 20.5522 9.24946 20.6514 9.34861C20.7506 9.44775 20.8769 9.51526 21.0145 9.54258C21.152 9.56991 21.2946 9.55584 21.4241 9.50214C21.5537 9.44844 21.6644 9.35753 21.7423 9.2409C21.8201 9.12428 21.8617 8.98718 21.8616 8.84695C21.8616 8.45553 21.5441 8.13796 21.1526 8.13796V8.13821ZM17.9989 8.96659C16.3233 8.96659 14.9648 10.3251 14.9648 12.0007C14.9648 13.6763 16.3233 15.0342 17.9989 15.0342C19.6745 15.0342 21.0326 13.6763 21.0326 12.0007C21.0326 10.3251 19.6744 8.96659 17.9988 8.96659H17.9989ZM17.9989 10.0313C19.0865 10.0313 19.9683 10.913 19.9683 12.0007C19.9683 13.0883 19.0865 13.9701 17.9989 13.9701C16.9112 13.9701 16.0295 13.0883 16.0295 12.0007C16.0295 10.913 16.9112 10.0313 17.9989 10.0313V10.0313Z" fill="white"/>
<defs>
<radialGradient id="paint0_radial_26_127" cx="0" cy="0" r="1" gradientUnits="userSpaceOnUse" gradientTransform="translate(14.249 21.2323) rotate(-90) scale(15.8572 14.7524)">
<stop stop-color="#FFDD55"/>
<stop offset="0.1" stop-color="#FFDD55"/>
<stop offset="0.5" stop-color="#FF543E"/>
<stop offset="1" stop-color="#C837AB"/>
</radialGradient>
<radialGradient id="paint1_radial_26_127" cx="0" cy="0" r="1" gradientUnits="userSpaceOnUse" gradientTransform="translate(7.31698 5.15261) rotate(78.6776) scale(7.0883 29.2256)">
<stop stop-color="#3771C8"/>
<stop offset="0.128" stop-color="#3771C8"/>
<stop offset="1" stop-color="#6600FF" stop-opacity="0"/>
</radialGradient>
</defs>
</svg>
