<svg width="14" height="10" viewBox="0 0 14 10" fill="none" xmlns="http://www.w3.org/2000/svg">
<path d="M4.82709 9.6457L0.424272 5.42976C0.36165 5.37107 0.31172 5.30008 0.277583 5.22121C0.243446 5.14234 0.22583 5.05727 0.22583 4.97128C0.22583 4.88529 0.243446 4.80022 0.277583 4.72135C0.31172 4.64248 0.36165 4.57149 0.424272 4.5128L1.38197 3.59584C1.51174 3.47375 1.68294 3.40581 1.86082 3.40581C2.03869 3.40581 2.2099 3.47375 2.33966 3.59584L5.30723 6.43504L11.6604 0.351405C11.7902 0.229319 11.9614 0.161377 12.1392 0.161377C12.3171 0.161377 12.4883 0.229319 12.6181 0.351405L13.5758 1.26837C13.6384 1.32706 13.6883 1.39804 13.7225 1.47691C13.7566 1.55578 13.7742 1.64086 13.7742 1.72685C13.7742 1.81284 13.7566 1.89791 13.7225 1.97678C13.6883 2.05565 13.6384 2.12664 13.5758 2.18533L5.79125 9.6457C5.66115 9.76968 5.48858 9.8388 5.30917 9.8388C5.12976 9.8388 4.9572 9.76968 4.82709 9.6457Z" fill="#F49393"/>
</svg>
