<svg width="85" height="97" viewBox="0 0 94 107" fill="none" xmlns="http://www.w3.org/2000/svg">
<g clip-path="url(#clip0_2_384)">
<path d="M0.225782 24.5716C0.308792 24.3728 0.418365 24.194 0.527938 24.0085C0.926384 23.3329 1.32483 22.6572 1.72328 21.9816C2.38071 20.8688 3.03483 19.7559 3.69226 18.6431C4.41943 17.4111 5.14659 16.179 5.87043 14.9469C6.41165 14.0295 6.95288 13.1121 7.4941 12.1947C7.27496 12.1285 7.07242 12.0159 6.88648 11.8668C6.47807 11.5389 6.23236 11.0752 6.04973 10.5917C5.84055 10.0386 5.68118 9.46563 5.5052 8.90259C5.33918 8.36936 5.08683 7.77652 5.18976 7.20686C5.28273 6.69019 5.68117 6.32256 6.08294 6.02117C6.49135 5.71647 6.95288 5.48132 7.43765 5.31904C7.93239 5.15344 8.45701 5.06733 8.97831 5.06401C9.22734 5.06401 9.47305 5.08389 9.71876 5.117C9.83497 5.13356 9.98771 5.19649 10.1039 5.18987C10.2168 5.17993 10.2268 5.09713 10.2567 4.98784C10.5455 3.95119 10.7879 2.90461 11.442 2.02031C11.7342 1.62618 12.0895 1.27843 12.561 1.11283C13.0425 0.947227 13.6169 1.02671 13.9722 1.41422C14.3142 1.79178 14.3241 2.29851 14.2112 2.76881C14.0851 3.30204 13.8659 3.80546 13.7563 4.34531C13.5173 5.52438 13.5671 6.73656 13.3546 7.91562C13.1587 9.01851 12.6573 10.0353 12.0629 10.9759C11.9135 11.211 11.7575 11.4429 11.5981 11.6747C11.442 11.8999 11.2528 12.1218 11.1166 12.357C11.1034 12.3802 11.0934 12.4067 11.0801 12.4332C10.8311 12.9631 10.5787 13.493 10.3297 14.0229C9.33359 16.1393 8.32751 18.2523 7.34468 20.3753C6.67064 21.8325 6.00325 23.2964 5.33585 24.757C6.52123 24.969 7.70993 25.181 8.8953 25.3896C10.8909 25.7407 12.8864 26.0917 14.8786 26.4494C15.3335 26.5322 15.7917 26.6117 16.2466 26.6945C16.4558 26.731 16.4857 27.0025 16.3628 27.1383C15.2073 28.4201 14.0485 29.6985 12.893 30.9769C12.7303 31.1591 12.5643 31.3379 12.4016 31.5201C12.3352 31.5929 12.2157 31.6227 12.126 31.5929C11.5151 31.3975 10.9008 31.1988 10.2899 31.0034C8.99159 30.5861 7.69665 30.1688 6.39838 29.7515C5.22297 29.3739 4.04754 28.9963 2.87213 28.6188C2.58989 28.5294 2.30434 28.4366 2.02211 28.3472C1.4012 28.1485 0.876587 27.7908 0.494742 27.2576C-0.059761 26.4792 -0.156057 25.436 0.219145 24.5616L0.225782 24.5716Z" fill="#B2D7ED"/>
<path d="M0.225782 24.5716C0.308792 24.3728 0.418365 24.194 0.527938 24.0085C0.926384 23.3329 1.32483 22.6572 1.72328 21.9816C2.38071 20.8688 3.03483 19.7559 3.69226 18.6431C4.41943 17.4111 5.14659 16.179 5.87043 14.9469C6.41165 14.0295 6.95288 13.1121 7.4941 12.1947C7.27496 12.1285 7.07242 12.0159 6.88648 11.8668C6.47807 11.5389 6.23236 11.0752 6.04973 10.5917C5.84055 10.0386 5.68118 9.46563 5.5052 8.90259C5.33918 8.36936 5.08683 7.77652 5.18976 7.20686C5.28273 6.69019 5.68117 6.32256 6.08294 6.02117C6.49135 5.71647 6.95288 5.48132 7.43765 5.31904C7.93239 5.15344 8.45701 5.06733 8.97831 5.06401C9.22734 5.06401 9.47305 5.08389 9.71876 5.117C9.83497 5.13356 9.98771 5.19649 10.1039 5.18987C10.2168 5.17993 10.2268 5.09713 10.2567 4.98784C10.5455 3.95119 10.7879 2.90461 11.442 2.02031C11.7342 1.62618 12.0895 1.27843 12.561 1.11283C13.0425 0.947227 13.6169 1.02671 13.9722 1.41422C14.3142 1.79178 14.3241 2.29851 14.2112 2.76881C14.0851 3.30204 13.8659 3.80546 13.7563 4.34531C13.5173 5.52438 13.5671 6.73656 13.3546 7.91562C13.1587 9.01851 12.6573 10.0353 12.0629 10.9759C11.9135 11.211 11.7575 11.4429 11.5981 11.6747C11.442 11.8999 11.2528 12.1218 11.1166 12.357C11.1034 12.3802 11.0934 12.4067 11.0801 12.4332C10.8311 12.9631 10.5787 13.493 10.3297 14.0229C9.33359 16.1393 8.32751 18.2523 7.34468 20.3753C6.67064 21.8325 6.00325 23.2964 5.33585 24.757C6.52123 24.969 7.70993 25.181 8.8953 25.3896C10.8909 25.7407 12.8864 26.0917 14.8786 26.4494C15.3335 26.5322 15.7917 26.6117 16.2466 26.6945C16.4558 26.731 16.4857 27.0025 16.3628 27.1383C15.2073 28.4201 14.0485 29.6985 12.893 30.9769C12.7303 31.1591 12.5643 31.3379 12.4016 31.5201C12.3352 31.5929 12.2157 31.6227 12.126 31.5929C11.5151 31.3975 10.9008 31.1988 10.2899 31.0034C8.99159 30.5861 7.69665 30.1688 6.39838 29.7515C5.22297 29.3739 4.04754 28.9963 2.87213 28.6188C2.58989 28.5294 2.30434 28.4366 2.02211 28.3472C1.4012 28.1485 0.876587 27.7908 0.494742 27.2576C-0.059761 26.4792 -0.156057 25.436 0.219145 24.5616L0.225782 24.5716Z" fill="url(#paint0_radial_2_384)"/>
<path d="M37.0189 86.2505C37.3244 86.3167 37.6299 86.3829 37.9354 86.4426L53.4747 4.78912C52.6513 4.64339 51.8212 4.51753 50.9778 4.42149C49.7692 4.28238 48.5705 4.19627 47.3752 4.15984L47.3686 0C48.7233 0.0364317 50.088 0.132479 51.4593 0.291454C76.6045 3.21262 94.6109 25.9096 91.6824 50.9912C88.7538 76.0695 65.9959 94.0336 40.854 91.1124C39.134 90.9137 37.4473 90.6156 35.797 90.2381L37.0223 86.2505H37.0189ZM87.5419 50.5076C89.9624 29.7747 76.641 10.8335 57.0176 5.57737L41.5247 87.0023C64.3058 89.5459 84.8856 73.2477 87.5385 50.5109L87.5419 50.5076Z" fill="#5B89B2"/>
<path d="M74.5758 70.343C74.6289 70.0549 74.7617 69.7866 74.8779 69.5184C75.0074 69.2203 75.1369 68.9222 75.2697 68.6274C75.5188 68.071 75.7645 67.5113 76.0301 66.9615C76.143 66.7264 76.2758 66.4879 76.4684 66.3057C76.6743 66.107 76.9332 65.9845 77.1989 65.8851C78.3942 65.4347 79.6161 65.0472 80.8214 64.6299C82.0433 64.2059 83.2619 63.7853 84.4838 63.3614C85.7057 62.9375 86.9243 62.5168 88.1462 62.0929C88.4317 61.9935 88.7173 61.8942 89.0028 61.7948C89.0892 61.765 89.2286 61.7352 89.295 61.669C89.3614 61.6027 89.3017 61.5365 89.2519 61.457C88.9431 60.9768 88.5413 60.5297 88.1761 60.0892C86.7084 58.3173 85.0748 56.6845 83.3051 55.2106C82.8734 54.8529 82.4351 54.5019 81.9902 54.164C81.8507 54.0581 81.7777 53.8825 81.874 53.7202C81.9437 53.601 82.1164 53.5315 82.2525 53.5778L83.0959 50.9547C83.0959 50.9547 83.0759 50.9382 83.0627 50.9316C82.8834 50.8024 83.0427 50.5176 83.2386 50.6335C85.1213 51.7364 86.8612 53.1108 88.4417 54.6112C90.0321 56.1214 91.4732 57.7873 92.7416 59.5725C93.0504 60.0064 93.3492 60.4469 93.6348 60.8973C93.927 61.3576 94.1395 61.8776 93.8805 62.4042C93.6879 62.795 93.2928 63.06 92.9076 63.2422C92.3697 63.4972 91.7953 63.6827 91.2374 63.8946C88.87 64.7922 86.5125 65.7195 84.1185 66.5541C82.9398 66.9648 81.7511 67.349 80.5458 67.6835C79.9581 67.8458 79.3638 67.9982 78.7694 68.134C78.6831 68.1538 78.4905 68.1638 78.4241 68.2267C78.3876 68.2631 78.4009 68.3426 78.4009 68.3923C78.4108 68.7301 78.4606 69.0746 78.4938 69.4091C78.5503 70.0383 78.61 70.6676 78.6665 71.2936C78.6897 71.5486 78.7462 71.8268 78.6565 72.0785C78.5536 72.37 78.2979 72.5024 78.0057 72.5323C76.9631 72.6449 75.6781 72.5753 74.9576 71.7076C74.6355 71.3201 74.4795 70.8431 74.5725 70.343H74.5758Z" fill="#B2D7ED"/>
<path d="M74.5758 70.343C74.6289 70.0549 74.7617 69.7866 74.8779 69.5184C75.0074 69.2203 75.1369 68.9222 75.2697 68.6274C75.5188 68.071 75.7645 67.5113 76.0301 66.9615C76.143 66.7264 76.2758 66.4879 76.4684 66.3057C76.6743 66.107 76.9332 65.9845 77.1989 65.8851C78.3942 65.4347 79.6161 65.0472 80.8214 64.6299C82.0433 64.2059 83.2619 63.7853 84.4838 63.3614C85.7057 62.9375 86.9243 62.5168 88.1462 62.0929C88.4317 61.9935 88.7173 61.8942 89.0028 61.7948C89.0892 61.765 89.2286 61.7352 89.295 61.669C89.3614 61.6027 89.3017 61.5365 89.2519 61.457C88.9431 60.9768 88.5413 60.5297 88.1761 60.0892C86.7084 58.3173 85.0748 56.6845 83.3051 55.2106C82.8734 54.8529 82.4351 54.5019 81.9902 54.164C81.8507 54.0581 81.7777 53.8825 81.874 53.7202C81.9437 53.601 82.1164 53.5315 82.2525 53.5778L83.0959 50.9547C83.0959 50.9547 83.0759 50.9382 83.0627 50.9316C82.8834 50.8024 83.0427 50.5176 83.2386 50.6335C85.1213 51.7364 86.8612 53.1108 88.4417 54.6112C90.0321 56.1214 91.4732 57.7873 92.7416 59.5725C93.0504 60.0064 93.3492 60.4469 93.6348 60.8973C93.927 61.3576 94.1395 61.8776 93.8805 62.4042C93.6879 62.795 93.2928 63.06 92.9076 63.2422C92.3697 63.4972 91.7953 63.6827 91.2374 63.8946C88.87 64.7922 86.5125 65.7195 84.1185 66.5541C82.9398 66.9648 81.7511 67.349 80.5458 67.6835C79.9581 67.8458 79.3638 67.9982 78.7694 68.134C78.6831 68.1538 78.4905 68.1638 78.4241 68.2267C78.3876 68.2631 78.4009 68.3426 78.4009 68.3923C78.4108 68.7301 78.4606 69.0746 78.4938 69.4091C78.5503 70.0383 78.61 70.6676 78.6665 71.2936C78.6897 71.5486 78.7462 71.8268 78.6565 72.0785C78.5536 72.37 78.2979 72.5024 78.0057 72.5323C76.9631 72.6449 75.6781 72.5753 74.9576 71.7076C74.6355 71.3201 74.4795 70.8431 74.5725 70.343H74.5758Z" fill="url(#paint1_radial_2_384)"/>
<path d="M36.5408 99.4156C41.3686 95.683 42.564 90.2679 42.564 90.2679L46.1566 89.9466L49.7493 90.2679C49.7493 90.2679 50.9446 95.6863 55.7725 99.4156C55.7725 99.4156 61.3241 102.665 61.3241 107H30.9924C30.9924 102.665 36.5441 99.4156 36.5441 99.4156H36.5408Z" fill="#5B89B2"/>
<path d="M51.7648 39.7636C51.7581 39.7371 51.7515 39.7106 51.7448 39.6841L51.8776 39.641C51.8378 39.6775 51.8013 39.7205 51.7648 39.7636Z" fill="#B2D7ED"/>
<path d="M28.1004 24.8199C28.791 25.012 29.4352 25.2836 29.8104 25.9493C30.1092 26.4825 30.1956 27.1184 30.242 27.7245C30.345 29.0228 30.2221 30.3576 30.5674 31.626C30.946 33.0138 31.9587 34.0305 33.1905 34.6466C34.6814 35.3918 36.3449 35.4679 37.9785 35.3918C38.792 35.3553 39.6022 35.2825 40.4124 35.2493C40.2829 35.3454 40.1799 35.4812 40.1368 35.6898C40.0803 35.9647 40.1301 36.2727 40.1434 36.5476C40.1567 36.859 40.17 37.1736 40.1866 37.4849C40.243 38.7501 40.2995 40.0186 40.3592 41.2838C40.3891 41.923 40.4157 42.5655 40.4456 43.208C40.4721 43.8075 40.5219 44.4103 40.4887 45.0097C40.4356 46.0133 40.0803 47.0035 39.0909 47.3447C38.7123 47.4772 38.294 47.5666 37.9918 47.858C37.5801 48.2555 37.5535 48.8119 37.6764 49.3451C37.9553 50.5374 38.3969 51.6867 38.8219 52.8293C39.2536 53.9885 39.6852 55.151 40.1169 56.3102C40.5319 57.423 40.9171 58.5557 41.4417 59.6156C41.9065 60.5562 42.4909 61.5266 43.3575 62.126C43.7992 62.4307 44.3271 62.6162 44.855 62.4274C45.2369 62.2916 45.5125 61.9704 45.6984 61.6094C46.1234 60.7714 46.0769 59.7414 46.1002 58.8306C46.1633 56.3665 46.0803 53.8891 45.6918 51.4582C45.5988 50.8686 45.4759 50.2692 45.4892 49.6697C45.4959 49.3882 45.5258 49.1 45.6154 48.8318C45.6287 48.792 45.6818 48.5867 45.715 48.5734C45.7482 48.5569 45.9109 48.6496 45.9408 48.6628C46.9137 49.11 47.7537 49.8187 48.8063 50.0704C49.7094 50.2857 50.7122 50.1234 51.3497 49.3716C52.037 48.5602 52.0769 47.3182 52.1566 46.3014C52.2495 45.1058 52.2728 43.8903 52.1864 42.6947C52.1732 42.5291 52.1566 42.3635 52.1433 42.1979L54.275 39.5947C54.3115 39.5847 54.3447 39.5781 54.3812 39.5682C55.5932 40.4227 55.5998 42.5953 55.1715 43.9135C54.7631 45.172 54.1189 46.3412 53.7935 47.6262C53.5046 48.7688 53.5677 49.8783 53.9197 50.9879C54.2617 52.0775 54.8062 53.0843 55.1748 54.164C55.5201 55.1775 55.6197 56.2407 55.6629 57.3104C55.6961 58.1285 55.6828 58.9929 55.7393 59.8441C56.0646 60.1852 56.4498 60.4402 56.9279 60.6125C57.685 60.884 58.5051 60.947 59.302 60.8874C61.0917 60.7582 62.8183 60.1024 64.422 59.3373C66.0324 58.569 67.5233 57.6217 69.0141 56.6513C69.987 56.0187 70.9698 55.3994 71.9892 54.843C72.4906 54.5681 72.9986 54.3164 73.5066 54.0581C73.759 53.9289 74.0346 53.7567 74.3168 53.7103C74.7916 53.6341 74.9344 54.2071 75.1104 54.5284C75.3195 54.9159 75.5819 55.2802 75.8707 55.6147C76.0401 55.8101 76.2725 56.0651 76.5547 56.0751C76.8469 56.085 77.1225 55.8598 77.335 55.6875C77.7534 55.3464 78.1352 54.9523 78.5071 54.5582C79.2741 53.75 79.9714 52.8724 80.6654 52.0013C81.3494 51.1435 82.0632 50.3188 82.7771 49.4842C83.1888 49.004 83.6039 48.5271 84.0289 48.0601C83.9857 48.7357 83.926 49.4114 83.8463 50.0936C82.0134 65.7858 70.8005 78.1096 56.4465 82.1436C56.9811 81.2461 57.2633 80.2127 56.9246 79.1661C56.7121 78.5137 56.2373 78.0533 55.6363 77.7784C54.9092 77.4439 54.1023 77.2485 53.3419 77.0067C52.6181 76.7782 51.8843 76.4868 51.1339 76.3642C50.4466 76.2483 49.7958 76.3874 49.2911 76.9074C49.0819 77.1227 48.876 77.4042 48.5739 77.4737C48.2319 77.5532 47.8567 77.4042 47.5313 77.3148C46.7543 77.1061 45.9508 77.0365 45.1506 77.1028C43.7626 77.2154 42.2319 77.7453 41.3919 78.9774C40.6747 80.0306 40.5352 81.4216 40.8606 82.6371C40.9137 82.8325 40.9768 83.0213 41.0499 83.2001C20.6262 80.4313 6.09955 61.8478 8.49686 41.3368C9.68555 31.1591 14.8189 22.4022 22.1968 16.4009C22.5952 18.7259 23.2858 21.0708 24.7833 22.8129C25.6931 23.8727 26.8054 24.4689 28.117 24.8299L28.1004 24.8199ZM23.598 41.9263C23.6245 42.698 23.8603 43.473 24.0495 44.2149C24.262 45.0462 24.4945 45.8742 24.7402 46.6955C25.2117 48.2687 25.6865 49.8585 26.2509 51.3985C26.749 52.7565 27.4596 54.1077 28.6615 54.9159C29.6477 55.5783 31.5304 56.0585 31.9786 54.4721C32.1645 53.8229 32.0384 53.144 31.9222 52.4981C31.7694 51.6403 31.6167 50.7825 31.4639 49.9214C31.3178 49.0901 31.1983 48.2422 31.0057 47.4209C30.8198 46.6359 30.4711 45.9603 30.0163 45.3078C29.8967 45.1356 29.7705 44.97 29.6477 44.8011C29.4119 44.1751 29.143 43.5591 28.8309 42.9662C28.4889 42.3171 28.117 41.6746 27.6754 41.0917C27.2603 40.5452 26.7291 40.0285 26.0683 39.8364C25.4773 39.6642 24.8199 39.7106 24.3052 40.0915C23.7341 40.5121 23.5714 41.2407 23.5946 41.923L23.598 41.9263Z" fill="#B2D7ED"/>
<path d="M50.5462 8.11765C70.6743 10.4559 85.274 28.1087 84.0156 48.0435C83.5906 48.5105 83.1756 48.9874 82.7638 49.4677C82.0533 50.3023 81.3361 51.127 80.6521 51.9848C79.9581 52.8591 79.2642 53.7335 78.4938 54.5416C78.1219 54.9324 77.7401 55.3265 77.3217 55.671C77.1092 55.8465 76.837 56.0684 76.5414 56.0585C76.2592 56.0486 76.0301 55.7968 75.8574 55.5981C75.5686 55.2669 75.3096 54.8993 75.0971 54.5118C74.9211 54.1872 74.7783 53.6176 74.3035 53.6937C74.0179 53.7401 73.7424 53.9123 73.4933 54.0415C72.9853 54.2998 72.474 54.5515 71.9759 54.8264C70.9566 55.3828 69.9737 56.0022 69.0009 56.6348C67.51 57.6085 66.0191 58.5524 64.4088 59.3208C62.805 60.0859 61.0751 60.7416 59.2887 60.8708C58.4918 60.9304 57.6717 60.8675 56.9147 60.5959C56.4365 60.4237 56.0514 60.1687 55.726 59.8275C55.6695 58.9763 55.6828 58.1152 55.6496 57.2939C55.6064 56.2241 55.5068 55.1609 55.1615 54.1475C54.7929 53.0678 54.2484 52.0609 53.9064 50.9713C53.5578 49.8618 53.4914 48.7523 53.7802 47.6096C54.1056 46.3213 54.7465 45.1522 55.1582 43.8969C55.5865 42.5821 55.5799 40.4094 54.3679 39.5516C54.3314 39.5615 54.2982 39.5682 54.2617 39.5781L52.13 42.1813C52.1433 42.3469 52.1632 42.5125 52.1732 42.6781C52.2595 43.8737 52.2362 45.0892 52.1433 46.2849C52.0636 47.3016 52.0237 48.5436 51.3364 49.3551C50.6989 50.1069 49.6962 50.2692 48.793 50.0539C47.7405 49.8022 46.8971 49.0934 45.9275 48.6463C45.8943 48.633 45.7349 48.5403 45.7017 48.5569C45.6685 48.5734 45.6154 48.7755 45.6021 48.8152C45.5125 49.0835 45.4826 49.3716 45.476 49.6531C45.4627 50.2559 45.5855 50.8521 45.6785 51.4416C46.067 53.8726 46.1467 56.3499 46.0869 58.8141C46.0637 59.7282 46.1135 60.7549 45.6851 61.5928C45.4992 61.9571 45.2269 62.2751 44.8418 62.4109C44.3138 62.5996 43.7892 62.4175 43.3443 62.1095C42.4776 61.51 41.8933 60.5396 41.4284 59.599C40.9038 58.5359 40.5153 57.4065 40.1036 56.2936C39.6719 55.1345 39.2403 53.972 38.8086 52.8128C38.3836 51.6701 37.942 50.5209 37.6631 49.3286C37.5402 48.7953 37.5635 48.2389 37.9785 47.8415C38.2807 47.55 38.6991 47.4573 39.0776 47.3281C40.0671 46.987 40.4223 45.9934 40.4755 44.9932C40.5087 44.3937 40.4589 43.7909 40.4323 43.1915C40.4024 42.5523 40.3759 41.9097 40.346 41.2672C40.2895 40.002 40.2331 38.7335 40.1733 37.4684C40.16 37.157 40.1467 36.8424 40.1301 36.5311C40.1169 36.2562 40.0704 35.9449 40.1235 35.6733C40.1667 35.4646 40.2663 35.3288 40.3991 35.2328C39.5856 35.2659 38.7754 35.3388 37.9653 35.3752C36.3316 35.4481 34.6681 35.3752 33.1773 34.63C31.9454 34.014 30.9327 33.0005 30.5542 31.6095C30.2088 30.341 30.3284 29.0096 30.2288 27.708C30.1823 27.1019 30.0959 26.466 29.7971 25.9328C29.4252 25.2671 28.7811 24.9955 28.0871 24.8034C26.7756 24.4391 25.6632 23.8429 24.7535 22.7864C23.256 21.0443 22.5653 18.6994 22.1669 16.3744C29.837 10.1346 39.9276 6.87566 50.5329 8.10771L50.5462 8.11765ZM51.7648 39.7636C51.8013 39.7205 51.8378 39.6775 51.8776 39.641L51.7448 39.6841C51.7515 39.7106 51.7581 39.7371 51.7648 39.7636Z" fill="#91CE92"/>
<path d="M26.0716 39.8397C26.7324 40.0318 27.2637 40.5518 27.6787 41.095C28.1203 41.6746 28.4922 42.3204 28.8342 42.9696C29.1463 43.5624 29.4153 44.1751 29.651 44.8044C29.7739 44.9733 29.9 45.1389 30.0196 45.3111C30.4745 45.9636 30.8231 46.6392 31.009 47.4242C31.2049 48.2455 31.3212 49.0934 31.4673 49.9247C31.62 50.7825 31.7727 51.6403 31.9255 52.5014C32.0417 53.1473 32.1645 53.8262 31.9819 54.4754C31.5303 56.0618 29.651 55.5849 28.6649 54.9192C27.4596 54.1077 26.749 52.7565 26.2543 51.4019C25.6898 49.8618 25.215 48.2754 24.7435 46.6988C24.4978 45.8775 24.2654 45.0495 24.0528 44.2182C23.8636 43.4763 23.6312 42.7046 23.6013 41.9296C23.578 41.2473 23.7407 40.5187 24.3118 40.0981C24.8265 39.7205 25.4839 39.6708 26.075 39.8431L26.0716 39.8397Z" fill="#91CE92"/>
<path d="M41.3753 78.9641C42.212 77.7321 43.7427 77.2021 45.134 77.0895C45.9342 77.0233 46.7377 77.0929 47.5147 77.3015C47.8401 77.3876 48.2153 77.54 48.5573 77.4605C48.8594 77.3909 49.0653 77.1094 49.2745 76.8941C49.7825 76.3742 50.43 76.2351 51.1173 76.351C51.8677 76.4768 52.6015 76.765 53.3253 76.9935C54.0857 77.232 54.8926 77.4307 55.6197 77.7652C56.2207 78.0401 56.6955 78.5004 56.908 79.1529C57.25 80.1995 56.9645 81.2328 56.4299 82.1304C51.798 83.432 46.8406 83.8725 41.7638 83.2829C41.5181 83.2531 41.2723 83.22 41.03 83.1869C40.9569 83.0047 40.8938 82.8193 40.8407 82.6239C40.5153 81.4084 40.6548 80.0173 41.372 78.9641H41.3753Z" fill="#91CE92"/>
<path d="M52.8099 30.5687C50.3229 30.3391 48.4974 28.099 48.7326 25.5655C48.9678 23.032 51.1745 21.1644 53.6615 21.3941C56.1485 21.6238 57.974 23.8638 57.7388 26.3973C57.5036 28.9308 55.2969 30.7984 52.8099 30.5687Z" fill="white"/>
<path d="M49.0819 24.6411C48.9159 27.0323 50.6856 29.1023 53.0331 29.2613C55.3806 29.4203 57.4194 27.6119 57.5854 25.2207C57.7514 22.8294 55.9816 20.7595 53.6341 20.6005C51.2866 20.4415 49.2479 22.2499 49.0819 24.6411Z" fill="#403E3D"/>
<path d="M40.5864 29.7493C38.0994 29.5196 36.2739 27.2796 36.5091 24.7461C36.7443 22.2126 38.951 20.345 41.438 20.5747C43.925 20.8044 45.7504 23.0444 45.5153 25.5779C45.2801 28.1114 43.0733 29.979 40.5864 29.7493Z" fill="white"/>
<path d="M37.1219 23.8595C36.9558 26.2507 38.7256 28.3207 41.0731 28.4797C43.4206 28.6386 45.4593 26.8303 45.6254 24.4391C45.7914 22.0478 44.0216 19.9778 41.6741 19.8189C39.3266 19.6599 37.2879 21.4682 37.1219 23.8595Z" fill="#403E3D"/>
<path d="M52.0038 32.666C52.0038 32.666 46.8805 36.5775 42.4909 31.7618" stroke="#403E3D" stroke-width="2" stroke-linecap="round" stroke-linejoin="round"/>
</g>
<defs>
<radialGradient id="paint0_radial_2_384" cx="0" cy="0" r="1" gradientUnits="userSpaceOnUse" gradientTransform="translate(9.058 33.3251) rotate(180) scale(11.2594 11.2309)">
<stop stop-color="#75AAD6" stop-opacity="0.9"/>
<stop offset="1" stop-color="#75AAD6" stop-opacity="0"/>
</radialGradient>
<radialGradient id="paint1_radial_2_384" cx="0" cy="0" r="1" gradientUnits="userSpaceOnUse" gradientTransform="translate(82.2492 50.1234) rotate(180) scale(10.6584 10.6314)">
<stop stop-color="#75AAD6" stop-opacity="0.9"/>
<stop offset="1" stop-color="#75AAD6" stop-opacity="0"/>
</radialGradient>
<clipPath id="clip0_2_384">
<rect width="94" height="107" fill="white" transform="matrix(-1 0 0 1 94 0)"/>
</clipPath>
</defs>
</svg>
