<svg width="179" height="85" viewBox="0 0 179 85" fill="none" xmlns="http://www.w3.org/2000/svg">
<g filter="url(#filter0_d_9_13363)">
<rect x="7" y="5" width="165" height="60.2937" rx="15" fill="white"/>
<path d="M154.36 75.2436C155.661 76.0249 157.324 75.1187 157.383 73.5964L158.214 51.9538C158.273 50.4031 156.629 49.3798 155.269 50.121L135.935 60.6553C134.575 61.3965 134.531 63.3394 135.857 64.1353L154.36 75.2436Z" fill="white"/>
<path d="M27.752 24.04C27.816 23.944 27.9333 23.9067 28.104 23.928C28.2747 23.9493 28.3867 24.0187 28.44 24.136C28.5147 24.2747 28.52 24.808 28.456 25.736C28.3707 26.7813 28.3173 27.848 28.296 28.936C28.2853 29.6613 28.264 30.152 28.232 30.408C28.2 30.664 28.1413 30.8133 28.056 30.856C27.9387 30.9413 27.8 30.9573 27.64 30.904C27.5333 30.8613 27.4747 30.68 27.464 30.36C27.4533 30.04 27.4693 29.1547 27.512 27.704C27.5653 26.0933 27.6027 25.1067 27.624 24.744C27.6453 24.3813 27.688 24.1467 27.752 24.04ZM22.6 24.424C23.0907 24.2853 23.6187 24.2213 24.184 24.232C24.76 24.2427 25.128 24.3227 25.288 24.472C25.3947 24.5787 25.4587 25.2613 25.48 26.52C25.512 27.768 25.48 28.44 25.384 28.536C25.32 28.6 24.712 28.7173 23.56 28.888C22.7813 28.984 22.296 29.032 22.104 29.032C21.912 29.032 21.784 28.984 21.72 28.888C21.56 28.664 21.4587 28.008 21.416 26.92C21.3733 25.8213 21.416 25.16 21.544 24.936C21.6613 24.7653 22.0133 24.5947 22.6 24.424ZM24.488 25.112C24.36 25.0693 24.264 25.048 24.2 25.048C24.1893 25.0587 24.1467 25.0693 24.072 25.08C24.008 25.0907 23.9173 25.1067 23.8 25.128C23.6827 25.1493 23.576 25.1653 23.48 25.176C22.8187 25.2827 22.4347 25.3947 22.328 25.512C22.2213 25.6293 22.168 25.9973 22.168 26.616C22.168 27.2987 22.1893 27.7093 22.232 27.848C22.2853 27.976 22.6533 28.0187 23.336 27.976C23.9973 27.944 24.3973 27.9067 24.536 27.864C24.632 27.832 24.68 27.3787 24.68 26.504C24.68 25.9707 24.664 25.6133 24.632 25.432C24.6107 25.2507 24.5627 25.144 24.488 25.112ZM31.3386 22.296C31.7013 22.2533 32.1973 22.2107 32.8266 22.168C32.9973 22.1573 33.1306 22.2373 33.2266 22.408C33.3226 22.5787 33.328 22.744 33.2426 22.904C33.2 22.9787 33.0933 23.0267 32.9226 23.048C32.752 23.0587 32.4266 23.0587 31.9466 23.048C31.168 23.016 30.6506 23.0587 30.3946 23.176C30.1386 23.2933 29.984 23.5707 29.9306 24.008C29.888 24.3813 29.8986 24.6693 29.9626 24.872C30.0266 25.0107 30.0906 25.0853 30.1546 25.096C30.2186 25.096 30.4213 25.0533 30.7626 24.968C31.2426 24.8507 31.76 24.792 32.3146 24.792C32.5813 24.792 32.7786 24.7973 32.9066 24.808C33.0453 24.8187 33.1466 24.84 33.2106 24.872C33.2746 24.904 33.3226 24.9573 33.3546 25.032C33.4933 25.2773 33.3493 25.448 32.9226 25.544C32.7093 25.5973 32.3893 25.64 31.9626 25.672C31.1626 25.7573 30.6453 25.8373 30.4106 25.912C30.24 25.9867 30.1333 26.0507 30.0906 26.104C30.048 26.1573 30.0426 26.248 30.0746 26.376C30.096 26.5253 30.128 26.616 30.1706 26.648C30.224 26.6693 30.3466 26.664 30.5386 26.632C31.7333 26.4293 32.5546 26.328 33.0026 26.328C33.4506 26.328 33.6906 26.4293 33.7226 26.632C33.7226 26.6427 33.7226 26.6533 33.7226 26.664C33.744 26.7707 33.696 26.8507 33.5786 26.904C33.408 26.968 32.5973 27.144 31.1466 27.432L31.1306 27.448H31.1146H31.0986H31.0826H31.0666L31.0506 27.464H31.0346H31.0186H31.0026H30.9866L30.9706 27.48H30.9546H30.9386H30.9226H30.9066L30.8906 27.496H30.8746C30.416 27.592 30.112 27.64 29.9626 27.64C29.824 27.64 29.7173 27.6027 29.6426 27.528C29.4293 27.3253 29.2693 26.3493 29.1626 24.6C29.1413 24.344 29.1306 24.1307 29.1306 23.96C29.1306 23.7893 29.1413 23.624 29.1626 23.464C29.184 23.2933 29.2106 23.16 29.2426 23.064C29.2746 22.968 29.3333 22.8773 29.4186 22.792C29.504 22.696 29.5946 22.6267 29.6906 22.584C29.7866 22.5413 29.92 22.4987 30.0906 22.456C30.2613 22.4133 30.4426 22.3813 30.6346 22.36C30.8266 22.3387 31.0613 22.3173 31.3386 22.296ZM34.8266 23.096C34.8693 22.9787 34.9653 22.9147 35.1146 22.904C35.264 22.8933 35.3813 22.9413 35.4666 23.048C35.52 23.1333 35.5466 23.9227 35.5466 25.416C35.5573 26.9093 35.536 27.688 35.4826 27.752C35.44 27.784 35.3066 27.7627 35.0826 27.688L34.7466 27.56V25.432C34.7466 24.024 34.7733 23.2453 34.8266 23.096ZM33.5626 28.392C33.7866 28.3707 33.9253 28.3493 33.9786 28.328C34.0213 28.3067 34.112 28.3387 34.2506 28.424C34.4 28.4987 34.5546 28.6107 34.7146 28.76C34.8746 28.8987 34.9973 29.032 35.0826 29.16C35.232 29.3627 35.328 29.5333 35.3706 29.672C35.4133 29.8107 35.4293 30.04 35.4186 30.36C35.408 30.6693 35.376 30.9093 35.3226 31.08C35.2693 31.2507 35.168 31.4373 35.0186 31.64C34.5173 32.3333 33.9253 32.6053 33.2426 32.456C32.9013 32.3813 32.5493 32.2 32.1866 31.912C31.824 31.6347 31.5733 31.336 31.4346 31.016C31.2746 30.696 31.2213 30.4027 31.2746 30.136C31.328 29.8587 31.4933 29.5653 31.7706 29.256C31.8666 29.1387 31.9573 29.0427 32.0426 28.968C32.128 28.8933 32.2186 28.8293 32.3146 28.776C32.4213 28.712 32.5333 28.6587 32.6506 28.616C32.7786 28.5627 32.912 28.52 33.0506 28.488C33.2 28.456 33.3706 28.424 33.5626 28.392ZM34.3786 29.544C34.208 29.3413 34.0426 29.224 33.8826 29.192C33.7226 29.1493 33.4933 29.1813 33.1946 29.288C32.992 29.352 32.8053 29.4427 32.6346 29.56C32.4746 29.6773 32.3466 29.8107 32.2506 29.96C32.1546 30.0987 32.1066 30.232 32.1066 30.36C32.1066 30.5627 32.2506 30.8187 32.5386 31.128C32.8266 31.4373 33.0933 31.6187 33.3386 31.672C33.5093 31.704 33.6426 31.6987 33.7386 31.656C33.8453 31.6133 33.9946 31.4907 34.1866 31.288C34.3573 31.1067 34.4693 30.9573 34.5226 30.84C34.5866 30.712 34.6186 30.5467 34.6186 30.344C34.6186 30.024 34.5386 29.7573 34.3786 29.544ZM38.189 21.176C38.2743 21.0907 38.3917 21.0427 38.541 21.032C38.6903 21.0213 38.7863 21.0587 38.829 21.144C38.8823 21.1973 38.9357 21.4907 38.989 22.024L39.069 22.808L39.837 22.696C40.4663 22.6213 40.861 22.5947 41.021 22.616C41.181 22.6373 41.3037 22.7333 41.389 22.904C41.485 23.1067 41.485 23.2667 41.389 23.384C41.3037 23.5013 41.1437 23.5333 40.909 23.48C40.7597 23.448 40.2957 23.496 39.517 23.624C38.7383 23.7413 38.0077 23.8853 37.325 24.056C36.5783 24.248 36.205 24.1573 36.205 23.784C36.205 23.6667 36.237 23.576 36.301 23.512C36.3757 23.4373 36.509 23.3627 36.701 23.288C37.0637 23.1707 37.3997 23.1227 37.709 23.144H38.189L38.125 22.232C38.061 21.624 38.0823 21.272 38.189 21.176ZM42.877 23.544C42.9197 23.4587 43.0477 23.416 43.261 23.416H43.581L43.533 24.504L43.501 25.608H44.189C44.573 25.608 44.8343 25.64 44.973 25.704C45.1223 25.7573 45.197 25.8747 45.197 26.056C45.197 26.216 45.1383 26.328 45.021 26.392C44.9037 26.4453 44.7063 26.4667 44.429 26.456C44.1197 26.4453 43.853 26.4773 43.629 26.552C43.4797 26.616 43.389 26.6853 43.357 26.76C43.3357 26.824 43.3463 26.984 43.389 27.24C43.4423 27.656 43.4423 27.944 43.389 28.104C43.357 28.2747 43.245 28.3973 43.053 28.472C42.861 28.536 42.7277 28.5093 42.653 28.392C42.5783 28.296 42.5623 27.576 42.605 26.232C42.6477 25.1973 42.685 24.52 42.717 24.2C42.749 23.8693 42.8023 23.6507 42.877 23.544ZM38.141 24.76C38.5357 24.5573 38.7917 24.456 38.909 24.456C39.037 24.4453 39.2877 24.5093 39.661 24.648C40.205 24.84 40.573 25.064 40.765 25.32C40.9677 25.5653 41.0743 25.9333 41.085 26.424C41.117 27.2347 40.6957 27.8427 39.821 28.248C39.469 28.4187 39.149 28.52 38.861 28.552C38.573 28.5733 38.2477 28.5307 37.885 28.424C37.4797 28.3173 37.1863 28.152 37.005 27.928C36.8237 27.704 36.717 27.384 36.685 26.968C36.653 26.6267 36.653 26.392 36.685 26.264C36.717 26.136 36.8343 25.9387 37.037 25.672C37.293 25.32 37.661 25.016 38.141 24.76ZM39.997 25.56C39.7303 25.3147 39.3677 25.2453 38.909 25.352C38.4503 25.4587 38.0397 25.704 37.677 26.088C37.5383 26.2267 37.453 26.344 37.421 26.44C37.3997 26.536 37.405 26.68 37.437 26.872C37.5223 27.224 37.757 27.4853 38.141 27.656C38.5357 27.8267 38.9037 27.8213 39.245 27.64C39.757 27.384 40.0877 27.048 40.237 26.632C40.397 26.2053 40.317 25.848 39.997 25.56ZM40.989 29.448C42.173 29.32 42.8663 29.32 43.069 29.448C43.1437 29.4907 43.1917 29.6187 43.213 29.832C43.2343 30.0453 43.245 30.44 43.245 31.016V32.472L42.909 32.584C42.685 32.6587 42.541 32.616 42.477 32.456C42.4237 32.3067 42.4023 31.9013 42.413 31.24C42.4237 30.568 42.397 30.2107 42.333 30.168C42.2477 30.1147 41.4583 30.232 39.965 30.52C39.741 30.5627 39.565 30.536 39.437 30.44C39.3197 30.3333 39.2877 30.2 39.341 30.04C39.405 29.88 39.549 29.7573 39.773 29.672C39.9757 29.5867 40.381 29.512 40.989 29.448ZM55.7459 23.752C55.8739 23.6987 56.0072 23.6773 56.1459 23.688C56.2845 23.688 56.3752 23.72 56.4179 23.784C56.4605 23.848 56.4339 24.4827 56.3379 25.688C56.2525 26.776 56.1779 27.8373 56.1139 28.872C56.0712 29.5867 56.0019 30.0453 55.9059 30.248C55.8205 30.44 55.6552 30.4933 55.4099 30.408C55.3032 30.3653 55.2392 30.1573 55.2179 29.784C55.2072 29.4 55.2445 28.7653 55.3299 27.88L55.4099 26.904L54.8339 26.968C54.4392 27.0213 54.0605 27.128 53.6979 27.288L53.0899 27.528V28.856C53.0792 29.3787 53.0579 29.736 53.0259 29.928C52.9939 30.1093 52.9352 30.232 52.8499 30.296C52.4552 30.5947 52.2632 30.44 52.2739 29.832C52.2952 28.7013 52.3379 27.4747 52.4019 26.152C52.4765 24.8187 52.5405 24.104 52.5939 24.008C52.6472 23.8907 52.7432 23.8213 52.8819 23.8C53.0312 23.7787 53.1752 23.816 53.3139 23.912C53.3779 23.9547 53.4099 24.0507 53.4099 24.2C53.4205 24.3493 53.3939 24.6533 53.3299 25.112C53.2232 25.8373 53.1965 26.2213 53.2499 26.264C53.2712 26.296 53.3885 26.3013 53.6019 26.28C53.8259 26.2587 54.0605 26.2267 54.3059 26.184C54.5619 26.1413 54.8019 26.0933 55.0259 26.04C55.2605 25.976 55.3992 25.928 55.4419 25.896C55.5379 25.8107 55.5859 25.4427 55.5859 24.792C55.5859 24.1413 55.6392 23.7947 55.7459 23.752ZM48.8019 24.472C49.3459 24.3653 49.6872 24.312 49.8259 24.312C49.9645 24.312 50.0819 24.3653 50.1779 24.472C50.2632 24.5787 50.2952 24.776 50.2739 25.064C50.2632 25.3413 50.1992 25.8587 50.0819 26.616C50.0712 26.7013 50.0285 26.9733 49.9539 27.432C49.8792 27.8907 49.8259 28.232 49.7939 28.456C49.7085 29.1067 49.6232 29.464 49.5379 29.528C49.4952 29.56 49.4152 29.576 49.2979 29.576C49.0632 29.576 48.9245 29.4853 48.8819 29.304C48.8499 29.1227 48.8872 28.7333 48.9939 28.136C49.2819 26.5573 49.4259 25.656 49.4259 25.432C49.4259 25.3573 49.4152 25.304 49.3939 25.272C49.3725 25.2293 49.3405 25.2133 49.2979 25.224C49.2125 25.288 48.7912 25.3787 48.0339 25.496C47.2872 25.6133 46.7859 25.672 46.5299 25.672C46.2312 25.672 46.0285 25.608 45.9219 25.48C45.7299 25.256 45.9112 25.0693 46.4659 24.92C46.6365 24.8773 46.8499 24.8347 47.1059 24.792C47.7139 24.696 48.2792 24.5893 48.8019 24.472ZM58.4805 21.48C58.9392 21.352 59.4245 21.288 59.9365 21.288C60.4592 21.2773 60.8005 21.3573 60.9605 21.528C61.1205 21.688 61.2325 22.0773 61.2965 22.696C61.3178 22.9627 61.3338 23.1547 61.3445 23.272C61.3552 23.3893 61.3498 23.5227 61.3285 23.672C61.3072 23.8107 61.2805 23.9013 61.2485 23.944C61.2165 23.976 61.1365 24.0293 61.0085 24.104C60.8912 24.168 60.7738 24.216 60.6565 24.248C60.5498 24.2693 60.3685 24.312 60.1125 24.376C59.2805 24.5893 58.7685 24.7387 58.5765 24.824C58.3952 24.9093 58.3205 25.0587 58.3525 25.272C58.3632 25.3893 58.3898 25.4747 58.4325 25.528C58.4858 25.5707 58.5605 25.5813 58.6565 25.56C59.2645 25.4853 59.8992 25.3467 60.5605 25.144C61.2112 24.952 61.5365 25.0907 61.5365 25.56C61.5365 25.6773 61.5045 25.7627 61.4405 25.816C61.3872 25.8587 61.2485 25.9013 61.0245 25.944C60.8005 25.976 60.3258 26.0933 59.6005 26.296C58.6725 26.552 58.0698 26.616 57.7925 26.488C57.5258 26.36 57.4245 25.9707 57.4885 25.32C57.5312 24.84 57.6485 24.5147 57.8405 24.344C58.0432 24.1733 58.4698 24.0133 59.1205 23.864C59.3978 23.8 59.6058 23.752 59.7445 23.72C59.8832 23.688 60.0165 23.6507 60.1445 23.608C60.2832 23.5547 60.3738 23.5173 60.4165 23.496C60.4592 23.464 60.4965 23.4107 60.5285 23.336C60.5605 23.2613 60.5712 23.1973 60.5605 23.144C60.5605 23.08 60.5498 22.984 60.5285 22.856C60.4645 22.5253 60.3952 22.3013 60.3205 22.184C60.1925 22.024 59.6272 22.0773 58.6245 22.344C58.2085 22.4613 57.8405 22.52 57.5205 22.52C57.3392 22.52 57.2165 22.504 57.1525 22.472C57.0992 22.44 57.0725 22.376 57.0725 22.28C57.0725 21.992 57.5418 21.7253 58.4805 21.48ZM59.5685 26.888C59.8245 26.5787 60.0112 26.584 60.1285 26.904C60.1818 27.064 60.2085 27.272 60.2085 27.528C60.2085 27.7307 60.2245 27.8533 60.2565 27.896C60.2992 27.928 60.4218 27.9227 60.6245 27.88C60.8378 27.8373 61.1952 27.7893 61.6965 27.736C61.9738 27.6933 62.1552 27.6827 62.2405 27.704C62.3258 27.7253 62.4005 27.7947 62.4645 27.912C62.5605 28.0827 62.5818 28.2267 62.5285 28.344C62.4858 28.4613 62.3685 28.552 62.1765 28.616C61.9952 28.6693 61.7445 28.696 61.4245 28.696C61.0938 28.696 60.5925 28.76 59.9205 28.888C58.4805 29.1547 57.7125 29.144 57.6165 28.856C57.5418 28.6747 57.6165 28.5147 57.8405 28.376C58.0752 28.2373 58.3632 28.184 58.7045 28.216L59.2805 28.248L59.3445 27.672C59.3872 27.2987 59.4618 27.0373 59.5685 26.888ZM58.6085 30.056C58.7152 29.9813 58.8538 29.9547 59.0245 29.976C59.1525 29.9973 59.2272 30.0613 59.2485 30.168C59.2698 30.264 59.2538 30.504 59.2005 30.888C59.2005 30.888 59.2005 30.8933 59.2005 30.904C59.1792 31.096 59.2165 31.2027 59.3125 31.224C59.4085 31.2453 59.7498 31.2187 60.3365 31.144C60.3898 31.144 60.4325 31.144 60.4645 31.144C60.5072 31.1333 60.5658 31.1227 60.6405 31.112C61.6965 30.984 62.3152 30.9253 62.4965 30.936C62.6885 30.936 62.8165 31.0053 62.8805 31.144C62.8805 31.1547 62.8858 31.1653 62.8965 31.176C62.9498 31.3253 62.9498 31.448 62.8965 31.544C62.8538 31.64 62.7525 31.7093 62.5925 31.752C62.4325 31.8053 62.2245 31.832 61.9685 31.832C61.5738 31.8107 60.9658 31.9013 60.1445 32.104C59.3232 32.296 58.8538 32.344 58.7365 32.248C58.5338 32.1307 58.4112 31.7627 58.3685 31.144C58.3258 30.536 58.4058 30.1733 58.6085 30.056ZM64.8324 22.056C65.035 21.928 65.2057 21.8533 65.3444 21.832C65.4937 21.8 65.723 21.7947 66.0324 21.816C66.459 21.848 66.811 21.9333 67.0884 22.072C67.3657 22.2107 67.6644 22.456 67.9844 22.808C68.4644 23.3627 68.6084 23.9973 68.4164 24.712C68.235 25.416 67.7817 25.9547 67.0564 26.328C66.3737 26.68 65.6324 26.584 64.8324 26.04C64.4377 25.7627 64.1284 25.4533 63.9044 25.112C63.691 24.7707 63.5844 24.4293 63.5844 24.088C63.5844 23.7787 63.707 23.4213 63.9524 23.016C64.2084 22.6 64.5017 22.28 64.8324 22.056ZM66.8004 22.728C66.5124 22.5893 66.331 22.5253 66.2564 22.536C65.9897 22.568 65.7124 22.664 65.4244 22.824C65.147 22.9733 64.9177 23.1653 64.7364 23.4C64.555 23.624 64.4644 23.832 64.4644 24.024C64.4644 24.4187 64.5817 24.7547 64.8164 25.032C65.051 25.3093 65.3284 25.4907 65.6484 25.576C65.9684 25.6613 66.299 25.6507 66.6404 25.544C66.9817 25.4267 67.2537 25.2027 67.4564 24.872C67.6484 24.5947 67.7444 24.3387 67.7444 24.104C67.7444 23.8587 67.6484 23.5973 67.4564 23.32C67.2644 23.0427 67.0457 22.8453 66.8004 22.728ZM67.1044 27.56C67.8084 27.464 68.283 27.432 68.5284 27.464C68.7737 27.4853 68.9337 27.5813 69.0084 27.752C69.1364 28.008 69.115 28.1787 68.9444 28.264C68.7844 28.3493 68.395 28.3973 67.7764 28.408C67.051 28.408 66.235 28.4613 65.3284 28.568C64.411 28.6747 63.9257 28.7013 63.8724 28.648C63.819 28.5947 63.8244 28.4667 63.8884 28.264C63.9844 27.88 64.5497 27.6827 65.5844 27.672C66.2564 27.6507 66.763 27.6133 67.1044 27.56ZM65.1684 29.528C65.5737 29.1227 65.7924 29.3147 65.8244 30.104C65.8564 30.584 65.9097 30.824 65.9844 30.824C66.0484 30.824 66.235 30.76 66.5444 30.632C66.8004 30.5253 67.291 30.424 68.0164 30.328C68.7417 30.2213 69.1684 30.1947 69.2964 30.248C69.4244 30.2907 69.483 30.4133 69.4724 30.616C69.4724 30.8187 69.4137 30.9467 69.2964 31C69.147 31.0533 68.8964 31.08 68.5444 31.08C68.171 31.08 67.675 31.1867 67.0564 31.4C66.7044 31.5173 66.4217 31.5973 66.2084 31.64C66.0057 31.6827 65.8244 31.704 65.6644 31.704C65.5044 31.704 65.3817 31.6507 65.2964 31.544C65.2217 31.4373 65.163 31.2987 65.1204 31.128C65.0777 30.968 65.0404 30.744 65.0084 30.456C64.987 30.168 64.987 29.9653 65.0084 29.848C65.0297 29.72 65.083 29.6133 65.1684 29.528ZM76.7964 21.08C76.9884 20.824 77.1697 20.872 77.3404 21.224C77.4684 21.48 77.5324 21.8267 77.5324 22.264V22.936L78.1244 22.84C78.5724 22.776 78.8977 22.744 79.1004 22.744C79.239 22.744 79.3617 22.7813 79.4684 22.856C79.5857 22.92 79.6604 23 79.6924 23.096C79.7244 23.192 79.7137 23.304 79.6604 23.432C79.607 23.528 79.5217 23.592 79.4044 23.624C79.2977 23.6453 79.0844 23.6507 78.7644 23.64C78.423 23.64 77.8844 23.704 77.1484 23.832C76.4124 23.96 75.8844 24.088 75.5644 24.216C75.4684 24.248 75.3617 24.2533 75.2444 24.232C75.127 24.2 75.015 24.152 74.9084 24.088C74.8124 24.0133 74.7644 23.9387 74.7644 23.864C74.7644 23.7147 74.8497 23.5973 75.0204 23.512C75.2017 23.4267 75.5004 23.3573 75.9164 23.304L76.7164 23.208L76.6844 22.232C76.6524 21.592 76.6897 21.208 76.7964 21.08ZM81.9644 23.688C82.039 23.6027 82.1297 23.56 82.2364 23.56C82.3537 23.5493 82.439 23.5867 82.4924 23.672C82.567 23.7787 82.599 24.6907 82.5884 26.408C82.5777 28.1253 82.5404 29.016 82.4764 29.08C82.3697 29.1867 82.2417 29.2133 82.0924 29.16C81.943 29.1067 81.847 28.9947 81.8044 28.824C81.751 28.6427 81.7137 28.3493 81.6924 27.944V27.4L81.2124 27.496C80.8924 27.56 80.567 27.5973 80.2364 27.608C80.087 27.608 79.975 27.6027 79.9004 27.592C79.8364 27.5813 79.7884 27.56 79.7564 27.528C79.7244 27.4853 79.703 27.4267 79.6924 27.352C79.6817 27.2347 79.7084 27.1387 79.7724 27.064C79.8364 26.9893 79.9537 26.9253 80.1244 26.872C80.3057 26.8187 80.583 26.7547 80.9564 26.68L81.8044 26.536V26.04C81.8044 25.8907 81.7937 25.784 81.7724 25.72C81.7617 25.6453 81.735 25.592 81.6924 25.56C81.6604 25.5173 81.5964 25.4853 81.5004 25.464C81.2764 25.4107 80.9777 25.4373 80.6044 25.544C80.2737 25.64 80.0337 25.6667 79.8844 25.624C79.7457 25.5707 79.6764 25.448 79.6764 25.256C79.6764 25.0213 79.7617 24.8613 79.9324 24.776C80.103 24.68 80.423 24.6213 80.8924 24.6C81.319 24.5893 81.5697 24.568 81.6444 24.536C81.719 24.504 81.767 24.3973 81.7884 24.216C81.8204 23.9707 81.879 23.7947 81.9644 23.688ZM76.6524 24.632C76.919 24.4293 77.1484 24.328 77.3404 24.328C77.5324 24.3173 77.8044 24.3973 78.1564 24.568C78.391 24.6853 78.5564 24.8027 78.6524 24.92C78.759 25.0373 78.8604 25.224 78.9564 25.48C79.127 25.9707 79.2017 26.4293 79.1804 26.856C79.159 27.272 79.047 27.6187 78.8444 27.896C78.3964 28.4827 77.8577 28.7707 77.2284 28.76C76.6097 28.7387 76.0924 28.4187 75.6764 27.8C75.3777 27.3733 75.3244 26.8453 75.5164 26.216C75.7084 25.576 76.087 25.048 76.6524 24.632ZM78.2364 25.544C78.1404 25.3307 77.9537 25.2133 77.6764 25.192C77.5057 25.1707 77.367 25.1867 77.2604 25.24C77.1537 25.2933 77.0097 25.416 76.8284 25.608C76.295 26.184 76.119 26.7067 76.3004 27.176C76.471 27.6347 76.7217 27.8907 77.0524 27.944C77.383 27.9867 77.7244 27.816 78.0764 27.432C78.279 27.208 78.4017 27.0427 78.4444 26.936C78.487 26.8293 78.4924 26.6533 78.4604 26.408C78.4177 26.0453 78.343 25.7573 78.2364 25.544ZM78.5244 29.912C78.7057 29.6987 78.919 29.6667 79.1644 29.816C79.271 29.8907 79.2924 30.184 79.2284 30.696C79.175 31.1867 79.1804 31.4373 79.2444 31.448L79.3724 31.4C79.5324 31.3467 79.831 31.2827 80.2684 31.208C80.7164 31.144 81.1164 31.1013 81.4684 31.08C81.831 31.0587 82.0604 31.064 82.1564 31.096C82.4337 31.3307 82.407 31.5333 82.0764 31.704C81.895 31.8 81.6497 31.864 81.3404 31.896C81.0737 31.928 80.5404 32.0187 79.7404 32.168C79.2924 32.2533 79.0044 32.296 78.8764 32.296C78.7484 32.296 78.6364 32.2533 78.5404 32.168C78.4124 32.0293 78.343 31.656 78.3324 31.048C78.3217 30.44 78.3857 30.0613 78.5244 29.912ZM92.0774 23.88C92.1627 23.8267 92.2907 23.8053 92.4614 23.816C92.5787 23.8373 92.648 23.88 92.6694 23.944C92.7014 24.008 92.712 24.1467 92.7014 24.36C92.6907 24.5947 92.6534 25.6293 92.5894 27.464C92.5894 27.4747 92.5894 27.4853 92.5894 27.496C92.5467 28.7867 92.504 29.5493 92.4614 29.784C92.4294 30.0187 92.3387 30.168 92.1894 30.232C91.9974 30.3173 91.8694 30.3333 91.8054 30.28C91.752 30.2267 91.6987 29.6613 91.6454 28.584L91.5974 27L91.1654 27.016C90.92 27.016 90.6374 27.0533 90.3174 27.128L89.8854 27.192L89.9334 28.472C89.944 29.048 89.9387 29.4107 89.9174 29.56C89.896 29.6987 89.832 29.7787 89.7254 29.8C89.5654 29.832 89.4 29.768 89.2294 29.608C89.2187 29.5973 89.2027 29.5813 89.1814 29.56C89.0747 29.4853 89.0214 29.32 89.0214 29.064C89.0214 28.808 89.0694 27.9653 89.1654 26.536C89.1867 26.2267 89.2027 25.9813 89.2134 25.8C89.2454 25.3093 89.2827 24.9573 89.3254 24.744C89.368 24.5307 89.4267 24.3813 89.5014 24.296C89.576 24.2107 89.688 24.168 89.8374 24.168C90.0614 24.168 90.1894 24.2427 90.2214 24.392C90.2534 24.5307 90.216 24.8453 90.1094 25.336C89.992 25.9013 89.9814 26.1893 90.0774 26.2C90.3654 26.2213 90.6747 26.216 91.0054 26.184C91.3467 26.1413 91.5494 26.088 91.6134 26.024C91.7094 25.9173 91.7894 25.5493 91.8534 24.92C91.9174 24.3013 91.992 23.9547 92.0774 23.88ZM86.4774 24.248C86.488 24.216 86.6747 24.2053 87.0374 24.216C87.2614 24.2267 87.4107 24.248 87.4854 24.28C87.56 24.312 87.6027 24.3867 87.6134 24.504C87.6667 24.8347 87.3947 25.384 86.7974 26.152C86.5094 26.504 86.3654 26.7333 86.3654 26.84C86.3654 26.9253 86.4934 27.1173 86.7494 27.416C87.016 27.704 87.256 27.9173 87.4694 28.056C87.7147 28.2267 87.816 28.5093 87.7734 28.904C87.7734 28.9573 87.7414 29 87.6774 29.032C87.6134 29.064 87.544 29.08 87.4694 29.08C87.1707 29.08 86.68 28.6533 85.9974 27.8L85.7414 27.496L85.3734 27.928C85.1067 28.2373 84.92 28.5253 84.8134 28.792C84.7174 28.9733 84.632 29.0907 84.5574 29.144C84.4827 29.1867 84.36 29.1973 84.1894 29.176C83.9227 29.1547 83.7787 29.0693 83.7574 28.92C83.7147 28.728 84.4134 27.7787 85.8534 26.072C86.0774 25.7947 86.2267 25.592 86.3014 25.464C86.376 25.3253 86.376 25.2293 86.3014 25.176C86.2267 25.112 86.0827 25.096 85.8694 25.128C85.656 25.1493 85.3254 25.208 84.8774 25.304C84.1734 25.4427 83.72 25.5067 83.5174 25.496C83.3254 25.4747 83.2294 25.368 83.2294 25.176C83.2294 24.9733 83.368 24.8187 83.6454 24.712C83.9227 24.5947 84.4134 24.4987 85.1174 24.424C85.96 24.328 86.4134 24.2693 86.4774 24.248ZM99.6359 24.632C100.009 24.0667 100.281 23.784 100.452 23.784C100.836 23.784 100.847 24.0987 100.484 24.728L100.404 24.888C100.095 25.3893 99.9399 25.6987 99.9399 25.816C99.9399 25.9333 100.26 26.344 100.9 27.048C101.689 27.9227 101.956 28.44 101.7 28.6C101.647 28.6213 101.572 28.648 101.476 28.68C101.38 28.6907 101.257 28.632 101.108 28.504C100.959 28.376 100.735 28.1253 100.436 27.752C99.9132 27.1227 99.6092 26.808 99.5239 26.808C99.4599 26.808 99.3799 26.904 99.2839 27.096C99.1879 27.2773 99.1025 27.496 99.0279 27.752C98.9639 28.008 98.9319 28.2213 98.9319 28.392C98.9319 28.5413 98.9265 28.648 98.9159 28.712C98.9159 28.776 98.8999 28.8293 98.8679 28.872C98.8465 28.9147 98.8145 28.9413 98.7719 28.952C98.7292 28.952 98.6545 28.952 98.5479 28.952C98.3025 28.952 98.1319 28.8453 98.0359 28.632C97.9612 28.4933 97.9559 28.3227 98.0199 28.12C98.0839 27.9173 98.3452 27.272 98.8039 26.184C98.9959 25.7253 99.2732 25.208 99.6359 24.632ZM104.052 24.008C104.095 23.944 104.196 23.912 104.356 23.912C104.452 23.912 104.537 23.96 104.612 24.056C104.687 24.152 104.74 24.28 104.772 24.44C104.815 24.6 104.831 24.7707 104.82 24.952C104.799 25.2507 104.825 26.2107 104.9 27.832L104.996 30.312L104.644 30.392C104.431 30.456 104.281 30.4293 104.196 30.312C104.132 30.2053 104.089 29.688 104.068 28.76C104.057 27.8533 104.041 27.2773 104.02 27.032C103.999 26.7867 103.961 26.6427 103.908 26.6C103.855 26.5467 103.567 26.5893 103.044 26.728C101.711 27.0693 101.103 26.9467 101.22 26.36C101.241 26.232 101.359 26.1307 101.572 26.056C101.796 25.9813 102.217 25.9173 102.836 25.864C103.465 25.8 103.807 25.752 103.86 25.72C103.924 25.6667 103.956 25.384 103.956 24.872C103.956 24.3387 103.988 24.0507 104.052 24.008ZM107.608 20.744C108.365 20.5733 109.027 20.744 109.592 21.256C110.157 21.7573 110.408 22.3867 110.344 23.144C110.291 23.6773 110.04 24.1467 109.592 24.552C109.144 24.9573 108.653 25.16 108.12 25.16C107.576 25.16 107.048 24.9947 106.536 24.664C106.035 24.3333 105.741 23.9547 105.656 23.528C105.613 23.272 105.635 22.968 105.72 22.616C105.816 22.264 105.944 21.9707 106.104 21.736C106.264 21.5333 106.499 21.3307 106.808 21.128C107.117 20.9147 107.384 20.7867 107.608 20.744ZM108.92 21.656C108.685 21.4853 108.52 21.4 108.424 21.4C108.211 21.4107 107.944 21.5013 107.624 21.672C107.315 21.832 107.069 22.008 106.888 22.2C106.611 22.4987 106.472 22.7813 106.472 23.048C106.472 23.3147 106.616 23.5867 106.904 23.864C107.085 24.056 107.235 24.1787 107.352 24.232C107.48 24.2747 107.683 24.296 107.96 24.296C108.237 24.296 108.44 24.2693 108.568 24.216C108.707 24.1627 108.888 24.04 109.112 23.848C109.453 23.5387 109.624 23.256 109.624 23C109.624 22.8507 109.592 22.696 109.528 22.536C109.475 22.3653 109.395 22.2053 109.288 22.056C109.181 21.9067 109.059 21.7733 108.92 21.656ZM109.368 25.928C109.944 25.8107 110.339 25.7787 110.552 25.832C110.765 25.8747 110.872 26.0187 110.872 26.264C110.872 26.4453 110.808 26.5733 110.68 26.648C110.552 26.712 110.301 26.744 109.928 26.744C109.512 26.7653 109.251 26.8027 109.144 26.856C109.048 26.9093 109 27.1867 109 27.688V28.44H109.656C110.147 28.44 110.44 28.5147 110.536 28.664C110.643 28.8133 110.68 29.208 110.648 29.848C110.627 30.2533 110.605 30.52 110.584 30.648C110.563 30.7653 110.531 30.856 110.488 30.92C110.445 30.9733 110.355 31.0213 110.216 31.064C109.96 31.1493 109.48 31.192 108.776 31.192C108.328 31.192 108.035 31.208 107.896 31.24C107.757 31.272 107.661 31.3413 107.608 31.448C107.512 31.64 107.528 31.7733 107.656 31.848C107.795 31.9333 108.013 31.9387 108.312 31.864C108.621 31.7787 109.128 31.7147 109.832 31.672C110.291 31.6293 110.584 31.6133 110.712 31.624C110.84 31.6453 110.931 31.7147 110.984 31.832C111.027 31.9173 111.043 31.992 111.032 32.056C111.021 32.1307 110.968 32.1893 110.872 32.232C110.776 32.2853 110.643 32.328 110.472 32.36C110.301 32.4027 110.077 32.44 109.8 32.472C109.245 32.5253 108.691 32.6053 108.136 32.712C107.624 32.7973 107.357 32.84 107.336 32.84C107.24 32.84 107.128 32.7493 107 32.568C106.883 32.3973 106.792 32.1947 106.728 31.96C106.6 31.4907 106.675 31.1493 106.952 30.936C107.229 30.712 107.763 30.568 108.552 30.504C109.213 30.44 109.592 30.376 109.688 30.312C109.752 30.2587 109.789 30.088 109.8 29.8C109.811 29.5013 109.789 29.32 109.736 29.256C109.704 29.2347 109.293 29.2827 108.504 29.4C107.715 29.5067 107.208 29.592 106.984 29.656C106.856 29.688 106.739 29.672 106.632 29.608C106.536 29.5333 106.483 29.4267 106.472 29.288C106.472 29.16 106.579 29.032 106.792 28.904C107.016 28.7653 107.235 28.696 107.448 28.696C107.747 28.696 107.949 28.6587 108.056 28.584C108.088 28.5627 108.12 28.408 108.152 28.12C108.195 27.832 108.216 27.5707 108.216 27.336C108.227 27.1013 108.216 26.968 108.184 26.936C108.184 26.936 107.859 27.016 107.208 27.176C106.205 27.4 105.704 27.3253 105.704 26.952C105.704 26.8027 105.821 26.6853 106.056 26.6C106.291 26.504 106.723 26.408 107.352 26.312C107.651 26.2693 108.323 26.1413 109.368 25.928ZM120.128 24.104C120.544 23.9973 120.8 23.9653 120.896 24.008C121.045 24.0933 121.029 24.3653 120.848 24.824C120.667 25.2827 120.389 25.7627 120.016 26.264L119.696 26.68L120.128 27.128C120.437 27.416 120.693 27.5973 120.896 27.672C120.971 27.704 121.061 27.7787 121.168 27.896C121.275 28.0027 121.355 28.12 121.408 28.248C121.536 28.4613 121.6 28.6 121.6 28.664C121.6 28.728 121.547 28.8027 121.44 28.888C121.269 29.0053 121.099 29.0213 120.928 28.936C120.757 28.8507 120.443 28.584 119.984 28.136L119.2 27.368L118.88 27.752C118.688 27.9867 118.507 28.2853 118.336 28.648C118.293 28.7547 118.24 28.8507 118.176 28.936C118.112 29.0213 118.048 29.096 117.984 29.16C117.931 29.2133 117.883 29.2453 117.84 29.256C117.691 29.2987 117.547 29.2827 117.408 29.208C117.269 29.1227 117.2 29.0213 117.2 28.904C117.2 28.8293 117.531 28.3333 118.192 27.416C118.864 26.488 119.248 25.9867 119.344 25.912C119.419 25.8693 119.515 25.7253 119.632 25.48C119.749 25.2347 119.797 25.0853 119.776 25.032C119.744 24.9787 119.451 25.0053 118.896 25.112C118.352 25.208 117.947 25.304 117.68 25.4C117.424 25.496 117.131 25.544 116.8 25.544C116.608 25.544 116.48 25.528 116.416 25.496C116.352 25.464 116.32 25.3947 116.32 25.288C116.32 25.128 116.416 24.9893 116.608 24.872C116.747 24.776 117.237 24.632 118.08 24.44C118.923 24.2373 119.371 24.1573 119.424 24.2C119.456 24.2427 119.691 24.2107 120.128 24.104ZM123.296 24.072C123.36 23.9547 123.499 23.912 123.712 23.944C123.808 23.9547 123.872 23.9653 123.904 23.976C123.947 23.9867 123.979 24.0187 124 24.072C124.032 24.1147 124.043 24.1787 124.032 24.264C124.032 24.3387 124.032 24.4507 124.032 24.6C124.021 24.8133 124 25.9013 123.968 27.864C123.968 27.864 123.968 27.8693 123.968 27.88C123.947 29.1707 123.92 29.9333 123.888 30.168C123.867 30.4027 123.787 30.5467 123.648 30.6C123.52 30.6427 123.419 30.6427 123.344 30.6C123.28 30.5467 123.227 30.408 123.184 30.184C123.141 29.9493 123.12 29.592 123.12 29.112C123.131 28.632 123.136 27.992 123.136 27.192C123.168 25.208 123.221 24.168 123.296 24.072ZM131.86 22.632C131.998 22.5893 132.148 22.6107 132.308 22.696C132.414 22.7387 132.473 22.8187 132.484 22.936C132.505 23.0427 132.494 23.2933 132.452 23.688C132.388 24.3387 132.356 25.2187 132.356 26.328C132.345 27.3733 132.308 27.944 132.244 28.04C132.212 28.0827 132.148 28.1147 132.052 28.136C131.838 28.1893 131.694 28.1627 131.62 28.056C131.545 27.9493 131.508 27.6987 131.508 27.304V26.568L130.916 26.776C130.041 27.064 129.577 27.048 129.524 26.728C129.502 26.5467 129.588 26.392 129.78 26.264C129.982 26.136 130.308 26.024 130.756 25.928C131.022 25.8747 131.209 25.8267 131.316 25.784C131.422 25.7307 131.497 25.656 131.54 25.56C131.593 25.4533 131.588 25.32 131.524 25.16L131.476 24.776L130.724 24.824C130.414 24.8347 130.201 24.8293 130.084 24.808C129.977 24.7867 129.892 24.728 129.828 24.632C129.721 24.44 129.78 24.2747 130.004 24.136C130.228 23.9867 130.542 23.912 130.948 23.912C131.31 23.912 131.524 23.88 131.588 23.816C131.652 23.752 131.673 23.5227 131.652 23.128C131.652 23.0107 131.657 22.92 131.668 22.856C131.678 22.7813 131.694 22.728 131.716 22.696C131.748 22.664 131.796 22.6427 131.86 22.632ZM126.244 23.064C126.574 22.9573 126.857 22.9147 127.092 22.936C127.326 22.9467 127.577 23.016 127.844 23.144C128.174 23.336 128.425 23.5387 128.596 23.752C128.766 23.9547 128.926 24.248 129.076 24.632C129.172 24.9093 129.225 25.128 129.236 25.288C129.246 25.4373 129.22 25.6453 129.156 25.912C129.06 26.328 128.932 26.6533 128.772 26.888C128.612 27.112 128.382 27.3253 128.084 27.528C127.454 27.9227 126.75 27.9387 125.972 27.576C125.481 27.3413 125.118 26.9627 124.884 26.44C124.66 25.9067 124.617 25.368 124.756 24.824C124.83 24.4933 125.028 24.1413 125.348 23.768C125.668 23.384 125.966 23.1493 126.244 23.064ZM127.716 23.96C127.449 23.8213 127.246 23.7573 127.108 23.768C126.969 23.768 126.75 23.8427 126.452 23.992C125.726 24.3547 125.422 24.8827 125.54 25.576C125.646 26.248 125.94 26.6853 126.42 26.888C126.74 27.016 126.98 27.064 127.14 27.032C127.31 27 127.545 26.8613 127.844 26.616C128.089 26.392 128.238 26.2267 128.292 26.12C128.345 26.0027 128.372 25.7787 128.372 25.448C128.372 24.6587 128.153 24.1627 127.716 23.96ZM129.86 28.824C130.457 28.76 130.825 28.728 130.964 28.728C131.113 28.7173 131.236 28.7387 131.332 28.792C131.417 28.856 131.454 29.3893 131.444 30.392C131.444 31.3947 131.401 31.928 131.316 31.992C131.23 32.056 131.097 32.088 130.916 32.088C130.777 32.088 130.692 32.0293 130.66 31.912C130.638 31.8053 130.628 31.4427 130.628 30.824V29.592L129.988 29.656C129.572 29.6987 129.204 29.7787 128.884 29.896C128.617 30.0133 128.398 30.072 128.228 30.072C128.068 30.072 127.966 29.9867 127.924 29.816C127.881 29.6347 127.924 29.4693 128.052 29.32C128.169 29.192 128.345 29.096 128.58 29.032C128.814 28.968 129.241 28.8987 129.86 28.824ZM135.013 24.2C135.258 24.1253 135.466 24.104 135.637 24.136C135.818 24.1573 136.127 24.264 136.565 24.456C137.279 24.7547 137.642 25.3947 137.653 26.376C137.653 26.8773 137.605 27.2613 137.509 27.528C137.423 27.784 137.258 28.056 137.013 28.344C136.789 28.6 136.618 28.7547 136.501 28.808C136.394 28.8613 136.186 28.888 135.877 28.888C135.269 28.888 134.687 28.7067 134.133 28.344C133.589 27.9813 133.274 27.576 133.189 27.128C133.114 26.6907 133.13 26.312 133.237 25.992C133.343 25.672 133.573 25.336 133.925 24.984C134.095 24.8027 134.287 24.6373 134.501 24.488C134.725 24.3387 134.895 24.2427 135.013 24.2ZM136.117 25.048C135.85 24.9627 135.658 24.9307 135.541 24.952C135.423 24.9627 135.21 25.0533 134.901 25.224C134.538 25.4373 134.298 25.624 134.181 25.784C134.063 25.944 133.999 26.168 133.989 26.456C133.989 26.8187 134.122 27.1333 134.389 27.4C134.666 27.6667 135.029 27.848 135.477 27.944C135.818 28.0293 136.031 28.0667 136.117 28.056C136.202 28.0347 136.319 27.9333 136.469 27.752C136.554 27.656 136.613 27.5653 136.645 27.48C136.687 27.384 136.714 27.2667 136.725 27.128C136.746 26.9893 136.757 26.7973 136.757 26.552C136.757 26.0187 136.714 25.6613 136.629 25.48C136.554 25.288 136.383 25.144 136.117 25.048ZM142.325 24.2C142.399 24.0933 142.495 24.0453 142.613 24.056C142.73 24.056 142.837 24.1147 142.933 24.232C143.039 24.36 143.061 25.192 142.997 26.728C142.922 28.232 142.885 29.16 142.885 29.512C142.874 29.8213 142.831 30.0293 142.757 30.136C142.693 30.2427 142.554 30.3173 142.341 30.36L142.005 30.424L142.117 28.568C142.191 27.0747 142.229 26.0667 142.229 25.544C142.229 24.7547 142.261 24.3067 142.325 24.2ZM140.437 24.44C140.65 24.2373 140.847 24.248 141.029 24.472C141.125 24.5893 141.125 25.1867 141.029 26.264C140.965 27.0853 140.89 28.0027 140.805 29.016L140.725 30.136H140.357H139.973L139.989 28.648C139.989 28.6267 139.989 28.6 139.989 28.568C140.01 27.8107 139.989 27.384 139.925 27.288C139.861 27.1813 139.626 27.1867 139.221 27.304C139.189 27.3147 139.167 27.32 139.157 27.32C138.89 27.4053 138.634 27.4267 138.389 27.384C138.143 27.3413 138.021 27.2613 138.021 27.144C138.021 26.9413 138.111 26.7813 138.293 26.664C138.485 26.5467 138.794 26.4667 139.221 26.424C139.797 26.3493 140.122 26.2587 140.197 26.152C140.261 26.024 140.293 25.7307 140.293 25.272C140.293 24.8133 140.341 24.536 140.437 24.44ZM145.332 24.632C145.705 24.0667 145.977 23.784 146.148 23.784C146.532 23.784 146.543 24.0987 146.18 24.728L146.1 24.888C145.791 25.3893 145.636 25.6987 145.636 25.816C145.636 25.9333 145.956 26.344 146.596 27.048C147.385 27.9227 147.652 28.44 147.396 28.6C147.343 28.6213 147.268 28.648 147.172 28.68C147.076 28.6907 146.953 28.632 146.804 28.504C146.655 28.376 146.431 28.1253 146.132 27.752C145.609 27.1227 145.305 26.808 145.22 26.808C145.156 26.808 145.076 26.904 144.98 27.096C144.884 27.2773 144.799 27.496 144.724 27.752C144.66 28.008 144.628 28.2213 144.628 28.392C144.628 28.5413 144.623 28.648 144.612 28.712C144.612 28.776 144.596 28.8293 144.564 28.872C144.543 28.9147 144.511 28.9413 144.468 28.952C144.425 28.952 144.351 28.952 144.244 28.952C143.999 28.952 143.828 28.8453 143.732 28.632C143.657 28.4933 143.652 28.3227 143.716 28.12C143.78 27.9173 144.041 27.272 144.5 26.184C144.692 25.7253 144.969 25.208 145.332 24.632ZM149.748 24.008C149.791 23.944 149.892 23.912 150.052 23.912C150.148 23.912 150.233 23.96 150.308 24.056C150.383 24.152 150.436 24.28 150.468 24.44C150.511 24.6 150.527 24.7707 150.516 24.952C150.495 25.2507 150.521 26.2107 150.596 27.832L150.692 30.312L150.34 30.392C150.127 30.456 149.977 30.4293 149.892 30.312C149.828 30.2053 149.785 29.688 149.764 28.76C149.753 27.8533 149.737 27.2773 149.716 27.032C149.695 26.7867 149.657 26.6427 149.604 26.6C149.551 26.5467 149.263 26.5893 148.74 26.728C147.407 27.0693 146.799 26.9467 146.916 26.36C146.937 26.232 147.055 26.1307 147.268 26.056C147.492 25.9813 147.913 25.9173 148.532 25.864C149.161 25.8 149.503 25.752 149.556 25.72C149.62 25.6667 149.652 25.384 149.652 24.872C149.652 24.3387 149.684 24.0507 149.748 24.008ZM158.248 22.584C158.323 22.4773 158.44 22.4507 158.6 22.504C158.771 22.5467 158.878 22.632 158.92 22.76C158.963 22.888 158.947 23.128 158.872 23.48C158.787 23.8427 158.744 24.2267 158.744 24.632C158.744 24.952 158.76 25.1387 158.792 25.192C158.824 25.2453 158.926 25.2613 159.096 25.24C159.32 25.208 159.502 25.1653 159.64 25.112C159.8 25.0587 159.95 25.0533 160.088 25.096C160.238 25.128 160.35 25.208 160.424 25.336C160.499 25.4533 160.51 25.5813 160.456 25.72C160.403 25.848 160.227 25.912 159.928 25.912C159.64 25.912 159.331 26.0027 159 26.184L158.488 26.44L158.456 27.464C158.446 27.72 158.435 27.912 158.424 28.04C158.414 28.1573 158.392 28.264 158.36 28.36C158.339 28.4453 158.307 28.504 158.264 28.536C158.232 28.568 158.179 28.6053 158.104 28.648C157.838 28.7867 157.678 28.7547 157.624 28.552C157.56 28.328 157.608 27.5173 157.768 26.12C157.907 24.8933 157.998 24.0347 158.04 23.544C158.104 22.9893 158.174 22.6693 158.248 22.584ZM152.888 22.92C153.379 22.76 153.944 22.6747 154.584 22.664C155.235 22.6427 155.587 22.7067 155.64 22.856C155.694 23.0053 155.72 23.6667 155.72 24.84C155.72 25.5547 155.699 26.0667 155.656 26.376C155.614 26.6853 155.539 26.8987 155.432 27.016C155.336 27.1227 155.166 27.176 154.92 27.176C154.515 27.176 153.96 27.1973 153.256 27.24C152.414 27.2933 151.923 27.2667 151.784 27.16C151.656 27.0533 151.544 26.664 151.448 25.992C151.352 25.3093 151.32 24.6587 151.352 24.04C151.363 23.6453 151.384 23.4107 151.416 23.336C151.459 23.2613 151.571 23.2133 151.752 23.192C151.998 23.1707 152.376 23.08 152.888 22.92ZM154.888 24.072C154.942 23.816 154.952 23.6667 154.92 23.624C154.899 23.5707 154.803 23.5493 154.632 23.56C154.238 23.5707 153.64 23.672 152.84 23.864L152.056 24.072L152.152 25.16C152.206 25.896 152.28 26.2907 152.376 26.344C152.472 26.4187 152.814 26.424 153.4 26.36C153.72 26.3387 154.094 26.3067 154.52 26.264C154.627 26.2533 154.691 26.2 154.712 26.104C154.744 25.9973 154.766 25.768 154.776 25.416C154.787 24.872 154.824 24.424 154.888 24.072ZM154.216 29.144C154.387 28.9307 154.59 28.904 154.824 29.064C154.942 29.1387 154.968 29.336 154.904 29.656C154.734 30.488 154.728 30.9307 154.888 30.984C154.974 31.0267 155.31 30.9947 155.896 30.888C156.547 30.7707 157.118 30.7013 157.608 30.68L158.408 30.632V31.016C158.408 31.1973 158.371 31.3093 158.296 31.352C158.232 31.3947 158.003 31.4427 157.608 31.496C157.054 31.5493 156.616 31.624 156.296 31.72C155.976 31.8053 155.55 31.8587 155.016 31.88C154.494 31.9013 154.195 31.8747 154.12 31.8C154.046 31.7147 154.019 31.2773 154.04 30.488C154.072 29.688 154.131 29.24 154.216 29.144ZM23.064 44.632C23.4373 44.0667 23.7093 43.784 23.88 43.784C24.264 43.784 24.2747 44.0987 23.912 44.728L23.832 44.888C23.5227 45.3893 23.368 45.6987 23.368 45.816C23.368 45.9333 23.688 46.344 24.328 47.048C25.1173 47.9227 25.384 48.44 25.128 48.6C25.0747 48.6213 25 48.648 24.904 48.68C24.808 48.6907 24.6853 48.632 24.536 48.504C24.3867 48.376 24.1627 48.1253 23.864 47.752C23.3413 47.1227 23.0373 46.808 22.952 46.808C22.888 46.808 22.808 46.904 22.712 47.096C22.616 47.2773 22.5307 47.496 22.456 47.752C22.392 48.008 22.36 48.2213 22.36 48.392C22.36 48.5413 22.3547 48.648 22.344 48.712C22.344 48.776 22.328 48.8293 22.296 48.872C22.2747 48.9147 22.2427 48.9413 22.2 48.952C22.1573 48.952 22.0827 48.952 21.976 48.952C21.7307 48.952 21.56 48.8453 21.464 48.632C21.3893 48.4933 21.384 48.3227 21.448 48.12C21.512 47.9173 21.7733 47.272 22.232 46.184C22.424 45.7253 22.7013 45.208 23.064 44.632ZM27.48 44.008C27.5227 43.944 27.624 43.912 27.784 43.912C27.88 43.912 27.9653 43.96 28.04 44.056C28.1147 44.152 28.168 44.28 28.2 44.44C28.2427 44.6 28.2587 44.7707 28.248 44.952C28.2267 45.2507 28.2533 46.2107 28.328 47.832L28.424 50.312L28.072 50.392C27.8587 50.456 27.7093 50.4293 27.624 50.312C27.56 50.2053 27.5173 49.688 27.496 48.76C27.4853 47.8533 27.4693 47.2773 27.448 47.032C27.4267 46.7867 27.3893 46.6427 27.336 46.6C27.2827 46.5467 26.9947 46.5893 26.472 46.728C25.1387 47.0693 24.5307 46.9467 24.648 46.36C24.6693 46.232 24.7867 46.1307 25 46.056C25.224 45.9813 25.6453 45.9173 26.264 45.864C26.8933 45.8 27.2347 45.752 27.288 45.72C27.352 45.6667 27.384 45.384 27.384 44.872C27.384 44.3387 27.416 44.0507 27.48 44.008ZM32.4601 43.656C32.5668 43.5813 32.6521 43.5493 32.7161 43.56C32.7801 43.56 32.8708 43.6027 32.9881 43.688C33.0628 43.7627 33.1055 43.9547 33.1161 44.264C33.1375 44.5733 33.1321 45.2613 33.1001 46.328C33.0468 47.9813 32.9721 48.856 32.8761 48.952C32.7588 49.0587 32.2255 49.1653 31.2761 49.272C30.3268 49.368 29.8041 49.3787 29.7081 49.304C29.5801 49.1973 29.4735 48.936 29.3881 48.52C29.3135 48.0933 29.2388 47.3733 29.1641 46.36C29.0788 45.3893 29.0468 44.76 29.0681 44.472C29.1001 44.184 29.2068 44.0133 29.3881 43.96C29.5481 43.896 29.6761 43.976 29.7721 44.2C29.8681 44.424 29.9161 44.7547 29.9161 45.192C29.9161 45.6187 29.9321 45.8693 29.9641 45.944C29.9961 46.0187 30.1028 46.0507 30.2841 46.04C30.4548 46.04 30.8548 45.9867 31.4841 45.88L32.3481 45.736L32.3321 44.744C32.3001 44.0827 32.3428 43.72 32.4601 43.656ZM32.3641 46.744L31.9321 46.728C31.6441 46.7067 31.3775 46.7333 31.1321 46.808C30.6948 46.9147 30.4548 46.9733 30.4121 46.984C30.2521 47.016 30.1508 47.0693 30.1081 47.144C30.0655 47.208 30.0441 47.3627 30.0441 47.608C30.0441 47.992 30.1188 48.2267 30.2681 48.312C30.4175 48.3973 30.7481 48.4027 31.2601 48.328C31.8148 48.2533 32.1295 48.1733 32.2041 48.088C32.2681 48.024 32.3108 47.784 32.3321 47.368L32.3641 46.744ZM35.2601 44.024C35.4735 43.8747 35.6708 43.896 35.8521 44.088C35.9481 44.216 35.9588 45.3627 35.8841 47.528L35.7881 50.76L35.4841 50.792C35.2601 50.824 35.1215 50.7867 35.0681 50.68C34.9828 50.552 34.9721 49.4267 35.0361 47.304C35.1001 45.1707 35.1748 44.0773 35.2601 44.024ZM39.1724 42.744C39.343 42.5627 39.4817 42.456 39.5884 42.424C39.7057 42.392 39.8177 42.4347 39.9244 42.552C40.0097 42.6373 40.015 42.7653 39.9404 42.936C39.8764 43.096 39.7697 43.224 39.6204 43.32C39.4817 43.416 39.439 43.5333 39.4924 43.672C39.5564 43.8107 39.7324 44.0027 40.0204 44.248C40.831 44.9307 41.3377 45.3787 41.5404 45.592C41.743 45.7947 41.8337 45.9653 41.8124 46.104C41.759 46.4773 41.4604 46.4667 40.9164 46.072L40.1964 45.48C39.4817 44.8507 39.0604 44.536 38.9324 44.536C38.8044 44.536 38.559 44.9147 38.1964 45.672C37.951 46.1733 37.775 46.488 37.6684 46.616C37.5617 46.7333 37.4284 46.7973 37.2684 46.808C36.9377 46.808 36.8044 46.6693 36.8684 46.392C36.943 46.0507 37.3537 45.336 38.1004 44.248C38.655 43.4373 39.0124 42.936 39.1724 42.744ZM40.5964 49.192C41.4284 49.1173 41.9244 49.0907 42.0844 49.112C42.2444 49.1227 42.3457 49.1973 42.3884 49.336C42.431 49.5067 42.431 49.6507 42.3884 49.768C42.335 49.8853 42.1857 49.9707 41.9404 50.024C41.7057 50.0667 41.5137 50.0453 41.3644 49.96C41.215 49.8747 41.119 49.848 41.0764 49.88C41.0337 49.9227 40.4417 49.9867 39.3004 50.072C38.2124 50.1573 37.519 50.2373 37.2204 50.312C36.9857 50.376 36.8204 50.392 36.7244 50.36C36.6284 50.328 36.575 50.232 36.5644 50.072C36.5537 49.9013 36.5964 49.7307 36.6924 49.56C36.735 49.4853 36.7937 49.432 36.8684 49.4C36.9537 49.368 37.087 49.3467 37.2684 49.336C37.4604 49.3253 37.7857 49.3147 38.2444 49.304C39.183 49.2933 39.967 49.256 40.5964 49.192ZM50.9455 41.944C50.9988 41.9013 51.1108 41.8907 51.2815 41.912C51.4522 41.9227 51.6068 41.96 51.7455 42.024C51.8948 42.1093 51.9642 42.216 51.9535 42.344C51.9535 42.4613 51.8522 42.6533 51.6495 42.92C51.4468 43.2293 51.3455 43.4373 51.3455 43.544C51.3455 43.5653 51.3722 43.608 51.4255 43.672C51.4895 43.7253 51.5748 43.7947 51.6815 43.88C51.7988 43.9547 51.9215 44.0293 52.0495 44.104C52.6255 44.4773 52.8495 44.776 52.7215 45C52.6788 45.0533 52.6255 45.0907 52.5615 45.112C52.4655 45.144 52.2255 45.0693 51.8415 44.888C51.4682 44.696 51.1695 44.5093 50.9455 44.328C50.8708 44.264 50.8015 44.2373 50.7375 44.248C50.6735 44.2587 50.5722 44.3227 50.4335 44.44C50.2308 44.632 50.0068 44.8933 49.7615 45.224C49.4948 45.608 49.2922 45.832 49.1535 45.896C49.0148 45.9493 48.8442 45.896 48.6415 45.736C48.4922 45.64 48.4655 45.5173 48.5615 45.368C48.6575 45.2187 49.0202 44.7973 49.6495 44.104C50.3428 43.3253 50.6788 42.8987 50.6575 42.824C50.6362 42.7813 50.5242 42.7867 50.3215 42.84C50.0975 42.8827 49.8308 42.9253 49.5215 42.968C49.3722 42.9787 49.0042 43.0213 48.4175 43.096L47.6975 43.192V42.856C47.6975 42.6427 47.8095 42.4933 48.0335 42.408C48.2575 42.3227 48.7802 42.2373 49.6015 42.152C50.4762 42.056 50.9242 41.9867 50.9455 41.944ZM52.0975 46.264C52.3962 46.1787 52.6468 46.1413 52.8495 46.152C53.0628 46.152 53.2015 46.2053 53.2655 46.312C53.3295 46.4187 53.3242 46.5627 53.2495 46.744C53.1535 46.9573 52.9828 47.064 52.7375 47.064C52.4815 47.064 52.2522 47.1013 52.0495 47.176C51.9002 47.24 51.8095 47.32 51.7775 47.416C51.7455 47.512 51.7295 47.7573 51.7295 48.152V49.016L52.3855 49.176C52.7802 49.2613 53.0948 49.4 53.3295 49.592C53.4682 49.7307 53.5482 49.8587 53.5695 49.976C53.6015 50.0827 53.6015 50.3013 53.5695 50.632C53.5482 50.8773 53.5215 51.0587 53.4895 51.176C53.4575 51.2933 53.4042 51.4 53.3295 51.496C53.2655 51.592 53.1535 51.7147 52.9935 51.864C52.8655 51.992 52.7482 52.088 52.6415 52.152C52.5455 52.216 52.4495 52.264 52.3535 52.296C52.2575 52.3387 52.1455 52.36 52.0175 52.36C50.4922 52.4133 49.7242 51.8907 49.7135 50.792C49.7135 50.536 49.7348 50.3493 49.7775 50.232C49.8308 50.104 49.9482 49.9493 50.1295 49.768C50.3855 49.5013 50.6148 49.3307 50.8175 49.256C50.9348 49.224 51.0042 49.1867 51.0255 49.144C51.0575 49.0907 51.0575 49.0107 51.0255 48.904C50.9508 48.68 50.9028 48.3867 50.8815 48.024C50.8495 47.7467 50.8122 47.5813 50.7695 47.528C50.7375 47.464 50.6628 47.4427 50.5455 47.464C50.3962 47.5067 49.9802 47.5813 49.2975 47.688C48.8495 47.7627 48.5615 47.7947 48.4335 47.784C48.3055 47.7733 48.1935 47.7253 48.0975 47.64C48.0015 47.544 47.9535 47.4747 47.9535 47.432C47.9642 47.3787 48.0282 47.2933 48.1455 47.176C48.2415 47.08 48.3908 47.0053 48.5935 46.952C48.7962 46.8987 49.1268 46.8453 49.5855 46.792C50.1722 46.7387 50.5988 46.6853 50.8655 46.632C51.1428 46.568 51.5535 46.4453 52.0975 46.264ZM52.6415 50.168C52.4815 50.04 52.3482 49.9653 52.2415 49.944C52.1348 49.912 51.9108 49.9067 51.5695 49.928C51.1002 49.96 50.7748 50.12 50.5935 50.408C50.4228 50.696 50.4815 50.984 50.7695 51.272C50.9188 51.432 51.0468 51.5227 51.1535 51.544C51.2602 51.576 51.4362 51.5813 51.6815 51.56C52.1508 51.5067 52.4922 51.32 52.7055 51C52.9295 50.6907 52.9082 50.4133 52.6415 50.168ZM55.8726 42.584C56.2566 42.4773 56.5233 42.424 56.6726 42.424C56.8326 42.4133 57.0246 42.4507 57.2486 42.536C57.654 42.6853 58.0326 43.0267 58.3846 43.56C58.7473 44.0827 58.9286 44.568 58.9286 45.016C58.9286 45.4747 58.806 45.896 58.5606 46.28C58.3153 46.6533 57.9953 46.9147 57.6006 47.064C57.1846 47.2133 56.7046 47.2453 56.1606 47.16C55.6273 47.064 55.238 46.8827 54.9926 46.616C54.822 46.4133 54.6513 46.104 54.4806 45.688C54.3206 45.2613 54.2406 44.9253 54.2406 44.68C54.2513 44.168 54.4006 43.7253 54.6886 43.352C54.9766 42.968 55.3713 42.712 55.8726 42.584ZM57.5046 43.56C57.2273 43.3253 56.9073 43.2347 56.5446 43.288C56.1926 43.3307 55.8406 43.5173 55.4886 43.848C55.35 43.9653 55.254 44.0827 55.2006 44.2C55.158 44.3173 55.1366 44.4987 55.1366 44.744C55.1366 45.2453 55.2806 45.6507 55.5686 45.96C55.8566 46.2693 56.2086 46.4187 56.6246 46.408C57.0406 46.3867 57.4353 46.1947 57.8086 45.832C58.0433 45.608 58.1606 45.368 58.1606 45.112C58.1606 44.8987 58.086 44.6213 57.9366 44.28C57.7873 43.928 57.6433 43.688 57.5046 43.56ZM60.4006 42.92C60.486 42.7707 60.5873 42.6853 60.7046 42.664C60.8326 42.632 60.934 42.68 61.0086 42.808C61.0833 42.904 61.1206 43.784 61.1206 45.448C61.1206 46.5893 61.11 47.288 61.0886 47.544C61.0673 47.8 61.0086 47.928 60.9126 47.928C60.7526 47.928 60.6033 47.8267 60.4646 47.624C60.3366 47.4213 60.262 46.6427 60.2406 45.288C60.2193 43.9333 60.2726 43.144 60.4006 42.92ZM59.8406 47.912C59.9366 47.848 60.0113 47.8213 60.0646 47.832C60.118 47.832 60.2086 47.8747 60.3366 47.96C60.4326 48.0347 60.486 48.1787 60.4966 48.392C60.518 48.6053 60.5073 49.1227 60.4646 49.944C60.422 50.6373 60.3793 51.1173 60.3366 51.384C60.3046 51.6613 60.2513 51.816 60.1766 51.848C60.038 51.9227 59.5206 52.0027 58.6246 52.088C58.0273 52.152 57.638 52.1787 57.4566 52.168C57.2753 52.168 57.1473 52.1307 57.0726 52.056C56.806 51.7893 56.6673 51.064 56.6566 49.88C56.6566 49.336 56.6993 48.952 56.7846 48.728C56.8806 48.504 57.03 48.4133 57.2326 48.456C57.3286 48.4773 57.3926 48.5307 57.4246 48.616C57.4566 48.6907 57.4673 48.8347 57.4566 49.048C57.4566 49.4 57.478 49.576 57.5206 49.576C57.542 49.5653 57.926 49.5067 58.6726 49.4L59.7286 49.256L59.7126 48.616C59.6806 48.2107 59.7233 47.976 59.8406 47.912ZM59.5846 50.632C59.5953 50.5147 59.59 50.4347 59.5686 50.392C59.558 50.3387 59.526 50.3013 59.4726 50.28C59.43 50.2587 59.35 50.248 59.2326 50.248C59.0086 50.2373 58.662 50.2693 58.1926 50.344C57.9153 50.408 57.734 50.4667 57.6486 50.52C57.574 50.5627 57.5366 50.6373 57.5366 50.744C57.5366 51 57.5953 51.1493 57.7126 51.192C57.8406 51.2453 58.134 51.2453 58.5926 51.192C59.1793 51.1067 59.4833 51.048 59.5046 51.016C59.5473 50.984 59.574 50.856 59.5846 50.632ZM67.9601 43.512C68.0348 43.448 68.1575 43.4267 68.3281 43.448C68.4028 43.4587 68.4508 43.4747 68.4721 43.496C68.5041 43.5173 68.5308 43.5813 68.5521 43.688C68.5841 43.7947 68.6001 43.9333 68.6001 44.104C68.6108 44.264 68.6215 44.5147 68.6321 44.856C68.6535 45.848 68.6321 47.0587 68.5681 48.488L68.4721 50.76H68.0881H67.7041L67.7201 49.768C67.7201 48.072 67.7415 46.616 67.7841 45.4C67.8375 44.184 67.8961 43.5547 67.9601 43.512ZM61.9441 43.896C62.0615 43.768 62.1468 43.6987 62.2001 43.688C62.2535 43.6667 62.3388 43.6933 62.4561 43.768C62.5521 43.832 62.6108 44.5093 62.6321 45.8L62.6801 47.752H64.0081C64.8935 47.752 65.4908 47.7253 65.8001 47.672C66.0668 47.6187 66.2535 47.64 66.3601 47.736C66.4775 47.8213 66.5201 47.992 66.4881 48.248L66.4561 48.584L64.2961 48.616C62.8561 48.6587 62.0881 48.6267 61.9921 48.52C61.9068 48.392 61.8428 47.6347 61.8001 46.248C61.7681 45.3093 61.7575 44.712 61.7681 44.456C61.7895 44.1893 61.8481 44.0027 61.9441 43.896ZM76.0164 43.656C76.0484 43.592 76.1177 43.5547 76.2244 43.544C76.3417 43.5333 76.4697 43.56 76.6084 43.624C76.6937 43.656 76.747 43.768 76.7684 43.96C76.8004 44.152 76.8164 44.552 76.8164 45.16C76.8164 46.152 76.8377 46.664 76.8804 46.696C76.9017 46.728 77.2857 46.7173 78.0324 46.664C78.715 46.5893 79.163 46.5733 79.3764 46.616C79.6004 46.6587 79.7124 46.7813 79.7124 46.984C79.7124 47.0267 79.707 47.064 79.6964 47.096C79.6964 47.128 79.6804 47.16 79.6484 47.192C79.627 47.224 79.6004 47.2507 79.5684 47.272C79.547 47.2933 79.5044 47.3147 79.4404 47.336C79.3764 47.3573 79.307 47.3733 79.2324 47.384C79.1577 47.3947 79.0564 47.4107 78.9284 47.432C78.811 47.4427 78.683 47.4533 78.5444 47.464C78.4164 47.4747 78.2457 47.4907 78.0324 47.512C77.2964 47.5653 76.8964 47.64 76.8324 47.736C76.7897 47.8107 76.7577 48.2693 76.7364 49.112C76.7257 49.9333 76.7044 50.3547 76.6724 50.376C76.6617 50.3973 76.5604 50.44 76.3684 50.504C76.1444 50.568 76.0057 50.504 75.9524 50.312C75.8884 50.0773 75.8884 49.304 75.9524 47.992C76.0377 46.5093 76.059 45.432 76.0164 44.76C75.9524 44.0987 75.9524 43.7307 76.0164 43.656ZM71.4724 44.104C72.187 43.9867 72.6937 43.9333 72.9924 43.944C73.291 43.944 73.4617 44.0027 73.5044 44.12C73.579 44.312 73.547 44.4613 73.4084 44.568C73.2804 44.6747 73.0457 44.7333 72.7044 44.744C71.7337 44.7547 70.987 44.8773 70.4644 45.112L70.0644 45.256L70.1124 46.44C70.1337 46.76 70.1444 46.9947 70.1444 47.144C70.155 47.2933 70.1764 47.448 70.2084 47.608C70.2404 47.768 70.2724 47.8747 70.3044 47.928C70.3364 47.9707 70.395 48.024 70.4804 48.088C70.5764 48.1413 70.6617 48.1733 70.7364 48.184C70.8217 48.1947 70.9497 48.2053 71.1204 48.216C71.6004 48.2587 72.091 48.2533 72.5924 48.2C73.3924 48.0827 73.7924 48.1947 73.7924 48.536C73.7924 48.664 73.771 48.76 73.7284 48.824C73.6964 48.888 73.595 48.9413 73.4244 48.984C73.2644 49.0267 73.051 49.0533 72.7844 49.064C72.5284 49.0747 72.1444 49.08 71.6324 49.08C71.5364 49.08 71.403 49.08 71.2324 49.08C70.9764 49.08 70.795 49.08 70.6884 49.08C70.5817 49.08 70.443 49.0693 70.2724 49.048C70.1124 49.0267 70.011 49.016 69.9684 49.016C69.9257 49.0053 69.8617 48.968 69.7764 48.904C69.691 48.8293 69.6377 48.7707 69.6164 48.728C69.6057 48.6747 69.579 48.5787 69.5364 48.44C69.5044 48.3013 69.483 48.184 69.4724 48.088C69.4724 47.9813 69.4564 47.816 69.4244 47.592C69.4137 47.432 69.403 47.304 69.3924 47.208C69.2964 46.2373 69.2537 45.576 69.2644 45.224C69.275 44.872 69.3444 44.664 69.4724 44.6C69.931 44.4187 70.5977 44.2533 71.4724 44.104ZM80.6904 49.784C80.8504 49.7093 80.9837 49.6827 81.0904 49.704C81.2077 49.7147 81.3357 49.784 81.4744 49.912C81.5917 50.008 81.6664 50.088 81.6984 50.152C81.7304 50.2053 81.7464 50.2907 81.7464 50.408C81.7464 50.9307 81.4797 51.192 80.9464 51.192C80.8717 51.192 80.8077 51.1867 80.7544 51.176C80.7117 51.1653 80.6744 51.144 80.6424 51.112C80.6104 51.0907 80.5677 51.0533 80.5144 51C80.4077 50.872 80.3544 50.6853 80.3544 50.44C80.3544 50.248 80.3757 50.1093 80.4184 50.024C80.461 49.9387 80.5517 49.8587 80.6904 49.784Z" fill="#999999"/>
</g>
<defs>
<filter id="filter0_d_9_13363" x="0" y="0" width="179" height="84.5298" filterUnits="userSpaceOnUse" color-interpolation-filters="sRGB">
<feFlood flood-opacity="0" result="BackgroundImageFix"/>
<feColorMatrix in="SourceAlpha" type="matrix" values="0 0 0 0 0 0 0 0 0 0 0 0 0 0 0 0 0 0 127 0" result="hardAlpha"/>
<feOffset dy="2"/>
<feGaussianBlur stdDeviation="3.5"/>
<feComposite in2="hardAlpha" operator="out"/>
<feColorMatrix type="matrix" values="0 0 0 0 0.475 0 0 0 0 0.475 0 0 0 0 0.475 0 0 0 0.1 0"/>
<feBlend mode="normal" in2="BackgroundImageFix" result="effect1_dropShadow_9_13363"/>
<feBlend mode="normal" in="SourceGraphic" in2="effect1_dropShadow_9_13363" result="shape"/>
</filter>
</defs>
</svg>
