<svg width="117" height="106" viewBox="0 0 117 106" fill="none" xmlns="http://www.w3.org/2000/svg">
<path d="M67.9512 83.0283L71.9977 95.7418C71.9977 95.7418 80.0111 97.7769 79.6761 101.007L64.107 101.228L64.2198 83.5247L67.9512 83.0283Z" fill="#ED7E7E"/>
<path d="M67.9512 83.0283L71.9977 95.7418C71.9977 95.7418 80.0111 97.7769 79.6761 101.007L64.107 101.228L64.2198 83.5247L67.9512 83.0283Z" fill="url(#paint0_radial_2_207)"/>
<path d="M58.014 82.8331L53.4103 95.358C53.4103 95.358 45.314 97.039 45.5063 100.282L61.0522 101.185L61.7222 83.4916L58.0173 82.8331H58.014Z" fill="#ED7E7E"/>
<path d="M58.014 82.8331L53.4103 95.358C53.4103 95.358 45.314 97.039 45.5063 100.282L61.0522 101.185L61.7222 83.4916L58.0173 82.8331H58.014Z" fill="url(#paint1_radial_2_207)"/>
<path d="M32.1563 26.1914C31.9308 26.337 31.6356 26.2411 31.3901 26.1285C31.0419 25.9697 30.7069 25.7811 30.3918 25.566C30.2458 25.4667 30.0966 25.3575 30.0236 25.1987C29.9672 25.0763 29.9606 24.9373 29.9606 24.8016C29.954 24.0571 30.0634 23.3125 30.2923 22.6011C31.1281 22.6937 31.8976 23.0941 32.6406 23.4879C33.095 23.7295 33.5527 23.971 34.0071 24.2093L32.1563 26.1914Z" fill="#ED7E7E"/>
<path d="M32.2426 26.2775C31.954 26.6249 31.4035 26.3999 31.0685 26.2543C30.6738 26.0789 30.1829 25.8572 29.8943 25.5263C29.5693 25.1524 29.6323 24.57 29.6721 24.11C29.7185 23.5706 29.8213 23.0346 29.9806 22.5183C30.017 22.3959 30.1497 22.2668 30.289 22.2834C30.9889 22.3661 31.629 22.6176 32.2526 22.9287C32.8761 23.2397 33.5295 23.5971 34.1663 23.9346C34.3554 24.0339 34.3687 24.2953 34.2327 24.4409C33.6158 25.1027 32.9988 25.7612 32.3819 26.4231C32.0967 26.7275 31.6423 26.2708 31.9242 25.9664C32.5411 25.3046 33.158 24.6461 33.775 23.9843L33.8413 24.4906C33.2476 24.1762 32.6572 23.8552 32.0569 23.5508C31.4996 23.2662 30.9126 23.0015 30.289 22.9254L30.5975 22.6904C30.4681 23.0908 30.3719 23.5011 30.3189 23.9214C30.2923 24.1266 30.2791 24.3317 30.2724 24.5369C30.2658 24.7123 30.2194 24.9472 30.3023 25.106C30.3719 25.2384 30.5311 25.3311 30.6505 25.4105C30.8098 25.5197 30.9723 25.619 31.1381 25.7149C31.304 25.8109 31.4764 25.9168 31.6555 25.9962C31.8346 26.0756 31.9706 26.0955 32.1564 26.0723C32.2725 26.0591 32.3023 26.208 32.2426 26.2808V26.2775Z" fill="#ED7E7E"/>
<path d="M89.6796 61.4498C89.5734 60.8144 89.4673 60.1758 89.3578 59.5404C89.1091 58.0679 88.8636 56.592 88.6116 55.1195C88.595 55.0268 88.5784 54.9342 88.5651 54.8415C88.5121 54.5205 88.9134 54.3882 89.1124 54.5999C89.7028 55.2187 90.2965 55.8309 90.8902 56.4431C92.3861 57.9885 93.8886 59.5272 95.3977 61.056C97.3679 63.0514 99.3547 65.0302 101.358 66.9925C103.378 68.9746 105.421 70.9336 107.511 72.8429C108.764 73.9846 110.028 75.1262 111.352 76.1917C111.962 76.248 112.572 76.3307 113.176 76.43C113.803 76.5326 114.426 76.6583 115.043 76.8105C115.488 76.9197 115.949 77.0322 116.363 77.2308C116.721 77.4029 117.116 77.7305 116.967 78.1772C116.864 78.4849 116.569 78.6272 116.317 78.8026C116.416 78.9317 116.599 79.0342 116.692 79.1501C116.838 79.3321 116.891 79.5604 116.828 79.7854C116.715 80.1759 116.386 80.348 116.028 80.4241C116.055 80.5564 116.041 80.6954 115.988 80.8311C115.819 81.2613 115.332 81.3539 114.917 81.3208C114.065 81.248 113.202 81.0131 112.386 80.7351C112.439 81.291 112.698 81.8238 112.489 82.393C112.24 83.0647 111.471 83.2202 110.904 82.8298C110.191 82.34 110.27 81.4069 110.078 80.6656C109.899 79.9608 109.219 79.6133 108.817 79.0541C108.768 78.9846 108.721 78.9118 108.678 78.8357C108.662 78.8059 108.645 78.7728 108.628 78.743C108.622 78.7331 108.618 78.7232 108.612 78.71C108.569 78.6372 108.572 78.6239 108.622 78.6702C108.622 78.6669 108.622 78.6669 108.622 78.6636C108.569 78.6107 108.509 78.5644 108.453 78.5147C108.224 78.3129 107.998 78.111 107.769 77.9058C106.93 77.158 106.088 76.4068 105.249 75.659C104.074 74.6133 102.904 73.5676 101.729 72.5253C100.426 71.3638 99.1225 70.2056 97.819 69.0474C96.5918 67.9554 95.3612 66.8667 94.134 65.7747C93.1854 64.9342 92.2368 64.0904 91.2915 63.2499C90.8305 62.8396 90.3661 62.4326 89.9051 62.0189C89.726 61.8601 89.7161 61.6715 89.6796 61.4464V61.4498Z" fill="#ED7E7E"/>
<path d="M89.6796 61.4498C89.5734 60.8144 89.4673 60.1758 89.3578 59.5404C89.1091 58.0679 88.8636 56.592 88.6116 55.1195C88.595 55.0268 88.5784 54.9342 88.5651 54.8415C88.5121 54.5205 88.9134 54.3882 89.1124 54.5999C89.7028 55.2187 90.2965 55.8309 90.8902 56.4431C92.3861 57.9885 93.8886 59.5272 95.3977 61.056C97.3679 63.0514 99.3547 65.0302 101.358 66.9925C103.378 68.9746 105.421 70.9336 107.511 72.8429C108.764 73.9846 110.028 75.1262 111.352 76.1917C111.962 76.248 112.572 76.3307 113.176 76.43C113.803 76.5326 114.426 76.6583 115.043 76.8105C115.488 76.9197 115.949 77.0322 116.363 77.2308C116.721 77.4029 117.116 77.7305 116.967 78.1772C116.864 78.4849 116.569 78.6272 116.317 78.8026C116.416 78.9317 116.599 79.0342 116.692 79.1501C116.838 79.3321 116.891 79.5604 116.828 79.7854C116.715 80.1759 116.386 80.348 116.028 80.4241C116.055 80.5564 116.041 80.6954 115.988 80.8311C115.819 81.2613 115.332 81.3539 114.917 81.3208C114.065 81.248 113.202 81.0131 112.386 80.7351C112.439 81.291 112.698 81.8238 112.489 82.393C112.24 83.0647 111.471 83.2202 110.904 82.8298C110.191 82.34 110.27 81.4069 110.078 80.6656C109.899 79.9608 109.219 79.6133 108.817 79.0541C108.768 78.9846 108.721 78.9118 108.678 78.8357C108.662 78.8059 108.645 78.7728 108.628 78.743C108.622 78.7331 108.618 78.7232 108.612 78.71C108.569 78.6372 108.572 78.6239 108.622 78.6702C108.622 78.6669 108.622 78.6669 108.622 78.6636C108.569 78.6107 108.509 78.5644 108.453 78.5147C108.224 78.3129 107.998 78.111 107.769 77.9058C106.93 77.158 106.088 76.4068 105.249 75.659C104.074 74.6133 102.904 73.5676 101.729 72.5253C100.426 71.3638 99.1225 70.2056 97.819 69.0474C96.5918 67.9554 95.3612 66.8667 94.134 65.7747C93.1854 64.9342 92.2368 64.0904 91.2915 63.2499C90.8305 62.8396 90.3661 62.4326 89.9051 62.0189C89.726 61.8601 89.7161 61.6715 89.6796 61.4464V61.4498Z" fill="url(#paint2_radial_2_207)"/>
<path d="M63.248 23.2331C80.7905 23.2331 95.0129 37.4225 95.0129 54.9242C95.0129 72.426 80.7905 86.6154 63.248 86.6154C45.7054 86.6154 31.483 72.426 31.483 54.9242C31.483 37.4225 45.7054 23.2331 63.248 23.2331ZM63.248 67.469C70.1934 67.469 75.822 61.8535 75.822 54.9242C75.822 47.995 70.1934 42.3795 63.248 42.3795C56.3026 42.3795 50.674 47.995 50.674 54.9242C50.674 61.8535 56.3026 67.469 63.248 67.469Z" fill="#ED7E7E"/>
<path d="M62.9527 31.6911C62.7404 33.7229 60.9527 35.2021 58.9593 34.9936C56.9626 34.7851 55.5165 32.9684 55.7287 30.9367C55.941 28.9049 57.7288 27.4257 59.7221 27.6342C61.7189 27.8427 63.165 29.6594 62.9527 31.6911Z" fill="white"/>
<path d="M62.1501 31.3404C61.9511 33.2563 60.2662 34.6495 58.3856 34.4542C56.505 34.259 55.1417 32.5449 55.3408 30.6322C55.5398 28.7163 57.2247 27.3231 59.1053 27.5184C60.9859 27.7136 62.3491 29.4277 62.1501 31.3404Z" fill="#403E3D"/>
<path d="M67.0723 33.5972C67.0723 33.5972 69.3708 31.0657 73.8352 32.5151" stroke="#403E3D" stroke-width="2" stroke-linecap="round" stroke-linejoin="round"/>
<path d="M62.1004 37.5416C62.1004 38.402 62.724 39.0969 63.4901 39.0969C64.2563 39.0969 64.8799 38.3987 64.8799 37.5416C64.8799 36.6845 64.2563 35.9863 63.4901 35.9863C62.724 35.9863 62.1004 36.6845 62.1004 37.5416Z" stroke="#403E3D" stroke-width="2" stroke-linecap="round" stroke-linejoin="round"/>
<path d="M38.2393 26.3602L51.0786 30.9135L53.5364 25.063L41.2742 19.1265L38.2393 26.3602Z" fill="#BCBBBB"/>
<path d="M22.531 21.7242L41.2012 28.3457L44.7734 19.8413L26.9457 11.2079L22.531 21.7242Z" fill="#A09C9C"/>
<path d="M-7.62939e-05 14.8644L26.3917 24.2225L31.4365 12.2039L6.24214 0L-7.62939e-05 14.8644Z" fill="#878382"/>
<path d="M19.8444 30.3807C20.1429 30.0399 20.5409 29.8711 20.9456 29.7057C22.0501 29.2589 23.1546 28.8089 24.2558 28.3622C25.7881 27.7401 27.3172 27.118 28.8495 26.4992C29.556 26.2113 30.2625 25.9267 30.969 25.6388C31.4101 24.6428 32.3852 23.9148 33.4765 23.7725C33.5561 23.7625 33.639 23.7625 33.7153 23.7493C33.8181 23.7295 33.8347 23.6931 33.8712 23.6037C33.9408 23.435 33.9906 23.2596 34.0436 23.0842C34.1465 22.7599 34.2592 22.429 34.4582 22.151C34.8363 21.6282 35.5495 21.3238 36.1199 21.7539C36.634 22.1411 36.7369 22.8658 36.8795 23.4482C36.9757 23.8519 37.0918 24.2523 37.1647 24.6626C37.2278 25.0068 37.2543 25.3708 37.1216 25.7017C36.8496 26.3833 36.0702 26.5951 35.4466 26.8268C35.0519 26.9757 34.6572 27.118 34.2592 27.2636C34.1232 27.3132 33.974 27.3529 33.8446 27.4125C33.5527 27.5481 33.2708 27.7301 32.9889 27.8857C32.4085 28.2067 31.8247 28.5276 31.2443 28.8486C29.7616 29.6693 28.2691 30.48 26.7832 31.294C26.1762 31.6283 25.5692 31.9592 24.9622 32.2934C24.7699 32.3993 24.5775 32.5151 24.3818 32.6243C24.7566 32.9056 25.1314 33.1868 25.5062 33.4681C26.7102 34.3715 27.9109 35.2749 29.1149 36.1749C30.5676 37.2669 32.0237 38.3589 33.4765 39.4509C34.7368 40.3973 36.0005 41.3437 37.2609 42.2934C37.8712 42.7534 38.4848 43.2068 39.0918 43.67C39.1017 43.6766 39.1084 43.6833 39.1183 43.6899C39.2974 43.8256 39.3008 44.0439 39.1183 44.1796C38.173 44.8845 37.2311 45.5926 36.2858 46.2974C36.1498 46.4 36.0171 46.4993 35.8811 46.6019C35.775 46.6813 35.6257 46.6317 35.5362 46.5589C35.1514 46.2313 34.7667 45.9037 34.3819 45.5761L31.4963 43.1174C30.2426 42.0486 28.9888 40.9797 27.7351 39.9109C26.488 38.8487 25.2442 37.7865 23.9971 36.7242C23.0451 35.9135 22.0932 35.0995 21.138 34.2888C20.7366 33.9479 20.3055 33.6236 19.9307 33.253C19.1479 32.482 19.1247 31.2146 19.8411 30.3973L19.8444 30.3807Z" fill="#ED7E7E"/>
<defs>
<radialGradient id="paint0_radial_2_207" cx="0" cy="0" r="1" gradientUnits="userSpaceOnUse" gradientTransform="translate(69.5688 81.9372) rotate(175.391) scale(14.6368 14.6032)">
<stop stop-color="#CE3D44" stop-opacity="0.9"/>
<stop offset="1" stop-color="#CE3D44" stop-opacity="0"/>
</radialGradient>
<radialGradient id="paint1_radial_2_207" cx="0" cy="0" r="1" gradientUnits="userSpaceOnUse" gradientTransform="translate(56.4589 81.6693) rotate(7.1136) scale(14.6365 14.6035)">
<stop stop-color="#CE3D44" stop-opacity="0.9"/>
<stop offset="1" stop-color="#CE3D44" stop-opacity="0"/>
</radialGradient>
<radialGradient id="paint2_radial_2_207" cx="0" cy="0" r="1" gradientUnits="userSpaceOnUse" gradientTransform="translate(93.1788 63.9382) rotate(180) scale(11.4098 11.3833)">
<stop stop-color="#CE3D44" stop-opacity="0.9"/>
<stop offset="1" stop-color="#CE3D44" stop-opacity="0"/>
</radialGradient>
</defs>
</svg>
