<svg width="196" height="27" viewBox="0 0 196 27" fill="none" xmlns="http://www.w3.org/2000/svg">
<path d="M3.185 4.52C3.815 3.96 4.27 3.63333 4.55 3.54C4.83 3.42333 5.43667 3.365 6.37 3.365C7.07 3.365 7.61833 3.4 8.015 3.47C8.41167 3.54 8.785 3.66833 9.135 3.855C9.485 4.04167 9.88167 4.33333 10.325 4.73C10.9083 5.24333 11.3167 5.79167 11.55 6.375C11.8067 6.95833 11.9233 7.67 11.9 8.51C11.9 10.0267 11.4333 11.2983 10.5 12.325C9.56667 13.3283 8.435 13.83 7.105 13.83C5.985 13.83 4.95833 13.5733 4.025 13.06C3.09167 12.5233 2.345 11.765 1.785 10.785C1.17833 9.78167 0.875 9.035 0.875 8.545C0.875 8.31167 0.91 8.06667 0.98 7.81C1.05 7.55333 1.14333 7.29667 1.26 7.04C1.4 6.76 1.56333 6.48 1.75 6.2C1.93667 5.89667 2.14667 5.605 2.38 5.325C2.63667 5.045 2.905 4.77667 3.185 4.52ZM8.575 5.36C7.875 5.01 7.01167 4.975 5.985 5.255C4.98167 5.51167 4.17667 6.00167 3.57 6.725C3.10333 7.26167 2.85833 7.76333 2.835 8.23C2.81167 8.69667 2.98667 9.28 3.36 9.98C3.99 11.0533 4.98167 11.7183 6.335 11.975C6.895 12.0917 7.39667 12.0683 7.84 11.905C8.28333 11.7183 8.785 11.345 9.345 10.785C9.71833 10.435 9.96333 10.1317 10.08 9.875C10.1967 9.595 10.255 9.22167 10.255 8.755C10.255 8.055 10.08 7.37833 9.73 6.725C9.40333 6.04833 9.01833 5.59333 8.575 5.36ZM11.48 16.035C12.0867 15.8483 12.495 15.7667 12.705 15.79C12.9383 15.8133 13.2067 15.9767 13.51 16.28C13.8367 16.6067 14.0117 16.875 14.035 17.085C14.0583 17.2717 13.93 17.4933 13.65 17.75C13.37 18.0767 12.5883 18.24 11.305 18.24C10.6517 18.24 10.1967 18.2633 9.94 18.31C9.70667 18.3333 9.53167 18.3917 9.415 18.485C9.29833 18.555 9.19333 18.7183 9.1 18.975C8.91333 19.535 8.86667 20.6317 8.96 22.265C9.07667 23.525 9.11167 24.2717 9.065 24.505C9.01833 24.7617 8.84333 24.96 8.54 25.1C8.21333 25.2167 7.96833 25.2517 7.805 25.205C7.64167 25.1817 7.50167 25.0417 7.385 24.785C7.29167 24.5517 7.245 24.155 7.245 23.595C7.245 23.0583 7.245 22.3583 7.245 21.495L7.35 18.275L6.65 18.38C6.20667 18.45 5.18 18.5317 3.57 18.625C2.61333 18.695 1.97167 18.7183 1.645 18.695C1.31833 18.6483 1.12 18.5433 1.05 18.38C0.816667 17.75 1.05 17.295 1.75 17.015C2.47333 16.735 3.745 16.5833 5.565 16.56C8.34167 16.56 10.3133 16.385 11.48 16.035ZM20.7123 6.41C22.7423 6.06 24.0257 6.06 24.5623 6.41C24.7257 6.50333 24.8423 6.795 24.9123 7.285C24.9823 7.775 25.029 8.66167 25.0523 9.945L25.1573 13.27L24.2823 13.76C23.6757 14.1567 22.9173 14.4017 22.0073 14.495C21.0973 14.6117 20.374 14.81 19.8373 15.09C19.464 15.2767 19.2423 15.4633 19.1723 15.65C19.1023 15.8367 19.079 16.2567 19.1023 16.91L19.2073 18.38L20.2923 18.345C20.9223 18.345 21.9257 18.2167 23.3023 17.96C24.7957 17.6567 25.8107 17.5167 26.3473 17.54C26.884 17.5633 27.1873 17.7617 27.2573 18.135C27.3273 18.5083 27.2107 18.8117 26.9073 19.045C26.7207 19.2083 25.9623 19.4183 24.6323 19.675C23.3257 19.9317 22.019 20.1417 20.7123 20.305C19.4057 20.4683 18.6707 20.5033 18.5073 20.41C17.8773 20.1067 17.469 18.94 17.2823 16.91C17.2123 16.14 17.2007 15.6267 17.2473 15.37C17.3173 15.09 17.5157 14.7633 17.8423 14.39C18.2157 13.97 18.834 13.5967 19.6973 13.27C20.5607 12.92 21.3657 12.745 22.1123 12.745C22.6257 12.745 22.9523 12.5467 23.0923 12.15C23.2557 11.7533 23.3023 10.995 23.2323 9.875C23.1623 8.98833 23.0923 8.46333 23.0223 8.3C22.9523 8.13667 22.7307 8.055 22.3573 8.055C21.984 8.055 21.2607 8.21833 20.1873 8.545C19.114 8.84833 18.5073 9.08167 18.3673 9.245C18.1573 9.40833 17.7957 9.46667 17.2823 9.42C16.7923 9.37333 16.4073 9.23333 16.1273 9C15.8707 8.79 15.754 8.63833 15.7773 8.545C15.8007 8.45167 15.999 8.24167 16.3723 7.915C17.1423 7.23833 18.589 6.73667 20.7123 6.41ZM30.6523 7.88C30.839 7.64667 31.1307 7.6 31.5273 7.74C31.8307 7.85667 31.994 8.21833 32.0173 8.825C32.064 9.43167 32.0757 11.4733 32.0523 14.95C32.0057 18.45 31.924 20.5617 31.8073 21.285C31.714 21.985 31.434 22.335 30.9673 22.335C30.734 22.335 30.559 22.2533 30.4423 22.09C30.3257 21.9033 30.2323 21.5183 30.1623 20.935C30.1157 20.3283 30.0923 19.57 30.0923 18.66C30.0923 17.7267 30.1273 16.3967 30.1973 14.67C30.314 10.3767 30.4657 8.11333 30.6523 7.88ZM49.3232 3.68C49.3699 3.68 49.4399 3.66833 49.5332 3.645C51.2132 3.48167 52.2049 3.42333 52.5082 3.47C52.8115 3.49333 53.0332 3.65667 53.1732 3.96C53.1965 4.00667 53.2082 4.04167 53.2082 4.065C53.3015 4.32167 53.3599 4.54333 53.3832 4.73C53.4065 4.89333 53.2899 5.02167 53.0332 5.115C52.7765 5.20833 52.4382 5.27833 52.0182 5.325C51.6215 5.34833 51.0149 5.37167 50.1982 5.395C49.4049 5.41833 48.7749 5.45333 48.3082 5.5C47.8649 5.54667 47.4682 5.61667 47.1182 5.71C46.7915 5.80333 46.5582 5.96667 46.4182 6.2C46.2782 6.41 46.1732 6.655 46.1032 6.935C46.0565 7.215 46.0332 7.61167 46.0332 8.125V9.77L47.0482 9.56C51.1315 8.76667 53.1732 8.86 53.1732 9.84C53.1732 10.2133 53.0215 10.47 52.7182 10.61C52.4382 10.7267 51.8782 10.7967 51.0382 10.82C50.1515 10.82 49.1132 10.9833 47.9232 11.31C47.1299 11.52 46.6399 11.695 46.4532 11.835C46.2665 11.9517 46.1965 12.1617 46.2432 12.465C46.2899 13.025 46.4649 13.3517 46.7682 13.445C47.0715 13.515 47.7482 13.4333 48.7982 13.2C51.7849 12.5467 53.4532 12.5 53.8032 13.06C53.9899 13.34 53.9665 13.6317 53.7332 13.935C53.5232 14.2383 53.2082 14.39 52.7882 14.39C52.4149 14.39 51.3182 14.565 49.4982 14.915C47.8182 15.265 46.6865 15.44 46.1032 15.44C45.5199 15.44 45.1815 15.2883 45.0882 14.985C44.6915 13.7483 44.4349 11.8933 44.3182 9.42C44.2015 6.94667 44.2949 5.535 44.5982 5.185C45.2982 4.39167 46.8732 3.89 49.3232 3.68ZM56.6382 5.185C56.7315 4.92833 56.9415 4.78833 57.2682 4.765C57.6182 4.71833 57.8632 4.81167 58.0032 5.045C58.1199 5.23167 58.2015 7.02833 58.2482 10.435V15.51L57.6182 15.65C57.1982 15.7433 56.9065 15.6733 56.7432 15.44C56.5565 15.16 56.4399 13.5267 56.3932 10.54C56.3699 7.55333 56.4515 5.76833 56.6382 5.185ZM55.0282 17.645C55.5182 17.4817 55.7865 17.4 55.8332 17.4C55.8799 17.4 55.9732 17.435 56.1132 17.505C56.2765 17.5517 56.4399 17.6333 56.6032 17.75C56.7665 17.8667 56.9182 17.9833 57.0582 18.1C57.2215 18.1933 57.3265 18.275 57.3732 18.345C57.5132 18.5783 57.5832 19.605 57.5832 21.425C57.5832 23.035 57.4549 23.9917 57.1982 24.295C56.9649 24.5983 56.1482 24.82 54.7482 24.96C54.4215 24.9833 53.8732 25.03 53.1032 25.1C52.3565 25.1933 51.8782 25.2517 51.6682 25.275C51.3415 25.3217 51.0732 25.345 50.8632 25.345C50.6532 25.345 50.4549 25.3217 50.2682 25.275C50.0815 25.2517 49.9415 25.1817 49.8482 25.065C49.7549 24.9483 49.6615 24.8083 49.5682 24.645C49.4982 24.505 49.4399 24.2717 49.3932 23.945C49.3699 23.6417 49.3465 23.3267 49.3232 23C49.3232 22.65 49.3232 22.2067 49.3232 21.67C49.3232 19.85 49.3932 18.835 49.5332 18.625C49.6732 18.415 50.1049 18.31 50.8282 18.31C52.1815 18.31 53.5815 18.0883 55.0282 17.645ZM55.7632 19.745L54.6782 19.675C54.2815 19.675 53.8615 19.71 53.4182 19.78C52.9749 19.8267 52.5549 19.92 52.1582 20.06C51.7849 20.2 51.5165 20.34 51.3532 20.48C51.0965 20.69 50.9682 21.2383 50.9682 22.125V23.455L52.5782 23.28C52.8582 23.2333 53.2665 23.175 53.8032 23.105C54.3399 23.0583 54.6782 23.0233 54.8182 23C54.9115 23 55.0165 22.9883 55.1332 22.965C55.2732 22.9417 55.3782 22.93 55.4482 22.93C55.5415 22.93 55.5999 22.93 55.6232 22.93C55.7165 22.8833 55.7632 22.335 55.7632 21.285V19.745ZM63.4359 1.545C64.8592 0.868332 66.2709 0.844999 67.6709 1.475C69.0942 2.105 70.0392 3.17833 70.5059 4.695C70.6225 5.13833 70.6692 5.52333 70.6459 5.85C70.6225 6.17667 70.5292 6.62 70.3659 7.18C70.1092 7.95 69.7009 8.60333 69.1409 9.14C68.6042 9.67667 67.8809 10.155 66.9709 10.575C66.4575 10.785 66.0609 10.9017 65.7809 10.925C65.5009 10.9483 65.1159 10.89 64.6259 10.75C64.2059 10.6567 63.7742 10.5283 63.3309 10.365C62.9109 10.1783 62.5375 9.99167 62.2109 9.805C61.8842 9.61833 61.6392 9.44333 61.4759 9.28C61.2425 9.07 61.0092 8.77833 60.7759 8.405C60.5425 8.03167 60.3559 7.65833 60.2159 7.285C60.0759 6.91167 60.0059 6.60833 60.0059 6.375C60.0059 5.44167 60.3209 4.52 60.9509 3.61C61.6042 2.7 62.4325 2.01166 63.4359 1.545ZM67.7759 3.47C67.3559 3.07333 66.8075 2.875 66.1309 2.875C65.4542 2.85167 64.8125 2.98 64.2059 3.26C63.5992 3.54 63.0625 3.94833 62.5959 4.485C62.1525 4.99833 61.9309 5.54667 61.9309 6.13C61.9309 6.66667 62.1759 7.215 62.6659 7.775C63.1792 8.335 63.7625 8.70833 64.4159 8.895C65.0925 9.105 65.6992 9.11667 66.2359 8.93C66.7725 8.72 67.3909 8.24167 68.0909 7.495C68.6509 6.98167 68.9542 6.62 69.0009 6.41C69.0709 6.2 69.0242 5.815 68.8609 5.255C68.6042 4.50833 68.2425 3.91333 67.7759 3.47ZM70.0509 12.185C70.9142 11.8117 71.5442 11.9167 71.9409 12.5C72.1275 12.78 72.2209 12.9783 72.2209 13.095C72.2209 13.2117 72.1159 13.3867 71.9059 13.62C71.6259 13.9467 70.9025 14.11 69.7359 14.11C68.5225 14.11 66.9942 14.3083 65.1509 14.705C63.2609 15.1017 62.0009 15.3 61.3709 15.3C60.9509 15.3233 60.6825 15.3 60.5659 15.23C60.4725 15.1367 60.4259 14.9383 60.4259 14.635C60.4259 14.3783 60.5192 14.145 60.7059 13.935C60.8925 13.725 61.1609 13.5617 61.5109 13.445C61.8842 13.3283 62.2925 13.27 62.7359 13.27C63.3659 13.27 64.1475 13.1417 65.0809 12.885C65.9442 12.6283 66.9009 12.4767 67.9509 12.43C69.0009 12.43 69.7009 12.3483 70.0509 12.185ZM66.7259 16.805C67.3792 16.5483 68.1492 16.5017 69.0359 16.665C69.9459 16.805 70.5292 17.085 70.7859 17.505C70.9259 17.715 70.9842 18.3333 70.9609 19.36C70.9609 20.3633 70.8909 21.0517 70.7509 21.425C70.4475 22.1717 69.1059 22.615 66.7259 22.755C65.3259 22.825 64.5792 22.86 64.4859 22.86C64.2525 22.8833 64.1359 23.1167 64.1359 23.56C64.1359 24.0033 64.3225 24.26 64.6959 24.33C65.0925 24.4233 65.7692 24.365 66.7259 24.155C69.4559 23.4783 71.0075 23.455 71.3809 24.085C71.4509 24.3183 71.4975 24.505 71.5209 24.645C71.5675 24.785 71.4042 24.925 71.0309 25.065C70.6575 25.205 70.1792 25.3333 69.5959 25.45C69.0125 25.59 68.1375 25.765 66.9709 25.975C65.2675 26.255 64.0309 26.2083 63.2609 25.835C62.5142 25.4617 62.1409 24.7033 62.1409 23.56C62.1409 22.7667 62.3625 22.23 62.8059 21.95C63.2725 21.6467 64.2525 21.425 65.7459 21.285C67.4725 21.075 68.4642 20.8767 68.7209 20.69C68.9775 20.48 69.1059 20.06 69.1059 19.43C69.1059 18.9867 69.0592 18.73 68.9659 18.66C68.8725 18.5667 68.5692 18.52 68.0559 18.52C67.4259 18.52 66.3292 18.6717 64.7659 18.975C63.0859 19.325 62.1759 19.325 62.0359 18.975C61.9892 18.8117 62.0359 18.555 62.1759 18.205C62.2692 17.9017 62.4442 17.6917 62.7009 17.575C62.9575 17.435 63.4242 17.295 64.1009 17.155C65.2442 16.9217 65.8742 16.84 65.9909 16.91C66.1309 17.0033 66.3759 16.9683 66.7259 16.805ZM89.3085 4.1C89.7518 3.65667 90.0552 3.38833 90.2185 3.295C90.3818 3.20167 90.5568 3.225 90.7435 3.365C91.0235 3.59833 91.1518 3.82 91.1285 4.03C91.1052 4.21667 90.9302 4.52 90.6035 4.94C90.2535 5.38333 90.1252 5.68667 90.2185 5.85C90.3118 6.01333 91.2802 6.70167 93.1235 7.915C93.8935 8.42833 94.4652 8.825 94.8385 9.105C95.2118 9.385 95.4685 9.61833 95.6085 9.805C95.7718 9.99167 95.8535 10.1783 95.8535 10.365C95.8535 11.065 95.3868 11.1933 94.4535 10.75C93.8702 10.47 93.0535 9.96833 92.0035 9.245C91.2335 8.755 90.5452 8.34667 89.9385 8.02C89.3552 7.69333 89.0168 7.55333 88.9235 7.6C88.6902 7.67 88.2468 8.27667 87.5935 9.42C86.9635 10.5633 86.6018 11.38 86.5085 11.87C86.4152 12.36 86.1235 12.6517 85.6335 12.745C85.1435 12.815 84.7935 12.6517 84.5835 12.255C84.4668 11.9983 84.4318 11.7533 84.4785 11.52C84.5485 11.2633 84.7235 10.8783 85.0035 10.365C85.5402 9.36167 86.2402 8.23 87.1035 6.97C87.9902 5.68667 88.7252 4.73 89.3085 4.1ZM90.1135 13.9C90.6035 13.3167 90.9302 13.4217 91.0935 14.215C91.2102 14.7517 91.2802 15.685 91.3035 17.015L91.3385 19.745L92.7035 19.78C94.4768 19.8033 95.5852 19.85 96.0285 19.92C96.4952 19.9667 96.7752 20.1067 96.8685 20.34C97.0085 20.6433 96.8452 20.9583 96.3785 21.285C96.1218 21.495 95.8535 21.6233 95.5735 21.67C95.2935 21.7167 94.8035 21.705 94.1035 21.635C93.0068 21.5417 91.3152 21.6817 89.0285 22.055C88.0952 22.2183 87.3718 22.335 86.8585 22.405C86.3685 22.475 85.9485 22.51 85.5985 22.51C85.2718 22.4867 85.0618 22.4283 84.9685 22.335C84.8752 22.2183 84.8285 22.055 84.8285 21.845C84.8285 21.4483 85.0035 21.1683 85.3535 21.005C85.7035 20.8183 86.3685 20.6667 87.3485 20.55L89.2035 20.375L89.3435 18.135C89.4835 15.7783 89.7402 14.3667 90.1135 13.9ZM120.362 7.145C120.642 7.02833 120.934 6.98167 121.237 7.005C121.541 7.005 121.739 7.075 121.832 7.215C121.926 7.355 121.867 8.74333 121.657 11.38C121.471 13.76 121.307 16.0817 121.167 18.345C121.074 19.9083 120.922 20.9117 120.712 21.355C120.526 21.775 120.164 21.8917 119.627 21.705C119.394 21.6117 119.254 21.1567 119.207 20.34C119.184 19.5 119.266 18.1117 119.452 16.175L119.627 14.04L118.367 14.18C117.504 14.2967 116.676 14.53 115.882 14.88L114.552 15.405V18.31C114.529 19.4533 114.482 20.235 114.412 20.655C114.342 21.0517 114.214 21.32 114.027 21.46C113.164 22.1133 112.744 21.775 112.767 20.445C112.814 17.9717 112.907 15.2883 113.047 12.395C113.211 9.47833 113.351 7.915 113.467 7.705C113.584 7.44833 113.794 7.29667 114.097 7.25C114.424 7.20333 114.739 7.285 115.042 7.495C115.182 7.58833 115.252 7.79833 115.252 8.125C115.276 8.45167 115.217 9.11667 115.077 10.12C114.844 11.7067 114.786 12.5467 114.902 12.64C114.949 12.71 115.206 12.7217 115.672 12.675C116.162 12.6283 116.676 12.5583 117.212 12.465C117.772 12.3717 118.297 12.2667 118.787 12.15C119.301 12.01 119.604 11.905 119.697 11.835C119.907 11.6483 120.012 10.8433 120.012 9.42C120.012 7.99667 120.129 7.23833 120.362 7.145ZM105.172 8.72C106.362 8.48667 107.109 8.37 107.412 8.37C107.716 8.37 107.972 8.48667 108.182 8.72C108.369 8.95333 108.439 9.385 108.392 10.015C108.369 10.6217 108.229 11.7533 107.972 13.41C107.949 13.5967 107.856 14.1917 107.692 15.195C107.529 16.1983 107.412 16.945 107.342 17.435C107.156 18.8583 106.969 19.64 106.782 19.78C106.689 19.85 106.514 19.885 106.257 19.885C105.744 19.885 105.441 19.6867 105.347 19.29C105.277 18.8933 105.359 18.0417 105.592 16.735C106.222 13.2817 106.537 11.31 106.537 10.82C106.537 10.6567 106.514 10.54 106.467 10.47C106.421 10.3767 106.351 10.3417 106.257 10.365C106.071 10.505 105.149 10.7033 103.492 10.96C101.859 11.2167 100.762 11.345 100.202 11.345C99.5489 11.345 99.1056 11.205 98.8723 10.925C98.4523 10.435 98.8489 10.0267 100.062 9.7C100.436 9.60667 100.902 9.51333 101.462 9.42C102.792 9.21 104.029 8.97667 105.172 8.72Z" fill="#F49393"/>
<path d="M127.779 4.94C127.733 4.17 127.733 3.715 127.779 3.575C127.849 3.435 128.059 3.365 128.409 3.365C129.389 3.365 129.751 4.40333 129.494 6.48L129.319 8.055L130.509 8.02C131.419 7.99667 132.108 7.92667 132.574 7.81C132.854 7.74 133.134 7.71667 133.414 7.74C133.694 7.74 133.939 7.78667 134.149 7.88C134.359 7.95 134.534 8.06667 134.674 8.23C134.838 8.39333 134.943 8.56833 134.989 8.755C135.059 9.22167 134.943 9.525 134.639 9.665C134.359 9.805 133.916 9.79333 133.309 9.63C132.679 9.46667 132.003 9.47833 131.279 9.665C130.556 9.875 129.646 10.0267 128.549 10.12C127.383 10.26 126.543 10.4467 126.029 10.68C125.539 10.9367 125.003 11.065 124.419 11.065C124.093 11.065 123.871 11.03 123.754 10.96C123.661 10.8667 123.614 10.68 123.614 10.4C123.614 9.95667 123.766 9.64167 124.069 9.455C124.373 9.245 125.026 9.04667 126.029 8.86C126.893 8.67333 127.394 8.52167 127.534 8.405C127.698 8.28833 127.791 7.985 127.814 7.495C127.814 6.375 127.803 5.52333 127.779 4.94ZM141.919 8.37C141.989 8.13667 142.281 8.055 142.794 8.125L143.529 8.195L143.459 10.225C143.389 11.5083 143.273 13.1183 143.109 15.055C142.899 16.8983 142.864 18.415 143.004 19.605C143.074 20.4683 143.086 21.005 143.039 21.215C143.016 21.4017 142.841 21.565 142.514 21.705C142.071 21.915 141.744 21.95 141.534 21.81C141.348 21.67 141.231 20.6667 141.184 18.8C141.138 17.2133 141.021 16.28 140.834 16C140.671 15.6967 140.216 15.72 139.469 16.07L138.629 16.525L138.769 18.8C138.863 19.7567 138.886 20.3983 138.839 20.725C138.816 21.0517 138.711 21.285 138.524 21.425C137.964 21.8683 137.486 21.8683 137.089 21.425C136.879 21.1217 136.821 19.1967 136.914 15.65C136.984 12.99 137.089 11.24 137.229 10.4C137.369 9.56 137.638 9.14 138.034 9.14C138.431 9.14 138.699 9.36167 138.839 9.805C138.979 10.225 139.038 10.9367 139.014 11.94L138.909 13.97L139.714 14.04C140.228 14.0867 140.601 14.04 140.834 13.9C141.091 13.76 141.278 13.48 141.394 13.06C141.511 12.64 141.604 11.975 141.674 11.065C141.768 9.455 141.849 8.55667 141.919 8.37ZM128.444 12.115C129.004 11.7883 129.518 11.6367 129.984 11.66C130.474 11.66 131.081 11.8583 131.804 12.255C133.531 13.1183 134.441 14.4017 134.534 16.105C134.581 16.735 134.558 17.2133 134.464 17.54C134.394 17.8433 134.149 18.2983 133.729 18.905C133.099 19.8617 132.516 20.515 131.979 20.865C131.443 21.1917 130.778 21.3433 129.984 21.32C128.141 21.25 126.799 20.5967 125.959 19.36C125.143 18.1 125.096 16.6533 125.819 15.02C126.123 14.2733 126.473 13.69 126.869 13.27C127.266 12.8267 127.791 12.4417 128.444 12.115ZM131.454 13.83C130.918 13.62 130.463 13.5383 130.089 13.585C129.739 13.6317 129.319 13.83 128.829 14.18C128.293 14.53 127.873 15.0433 127.569 15.72C127.266 16.3967 127.184 16.9917 127.324 17.505C127.418 17.9483 127.593 18.3333 127.849 18.66C128.106 18.9633 128.409 19.1967 128.759 19.36C129.109 19.5233 129.494 19.605 129.914 19.605C130.358 19.605 130.696 19.5467 130.929 19.43C131.163 19.3133 131.454 19.045 131.804 18.625C132.388 17.9483 132.726 17.33 132.819 16.77C132.936 16.2333 132.843 15.65 132.539 15.02C132.236 14.39 131.874 13.9933 131.454 13.83ZM150.184 4.66C152.448 4.40333 153.883 4.275 154.489 4.275C155.096 4.25167 155.481 4.345 155.644 4.555C155.808 4.765 155.808 5.03333 155.644 5.36C155.504 5.66333 155.084 6.29333 154.384 7.25L153.474 8.44L154.104 8.93C154.524 9.25667 154.804 9.42 154.944 9.42C155.061 9.42 155.493 9.65333 156.239 10.12C156.963 10.6333 157.324 11.0883 157.324 11.485C157.324 12.4183 156.426 12.3367 154.629 11.24C154.233 10.9833 153.953 10.8083 153.789 10.715C153.626 10.6217 153.416 10.5167 153.159 10.4C152.903 10.2833 152.728 10.2133 152.634 10.19C152.564 10.1433 152.424 10.1317 152.214 10.155C152.004 10.1783 151.864 10.2133 151.794 10.26C151.748 10.3067 151.619 10.4117 151.409 10.575C151.223 10.715 151.071 10.855 150.954 10.995C150.838 11.1117 150.651 11.3217 150.394 11.625C149.788 12.2783 149.333 12.7217 149.029 12.955C148.726 13.1883 148.458 13.2817 148.224 13.235C147.478 13.1183 147.326 12.6983 147.769 11.975C148.119 11.4383 148.878 10.5867 150.044 9.42C152.144 7.32 152.984 6.22333 152.564 6.13C152.518 6.10667 152.471 6.095 152.424 6.095C152.261 6.095 151.141 6.29333 149.064 6.69C147.734 6.92333 146.848 7.05167 146.404 7.075C145.984 7.09833 145.693 7.02833 145.529 6.865C145.273 6.60833 145.203 6.32833 145.319 6.025C145.459 5.69833 145.728 5.465 146.124 5.325C146.451 5.185 147.804 4.96333 150.184 4.66ZM155.994 15.58C156.508 15.3 156.974 15.2067 157.394 15.3C157.838 15.3933 158.141 15.6617 158.304 16.105C158.444 16.455 158.468 16.735 158.374 16.945C158.281 17.1317 158.071 17.2717 157.744 17.365C157.441 17.435 156.998 17.4467 156.414 17.4C155.411 17.3767 154.839 17.4817 154.699 17.715C154.536 17.9717 154.454 19.15 154.454 21.25C154.454 22.8133 154.419 23.735 154.349 24.015C154.303 24.295 154.116 24.4583 153.789 24.505C153.346 24.575 153.054 24.4817 152.914 24.225C152.728 23.9217 152.669 22.825 152.739 20.935C152.763 18.975 152.739 17.9367 152.669 17.82C152.599 17.75 151.818 17.8083 150.324 17.995C148.434 18.2283 147.268 18.3333 146.824 18.31C146.381 18.2867 146.136 18.1 146.089 17.75C146.066 17.61 146.113 17.435 146.229 17.225C146.346 17.015 146.474 16.84 146.614 16.7C146.918 16.4433 147.454 16.2683 148.224 16.175C149.018 16.0817 150.651 16.0233 153.124 16C154.618 15.9533 155.574 15.8133 155.994 15.58ZM164.947 7.985C165.204 7.65833 165.461 7.495 165.717 7.495C166.487 7.495 166.487 8.24167 165.717 9.735C165.671 9.82833 165.624 9.91 165.577 9.98C164.994 11.03 164.702 11.7417 164.702 12.115C164.702 12.395 165.297 13.2817 166.487 14.775C168.494 17.155 168.867 18.2983 167.607 18.205C167.584 18.205 167.561 18.1933 167.537 18.17C167.047 18.1233 166.312 17.4467 165.332 16.14C164.329 14.8567 163.746 14.1917 163.582 14.145C163.442 14.0983 163.209 14.4133 162.882 15.09C162.579 15.7667 162.369 16.4433 162.252 17.12C162.159 17.54 162.054 17.8083 161.937 17.925C161.844 18.0417 161.634 18.1 161.307 18.1C160.561 18.1 160.176 17.8783 160.152 17.435C160.129 16.9683 160.456 16.07 161.132 14.74C162.999 11.03 164.271 8.77833 164.947 7.985ZM173.242 7.915C173.452 7.65833 173.639 7.53 173.802 7.53C173.966 7.53 174.199 7.67 174.502 7.95C174.782 8.23 174.864 8.53333 174.747 8.86C174.584 9.18667 174.456 11.1467 174.362 14.74C174.316 17.3067 174.257 18.87 174.187 19.43C174.141 19.9667 173.989 20.305 173.732 20.445C173.219 20.725 172.881 20.6083 172.717 20.095C172.601 19.6283 172.531 18.52 172.507 16.77C172.461 14.53 172.332 13.3867 172.122 13.34C171.912 13.27 171.364 13.375 170.477 13.655C168.587 14.285 167.549 14.2383 167.362 13.515C167.269 13.1417 167.269 12.8383 167.362 12.605C167.432 12.395 167.899 12.185 168.762 11.975C169.626 11.7417 170.524 11.59 171.457 11.52L172.542 11.485L172.717 9.91C172.857 8.81333 173.032 8.14833 173.242 7.915ZM177.897 7.985C177.897 7.86833 178.014 7.79833 178.247 7.775C178.481 7.75167 178.726 7.78667 178.982 7.88C179.239 7.95 179.426 8.055 179.542 8.195C179.776 8.475 179.834 8.90667 179.717 9.49C179.624 10.05 179.566 12.045 179.542 15.475C179.519 16.8517 179.484 17.9133 179.437 18.66C179.414 19.3833 179.356 19.9783 179.262 20.445C179.169 20.9117 179.052 21.215 178.912 21.355C178.772 21.4717 178.562 21.53 178.282 21.53C177.979 21.53 177.792 21.0867 177.722 20.2C177.652 19.3133 177.664 17.3183 177.757 14.215C177.757 13.7717 177.757 13.3167 177.757 12.85C177.781 12.3833 177.792 11.9517 177.792 11.555C177.816 11.1583 177.827 10.7733 177.827 10.4C177.851 10.0267 177.862 9.7 177.862 9.42C177.886 9.14 177.897 8.895 177.897 8.685C177.897 8.475 177.897 8.31167 177.897 8.195C177.897 8.055 177.897 7.985 177.897 7.985ZM184.944 3.575C185.784 3.27167 186.589 3.17833 187.359 3.295C188.152 3.38833 188.887 3.70333 189.564 4.24C190.264 4.77667 190.835 5.5 191.279 6.41C191.722 7.27333 191.932 8.07833 191.909 8.825C191.909 9.57167 191.675 10.4 191.209 11.31C190.835 12.0567 190.392 12.6167 189.879 12.99C189.365 13.34 188.712 13.5733 187.919 13.69C186.589 13.8767 185.329 13.62 184.139 12.92C182.949 12.22 182.19 11.3217 181.864 10.225C181.397 8.73167 181.444 7.40167 182.004 6.235C182.564 5.06833 183.544 4.18167 184.944 3.575ZM187.779 5.01C187.545 5.01 187.289 4.96333 187.009 4.87C186.589 4.73 185.924 4.98667 185.014 5.64C184.104 6.29333 183.555 6.92333 183.369 7.53C183.299 7.76333 183.287 8.04333 183.334 8.37C183.38 8.67333 183.462 8.98833 183.579 9.315C183.695 9.61833 183.847 9.92167 184.034 10.225C184.244 10.5283 184.465 10.785 184.699 10.995C185.585 11.7883 186.484 12.15 187.394 12.08C188.304 12.01 189.027 11.5317 189.564 10.645C190.427 9.245 190.287 7.78667 189.144 6.27C188.467 5.43 188.012 5.01 187.779 5.01ZM189.249 15.895C189.435 15.4517 189.669 15.23 189.949 15.23C190.252 15.2067 190.509 15.4283 190.719 15.895C190.905 16.3383 190.882 17.1083 190.649 18.205C190.415 19.255 190.369 19.8967 190.509 20.13C190.625 20.34 191.325 20.445 192.609 20.445C193.495 20.445 194.044 20.48 194.254 20.55C194.487 20.5967 194.662 20.76 194.779 21.04C194.942 21.53 194.884 21.8683 194.604 22.055C194.347 22.2417 193.764 22.3233 192.854 22.3C192.13 22.2767 191.232 22.3233 190.159 22.44C189.109 22.5333 188.362 22.6383 187.919 22.755C187.709 22.825 187.172 22.93 186.309 23.07C185.469 23.2333 184.64 23.385 183.824 23.525C183.007 23.665 182.517 23.735 182.354 23.735C182.074 23.735 181.864 23.5483 181.724 23.175C181.584 22.8017 181.619 22.4867 181.829 22.23C182.015 21.9967 182.47 21.8217 183.194 21.705L184.209 21.565V19.325C184.232 18.0883 184.325 17.3067 184.489 16.98C184.652 16.63 185.002 16.525 185.539 16.665C185.865 16.7583 186.052 16.91 186.099 17.12C186.169 17.3067 186.192 17.89 186.169 18.87L186.099 20.83L187.464 20.935C188.327 20.9817 188.759 20.935 188.759 20.795C188.759 20.165 188.782 19.5 188.829 18.8C188.899 18.1 188.969 17.4933 189.039 16.98C189.132 16.4667 189.202 16.105 189.249 15.895Z" fill="#1A1A1A"/>
</svg>
