<svg width="84" height="16" viewBox="0 0 84 16" fill="none" xmlns="http://www.w3.org/2000/svg">
<path d="M13.0587 3.032C13.1707 2.856 13.3467 2.792 13.5867 2.84C13.8427 2.872 14.0107 3 14.0907 3.224C14.1867 3.512 14.1867 4.472 14.0907 6.104C13.9947 7.896 13.9467 9.512 13.9467 10.952C13.9307 12.52 13.8507 13.376 13.7067 13.52C13.5467 13.664 13.3627 13.736 13.1547 13.736C12.9467 13.72 12.8187 13.64 12.7707 13.496C12.7067 13.304 12.7227 11.544 12.8187 8.216C12.9147 4.888 12.9947 3.16 13.0587 3.032ZM5.35472 4.04C5.78672 3.96 6.11472 3.904 6.33872 3.872C6.57872 3.84 6.81072 3.816 7.03472 3.8C7.25872 3.784 7.41872 3.784 7.51472 3.8C7.62672 3.8 7.72272 3.824 7.80272 3.872C7.89872 3.904 7.96272 3.952 7.99472 4.016C8.02672 4.064 8.06672 4.144 8.11472 4.256C8.35472 4.88 8.10672 6.704 7.37072 9.728C7.16272 10.608 7.00272 11.192 6.89072 11.48C6.77872 11.752 6.64272 11.904 6.48272 11.936C6.11472 12.032 5.89072 11.96 5.81072 11.72C5.73072 11.48 5.78672 11.04 5.97872 10.4C6.17072 9.792 6.38672 8.784 6.62672 7.376C6.88272 5.968 6.97872 5.232 6.91472 5.168C6.85072 5.104 6.50672 5.128 5.88272 5.24C4.07472 5.624 2.93072 5.848 2.45072 5.912C1.98672 5.96 1.62672 5.936 1.37072 5.84C0.666719 5.52 0.938719 5.152 2.18672 4.736C2.95472 4.48 4.01072 4.248 5.35472 4.04ZM24.0419 3.704C24.1699 3.352 24.3779 3.176 24.6659 3.176C24.7779 3.176 24.8659 3.192 24.9299 3.224C25.0099 3.256 25.0739 3.32 25.1219 3.416C25.1699 3.496 25.2019 3.6 25.2179 3.728C25.2339 3.856 25.2339 4.048 25.2179 4.304C25.2179 4.56 25.2019 4.848 25.1699 5.168C25.1379 5.472 25.0979 5.864 25.0499 6.344L24.9539 6.992L25.9619 6.848C26.8579 6.736 27.3859 6.6 27.5459 6.44C27.7059 6.28 27.7859 5.832 27.7859 5.096C27.7859 3.896 27.9699 3.288 28.3379 3.272C28.4499 3.272 28.5699 3.304 28.6979 3.368C28.8899 3.464 29.0019 3.576 29.0339 3.704C29.0659 3.816 29.0579 4.04 29.0099 4.376C28.9299 5.032 28.8579 6.568 28.7939 8.984C28.7459 10.872 28.6899 11.992 28.6259 12.344C28.5779 12.696 28.4499 12.92 28.2419 13.016C27.9379 13.16 27.7379 13.184 27.6419 13.088C27.5459 12.976 27.5139 12.128 27.5459 10.544C27.5779 9.136 27.5219 8.336 27.3779 8.144C27.2499 7.936 26.7779 7.952 25.9619 8.192L24.9059 8.48L24.9779 10.376C25.0099 11.208 25.0099 11.752 24.9779 12.008C24.9459 12.248 24.8579 12.408 24.7139 12.488C24.4899 12.632 24.2739 12.632 24.0659 12.488C23.9059 12.408 23.8099 12.144 23.7779 11.696C23.7459 11.232 23.7459 10.088 23.7779 8.264C23.8259 5.56 23.9139 4.04 24.0419 3.704ZM19.7699 3.56C20.0099 3.448 20.3539 3.408 20.8019 3.44C21.0899 3.456 21.2739 3.496 21.3539 3.56C21.4339 3.624 21.4739 3.784 21.4739 4.04V4.592L19.4579 4.808C18.0659 4.984 17.2259 5.128 16.9379 5.24C16.6979 5.336 16.5539 5.432 16.5059 5.528C16.4739 5.608 16.4819 5.768 16.5299 6.008C16.6099 6.488 16.6499 7.08 16.6499 7.784C16.6499 8.568 16.7379 9.072 16.9139 9.296C17.1059 9.504 17.5539 9.616 18.2579 9.632C19.0419 9.632 19.7379 9.584 20.3459 9.488C20.7779 9.424 21.0579 9.408 21.1859 9.44C21.3299 9.472 21.4499 9.568 21.5459 9.728C21.7379 10.096 21.7299 10.352 21.5219 10.496C21.3299 10.64 20.8579 10.744 20.1059 10.808C17.3859 11.016 15.9619 10.976 15.8339 10.688C15.7699 10.512 15.6579 9.504 15.4979 7.664C15.4019 6.448 15.3539 5.664 15.3539 5.312C15.3539 4.96 15.4179 4.728 15.5459 4.616C15.6579 4.504 15.8979 4.384 16.2659 4.256C16.6339 4.112 17.0419 3.992 17.4899 3.896C17.9379 3.8 18.3139 3.744 18.6179 3.728C19.1299 3.728 19.5139 3.672 19.7699 3.56ZM33.1162 1.616C33.0842 1.088 33.0842 0.776 33.1162 0.68C33.1642 0.583999 33.3082 0.535999 33.5482 0.535999C34.2202 0.535999 34.4682 1.248 34.2922 2.672L34.1722 3.752L34.9882 3.728C35.6122 3.712 36.0842 3.664 36.4042 3.584C36.5962 3.536 36.7882 3.52 36.9802 3.536C37.1722 3.536 37.3402 3.568 37.4842 3.632C37.6282 3.68 37.7482 3.76 37.8442 3.872C37.9562 3.984 38.0282 4.104 38.0602 4.232C38.1082 4.552 38.0282 4.76 37.8202 4.856C37.6282 4.952 37.3242 4.944 36.9082 4.832C36.4762 4.72 36.0122 4.728 35.5162 4.856C35.0202 5 34.3962 5.104 33.6442 5.168C32.8442 5.264 32.2682 5.392 31.9162 5.552C31.5802 5.728 31.2122 5.816 30.8122 5.816C30.5882 5.816 30.4362 5.792 30.3562 5.744C30.2922 5.68 30.2602 5.552 30.2602 5.36C30.2602 5.056 30.3642 4.84 30.5722 4.712C30.7802 4.568 31.2282 4.432 31.9162 4.304C32.5082 4.176 32.8522 4.072 32.9482 3.992C33.0602 3.912 33.1242 3.704 33.1402 3.368C33.1402 2.6 33.1322 2.016 33.1162 1.616ZM42.8122 3.968C42.8602 3.808 43.0602 3.752 43.4122 3.8L43.9162 3.848L43.8682 5.24C43.8202 6.12 43.7402 7.224 43.6282 8.552C43.4842 9.816 43.4602 10.856 43.5562 11.672C43.6042 12.264 43.6122 12.632 43.5802 12.776C43.5642 12.904 43.4442 13.016 43.2202 13.112C42.9162 13.256 42.6922 13.28 42.5482 13.184C42.4202 13.088 42.3402 12.4 42.3082 11.12C42.2762 10.032 42.1962 9.392 42.0682 9.2C41.9562 8.992 41.6442 9.008 41.1322 9.248L40.5562 9.56L40.6522 11.12C40.7162 11.776 40.7322 12.216 40.7002 12.44C40.6842 12.664 40.6122 12.824 40.4842 12.92C40.1002 13.224 39.7722 13.224 39.5002 12.92C39.3562 12.712 39.3162 11.392 39.3802 8.96C39.4282 7.136 39.5002 5.936 39.5962 5.36C39.6922 4.784 39.8762 4.496 40.1482 4.496C40.4202 4.496 40.6042 4.648 40.7002 4.952C40.7962 5.24 40.8362 5.728 40.8202 6.416L40.7482 7.808L41.3002 7.856C41.6522 7.888 41.9082 7.856 42.0682 7.76C42.2442 7.664 42.3722 7.472 42.4522 7.184C42.5322 6.896 42.5962 6.44 42.6442 5.816C42.7082 4.712 42.7642 4.096 42.8122 3.968ZM33.5722 6.536C33.9562 6.312 34.3082 6.208 34.6282 6.224C34.9642 6.224 35.3802 6.36 35.8762 6.632C37.0602 7.224 37.6842 8.104 37.7482 9.272C37.7802 9.704 37.7642 10.032 37.7002 10.256C37.6522 10.464 37.4842 10.776 37.1962 11.192C36.7642 11.848 36.3642 12.296 35.9962 12.536C35.6282 12.76 35.1722 12.864 34.6282 12.848C33.3642 12.8 32.4442 12.352 31.8682 11.504C31.3082 10.64 31.2762 9.648 31.7722 8.528C31.9802 8.016 32.2202 7.616 32.4922 7.328C32.7642 7.024 33.1242 6.76 33.5722 6.536ZM35.6362 7.712C35.2682 7.568 34.9562 7.512 34.7002 7.544C34.4602 7.576 34.1722 7.712 33.8362 7.952C33.4682 8.192 33.1802 8.544 32.9722 9.008C32.7642 9.472 32.7082 9.88 32.8042 10.232C32.8682 10.536 32.9882 10.8 33.1642 11.024C33.3402 11.232 33.5482 11.392 33.7882 11.504C34.0282 11.616 34.2922 11.672 34.5802 11.672C34.8842 11.672 35.1162 11.632 35.2762 11.552C35.4362 11.472 35.6362 11.288 35.8762 11C36.2762 10.536 36.5082 10.112 36.5722 9.728C36.6522 9.36 36.5882 8.96 36.3802 8.528C36.1722 8.096 35.9242 7.824 35.6362 7.712ZM48.4795 1.424C50.0315 1.248 51.0155 1.16 51.4315 1.16C51.8475 1.144 52.1115 1.208 52.2235 1.352C52.3355 1.496 52.3355 1.68 52.2235 1.904C52.1275 2.112 51.8395 2.544 51.3595 3.2L50.7355 4.016L51.1675 4.352C51.4555 4.576 51.6475 4.688 51.7435 4.688C51.8235 4.688 52.1195 4.848 52.6315 5.168C53.1275 5.52 53.3755 5.832 53.3755 6.104C53.3755 6.744 52.7595 6.688 51.5275 5.936C51.2555 5.76 51.0635 5.64 50.9515 5.576C50.8395 5.512 50.6955 5.44 50.5195 5.36C50.3435 5.28 50.2235 5.232 50.1595 5.216C50.1115 5.184 50.0155 5.176 49.8715 5.192C49.7275 5.208 49.6315 5.232 49.5835 5.264C49.5515 5.296 49.4635 5.368 49.3195 5.48C49.1915 5.576 49.0875 5.672 49.0075 5.768C48.9275 5.848 48.7995 5.992 48.6235 6.2C48.2075 6.648 47.8955 6.952 47.6875 7.112C47.4795 7.272 47.2955 7.336 47.1355 7.304C46.6235 7.224 46.5195 6.936 46.8235 6.44C47.0635 6.072 47.5835 5.488 48.3835 4.688C49.8235 3.248 50.3995 2.496 50.1115 2.432C50.0795 2.416 50.0475 2.408 50.0155 2.408C49.9035 2.408 49.1355 2.544 47.7115 2.816C46.7995 2.976 46.1915 3.064 45.8875 3.08C45.5995 3.096 45.3995 3.048 45.2875 2.936C45.1115 2.76 45.0635 2.568 45.1435 2.36C45.2395 2.136 45.4235 1.976 45.6955 1.88C45.9195 1.784 46.8475 1.632 48.4795 1.424ZM52.4635 8.912C52.8155 8.72 53.1355 8.656 53.4235 8.72C53.7275 8.784 53.9355 8.968 54.0475 9.272C54.1435 9.512 54.1595 9.704 54.0955 9.848C54.0315 9.976 53.8875 10.072 53.6635 10.136C53.4555 10.184 53.1515 10.192 52.7515 10.16C52.0635 10.144 51.6715 10.216 51.5755 10.376C51.4635 10.552 51.4075 11.36 51.4075 12.8C51.4075 13.872 51.3835 14.504 51.3355 14.696C51.3035 14.888 51.1755 15 50.9515 15.032C50.6475 15.08 50.4475 15.016 50.3515 14.84C50.2235 14.632 50.1835 13.88 50.2315 12.584C50.2475 11.24 50.2315 10.528 50.1835 10.448C50.1355 10.4 49.5995 10.44 48.5755 10.568C47.2795 10.728 46.4795 10.8 46.1755 10.784C45.8715 10.768 45.7035 10.64 45.6715 10.4C45.6555 10.304 45.6875 10.184 45.7675 10.04C45.8475 9.896 45.9355 9.776 46.0315 9.68C46.2395 9.504 46.6075 9.384 47.1355 9.32C47.6795 9.256 48.7995 9.216 50.4955 9.2C51.5195 9.168 52.1755 9.072 52.4635 8.912ZM58.6028 3.704C58.7788 3.48 58.9548 3.368 59.1308 3.368C59.6588 3.368 59.6588 3.88 59.1308 4.904C59.0988 4.968 59.0668 5.024 59.0348 5.072C58.6348 5.792 58.4348 6.28 58.4348 6.536C58.4348 6.728 58.8428 7.336 59.6588 8.36C61.0348 9.992 61.2908 10.776 60.4268 10.712C60.4108 10.712 60.3948 10.704 60.3788 10.688C60.0428 10.656 59.5388 10.192 58.8668 9.296C58.1788 8.416 57.7788 7.96 57.6668 7.928C57.5708 7.896 57.4108 8.112 57.1868 8.576C56.9788 9.04 56.8348 9.504 56.7548 9.968C56.6908 10.256 56.6188 10.44 56.5388 10.52C56.4748 10.6 56.3308 10.64 56.1068 10.64C55.5948 10.64 55.3308 10.488 55.3148 10.184C55.2988 9.864 55.5228 9.248 55.9868 8.336C57.2668 5.792 58.1388 4.248 58.6028 3.704ZM64.2908 3.656C64.4348 3.48 64.5628 3.392 64.6748 3.392C64.7868 3.392 64.9468 3.488 65.1548 3.68C65.3468 3.872 65.4028 4.08 65.3228 4.304C65.2108 4.528 65.1228 5.872 65.0588 8.336C65.0268 10.096 64.9868 11.168 64.9388 11.552C64.9068 11.92 64.8028 12.152 64.6268 12.248C64.2748 12.44 64.0428 12.36 63.9308 12.008C63.8508 11.688 63.8028 10.928 63.7868 9.728C63.7548 8.192 63.6668 7.408 63.5228 7.376C63.3788 7.328 63.0028 7.4 62.3948 7.592C61.0988 8.024 60.3868 7.992 60.2588 7.496C60.1948 7.24 60.1948 7.032 60.2588 6.872C60.3068 6.728 60.6268 6.584 61.2188 6.44C61.8108 6.28 62.4268 6.176 63.0668 6.128L63.8108 6.104L63.9308 5.024C64.0268 4.272 64.1468 3.816 64.2908 3.656ZM67.4828 3.704C67.4828 3.624 67.5628 3.576 67.7228 3.56C67.8828 3.544 68.0508 3.568 68.2268 3.632C68.4028 3.68 68.5308 3.752 68.6108 3.848C68.7708 4.04 68.8108 4.336 68.7308 4.736C68.6668 5.12 68.6268 6.488 68.6108 8.84C68.5948 9.784 68.5708 10.512 68.5388 11.024C68.5228 11.52 68.4828 11.928 68.4188 12.248C68.3548 12.568 68.2748 12.776 68.1788 12.872C68.0828 12.952 67.9388 12.992 67.7468 12.992C67.5388 12.992 67.4108 12.688 67.3628 12.08C67.3148 11.472 67.3228 10.104 67.3868 7.976C67.3868 7.672 67.3868 7.36 67.3868 7.04C67.4028 6.72 67.4108 6.424 67.4108 6.152C67.4268 5.88 67.4348 5.616 67.4348 5.36C67.4508 5.104 67.4588 4.88 67.4588 4.688C67.4748 4.496 67.4828 4.328 67.4828 4.184C67.4828 4.04 67.4828 3.928 67.4828 3.848C67.4828 3.752 67.4828 3.704 67.4828 3.704ZM72.3147 0.68C72.8907 0.472 73.4427 0.408 73.9707 0.487999C74.5147 0.552 75.0187 0.768 75.4827 1.136C75.9627 1.504 76.3547 2 76.6587 2.624C76.9627 3.216 77.1067 3.768 77.0907 4.28C77.0907 4.792 76.9307 5.36 76.6107 5.984C76.3547 6.496 76.0507 6.88 75.6987 7.136C75.3467 7.376 74.8987 7.536 74.3547 7.616C73.4427 7.744 72.5787 7.568 71.7627 7.088C70.9467 6.608 70.4267 5.992 70.2027 5.24C69.8827 4.216 69.9147 3.304 70.2987 2.504C70.6827 1.704 71.3547 1.096 72.3147 0.68ZM74.2587 1.664C74.0987 1.664 73.9227 1.632 73.7307 1.568C73.4427 1.472 72.9867 1.648 72.3627 2.096C71.7387 2.544 71.3627 2.976 71.2347 3.392C71.1867 3.552 71.1787 3.744 71.2107 3.968C71.2427 4.176 71.2987 4.392 71.3787 4.616C71.4587 4.824 71.5627 5.032 71.6907 5.24C71.8347 5.448 71.9867 5.624 72.1467 5.768C72.7547 6.312 73.3707 6.56 73.9947 6.512C74.6187 6.464 75.1147 6.136 75.4827 5.528C76.0747 4.568 75.9787 3.568 75.1947 2.528C74.7307 1.952 74.4187 1.664 74.2587 1.664ZM75.2667 9.128C75.3947 8.824 75.5547 8.672 75.7467 8.672C75.9547 8.656 76.1307 8.808 76.2747 9.128C76.4027 9.432 76.3867 9.96 76.2267 10.712C76.0667 11.432 76.0347 11.872 76.1307 12.032C76.2107 12.176 76.6907 12.248 77.5707 12.248C78.1787 12.248 78.5547 12.272 78.6987 12.32C78.8587 12.352 78.9787 12.464 79.0587 12.656C79.1707 12.992 79.1307 13.224 78.9387 13.352C78.7627 13.48 78.3627 13.536 77.7387 13.52C77.2427 13.504 76.6267 13.536 75.8907 13.616C75.1707 13.68 74.6587 13.752 74.3547 13.832C74.2107 13.88 73.8427 13.952 73.2507 14.048C72.6747 14.16 72.1067 14.264 71.5467 14.36C70.9867 14.456 70.6507 14.504 70.5387 14.504C70.3467 14.504 70.2027 14.376 70.1067 14.12C70.0107 13.864 70.0347 13.648 70.1787 13.472C70.3067 13.312 70.6187 13.192 71.1147 13.112L71.8107 13.016V11.48C71.8267 10.632 71.8907 10.096 72.0027 9.872C72.1147 9.632 72.3547 9.56 72.7227 9.656C72.9467 9.72 73.0747 9.824 73.1067 9.968C73.1547 10.096 73.1707 10.496 73.1547 11.168L73.1067 12.512L74.0427 12.584C74.6347 12.616 74.9307 12.584 74.9307 12.488C74.9307 12.056 74.9467 11.6 74.9787 11.12C75.0267 10.64 75.0747 10.224 75.1227 9.872C75.1867 9.52 75.2347 9.272 75.2667 9.128ZM82.0992 1.952C82.1792 1.872 82.2992 1.84 82.4592 1.856C82.6192 1.872 82.7552 1.936 82.8672 2.048C82.9472 2.128 82.9952 2.232 83.0112 2.36C83.0272 2.472 83.0272 2.744 83.0112 3.176C82.9792 3.784 82.9072 4.456 82.7952 5.192C82.6832 5.928 82.5792 6.384 82.4832 6.56C82.4032 6.72 82.3712 6.976 82.3872 7.328C82.4192 7.664 82.4912 7.992 82.6032 8.312C82.7152 8.648 82.7552 8.912 82.7232 9.104C82.6912 9.296 82.5792 9.488 82.3872 9.68C82.2112 9.856 82.0352 9.952 81.8592 9.968C81.6992 9.968 81.5712 9.896 81.4752 9.752C81.3792 9.608 81.3232 9 81.3072 7.928C81.2912 6.84 81.3312 6.184 81.4272 5.96C81.4912 5.8 81.5552 5.504 81.6192 5.072C81.7152 4.464 81.7792 4.056 81.8112 3.848C81.8752 3.368 81.9232 2.976 81.9552 2.672C81.9872 2.288 82.0352 2.048 82.0992 1.952ZM80.8272 13.184C81.0192 13.072 81.2512 13.088 81.5232 13.232C81.8272 13.392 81.9792 13.672 81.9792 14.072C81.9792 14.456 81.8272 14.72 81.5232 14.864C81.2352 15.024 80.9312 15 80.6112 14.792C80.4032 14.68 80.2992 14.512 80.2992 14.288C80.2992 14.128 80.3552 13.92 80.4672 13.664C80.5952 13.408 80.7152 13.248 80.8272 13.184Z" fill="#ADADAD"/>
</svg>
