<svg width="238" height="68" viewBox="0 0 238 68" fill="none" xmlns="http://www.w3.org/2000/svg">
<path d="M32.5393 7.705C32.7493 7.16833 33.251 7.09833 34.0443 7.495C34.231 7.61167 34.336 7.75167 34.3593 7.915C34.406 8.07833 34.3827 8.37 34.2893 8.79C34.1493 9.53667 34.0327 10.3533 33.9393 11.24L33.7993 12.71L35.0593 12.535C36.7627 12.325 37.6143 12.045 37.6143 11.695C37.7077 9.875 37.836 8.685 37.9993 8.125C38.186 7.54167 38.5127 7.30833 38.9793 7.425C39.3527 7.51833 39.5743 7.75167 39.6443 8.125C39.7377 8.475 39.7143 9.05833 39.5743 9.875C39.3877 10.8317 39.2243 12.955 39.0843 16.245C39.0143 18.5083 38.9327 19.9317 38.8393 20.515C38.7693 21.075 38.6177 21.425 38.3843 21.565C38.0343 21.7517 37.7193 21.7867 37.4393 21.67C37.2527 21.6 37.136 21.3433 37.0893 20.9C37.066 20.4333 37.066 19.4183 37.0893 17.855L37.1943 14.25L36.3193 14.285C35.7593 14.285 35.1643 14.4133 34.5343 14.67L33.6943 15.02L33.7993 17.82C33.8693 18.7767 33.881 19.5117 33.8343 20.025C33.7877 20.515 33.6943 20.8417 33.5543 21.005C33.4377 21.1683 33.2277 21.25 32.9243 21.25C32.3877 21.25 32.0727 20.9 31.9793 20.2C31.9093 19.5 31.9327 17.54 32.0493 14.32C32.2593 10.1667 32.4227 7.96167 32.5393 7.705ZM26.0643 7.95C27.2777 7.76333 27.9893 7.915 28.1993 8.405C28.4093 8.87167 28.456 10.435 28.3393 13.095C28.246 15.2417 28.1643 16.5133 28.0943 16.91C28.0243 17.3067 27.8143 17.5867 27.4643 17.75C26.9977 18.03 25.6793 18.1817 23.5093 18.205L20.3243 18.275L20.0443 17.19C19.9277 16.7467 19.8343 15.79 19.7643 14.32C19.6943 12.85 19.6827 11.6133 19.7293 10.61C19.776 9.46667 21.8877 8.58 26.0643 7.95ZM26.7993 9.98H25.8193C25.2127 9.98 24.326 10.1433 23.1593 10.47L21.5143 10.925L21.4443 13.025C21.3743 14.285 21.3977 15.1717 21.5143 15.685C21.6077 16.0117 21.7593 16.1983 21.9693 16.245C22.1793 16.2917 22.8443 16.28 23.9643 16.21L26.2043 16.105L26.3793 15.16C26.496 14.53 26.5893 13.515 26.6593 12.115L26.7993 9.98ZM46.0518 2.21C46.0985 2.07 46.3085 2 46.6818 2C46.9851 2 47.1835 2.22167 47.2768 2.665C47.3935 3.085 47.3701 3.68 47.2068 4.45C47.1135 4.94 47.0435 5.26667 46.9968 5.43C46.9735 5.59333 46.9618 5.80333 46.9618 6.06C46.9618 6.29333 46.9735 6.43333 46.9968 6.48C47.0201 6.50333 47.1251 6.53833 47.3118 6.585C47.4985 6.63167 47.6618 6.64333 47.8018 6.62C47.9418 6.59667 48.1985 6.56167 48.5718 6.515C49.9485 6.35167 50.7185 6.50333 50.8818 6.97C51.0685 7.41333 50.6601 8.265 49.6568 9.525C48.9335 10.4117 48.5718 10.925 48.5718 11.065C48.5718 11.205 48.8051 11.4733 49.2718 11.87C49.7385 12.2667 50.2751 12.64 50.8818 12.99C51.6051 13.4333 51.9668 13.9117 51.9668 14.425C51.9435 14.7517 51.7218 14.915 51.3018 14.915C50.9051 14.915 50.3801 14.74 49.7268 14.39C49.0968 14.0167 48.5018 13.5617 47.9418 13.025L47.1718 12.325L46.4718 13.13C45.5851 14.18 44.9435 14.88 44.5468 15.23C44.1735 15.58 43.8585 15.755 43.6018 15.755C43.2285 15.755 42.9951 15.615 42.9018 15.335C42.8085 15.0317 42.8901 14.6817 43.1468 14.285C43.4268 13.8883 44.3601 12.8617 45.9468 11.205C47.5335 9.525 48.3268 8.615 48.3268 8.475C48.3268 8.45167 48.2918 8.42833 48.2218 8.405C48.1751 8.38167 48.1051 8.37 48.0118 8.37C47.9185 8.37 47.8135 8.39333 47.6968 8.44C47.1601 8.55667 46.0868 8.755 44.4768 9.035C42.6335 9.33833 41.6418 9.33833 41.5018 9.035C41.4318 8.87167 41.4785 8.615 41.6418 8.265C41.7351 8.00833 41.9101 7.82167 42.1668 7.705C42.4468 7.58833 42.9485 7.47167 43.6718 7.355C44.8618 7.16833 45.4218 6.95833 45.3518 6.725C45.3051 6.53833 45.3868 5.78 45.5968 4.45C45.8068 3.12 45.9585 2.37333 46.0518 2.21ZM54.3468 6.935C54.5101 6.63167 54.6501 6.46833 54.7668 6.445C54.8835 6.42167 55.1168 6.50333 55.4668 6.69C55.7235 6.83 55.8751 7.13333 55.9218 7.6C55.9685 8.04333 55.9918 9.175 55.9918 10.995C55.9451 13.795 55.8868 15.3 55.8168 15.51C55.7235 15.8367 55.4668 16.0117 55.0468 16.035C54.6268 16.035 54.3585 15.8833 54.2418 15.58C54.1018 15.2067 54.0435 13.7483 54.0668 11.205C54.1135 8.63833 54.2068 7.215 54.3468 6.935ZM49.2018 18.135C49.8318 17.8317 50.6835 17.68 51.7568 17.68C52.2468 17.68 52.6551 17.7267 52.9818 17.82C53.3318 17.89 53.6468 18.0067 53.9268 18.17C54.2068 18.3333 54.4518 18.555 54.6618 18.835C54.8718 19.0917 55.0818 19.4183 55.2918 19.815C55.5485 20.305 55.6535 20.9583 55.6068 21.775C55.5601 22.5683 55.3618 23.385 55.0118 24.225C54.8251 24.715 54.3701 25.1583 53.6468 25.555C52.9468 25.975 52.2585 26.1967 51.5818 26.22C50.9985 26.22 50.3101 25.9983 49.5168 25.555C48.7235 25.1117 48.1168 24.6217 47.6968 24.085C46.9735 23.105 46.7635 21.985 47.0668 20.725C47.3935 19.465 48.1051 18.6017 49.2018 18.135ZM53.0868 19.745C52.5268 19.325 51.7918 19.2317 50.8818 19.465C49.9718 19.675 49.3301 20.095 48.9568 20.725C48.6768 21.2383 48.5718 21.6583 48.6418 21.985C48.7118 22.3117 49.0035 22.7433 49.5168 23.28C50.7301 24.5867 51.9318 24.68 53.1218 23.56C53.4718 23.2333 53.6818 22.965 53.7518 22.755C53.8218 22.5217 53.8218 22.1017 53.7518 21.495C53.6351 20.5617 53.4135 19.9783 53.0868 19.745ZM85.2045 3.015C85.2745 2.29166 85.6478 2.12833 86.3245 2.525C86.4878 2.64167 86.5695 2.95667 86.5695 3.47C86.5928 3.98333 86.5345 5.115 86.3945 6.865C86.1845 9.40833 86.0795 11.345 86.0795 12.675C86.0795 13.4683 86.0445 13.97 85.9745 14.18C85.9045 14.39 85.6945 14.565 85.3445 14.705C84.8545 14.9383 84.5278 14.8917 84.3645 14.565C84.2245 14.2383 84.1778 13.4917 84.2245 12.325C84.2245 11.905 84.2245 11.5783 84.2245 11.345C84.2478 11.0883 84.2362 10.9017 84.1895 10.785C84.1662 10.645 84.1312 10.5633 84.0845 10.54C84.0378 10.4933 83.9678 10.47 83.8745 10.47C83.1512 10.6567 82.4978 10.8317 81.9145 10.995C81.0278 11.2517 80.3978 11.345 80.0245 11.275C79.6512 11.1817 79.4645 10.9133 79.4645 10.47C79.4645 10.12 79.6278 9.81667 79.9545 9.56C80.2812 9.30333 80.6662 9.16333 81.1095 9.14C81.4595 9.14 82.0778 8.98833 82.9645 8.685C83.8745 8.38167 84.4112 8.14833 84.5745 7.985C84.6912 7.86833 84.6912 7.53 84.5745 6.97L84.3995 6.13L82.6495 6.34C81.6462 6.43333 80.8178 6.375 80.1645 6.165C79.5112 5.955 79.1845 5.66333 79.1845 5.29C79.1845 4.77667 80.2812 4.50833 82.4745 4.485C84.1778 4.46167 85.0878 3.97167 85.2045 3.015ZM72.6745 2.84C73.0245 2.81667 73.4095 2.78167 73.8295 2.735C74.2495 2.68833 74.5995 2.65333 74.8795 2.63C75.1595 2.60667 75.3228 2.58333 75.3695 2.56C75.9062 2.53667 76.1978 2.79333 76.2445 3.33C76.3145 3.84333 76.2095 5.02167 75.9295 6.865C75.5795 8.895 75.3578 10.4817 75.2645 11.625C75.2412 12.2317 75.1828 12.5933 75.0895 12.71C74.9962 12.8267 74.7395 12.9083 74.3195 12.955C73.7362 13.0017 73.3978 12.815 73.3045 12.395C73.2112 11.9517 73.3045 10.9833 73.5845 9.49C73.9112 7.74 74.1095 6.50333 74.1795 5.78L74.2845 4.45L72.9545 4.625C72.1378 4.71833 71.1928 4.85833 70.1195 5.045C69.3028 5.185 68.7545 5.19667 68.4745 5.08C68.2178 4.96333 68.1595 4.68333 68.2995 4.24C68.4162 3.86667 68.8012 3.575 69.4545 3.365C70.1312 3.155 71.2045 2.98 72.6745 2.84ZM80.4445 15.755C81.7045 15.615 82.4512 15.5333 82.6845 15.51C82.9412 15.51 83.2445 15.6617 83.5945 15.965C83.8512 16.1517 84.0262 16.42 84.1195 16.77C84.2128 17.0967 84.2945 17.7383 84.3645 18.695C84.4345 19.7683 84.4345 20.4333 84.3645 20.69C84.3178 20.9233 84.1078 21.18 83.7345 21.46C83.4078 21.7167 83.0578 21.88 82.6845 21.95C82.3112 22.02 81.6228 22.055 80.6195 22.055C79.3362 22.0317 78.4962 22.1367 78.0995 22.37C77.7028 22.58 77.5395 23.035 77.6095 23.735L77.7145 24.435H81.5295C83.4428 24.435 84.5628 24.4583 84.8895 24.505C85.2395 24.5517 85.4378 24.7267 85.4845 25.03C85.5545 25.4733 85.2978 25.7767 84.7145 25.94C84.1312 26.1033 82.7662 26.2317 80.6195 26.325C79.3828 26.4417 78.4262 26.465 77.7495 26.395C77.0962 26.3483 76.6645 26.2433 76.4545 26.08C76.2445 25.94 76.0462 25.6367 75.8595 25.17C75.6728 24.68 75.6612 23.9683 75.8245 23.035C75.9878 22.1017 76.2328 21.4367 76.5595 21.04C76.8628 20.7133 77.1545 20.515 77.4345 20.445C77.7378 20.375 78.4028 20.3517 79.4295 20.375C80.9228 20.3983 81.8095 20.27 82.0895 19.99C82.3462 19.7333 82.4862 19.29 82.5095 18.66C82.5328 18.03 82.4162 17.6683 82.1595 17.575C81.8562 17.4583 81.0045 17.5167 79.6045 17.75C78.2045 17.96 77.2362 18.1817 76.6995 18.415C75.8362 18.7883 75.1828 18.7767 74.7395 18.38C74.3428 18.0067 74.4362 17.5633 75.0195 17.05C75.6028 16.49 77.4112 16.0583 80.4445 15.755ZM94.2763 5.185C95.513 4.99833 96.3647 4.92833 96.8313 4.975C97.298 4.99833 97.6363 5.13833 97.8463 5.395C98.033 5.605 98.068 6.92333 97.9513 9.35C97.8813 11.1 97.7997 12.1617 97.7063 12.535C97.6363 12.885 97.4613 13.095 97.1813 13.165C96.5513 13.3283 96.178 13.235 96.0613 12.885C95.968 12.535 95.968 11.5667 96.0613 9.98C96.178 7.99667 96.143 6.95833 95.9563 6.865C95.793 6.74833 94.5797 6.91167 92.3163 7.355C90.8697 7.65833 89.9247 7.83333 89.4813 7.88C89.038 7.90333 88.7347 7.83333 88.5713 7.67C88.408 7.50667 88.338 7.37833 88.3613 7.285C88.3847 7.16833 88.5247 6.98167 88.7813 6.725C89.458 6.095 91.2897 5.58167 94.2763 5.185ZM104.286 7.845C104.496 7.58833 104.823 7.495 105.266 7.565C105.29 7.565 105.336 7.565 105.406 7.565C105.71 7.58833 105.873 7.74 105.896 8.02C105.92 8.27667 105.85 9.18667 105.686 10.75C105.64 11.0533 105.616 11.2983 105.616 11.485C105.476 12.9783 105.453 13.7833 105.546 13.9C105.64 14.0167 106.585 13.935 108.381 13.655C110.108 13.3517 111.135 13.2583 111.461 13.375C111.741 13.4917 111.881 13.7717 111.881 14.215C111.881 14.3083 111.881 14.39 111.881 14.46C111.881 14.5067 111.87 14.565 111.846 14.635C111.823 14.705 111.788 14.7633 111.741 14.81C111.695 14.8333 111.648 14.8683 111.601 14.915C111.555 14.9383 111.473 14.9733 111.356 15.02C111.24 15.0433 111.111 15.0667 110.971 15.09C110.855 15.1133 110.691 15.1367 110.481 15.16C110.295 15.1833 110.096 15.2183 109.886 15.265C109.676 15.2883 109.408 15.3117 109.081 15.335C107.891 15.475 106.97 15.65 106.316 15.86L105.196 16.175L105.231 18.765C105.278 19.7917 105.266 20.515 105.196 20.935C105.15 21.3317 105.033 21.635 104.846 21.845C104.566 22.1717 104.298 22.335 104.041 22.335C103.785 22.335 103.586 22.1717 103.446 21.845C103.283 21.5183 103.271 20.3633 103.411 18.38C103.481 17.4 103.61 15.1833 103.796 11.73C103.936 9.35 104.1 8.055 104.286 7.845ZM92.1413 13.865C92.2813 13.655 92.4563 13.5033 92.6663 13.41C92.8763 13.2933 93.063 13.2583 93.2263 13.305C93.3897 13.3283 93.4947 13.4333 93.5413 13.62C93.5413 13.6667 93.5413 13.8067 93.5413 14.04C93.5413 14.25 93.553 14.5417 93.5763 14.915C93.5997 15.265 93.6113 15.5917 93.6113 15.895C93.6347 17.1317 93.728 17.89 93.8913 18.17C94.0547 18.4267 94.498 18.4967 95.2213 18.38C97.158 18.0067 98.383 18.0767 98.8963 18.59C99.2697 18.9633 99.328 19.3017 99.0713 19.605C98.838 19.885 98.3713 20.0367 97.6713 20.06C96.2013 20.0833 93.868 20.41 90.6713 21.04C89.7847 21.2033 89.2013 21.2383 88.9213 21.145C88.6413 21.0517 88.5013 20.7717 88.5013 20.305C88.5013 19.5817 89.3413 19.15 91.0213 19.01L91.9663 18.94L91.8613 16.665C91.8147 15.195 91.908 14.2617 92.1413 13.865ZM119.64 0.81C120.69 0.716666 121.413 0.681666 121.81 0.704999C122.207 0.728332 122.487 0.833332 122.65 1.02C122.86 1.27667 123.035 2.14 123.175 3.61C123.268 4.54333 123.292 5.17333 123.245 5.5C123.222 5.82667 123.128 6.06 122.965 6.2C122.662 6.48 122.113 6.725 121.32 6.935C120.527 7.12167 119.815 7.215 119.185 7.215C118.555 7.215 118.077 7.25 117.75 7.32C117.447 7.39 117.225 7.50667 117.085 7.67C116.945 7.83333 116.875 8.06667 116.875 8.37C116.875 8.81333 116.957 9.05833 117.12 9.105C117.307 9.12833 117.902 9.02333 118.905 8.79C118.998 8.76667 119.08 8.74333 119.15 8.72C121.74 8.16 123.198 8.125 123.525 8.615C123.688 8.895 123.735 9.16333 123.665 9.42C123.618 9.67667 123.467 9.86333 123.21 9.98C122.86 10.1667 121.565 10.4233 119.325 10.75C117.108 11.0533 115.907 11.1467 115.72 11.03C115.463 10.89 115.288 10.365 115.195 9.455C115.102 8.52167 115.148 7.775 115.335 7.215C115.335 7.19167 115.347 7.15667 115.37 7.11C115.51 6.69 115.732 6.41 116.035 6.27C116.338 6.13 117.318 5.885 118.975 5.535C119.162 5.48833 119.313 5.45333 119.43 5.43C120.48 5.19667 121.087 5.02167 121.25 4.905C121.437 4.78833 121.53 4.52 121.53 4.1C121.53 3.54 121.437 3.12 121.25 2.84C120.923 2.32667 119.71 2.37333 117.61 2.98C115.463 3.58667 114.39 3.54 114.39 2.84C114.39 2.46667 114.6 2.15167 115.02 1.895C115.323 1.70833 115.942 1.51 116.875 1.3C117.832 1.06667 118.753 0.903332 119.64 0.81ZM123.735 12.325C123.805 12.2317 124.085 12.185 124.575 12.185C125.042 12.185 125.392 12.325 125.625 12.605C125.882 12.8617 125.975 13.2 125.905 13.62C125.858 13.9 125.707 14.0867 125.45 14.18C125.193 14.25 124.493 14.3317 123.35 14.425C121.787 14.5183 120.013 14.775 118.03 15.195C116.35 15.545 115.207 15.7083 114.6 15.685C114.017 15.6617 113.69 15.44 113.62 15.02C113.597 14.74 113.667 14.5183 113.83 14.355C114.017 14.1683 114.32 14.0167 114.74 13.9C115.16 13.7833 115.767 13.6667 116.56 13.55C117.773 13.41 119.243 13.1883 120.97 12.885C122.72 12.5817 123.642 12.395 123.735 12.325ZM119.36 17.575C120.27 17.4117 120.993 17.295 121.53 17.225C122.067 17.155 122.568 17.1317 123.035 17.155C123.502 17.1783 123.828 17.2367 124.015 17.33C124.225 17.4233 124.4 17.61 124.54 17.89C124.703 18.17 124.797 18.4733 124.82 18.8C124.843 19.1267 124.855 19.5817 124.855 20.165V22.37L123.84 22.79C123.163 23.07 122.137 23.21 120.76 23.21C119.687 23.21 118.952 23.28 118.555 23.42C118.182 23.56 117.995 23.8517 117.995 24.295C117.995 24.995 118.625 25.1817 119.885 24.855C120.585 24.6917 121.553 24.5633 122.79 24.47C124.027 24.33 124.715 24.225 124.855 24.155C124.972 24.085 125.182 24.1783 125.485 24.435C125.788 24.6917 125.94 24.9133 125.94 25.1C125.94 25.24 125.835 25.4033 125.625 25.59C125.392 25.7533 124.027 26.0333 121.53 26.43C119.033 26.8267 117.657 26.9783 117.4 26.885C116.817 26.675 116.408 25.9983 116.175 24.855C115.965 23.7117 116.093 22.9417 116.56 22.545C116.84 22.2883 117.773 22.0433 119.36 21.81C121.413 21.5067 122.533 21.285 122.72 21.145C122.86 21.005 122.965 20.7483 123.035 20.375C123.128 19.7683 123.093 19.3833 122.93 19.22C122.767 19.0333 121.833 19.0683 120.13 19.325C118.147 19.605 116.945 19.7333 116.525 19.71C116.128 19.6867 115.907 19.4533 115.86 19.01C115.86 18.9867 115.837 18.9517 115.79 18.905C115.743 18.555 115.86 18.3333 116.14 18.24C116.42 18.1233 117.365 17.925 118.975 17.645C119.138 17.6217 119.267 17.5983 119.36 17.575ZM146 4.17L146.91 4.24C147.307 4.28667 147.564 4.36833 147.68 4.485C147.797 4.57833 147.879 4.81167 147.925 5.185C147.972 5.745 147.832 6.80667 147.505 8.37C147.249 9.91 147.167 11.1 147.26 11.94C147.4 12.8267 147.354 13.5267 147.12 14.04C146.98 14.4367 146.77 14.6817 146.49 14.775C146.234 14.845 145.429 14.9267 144.075 15.02C142.279 15.1133 141.182 15.265 140.785 15.475C140.482 15.6383 140.179 15.6733 139.875 15.58C139.572 15.4633 139.327 15.2417 139.14 14.915C138.954 14.565 138.72 13.1067 138.44 10.54C138.16 7.95 138.125 6.515 138.335 6.235C138.849 5.62833 139.28 5.66333 139.63 6.34C139.864 6.76 139.98 7.36667 139.98 8.16C139.98 8.18333 139.98 8.20667 139.98 8.23C139.98 8.90667 140.085 9.28 140.295 9.35C140.505 9.39667 141.287 9.245 142.64 8.895C142.664 8.895 142.687 8.88333 142.71 8.86C144.064 8.51 144.904 8.335 145.23 8.335C145.534 8.335 145.732 8.16 145.825 7.81C145.942 7.46 146 6.795 146 5.815V4.17ZM145.615 11.38C145.639 10.8433 145.615 10.5283 145.545 10.435C145.499 10.3183 145.312 10.26 144.985 10.26C144.519 10.26 144.087 10.33 143.69 10.47C143.364 10.6333 142.699 10.785 141.695 10.925C141.019 10.995 140.599 11.0883 140.435 11.205C140.295 11.2983 140.225 11.52 140.225 11.87C140.225 12.3833 140.377 12.8033 140.68 13.13C140.984 13.4333 141.334 13.5383 141.73 13.445C142.01 13.3517 142.734 13.235 143.9 13.095C144.927 13.0017 145.464 12.8967 145.51 12.78C145.51 12.7567 145.545 12.29 145.615 11.38ZM152.755 5.325C152.872 5.115 153.082 5.01 153.385 5.01C153.899 5.01 154.202 5.20833 154.295 5.605C154.412 5.97833 154.377 6.77167 154.19 7.985C153.957 9.85167 154.074 10.785 154.54 10.785C154.68 10.785 154.867 10.715 155.1 10.575C155.684 10.2017 156.255 10.1317 156.815 10.365C157.399 10.575 157.632 10.96 157.515 11.52C157.469 11.8467 156.99 12.0917 156.08 12.255C155.124 12.395 154.517 12.6283 154.26 12.955C154.027 13.2817 153.922 13.9817 153.945 15.055C153.992 15.755 153.98 16.315 153.91 16.735C153.84 17.155 153.712 17.47 153.525 17.68C153.339 17.8667 153.094 17.96 152.79 17.96C152.347 17.96 152.09 17.7267 152.02 17.26C151.95 16.9567 152.032 14.985 152.265 11.345C152.499 7.68167 152.662 5.675 152.755 5.325ZM145.195 19.045C145.499 18.7417 145.72 18.5783 145.86 18.555C146.024 18.5083 146.245 18.5783 146.525 18.765C146.689 18.8583 146.77 18.9983 146.77 19.185C146.794 19.3717 146.735 19.7217 146.595 20.235C146.269 21.5183 146.199 22.335 146.385 22.685C146.595 23.0117 147.179 23.0933 148.135 22.93C149.442 22.65 150.445 22.4633 151.145 22.37C151.869 22.2533 152.464 22.2067 152.93 22.23C153.397 22.2533 153.689 22.3467 153.805 22.51C153.945 22.65 154.015 22.8717 154.015 23.175C154.015 23.8517 153.315 24.2017 151.915 24.225C151.215 24.2717 150.177 24.435 148.8 24.715C147.587 24.9483 146.7 25.065 146.14 25.065C145.58 25.0883 145.184 24.995 144.95 24.785C144.74 24.575 144.635 23.6533 144.635 22.02C144.635 20.9933 144.67 20.305 144.74 19.955C144.81 19.5817 144.962 19.2783 145.195 19.045ZM174.334 4.835C174.498 4.60167 174.743 4.485 175.069 4.485C175.419 4.46167 175.676 4.56667 175.839 4.8C175.979 5.03333 176.014 6.38667 175.944 8.86C175.851 11.1467 175.804 12.9433 175.804 14.25C175.781 14.9733 175.734 15.4283 175.664 15.615C175.618 15.8017 175.454 15.9183 175.174 15.965C174.824 16.0117 174.533 15.8367 174.299 15.44C174.089 15.0433 173.984 14.4833 173.984 13.76C173.984 13.3633 173.926 13.1417 173.809 13.095C173.716 13.025 173.424 13.025 172.934 13.095C172.724 13.1183 172.363 13.1767 171.849 13.27C171.359 13.3633 171.091 13.41 171.044 13.41C170.694 13.5033 170.438 13.5267 170.274 13.48C170.134 13.4333 170.018 13.305 169.924 13.095C169.808 12.885 169.749 12.71 169.749 12.57C169.749 12.4067 169.831 12.255 169.994 12.115C170.181 11.975 170.426 11.87 170.729 11.8C171.056 11.7067 171.488 11.6133 172.024 11.52L173.984 11.24V10.155V9.105L172.129 9.21C171.313 9.25667 170.788 9.25667 170.554 9.21C170.344 9.14 170.216 9 170.169 8.79C170.076 8.3 170.251 7.915 170.694 7.635C171.138 7.355 171.803 7.215 172.689 7.215H174.334L174.194 6.2C174.054 5.52333 174.101 5.06833 174.334 4.835ZM161.769 5.57C162.423 5.24333 163.193 5.06833 164.079 5.045C164.966 4.99833 165.736 5.115 166.389 5.395C167.299 5.76833 168.011 6.67833 168.524 8.125C169.061 9.57167 169.143 10.8783 168.769 12.045C168.443 13.0717 167.859 13.8883 167.019 14.495C166.179 15.1017 165.269 15.4167 164.289 15.44C163.309 15.44 162.329 15.1483 161.349 14.565C160.603 14.075 160.078 13.5033 159.774 12.85C159.471 12.1967 159.308 11.3217 159.284 10.225C159.284 9.455 159.319 8.895 159.389 8.545C159.483 8.195 159.681 7.775 159.984 7.285C160.521 6.515 161.116 5.94333 161.769 5.57ZM165.549 7.005C165.083 6.795 164.674 6.71333 164.324 6.76C163.998 6.78333 163.531 6.935 162.924 7.215C162.248 7.58833 161.758 7.99667 161.454 8.44C161.174 8.88333 161.034 9.44333 161.034 10.12C161.034 11.24 161.454 12.1617 162.294 12.885C163.158 13.6083 164.044 13.8183 164.954 13.515C165.468 13.305 165.724 13.1417 165.724 13.025C165.724 12.885 165.899 12.745 166.249 12.605C166.903 12.395 167.194 11.485 167.124 9.875C167.054 8.405 166.529 7.44833 165.549 7.005ZM170.274 16.91C170.974 16.7467 171.523 16.7 171.919 16.77C172.689 16.9333 173.366 17.4233 173.949 18.24C174.533 19.0567 174.813 19.92 174.789 20.83C174.766 21.7633 174.568 22.5917 174.194 23.315C173.821 24.0383 173.331 24.575 172.724 24.925C172.118 25.275 171.453 25.485 170.729 25.555C170.029 25.625 169.294 25.4733 168.524 25.1C167.778 24.75 167.113 24.19 166.529 23.42C165.923 22.6733 165.596 22.0317 165.549 21.495C165.526 20.9583 165.783 20.2817 166.319 19.465C166.786 18.765 167.311 18.2283 167.894 17.855C168.501 17.4583 169.294 17.1433 170.274 16.91ZM172.514 19.535C172.164 19.0217 171.791 18.73 171.394 18.66C171.021 18.5667 170.461 18.66 169.714 18.94C168.688 19.29 168.034 19.8383 167.754 20.585C167.474 21.3317 167.684 22.0317 168.384 22.685C168.688 22.9883 168.968 23.21 169.224 23.35C169.481 23.5133 169.761 23.6183 170.064 23.665C170.368 23.735 170.694 23.7117 171.044 23.595C171.884 23.4317 172.468 22.9067 172.794 22.02C173.121 21.1333 173.028 20.305 172.514 19.535ZM182.606 3.26C182.77 3.12 183.003 3.07333 183.306 3.12C183.633 3.16667 183.89 3.30667 184.076 3.54C184.333 3.84333 184.438 4.625 184.391 5.885L184.321 7.81L186.316 7.635C187.646 7.51833 188.451 7.425 188.731 7.355C189.011 7.26167 189.268 7.34333 189.501 7.6C189.735 7.85667 189.84 8.16 189.816 8.51C189.816 8.83667 189.7 9.12833 189.466 9.385C189.21 9.61833 188.848 9.61833 188.381 9.385C188.078 9.245 187.775 9.18667 187.471 9.21C187.191 9.23333 186.713 9.32667 186.036 9.49C184.8 9.81667 183.691 10.0267 182.711 10.12C181.475 10.2367 180.46 10.435 179.666 10.715C179.106 10.925 178.756 11.03 178.616 11.03C178.476 11.03 178.313 10.9017 178.126 10.645C177.87 10.3183 177.741 10.085 177.741 9.945C177.741 9.385 178.721 8.93 180.681 8.58L182.781 8.23L182.606 5.815C182.49 4.25167 182.49 3.4 182.606 3.26ZM193.421 9.595C193.631 9.315 193.806 9.175 193.946 9.175C194.11 9.175 194.308 9.30333 194.541 9.56C194.775 9.84 194.81 10.9133 194.646 12.78L194.471 15.545L195.801 15.37C195.965 15.3467 196.151 15.3233 196.361 15.3C196.571 15.2533 196.746 15.2183 196.886 15.195C197.05 15.1483 197.201 15.1133 197.341 15.09C197.505 15.0667 197.621 15.0433 197.691 15.02C198.018 14.95 198.345 15.0433 198.671 15.3C199.021 15.5567 199.196 15.8367 199.196 16.14C199.196 16.5833 198.555 16.875 197.271 17.015C195.801 17.155 194.973 17.3183 194.786 17.505C194.6 17.645 194.506 18.1467 194.506 19.01C194.506 19.08 194.506 19.1967 194.506 19.36C194.46 21.2033 194.401 22.2767 194.331 22.58C194.285 22.8833 194.098 23.0583 193.771 23.105C193.725 23.105 193.69 23.105 193.666 23.105C193.34 23.1517 193.118 23.1283 193.001 23.035C192.908 22.9417 192.826 22.6967 192.756 22.3C192.663 21.88 192.628 21.005 192.651 19.675C192.698 18.3217 192.756 16.9333 192.826 15.51C192.896 14.0633 192.978 12.745 193.071 11.555C193.188 10.365 193.305 9.71167 193.421 9.595ZM184.216 11.52C184.52 11.4267 184.87 11.4267 185.266 11.52C185.686 11.59 185.99 11.625 186.176 11.625C186.41 11.625 187.028 12.1033 188.031 13.06C188.871 13.8767 189.408 14.635 189.641 15.335C189.875 16.0117 189.863 16.7817 189.606 17.645C189.326 18.5783 188.871 19.395 188.241 20.095C187.635 20.7717 186.946 21.25 186.176 21.53C185.43 21.7867 184.671 21.915 183.901 21.915C183.131 21.8917 182.42 21.6467 181.766 21.18C181.113 20.7133 180.6 20.0717 180.226 19.255C179.853 18.3917 179.666 17.7617 179.666 17.365C179.666 17.015 179.818 16.4433 180.121 15.65C180.448 14.8333 180.786 14.2033 181.136 13.76C181.323 13.5033 181.603 13.2233 181.976 12.92C182.35 12.5933 182.735 12.3017 183.131 12.045C183.551 11.7883 183.913 11.6133 184.216 11.52ZM187.191 14.39C186.141 13.27 184.986 13.13 183.726 13.97C182.77 14.6233 182.14 15.4517 181.836 16.455C181.556 17.435 181.661 18.2983 182.151 19.045C182.641 19.7917 183.411 20.165 184.461 20.165C185.115 20.165 185.663 20.0367 186.106 19.78C186.55 19.5 186.97 19.045 187.366 18.415C187.786 17.715 187.973 17.0033 187.926 16.28C187.903 15.5333 187.658 14.9033 187.191 14.39ZM204.274 8.23C205.488 7.69333 206.701 7.75167 207.914 8.405C209.058 9.035 209.863 9.99167 210.329 11.275C210.796 12.535 210.843 13.8183 210.469 15.125C210.119 16.4083 209.408 17.4233 208.334 18.17C207.214 18.94 205.698 18.8583 203.784 17.925C201.544 16.7817 200.634 14.9617 201.054 12.465C201.171 11.765 201.579 10.9483 202.279 10.015C203.003 9.08167 203.668 8.48667 204.274 8.23ZM206.969 9.84C206.526 9.58333 206.246 9.455 206.129 9.455C206.013 9.455 205.779 9.56 205.429 9.77C204.449 10.33 203.773 10.9017 203.399 11.485C203.026 12.045 202.839 12.745 202.839 13.585C202.839 14.0517 202.898 14.4133 203.014 14.67C203.131 14.9267 203.388 15.2417 203.784 15.615C204.414 16.2217 205.126 16.5833 205.919 16.7C206.456 16.7933 206.829 16.805 207.039 16.735C207.249 16.6417 207.564 16.3617 207.984 15.895C208.381 15.475 208.626 15.125 208.719 14.845C208.836 14.5417 208.894 14.0283 208.894 13.305C208.894 12.395 208.743 11.6833 208.439 11.17C208.159 10.6333 207.669 10.19 206.969 9.84ZM216.804 7.985C216.944 7.82167 217.166 7.76333 217.469 7.81C217.796 7.83333 218.029 7.93833 218.169 8.125C218.356 8.35833 218.379 9.65333 218.239 12.01C218.076 14.3433 218.006 16.56 218.029 18.66C218.029 20.0367 217.994 20.9 217.924 21.25C217.878 21.5767 217.726 21.8333 217.469 22.02C216.793 22.4867 216.361 22.2883 216.174 21.425C216.081 20.9817 216.034 20.3167 216.034 19.43V17.05L215.159 17.225C214.273 17.365 213.491 17.47 212.814 17.54C212.138 17.6333 211.729 17.6567 211.589 17.61C211.449 17.5633 211.379 17.3767 211.379 17.05C211.379 16.1867 211.823 15.755 212.709 15.755C213.106 15.755 213.806 15.615 214.809 15.335C215.486 15.125 215.894 14.95 216.034 14.81C216.198 14.67 216.326 14.3667 216.419 13.9C216.513 13.2233 216.419 12.78 216.139 12.57C215.859 12.36 215.334 12.3367 214.564 12.5C213.514 12.71 212.814 12.7917 212.464 12.745C212.114 12.675 211.939 12.4417 211.939 12.045C211.939 11.0183 212.943 10.505 214.949 10.505H216.629V9.35C216.629 8.53333 216.688 8.07833 216.804 7.985ZM145.454 44.94C145.407 44.17 145.407 43.715 145.454 43.575C145.524 43.435 145.734 43.365 146.084 43.365C147.064 43.365 147.425 44.4033 147.169 46.48L146.994 48.055L148.184 48.02C149.094 47.9967 149.782 47.9267 150.249 47.81C150.529 47.74 150.809 47.7167 151.089 47.74C151.369 47.74 151.614 47.7867 151.824 47.88C152.034 47.95 152.209 48.0667 152.349 48.23C152.512 48.3933 152.617 48.5683 152.664 48.755C152.734 49.2217 152.617 49.525 152.314 49.665C152.034 49.805 151.59 49.7933 150.984 49.63C150.354 49.4667 149.677 49.4783 148.954 49.665C148.23 49.875 147.32 50.0267 146.224 50.12C145.057 50.26 144.217 50.4467 143.704 50.68C143.214 50.9367 142.677 51.065 142.094 51.065C141.767 51.065 141.545 51.03 141.429 50.96C141.335 50.8667 141.289 50.68 141.289 50.4C141.289 49.9567 141.44 49.6417 141.744 49.455C142.047 49.245 142.7 49.0467 143.704 48.86C144.567 48.6733 145.069 48.5217 145.209 48.405C145.372 48.2883 145.465 47.985 145.489 47.495C145.489 46.375 145.477 45.5233 145.454 44.94ZM159.594 48.37C159.664 48.1367 159.955 48.055 160.469 48.125L161.204 48.195L161.134 50.225C161.064 51.5083 160.947 53.1183 160.784 55.055C160.574 56.8983 160.539 58.415 160.679 59.605C160.749 60.4683 160.76 61.005 160.714 61.215C160.69 61.4017 160.515 61.565 160.189 61.705C159.745 61.915 159.419 61.95 159.209 61.81C159.022 61.67 158.905 60.6667 158.859 58.8C158.812 57.2133 158.695 56.28 158.509 56C158.345 55.6967 157.89 55.72 157.144 56.07L156.304 56.525L156.444 58.8C156.537 59.7567 156.56 60.3983 156.514 60.725C156.49 61.0517 156.385 61.285 156.199 61.425C155.639 61.8683 155.16 61.8683 154.764 61.425C154.554 61.1217 154.495 59.1967 154.589 55.65C154.659 52.99 154.764 51.24 154.904 50.4C155.044 49.56 155.312 49.14 155.709 49.14C156.105 49.14 156.374 49.3617 156.514 49.805C156.654 50.225 156.712 50.9367 156.689 51.94L156.584 53.97L157.389 54.04C157.902 54.0867 158.275 54.04 158.509 53.9C158.765 53.76 158.952 53.48 159.069 53.06C159.185 52.64 159.279 51.975 159.349 51.065C159.442 49.455 159.524 48.5567 159.594 48.37ZM146.119 52.115C146.679 51.7883 147.192 51.6367 147.659 51.66C148.149 51.66 148.755 51.8583 149.479 52.255C151.205 53.1183 152.115 54.4017 152.209 56.105C152.255 56.735 152.232 57.2133 152.139 57.54C152.069 57.8433 151.824 58.2983 151.404 58.905C150.774 59.8617 150.19 60.515 149.654 60.865C149.117 61.1917 148.452 61.3433 147.659 61.32C145.815 61.25 144.474 60.5967 143.634 59.36C142.817 58.1 142.77 56.6533 143.494 55.02C143.797 54.2733 144.147 53.69 144.544 53.27C144.94 52.8267 145.465 52.4417 146.119 52.115ZM149.129 53.83C148.592 53.62 148.137 53.5383 147.764 53.585C147.414 53.6317 146.994 53.83 146.504 54.18C145.967 54.53 145.547 55.0433 145.244 55.72C144.94 56.3967 144.859 56.9917 144.999 57.505C145.092 57.9483 145.267 58.3333 145.524 58.66C145.78 58.9633 146.084 59.1967 146.434 59.36C146.784 59.5233 147.169 59.605 147.589 59.605C148.032 59.605 148.37 59.5467 148.604 59.43C148.837 59.3133 149.129 59.045 149.479 58.625C150.062 57.9483 150.4 57.33 150.494 56.77C150.61 56.2333 150.517 55.65 150.214 55.02C149.91 54.39 149.549 53.9933 149.129 53.83ZM172.268 45.115C172.432 44.975 172.63 45.0217 172.863 45.255C173.12 45.4883 173.295 45.7567 173.388 46.06C173.505 46.3633 173.517 46.6083 173.423 46.795C173.26 46.935 172.128 47.0283 170.028 47.075C168.792 47.075 167.917 47.11 167.403 47.18C166.89 47.25 166.482 47.39 166.178 47.6C165.968 47.7167 165.828 47.81 165.758 47.88C165.688 47.95 165.618 48.1133 165.548 48.37C165.478 48.6033 165.443 48.8717 165.443 49.175C165.443 49.455 165.443 49.945 165.443 50.645C165.443 52.3717 165.513 53.2933 165.653 53.41C165.793 53.48 166.412 53.5267 167.508 53.55C168.722 53.55 170.238 53.41 172.058 53.13C172.712 53.0133 173.167 53.1067 173.423 53.41C174.007 54.1333 173.505 54.6583 171.918 54.985C171.732 55.0317 171.533 55.0667 171.323 55.09C170.133 55.2767 168.757 55.4167 167.193 55.51C165.653 55.6033 164.79 55.6033 164.603 55.51C164.37 55.3467 164.125 54.67 163.868 53.48C163.612 52.2667 163.483 51.205 163.483 50.295C163.483 49.105 163.39 48.3583 163.203 48.055C163.017 47.6583 163.18 47.2617 163.693 46.865C164.207 46.4683 164.988 46.1417 166.038 45.885C167.088 45.605 168.255 45.43 169.538 45.36C171.312 45.2667 172.222 45.185 172.268 45.115ZM173.073 60.305C173.19 60.165 173.447 60.1183 173.843 60.165C174.263 60.2117 174.543 60.305 174.683 60.445C174.917 60.6783 174.963 60.97 174.823 61.32C174.707 61.6467 174.473 61.8683 174.123 61.985C173.773 62.1017 172.747 62.1483 171.043 62.125C169.527 62.1017 167.905 62.16 166.178 62.3C165.502 62.3467 164.883 62.37 164.323 62.37C163.787 62.37 163.46 62.335 163.343 62.265C163.11 62.125 162.982 61.8917 162.958 61.565C162.935 61.215 163.052 60.9467 163.308 60.76C163.495 60.5967 165.152 60.4917 168.278 60.445C171.428 60.4217 173.027 60.375 173.073 60.305ZM180.83 41.86C181.856 41.65 182.696 41.5217 183.35 41.475C183.863 41.475 184.166 41.6267 184.26 41.93C184.376 42.21 184.516 43.225 184.68 44.975C184.726 45.3483 184.75 45.6633 184.75 45.92C184.75 46.1533 184.726 46.3867 184.68 46.62C184.633 46.8533 184.54 47.04 184.4 47.18C184.26 47.32 184.096 47.46 183.91 47.6C183.723 47.74 183.443 47.8683 183.07 47.985C182.696 48.1017 182.311 48.2183 181.915 48.335C181.518 48.4283 181.005 48.5567 180.375 48.72C180.025 48.79 179.803 48.895 179.71 49.035C179.64 49.175 179.605 49.4783 179.605 49.945C179.605 50.5517 179.71 50.9367 179.92 51.1C180.153 51.24 180.643 51.24 181.39 51.1C182.276 50.9367 182.883 50.785 183.21 50.645C183.676 50.4817 184.085 50.47 184.435 50.61C184.808 50.7267 185.006 50.96 185.03 51.31C185.053 51.52 185.053 51.695 185.03 51.835C185.03 51.975 184.971 52.1033 184.855 52.22C184.738 52.3133 184.586 52.395 184.4 52.465C184.213 52.5117 183.956 52.57 183.63 52.64C182.93 52.7333 182.346 52.8617 181.88 53.025C181.46 53.1883 180.865 53.2817 180.095 53.305C179.325 53.305 178.835 53.2233 178.625 53.06C177.971 52.6633 177.645 51.6833 177.645 50.12C177.645 49.4433 177.691 48.9767 177.785 48.72C177.901 48.44 178.135 48.1133 178.485 47.74C179.045 47.2267 179.57 46.97 180.06 46.97C180.573 46.97 181.215 46.7833 181.985 46.41C182.521 46.1533 182.836 45.955 182.93 45.815C183.046 45.675 183.07 45.3833 183 44.94C182.883 44.2867 182.801 43.8783 182.755 43.715C182.661 43.5283 182.358 43.47 181.845 43.54C181.331 43.61 180.456 43.8317 179.22 44.205C178.216 44.5317 177.575 44.695 177.295 44.695C177.015 44.695 176.816 44.5667 176.7 44.31C176.536 43.8433 176.816 43.4 177.54 42.98C178.263 42.5367 179.36 42.1633 180.83 41.86ZM188.985 48.02C188.938 45.5 188.938 44.0067 188.985 43.54C189.031 43.0733 189.195 42.84 189.475 42.84C190.105 42.84 190.466 43.0617 190.56 43.505C190.676 43.925 190.735 45.4533 190.735 48.09V53.095L190.07 53.34C189.58 53.48 189.3 53.5033 189.23 53.41C189.136 53.2933 189.055 51.4967 188.985 48.02ZM183.77 56.28C185.286 55.9533 186.535 55.8133 187.515 55.86C188.588 55.9067 189.276 56.1517 189.58 56.595C189.906 57.0383 190.07 58.0533 190.07 59.64C190.07 60.0833 190.07 60.41 190.07 60.62C190.07 60.83 190.046 61.075 190 61.355C189.953 61.6117 189.906 61.7867 189.86 61.88C189.836 61.9733 189.755 62.09 189.615 62.23C189.475 62.3467 189.335 62.4167 189.195 62.44C189.078 62.4633 188.868 62.4983 188.565 62.545C188.285 62.5917 188.016 62.615 187.76 62.615C187.526 62.615 187.165 62.615 186.675 62.615C185.345 62.615 184.458 62.72 184.015 62.93C183.595 63.1167 183.42 63.525 183.49 64.155C183.513 64.5517 183.583 64.785 183.7 64.855C183.84 64.925 184.166 64.925 184.68 64.855C185.356 64.7617 186.5 64.715 188.11 64.715C189.16 64.715 189.813 64.7383 190.07 64.785C190.35 64.8317 190.513 64.9717 190.56 65.205C190.63 65.5783 190.536 65.8467 190.28 66.01C190.046 66.1733 189.545 66.29 188.775 66.36C187.981 66.43 186.826 66.57 185.31 66.78C183.816 66.99 182.965 67.0367 182.755 66.92C182.171 66.71 181.786 65.9983 181.6 64.785C181.436 63.5717 181.576 62.6733 182.02 62.09C182.23 61.8333 182.51 61.6583 182.86 61.565C183.21 61.4483 183.921 61.3317 184.995 61.215C186.651 61.0517 187.585 60.9233 187.795 60.83C188.028 60.76 188.11 60.2467 188.04 59.29L187.97 57.785L186.29 57.855C185.263 57.9017 184.166 58.1 183 58.45C182.043 58.7533 181.413 58.8817 181.11 58.835C180.83 58.7883 180.69 58.5433 180.69 58.1C180.69 57.6333 180.888 57.2833 181.285 57.05C181.681 56.8167 182.51 56.56 183.77 56.28ZM209.99 47.95C210.13 47.6 210.305 47.39 210.515 47.32C210.748 47.2267 211.063 47.25 211.46 47.39C211.74 47.5067 211.88 47.7517 211.88 48.125C211.88 48.475 211.74 49.175 211.46 50.225C211.156 51.415 210.958 53.4683 210.865 56.385L210.655 60.83L209.92 61.075C209.313 61.285 208.951 61.2267 208.835 60.9C208.718 60.5267 208.718 59.395 208.835 57.505C208.998 55.3583 209.045 54.2267 208.975 54.11C208.905 54.04 208.286 54.1567 207.12 54.46C206.046 54.74 205.253 54.8917 204.74 54.915C204.226 54.915 203.865 54.7867 203.655 54.53C203.445 54.25 203.468 53.9933 203.725 53.76C204.051 53.4567 204.576 53.165 205.3 52.885C206.023 52.605 206.63 52.465 207.12 52.465C207.47 52.465 207.796 52.43 208.1 52.36C208.426 52.2667 208.706 52.15 208.94 52.01C209.196 51.8467 209.383 51.6717 209.5 51.485C209.64 51.275 209.71 50.75 209.71 49.91C209.71 49.0233 209.803 48.37 209.99 47.95ZM215.31 47.635C215.403 47.4017 215.613 47.2733 215.94 47.25C216.29 47.2267 216.581 47.3317 216.815 47.565C217.001 47.775 217.106 48.6967 217.13 50.33C217.153 51.9633 217.06 53.1767 216.85 53.97C216.663 54.8333 216.523 56.2333 216.43 58.17C216.336 59.64 216.243 60.55 216.15 60.9C216.056 61.2267 215.87 61.46 215.59 61.6C215.03 61.8567 214.691 61.8217 214.575 61.495C214.388 60.9583 214.54 58.4267 215.03 53.9C215.076 53.4567 215.135 52.9317 215.205 52.325C215.368 50.8783 215.403 49.805 215.31 49.105C215.216 48.4283 215.216 47.9383 215.31 47.635ZM199.49 48.475C199.606 48.3583 200.061 48.335 200.855 48.405C201.671 48.4517 202.138 48.545 202.255 48.685C202.441 48.9183 202.441 49.6183 202.255 50.785C202.161 51.3917 201.905 53.1767 201.485 56.14C201.461 56.1633 201.45 56.1867 201.45 56.21C201.24 57.9833 201.076 59.0217 200.96 59.325C200.866 59.6283 200.633 59.7917 200.26 59.815C199.77 59.885 199.466 59.7683 199.35 59.465C199.233 59.2083 199.326 57.9833 199.63 55.79C200.143 52.43 200.353 50.6333 200.26 50.4C200.236 50.3067 200.073 50.295 199.77 50.365C197.81 50.7383 196.305 50.9833 195.255 51.1C194.228 51.2167 193.528 51.2167 193.155 51.1C192.198 50.7267 192.28 50.295 193.4 49.805C194.45 49.3383 196.083 48.9767 198.3 48.72C198.976 48.6267 199.373 48.545 199.49 48.475ZM222.271 43.575C223.111 43.2717 223.916 43.1783 224.686 43.295C225.48 43.3883 226.215 43.7033 226.891 44.24C227.591 44.7767 228.163 45.5 228.606 46.41C229.05 47.2733 229.26 48.0783 229.236 48.825C229.236 49.5717 229.003 50.4 228.536 51.31C228.163 52.0567 227.72 52.6167 227.206 52.99C226.693 53.34 226.04 53.5733 225.246 53.69C223.916 53.8767 222.656 53.62 221.466 52.92C220.276 52.22 219.518 51.3217 219.191 50.225C218.725 48.7317 218.771 47.4017 219.331 46.235C219.891 45.0683 220.871 44.1817 222.271 43.575ZM225.106 45.01C224.873 45.01 224.616 44.9633 224.336 44.87C223.916 44.73 223.251 44.9867 222.341 45.64C221.431 46.2933 220.883 46.9233 220.696 47.53C220.626 47.7633 220.615 48.0433 220.661 48.37C220.708 48.6733 220.79 48.9883 220.906 49.315C221.023 49.6183 221.175 49.9217 221.361 50.225C221.571 50.5283 221.793 50.785 222.026 50.995C222.913 51.7883 223.811 52.15 224.721 52.08C225.631 52.01 226.355 51.5317 226.891 50.645C227.755 49.245 227.615 47.7867 226.471 46.27C225.795 45.43 225.34 45.01 225.106 45.01ZM226.576 55.895C226.763 55.4517 226.996 55.23 227.276 55.23C227.58 55.2067 227.836 55.4283 228.046 55.895C228.233 56.3383 228.21 57.1083 227.976 58.205C227.743 59.255 227.696 59.8967 227.836 60.13C227.953 60.34 228.653 60.445 229.936 60.445C230.823 60.445 231.371 60.48 231.581 60.55C231.815 60.5967 231.99 60.76 232.106 61.04C232.27 61.53 232.211 61.8683 231.931 62.055C231.675 62.2417 231.091 62.3233 230.181 62.3C229.458 62.2767 228.56 62.3233 227.486 62.44C226.436 62.5333 225.69 62.6383 225.246 62.755C225.036 62.825 224.5 62.93 223.636 63.07C222.796 63.2333 221.968 63.385 221.151 63.525C220.335 63.665 219.845 63.735 219.681 63.735C219.401 63.735 219.191 63.5483 219.051 63.175C218.911 62.8017 218.946 62.4867 219.156 62.23C219.343 61.9967 219.798 61.8217 220.521 61.705L221.536 61.565V59.325C221.56 58.0883 221.653 57.3067 221.816 56.98C221.98 56.63 222.33 56.525 222.866 56.665C223.193 56.7583 223.38 56.91 223.426 57.12C223.496 57.3067 223.52 57.89 223.496 58.87L223.426 60.83L224.791 60.935C225.655 60.9817 226.086 60.935 226.086 60.795C226.086 60.165 226.11 59.5 226.156 58.8C226.226 58.1 226.296 57.4933 226.366 56.98C226.46 56.4667 226.53 56.105 226.576 55.895ZM236.541 45.43C236.657 45.3133 236.832 45.2667 237.066 45.29C237.299 45.3133 237.497 45.4067 237.661 45.57C237.777 45.6867 237.847 45.8383 237.871 46.025C237.894 46.1883 237.894 46.585 237.871 47.215C237.824 48.1017 237.719 49.0817 237.556 50.155C237.392 51.2283 237.241 51.8933 237.101 52.15C236.984 52.3833 236.937 52.7567 236.961 53.27C237.007 53.76 237.112 54.2383 237.276 54.705C237.439 55.195 237.497 55.58 237.451 55.86C237.404 56.14 237.241 56.42 236.961 56.7C236.704 56.9567 236.447 57.0967 236.191 57.12C235.957 57.12 235.771 57.015 235.631 56.805C235.491 56.595 235.409 55.7083 235.386 54.145C235.362 52.5583 235.421 51.6017 235.561 51.275C235.654 51.0417 235.747 50.61 235.841 49.98C235.981 49.0933 236.074 48.4983 236.121 48.195C236.214 47.495 236.284 46.9233 236.331 46.48C236.377 45.92 236.447 45.57 236.541 45.43ZM234.686 61.81C234.966 61.6467 235.304 61.67 235.701 61.88C236.144 62.1133 236.366 62.5217 236.366 63.105C236.366 63.665 236.144 64.05 235.701 64.26C235.281 64.4933 234.837 64.4583 234.371 64.155C234.067 63.9917 233.916 63.7467 233.916 63.42C233.916 63.1867 233.997 62.8833 234.161 62.51C234.347 62.1367 234.522 61.9033 234.686 61.81Z" fill="#1A1A1A"/>
<path d="M4.99147 43.26C5.1548 43.12 5.38813 43.0733 5.69147 43.12C6.01813 43.1667 6.2748 43.3067 6.46147 43.54C6.71813 43.8433 6.82313 44.625 6.77646 45.885L6.70647 47.81L8.70147 47.635C10.0315 47.5183 10.8365 47.425 11.1165 47.355C11.3965 47.2617 11.6531 47.3433 11.8865 47.6C12.1198 47.8567 12.2248 48.16 12.2015 48.51C12.2015 48.8367 12.0848 49.1283 11.8515 49.385C11.5948 49.6183 11.2331 49.6183 10.7665 49.385C10.4631 49.245 10.1598 49.1867 9.85646 49.21C9.57647 49.2333 9.09813 49.3267 8.42147 49.49C7.1848 49.8167 6.07647 50.0267 5.09647 50.12C3.8598 50.2367 2.8448 50.435 2.05147 50.715C1.49146 50.925 1.14146 51.03 1.00146 51.03C0.861465 51.03 0.698132 50.9017 0.511465 50.645C0.254798 50.3183 0.126465 50.085 0.126465 49.945C0.126465 49.385 1.10646 48.93 3.06647 48.58L5.16647 48.23L4.99147 45.815C4.8748 44.2517 4.8748 43.4 4.99147 43.26ZM15.8065 49.595C16.0165 49.315 16.1915 49.175 16.3315 49.175C16.4948 49.175 16.6931 49.3033 16.9265 49.56C17.1598 49.84 17.1948 50.9133 17.0315 52.78L16.8565 55.545L18.1865 55.37C18.3498 55.3467 18.5365 55.3233 18.7465 55.3C18.9565 55.2533 19.1315 55.2183 19.2715 55.195C19.4348 55.1483 19.5865 55.1133 19.7265 55.09C19.8898 55.0667 20.0065 55.0433 20.0765 55.02C20.4031 54.95 20.7298 55.0433 21.0565 55.3C21.4065 55.5567 21.5815 55.8367 21.5815 56.14C21.5815 56.5833 20.9398 56.875 19.6565 57.015C18.1865 57.155 17.3581 57.3183 17.1715 57.505C16.9848 57.645 16.8915 58.1467 16.8915 59.01C16.8915 59.08 16.8915 59.1967 16.8915 59.36C16.8448 61.2033 16.7865 62.2767 16.7165 62.58C16.6698 62.8833 16.4831 63.0583 16.1565 63.105C16.1098 63.105 16.0748 63.105 16.0515 63.105C15.7248 63.1517 15.5031 63.1283 15.3865 63.035C15.2931 62.9417 15.2115 62.6967 15.1415 62.3C15.0481 61.88 15.0131 61.005 15.0365 59.675C15.0831 58.3217 15.1415 56.9333 15.2115 55.51C15.2815 54.0633 15.3631 52.745 15.4565 51.555C15.5731 50.365 15.6898 49.7117 15.8065 49.595ZM6.60147 51.52C6.9048 51.4267 7.2548 51.4267 7.65147 51.52C8.07147 51.59 8.3748 51.625 8.56146 51.625C8.7948 51.625 9.41313 52.1033 10.4165 53.06C11.2565 53.8767 11.7931 54.635 12.0265 55.335C12.2598 56.0117 12.2481 56.7817 11.9915 57.645C11.7115 58.5783 11.2565 59.395 10.6265 60.095C10.0198 60.7717 9.33147 61.25 8.56146 61.53C7.8148 61.7867 7.05647 61.915 6.28647 61.915C5.51647 61.8917 4.8048 61.6467 4.15146 61.18C3.49813 60.7133 2.9848 60.0717 2.61146 59.255C2.23813 58.3917 2.05147 57.7617 2.05147 57.365C2.05147 57.015 2.20313 56.4433 2.50646 55.65C2.83313 54.8333 3.17147 54.2033 3.52147 53.76C3.70813 53.5033 3.98813 53.2233 4.36147 52.92C4.7348 52.5933 5.1198 52.3017 5.51647 52.045C5.93647 51.7883 6.29813 51.6133 6.60147 51.52ZM9.57647 54.39C8.52647 53.27 7.37146 53.13 6.11147 53.97C5.1548 54.6233 4.5248 55.4517 4.22147 56.455C3.94147 57.435 4.04647 58.2983 4.53647 59.045C5.02647 59.7917 5.79647 60.165 6.84647 60.165C7.4998 60.165 8.04813 60.0367 8.49146 59.78C8.9348 59.5 9.3548 59.045 9.75147 58.415C10.1715 57.715 10.3581 57.0033 10.3115 56.28C10.2881 55.5333 10.0431 54.9033 9.57647 54.39ZM29.0045 43.435C30.4978 43.225 31.4545 43.3067 31.8745 43.68C32.2945 44.03 32.5628 44.9983 32.6795 46.585C32.7728 47.9617 32.6911 48.86 32.4345 49.28C32.2011 49.7 31.5245 50.0267 30.4045 50.26C29.3078 50.5167 28.5495 50.7617 28.1295 50.995C27.6161 51.2283 27.1261 51.345 26.6595 51.345C26.3795 51.345 26.1928 51.4033 26.0995 51.52C26.0295 51.6133 25.9945 51.8817 25.9945 52.325C25.9945 52.8617 26.0878 53.165 26.2745 53.235C26.4845 53.2817 27.1611 53.2 28.3045 52.99C29.4711 52.78 30.2178 52.6633 30.5445 52.64C30.6378 52.6167 31.1628 52.5117 32.1195 52.325C33.3328 52.045 33.9395 52.4067 33.9395 53.41C33.9395 54.11 33.4728 54.3667 32.5395 54.18C32.0495 54.0867 31.0461 54.2383 29.5295 54.635C26.7528 55.335 25.1078 55.3817 24.5945 54.775C24.3611 54.5183 24.1978 53.8533 24.1045 52.78C24.0345 51.6833 24.0811 50.96 24.2445 50.61C24.4311 50.26 25.0261 49.9683 26.0295 49.735C27.6861 49.2683 28.7478 48.965 29.2145 48.825L30.9645 48.3V47.005C30.9645 46.0717 30.8245 45.5233 30.5445 45.36C30.2645 45.1967 29.5411 45.2317 28.3745 45.465C26.6945 45.815 25.5161 46.0133 24.8395 46.06C24.1628 46.0833 23.7195 45.9667 23.5095 45.71C23.2761 45.43 23.2645 45.1617 23.4745 44.905C23.6378 44.695 24.2795 44.4383 25.3995 44.135C26.5428 43.8317 27.7445 43.5983 29.0045 43.435ZM32.4695 57.435C33.3095 56.9917 33.9978 56.8167 34.5345 56.91C35.0711 57.0033 35.3395 57.365 35.3395 57.995C35.3395 58.2283 35.2578 58.4267 35.0945 58.59C34.9311 58.7533 34.6861 58.8933 34.3595 59.01C34.0328 59.1267 33.5778 59.22 32.9945 59.29L31.4195 59.465L31.3845 62.58C31.3611 63.9567 31.3145 64.8433 31.2445 65.24C31.1978 65.6367 31.0695 65.905 30.8595 66.045C30.2295 66.4183 29.8328 66.0333 29.6695 64.89C29.5761 64.3533 29.5295 63.595 29.5295 62.615C29.5295 60.8417 29.4945 59.9083 29.4245 59.815C29.3078 59.745 28.6895 59.8383 27.5695 60.095C27.3361 60.1417 27.0211 60.2117 26.6245 60.305C26.2278 60.375 25.8895 60.445 25.6095 60.515C25.3528 60.5617 25.1545 60.5967 25.0145 60.62C24.4778 60.69 24.0695 60.6083 23.7895 60.375C23.5328 60.1183 23.4628 59.8033 23.5795 59.43C23.7195 59.0333 24.0345 58.73 24.5245 58.52C25.0378 58.2867 26.2978 58.1583 28.3045 58.135C29.1678 58.1117 29.8328 58.0883 30.2995 58.065C30.7895 58.0183 31.1861 57.9483 31.4895 57.855C31.8161 57.7383 32.1428 57.5983 32.4695 57.435ZM52.3979 44.975C53.2379 44.765 54.1012 44.835 54.9879 45.185C55.8979 45.5117 56.6679 46.025 57.2979 46.725C57.9512 47.425 58.4295 48.2533 58.7329 49.21C59.0362 50.1667 59.0712 51.1 58.8379 52.01C58.2312 54.2967 56.3529 55.4517 53.2029 55.475C51.9895 55.475 51.0445 55.3117 50.3679 54.985C49.6912 54.6583 49.0612 54.0517 48.4779 53.165C47.0779 51.065 47.2995 48.9883 49.1429 46.935C49.4929 46.5383 49.8079 46.235 50.0879 46.025C50.3679 45.7917 50.6829 45.605 51.0329 45.465C51.3829 45.3017 51.8379 45.1383 52.3979 44.975ZM55.5479 47.39C55.0579 46.9933 54.5679 46.7833 54.0779 46.76C53.5879 46.7133 52.9462 46.83 52.1529 47.11C50.9395 47.5533 50.0762 48.265 49.5629 49.245C49.2829 49.805 49.2595 50.4933 49.4929 51.31C49.7262 52.1033 50.1112 52.675 50.6479 53.025C51.3245 53.4217 52.0479 53.655 52.8179 53.725C53.5879 53.7717 54.2879 53.69 54.9179 53.48C55.5712 53.2467 56.1195 52.885 56.5629 52.395C57.0062 51.905 57.2279 51.345 57.2279 50.715C57.2279 49.4317 56.6679 48.3233 55.5479 47.39ZM63.0029 45.71C63.2362 45.4067 63.5162 45.2667 63.8429 45.29C64.1695 45.3133 64.3912 45.4883 64.5079 45.815C64.6012 46.2117 64.5662 46.7483 64.4029 47.425C64.2162 48.0783 64.0762 48.86 63.9829 49.77L63.8079 51.1L65.3829 50.89C66.2462 50.7967 66.8529 50.855 67.2029 51.065C67.5529 51.2517 67.6812 51.6017 67.5879 52.115C67.5645 52.2317 67.4945 52.3367 67.3779 52.43C67.2845 52.5 67.1329 52.57 66.9229 52.64C66.7129 52.6867 66.4095 52.7333 66.0129 52.78C65.0795 52.8733 64.4379 52.99 64.0879 53.13C63.7379 53.27 63.5745 53.48 63.5979 53.76V56.21C63.5745 57.1667 63.5279 57.75 63.4579 57.96C63.3879 58.17 63.1779 58.3217 62.8279 58.415C62.2679 58.555 61.9295 58.4733 61.8129 58.17C61.6262 57.68 61.7195 55.51 62.0929 51.66L62.2329 50.19C62.5129 47.4833 62.7695 45.99 63.0029 45.71ZM54.4279 59.22C54.6379 58.9633 54.7895 58.835 54.8829 58.835C54.9995 58.8117 55.2212 58.8817 55.5479 59.045C55.7812 59.185 55.9095 59.3717 55.9329 59.605C55.9795 59.8383 55.9679 60.3633 55.8979 61.18C55.8745 61.2967 55.8512 61.4717 55.8279 61.705C55.7579 62.3583 55.7929 62.72 55.9329 62.79C56.0729 62.86 56.5862 62.7783 57.4729 62.545C57.7762 62.475 58.0095 62.4167 58.1729 62.37C59.2229 62.1133 60.3429 61.9617 61.5329 61.915C62.7462 61.845 63.4229 61.915 63.5629 62.125C63.7262 62.3583 63.7962 62.545 63.7729 62.685C63.7495 62.825 63.6212 63.0233 63.3879 63.28C63.1079 63.5833 62.5712 63.735 61.7779 63.735C61.0312 63.735 60.1445 63.875 59.1179 64.155C58.2312 64.3883 57.2045 64.575 56.0379 64.715C55.3379 64.8083 54.8829 64.8317 54.6729 64.785C54.4862 64.7383 54.3229 64.575 54.1829 64.295C53.9495 63.8983 53.8679 63.035 53.9379 61.705C54.0079 60.3517 54.1712 59.5233 54.4279 59.22ZM73.4695 48.125C74.0062 47.9617 74.4612 47.915 74.8345 47.985C75.2312 48.0317 75.9078 48.265 76.8645 48.685C78.4278 49.3383 79.2212 50.7383 79.2445 52.885C79.2445 53.9817 79.1395 54.8217 78.9295 55.405C78.7428 55.965 78.3812 56.56 77.8445 57.19C77.3545 57.75 76.9812 58.0883 76.7245 58.205C76.4912 58.3217 76.0362 58.38 75.3595 58.38C74.0295 58.38 72.7578 57.9833 71.5445 57.19C70.3545 56.3967 69.6662 55.51 69.4795 54.53C69.3162 53.5733 69.3512 52.745 69.5845 52.045C69.8178 51.345 70.3195 50.61 71.0895 49.84C71.4628 49.4433 71.8828 49.0817 72.3495 48.755C72.8395 48.4283 73.2128 48.2183 73.4695 48.125ZM75.8845 49.98C75.3012 49.7933 74.8812 49.7233 74.6245 49.77C74.3678 49.7933 73.9012 49.9917 73.2245 50.365C72.4312 50.8317 71.9062 51.24 71.6495 51.59C71.3928 51.94 71.2528 52.43 71.2295 53.06C71.2295 53.8533 71.5212 54.5417 72.1045 55.125C72.7112 55.7083 73.5045 56.105 74.4845 56.315C75.2312 56.5017 75.6978 56.5833 75.8845 56.56C76.0712 56.5133 76.3278 56.2917 76.6545 55.895C76.8412 55.685 76.9695 55.4867 77.0395 55.3C77.1328 55.09 77.1912 54.8333 77.2145 54.53C77.2612 54.2267 77.2845 53.8067 77.2845 53.27C77.2845 52.1033 77.1912 51.3217 77.0045 50.925C76.8412 50.505 76.4678 50.19 75.8845 49.98ZM89.4645 48.125C89.6278 47.8917 89.8378 47.7867 90.0945 47.81C90.3512 47.81 90.5845 47.9383 90.7945 48.195C91.0278 48.475 91.0745 50.295 90.9345 53.655C90.7712 56.945 90.6895 58.975 90.6895 59.745C90.6662 60.4217 90.5728 60.8767 90.4095 61.11C90.2695 61.3433 89.9662 61.5067 89.4995 61.6L88.7645 61.74L89.0095 57.68C89.1728 54.4133 89.2545 52.2083 89.2545 51.065C89.2545 49.3383 89.3245 48.3583 89.4645 48.125ZM85.3345 48.65C85.8012 48.2067 86.2328 48.23 86.6295 48.72C86.8395 48.9767 86.8395 50.2833 86.6295 52.64C86.4895 54.4367 86.3262 56.4433 86.1395 58.66L85.9645 61.11H85.1595H84.3195L84.3545 57.855C84.3545 57.8083 84.3545 57.75 84.3545 57.68C84.4012 56.0233 84.3545 55.09 84.2145 54.88C84.0745 54.6467 83.5612 54.6583 82.6745 54.915C82.6045 54.9383 82.5578 54.95 82.5345 54.95C81.9512 55.1367 81.3912 55.1833 80.8545 55.09C80.3178 54.9967 80.0495 54.8217 80.0495 54.565C80.0495 54.1217 80.2478 53.7717 80.6445 53.515C81.0645 53.2583 81.7412 53.0833 82.6745 52.99C83.9345 52.8267 84.6462 52.6283 84.8095 52.395C84.9495 52.115 85.0195 51.4733 85.0195 50.47C85.0195 49.4667 85.1245 48.86 85.3345 48.65ZM116.092 47.705C116.302 47.1683 116.803 47.0983 117.597 47.495C117.783 47.6117 117.888 47.7517 117.912 47.915C117.958 48.0783 117.935 48.37 117.842 48.79C117.702 49.5367 117.585 50.3533 117.492 51.24L117.352 52.71L118.612 52.535C120.315 52.325 121.167 52.045 121.167 51.695C121.26 49.875 121.388 48.685 121.552 48.125C121.738 47.5417 122.065 47.3083 122.532 47.425C122.905 47.5183 123.127 47.7517 123.197 48.125C123.29 48.475 123.267 49.0583 123.127 49.875C122.94 50.8317 122.777 52.955 122.637 56.245C122.567 58.5083 122.485 59.9317 122.392 60.515C122.322 61.075 122.17 61.425 121.937 61.565C121.587 61.7517 121.272 61.7867 120.992 61.67C120.805 61.6 120.688 61.3433 120.642 60.9C120.618 60.4333 120.618 59.4183 120.642 57.855L120.747 54.25L119.872 54.285C119.312 54.285 118.717 54.4133 118.087 54.67L117.247 55.02L117.352 57.82C117.422 58.7767 117.433 59.5117 117.387 60.025C117.34 60.515 117.247 60.8417 117.107 61.005C116.99 61.1683 116.78 61.25 116.477 61.25C115.94 61.25 115.625 60.9 115.532 60.2C115.462 59.5 115.485 57.54 115.602 54.32C115.812 50.1667 115.975 47.9617 116.092 47.705ZM109.617 47.95C110.83 47.7633 111.542 47.915 111.752 48.405C111.962 48.8717 112.008 50.435 111.892 53.095C111.798 55.2417 111.717 56.5133 111.647 56.91C111.577 57.3067 111.367 57.5867 111.017 57.75C110.55 58.03 109.232 58.1817 107.062 58.205L103.877 58.275L103.597 57.19C103.48 56.7467 103.387 55.79 103.317 54.32C103.247 52.85 103.235 51.6133 103.282 50.61C103.328 49.4667 105.44 48.58 109.617 47.95ZM110.352 49.98H109.372C108.765 49.98 107.878 50.1433 106.712 50.47L105.067 50.925L104.997 53.025C104.927 54.285 104.95 55.1717 105.067 55.685C105.16 56.0117 105.312 56.1983 105.522 56.245C105.732 56.2917 106.397 56.28 107.517 56.21L109.757 56.105L109.932 55.16C110.048 54.53 110.142 53.515 110.212 52.115L110.352 49.98ZM129.604 42.21C129.651 42.07 129.861 42 130.234 42C130.537 42 130.736 42.2217 130.829 42.665C130.946 43.085 130.922 43.68 130.759 44.45C130.666 44.94 130.596 45.2667 130.549 45.43C130.526 45.5933 130.514 45.8033 130.514 46.06C130.514 46.2933 130.526 46.4333 130.549 46.48C130.572 46.5033 130.677 46.5383 130.864 46.585C131.051 46.6317 131.214 46.6433 131.354 46.62C131.494 46.5967 131.751 46.5617 132.124 46.515C133.501 46.3517 134.271 46.5033 134.434 46.97C134.621 47.4133 134.212 48.265 133.209 49.525C132.486 50.4117 132.124 50.925 132.124 51.065C132.124 51.205 132.357 51.4733 132.824 51.87C133.291 52.2667 133.827 52.64 134.434 52.99C135.157 53.4333 135.519 53.9117 135.519 54.425C135.496 54.7517 135.274 54.915 134.854 54.915C134.457 54.915 133.932 54.74 133.279 54.39C132.649 54.0167 132.054 53.5617 131.494 53.025L130.724 52.325L130.024 53.13C129.137 54.18 128.496 54.88 128.099 55.23C127.726 55.58 127.411 55.755 127.154 55.755C126.781 55.755 126.547 55.615 126.454 55.335C126.361 55.0317 126.442 54.6817 126.699 54.285C126.979 53.8883 127.912 52.8617 129.499 51.205C131.086 49.525 131.879 48.615 131.879 48.475C131.879 48.4517 131.844 48.4283 131.774 48.405C131.727 48.3817 131.657 48.37 131.564 48.37C131.471 48.37 131.366 48.3933 131.249 48.44C130.712 48.5567 129.639 48.755 128.029 49.035C126.186 49.3383 125.194 49.3383 125.054 49.035C124.984 48.8717 125.031 48.615 125.194 48.265C125.287 48.0083 125.462 47.8217 125.719 47.705C125.999 47.5883 126.501 47.4717 127.224 47.355C128.414 47.1683 128.974 46.9583 128.904 46.725C128.857 46.5383 128.939 45.78 129.149 44.45C129.359 43.12 129.511 42.3733 129.604 42.21ZM137.899 46.935C138.062 46.6317 138.202 46.4683 138.319 46.445C138.436 46.4217 138.669 46.5033 139.019 46.69C139.276 46.83 139.427 47.1333 139.474 47.6C139.521 48.0433 139.544 49.175 139.544 50.995C139.497 53.795 139.439 55.3 139.369 55.51C139.276 55.8367 139.019 56.0117 138.599 56.035C138.179 56.035 137.911 55.8833 137.794 55.58C137.654 55.2067 137.596 53.7483 137.619 51.205C137.666 48.6383 137.759 47.215 137.899 46.935ZM132.754 58.135C133.384 57.8317 134.236 57.68 135.309 57.68C135.799 57.68 136.207 57.7267 136.534 57.82C136.884 57.89 137.199 58.0067 137.479 58.17C137.759 58.3333 138.004 58.555 138.214 58.835C138.424 59.0917 138.634 59.4183 138.844 59.815C139.101 60.305 139.206 60.9583 139.159 61.775C139.112 62.5683 138.914 63.385 138.564 64.225C138.377 64.715 137.922 65.1583 137.199 65.555C136.499 65.975 135.811 66.1967 135.134 66.22C134.551 66.22 133.862 65.9983 133.069 65.555C132.276 65.1117 131.669 64.6217 131.249 64.085C130.526 63.105 130.316 61.985 130.619 60.725C130.946 59.465 131.657 58.6017 132.754 58.135ZM136.639 59.745C136.079 59.325 135.344 59.2317 134.434 59.465C133.524 59.675 132.882 60.095 132.509 60.725C132.229 61.2383 132.124 61.6583 132.194 61.985C132.264 62.3117 132.556 62.7433 133.069 63.28C134.282 64.5867 135.484 64.68 136.674 63.56C137.024 63.2333 137.234 62.965 137.304 62.755C137.374 62.5217 137.374 62.1017 137.304 61.495C137.187 60.5617 136.966 59.9783 136.639 59.745Z" fill="#F49393"/>
</svg>
