<svg width="233" height="68" viewBox="0 0 233 68" fill="none" xmlns="http://www.w3.org/2000/svg">
<path d="M93.8454 4.31C93.9388 4.05333 94.1488 3.925 94.4754 3.925C94.9421 3.925 95.2338 4.11167 95.3504 4.485C95.4671 4.835 95.4438 5.55833 95.2804 6.655C95.1171 7.96167 95.1288 8.72 95.3154 8.93C95.5254 9.11667 96.2488 9.09333 97.4854 8.86C98.5821 8.67333 99.3171 8.62667 99.6904 8.72C100.064 8.79 100.25 9.04667 100.25 9.49C100.25 9.79333 100.169 9.99167 100.005 10.085C99.8654 10.1783 99.5154 10.26 98.9554 10.33C98.0921 10.4233 97.1938 10.6217 96.2604 10.925L94.8604 11.38L95.0004 13.305L95.1404 15.195H94.2304C93.6471 15.195 93.2971 15.055 93.1804 14.775C93.0871 14.5417 93.1338 12.815 93.3204 9.595C93.5304 6.375 93.7054 4.61333 93.8454 4.31ZM85.6904 5.535C86.1571 4.99833 86.5771 4.625 86.9504 4.415C87.3471 4.205 87.6154 4.15833 87.7554 4.275C87.9188 4.39167 87.9304 4.66 87.7904 5.08C87.6504 5.5 87.3588 6.00167 86.9154 6.585C86.2621 7.355 85.9354 7.86833 85.9354 8.125C85.9354 8.21833 86.0754 8.39333 86.3554 8.65C86.6354 8.88333 86.9504 9.11667 87.3004 9.35C89.1671 10.61 90.1004 11.625 90.1004 12.395C90.1004 13.5383 89.3654 13.445 87.8954 12.115C87.3354 11.555 86.7288 11.065 86.0754 10.645C85.4221 10.2017 84.9788 9.98 84.7454 9.98C84.6054 9.98 84.3371 10.4117 83.9404 11.275C83.5438 12.1383 83.3104 12.8033 83.2404 13.27C83.1704 13.7133 83.0654 13.9933 82.9254 14.11C82.8088 14.2033 82.5754 14.25 82.2254 14.25C81.8754 14.25 81.6421 14.2033 81.5254 14.11C81.4088 14.0167 81.3388 13.8183 81.3154 13.515C81.2454 12.9317 81.6888 11.765 82.6454 10.015C83.6254 8.265 84.6404 6.77167 85.6904 5.535ZM89.8554 16.84C90.6721 16.5367 91.3371 16.42 91.8504 16.49C92.3638 16.5367 92.9821 16.7933 93.7054 17.26C95.2921 18.31 95.9804 19.8267 95.7704 21.81C95.7004 22.6967 95.5138 23.3967 95.2104 23.91C94.9071 24.4233 94.3938 24.9133 93.6704 25.38C93.2738 25.6367 92.9238 25.7883 92.6204 25.835C92.3404 25.905 91.8971 25.905 91.2904 25.835C90.3104 25.7183 89.5404 25.5317 88.9804 25.275C88.4438 25.0417 87.9188 24.6333 87.4054 24.05C86.6354 23.1633 86.2621 22.16 86.2854 21.04C86.3088 19.8967 86.7288 18.94 87.5454 18.17C88.0588 17.6333 88.8288 17.19 89.8554 16.84ZM93.3554 19.185C92.3988 18.2283 91.2438 18.0883 89.8904 18.765C89.2371 19.0683 88.7821 19.4067 88.5254 19.78C88.2688 20.1533 88.1404 20.6667 88.1404 21.32C88.1404 21.67 88.2338 22.0317 88.4204 22.405C88.6304 22.755 88.8988 23.07 89.2254 23.35C89.5754 23.63 89.9254 23.8167 90.2754 23.91C90.7888 24.05 91.3721 24.0383 92.0254 23.875C92.7021 23.7117 93.1804 23.4783 93.4604 23.175C93.9038 22.7317 94.1138 22.0783 94.0904 21.215C94.0671 20.3283 93.8221 19.6517 93.3554 19.185ZM114.664 7.985C114.851 7.47167 115.154 7.215 115.574 7.215C115.737 7.215 115.866 7.23833 115.959 7.285C116.076 7.33167 116.169 7.425 116.239 7.565C116.309 7.68167 116.356 7.83333 116.379 8.02C116.402 8.20667 116.402 8.48667 116.379 8.86C116.379 9.23333 116.356 9.65333 116.309 10.12C116.262 10.5633 116.204 11.135 116.134 11.835L115.994 12.78L117.464 12.57C118.771 12.4067 119.541 12.2083 119.774 11.975C120.007 11.7417 120.124 11.0883 120.124 10.015C120.124 8.265 120.392 7.37833 120.929 7.355C121.092 7.355 121.267 7.40167 121.454 7.495C121.734 7.635 121.897 7.79833 121.944 7.985C121.991 8.14833 121.979 8.475 121.909 8.965C121.792 9.92167 121.687 12.1617 121.594 15.685C121.524 18.4383 121.442 20.0717 121.349 20.585C121.279 21.0983 121.092 21.425 120.789 21.565C120.346 21.775 120.054 21.81 119.914 21.67C119.774 21.5067 119.727 20.27 119.774 17.96C119.821 15.9067 119.739 14.74 119.529 14.46C119.342 14.1567 118.654 14.18 117.464 14.53L115.924 14.95L116.029 17.715C116.076 18.9283 116.076 19.7217 116.029 20.095C115.982 20.445 115.854 20.6783 115.644 20.795C115.317 21.005 115.002 21.005 114.699 20.795C114.466 20.6783 114.326 20.2933 114.279 19.64C114.232 18.9633 114.232 17.295 114.279 14.635C114.349 10.6917 114.477 8.475 114.664 7.985ZM108.434 7.775C108.784 7.61167 109.286 7.55333 109.939 7.6C110.359 7.62333 110.627 7.68167 110.744 7.775C110.861 7.86833 110.919 8.10167 110.919 8.475V9.28L107.979 9.595C105.949 9.85167 104.724 10.0617 104.304 10.225C103.954 10.365 103.744 10.505 103.674 10.645C103.627 10.7617 103.639 10.995 103.709 11.345C103.826 12.045 103.884 12.9083 103.884 13.935C103.884 15.0783 104.012 15.8133 104.269 16.14C104.549 16.4433 105.202 16.6067 106.229 16.63C107.372 16.63 108.387 16.56 109.274 16.42C109.904 16.3267 110.312 16.3033 110.499 16.35C110.709 16.3967 110.884 16.5367 111.024 16.77C111.304 17.3067 111.292 17.68 110.989 17.89C110.709 18.1 110.021 18.2517 108.924 18.345C104.957 18.6483 102.881 18.59 102.694 18.17C102.601 17.9133 102.437 16.4433 102.204 13.76C102.064 11.9867 101.994 10.8433 101.994 10.33C101.994 9.81667 102.087 9.47833 102.274 9.315C102.437 9.15167 102.787 8.97667 103.324 8.79C103.861 8.58 104.456 8.405 105.109 8.265C105.762 8.125 106.311 8.04333 106.754 8.02C107.501 8.02 108.061 7.93833 108.434 7.775ZM128.772 3.68C128.819 3.68 128.889 3.66833 128.982 3.645C130.662 3.48167 131.654 3.42333 131.957 3.47C132.261 3.49333 132.482 3.65667 132.622 3.96C132.646 4.00667 132.657 4.04167 132.657 4.065C132.751 4.32167 132.809 4.54333 132.832 4.73C132.856 4.89333 132.739 5.02167 132.482 5.115C132.226 5.20833 131.887 5.27833 131.467 5.325C131.071 5.34833 130.464 5.37167 129.647 5.395C128.854 5.41833 128.224 5.45333 127.757 5.5C127.314 5.54667 126.917 5.61667 126.567 5.71C126.241 5.80333 126.007 5.96667 125.867 6.2C125.727 6.41 125.622 6.655 125.552 6.935C125.506 7.215 125.482 7.61167 125.482 8.125V9.77L126.497 9.56C130.581 8.76667 132.622 8.86 132.622 9.84C132.622 10.2133 132.471 10.47 132.167 10.61C131.887 10.7267 131.327 10.7967 130.487 10.82C129.601 10.82 128.562 10.9833 127.372 11.31C126.579 11.52 126.089 11.695 125.902 11.835C125.716 11.9517 125.646 12.1617 125.692 12.465C125.739 13.025 125.914 13.3517 126.217 13.445C126.521 13.515 127.197 13.4333 128.247 13.2C131.234 12.5467 132.902 12.5 133.252 13.06C133.439 13.34 133.416 13.6317 133.182 13.935C132.972 14.2383 132.657 14.39 132.237 14.39C131.864 14.39 130.767 14.565 128.947 14.915C127.267 15.265 126.136 15.44 125.552 15.44C124.969 15.44 124.631 15.2883 124.537 14.985C124.141 13.7483 123.884 11.8933 123.767 9.42C123.651 6.94667 123.744 5.535 124.047 5.185C124.747 4.39167 126.322 3.89 128.772 3.68ZM136.087 5.185C136.181 4.92833 136.391 4.78833 136.717 4.765C137.067 4.71833 137.312 4.81167 137.452 5.045C137.569 5.23167 137.651 7.02833 137.697 10.435V15.51L137.067 15.65C136.647 15.7433 136.356 15.6733 136.192 15.44C136.006 15.16 135.889 13.5267 135.842 10.54C135.819 7.55333 135.901 5.76833 136.087 5.185ZM134.477 17.645C134.967 17.4817 135.236 17.4 135.282 17.4C135.329 17.4 135.422 17.435 135.562 17.505C135.726 17.5517 135.889 17.6333 136.052 17.75C136.216 17.8667 136.367 17.9833 136.507 18.1C136.671 18.1933 136.776 18.275 136.822 18.345C136.962 18.5783 137.032 19.605 137.032 21.425C137.032 23.035 136.904 23.9917 136.647 24.295C136.414 24.5983 135.597 24.82 134.197 24.96C133.871 24.9833 133.322 25.03 132.552 25.1C131.806 25.1933 131.327 25.2517 131.117 25.275C130.791 25.3217 130.522 25.345 130.312 25.345C130.102 25.345 129.904 25.3217 129.717 25.275C129.531 25.2517 129.391 25.1817 129.297 25.065C129.204 24.9483 129.111 24.8083 129.017 24.645C128.947 24.505 128.889 24.2717 128.842 23.945C128.819 23.6417 128.796 23.3267 128.772 23C128.772 22.65 128.772 22.2067 128.772 21.67C128.772 19.85 128.842 18.835 128.982 18.625C129.122 18.415 129.554 18.31 130.277 18.31C131.631 18.31 133.031 18.0883 134.477 17.645ZM135.212 19.745L134.127 19.675C133.731 19.675 133.311 19.71 132.867 19.78C132.424 19.8267 132.004 19.92 131.607 20.06C131.234 20.2 130.966 20.34 130.802 20.48C130.546 20.69 130.417 21.2383 130.417 22.125V23.455L132.027 23.28C132.307 23.2333 132.716 23.175 133.252 23.105C133.789 23.0583 134.127 23.0233 134.267 23C134.361 23 134.466 22.9883 134.582 22.965C134.722 22.9417 134.827 22.93 134.897 22.93C134.991 22.93 135.049 22.93 135.072 22.93C135.166 22.8833 135.212 22.335 135.212 21.285V19.745ZM142.885 1.545C144.308 0.868332 145.72 0.844999 147.12 1.475C148.543 2.105 149.488 3.17833 149.955 4.695C150.072 5.13833 150.118 5.52333 150.095 5.85C150.072 6.17667 149.978 6.62 149.815 7.18C149.558 7.95 149.15 8.60333 148.59 9.14C148.053 9.67667 147.33 10.155 146.42 10.575C145.907 10.785 145.51 10.9017 145.23 10.925C144.95 10.9483 144.565 10.89 144.075 10.75C143.655 10.6567 143.223 10.5283 142.78 10.365C142.36 10.1783 141.987 9.99167 141.66 9.805C141.333 9.61833 141.088 9.44333 140.925 9.28C140.692 9.07 140.458 8.77833 140.225 8.405C139.992 8.03167 139.805 7.65833 139.665 7.285C139.525 6.91167 139.455 6.60833 139.455 6.375C139.455 5.44167 139.77 4.52 140.4 3.61C141.053 2.7 141.882 2.01166 142.885 1.545ZM147.225 3.47C146.805 3.07333 146.257 2.875 145.58 2.875C144.903 2.85167 144.262 2.98 143.655 3.26C143.048 3.54 142.512 3.94833 142.045 4.485C141.602 4.99833 141.38 5.54667 141.38 6.13C141.38 6.66667 141.625 7.215 142.115 7.775C142.628 8.335 143.212 8.70833 143.865 8.895C144.542 9.105 145.148 9.11667 145.685 8.93C146.222 8.72 146.84 8.24167 147.54 7.495C148.1 6.98167 148.403 6.62 148.45 6.41C148.52 6.2 148.473 5.815 148.31 5.255C148.053 4.50833 147.692 3.91333 147.225 3.47ZM149.5 12.185C150.363 11.8117 150.993 11.9167 151.39 12.5C151.577 12.78 151.67 12.9783 151.67 13.095C151.67 13.2117 151.565 13.3867 151.355 13.62C151.075 13.9467 150.352 14.11 149.185 14.11C147.972 14.11 146.443 14.3083 144.6 14.705C142.71 15.1017 141.45 15.3 140.82 15.3C140.4 15.3233 140.132 15.3 140.015 15.23C139.922 15.1367 139.875 14.9383 139.875 14.635C139.875 14.3783 139.968 14.145 140.155 13.935C140.342 13.725 140.61 13.5617 140.96 13.445C141.333 13.3283 141.742 13.27 142.185 13.27C142.815 13.27 143.597 13.1417 144.53 12.885C145.393 12.6283 146.35 12.4767 147.4 12.43C148.45 12.43 149.15 12.3483 149.5 12.185ZM146.175 16.805C146.828 16.5483 147.598 16.5017 148.485 16.665C149.395 16.805 149.978 17.085 150.235 17.505C150.375 17.715 150.433 18.3333 150.41 19.36C150.41 20.3633 150.34 21.0517 150.2 21.425C149.897 22.1717 148.555 22.615 146.175 22.755C144.775 22.825 144.028 22.86 143.935 22.86C143.702 22.8833 143.585 23.1167 143.585 23.56C143.585 24.0033 143.772 24.26 144.145 24.33C144.542 24.4233 145.218 24.365 146.175 24.155C148.905 23.4783 150.457 23.455 150.83 24.085C150.9 24.3183 150.947 24.505 150.97 24.645C151.017 24.785 150.853 24.925 150.48 25.065C150.107 25.205 149.628 25.3333 149.045 25.45C148.462 25.59 147.587 25.765 146.42 25.975C144.717 26.255 143.48 26.2083 142.71 25.835C141.963 25.4617 141.59 24.7033 141.59 23.56C141.59 22.7667 141.812 22.23 142.255 21.95C142.722 21.6467 143.702 21.425 145.195 21.285C146.922 21.075 147.913 20.8767 148.17 20.69C148.427 20.48 148.555 20.06 148.555 19.43C148.555 18.9867 148.508 18.73 148.415 18.66C148.322 18.5667 148.018 18.52 147.505 18.52C146.875 18.52 145.778 18.6717 144.215 18.975C142.535 19.325 141.625 19.325 141.485 18.975C141.438 18.8117 141.485 18.555 141.625 18.205C141.718 17.9017 141.893 17.6917 142.15 17.575C142.407 17.435 142.873 17.295 143.55 17.155C144.693 16.9217 145.323 16.84 145.44 16.91C145.58 17.0033 145.825 16.9683 146.175 16.805ZM140.236 44.94C140.19 44.17 140.19 43.715 140.236 43.575C140.306 43.435 140.516 43.365 140.866 43.365C141.846 43.365 142.208 44.4033 141.951 46.48L141.776 48.055L142.966 48.02C143.876 47.9967 144.565 47.9267 145.031 47.81C145.311 47.74 145.591 47.7167 145.871 47.74C146.151 47.74 146.396 47.7867 146.606 47.88C146.816 47.95 146.991 48.0667 147.131 48.23C147.295 48.3933 147.4 48.5683 147.446 48.755C147.516 49.2217 147.4 49.525 147.096 49.665C146.816 49.805 146.373 49.7933 145.766 49.63C145.136 49.4667 144.46 49.4783 143.736 49.665C143.013 49.875 142.103 50.0267 141.006 50.12C139.84 50.26 139 50.4467 138.486 50.68C137.996 50.9367 137.46 51.065 136.876 51.065C136.55 51.065 136.328 51.03 136.211 50.96C136.118 50.8667 136.071 50.68 136.071 50.4C136.071 49.9567 136.223 49.6417 136.526 49.455C136.83 49.245 137.483 49.0467 138.486 48.86C139.35 48.6733 139.851 48.5217 139.991 48.405C140.155 48.2883 140.248 47.985 140.271 47.495C140.271 46.375 140.26 45.5233 140.236 44.94ZM154.376 48.37C154.446 48.1367 154.738 48.055 155.251 48.125L155.986 48.195L155.916 50.225C155.846 51.5083 155.73 53.1183 155.566 55.055C155.356 56.8983 155.321 58.415 155.461 59.605C155.531 60.4683 155.543 61.005 155.496 61.215C155.473 61.4017 155.298 61.565 154.971 61.705C154.528 61.915 154.201 61.95 153.991 61.81C153.805 61.67 153.688 60.6667 153.641 58.8C153.595 57.2133 153.478 56.28 153.291 56C153.128 55.6967 152.673 55.72 151.926 56.07L151.086 56.525L151.226 58.8C151.32 59.7567 151.343 60.3983 151.296 60.725C151.273 61.0517 151.168 61.285 150.981 61.425C150.421 61.8683 149.943 61.8683 149.546 61.425C149.336 61.1217 149.278 59.1967 149.371 55.65C149.441 52.99 149.546 51.24 149.686 50.4C149.826 49.56 150.095 49.14 150.491 49.14C150.888 49.14 151.156 49.3617 151.296 49.805C151.436 50.225 151.495 50.9367 151.471 51.94L151.366 53.97L152.171 54.04C152.685 54.0867 153.058 54.04 153.291 53.9C153.548 53.76 153.735 53.48 153.851 53.06C153.968 52.64 154.061 51.975 154.131 51.065C154.225 49.455 154.306 48.5567 154.376 48.37ZM140.901 52.115C141.461 51.7883 141.975 51.6367 142.441 51.66C142.931 51.66 143.538 51.8583 144.261 52.255C145.988 53.1183 146.898 54.4017 146.991 56.105C147.038 56.735 147.015 57.2133 146.921 57.54C146.851 57.8433 146.606 58.2983 146.186 58.905C145.556 59.8617 144.973 60.515 144.436 60.865C143.9 61.1917 143.235 61.3433 142.441 61.32C140.598 61.25 139.256 60.5967 138.416 59.36C137.6 58.1 137.553 56.6533 138.276 55.02C138.58 54.2733 138.93 53.69 139.326 53.27C139.723 52.8267 140.248 52.4417 140.901 52.115ZM143.911 53.83C143.375 53.62 142.92 53.5383 142.546 53.585C142.196 53.6317 141.776 53.83 141.286 54.18C140.75 54.53 140.33 55.0433 140.026 55.72C139.723 56.3967 139.641 56.9917 139.781 57.505C139.875 57.9483 140.05 58.3333 140.306 58.66C140.563 58.9633 140.866 59.1967 141.216 59.36C141.566 59.5233 141.951 59.605 142.371 59.605C142.815 59.605 143.153 59.5467 143.386 59.43C143.62 59.3133 143.911 59.045 144.261 58.625C144.845 57.9483 145.183 57.33 145.276 56.77C145.393 56.2333 145.3 55.65 144.996 55.02C144.693 54.39 144.331 53.9933 143.911 53.83ZM167.051 45.115C167.215 44.975 167.413 45.0217 167.646 45.255C167.903 45.4883 168.078 45.7567 168.171 46.06C168.288 46.3633 168.3 46.6083 168.206 46.795C168.043 46.935 166.911 47.0283 164.811 47.075C163.575 47.075 162.7 47.11 162.186 47.18C161.673 47.25 161.265 47.39 160.961 47.6C160.751 47.7167 160.611 47.81 160.541 47.88C160.471 47.95 160.401 48.1133 160.331 48.37C160.261 48.6033 160.226 48.8717 160.226 49.175C160.226 49.455 160.226 49.945 160.226 50.645C160.226 52.3717 160.296 53.2933 160.436 53.41C160.576 53.48 161.195 53.5267 162.291 53.55C163.505 53.55 165.021 53.41 166.841 53.13C167.495 53.0133 167.95 53.1067 168.206 53.41C168.79 54.1333 168.288 54.6583 166.701 54.985C166.515 55.0317 166.316 55.0667 166.106 55.09C164.916 55.2767 163.54 55.4167 161.976 55.51C160.436 55.6033 159.573 55.6033 159.386 55.51C159.153 55.3467 158.908 54.67 158.651 53.48C158.395 52.2667 158.266 51.205 158.266 50.295C158.266 49.105 158.173 48.3583 157.986 48.055C157.8 47.6583 157.963 47.2617 158.476 46.865C158.99 46.4683 159.771 46.1417 160.821 45.885C161.871 45.605 163.038 45.43 164.321 45.36C166.095 45.2667 167.005 45.185 167.051 45.115ZM167.856 60.305C167.973 60.165 168.23 60.1183 168.626 60.165C169.046 60.2117 169.326 60.305 169.466 60.445C169.7 60.6783 169.746 60.97 169.606 61.32C169.49 61.6467 169.256 61.8683 168.906 61.985C168.556 62.1017 167.53 62.1483 165.826 62.125C164.31 62.1017 162.688 62.16 160.961 62.3C160.285 62.3467 159.666 62.37 159.106 62.37C158.57 62.37 158.243 62.335 158.126 62.265C157.893 62.125 157.765 61.8917 157.741 61.565C157.718 61.215 157.835 60.9467 158.091 60.76C158.278 60.5967 159.935 60.4917 163.061 60.445C166.211 60.4217 167.81 60.375 167.856 60.305ZM175.612 41.86C176.639 41.65 177.479 41.5217 178.132 41.475C178.646 41.475 178.949 41.6267 179.042 41.93C179.159 42.21 179.299 43.225 179.462 44.975C179.509 45.3483 179.532 45.6633 179.532 45.92C179.532 46.1533 179.509 46.3867 179.462 46.62C179.416 46.8533 179.322 47.04 179.182 47.18C179.042 47.32 178.879 47.46 178.692 47.6C178.506 47.74 178.226 47.8683 177.852 47.985C177.479 48.1017 177.094 48.2183 176.697 48.335C176.301 48.4283 175.787 48.5567 175.157 48.72C174.807 48.79 174.586 48.895 174.492 49.035C174.422 49.175 174.387 49.4783 174.387 49.945C174.387 50.5517 174.492 50.9367 174.702 51.1C174.936 51.24 175.426 51.24 176.172 51.1C177.059 50.9367 177.666 50.785 177.992 50.645C178.459 50.4817 178.867 50.47 179.217 50.61C179.591 50.7267 179.789 50.96 179.812 51.31C179.836 51.52 179.836 51.695 179.812 51.835C179.812 51.975 179.754 52.1033 179.637 52.22C179.521 52.3133 179.369 52.395 179.182 52.465C178.996 52.5117 178.739 52.57 178.412 52.64C177.712 52.7333 177.129 52.8617 176.662 53.025C176.242 53.1883 175.647 53.2817 174.877 53.305C174.107 53.305 173.617 53.2233 173.407 53.06C172.754 52.6633 172.427 51.6833 172.427 50.12C172.427 49.4433 172.474 48.9767 172.567 48.72C172.684 48.44 172.917 48.1133 173.267 47.74C173.827 47.2267 174.352 46.97 174.842 46.97C175.356 46.97 175.997 46.7833 176.767 46.41C177.304 46.1533 177.619 45.955 177.712 45.815C177.829 45.675 177.852 45.3833 177.782 44.94C177.666 44.2867 177.584 43.8783 177.537 43.715C177.444 43.5283 177.141 43.47 176.627 43.54C176.114 43.61 175.239 43.8317 174.002 44.205C172.999 44.5317 172.357 44.695 172.077 44.695C171.797 44.695 171.599 44.5667 171.482 44.31C171.319 43.8433 171.599 43.4 172.322 42.98C173.046 42.5367 174.142 42.1633 175.612 41.86ZM183.767 48.02C183.721 45.5 183.721 44.0067 183.767 43.54C183.814 43.0733 183.977 42.84 184.257 42.84C184.887 42.84 185.249 43.0617 185.342 43.505C185.459 43.925 185.517 45.4533 185.517 48.09V53.095L184.852 53.34C184.362 53.48 184.082 53.5033 184.012 53.41C183.919 53.2933 183.837 51.4967 183.767 48.02ZM178.552 56.28C180.069 55.9533 181.317 55.8133 182.297 55.86C183.371 55.9067 184.059 56.1517 184.362 56.595C184.689 57.0383 184.852 58.0533 184.852 59.64C184.852 60.0833 184.852 60.41 184.852 60.62C184.852 60.83 184.829 61.075 184.782 61.355C184.736 61.6117 184.689 61.7867 184.642 61.88C184.619 61.9733 184.537 62.09 184.397 62.23C184.257 62.3467 184.117 62.4167 183.977 62.44C183.861 62.4633 183.651 62.4983 183.347 62.545C183.067 62.5917 182.799 62.615 182.542 62.615C182.309 62.615 181.947 62.615 181.457 62.615C180.127 62.615 179.241 62.72 178.797 62.93C178.377 63.1167 178.202 63.525 178.272 64.155C178.296 64.5517 178.366 64.785 178.482 64.855C178.622 64.925 178.949 64.925 179.462 64.855C180.139 64.7617 181.282 64.715 182.892 64.715C183.942 64.715 184.596 64.7383 184.852 64.785C185.132 64.8317 185.296 64.9717 185.342 65.205C185.412 65.5783 185.319 65.8467 185.062 66.01C184.829 66.1733 184.327 66.29 183.557 66.36C182.764 66.43 181.609 66.57 180.092 66.78C178.599 66.99 177.747 67.0367 177.537 66.92C176.954 66.71 176.569 65.9983 176.382 64.785C176.219 63.5717 176.359 62.6733 176.802 62.09C177.012 61.8333 177.292 61.6583 177.642 61.565C177.992 61.4483 178.704 61.3317 179.777 61.215C181.434 61.0517 182.367 60.9233 182.577 60.83C182.811 60.76 182.892 60.2467 182.822 59.29L182.752 57.785L181.072 57.855C180.046 57.9017 178.949 58.1 177.782 58.45C176.826 58.7533 176.196 58.8817 175.892 58.835C175.612 58.7883 175.472 58.5433 175.472 58.1C175.472 57.6333 175.671 57.2833 176.067 57.05C176.464 56.8167 177.292 56.56 178.552 56.28ZM204.772 47.95C204.912 47.6 205.087 47.39 205.297 47.32C205.531 47.2267 205.846 47.25 206.242 47.39C206.522 47.5067 206.662 47.7517 206.662 48.125C206.662 48.475 206.522 49.175 206.242 50.225C205.939 51.415 205.741 53.4683 205.647 56.385L205.437 60.83L204.702 61.075C204.096 61.285 203.734 61.2267 203.617 60.9C203.501 60.5267 203.501 59.395 203.617 57.505C203.781 55.3583 203.827 54.2267 203.757 54.11C203.687 54.04 203.069 54.1567 201.902 54.46C200.829 54.74 200.036 54.8917 199.522 54.915C199.009 54.915 198.647 54.7867 198.437 54.53C198.227 54.25 198.251 53.9933 198.507 53.76C198.834 53.4567 199.359 53.165 200.082 52.885C200.806 52.605 201.412 52.465 201.902 52.465C202.252 52.465 202.579 52.43 202.882 52.36C203.209 52.2667 203.489 52.15 203.722 52.01C203.979 51.8467 204.166 51.6717 204.282 51.485C204.422 51.275 204.492 50.75 204.492 49.91C204.492 49.0233 204.586 48.37 204.772 47.95ZM210.092 47.635C210.186 47.4017 210.396 47.2733 210.722 47.25C211.072 47.2267 211.364 47.3317 211.597 47.565C211.784 47.775 211.889 48.6967 211.912 50.33C211.936 51.9633 211.842 53.1767 211.632 53.97C211.446 54.8333 211.306 56.2333 211.212 58.17C211.119 59.64 211.026 60.55 210.932 60.9C210.839 61.2267 210.652 61.46 210.372 61.6C209.812 61.8567 209.474 61.8217 209.357 61.495C209.171 60.9583 209.322 58.4267 209.812 53.9C209.859 53.4567 209.917 52.9317 209.987 52.325C210.151 50.8783 210.186 49.805 210.092 49.105C209.999 48.4283 209.999 47.9383 210.092 47.635ZM194.272 48.475C194.389 48.3583 194.844 48.335 195.637 48.405C196.454 48.4517 196.921 48.545 197.037 48.685C197.224 48.9183 197.224 49.6183 197.037 50.785C196.944 51.3917 196.687 53.1767 196.267 56.14C196.244 56.1633 196.232 56.1867 196.232 56.21C196.022 57.9833 195.859 59.0217 195.742 59.325C195.649 59.6283 195.416 59.7917 195.042 59.815C194.552 59.885 194.249 59.7683 194.132 59.465C194.016 59.2083 194.109 57.9833 194.412 55.79C194.926 52.43 195.136 50.6333 195.042 50.4C195.019 50.3067 194.856 50.295 194.552 50.365C192.592 50.7383 191.087 50.9833 190.037 51.1C189.011 51.2167 188.311 51.2167 187.937 51.1C186.981 50.7267 187.062 50.295 188.182 49.805C189.232 49.3383 190.866 48.9767 193.082 48.72C193.759 48.6267 194.156 48.545 194.272 48.475ZM217.054 43.575C217.894 43.2717 218.699 43.1783 219.469 43.295C220.263 43.3883 220.998 43.7033 221.674 44.24C222.374 44.7767 222.946 45.5 223.389 46.41C223.833 47.2733 224.043 48.0783 224.019 48.825C224.019 49.5717 223.786 50.4 223.319 51.31C222.946 52.0567 222.503 52.6167 221.989 52.99C221.476 53.34 220.823 53.5733 220.029 53.69C218.699 53.8767 217.439 53.62 216.249 52.92C215.059 52.22 214.301 51.3217 213.974 50.225C213.508 48.7317 213.554 47.4017 214.114 46.235C214.674 45.0683 215.654 44.1817 217.054 43.575ZM219.889 45.01C219.656 45.01 219.399 44.9633 219.119 44.87C218.699 44.73 218.034 44.9867 217.124 45.64C216.214 46.2933 215.666 46.9233 215.479 47.53C215.409 47.7633 215.398 48.0433 215.444 48.37C215.491 48.6733 215.573 48.9883 215.689 49.315C215.806 49.6183 215.958 49.9217 216.144 50.225C216.354 50.5283 216.576 50.785 216.809 50.995C217.696 51.7883 218.594 52.15 219.504 52.08C220.414 52.01 221.138 51.5317 221.674 50.645C222.538 49.245 222.398 47.7867 221.254 46.27C220.578 45.43 220.123 45.01 219.889 45.01ZM221.359 55.895C221.546 55.4517 221.779 55.23 222.059 55.23C222.363 55.2067 222.619 55.4283 222.829 55.895C223.016 56.3383 222.993 57.1083 222.759 58.205C222.526 59.255 222.479 59.8967 222.619 60.13C222.736 60.34 223.436 60.445 224.719 60.445C225.606 60.445 226.154 60.48 226.364 60.55C226.598 60.5967 226.773 60.76 226.889 61.04C227.053 61.53 226.994 61.8683 226.714 62.055C226.458 62.2417 225.874 62.3233 224.964 62.3C224.241 62.2767 223.343 62.3233 222.269 62.44C221.219 62.5333 220.473 62.6383 220.029 62.755C219.819 62.825 219.283 62.93 218.419 63.07C217.579 63.2333 216.751 63.385 215.934 63.525C215.118 63.665 214.628 63.735 214.464 63.735C214.184 63.735 213.974 63.5483 213.834 63.175C213.694 62.8017 213.729 62.4867 213.939 62.23C214.126 61.9967 214.581 61.8217 215.304 61.705L216.319 61.565V59.325C216.343 58.0883 216.436 57.3067 216.599 56.98C216.763 56.63 217.113 56.525 217.649 56.665C217.976 56.7583 218.163 56.91 218.209 57.12C218.279 57.3067 218.303 57.89 218.279 58.87L218.209 60.83L219.574 60.935C220.438 60.9817 220.869 60.935 220.869 60.795C220.869 60.165 220.893 59.5 220.939 58.8C221.009 58.1 221.079 57.4933 221.149 56.98C221.243 56.4667 221.313 56.105 221.359 55.895ZM231.323 45.43C231.44 45.3133 231.615 45.2667 231.848 45.29C232.082 45.3133 232.28 45.4067 232.443 45.57C232.56 45.6867 232.63 45.8383 232.653 46.025C232.677 46.1883 232.677 46.585 232.653 47.215C232.607 48.1017 232.502 49.0817 232.338 50.155C232.175 51.2283 232.023 51.8933 231.883 52.15C231.767 52.3833 231.72 52.7567 231.743 53.27C231.79 53.76 231.895 54.2383 232.058 54.705C232.222 55.195 232.28 55.58 232.233 55.86C232.187 56.14 232.023 56.42 231.743 56.7C231.487 56.9567 231.23 57.0967 230.973 57.12C230.74 57.12 230.553 57.015 230.413 56.805C230.273 56.595 230.192 55.7083 230.168 54.145C230.145 52.5583 230.203 51.6017 230.343 51.275C230.437 51.0417 230.53 50.61 230.623 49.98C230.763 49.0933 230.857 48.4983 230.903 48.195C230.997 47.495 231.067 46.9233 231.113 46.48C231.16 45.92 231.23 45.57 231.323 45.43ZM229.468 61.81C229.748 61.6467 230.087 61.67 230.483 61.88C230.927 62.1133 231.148 62.5217 231.148 63.105C231.148 63.665 230.927 64.05 230.483 64.26C230.063 64.4933 229.62 64.4583 229.153 64.155C228.85 63.9917 228.698 63.7467 228.698 63.42C228.698 63.1867 228.78 62.8833 228.943 62.51C229.13 62.1367 229.305 61.9033 229.468 61.81Z" fill="#1A1A1A"/>
<path d="M3.91375 47.95C5.17375 47.2967 6.55042 47.495 8.04375 48.545C9.25708 49.3617 10.1204 50.3767 10.6338 51.59C11.1471 52.78 11.2404 53.9933 10.9138 55.23C10.7038 56.0933 10.4004 56.735 10.0038 57.155C9.63042 57.575 9.02375 57.96 8.18375 58.31C7.36708 58.66 6.62042 58.835 5.94375 58.835C5.38375 58.8583 4.77708 58.7533 4.12375 58.52C3.47042 58.2867 2.86375 57.96 2.30375 57.54C1.76708 57.12 1.33542 56.6767 1.00875 56.21C0.682083 55.6967 0.48375 55.2883 0.41375 54.985C0.34375 54.6583 0.332083 54.1333 0.37875 53.41C0.44875 52.29 0.635417 51.4617 0.93875 50.925C1.21875 50.3883 1.65042 49.8283 2.23375 49.245C2.81708 48.6617 3.37708 48.23 3.91375 47.95ZM7.16875 49.98C6.49208 49.49 5.93208 49.2683 5.48875 49.315C5.04542 49.3383 4.50875 49.63 3.87875 50.19C2.94542 51.0767 2.39708 51.9867 2.23375 52.92C2.09375 53.83 2.36208 54.6933 3.03875 55.51C3.83208 56.4667 4.80042 56.9567 5.94375 56.98C7.11042 56.98 8.06708 56.49 8.81375 55.51C9.04708 55.23 9.19875 54.95 9.26875 54.67C9.33875 54.3667 9.35042 53.9233 9.30375 53.34C9.23375 52.5933 9.04708 51.9867 8.74375 51.52C8.44042 51.03 7.91542 50.5167 7.16875 49.98ZM14.7988 48.23C14.8921 48.0667 15.1604 48.0083 15.6038 48.055C16.0471 48.1017 16.2804 48.2067 16.3038 48.37C16.3504 48.7667 16.2571 52.01 16.0238 58.1L15.8138 62.475H15.0088C14.7754 62.475 14.6121 62.475 14.5188 62.475C14.4254 62.4517 14.3438 62.3933 14.2738 62.3C14.2038 62.1833 14.1571 62.055 14.1338 61.915C14.1338 61.7517 14.1221 61.4833 14.0988 61.11C14.0521 60.34 14.1221 58.0417 14.3088 54.215C14.5188 50.3883 14.6821 48.3933 14.7988 48.23ZM23.6488 40.915C24.2555 40.7983 25.2472 40.7283 26.6238 40.705C27.2772 40.6817 27.7672 40.7167 28.0938 40.81C28.4438 40.88 28.6772 41.02 28.7938 41.23C28.9105 41.44 28.9105 41.72 28.7938 42.07C28.7472 42.3033 28.6305 42.4433 28.4438 42.49C28.2572 42.5133 27.8022 42.4783 27.0788 42.385C26.1922 42.2917 25.1888 42.3383 24.0688 42.525C22.9722 42.6883 22.2022 42.9217 21.7588 43.225C21.4322 43.4817 21.2572 43.96 21.2338 44.66C21.2105 45.1033 21.2338 45.3833 21.3038 45.5C21.3738 45.6167 21.5255 45.6517 21.7588 45.605C22.1088 45.535 23.1705 45.4533 24.9438 45.36C26.2272 45.29 27.0088 45.2783 27.2888 45.325C27.5688 45.3717 27.7788 45.535 27.9188 45.815C28.0355 46.0717 28.0938 46.2817 28.0938 46.445C28.1172 46.6083 28.0122 46.7367 27.7788 46.83C27.5455 46.9233 27.2305 46.9933 26.8338 47.04C26.4372 47.0633 25.8655 47.0867 25.1188 47.11C23.4388 47.1567 22.3655 47.2733 21.8988 47.46C21.4555 47.6233 21.2105 48.0317 21.1638 48.685C21.1172 49.1517 21.1288 49.4433 21.1988 49.56C21.2688 49.6533 21.4788 49.7 21.8288 49.7C22.3188 49.7 23.2638 49.5717 24.6638 49.315C26.0638 49.0583 26.8572 48.8717 27.0438 48.755C27.2772 48.6617 27.6155 48.6967 28.0588 48.86C28.5488 49.0467 28.7588 49.3383 28.6888 49.735C28.6422 50.015 28.4788 50.225 28.1988 50.365C27.9422 50.4817 27.3005 50.6333 26.2738 50.82C24.7805 51.1 23.4155 51.4033 22.1788 51.73C21.0588 52.0333 20.3705 52.08 20.1138 51.87C19.7872 51.6133 19.5772 50.6217 19.4838 48.895C19.4372 48.5683 19.4022 48.0317 19.3788 47.285C19.3322 46.235 19.2972 45.2433 19.2738 44.31C19.2738 43.3767 19.2972 42.91 19.3438 42.91C19.4372 42.6767 20.0088 42.315 21.0588 41.825C22.1322 41.3117 22.9955 41.0083 23.6488 40.915ZM24.3488 53.62C28.2222 52.8733 30.1472 53.0133 30.1238 54.04L30.0188 54.495C29.9022 54.775 29.2722 54.915 28.1288 54.915C26.9388 54.915 25.8538 55.0433 24.8738 55.3C23.5672 55.6033 22.7038 55.8017 22.2838 55.895C21.6772 55.965 20.8838 56.175 19.9038 56.525C19.0872 56.7817 18.5388 56.84 18.2588 56.7C17.9788 56.56 17.9672 56.21 18.2238 55.65C18.4105 55.2533 18.9122 54.9267 19.7288 54.67C20.5455 54.39 22.0855 54.04 24.3488 53.62ZM24.8388 57.54C24.9088 57.4467 25.4455 57.4 26.4488 57.4C27.4988 57.4 28.1872 57.5867 28.5138 57.96C28.8405 58.31 29.0272 59.08 29.0738 60.27C29.1205 61.1333 29.1088 61.6933 29.0388 61.95C28.9922 62.1833 28.8055 62.4167 28.4788 62.65C27.9888 63 26.8805 63.2333 25.1538 63.35C24.3838 63.42 23.8238 63.4783 23.4738 63.525C23.1238 63.595 22.8788 63.6767 22.7388 63.77C22.5988 63.8633 22.5172 63.98 22.4938 64.12C22.4005 64.54 22.4705 64.8083 22.7038 64.925C22.9605 65.0417 23.3805 65.03 23.9638 64.89C24.7572 64.68 25.8422 64.4817 27.2188 64.295C28.1288 64.155 28.7355 64.085 29.0388 64.085C29.3655 64.1083 29.6105 64.2017 29.7738 64.365C30.0538 64.645 30.1355 64.925 30.0188 65.205C29.9022 65.5083 29.6455 65.695 29.2488 65.765C25.0022 66.5817 22.5872 66.9317 22.0038 66.815C21.5605 66.7217 21.1988 66.4183 20.9188 65.905C20.6388 65.3917 20.4988 64.785 20.4988 64.085C20.4988 63.2683 20.7088 62.7317 21.1288 62.475C21.5722 62.195 22.5172 62.0083 23.9638 61.915C25.4572 61.7983 26.4022 61.6583 26.7988 61.495C27.1955 61.3083 27.3938 60.9467 27.3938 60.41C27.3938 59.8267 27.1372 59.4767 26.6238 59.36C26.1105 59.2433 25.0255 59.29 23.3688 59.5C22.5755 59.6167 21.9805 59.6867 21.5838 59.71C21.1872 59.7333 20.8605 59.7217 20.6038 59.675C20.3472 59.605 20.2305 59.4883 20.2538 59.325C20.3005 59.1383 20.3472 58.8933 20.3938 58.59C20.4872 58.3567 20.5922 58.1933 20.7088 58.1C20.8255 58.0067 21.0122 57.9367 21.2688 57.89C21.5255 57.82 21.9922 57.7733 22.6688 57.75C24.0222 57.7033 24.7455 57.6333 24.8388 57.54ZM47.1806 44.975C48.0206 44.765 48.8839 44.835 49.7706 45.185C50.6806 45.5117 51.4506 46.025 52.0806 46.725C52.7339 47.425 53.2123 48.2533 53.5156 49.21C53.8189 50.1667 53.8539 51.1 53.6206 52.01C53.0139 54.2967 51.1356 55.4517 47.9856 55.475C46.7723 55.475 45.8273 55.3117 45.1506 54.985C44.4739 54.6583 43.8439 54.0517 43.2606 53.165C41.8606 51.065 42.0823 48.9883 43.9256 46.935C44.2756 46.5383 44.5906 46.235 44.8706 46.025C45.1506 45.7917 45.4656 45.605 45.8156 45.465C46.1656 45.3017 46.6206 45.1383 47.1806 44.975ZM50.3306 47.39C49.8406 46.9933 49.3506 46.7833 48.8606 46.76C48.3706 46.7133 47.7289 46.83 46.9356 47.11C45.7223 47.5533 44.8589 48.265 44.3456 49.245C44.0656 49.805 44.0423 50.4933 44.2756 51.31C44.5089 52.1033 44.8939 52.675 45.4306 53.025C46.1073 53.4217 46.8306 53.655 47.6006 53.725C48.3706 53.7717 49.0706 53.69 49.7006 53.48C50.3539 53.2467 50.9023 52.885 51.3456 52.395C51.7889 51.905 52.0106 51.345 52.0106 50.715C52.0106 49.4317 51.4506 48.3233 50.3306 47.39ZM57.7856 45.71C58.0189 45.4067 58.2989 45.2667 58.6256 45.29C58.9523 45.3133 59.1739 45.4883 59.2906 45.815C59.3839 46.2117 59.3489 46.7483 59.1856 47.425C58.9989 48.0783 58.8589 48.86 58.7656 49.77L58.5906 51.1L60.1656 50.89C61.0289 50.7967 61.6356 50.855 61.9856 51.065C62.3356 51.2517 62.4639 51.6017 62.3706 52.115C62.3473 52.2317 62.2773 52.3367 62.1606 52.43C62.0673 52.5 61.9156 52.57 61.7056 52.64C61.4956 52.6867 61.1923 52.7333 60.7956 52.78C59.8623 52.8733 59.2206 52.99 58.8706 53.13C58.5206 53.27 58.3573 53.48 58.3806 53.76V56.21C58.3573 57.1667 58.3106 57.75 58.2406 57.96C58.1706 58.17 57.9606 58.3217 57.6106 58.415C57.0506 58.555 56.7123 58.4733 56.5956 58.17C56.4089 57.68 56.5023 55.51 56.8756 51.66L57.0156 50.19C57.2956 47.4833 57.5523 45.99 57.7856 45.71ZM49.2106 59.22C49.4206 58.9633 49.5723 58.835 49.6656 58.835C49.7823 58.8117 50.0039 58.8817 50.3306 59.045C50.5639 59.185 50.6923 59.3717 50.7156 59.605C50.7623 59.8383 50.7506 60.3633 50.6806 61.18C50.6573 61.2967 50.6339 61.4717 50.6106 61.705C50.5406 62.3583 50.5756 62.72 50.7156 62.79C50.8556 62.86 51.3689 62.7783 52.2556 62.545C52.5589 62.475 52.7923 62.4167 52.9556 62.37C54.0056 62.1133 55.1256 61.9617 56.3156 61.915C57.5289 61.845 58.2056 61.915 58.3456 62.125C58.5089 62.3583 58.5789 62.545 58.5556 62.685C58.5323 62.825 58.4039 63.0233 58.1706 63.28C57.8906 63.5833 57.3539 63.735 56.5606 63.735C55.8139 63.735 54.9273 63.875 53.9006 64.155C53.0139 64.3883 51.9873 64.575 50.8206 64.715C50.1206 64.8083 49.6656 64.8317 49.4556 64.785C49.2689 64.7383 49.1056 64.575 48.9656 64.295C48.7323 63.8983 48.6506 63.035 48.7206 61.705C48.7906 60.3517 48.9539 59.5233 49.2106 59.22ZM68.2522 48.125C68.7889 47.9617 69.2439 47.915 69.6172 47.985C70.0139 48.0317 70.6906 48.265 71.6472 48.685C73.2106 49.3383 74.0039 50.7383 74.0272 52.885C74.0272 53.9817 73.9222 54.8217 73.7122 55.405C73.5256 55.965 73.1639 56.56 72.6272 57.19C72.1372 57.75 71.7639 58.0883 71.5072 58.205C71.2739 58.3217 70.8189 58.38 70.1422 58.38C68.8122 58.38 67.5406 57.9833 66.3272 57.19C65.1372 56.3967 64.4489 55.51 64.2622 54.53C64.0989 53.5733 64.1339 52.745 64.3672 52.045C64.6006 51.345 65.1022 50.61 65.8722 49.84C66.2456 49.4433 66.6656 49.0817 67.1322 48.755C67.6222 48.4283 67.9956 48.2183 68.2522 48.125ZM70.6672 49.98C70.0839 49.7933 69.6639 49.7233 69.4072 49.77C69.1506 49.7933 68.6839 49.9917 68.0072 50.365C67.2139 50.8317 66.6889 51.24 66.4322 51.59C66.1756 51.94 66.0356 52.43 66.0122 53.06C66.0122 53.8533 66.3039 54.5417 66.8872 55.125C67.4939 55.7083 68.2872 56.105 69.2672 56.315C70.0139 56.5017 70.4806 56.5833 70.6672 56.56C70.8539 56.5133 71.1106 56.2917 71.4372 55.895C71.6239 55.685 71.7522 55.4867 71.8222 55.3C71.9156 55.09 71.9739 54.8333 71.9972 54.53C72.0439 54.2267 72.0672 53.8067 72.0672 53.27C72.0672 52.1033 71.9739 51.3217 71.7872 50.925C71.6239 50.505 71.2506 50.19 70.6672 49.98ZM84.2472 48.125C84.4106 47.8917 84.6206 47.7867 84.8772 47.81C85.1339 47.81 85.3672 47.9383 85.5772 48.195C85.8106 48.475 85.8572 50.295 85.7172 53.655C85.5539 56.945 85.4722 58.975 85.4722 59.745C85.4489 60.4217 85.3556 60.8767 85.1922 61.11C85.0522 61.3433 84.7489 61.5067 84.2822 61.6L83.5472 61.74L83.7922 57.68C83.9556 54.4133 84.0372 52.2083 84.0372 51.065C84.0372 49.3383 84.1072 48.3583 84.2472 48.125ZM80.1172 48.65C80.5839 48.2067 81.0156 48.23 81.4122 48.72C81.6222 48.9767 81.6222 50.2833 81.4122 52.64C81.2722 54.4367 81.1089 56.4433 80.9222 58.66L80.7472 61.11H79.9422H79.1022L79.1372 57.855C79.1372 57.8083 79.1372 57.75 79.1372 57.68C79.1839 56.0233 79.1372 55.09 78.9972 54.88C78.8572 54.6467 78.3439 54.6583 77.4572 54.915C77.3872 54.9383 77.3406 54.95 77.3172 54.95C76.7339 55.1367 76.1739 55.1833 75.6372 55.09C75.1006 54.9967 74.8322 54.8217 74.8322 54.565C74.8322 54.1217 75.0306 53.7717 75.4272 53.515C75.8472 53.2583 76.5239 53.0833 77.4572 52.99C78.7172 52.8267 79.4289 52.6283 79.5922 52.395C79.7322 52.115 79.8022 51.4733 79.8022 50.47C79.8022 49.4667 79.9072 48.86 80.1172 48.65ZM110.874 47.705C111.084 47.1683 111.586 47.0983 112.379 47.495C112.566 47.6117 112.671 47.7517 112.694 47.915C112.741 48.0783 112.718 48.37 112.624 48.79C112.484 49.5367 112.368 50.3533 112.274 51.24L112.134 52.71L113.394 52.535C115.098 52.325 115.949 52.045 115.949 51.695C116.043 49.875 116.171 48.685 116.334 48.125C116.521 47.5417 116.848 47.3083 117.314 47.425C117.688 47.5183 117.909 47.7517 117.979 48.125C118.073 48.475 118.049 49.0583 117.909 49.875C117.723 50.8317 117.559 52.955 117.419 56.245C117.349 58.5083 117.268 59.9317 117.174 60.515C117.104 61.075 116.953 61.425 116.719 61.565C116.369 61.7517 116.054 61.7867 115.774 61.67C115.588 61.6 115.471 61.3433 115.424 60.9C115.401 60.4333 115.401 59.4183 115.424 57.855L115.529 54.25L114.654 54.285C114.094 54.285 113.499 54.4133 112.869 54.67L112.029 55.02L112.134 57.82C112.204 58.7767 112.216 59.5117 112.169 60.025C112.123 60.515 112.029 60.8417 111.889 61.005C111.773 61.1683 111.563 61.25 111.259 61.25C110.723 61.25 110.408 60.9 110.314 60.2C110.244 59.5 110.268 57.54 110.384 54.32C110.594 50.1667 110.758 47.9617 110.874 47.705ZM104.399 47.95C105.613 47.7633 106.324 47.915 106.534 48.405C106.744 48.8717 106.791 50.435 106.674 53.095C106.581 55.2417 106.499 56.5133 106.429 56.91C106.359 57.3067 106.149 57.5867 105.799 57.75C105.333 58.03 104.014 58.1817 101.844 58.205L98.6593 58.275L98.3793 57.19C98.2626 56.7467 98.1693 55.79 98.0993 54.32C98.0293 52.85 98.0176 51.6133 98.0643 50.61C98.111 49.4667 100.223 48.58 104.399 47.95ZM105.134 49.98H104.154C103.548 49.98 102.661 50.1433 101.494 50.47L99.8493 50.925L99.7793 53.025C99.7093 54.285 99.7326 55.1717 99.8493 55.685C99.9426 56.0117 100.094 56.1983 100.304 56.245C100.514 56.2917 101.179 56.28 102.299 56.21L104.539 56.105L104.714 55.16C104.831 54.53 104.924 53.515 104.994 52.115L105.134 49.98ZM124.387 42.21C124.433 42.07 124.643 42 125.017 42C125.32 42 125.518 42.2217 125.612 42.665C125.728 43.085 125.705 43.68 125.542 44.45C125.448 44.94 125.378 45.2667 125.332 45.43C125.308 45.5933 125.297 45.8033 125.297 46.06C125.297 46.2933 125.308 46.4333 125.332 46.48C125.355 46.5033 125.46 46.5383 125.647 46.585C125.833 46.6317 125.997 46.6433 126.137 46.62C126.277 46.5967 126.533 46.5617 126.907 46.515C128.283 46.3517 129.053 46.5033 129.217 46.97C129.403 47.4133 128.995 48.265 127.992 49.525C127.268 50.4117 126.907 50.925 126.907 51.065C126.907 51.205 127.14 51.4733 127.607 51.87C128.073 52.2667 128.61 52.64 129.217 52.99C129.94 53.4333 130.302 53.9117 130.302 54.425C130.278 54.7517 130.057 54.915 129.637 54.915C129.24 54.915 128.715 54.74 128.062 54.39C127.432 54.0167 126.837 53.5617 126.277 53.025L125.507 52.325L124.807 53.13C123.92 54.18 123.278 54.88 122.882 55.23C122.508 55.58 122.193 55.755 121.937 55.755C121.563 55.755 121.33 55.615 121.237 55.335C121.143 55.0317 121.225 54.6817 121.482 54.285C121.762 53.8883 122.695 52.8617 124.282 51.205C125.868 49.525 126.662 48.615 126.662 48.475C126.662 48.4517 126.627 48.4283 126.557 48.405C126.51 48.3817 126.44 48.37 126.347 48.37C126.253 48.37 126.148 48.3933 126.032 48.44C125.495 48.5567 124.422 48.755 122.812 49.035C120.968 49.3383 119.977 49.3383 119.837 49.035C119.767 48.8717 119.813 48.615 119.977 48.265C120.07 48.0083 120.245 47.8217 120.502 47.705C120.782 47.5883 121.283 47.4717 122.007 47.355C123.197 47.1683 123.757 46.9583 123.687 46.725C123.64 46.5383 123.722 45.78 123.932 44.45C124.142 43.12 124.293 42.3733 124.387 42.21ZM132.682 46.935C132.845 46.6317 132.985 46.4683 133.102 46.445C133.218 46.4217 133.452 46.5033 133.802 46.69C134.058 46.83 134.21 47.1333 134.257 47.6C134.303 48.0433 134.327 49.175 134.327 50.995C134.28 53.795 134.222 55.3 134.152 55.51C134.058 55.8367 133.802 56.0117 133.382 56.035C132.962 56.035 132.693 55.8833 132.577 55.58C132.437 55.2067 132.378 53.7483 132.402 51.205C132.448 48.6383 132.542 47.215 132.682 46.935ZM127.537 58.135C128.167 57.8317 129.018 57.68 130.092 57.68C130.582 57.68 130.99 57.7267 131.317 57.82C131.667 57.89 131.982 58.0067 132.262 58.17C132.542 58.3333 132.787 58.555 132.997 58.835C133.207 59.0917 133.417 59.4183 133.627 59.815C133.883 60.305 133.988 60.9583 133.942 61.775C133.895 62.5683 133.697 63.385 133.347 64.225C133.16 64.715 132.705 65.1583 131.982 65.555C131.282 65.975 130.593 66.1967 129.917 66.22C129.333 66.22 128.645 65.9983 127.852 65.555C127.058 65.1117 126.452 64.6217 126.032 64.085C125.308 63.105 125.098 61.985 125.402 60.725C125.728 59.465 126.44 58.6017 127.537 58.135ZM131.422 59.745C130.862 59.325 130.127 59.2317 129.217 59.465C128.307 59.675 127.665 60.095 127.292 60.725C127.012 61.2383 126.907 61.6583 126.977 61.985C127.047 62.3117 127.338 62.7433 127.852 63.28C129.065 64.5867 130.267 64.68 131.457 63.56C131.807 63.2333 132.017 62.965 132.087 62.755C132.157 62.5217 132.157 62.1017 132.087 61.495C131.97 60.5617 131.748 59.9783 131.422 59.745Z" fill="#F49393"/>
</svg>
