<svg width="253" height="67" viewBox="0 0 253 67" fill="none" xmlns="http://www.w3.org/2000/svg">
<path d="M27.7267 6.95C28.9867 6.29667 30.3634 6.495 31.8567 7.545C33.0701 8.36167 33.9334 9.37667 34.4467 10.59C34.9601 11.78 35.0534 12.9933 34.7267 14.23C34.5167 15.0933 34.2134 15.735 33.8167 16.155C33.4434 16.575 32.8367 16.96 31.9967 17.31C31.1801 17.66 30.4334 17.835 29.7567 17.835C29.1967 17.8583 28.5901 17.7533 27.9367 17.52C27.2834 17.2867 26.6767 16.96 26.1167 16.54C25.5801 16.12 25.1484 15.6767 24.8217 15.21C24.4951 14.6967 24.2967 14.2883 24.2267 13.985C24.1567 13.6583 24.1451 13.1333 24.1917 12.41C24.2617 11.29 24.4484 10.4617 24.7517 9.925C25.0317 9.38833 25.4634 8.82833 26.0467 8.245C26.6301 7.66167 27.1901 7.23 27.7267 6.95ZM30.9817 8.98C30.3051 8.49 29.7451 8.26833 29.3017 8.315C28.8584 8.33833 28.3217 8.63 27.6917 9.19C26.7584 10.0767 26.2101 10.9867 26.0467 11.92C25.9067 12.83 26.1751 13.6933 26.8517 14.51C27.6451 15.4667 28.6134 15.9567 29.7567 15.98C30.9234 15.98 31.8801 15.49 32.6267 14.51C32.8601 14.23 33.0117 13.95 33.0817 13.67C33.1517 13.3667 33.1634 12.9233 33.1167 12.34C33.0467 11.5933 32.8601 10.9867 32.5567 10.52C32.2534 10.03 31.7284 9.51667 30.9817 8.98ZM38.6117 7.23C38.7051 7.06667 38.9734 7.00833 39.4167 7.055C39.8601 7.10167 40.0934 7.20667 40.1167 7.37C40.1634 7.76667 40.0701 11.01 39.8367 17.1L39.6267 21.475H38.8217C38.5884 21.475 38.4251 21.475 38.3317 21.475C38.2384 21.4517 38.1567 21.3933 38.0867 21.3C38.0167 21.1833 37.9701 21.055 37.9467 20.915C37.9467 20.7517 37.9351 20.4833 37.9117 20.11C37.8651 19.34 37.9351 17.0417 38.1217 13.215C38.3317 9.38833 38.4951 7.39333 38.6117 7.23ZM48.6168 4.99C48.6635 4.24333 48.7218 3.765 48.7918 3.555C48.8618 3.32167 49.0018 3.205 49.2118 3.205C49.5385 3.205 49.8418 3.35667 50.1218 3.66C50.2851 3.87 50.3785 4.29 50.4018 4.92C50.4485 5.55 50.4368 6.82167 50.3668 8.735C50.2502 11.7917 50.1218 13.39 49.9818 13.53C49.8885 13.67 48.8035 13.9033 46.7268 14.23C45.1635 14.51 44.2301 14.65 43.9268 14.65C43.6235 14.65 43.3668 14.51 43.1568 14.23C42.6201 13.5767 42.2118 11.43 41.9318 7.79C41.8385 6.53 41.8501 5.67833 41.9668 5.235C42.1068 4.79167 42.4218 4.57 42.9118 4.57C43.2151 4.57 43.4251 4.745 43.5418 5.095C43.6585 5.42167 43.7168 6.04 43.7168 6.95C43.7168 7.93 43.7985 8.42 43.9618 8.42C44.0318 8.42 44.3701 8.32667 44.9768 8.14C45.5835 7.95333 46.2135 7.755 46.8668 7.545C47.5435 7.31167 47.9635 7.14833 48.1268 7.055C48.4068 6.93833 48.5701 6.25 48.6168 4.99ZM48.6168 10.45C48.6168 9.86667 48.5702 9.52833 48.4768 9.435C48.4068 9.31833 48.1618 9.26 47.7418 9.26C47.2751 9.28333 46.5285 9.45833 45.5018 9.785C44.7785 10.0417 44.3235 10.345 44.1368 10.695C43.9501 11.045 43.9968 11.4883 44.2768 12.025C44.4168 12.2817 44.5801 12.445 44.7668 12.515C44.9535 12.5617 45.3268 12.55 45.8868 12.48C46.7501 12.3867 47.4268 12.235 47.9168 12.025C48.2435 11.8617 48.4418 11.6983 48.5118 11.535C48.5818 11.3483 48.6168 10.9867 48.6168 10.45ZM56.0018 4.43C56.0718 4.22 56.3168 4.09167 56.7368 4.045C57.1802 3.975 57.4602 4.03333 57.5768 4.22C57.6702 4.38333 57.6585 5.63167 57.5418 7.965C57.4018 10.2983 57.3785 12.1533 57.4718 13.53C57.5418 14.6033 57.5068 15.35 57.3668 15.77C57.2502 16.19 56.9702 16.4 56.5268 16.4C56.1302 16.4 55.8618 16.1667 55.7218 15.7C55.6052 15.2333 55.5468 14.3117 55.5468 12.935C55.5468 11.3017 55.4535 10.31 55.2668 9.96C55.0802 9.58667 54.6368 9.56333 53.9368 9.89C53.4001 10.17 52.9335 10.31 52.5368 10.31C52.1635 10.31 51.9652 10.1583 51.9418 9.855C51.8952 9.365 51.9185 8.99167 52.0118 8.735C52.1285 8.47833 52.3385 8.28 52.6418 8.14C52.9452 7.97667 53.3885 7.84833 53.9718 7.755C54.7418 7.63833 55.2435 7.46333 55.4768 7.23C55.7102 6.99667 55.8268 6.57667 55.8268 5.97C55.8268 5.29333 55.8852 4.78 56.0018 4.43ZM48.4768 17.835C48.6868 17.625 49.0135 17.52 49.4568 17.52C49.7835 17.52 49.9585 17.6133 49.9818 17.8C50.0285 17.9633 50.0052 18.5933 49.9118 19.69C49.9118 19.83 49.9002 20.0283 49.8768 20.285C49.7835 21.1717 49.8535 21.6733 50.0868 21.79C50.3202 21.9067 51.1952 21.8483 52.7118 21.615C53.1085 21.5683 53.4235 21.5217 53.6568 21.475C54.8235 21.2883 55.6052 21.195 56.0018 21.195C56.3985 21.1717 56.6785 21.2533 56.8418 21.44C57.0985 21.6733 57.1568 21.9417 57.0168 22.245C56.9002 22.5717 56.6552 22.77 56.2818 22.84C53.1785 23.4233 51.1368 23.75 50.1568 23.82C49.1768 23.9133 48.5818 23.8083 48.3718 23.505C48.1852 23.225 48.1035 22.2567 48.1268 20.6C48.1502 18.9433 48.2668 18.0217 48.4768 17.835ZM83.0492 6.495C83.2125 6.19167 83.3525 6.02833 83.4692 6.005C83.6092 5.95833 83.8192 6.02833 84.0992 6.215C84.4025 6.37833 84.5308 8.86333 84.4842 13.67C84.4608 18.4533 84.3092 20.9967 84.0292 21.3C83.7492 21.5567 83.4808 21.6383 83.2242 21.545C83.0142 21.4517 82.8858 20.9967 82.8392 20.18C82.7925 19.34 82.7692 17.345 82.7692 14.195C82.7692 9.41167 82.8625 6.845 83.0492 6.495ZM75.1392 6.915C75.9558 6.355 76.4225 6.29667 76.5392 6.74C76.6792 7.13667 76.4225 7.72 75.7692 8.49C75.0925 9.28333 74.7542 9.80833 74.7542 10.065C74.7542 10.345 75.5125 11.2317 77.0292 12.725C78.6858 14.405 79.3508 15.4317 79.0242 15.805C78.9075 15.9217 78.6975 16.0033 78.3942 16.05C78.1375 16.0967 77.8342 16.0033 77.4842 15.77C77.1575 15.5367 76.6792 15.07 76.0492 14.37C74.8825 13.1567 74.1475 12.55 73.8442 12.55C73.5875 12.55 73.1792 13.0983 72.6192 14.195C72.0592 15.2683 71.7792 16.0617 71.7792 16.575C71.7792 17.0183 71.5808 17.2983 71.1842 17.415C70.7875 17.5317 70.4608 17.415 70.2042 17.065C69.9008 16.6683 69.8075 16.2367 69.9242 15.77C70.0642 15.28 70.5075 14.3233 71.2542 12.9C73.0275 9.49333 74.3225 7.49833 75.1392 6.915ZM89.7962 3.31C91.4996 3.07667 92.9346 2.97167 94.1012 2.995C95.2679 3.01833 95.9212 3.15833 96.0612 3.415C96.2012 3.64833 95.9796 4.20833 95.3962 5.095C94.7896 5.95833 94.4862 6.50667 94.4862 6.74C94.4862 6.83333 94.5912 6.96167 94.8012 7.125C95.0346 7.28833 95.2912 7.42833 95.5712 7.545C96.4112 7.94167 96.9946 8.28 97.3212 8.56C97.6479 8.81667 97.8112 9.10833 97.8112 9.435C97.8112 9.69167 97.7762 9.87833 97.7062 9.995C97.6362 10.1117 97.4962 10.17 97.2862 10.17C97.0762 10.1467 96.7962 10.065 96.4462 9.925C96.1196 9.785 95.6762 9.56333 95.1162 9.26L92.9462 8.175L91.8612 9.33C91.0912 10.1233 90.6129 10.7183 90.4262 11.115C90.2396 11.4883 89.8662 11.6983 89.3062 11.745C88.7462 11.7917 88.4079 11.6517 88.2912 11.325C88.1746 11.0217 88.3029 10.625 88.6762 10.135C89.0496 9.62167 89.8779 8.68833 91.1612 7.335C92.7479 5.63167 93.3662 4.72167 93.0162 4.605C92.9229 4.58167 92.7362 4.605 92.4562 4.675C92.0596 4.76833 91.4996 4.86167 90.7762 4.955C89.9596 5.07167 89.1429 5.235 88.3262 5.445C86.9496 5.70167 86.2612 5.445 86.2612 4.675C86.2612 4.37167 86.5179 4.12667 87.0312 3.94C87.5679 3.73 88.4896 3.52 89.7962 3.31ZM94.9062 13.25C96.6796 13.04 97.6946 12.9117 97.9512 12.865C98.2546 12.8417 98.4879 12.9467 98.6512 13.18C98.8379 13.4133 98.9079 13.7167 98.8612 14.09L98.7562 14.895L96.3062 15.07C95.0929 15.14 93.2379 15.3617 90.7412 15.735C89.3879 15.945 88.5012 16.0617 88.0812 16.085C87.6846 16.085 87.4279 15.9917 87.3112 15.805C87.2646 15.5017 87.2179 15.2567 87.1712 15.07C87.1246 14.86 87.4279 14.6617 88.0812 14.475C88.7346 14.265 89.5512 14.0783 90.5312 13.915C91.5112 13.7517 92.9696 13.53 94.9062 13.25ZM90.5312 18.99C90.8346 18.5233 91.1846 18.325 91.5812 18.395C91.8379 18.4417 92.0012 18.5467 92.0712 18.71C92.1412 18.8733 92.1762 19.2467 92.1762 19.83C92.1762 20.1567 92.1762 20.39 92.1762 20.53C92.1762 20.6467 92.2112 20.775 92.2812 20.915C92.3512 21.0317 92.4212 21.1017 92.4912 21.125C92.5612 21.1483 92.7129 21.1483 92.9462 21.125C93.2029 21.1017 93.4479 21.0667 93.6812 21.02C93.9146 20.95 94.2762 20.8333 94.7662 20.67C95.7696 20.4133 96.9246 20.25 98.2312 20.18L100.156 20.11V20.915V21.755L98.0912 21.93C96.6446 22.07 95.4896 22.28 94.6262 22.56C93.6462 22.8867 92.7829 23.0617 92.0362 23.085L90.8462 23.155L90.4612 21.405C90.2979 20.635 90.2162 20.1217 90.2162 19.865C90.2162 19.585 90.3212 19.2933 90.5312 18.99ZM126.304 6.775C126.444 6.565 126.7 6.48333 127.074 6.53C127.447 6.57667 127.692 6.72833 127.809 6.985C127.972 7.28833 127.984 8.455 127.844 10.485C127.657 12.7717 127.54 15.105 127.494 17.485C127.47 19.0717 127.424 20.145 127.354 20.705C127.284 21.265 127.155 21.5917 126.969 21.685C126.712 21.8717 126.409 21.9067 126.059 21.79C125.825 21.6967 125.697 21.3 125.674 20.6C125.65 19.9 125.685 17.9633 125.779 14.79C125.895 11.2667 125.977 9.10833 126.024 8.315C126.07 7.52167 126.164 7.00833 126.304 6.775ZM115.034 7.615C116.107 7.31167 117.262 7.17167 118.499 7.195C119.759 7.21833 120.564 7.39333 120.914 7.72C121.147 7.95333 121.287 9.44667 121.334 12.2C121.404 14.93 121.334 16.4 121.124 16.61C120.984 16.75 119.654 17.0067 117.134 17.38C115.43 17.59 114.369 17.695 113.949 17.695C113.529 17.695 113.249 17.59 113.109 17.38C112.759 16.89 112.537 15.455 112.444 13.075C112.35 10.6717 112.444 9.225 112.724 8.735C112.98 8.36167 113.75 7.98833 115.034 7.615ZM119.164 9.12C118.884 9.02667 118.674 8.98 118.534 8.98C118.51 9.00333 118.417 9.02667 118.254 9.05C118.114 9.07333 117.915 9.10833 117.659 9.155C117.402 9.20167 117.169 9.23667 116.959 9.26C115.512 9.49333 114.672 9.73833 114.439 9.995C114.205 10.2517 114.089 11.0567 114.089 12.41C114.089 13.9033 114.135 14.8017 114.229 15.105C114.345 15.385 115.15 15.4783 116.644 15.385C118.09 15.315 118.965 15.2333 119.269 15.14C119.479 15.07 119.584 14.0783 119.584 12.165C119.584 10.9983 119.549 10.2167 119.479 9.82C119.432 9.42333 119.327 9.19 119.164 9.12ZM134.499 2.96C135.293 2.86667 136.378 2.77333 137.754 2.68C138.128 2.65667 138.419 2.83167 138.629 3.205C138.839 3.57833 138.851 3.94 138.664 4.29C138.571 4.45333 138.338 4.55833 137.964 4.605C137.591 4.62833 136.879 4.62833 135.829 4.605C134.126 4.535 132.994 4.62833 132.434 4.885C131.874 5.14167 131.536 5.74833 131.419 6.705C131.326 7.52167 131.349 8.15167 131.489 8.595C131.629 8.89833 131.769 9.06167 131.909 9.085C132.049 9.085 132.493 8.99167 133.239 8.805C134.289 8.54833 135.421 8.42 136.634 8.42C137.218 8.42 137.649 8.43167 137.929 8.455C138.233 8.47833 138.454 8.525 138.594 8.595C138.734 8.665 138.839 8.78167 138.909 8.945C139.213 9.48167 138.898 9.855 137.964 10.065C137.498 10.1817 136.798 10.275 135.864 10.345C134.114 10.5317 132.983 10.7067 132.469 10.87C132.096 11.0333 131.863 11.1733 131.769 11.29C131.676 11.4067 131.664 11.605 131.734 11.885C131.781 12.2117 131.851 12.41 131.944 12.48C132.061 12.5267 132.329 12.515 132.749 12.445C135.363 12.0017 137.159 11.78 138.139 11.78C139.119 11.78 139.644 12.0017 139.714 12.445C139.714 12.4683 139.714 12.4917 139.714 12.515C139.761 12.7483 139.656 12.9233 139.399 13.04C139.026 13.18 137.253 13.565 134.079 14.195L134.044 14.23H134.009H133.974H133.939H133.904L133.869 14.265H133.834H133.799H133.764H133.729L133.694 14.3H133.659H133.624H133.589H133.554L133.519 14.335H133.484C132.481 14.545 131.816 14.65 131.489 14.65C131.186 14.65 130.953 14.5683 130.789 14.405C130.323 13.9617 129.973 11.8267 129.739 8C129.693 7.44 129.669 6.97333 129.669 6.6C129.669 6.22667 129.693 5.865 129.739 5.515C129.786 5.14167 129.844 4.85 129.914 4.64C129.984 4.43 130.113 4.23167 130.299 4.045C130.486 3.835 130.684 3.68333 130.894 3.59C131.104 3.49667 131.396 3.40333 131.769 3.31C132.143 3.21667 132.539 3.14667 132.959 3.1C133.379 3.05333 133.893 3.00667 134.499 2.96ZM142.129 4.71C142.223 4.45333 142.433 4.31333 142.759 4.29C143.086 4.26667 143.343 4.37167 143.529 4.605C143.646 4.79167 143.704 6.51833 143.704 9.785C143.728 13.0517 143.681 14.755 143.564 14.895C143.471 14.965 143.179 14.9183 142.689 14.755L141.954 14.475V9.82C141.954 6.74 142.013 5.03667 142.129 4.71ZM139.364 16.295C139.854 16.2483 140.158 16.2017 140.274 16.155C140.368 16.1083 140.566 16.1783 140.869 16.365C141.196 16.5283 141.534 16.7733 141.884 17.1C142.234 17.4033 142.503 17.695 142.689 17.975C143.016 18.4183 143.226 18.7917 143.319 19.095C143.413 19.3983 143.448 19.9 143.424 20.6C143.401 21.2767 143.331 21.8017 143.214 22.175C143.098 22.5483 142.876 22.9567 142.549 23.4C141.453 24.9167 140.158 25.5117 138.664 25.185C137.918 25.0217 137.148 24.625 136.354 23.995C135.561 23.3883 135.013 22.735 134.709 22.035C134.359 21.335 134.243 20.6933 134.359 20.11C134.476 19.5033 134.838 18.8617 135.444 18.185C135.654 17.9283 135.853 17.7183 136.039 17.555C136.226 17.3917 136.424 17.2517 136.634 17.135C136.868 16.995 137.113 16.8783 137.369 16.785C137.649 16.6683 137.941 16.575 138.244 16.505C138.571 16.435 138.944 16.365 139.364 16.295ZM141.149 18.815C140.776 18.3717 140.414 18.115 140.064 18.045C139.714 17.9517 139.213 18.0217 138.559 18.255C138.116 18.395 137.708 18.5933 137.334 18.85C136.984 19.1067 136.704 19.3983 136.494 19.725C136.284 20.0283 136.179 20.32 136.179 20.6C136.179 21.0433 136.494 21.6033 137.124 22.28C137.754 22.9567 138.338 23.3533 138.874 23.47C139.248 23.54 139.539 23.5283 139.749 23.435C139.983 23.3417 140.309 23.0733 140.729 22.63C141.103 22.2333 141.348 21.9067 141.464 21.65C141.604 21.37 141.674 21.0083 141.674 20.565C141.674 19.865 141.499 19.2817 141.149 18.815ZM149.835 0.509999C150.021 0.323332 150.278 0.218332 150.605 0.194999C150.931 0.171666 151.141 0.253332 151.235 0.439998C151.351 0.556666 151.468 1.19833 151.585 2.365L151.76 4.08L153.44 3.835C154.816 3.67167 155.68 3.61333 156.03 3.66C156.38 3.70667 156.648 3.91667 156.835 4.29C157.045 4.73333 157.045 5.08333 156.835 5.34C156.648 5.59667 156.298 5.66667 155.785 5.55C155.458 5.48 154.443 5.585 152.74 5.865C151.036 6.12167 149.438 6.43667 147.945 6.81C146.311 7.23 145.495 7.03167 145.495 6.215C145.495 5.95833 145.565 5.76 145.705 5.62C145.868 5.45667 146.16 5.29333 146.58 5.13C147.373 4.87333 148.108 4.76833 148.785 4.815H149.835L149.695 2.82C149.555 1.49 149.601 0.719999 149.835 0.509999ZM160.09 5.69C160.183 5.50333 160.463 5.41 160.93 5.41H161.63L161.525 7.79L161.455 10.205H162.96C163.8 10.205 164.371 10.275 164.675 10.415C165.001 10.5317 165.165 10.7883 165.165 11.185C165.165 11.535 165.036 11.78 164.78 11.92C164.523 12.0367 164.091 12.0833 163.485 12.06C162.808 12.0367 162.225 12.1067 161.735 12.27C161.408 12.41 161.21 12.5617 161.14 12.725C161.093 12.865 161.116 13.215 161.21 13.775C161.326 14.685 161.326 15.315 161.21 15.665C161.14 16.0383 160.895 16.3067 160.475 16.47C160.055 16.61 159.763 16.5517 159.6 16.295C159.436 16.085 159.401 14.51 159.495 11.57C159.588 9.30667 159.67 7.825 159.74 7.125C159.81 6.40167 159.926 5.92333 160.09 5.69ZM149.73 8.35C150.593 7.90667 151.153 7.685 151.41 7.685C151.69 7.66167 152.238 7.80167 153.055 8.105C154.245 8.525 155.05 9.015 155.47 9.575C155.913 10.1117 156.146 10.9167 156.17 11.99C156.24 13.7633 155.318 15.0933 153.405 15.98C152.635 16.3533 151.935 16.575 151.305 16.645C150.675 16.6917 149.963 16.5983 149.17 16.365C148.283 16.1317 147.641 15.77 147.245 15.28C146.848 14.79 146.615 14.09 146.545 13.18C146.475 12.4333 146.475 11.92 146.545 11.64C146.615 11.36 146.871 10.9283 147.315 10.345C147.875 9.575 148.68 8.91 149.73 8.35ZM153.79 10.1C153.206 9.56333 152.413 9.41167 151.41 9.645C150.406 9.87833 149.508 10.415 148.715 11.255C148.411 11.5583 148.225 11.815 148.155 12.025C148.108 12.235 148.12 12.55 148.19 12.97C148.376 13.74 148.89 14.3117 149.73 14.685C150.593 15.0583 151.398 15.0467 152.145 14.65C153.265 14.09 153.988 13.355 154.315 12.445C154.665 11.5117 154.49 10.73 153.79 10.1ZM155.96 18.605C158.55 18.325 160.066 18.325 160.51 18.605C160.673 18.6983 160.778 18.9783 160.825 19.445C160.871 19.9117 160.895 20.775 160.895 22.035V25.22L160.16 25.465C159.67 25.6283 159.355 25.535 159.215 25.185C159.098 24.8583 159.051 23.9717 159.075 22.525C159.098 21.055 159.04 20.2733 158.9 20.18C158.713 20.0633 156.986 20.32 153.72 20.95C153.23 21.0433 152.845 20.985 152.565 20.775C152.308 20.5417 152.238 20.25 152.355 19.9C152.495 19.55 152.81 19.2817 153.3 19.095C153.743 18.9083 154.63 18.745 155.96 18.605ZM188.59 6.145C188.87 6.02833 189.162 5.98167 189.465 6.005C189.769 6.005 189.967 6.075 190.06 6.215C190.154 6.355 190.095 7.74333 189.885 10.38C189.699 12.76 189.535 15.0817 189.395 17.345C189.302 18.9083 189.15 19.9117 188.94 20.355C188.754 20.775 188.392 20.8917 187.855 20.705C187.622 20.6117 187.482 20.1567 187.435 19.34C187.412 18.5 187.494 17.1117 187.68 15.175L187.855 13.04L186.595 13.18C185.732 13.2967 184.904 13.53 184.11 13.88L182.78 14.405V17.31C182.757 18.4533 182.71 19.235 182.64 19.655C182.57 20.0517 182.442 20.32 182.255 20.46C181.392 21.1133 180.972 20.775 180.995 19.445C181.042 16.9717 181.135 14.2883 181.275 11.395C181.439 8.47833 181.579 6.915 181.695 6.705C181.812 6.44833 182.022 6.29667 182.325 6.25C182.652 6.20333 182.967 6.285 183.27 6.495C183.41 6.58833 183.48 6.79833 183.48 7.125C183.504 7.45167 183.445 8.11667 183.305 9.12C183.072 10.7067 183.014 11.5467 183.13 11.64C183.177 11.71 183.434 11.7217 183.9 11.675C184.39 11.6283 184.904 11.5583 185.44 11.465C186 11.3717 186.525 11.2667 187.015 11.15C187.529 11.01 187.832 10.905 187.925 10.835C188.135 10.6483 188.24 9.84333 188.24 8.42C188.24 6.99667 188.357 6.23833 188.59 6.145ZM173.4 7.72C174.59 7.48667 175.337 7.37 175.64 7.37C175.944 7.37 176.2 7.48667 176.41 7.72C176.597 7.95333 176.667 8.385 176.62 9.015C176.597 9.62167 176.457 10.7533 176.2 12.41C176.177 12.5967 176.084 13.1917 175.92 14.195C175.757 15.1983 175.64 15.945 175.57 16.435C175.384 17.8583 175.197 18.64 175.01 18.78C174.917 18.85 174.742 18.885 174.485 18.885C173.972 18.885 173.669 18.6867 173.575 18.29C173.505 17.8933 173.587 17.0417 173.82 15.735C174.45 12.2817 174.765 10.31 174.765 9.82C174.765 9.65667 174.742 9.54 174.695 9.47C174.649 9.37667 174.579 9.34167 174.485 9.365C174.299 9.505 173.377 9.70333 171.72 9.96C170.087 10.2167 168.99 10.345 168.43 10.345C167.777 10.345 167.334 10.205 167.1 9.925C166.68 9.435 167.077 9.02667 168.29 8.7C168.664 8.60667 169.13 8.51333 169.69 8.42C171.02 8.21 172.257 7.97667 173.4 7.72ZM194.922 1.175C195.926 0.894998 196.987 0.754998 198.107 0.754998C199.251 0.731665 199.997 0.906666 200.347 1.28C200.697 1.63 200.942 2.48167 201.082 3.835C201.129 4.41833 201.164 4.83833 201.187 5.095C201.211 5.35167 201.199 5.64333 201.152 5.97C201.106 6.27333 201.047 6.47167 200.977 6.565C200.907 6.635 200.732 6.75167 200.452 6.915C200.196 7.055 199.939 7.16 199.682 7.23C199.449 7.27667 199.052 7.37 198.492 7.51C196.672 7.97667 195.552 8.30333 195.132 8.49C194.736 8.67667 194.572 9.00333 194.642 9.47C194.666 9.72667 194.724 9.91333 194.817 10.03C194.934 10.1233 195.097 10.1467 195.307 10.1C196.637 9.93667 198.026 9.63333 199.472 9.19C200.896 8.77 201.607 9.07333 201.607 10.1C201.607 10.3567 201.537 10.5433 201.397 10.66C201.281 10.7533 200.977 10.8467 200.487 10.94C199.997 11.01 198.959 11.2667 197.372 11.71C195.342 12.27 194.024 12.41 193.417 12.13C192.834 11.85 192.612 10.9983 192.752 9.575C192.846 8.525 193.102 7.81333 193.522 7.44C193.966 7.06667 194.899 6.71667 196.322 6.39C196.929 6.25 197.384 6.145 197.687 6.075C197.991 6.005 198.282 5.92333 198.562 5.83C198.866 5.71333 199.064 5.63167 199.157 5.585C199.251 5.515 199.332 5.39833 199.402 5.235C199.472 5.07167 199.496 4.93167 199.472 4.815C199.472 4.675 199.449 4.465 199.402 4.185C199.262 3.46167 199.111 2.97167 198.947 2.715C198.667 2.365 197.431 2.48167 195.237 3.065C194.327 3.32167 193.522 3.45 192.822 3.45C192.426 3.45 192.157 3.415 192.017 3.345C191.901 3.275 191.842 3.135 191.842 2.925C191.842 2.295 192.869 1.71167 194.922 1.175ZM197.302 13.005C197.862 12.3283 198.271 12.34 198.527 13.04C198.644 13.39 198.702 13.845 198.702 14.405C198.702 14.8483 198.737 15.1167 198.807 15.21C198.901 15.28 199.169 15.2683 199.612 15.175C200.079 15.0817 200.861 14.9767 201.957 14.86C202.564 14.7667 202.961 14.7433 203.147 14.79C203.334 14.8367 203.497 14.9883 203.637 15.245C203.847 15.6183 203.894 15.9333 203.777 16.19C203.684 16.4467 203.427 16.645 203.007 16.785C202.611 16.9017 202.062 16.96 201.362 16.96C200.639 16.96 199.542 17.1 198.072 17.38C194.922 17.9633 193.242 17.94 193.032 17.31C192.869 16.9133 193.032 16.5633 193.522 16.26C194.036 15.9567 194.666 15.84 195.412 15.91L196.672 15.98L196.812 14.72C196.906 13.9033 197.069 13.3317 197.302 13.005ZM195.202 19.935C195.436 19.7717 195.739 19.7133 196.112 19.76C196.392 19.8067 196.556 19.9467 196.602 20.18C196.649 20.39 196.614 20.915 196.497 21.755C196.497 21.755 196.497 21.7667 196.497 21.79C196.451 22.21 196.532 22.4433 196.742 22.49C196.952 22.5367 197.699 22.4783 198.982 22.315C199.099 22.315 199.192 22.315 199.262 22.315C199.356 22.2917 199.484 22.2683 199.647 22.245C201.957 21.965 203.311 21.8367 203.707 21.86C204.127 21.86 204.407 22.0117 204.547 22.315C204.547 22.3383 204.559 22.3617 204.582 22.385C204.699 22.7117 204.699 22.98 204.582 23.19C204.489 23.4 204.267 23.5517 203.917 23.645C203.567 23.7617 203.112 23.82 202.552 23.82C201.689 23.7733 200.359 23.9717 198.562 24.415C196.766 24.835 195.739 24.94 195.482 24.73C195.039 24.4733 194.771 23.6683 194.677 22.315C194.584 20.985 194.759 20.1917 195.202 19.935ZM209.167 2.435C209.61 2.155 209.984 1.99167 210.287 1.945C210.614 1.875 211.115 1.86333 211.792 1.91C212.725 1.98 213.495 2.16667 214.102 2.47C214.709 2.77333 215.362 3.31 216.062 4.08C217.112 5.29333 217.427 6.68167 217.007 8.245C216.61 9.785 215.619 10.9633 214.032 11.78C212.539 12.55 210.917 12.34 209.167 11.15C208.304 10.5433 207.627 9.86667 207.137 9.12C206.67 8.37333 206.437 7.62667 206.437 6.88C206.437 6.20333 206.705 5.42167 207.242 4.535C207.802 3.625 208.444 2.925 209.167 2.435ZM213.472 3.905C212.842 3.60167 212.445 3.46167 212.282 3.485C211.699 3.555 211.092 3.765 210.462 4.115C209.855 4.44167 209.354 4.86167 208.957 5.375C208.56 5.865 208.362 6.32 208.362 6.74C208.362 7.60333 208.619 8.33833 209.132 8.945C209.645 9.55167 210.252 9.94833 210.952 10.135C211.652 10.3217 212.375 10.2983 213.122 10.065C213.869 9.80833 214.464 9.31833 214.907 8.595C215.327 7.98833 215.537 7.42833 215.537 6.915C215.537 6.37833 215.327 5.80667 214.907 5.2C214.487 4.59333 214.009 4.16167 213.472 3.905ZM214.137 14.475C215.677 14.265 216.715 14.195 217.252 14.265C217.789 14.3117 218.139 14.5217 218.302 14.895C218.582 15.455 218.535 15.8283 218.162 16.015C217.812 16.2017 216.96 16.3067 215.607 16.33C214.02 16.33 212.235 16.4467 210.252 16.68C208.245 16.9133 207.184 16.9717 207.067 16.855C206.95 16.7383 206.962 16.4583 207.102 16.015C207.312 15.175 208.549 14.7433 210.812 14.72C212.282 14.6733 213.39 14.5917 214.137 14.475ZM209.902 18.78C210.789 17.8933 211.267 18.3133 211.337 20.04C211.407 21.09 211.524 21.615 211.687 21.615C211.827 21.615 212.235 21.475 212.912 21.195C213.472 20.9617 214.545 20.74 216.132 20.53C217.719 20.2967 218.652 20.2383 218.932 20.355C219.212 20.4483 219.34 20.7167 219.317 21.16C219.317 21.6033 219.189 21.8833 218.932 22C218.605 22.1167 218.057 22.175 217.287 22.175C216.47 22.175 215.385 22.4083 214.032 22.875C213.262 23.1317 212.644 23.3067 212.177 23.4C211.734 23.4933 211.337 23.54 210.987 23.54C210.637 23.54 210.369 23.4233 210.182 23.19C210.019 22.9567 209.89 22.6533 209.797 22.28C209.704 21.93 209.622 21.44 209.552 20.81C209.505 20.18 209.505 19.7367 209.552 19.48C209.599 19.2 209.715 18.9667 209.902 18.78ZM160.683 43.94C160.636 43.17 160.636 42.715 160.683 42.575C160.753 42.435 160.963 42.365 161.313 42.365C162.293 42.365 162.654 43.4033 162.398 45.48L162.223 47.055L163.413 47.02C164.323 46.9967 165.011 46.9267 165.478 46.81C165.758 46.74 166.038 46.7167 166.318 46.74C166.598 46.74 166.843 46.7867 167.053 46.88C167.263 46.95 167.438 47.0667 167.578 47.23C167.741 47.3933 167.846 47.5683 167.893 47.755C167.963 48.2217 167.846 48.525 167.543 48.665C167.263 48.805 166.819 48.7933 166.213 48.63C165.583 48.4667 164.906 48.4783 164.183 48.665C163.459 48.875 162.549 49.0267 161.453 49.12C160.286 49.26 159.446 49.4467 158.933 49.68C158.443 49.9367 157.906 50.065 157.323 50.065C156.996 50.065 156.774 50.03 156.658 49.96C156.564 49.8667 156.518 49.68 156.518 49.4C156.518 48.9567 156.669 48.6417 156.973 48.455C157.276 48.245 157.929 48.0467 158.933 47.86C159.796 47.6733 160.298 47.5217 160.438 47.405C160.601 47.2883 160.694 46.985 160.718 46.495C160.718 45.375 160.706 44.5233 160.683 43.94ZM174.823 47.37C174.893 47.1367 175.184 47.055 175.698 47.125L176.433 47.195L176.363 49.225C176.293 50.5083 176.176 52.1183 176.013 54.055C175.803 55.8983 175.768 57.415 175.908 58.605C175.978 59.4683 175.989 60.005 175.943 60.215C175.919 60.4017 175.744 60.565 175.418 60.705C174.974 60.915 174.648 60.95 174.438 60.81C174.251 60.67 174.134 59.6667 174.088 57.8C174.041 56.2133 173.924 55.28 173.738 55C173.574 54.6967 173.119 54.72 172.373 55.07L171.533 55.525L171.673 57.8C171.766 58.7567 171.789 59.3983 171.743 59.725C171.719 60.0517 171.614 60.285 171.428 60.425C170.868 60.8683 170.389 60.8683 169.993 60.425C169.783 60.1217 169.724 58.1967 169.818 54.65C169.888 51.99 169.993 50.24 170.133 49.4C170.273 48.56 170.541 48.14 170.938 48.14C171.334 48.14 171.603 48.3617 171.743 48.805C171.883 49.225 171.941 49.9367 171.918 50.94L171.813 52.97L172.618 53.04C173.131 53.0867 173.504 53.04 173.738 52.9C173.994 52.76 174.181 52.48 174.298 52.06C174.414 51.64 174.508 50.975 174.578 50.065C174.671 48.455 174.753 47.5567 174.823 47.37ZM161.348 51.115C161.908 50.7883 162.421 50.6367 162.888 50.66C163.378 50.66 163.984 50.8583 164.708 51.255C166.434 52.1183 167.344 53.4017 167.438 55.105C167.484 55.735 167.461 56.2133 167.368 56.54C167.298 56.8433 167.053 57.2983 166.633 57.905C166.003 58.8617 165.419 59.515 164.883 59.865C164.346 60.1917 163.681 60.3433 162.888 60.32C161.044 60.25 159.703 59.5967 158.863 58.36C158.046 57.1 157.999 55.6533 158.723 54.02C159.026 53.2733 159.376 52.69 159.773 52.27C160.169 51.8267 160.694 51.4417 161.348 51.115ZM164.358 52.83C163.821 52.62 163.366 52.5383 162.993 52.585C162.643 52.6317 162.223 52.83 161.733 53.18C161.196 53.53 160.776 54.0433 160.473 54.72C160.169 55.3967 160.088 55.9917 160.228 56.505C160.321 56.9483 160.496 57.3333 160.753 57.66C161.009 57.9633 161.313 58.1967 161.663 58.36C162.013 58.5233 162.398 58.605 162.818 58.605C163.261 58.605 163.599 58.5467 163.833 58.43C164.066 58.3133 164.358 58.045 164.708 57.625C165.291 56.9483 165.629 56.33 165.723 55.77C165.839 55.2333 165.746 54.65 165.443 54.02C165.139 53.39 164.778 52.9933 164.358 52.83ZM187.498 44.115C187.661 43.975 187.859 44.0217 188.093 44.255C188.349 44.4883 188.524 44.7567 188.618 45.06C188.734 45.3633 188.746 45.6083 188.653 45.795C188.489 45.935 187.358 46.0283 185.258 46.075C184.021 46.075 183.146 46.11 182.633 46.18C182.119 46.25 181.711 46.39 181.408 46.6C181.198 46.7167 181.058 46.81 180.988 46.88C180.918 46.95 180.848 47.1133 180.778 47.37C180.708 47.6033 180.673 47.8717 180.673 48.175C180.673 48.455 180.673 48.945 180.673 49.645C180.673 51.3717 180.743 52.2933 180.883 52.41C181.023 52.48 181.641 52.5267 182.738 52.55C183.951 52.55 185.468 52.41 187.288 52.13C187.941 52.0133 188.396 52.1067 188.653 52.41C189.236 53.1333 188.734 53.6583 187.148 53.985C186.961 54.0317 186.763 54.0667 186.552 54.09C185.363 54.2767 183.986 54.4167 182.423 54.51C180.883 54.6033 180.019 54.6033 179.833 54.51C179.599 54.3467 179.354 53.67 179.098 52.48C178.841 51.2667 178.713 50.205 178.713 49.295C178.713 48.105 178.619 47.3583 178.433 47.055C178.246 46.6583 178.409 46.2617 178.923 45.865C179.436 45.4683 180.218 45.1417 181.268 44.885C182.318 44.605 183.484 44.43 184.768 44.36C186.541 44.2667 187.451 44.185 187.498 44.115ZM188.303 59.305C188.419 59.165 188.676 59.1183 189.073 59.165C189.493 59.2117 189.773 59.305 189.913 59.445C190.146 59.6783 190.193 59.97 190.053 60.32C189.936 60.6467 189.703 60.8683 189.353 60.985C189.003 61.1017 187.976 61.1483 186.273 61.125C184.756 61.1017 183.134 61.16 181.408 61.3C180.731 61.3467 180.113 61.37 179.553 61.37C179.016 61.37 178.689 61.335 178.573 61.265C178.339 61.125 178.211 60.8917 178.188 60.565C178.164 60.215 178.281 59.9467 178.538 59.76C178.724 59.5967 180.381 59.4917 183.508 59.445C186.658 59.4217 188.256 59.375 188.303 59.305ZM195.569 42.12C196.595 41.91 197.517 41.8167 198.334 41.84C199.15 41.8633 199.605 42.0033 199.699 42.26C199.815 42.6333 199.92 43.6717 200.014 45.375C200.06 45.9817 200.084 46.46 200.084 46.81C200.084 47.16 200.049 47.4983 199.979 47.825C199.932 48.1283 199.85 48.3617 199.734 48.525C199.64 48.665 199.477 48.805 199.244 48.945C199.01 49.0617 198.754 49.155 198.474 49.225C198.194 49.2717 197.82 49.3183 197.354 49.365C196.047 49.505 195.265 49.645 195.009 49.785C194.752 49.9017 194.624 50.2283 194.624 50.765C194.624 51.4183 194.764 51.7917 195.044 51.885C195.277 51.9783 196.14 51.9083 197.634 51.675C198.894 51.465 199.769 51.4067 200.259 51.5C200.749 51.5933 200.994 51.8967 200.994 52.41C200.994 52.83 200.725 53.11 200.189 53.25C199.652 53.3667 198.065 53.5533 195.429 53.81C194.635 53.88 194.145 53.8917 193.959 53.845C193.772 53.775 193.539 53.5067 193.259 53.04C193.025 52.6667 192.874 52.3283 192.804 52.025C192.757 51.7217 192.769 51.255 192.839 50.625C192.932 49.6217 193.142 48.9567 193.469 48.63C193.795 48.3267 194.6 48.07 195.884 47.86C197.144 47.6733 197.89 47.4517 198.124 47.195C198.38 46.915 198.439 46.25 198.299 45.2C198.299 45.1533 198.287 45.0717 198.264 44.955C198.147 44.2083 197.972 43.8 197.739 43.73C197.505 43.66 196.724 43.8117 195.394 44.185C195.184 44.255 195.02 44.3017 194.904 44.325C193.76 44.6517 192.967 44.7917 192.524 44.745C192.104 44.6983 191.894 44.4533 191.894 44.01C191.894 43.8 192.057 43.5783 192.384 43.345C192.71 43.0883 193.154 42.855 193.714 42.645C194.274 42.4117 194.892 42.2367 195.569 42.12ZM204.809 43.31C205.019 43.0767 205.322 43.03 205.719 43.17C205.999 43.2633 206.162 43.5317 206.209 43.975C206.279 44.4183 206.325 45.7717 206.349 48.035C206.349 51.0917 206.43 52.9467 206.594 53.6C206.687 53.95 206.71 54.195 206.664 54.335C206.64 54.475 206.512 54.58 206.279 54.65C206.045 54.7433 205.824 54.755 205.614 54.685C205.427 54.5917 205.252 54.4167 205.089 54.16C204.949 53.9033 204.844 53.5883 204.774 53.215C204.587 52.305 204.494 50.485 204.494 47.755C204.517 45.025 204.622 43.5433 204.809 43.31ZM203.934 56.26C204.074 56.12 204.342 56.0733 204.739 56.12C205.159 56.1667 205.415 56.26 205.509 56.4C205.672 56.68 205.719 58.0333 205.649 60.46C205.579 62.8867 205.45 64.24 205.264 64.52C205.147 64.6833 204.984 64.8117 204.774 64.905C204.564 64.9983 204.225 65.08 203.759 65.15C203.315 65.2433 202.65 65.3367 201.764 65.43C200.434 65.57 199.559 65.64 199.139 65.64C198.742 65.64 198.45 65.5467 198.264 65.36C197.704 64.8 197.424 63.085 197.424 60.215C197.4 59.0483 197.482 58.2433 197.669 57.8C197.879 57.3567 198.229 57.205 198.719 57.345C198.952 57.4383 199.104 57.5783 199.174 57.765C199.267 57.9283 199.314 58.2667 199.314 58.78C199.314 59.5733 199.384 59.97 199.524 59.97C199.57 59.97 200.364 59.8183 201.904 59.515L204.039 59.025L203.899 57.73C203.852 56.82 203.864 56.33 203.934 56.26ZM203.654 62.21C203.607 61.5333 203.397 61.1717 203.024 61.125C202.65 61.055 202.417 61.0783 202.324 61.195C202.254 61.265 201.985 61.3467 201.519 61.44C200.492 61.6267 199.862 61.79 199.629 61.93C199.419 62.07 199.314 62.3967 199.314 62.91V63.82L200.644 63.68C200.737 63.6567 200.854 63.645 200.994 63.645C202.37 63.4817 203.164 63.3417 203.374 63.225C203.607 63.1317 203.712 62.8283 203.689 62.315C203.665 62.2683 203.654 62.2333 203.654 62.21ZM221.947 45.62C222.111 45.48 222.379 45.4333 222.752 45.48C222.916 45.5033 223.021 45.5383 223.067 45.585C223.137 45.6317 223.196 45.7717 223.242 46.005C223.312 46.2383 223.347 46.5417 223.347 46.915C223.371 47.265 223.394 47.8133 223.417 48.56C223.464 50.73 223.417 53.3783 223.277 56.505L223.067 61.475H222.227H221.387L221.422 59.305C221.422 55.595 221.469 52.41 221.562 49.75C221.679 47.09 221.807 45.7133 221.947 45.62ZM208.787 46.46C209.044 46.18 209.231 46.0283 209.347 46.005C209.464 45.9583 209.651 46.0167 209.907 46.18C210.117 46.32 210.246 47.8017 210.292 50.625L210.397 54.895H213.302C215.239 54.895 216.546 54.8367 217.222 54.72C217.806 54.6033 218.214 54.65 218.447 54.86C218.704 55.0467 218.797 55.42 218.727 55.98L218.657 56.715L213.932 56.785C210.782 56.8783 209.102 56.8083 208.892 56.575C208.706 56.295 208.566 54.6383 208.472 51.605C208.402 49.5517 208.379 48.245 208.402 47.685C208.449 47.1017 208.577 46.6933 208.787 46.46ZM239.92 45.935C239.99 45.795 240.142 45.7133 240.375 45.69C240.632 45.6667 240.912 45.725 241.215 45.865C241.402 45.935 241.519 46.18 241.565 46.6C241.635 47.02 241.67 47.895 241.67 49.225C241.67 51.395 241.717 52.515 241.81 52.585C241.857 52.655 242.697 52.6317 244.33 52.515C245.824 52.3517 246.804 52.3167 247.27 52.41C247.76 52.5033 248.005 52.7717 248.005 53.215C248.005 53.3083 247.994 53.39 247.97 53.46C247.97 53.53 247.935 53.6 247.865 53.67C247.819 53.74 247.76 53.7983 247.69 53.845C247.644 53.8917 247.55 53.9383 247.41 53.985C247.27 54.0317 247.119 54.0667 246.955 54.09C246.792 54.1133 246.57 54.1483 246.29 54.195C246.034 54.2183 245.754 54.2417 245.45 54.265C245.17 54.2883 244.797 54.3233 244.33 54.37C242.72 54.4867 241.845 54.65 241.705 54.86C241.612 55.0233 241.542 56.0267 241.495 57.87C241.472 59.6667 241.425 60.5883 241.355 60.635C241.332 60.6817 241.11 60.775 240.69 60.915C240.2 61.055 239.897 60.915 239.78 60.495C239.64 59.9817 239.64 58.29 239.78 55.42C239.967 52.1767 240.014 49.82 239.92 48.35C239.78 46.9033 239.78 46.0983 239.92 45.935ZM229.98 46.915C231.544 46.6583 232.652 46.5417 233.305 46.565C233.959 46.565 234.332 46.6933 234.425 46.95C234.589 47.37 234.519 47.6967 234.215 47.93C233.935 48.1633 233.422 48.2917 232.675 48.315C230.552 48.3383 228.919 48.6067 227.775 49.12L226.9 49.435L227.005 52.025C227.052 52.725 227.075 53.2383 227.075 53.565C227.099 53.8917 227.145 54.23 227.215 54.58C227.285 54.93 227.355 55.1633 227.425 55.28C227.495 55.3733 227.624 55.49 227.81 55.63C228.02 55.7467 228.207 55.8167 228.37 55.84C228.557 55.8633 228.837 55.8867 229.21 55.91C230.26 56.0033 231.334 55.9917 232.43 55.875C234.18 55.6183 235.055 55.8633 235.055 56.61C235.055 56.89 235.009 57.1 234.915 57.24C234.845 57.38 234.624 57.4967 234.25 57.59C233.9 57.6833 233.434 57.7417 232.85 57.765C232.29 57.7883 231.45 57.8 230.33 57.8C230.12 57.8 229.829 57.8 229.455 57.8C228.895 57.8 228.499 57.8 228.265 57.8C228.032 57.8 227.729 57.7767 227.355 57.73C227.005 57.6833 226.784 57.66 226.69 57.66C226.597 57.6367 226.457 57.555 226.27 57.415C226.084 57.2517 225.967 57.1233 225.92 57.03C225.897 56.9133 225.839 56.7033 225.745 56.4C225.675 56.0967 225.629 55.84 225.605 55.63C225.605 55.3967 225.57 55.035 225.5 54.545C225.477 54.195 225.454 53.915 225.43 53.705C225.22 51.5817 225.127 50.135 225.15 49.365C225.174 48.595 225.325 48.14 225.605 48C226.609 47.6033 228.067 47.2417 229.98 46.915ZM250.495 59.34C250.845 59.1767 251.136 59.1183 251.37 59.165C251.626 59.1883 251.906 59.34 252.21 59.62C252.466 59.83 252.63 60.005 252.7 60.145C252.77 60.2617 252.805 60.4483 252.805 60.705C252.805 61.8483 252.221 62.42 251.055 62.42C250.891 62.42 250.751 62.4083 250.635 62.385C250.541 62.3617 250.46 62.315 250.39 62.245C250.32 62.1983 250.226 62.1167 250.11 62C249.876 61.72 249.76 61.3117 249.76 60.775C249.76 60.355 249.806 60.0517 249.9 59.865C249.993 59.6783 250.191 59.5033 250.495 59.34Z" fill="#1A1A1A"/>
<path d="M2.53508 60.6C2.48841 60.5067 2.44174 60.4133 2.39508 60.32C2.34841 60.2267 2.30174 60.1333 2.25508 60.04C2.02174 59.5967 1.87008 59.27 1.80008 59.06C1.75341 58.85 1.73008 58.4883 1.73008 57.975C1.73008 57.3683 1.78841 56.9133 1.90508 56.61C2.02174 56.2833 2.36008 55.7117 2.92008 54.895C3.41008 54.1483 3.64341 53.6233 3.62008 53.32C3.59674 53.0167 3.29341 52.725 2.71008 52.445C2.57008 52.375 2.43008 52.305 2.29008 52.235C2.17341 52.1417 2.05674 52.0483 1.94008 51.955C1.73008 51.745 1.54341 51.5233 1.38008 51.29C1.28674 51.1967 1.20508 51.0917 1.13508 50.975C1.08841 50.8583 1.04174 50.73 0.995078 50.59C0.901745 50.3567 0.855078 50.1233 0.855078 49.89C0.855078 48.9567 1.29841 47.86 2.18508 46.6C2.60508 46.0167 3.01341 45.585 3.41008 45.305C3.80674 45.0017 4.37841 44.7217 5.12508 44.465C5.56841 44.3017 6.14008 44.22 6.84008 44.22C7.28341 44.22 7.61008 44.2433 7.82008 44.29C8.03008 44.3367 8.29841 44.4417 8.62508 44.605C9.53508 45.0717 10.1534 45.6317 10.4801 46.285C10.5734 46.4483 10.6434 46.6817 10.6901 46.985C10.7367 47.2883 10.7601 47.6617 10.7601 48.105C10.7601 48.9683 10.7017 49.505 10.5851 49.715C10.4917 49.925 10.2234 50.2633 9.78008 50.73C9.71008 50.7767 9.64008 50.835 9.57008 50.905C9.52341 50.9517 9.47675 51.01 9.43008 51.08C9.40675 51.1267 9.37174 51.1733 9.32508 51.22C9.27841 51.2433 9.24341 51.2783 9.22008 51.325C9.19675 51.3483 9.17341 51.3717 9.15008 51.395C9.15008 51.4183 9.13841 51.4417 9.11508 51.465C9.11508 51.465 9.11508 51.4767 9.11508 51.5C9.11508 51.6633 9.47675 51.9317 10.2001 52.305C10.4567 52.4217 10.6434 52.5267 10.7601 52.62C10.9001 52.69 10.9701 52.76 10.9701 52.83C11.0167 52.8767 11.2617 53.145 11.7051 53.635C11.8217 53.7517 11.9151 53.8567 11.9851 53.95C12.0551 54.02 12.1134 54.09 12.1601 54.16C12.2301 54.23 12.2767 54.3 12.3001 54.37C12.4167 54.5333 12.4984 54.7783 12.5451 55.105C12.6151 55.525 12.6734 55.91 12.7201 56.26C12.7667 56.5633 12.7434 56.8667 12.6501 57.17C12.6034 57.4033 12.4984 57.8 12.3351 58.36C12.2884 58.5467 12.2184 58.7217 12.1251 58.885C12.0551 59.0483 11.9734 59.2 11.8801 59.34C11.7167 59.62 11.4017 59.9933 10.9351 60.46C10.7951 60.6233 10.6434 60.775 10.4801 60.915C10.3167 61.055 10.1417 61.1833 9.95508 61.3C9.76841 61.4167 9.57008 61.5333 9.36008 61.65C9.15008 61.7433 8.92841 61.8367 8.69508 61.93C8.46175 62 8.22841 62.07 7.99508 62.14C7.36508 62.3033 6.75841 62.385 6.17508 62.385C5.59175 62.385 5.03174 62.2917 4.49508 62.105C3.93508 61.9183 3.49174 61.6733 3.16508 61.37C3.11841 61.3233 3.06008 61.2767 2.99008 61.23C2.94341 61.16 2.88508 61.1017 2.81508 61.055C2.76841 60.985 2.72174 60.915 2.67508 60.845C2.62841 60.7517 2.58174 60.67 2.53508 60.6ZM8.34508 46.285C7.92508 45.8883 7.56341 45.6783 7.26008 45.655C7.12008 45.655 6.91008 45.69 6.63008 45.76C6.35008 45.8067 6.01175 45.9 5.61508 46.04C4.84508 46.2967 4.27341 46.6233 3.90008 47.02C3.55008 47.4167 3.18841 48.105 2.81508 49.085L2.57008 49.715L2.85008 50.24C3.01341 50.5667 3.34008 50.8583 3.83008 51.115C4.04008 51.2083 4.22674 51.29 4.39008 51.36C4.57674 51.4067 4.72841 51.4417 4.84508 51.465C4.98508 51.465 5.13674 51.4417 5.30008 51.395C5.48674 51.3483 5.68508 51.29 5.89508 51.22C6.03508 51.1733 6.16341 51.1267 6.28008 51.08C6.39675 51.0333 6.51341 50.9867 6.63008 50.94C6.77008 50.87 6.89841 50.8117 7.01508 50.765C7.15508 50.695 7.28341 50.6367 7.40008 50.59C7.84341 50.3567 8.08841 50.205 8.13508 50.135C8.13508 50.0883 8.27508 49.9017 8.55508 49.575C8.55508 49.5517 8.56675 49.54 8.59008 49.54C8.68341 49.4233 8.76508 49.3183 8.83508 49.225C8.90508 49.1317 8.94008 49.05 8.94008 48.98C8.96341 48.9567 8.97508 48.8983 8.97508 48.805C8.99841 48.7117 9.01008 48.595 9.01008 48.455C9.01008 48.315 9.01008 48.1633 9.01008 48V46.915L8.34508 46.285ZM7.64508 53.11C7.50508 53.2267 7.27175 53.3783 6.94508 53.565C6.45508 53.7983 6.04675 54.0433 5.72008 54.3C5.39341 54.5333 5.14841 54.7667 4.98508 55C4.86841 55.1633 4.63508 55.49 4.28508 55.98C4.02841 56.3533 3.83008 56.7033 3.69008 57.03C3.55008 57.3567 3.48008 57.6717 3.48008 57.975C3.48008 58.5583 3.67841 59.1183 4.07508 59.655C4.47175 60.1683 4.97341 60.53 5.58008 60.74C6.00008 60.88 6.35008 60.9033 6.63008 60.81C6.77008 60.7633 6.88675 60.7283 6.98008 60.705C7.09675 60.6583 7.20175 60.635 7.29508 60.635C7.36508 60.635 7.48175 60.6117 7.64508 60.565C7.83175 60.495 8.05341 60.4017 8.31008 60.285C8.82341 60.0283 9.20841 59.8067 9.46508 59.62C9.67508 59.4333 9.88508 59.2 10.0951 58.92C10.3051 58.6167 10.5151 58.1733 10.7251 57.59C10.7951 57.4033 10.8534 57.2283 10.9001 57.065C10.9467 56.9017 10.9817 56.7617 11.0051 56.645C11.0284 56.505 11.0401 56.3883 11.0401 56.295C11.0401 56.0617 10.9234 55.6767 10.6901 55.14C10.5967 54.9533 10.5151 54.8017 10.4451 54.685C10.3751 54.545 10.3167 54.4517 10.2701 54.405C10.2467 54.3583 10.2234 54.335 10.2001 54.335C10.1301 54.335 10.0484 54.3 9.95508 54.23C9.86175 54.1367 9.72175 54.0083 9.53508 53.845C9.20841 53.495 8.92841 53.2617 8.69508 53.145C8.22841 52.9117 7.87841 52.9 7.64508 53.11ZM17.4492 40.685C17.8692 40.615 18.4058 40.615 19.0592 40.685C20.8792 40.8717 22.1975 41.4433 23.0142 42.4C23.8542 43.3333 24.0875 44.535 23.7142 46.005C23.4108 47.055 22.8508 47.9067 22.0342 48.56C21.2175 49.19 20.2725 49.505 19.1992 49.505C17.5892 49.505 16.2708 48.91 15.2442 47.72C14.2175 46.5067 13.9258 45.235 14.3692 43.905C14.5558 43.3217 14.9992 42.6567 15.6992 41.91C16.4225 41.1633 17.0058 40.755 17.4492 40.685ZM21.4042 43.24C20.7742 42.5867 20.0042 42.2833 19.0942 42.33C18.2075 42.3533 17.4142 42.7267 16.7142 43.45C16.3875 43.8 16.1892 44.08 16.1192 44.29C16.0492 44.5 16.0492 44.815 16.1192 45.235C16.2825 46.145 16.7142 46.845 17.4142 47.335C18.1375 47.825 18.9075 47.965 19.7242 47.755C20.1675 47.6617 20.7042 47.3233 21.3342 46.74C21.7542 46.39 22.0108 46.11 22.1042 45.9C22.1975 45.69 22.2092 45.3517 22.1392 44.885C22.0458 44.2083 21.8008 43.66 21.4042 43.24ZM30.2242 43.31C30.3408 43.03 30.6442 42.9133 31.1342 42.96C31.1808 42.9833 31.2392 42.995 31.3092 42.995C31.5892 42.995 31.7408 43.205 31.7642 43.625C31.8108 44.0217 31.7875 45.445 31.6942 47.895C31.6708 48.6417 31.6475 49.225 31.6242 49.645L31.4842 53.775H30.7142H29.8742L29.7692 51.325L29.6292 48.84L28.7892 48.875C28.0425 48.9217 27.3658 49.0033 26.7592 49.12C25.8958 49.2367 25.3592 49.155 25.1492 48.875C24.6125 48.2683 24.8808 47.79 25.9542 47.44C26.5842 47.23 27.3775 47.125 28.3342 47.125C29.1275 47.0783 29.6058 47.0083 29.7692 46.915C29.9325 46.8217 30.0142 46.2617 30.0142 45.235C30.0142 44.3017 30.0842 43.66 30.2242 43.31ZM21.2292 50.94C22.2558 50.7767 23.1542 50.6717 23.9242 50.625C24.4608 50.625 24.7875 50.66 24.9042 50.73C25.0442 50.7767 25.1142 50.9633 25.1142 51.29C25.1142 51.7567 24.9392 52.0833 24.5892 52.27C24.2625 52.4333 23.5742 52.5617 22.5242 52.655C21.2875 52.7017 20.5525 52.8417 20.3192 53.075C20.1092 53.3083 19.9925 54.0783 19.9692 55.385C19.9692 55.6883 19.9575 56.0267 19.9342 56.4C19.9342 56.75 19.9225 57.03 19.8992 57.24C19.8992 57.45 19.8992 57.555 19.8992 57.555C19.8758 57.7183 19.6425 57.8 19.1992 57.8C18.7558 57.8 18.4642 57.6017 18.3242 57.205C18.2075 56.8083 18.1725 56.05 18.2192 54.93C18.2425 54.16 18.2308 53.6933 18.1842 53.53C18.1375 53.3433 17.9975 53.2733 17.7642 53.32C16.4342 53.53 15.6175 53.635 15.3142 53.635C15.0108 53.6117 14.8242 53.4833 14.7542 53.25C14.5675 52.76 14.6608 52.3983 15.0342 52.165C15.4308 51.9083 16.2242 51.6983 17.4142 51.535C18.5108 51.395 19.7825 51.1967 21.2292 50.94ZM25.9192 56.015C26.6192 55.8983 27.1442 55.8167 27.4942 55.77C27.8675 55.7 28.2292 55.665 28.5792 55.665C28.9525 55.6417 29.2092 55.6417 29.3492 55.665C29.4892 55.6883 29.6292 55.77 29.7692 55.91C29.9325 56.0267 30.0492 56.1667 30.1192 56.33C30.1892 56.47 30.2592 56.6917 30.3292 56.995C30.4925 57.5083 30.5858 58.2083 30.6092 59.095C30.6325 59.9817 30.5742 60.5883 30.4342 60.915C30.1308 61.5917 28.9058 62.0933 26.7592 62.42C25.6625 62.6067 24.9042 62.8167 24.4842 63.05C24.0642 63.3067 23.9358 63.61 24.0992 63.96C24.1692 64.17 24.2858 64.2867 24.4492 64.31C24.6125 64.3333 24.9042 64.2983 25.3242 64.205C25.9775 64.0417 26.9925 63.96 28.3692 63.96C29.3725 63.96 29.9675 63.995 30.1542 64.065C30.3642 64.135 30.4692 64.3217 30.4692 64.625C30.4692 64.9517 30.3408 65.1617 30.0842 65.255C29.8508 65.3717 29.1508 65.5117 27.9842 65.675C26.3275 65.9083 25.2542 66.13 24.7642 66.34C24.0875 66.5967 23.5625 66.585 23.1892 66.305C22.8158 66.025 22.5242 65.43 22.3142 64.52C22.0808 63.5167 22.0458 62.8283 22.2092 62.455C22.4425 62.1283 22.9325 61.8017 23.6792 61.475C24.4258 61.1483 25.2775 60.915 26.2342 60.775C27.3308 60.5883 28.0075 60.39 28.2642 60.18C28.5442 59.9467 28.6608 59.48 28.6142 58.78L28.5092 57.66L27.4242 57.73C26.5842 57.8 25.6158 58.0217 24.5192 58.395C23.4692 58.6983 22.7458 58.8267 22.3492 58.78C21.9525 58.7333 21.7892 58.4767 21.8592 58.01C21.9525 57.1467 23.3058 56.4817 25.9192 56.015ZM48.1622 46.075C48.4422 46.075 48.6522 46.0283 48.7922 45.935C48.9322 45.8183 49.3639 45.76 50.0872 45.76C50.9739 45.76 51.6622 45.935 52.1522 46.285C52.2456 46.355 52.3389 46.4367 52.4322 46.53C52.5256 46.6 52.6189 46.6933 52.7122 46.81C52.8056 46.9033 52.8872 47.02 52.9572 47.16C53.0272 47.2767 53.0972 47.4167 53.1672 47.58C53.2606 47.72 53.3422 47.8717 53.4122 48.035C53.6689 48.7117 53.7856 49.4817 53.7622 50.345C53.7622 51.2083 53.6222 52.025 53.3422 52.795C53.0389 53.635 52.6422 54.5333 52.1522 55.49C51.9189 55.9567 51.6972 56.365 51.4872 56.715C51.2772 57.0417 51.0906 57.31 50.9272 57.52C50.8339 57.6367 50.7289 57.8 50.6122 58.01C50.4722 58.29 50.1456 58.6867 49.6322 59.2C49.0956 59.7367 48.8856 60.0633 49.0022 60.18C49.1189 60.2967 49.7722 60.355 50.9622 60.355H52.7472L53.0972 60.775C53.5172 61.265 53.5756 61.6733 53.2722 62C52.9922 62.3033 52.4672 62.42 51.6972 62.35C51.3939 62.3267 50.9039 62.3033 50.2272 62.28C49.5739 62.2567 48.7339 62.2217 47.7072 62.175C46.9139 62.1517 46.2722 62.1167 45.7822 62.07C45.2922 62.0467 44.9656 62.0233 44.8022 62C44.6622 61.9533 44.5572 61.8833 44.4872 61.79C44.4172 61.6733 44.3822 61.5333 44.3822 61.37C44.3822 61.16 44.5106 60.9267 44.7672 60.67C45.0239 60.39 45.3389 60.1333 45.7122 59.9C47.8356 58.6633 49.2822 57.2983 50.0522 55.805C50.1456 55.595 50.2389 55.42 50.3322 55.28C50.4256 55.1167 50.4956 55 50.5422 54.93C50.5889 54.8367 50.6239 54.7783 50.6472 54.755C50.7872 54.6617 51.0206 54.23 51.3472 53.46C51.6972 52.69 51.9072 52.1183 51.9772 51.745C51.9772 51.6283 52.0006 51.4183 52.0472 51.115C52.0939 50.8117 52.1289 50.6133 52.1522 50.52C52.1989 50.31 52.1756 50.03 52.0822 49.68C52.0589 49.61 52.0356 49.54 52.0122 49.47C51.9889 49.4 51.9656 49.33 51.9422 49.26C51.9189 49.19 51.8956 49.12 51.8722 49.05C51.8489 48.98 51.8139 48.9217 51.7672 48.875C51.7439 48.805 51.7206 48.735 51.6972 48.665C51.6506 48.595 51.6039 48.525 51.5572 48.455C51.5339 48.385 51.4989 48.3267 51.4522 48.28C51.4289 48.21 51.3939 48.1633 51.3472 48.14C51.3239 48.0933 51.2889 48.0467 51.2422 48C51.1256 47.93 50.9739 47.86 50.7872 47.79C50.6006 47.6967 50.3789 47.6267 50.1222 47.58C49.8656 47.5333 49.6206 47.51 49.3872 47.51C49.1772 47.4867 48.9906 47.4983 48.8272 47.545C48.5706 47.5917 48.1972 47.685 47.7072 47.825C47.2406 47.965 46.7739 48.1283 46.3072 48.315C45.8406 48.5017 45.4556 48.665 45.1522 48.805C44.7556 48.9917 44.4289 49.0967 44.1722 49.12C44.0322 49.12 43.9156 49.0967 43.8222 49.05C43.7522 49.0033 43.7056 48.945 43.6822 48.875C43.6589 48.665 43.9622 48.245 44.5922 47.615C45.2456 46.9617 45.7122 46.6117 45.9922 46.565C46.3656 46.4717 46.7272 46.3667 47.0772 46.25C47.5439 46.1333 47.9056 46.075 48.1622 46.075ZM54.999 49.505C55.069 49.3183 55.2673 49.0033 55.594 48.56C55.804 48.2567 56.014 47.965 56.224 47.685C56.434 47.405 56.644 47.1483 56.854 46.915C57.064 46.6583 57.344 46.4133 57.694 46.18C58.0673 45.9233 58.4173 45.725 58.744 45.585C59.094 45.445 59.3857 45.375 59.619 45.375C59.759 45.375 59.8757 45.3633 59.969 45.34C60.0857 45.3167 60.179 45.2817 60.249 45.235C60.319 45.1883 60.459 45.1533 60.669 45.13C60.879 45.1067 61.159 45.095 61.509 45.095C61.859 45.095 62.104 45.1067 62.244 45.13C62.4073 45.1533 62.559 45.2 62.699 45.27C62.8623 45.34 63.0957 45.4683 63.399 45.655C63.889 46.005 64.204 46.2383 64.344 46.355C64.484 46.4717 64.6123 46.6233 64.729 46.81C64.7757 46.9033 64.8573 47.0083 64.974 47.125C65.0907 47.2183 65.254 47.3117 65.464 47.405C65.884 47.615 66.1173 47.8133 66.164 48C66.2107 48.1633 66.2107 48.9333 66.164 50.31C65.9073 56.4933 65.884 59.9 66.094 60.53C66.1873 60.81 66.199 61.0433 66.129 61.23C66.1057 61.3467 66.0473 61.475 65.954 61.615C65.8607 61.7317 65.7323 61.86 65.569 62C65.1723 62.4433 64.7873 62.49 64.414 62.14C64.344 62.07 64.2857 61.6967 64.239 61.02C64.1923 60.32 64.169 59.3167 64.169 58.01C64.169 55.35 64.134 53.9967 64.064 53.95C64.0407 53.95 63.994 53.9617 63.924 53.985C63.854 54.0083 63.7723 54.0667 63.679 54.16C63.5857 54.23 63.4573 54.335 63.294 54.475C63.154 54.5917 62.9907 54.7433 62.804 54.93C62.4773 55.2567 62.1857 55.525 61.929 55.735C61.6723 55.945 61.439 56.0967 61.229 56.19C60.809 56.3533 60.214 56.435 59.444 56.435C58.8607 56.435 58.4173 56.3767 58.114 56.26C57.8107 56.12 57.3907 55.805 56.854 55.315C56.224 54.7317 55.7223 54.0083 55.349 53.145C54.9757 52.2583 54.8123 51.3833 54.859 50.52L54.999 49.505ZM62.769 47.055C62.2557 46.705 61.719 46.565 61.159 46.635C60.6223 46.6817 59.8873 46.9617 58.954 47.475C56.9007 48.525 56.2707 50.205 57.064 52.515C57.2507 53.0517 57.589 53.5533 58.079 54.02C58.4057 54.3467 58.639 54.545 58.779 54.615C58.919 54.6617 59.199 54.685 59.619 54.685C60.6223 54.685 61.4507 54.3 62.104 53.53C62.174 53.4367 62.2557 53.3317 62.349 53.215C62.4657 53.0983 62.594 52.97 62.734 52.83C62.874 52.6667 63.0257 52.4917 63.189 52.305C63.6323 51.745 63.924 51.1267 64.064 50.45C64.134 50.1233 64.1573 49.7967 64.134 49.47C64.134 49.1433 64.0757 48.8167 63.959 48.49C63.9123 48.3733 63.8657 48.2683 63.819 48.175C63.7957 48.0583 63.7607 47.965 63.714 47.895C63.6673 47.825 63.6207 47.7667 63.574 47.72C63.5273 47.6733 63.469 47.615 63.399 47.545C63.329 47.475 63.2357 47.405 63.119 47.335C63.0257 47.2417 62.909 47.1483 62.769 47.055ZM70.977 42.26C71.7237 41.98 72.3537 41.84 72.867 41.84C73.3804 41.84 74.0454 42.0383 74.862 42.435C75.702 42.8317 76.2854 43.24 76.612 43.66C76.9387 44.08 77.207 44.7917 77.417 45.795C77.627 46.7983 77.6854 47.615 77.592 48.245C77.452 48.945 77.0437 49.6567 76.367 50.38C75.7137 51.1033 75.0137 51.5933 74.267 51.85C73.0537 52.2467 71.922 52.2583 70.872 51.885C69.822 51.4883 68.9587 50.73 68.282 49.61C67.442 48.1867 67.372 46.67 68.072 45.06C68.3987 44.3367 68.7837 43.7533 69.227 43.31C69.6937 42.8667 70.277 42.5167 70.977 42.26ZM75.422 45.235C75.1654 44.6283 74.7687 44.1967 74.232 43.94C73.7187 43.6833 73.1704 43.625 72.587 43.765C72.027 43.8817 71.4904 44.1033 70.977 44.43C70.4637 44.7567 70.067 45.235 69.787 45.865C69.5304 46.4717 69.4604 47.1017 69.577 47.755C69.6704 48.1283 69.7987 48.4783 69.962 48.805C70.1487 49.1083 70.3704 49.3767 70.627 49.61C70.907 49.8433 71.2104 50.03 71.537 50.17C71.887 50.2867 72.2604 50.345 72.657 50.345C73.1704 50.345 73.5554 50.2867 73.812 50.17C74.0687 50.03 74.407 49.7383 74.827 49.295C75.877 48.175 76.0754 46.8217 75.422 45.235ZM81.127 42.68C81.3137 42.12 81.757 41.9683 82.457 42.225C82.7137 42.3417 82.8304 44.1267 82.807 47.58C82.807 51.01 82.6787 52.8883 82.422 53.215C82.142 53.565 81.8854 53.705 81.652 53.635C81.4187 53.5417 81.2554 53.2733 81.162 52.83C81.0454 52.27 80.9754 50.5433 80.952 47.65C80.952 44.7333 81.0104 43.0767 81.127 42.68ZM75.877 54.755C77.277 54.615 78.2104 54.545 78.677 54.545C79.1437 54.5217 79.517 54.5567 79.797 54.65C80.217 54.8133 80.5437 55.3033 80.777 56.12C81.0337 56.9367 81.127 57.7883 81.057 58.675C81.0104 59.5617 80.8004 60.18 80.427 60.53C80.1237 60.8333 79.797 61.02 79.447 61.09C79.097 61.1367 78.362 61.125 77.242 61.055C76.192 61.0317 75.5037 61.1017 75.177 61.265C74.8737 61.405 74.722 61.755 74.722 62.315C74.722 62.8283 74.8387 63.1667 75.072 63.33C75.3287 63.5167 75.6787 63.505 76.122 63.295C76.4954 63.085 77.4754 62.9683 79.062 62.945C80.252 62.9217 80.9404 62.9333 81.127 62.98C81.337 63.0267 81.442 63.225 81.442 63.575C81.442 63.9483 81.2437 64.205 80.847 64.345C80.4737 64.485 79.1787 64.73 76.962 65.08L74.127 65.57L73.567 64.975C73.1704 64.6017 72.937 63.8433 72.867 62.7C72.7737 61.3933 72.902 60.565 73.252 60.215C73.6254 59.865 74.5704 59.6317 76.087 59.515C77.6737 59.4217 78.572 59.27 78.782 59.06C79.0387 58.8733 79.1554 58.43 79.132 57.73C79.1087 57.0067 78.957 56.5867 78.677 56.47C78.4437 56.3767 77.7437 56.4117 76.577 56.575C75.4337 56.7383 74.4304 56.9367 73.567 57.17C72.8437 57.3567 72.3887 57.3333 72.202 57.1C71.7587 56.54 72.062 56.0033 73.112 55.49C73.8354 55.1167 74.757 54.8717 75.877 54.755ZM88.6985 47.125C89.2352 46.9617 89.6902 46.915 90.0635 46.985C90.4602 47.0317 91.1368 47.265 92.0935 47.685C93.6568 48.3383 94.4502 49.7383 94.4735 51.885C94.4735 52.9817 94.3685 53.8217 94.1585 54.405C93.9718 54.965 93.6102 55.56 93.0735 56.19C92.5835 56.75 92.2102 57.0883 91.9535 57.205C91.7202 57.3217 91.2652 57.38 90.5885 57.38C89.2585 57.38 87.9868 56.9833 86.7735 56.19C85.5835 55.3967 84.8952 54.51 84.7085 53.53C84.5452 52.5733 84.5802 51.745 84.8135 51.045C85.0468 50.345 85.5485 49.61 86.3185 48.84C86.6918 48.4433 87.1118 48.0817 87.5785 47.755C88.0685 47.4283 88.4418 47.2183 88.6985 47.125ZM91.1135 48.98C90.5302 48.7933 90.1102 48.7233 89.8535 48.77C89.5968 48.7933 89.1302 48.9917 88.4535 49.365C87.6602 49.8317 87.1352 50.24 86.8785 50.59C86.6218 50.94 86.4818 51.43 86.4585 52.06C86.4585 52.8533 86.7502 53.5417 87.3335 54.125C87.9402 54.7083 88.7335 55.105 89.7135 55.315C90.4602 55.5017 90.9268 55.5833 91.1135 55.56C91.3002 55.5133 91.5568 55.2917 91.8835 54.895C92.0702 54.685 92.1985 54.4867 92.2685 54.3C92.3618 54.09 92.4202 53.8333 92.4435 53.53C92.4902 53.2267 92.5135 52.8067 92.5135 52.27C92.5135 51.1033 92.4202 50.3217 92.2335 49.925C92.0702 49.505 91.6968 49.19 91.1135 48.98ZM104.694 47.125C104.857 46.8917 105.067 46.7867 105.324 46.81C105.58 46.81 105.814 46.9383 106.024 47.195C106.257 47.475 106.304 49.295 106.164 52.655C106 55.945 105.919 57.975 105.919 58.745C105.895 59.4217 105.802 59.8767 105.639 60.11C105.499 60.3433 105.195 60.5067 104.729 60.6L103.994 60.74L104.239 56.68C104.402 53.4133 104.484 51.2083 104.484 50.065C104.484 48.3383 104.554 47.3583 104.694 47.125ZM100.564 47.65C101.03 47.2067 101.462 47.23 101.859 47.72C102.069 47.9767 102.069 49.2833 101.859 51.64C101.719 53.4367 101.555 55.4433 101.369 57.66L101.194 60.11H100.389H99.5485L99.5835 56.855C99.5835 56.8083 99.5835 56.75 99.5835 56.68C99.6302 55.0233 99.5835 54.09 99.4435 53.88C99.3035 53.6467 98.7902 53.6583 97.9035 53.915C97.8335 53.9383 97.7868 53.95 97.7635 53.95C97.1802 54.1367 96.6202 54.1833 96.0835 54.09C95.5468 53.9967 95.2785 53.8217 95.2785 53.565C95.2785 53.1217 95.4768 52.7717 95.8735 52.515C96.2935 52.2583 96.9702 52.0833 97.9035 51.99C99.1635 51.8267 99.8752 51.6283 100.039 51.395C100.179 51.115 100.249 50.4733 100.249 49.47C100.249 48.4667 100.354 47.86 100.564 47.65ZM131.321 46.705C131.531 46.1683 132.032 46.0983 132.826 46.495C133.012 46.6117 133.117 46.7517 133.141 46.915C133.187 47.0783 133.164 47.37 133.071 47.79C132.931 48.5367 132.814 49.3533 132.721 50.24L132.581 51.71L133.841 51.535C135.544 51.325 136.396 51.045 136.396 50.695C136.489 48.875 136.617 47.685 136.781 47.125C136.967 46.5417 137.294 46.3083 137.761 46.425C138.134 46.5183 138.356 46.7517 138.426 47.125C138.519 47.475 138.496 48.0583 138.356 48.875C138.169 49.8317 138.006 51.955 137.866 55.245C137.796 57.5083 137.714 58.9317 137.621 59.515C137.551 60.075 137.399 60.425 137.166 60.565C136.816 60.7517 136.501 60.7867 136.221 60.67C136.034 60.6 135.917 60.3433 135.871 59.9C135.847 59.4333 135.847 58.4183 135.871 56.855L135.976 53.25L135.101 53.285C134.541 53.285 133.946 53.4133 133.316 53.67L132.476 54.02L132.581 56.82C132.651 57.7767 132.662 58.5117 132.616 59.025C132.569 59.515 132.476 59.8417 132.336 60.005C132.219 60.1683 132.009 60.25 131.706 60.25C131.169 60.25 130.854 59.9 130.761 59.2C130.691 58.5 130.714 56.54 130.831 53.32C131.041 49.1667 131.204 46.9617 131.321 46.705ZM124.846 46.95C126.059 46.7633 126.771 46.915 126.981 47.405C127.191 47.8717 127.237 49.435 127.121 52.095C127.027 54.2417 126.946 55.5133 126.876 55.91C126.806 56.3067 126.596 56.5867 126.246 56.75C125.779 57.03 124.461 57.1817 122.291 57.205L119.106 57.275L118.826 56.19C118.709 55.7467 118.616 54.79 118.546 53.32C118.476 51.85 118.464 50.6133 118.511 49.61C118.557 48.4667 120.669 47.58 124.846 46.95ZM125.581 48.98H124.601C123.994 48.98 123.107 49.1433 121.941 49.47L120.296 49.925L120.226 52.025C120.156 53.285 120.179 54.1717 120.296 54.685C120.389 55.0117 120.541 55.1983 120.751 55.245C120.961 55.2917 121.626 55.28 122.746 55.21L124.986 55.105L125.161 54.16C125.277 53.53 125.371 52.515 125.441 51.115L125.581 48.98ZM144.833 41.21C144.88 41.07 145.09 41 145.463 41C145.766 41 145.965 41.2217 146.058 41.665C146.175 42.085 146.151 42.68 145.988 43.45C145.895 43.94 145.825 44.2667 145.778 44.43C145.755 44.5933 145.743 44.8033 145.743 45.06C145.743 45.2933 145.755 45.4333 145.778 45.48C145.801 45.5033 145.906 45.5383 146.093 45.585C146.28 45.6317 146.443 45.6433 146.583 45.62C146.723 45.5967 146.98 45.5617 147.353 45.515C148.73 45.3517 149.5 45.5033 149.663 45.97C149.85 46.4133 149.441 47.265 148.438 48.525C147.715 49.4117 147.353 49.925 147.353 50.065C147.353 50.205 147.586 50.4733 148.053 50.87C148.52 51.2667 149.056 51.64 149.663 51.99C150.386 52.4333 150.748 52.9117 150.748 53.425C150.725 53.7517 150.503 53.915 150.083 53.915C149.686 53.915 149.161 53.74 148.508 53.39C147.878 53.0167 147.283 52.5617 146.723 52.025L145.953 51.325L145.253 52.13C144.366 53.18 143.725 53.88 143.328 54.23C142.955 54.58 142.64 54.755 142.383 54.755C142.01 54.755 141.776 54.615 141.683 54.335C141.59 54.0317 141.671 53.6817 141.928 53.285C142.208 52.8883 143.141 51.8617 144.728 50.205C146.315 48.525 147.108 47.615 147.108 47.475C147.108 47.4517 147.073 47.4283 147.003 47.405C146.956 47.3817 146.886 47.37 146.793 47.37C146.7 47.37 146.595 47.3933 146.478 47.44C145.941 47.5567 144.868 47.755 143.258 48.035C141.415 48.3383 140.423 48.3383 140.283 48.035C140.213 47.8717 140.26 47.615 140.423 47.265C140.516 47.0083 140.691 46.8217 140.948 46.705C141.228 46.5883 141.73 46.4717 142.453 46.355C143.643 46.1683 144.203 45.9583 144.133 45.725C144.086 45.5383 144.168 44.78 144.378 43.45C144.588 42.12 144.74 41.3733 144.833 41.21ZM153.128 45.935C153.291 45.6317 153.431 45.4683 153.548 45.445C153.665 45.4217 153.898 45.5033 154.248 45.69C154.505 45.83 154.656 46.1333 154.703 46.6C154.75 47.0433 154.773 48.175 154.773 49.995C154.726 52.795 154.668 54.3 154.598 54.51C154.505 54.8367 154.248 55.0117 153.828 55.035C153.408 55.035 153.14 54.8833 153.023 54.58C152.883 54.2067 152.825 52.7483 152.848 50.205C152.895 47.6383 152.988 46.215 153.128 45.935ZM147.983 57.135C148.613 56.8317 149.465 56.68 150.538 56.68C151.028 56.68 151.436 56.7267 151.763 56.82C152.113 56.89 152.428 57.0067 152.708 57.17C152.988 57.3333 153.233 57.555 153.443 57.835C153.653 58.0917 153.863 58.4183 154.073 58.815C154.33 59.305 154.435 59.9583 154.388 60.775C154.341 61.5683 154.143 62.385 153.793 63.225C153.606 63.715 153.151 64.1583 152.428 64.555C151.728 64.975 151.04 65.1967 150.363 65.22C149.78 65.22 149.091 64.9983 148.298 64.555C147.505 64.1117 146.898 63.6217 146.478 63.085C145.755 62.105 145.545 60.985 145.848 59.725C146.175 58.465 146.886 57.6017 147.983 57.135ZM151.868 58.745C151.308 58.325 150.573 58.2317 149.663 58.465C148.753 58.675 148.111 59.095 147.738 59.725C147.458 60.2383 147.353 60.6583 147.423 60.985C147.493 61.3117 147.785 61.7433 148.298 62.28C149.511 63.5867 150.713 63.68 151.903 62.56C152.253 62.2333 152.463 61.965 152.533 61.755C152.603 61.5217 152.603 61.1017 152.533 60.495C152.416 59.5617 152.195 58.9783 151.868 58.745Z" fill="#F49393"/>
</svg>
