<svg width="232" height="68" viewBox="0 0 232 68" fill="none" xmlns="http://www.w3.org/2000/svg">
<path d="M93.3454 4.31C93.4388 4.05333 93.6488 3.925 93.9754 3.925C94.4421 3.925 94.7338 4.11167 94.8504 4.485C94.9671 4.835 94.9438 5.55833 94.7804 6.655C94.6171 7.96167 94.6288 8.72 94.8154 8.93C95.0254 9.11667 95.7488 9.09333 96.9854 8.86C98.0821 8.67333 98.8171 8.62667 99.1904 8.72C99.5638 8.79 99.7504 9.04667 99.7504 9.49C99.7504 9.79333 99.6688 9.99167 99.5054 10.085C99.3654 10.1783 99.0154 10.26 98.4554 10.33C97.5921 10.4233 96.6938 10.6217 95.7604 10.925L94.3604 11.38L94.5004 13.305L94.6404 15.195H93.7304C93.1471 15.195 92.7971 15.055 92.6804 14.775C92.5871 14.5417 92.6338 12.815 92.8204 9.595C93.0304 6.375 93.2054 4.61333 93.3454 4.31ZM85.1904 5.535C85.6571 4.99833 86.0771 4.625 86.4504 4.415C86.8471 4.205 87.1154 4.15833 87.2554 4.275C87.4188 4.39167 87.4304 4.66 87.2904 5.08C87.1504 5.5 86.8588 6.00167 86.4154 6.585C85.7621 7.355 85.4354 7.86833 85.4354 8.125C85.4354 8.21833 85.5754 8.39333 85.8554 8.65C86.1354 8.88333 86.4504 9.11667 86.8004 9.35C88.6671 10.61 89.6004 11.625 89.6004 12.395C89.6004 13.5383 88.8654 13.445 87.3954 12.115C86.8354 11.555 86.2288 11.065 85.5754 10.645C84.9221 10.2017 84.4788 9.98 84.2454 9.98C84.1054 9.98 83.8371 10.4117 83.4404 11.275C83.0438 12.1383 82.8104 12.8033 82.7404 13.27C82.6704 13.7133 82.5654 13.9933 82.4254 14.11C82.3088 14.2033 82.0754 14.25 81.7254 14.25C81.3754 14.25 81.1421 14.2033 81.0254 14.11C80.9088 14.0167 80.8388 13.8183 80.8154 13.515C80.7454 12.9317 81.1888 11.765 82.1454 10.015C83.1254 8.265 84.1404 6.77167 85.1904 5.535ZM89.3554 16.84C90.1721 16.5367 90.8371 16.42 91.3504 16.49C91.8638 16.5367 92.4821 16.7933 93.2054 17.26C94.7921 18.31 95.4804 19.8267 95.2704 21.81C95.2004 22.6967 95.0138 23.3967 94.7104 23.91C94.4071 24.4233 93.8938 24.9133 93.1704 25.38C92.7738 25.6367 92.4238 25.7883 92.1204 25.835C91.8404 25.905 91.3971 25.905 90.7904 25.835C89.8104 25.7183 89.0404 25.5317 88.4804 25.275C87.9438 25.0417 87.4188 24.6333 86.9054 24.05C86.1354 23.1633 85.7621 22.16 85.7854 21.04C85.8088 19.8967 86.2288 18.94 87.0454 18.17C87.5588 17.6333 88.3288 17.19 89.3554 16.84ZM92.8554 19.185C91.8988 18.2283 90.7438 18.0883 89.3904 18.765C88.7371 19.0683 88.2821 19.4067 88.0254 19.78C87.7688 20.1533 87.6404 20.6667 87.6404 21.32C87.6404 21.67 87.7338 22.0317 87.9204 22.405C88.1304 22.755 88.3988 23.07 88.7254 23.35C89.0754 23.63 89.4254 23.8167 89.7754 23.91C90.2888 24.05 90.8721 24.0383 91.5254 23.875C92.2021 23.7117 92.6804 23.4783 92.9604 23.175C93.4038 22.7317 93.6138 22.0783 93.5904 21.215C93.5671 20.3283 93.3221 19.6517 92.8554 19.185ZM114.164 7.985C114.351 7.47167 114.654 7.215 115.074 7.215C115.237 7.215 115.366 7.23833 115.459 7.285C115.576 7.33167 115.669 7.425 115.739 7.565C115.809 7.68167 115.856 7.83333 115.879 8.02C115.902 8.20667 115.902 8.48667 115.879 8.86C115.879 9.23333 115.856 9.65333 115.809 10.12C115.762 10.5633 115.704 11.135 115.634 11.835L115.494 12.78L116.964 12.57C118.271 12.4067 119.041 12.2083 119.274 11.975C119.507 11.7417 119.624 11.0883 119.624 10.015C119.624 8.265 119.892 7.37833 120.429 7.355C120.592 7.355 120.767 7.40167 120.954 7.495C121.234 7.635 121.397 7.79833 121.444 7.985C121.491 8.14833 121.479 8.475 121.409 8.965C121.292 9.92167 121.187 12.1617 121.094 15.685C121.024 18.4383 120.942 20.0717 120.849 20.585C120.779 21.0983 120.592 21.425 120.289 21.565C119.846 21.775 119.554 21.81 119.414 21.67C119.274 21.5067 119.227 20.27 119.274 17.96C119.321 15.9067 119.239 14.74 119.029 14.46C118.842 14.1567 118.154 14.18 116.964 14.53L115.424 14.95L115.529 17.715C115.576 18.9283 115.576 19.7217 115.529 20.095C115.482 20.445 115.354 20.6783 115.144 20.795C114.817 21.005 114.502 21.005 114.199 20.795C113.966 20.6783 113.826 20.2933 113.779 19.64C113.732 18.9633 113.732 17.295 113.779 14.635C113.849 10.6917 113.977 8.475 114.164 7.985ZM107.934 7.775C108.284 7.61167 108.786 7.55333 109.439 7.6C109.859 7.62333 110.127 7.68167 110.244 7.775C110.361 7.86833 110.419 8.10167 110.419 8.475V9.28L107.479 9.595C105.449 9.85167 104.224 10.0617 103.804 10.225C103.454 10.365 103.244 10.505 103.174 10.645C103.127 10.7617 103.139 10.995 103.209 11.345C103.326 12.045 103.384 12.9083 103.384 13.935C103.384 15.0783 103.512 15.8133 103.769 16.14C104.049 16.4433 104.702 16.6067 105.729 16.63C106.872 16.63 107.887 16.56 108.774 16.42C109.404 16.3267 109.812 16.3033 109.999 16.35C110.209 16.3967 110.384 16.5367 110.524 16.77C110.804 17.3067 110.792 17.68 110.489 17.89C110.209 18.1 109.521 18.2517 108.424 18.345C104.457 18.6483 102.381 18.59 102.194 18.17C102.101 17.9133 101.937 16.4433 101.704 13.76C101.564 11.9867 101.494 10.8433 101.494 10.33C101.494 9.81667 101.587 9.47833 101.774 9.315C101.937 9.15167 102.287 8.97667 102.824 8.79C103.361 8.58 103.956 8.405 104.609 8.265C105.262 8.125 105.811 8.04333 106.254 8.02C107.001 8.02 107.561 7.93833 107.934 7.775ZM128.272 3.68C128.319 3.68 128.389 3.66833 128.482 3.645C130.162 3.48167 131.154 3.42333 131.457 3.47C131.761 3.49333 131.982 3.65667 132.122 3.96C132.146 4.00667 132.157 4.04167 132.157 4.065C132.251 4.32167 132.309 4.54333 132.332 4.73C132.356 4.89333 132.239 5.02167 131.982 5.115C131.726 5.20833 131.387 5.27833 130.967 5.325C130.571 5.34833 129.964 5.37167 129.147 5.395C128.354 5.41833 127.724 5.45333 127.257 5.5C126.814 5.54667 126.417 5.61667 126.067 5.71C125.741 5.80333 125.507 5.96667 125.367 6.2C125.227 6.41 125.122 6.655 125.052 6.935C125.006 7.215 124.982 7.61167 124.982 8.125V9.77L125.997 9.56C130.081 8.76667 132.122 8.86 132.122 9.84C132.122 10.2133 131.971 10.47 131.667 10.61C131.387 10.7267 130.827 10.7967 129.987 10.82C129.101 10.82 128.062 10.9833 126.872 11.31C126.079 11.52 125.589 11.695 125.402 11.835C125.216 11.9517 125.146 12.1617 125.192 12.465C125.239 13.025 125.414 13.3517 125.717 13.445C126.021 13.515 126.697 13.4333 127.747 13.2C130.734 12.5467 132.402 12.5 132.752 13.06C132.939 13.34 132.916 13.6317 132.682 13.935C132.472 14.2383 132.157 14.39 131.737 14.39C131.364 14.39 130.267 14.565 128.447 14.915C126.767 15.265 125.636 15.44 125.052 15.44C124.469 15.44 124.131 15.2883 124.037 14.985C123.641 13.7483 123.384 11.8933 123.267 9.42C123.151 6.94667 123.244 5.535 123.547 5.185C124.247 4.39167 125.822 3.89 128.272 3.68ZM135.587 5.185C135.681 4.92833 135.891 4.78833 136.217 4.765C136.567 4.71833 136.812 4.81167 136.952 5.045C137.069 5.23167 137.151 7.02833 137.197 10.435V15.51L136.567 15.65C136.147 15.7433 135.856 15.6733 135.692 15.44C135.506 15.16 135.389 13.5267 135.342 10.54C135.319 7.55333 135.401 5.76833 135.587 5.185ZM133.977 17.645C134.467 17.4817 134.736 17.4 134.782 17.4C134.829 17.4 134.922 17.435 135.062 17.505C135.226 17.5517 135.389 17.6333 135.552 17.75C135.716 17.8667 135.867 17.9833 136.007 18.1C136.171 18.1933 136.276 18.275 136.322 18.345C136.462 18.5783 136.532 19.605 136.532 21.425C136.532 23.035 136.404 23.9917 136.147 24.295C135.914 24.5983 135.097 24.82 133.697 24.96C133.371 24.9833 132.822 25.03 132.052 25.1C131.306 25.1933 130.827 25.2517 130.617 25.275C130.291 25.3217 130.022 25.345 129.812 25.345C129.602 25.345 129.404 25.3217 129.217 25.275C129.031 25.2517 128.891 25.1817 128.797 25.065C128.704 24.9483 128.611 24.8083 128.517 24.645C128.447 24.505 128.389 24.2717 128.342 23.945C128.319 23.6417 128.296 23.3267 128.272 23C128.272 22.65 128.272 22.2067 128.272 21.67C128.272 19.85 128.342 18.835 128.482 18.625C128.622 18.415 129.054 18.31 129.777 18.31C131.131 18.31 132.531 18.0883 133.977 17.645ZM134.712 19.745L133.627 19.675C133.231 19.675 132.811 19.71 132.367 19.78C131.924 19.8267 131.504 19.92 131.107 20.06C130.734 20.2 130.466 20.34 130.302 20.48C130.046 20.69 129.917 21.2383 129.917 22.125V23.455L131.527 23.28C131.807 23.2333 132.216 23.175 132.752 23.105C133.289 23.0583 133.627 23.0233 133.767 23C133.861 23 133.966 22.9883 134.082 22.965C134.222 22.9417 134.327 22.93 134.397 22.93C134.491 22.93 134.549 22.93 134.572 22.93C134.666 22.8833 134.712 22.335 134.712 21.285V19.745ZM142.385 1.545C143.808 0.868332 145.22 0.844999 146.62 1.475C148.043 2.105 148.988 3.17833 149.455 4.695C149.572 5.13833 149.618 5.52333 149.595 5.85C149.572 6.17667 149.478 6.62 149.315 7.18C149.058 7.95 148.65 8.60333 148.09 9.14C147.553 9.67667 146.83 10.155 145.92 10.575C145.407 10.785 145.01 10.9017 144.73 10.925C144.45 10.9483 144.065 10.89 143.575 10.75C143.155 10.6567 142.723 10.5283 142.28 10.365C141.86 10.1783 141.487 9.99167 141.16 9.805C140.833 9.61833 140.588 9.44333 140.425 9.28C140.192 9.07 139.958 8.77833 139.725 8.405C139.492 8.03167 139.305 7.65833 139.165 7.285C139.025 6.91167 138.955 6.60833 138.955 6.375C138.955 5.44167 139.27 4.52 139.9 3.61C140.553 2.7 141.382 2.01166 142.385 1.545ZM146.725 3.47C146.305 3.07333 145.757 2.875 145.08 2.875C144.403 2.85167 143.762 2.98 143.155 3.26C142.548 3.54 142.012 3.94833 141.545 4.485C141.102 4.99833 140.88 5.54667 140.88 6.13C140.88 6.66667 141.125 7.215 141.615 7.775C142.128 8.335 142.712 8.70833 143.365 8.895C144.042 9.105 144.648 9.11667 145.185 8.93C145.722 8.72 146.34 8.24167 147.04 7.495C147.6 6.98167 147.903 6.62 147.95 6.41C148.02 6.2 147.973 5.815 147.81 5.255C147.553 4.50833 147.192 3.91333 146.725 3.47ZM149 12.185C149.863 11.8117 150.493 11.9167 150.89 12.5C151.077 12.78 151.17 12.9783 151.17 13.095C151.17 13.2117 151.065 13.3867 150.855 13.62C150.575 13.9467 149.852 14.11 148.685 14.11C147.472 14.11 145.943 14.3083 144.1 14.705C142.21 15.1017 140.95 15.3 140.32 15.3C139.9 15.3233 139.632 15.3 139.515 15.23C139.422 15.1367 139.375 14.9383 139.375 14.635C139.375 14.3783 139.468 14.145 139.655 13.935C139.842 13.725 140.11 13.5617 140.46 13.445C140.833 13.3283 141.242 13.27 141.685 13.27C142.315 13.27 143.097 13.1417 144.03 12.885C144.893 12.6283 145.85 12.4767 146.9 12.43C147.95 12.43 148.65 12.3483 149 12.185ZM145.675 16.805C146.328 16.5483 147.098 16.5017 147.985 16.665C148.895 16.805 149.478 17.085 149.735 17.505C149.875 17.715 149.933 18.3333 149.91 19.36C149.91 20.3633 149.84 21.0517 149.7 21.425C149.397 22.1717 148.055 22.615 145.675 22.755C144.275 22.825 143.528 22.86 143.435 22.86C143.202 22.8833 143.085 23.1167 143.085 23.56C143.085 24.0033 143.272 24.26 143.645 24.33C144.042 24.4233 144.718 24.365 145.675 24.155C148.405 23.4783 149.957 23.455 150.33 24.085C150.4 24.3183 150.447 24.505 150.47 24.645C150.517 24.785 150.353 24.925 149.98 25.065C149.607 25.205 149.128 25.3333 148.545 25.45C147.962 25.59 147.087 25.765 145.92 25.975C144.217 26.255 142.98 26.2083 142.21 25.835C141.463 25.4617 141.09 24.7033 141.09 23.56C141.09 22.7667 141.312 22.23 141.755 21.95C142.222 21.6467 143.202 21.425 144.695 21.285C146.422 21.075 147.413 20.8767 147.67 20.69C147.927 20.48 148.055 20.06 148.055 19.43C148.055 18.9867 148.008 18.73 147.915 18.66C147.822 18.5667 147.518 18.52 147.005 18.52C146.375 18.52 145.278 18.6717 143.715 18.975C142.035 19.325 141.125 19.325 140.985 18.975C140.938 18.8117 140.985 18.555 141.125 18.205C141.218 17.9017 141.393 17.6917 141.65 17.575C141.907 17.435 142.373 17.295 143.05 17.155C144.193 16.9217 144.823 16.84 144.94 16.91C145.08 17.0033 145.325 16.9683 145.675 16.805ZM138.591 44.94C138.545 44.17 138.545 43.715 138.591 43.575C138.661 43.435 138.871 43.365 139.221 43.365C140.201 43.365 140.563 44.4033 140.306 46.48L140.131 48.055L141.321 48.02C142.231 47.9967 142.92 47.9267 143.386 47.81C143.666 47.74 143.946 47.7167 144.226 47.74C144.506 47.74 144.751 47.7867 144.961 47.88C145.171 47.95 145.346 48.0667 145.486 48.23C145.65 48.3933 145.755 48.5683 145.801 48.755C145.871 49.2217 145.755 49.525 145.451 49.665C145.171 49.805 144.728 49.7933 144.121 49.63C143.491 49.4667 142.815 49.4783 142.091 49.665C141.368 49.875 140.458 50.0267 139.361 50.12C138.195 50.26 137.355 50.4467 136.841 50.68C136.351 50.9367 135.815 51.065 135.231 51.065C134.905 51.065 134.683 51.03 134.566 50.96C134.473 50.8667 134.426 50.68 134.426 50.4C134.426 49.9567 134.578 49.6417 134.881 49.455C135.185 49.245 135.838 49.0467 136.841 48.86C137.705 48.6733 138.206 48.5217 138.346 48.405C138.51 48.2883 138.603 47.985 138.626 47.495C138.626 46.375 138.615 45.5233 138.591 44.94ZM152.731 48.37C152.801 48.1367 153.093 48.055 153.606 48.125L154.341 48.195L154.271 50.225C154.201 51.5083 154.085 53.1183 153.921 55.055C153.711 56.8983 153.676 58.415 153.816 59.605C153.886 60.4683 153.898 61.005 153.851 61.215C153.828 61.4017 153.653 61.565 153.326 61.705C152.883 61.915 152.556 61.95 152.346 61.81C152.16 61.67 152.043 60.6667 151.996 58.8C151.95 57.2133 151.833 56.28 151.646 56C151.483 55.6967 151.028 55.72 150.281 56.07L149.441 56.525L149.581 58.8C149.675 59.7567 149.698 60.3983 149.651 60.725C149.628 61.0517 149.523 61.285 149.336 61.425C148.776 61.8683 148.298 61.8683 147.901 61.425C147.691 61.1217 147.633 59.1967 147.726 55.65C147.796 52.99 147.901 51.24 148.041 50.4C148.181 49.56 148.45 49.14 148.846 49.14C149.243 49.14 149.511 49.3617 149.651 49.805C149.791 50.225 149.85 50.9367 149.826 51.94L149.721 53.97L150.526 54.04C151.04 54.0867 151.413 54.04 151.646 53.9C151.903 53.76 152.09 53.48 152.206 53.06C152.323 52.64 152.416 51.975 152.486 51.065C152.58 49.455 152.661 48.5567 152.731 48.37ZM139.256 52.115C139.816 51.7883 140.33 51.6367 140.796 51.66C141.286 51.66 141.893 51.8583 142.616 52.255C144.343 53.1183 145.253 54.4017 145.346 56.105C145.393 56.735 145.37 57.2133 145.276 57.54C145.206 57.8433 144.961 58.2983 144.541 58.905C143.911 59.8617 143.328 60.515 142.791 60.865C142.255 61.1917 141.59 61.3433 140.796 61.32C138.953 61.25 137.611 60.5967 136.771 59.36C135.955 58.1 135.908 56.6533 136.631 55.02C136.935 54.2733 137.285 53.69 137.681 53.27C138.078 52.8267 138.603 52.4417 139.256 52.115ZM142.266 53.83C141.73 53.62 141.275 53.5383 140.901 53.585C140.551 53.6317 140.131 53.83 139.641 54.18C139.105 54.53 138.685 55.0433 138.381 55.72C138.078 56.3967 137.996 56.9917 138.136 57.505C138.23 57.9483 138.405 58.3333 138.661 58.66C138.918 58.9633 139.221 59.1967 139.571 59.36C139.921 59.5233 140.306 59.605 140.726 59.605C141.17 59.605 141.508 59.5467 141.741 59.43C141.975 59.3133 142.266 59.045 142.616 58.625C143.2 57.9483 143.538 57.33 143.631 56.77C143.748 56.2333 143.655 55.65 143.351 55.02C143.048 54.39 142.686 53.9933 142.266 53.83ZM165.406 45.115C165.57 44.975 165.768 45.0217 166.001 45.255C166.258 45.4883 166.433 45.7567 166.526 46.06C166.643 46.3633 166.655 46.6083 166.561 46.795C166.398 46.935 165.266 47.0283 163.166 47.075C161.93 47.075 161.055 47.11 160.541 47.18C160.028 47.25 159.62 47.39 159.316 47.6C159.106 47.7167 158.966 47.81 158.896 47.88C158.826 47.95 158.756 48.1133 158.686 48.37C158.616 48.6033 158.581 48.8717 158.581 49.175C158.581 49.455 158.581 49.945 158.581 50.645C158.581 52.3717 158.651 53.2933 158.791 53.41C158.931 53.48 159.55 53.5267 160.646 53.55C161.86 53.55 163.376 53.41 165.196 53.13C165.85 53.0133 166.305 53.1067 166.561 53.41C167.145 54.1333 166.643 54.6583 165.056 54.985C164.87 55.0317 164.671 55.0667 164.461 55.09C163.271 55.2767 161.895 55.4167 160.331 55.51C158.791 55.6033 157.928 55.6033 157.741 55.51C157.508 55.3467 157.263 54.67 157.006 53.48C156.75 52.2667 156.621 51.205 156.621 50.295C156.621 49.105 156.528 48.3583 156.341 48.055C156.155 47.6583 156.318 47.2617 156.831 46.865C157.345 46.4683 158.126 46.1417 159.176 45.885C160.226 45.605 161.393 45.43 162.676 45.36C164.45 45.2667 165.36 45.185 165.406 45.115ZM166.211 60.305C166.328 60.165 166.585 60.1183 166.981 60.165C167.401 60.2117 167.681 60.305 167.821 60.445C168.055 60.6783 168.101 60.97 167.961 61.32C167.845 61.6467 167.611 61.8683 167.261 61.985C166.911 62.1017 165.885 62.1483 164.181 62.125C162.665 62.1017 161.043 62.16 159.316 62.3C158.64 62.3467 158.021 62.37 157.461 62.37C156.925 62.37 156.598 62.335 156.481 62.265C156.248 62.125 156.12 61.8917 156.096 61.565C156.073 61.215 156.19 60.9467 156.446 60.76C156.633 60.5967 158.29 60.4917 161.416 60.445C164.566 60.4217 166.165 60.375 166.211 60.305ZM173.967 41.86C174.994 41.65 175.834 41.5217 176.487 41.475C177.001 41.475 177.304 41.6267 177.397 41.93C177.514 42.21 177.654 43.225 177.817 44.975C177.864 45.3483 177.887 45.6633 177.887 45.92C177.887 46.1533 177.864 46.3867 177.817 46.62C177.771 46.8533 177.677 47.04 177.537 47.18C177.397 47.32 177.234 47.46 177.047 47.6C176.861 47.74 176.581 47.8683 176.207 47.985C175.834 48.1017 175.449 48.2183 175.052 48.335C174.656 48.4283 174.142 48.5567 173.512 48.72C173.162 48.79 172.941 48.895 172.847 49.035C172.777 49.175 172.742 49.4783 172.742 49.945C172.742 50.5517 172.847 50.9367 173.057 51.1C173.291 51.24 173.781 51.24 174.527 51.1C175.414 50.9367 176.021 50.785 176.347 50.645C176.814 50.4817 177.222 50.47 177.572 50.61C177.946 50.7267 178.144 50.96 178.167 51.31C178.191 51.52 178.191 51.695 178.167 51.835C178.167 51.975 178.109 52.1033 177.992 52.22C177.876 52.3133 177.724 52.395 177.537 52.465C177.351 52.5117 177.094 52.57 176.767 52.64C176.067 52.7333 175.484 52.8617 175.017 53.025C174.597 53.1883 174.002 53.2817 173.232 53.305C172.462 53.305 171.972 53.2233 171.762 53.06C171.109 52.6633 170.782 51.6833 170.782 50.12C170.782 49.4433 170.829 48.9767 170.922 48.72C171.039 48.44 171.272 48.1133 171.622 47.74C172.182 47.2267 172.707 46.97 173.197 46.97C173.711 46.97 174.352 46.7833 175.122 46.41C175.659 46.1533 175.974 45.955 176.067 45.815C176.184 45.675 176.207 45.3833 176.137 44.94C176.021 44.2867 175.939 43.8783 175.892 43.715C175.799 43.5283 175.496 43.47 174.982 43.54C174.469 43.61 173.594 43.8317 172.357 44.205C171.354 44.5317 170.712 44.695 170.432 44.695C170.152 44.695 169.954 44.5667 169.837 44.31C169.674 43.8433 169.954 43.4 170.677 42.98C171.401 42.5367 172.497 42.1633 173.967 41.86ZM182.122 48.02C182.076 45.5 182.076 44.0067 182.122 43.54C182.169 43.0733 182.332 42.84 182.612 42.84C183.242 42.84 183.604 43.0617 183.697 43.505C183.814 43.925 183.872 45.4533 183.872 48.09V53.095L183.207 53.34C182.717 53.48 182.437 53.5033 182.367 53.41C182.274 53.2933 182.192 51.4967 182.122 48.02ZM176.907 56.28C178.424 55.9533 179.672 55.8133 180.652 55.86C181.726 55.9067 182.414 56.1517 182.717 56.595C183.044 57.0383 183.207 58.0533 183.207 59.64C183.207 60.0833 183.207 60.41 183.207 60.62C183.207 60.83 183.184 61.075 183.137 61.355C183.091 61.6117 183.044 61.7867 182.997 61.88C182.974 61.9733 182.892 62.09 182.752 62.23C182.612 62.3467 182.472 62.4167 182.332 62.44C182.216 62.4633 182.006 62.4983 181.702 62.545C181.422 62.5917 181.154 62.615 180.897 62.615C180.664 62.615 180.302 62.615 179.812 62.615C178.482 62.615 177.596 62.72 177.152 62.93C176.732 63.1167 176.557 63.525 176.627 64.155C176.651 64.5517 176.721 64.785 176.837 64.855C176.977 64.925 177.304 64.925 177.817 64.855C178.494 64.7617 179.637 64.715 181.247 64.715C182.297 64.715 182.951 64.7383 183.207 64.785C183.487 64.8317 183.651 64.9717 183.697 65.205C183.767 65.5783 183.674 65.8467 183.417 66.01C183.184 66.1733 182.682 66.29 181.912 66.36C181.119 66.43 179.964 66.57 178.447 66.78C176.954 66.99 176.102 67.0367 175.892 66.92C175.309 66.71 174.924 65.9983 174.737 64.785C174.574 63.5717 174.714 62.6733 175.157 62.09C175.367 61.8333 175.647 61.6583 175.997 61.565C176.347 61.4483 177.059 61.3317 178.132 61.215C179.789 61.0517 180.722 60.9233 180.932 60.83C181.166 60.76 181.247 60.2467 181.177 59.29L181.107 57.785L179.427 57.855C178.401 57.9017 177.304 58.1 176.137 58.45C175.181 58.7533 174.551 58.8817 174.247 58.835C173.967 58.7883 173.827 58.5433 173.827 58.1C173.827 57.6333 174.026 57.2833 174.422 57.05C174.819 56.8167 175.647 56.56 176.907 56.28ZM203.127 47.95C203.267 47.6 203.442 47.39 203.652 47.32C203.886 47.2267 204.201 47.25 204.597 47.39C204.877 47.5067 205.017 47.7517 205.017 48.125C205.017 48.475 204.877 49.175 204.597 50.225C204.294 51.415 204.096 53.4683 204.002 56.385L203.792 60.83L203.057 61.075C202.451 61.285 202.089 61.2267 201.972 60.9C201.856 60.5267 201.856 59.395 201.972 57.505C202.136 55.3583 202.182 54.2267 202.112 54.11C202.042 54.04 201.424 54.1567 200.257 54.46C199.184 54.74 198.391 54.8917 197.877 54.915C197.364 54.915 197.002 54.7867 196.792 54.53C196.582 54.25 196.606 53.9933 196.862 53.76C197.189 53.4567 197.714 53.165 198.437 52.885C199.161 52.605 199.767 52.465 200.257 52.465C200.607 52.465 200.934 52.43 201.237 52.36C201.564 52.2667 201.844 52.15 202.077 52.01C202.334 51.8467 202.521 51.6717 202.637 51.485C202.777 51.275 202.847 50.75 202.847 49.91C202.847 49.0233 202.941 48.37 203.127 47.95ZM208.447 47.635C208.541 47.4017 208.751 47.2733 209.077 47.25C209.427 47.2267 209.719 47.3317 209.952 47.565C210.139 47.775 210.244 48.6967 210.267 50.33C210.291 51.9633 210.197 53.1767 209.987 53.97C209.801 54.8333 209.661 56.2333 209.567 58.17C209.474 59.64 209.381 60.55 209.287 60.9C209.194 61.2267 209.007 61.46 208.727 61.6C208.167 61.8567 207.829 61.8217 207.712 61.495C207.526 60.9583 207.677 58.4267 208.167 53.9C208.214 53.4567 208.272 52.9317 208.342 52.325C208.506 50.8783 208.541 49.805 208.447 49.105C208.354 48.4283 208.354 47.9383 208.447 47.635ZM192.627 48.475C192.744 48.3583 193.199 48.335 193.992 48.405C194.809 48.4517 195.276 48.545 195.392 48.685C195.579 48.9183 195.579 49.6183 195.392 50.785C195.299 51.3917 195.042 53.1767 194.622 56.14C194.599 56.1633 194.587 56.1867 194.587 56.21C194.377 57.9833 194.214 59.0217 194.097 59.325C194.004 59.6283 193.771 59.7917 193.397 59.815C192.907 59.885 192.604 59.7683 192.487 59.465C192.371 59.2083 192.464 57.9833 192.767 55.79C193.281 52.43 193.491 50.6333 193.397 50.4C193.374 50.3067 193.211 50.295 192.907 50.365C190.947 50.7383 189.442 50.9833 188.392 51.1C187.366 51.2167 186.666 51.2167 186.292 51.1C185.336 50.7267 185.417 50.295 186.537 49.805C187.587 49.3383 189.221 48.9767 191.437 48.72C192.114 48.6267 192.511 48.545 192.627 48.475ZM215.409 43.575C216.249 43.2717 217.054 43.1783 217.824 43.295C218.617 43.3883 219.352 43.7033 220.029 44.24C220.729 44.7767 221.301 45.5 221.744 46.41C222.187 47.2733 222.397 48.0783 222.374 48.825C222.374 49.5717 222.141 50.4 221.674 51.31C221.301 52.0567 220.857 52.6167 220.344 52.99C219.831 53.34 219.177 53.5733 218.384 53.69C217.054 53.8767 215.794 53.62 214.604 52.92C213.414 52.22 212.656 51.3217 212.329 50.225C211.862 48.7317 211.909 47.4017 212.469 46.235C213.029 45.0683 214.009 44.1817 215.409 43.575ZM218.244 45.01C218.011 45.01 217.754 44.9633 217.474 44.87C217.054 44.73 216.389 44.9867 215.479 45.64C214.569 46.2933 214.021 46.9233 213.834 47.53C213.764 47.7633 213.752 48.0433 213.799 48.37C213.846 48.6733 213.927 48.9883 214.044 49.315C214.161 49.6183 214.312 49.9217 214.499 50.225C214.709 50.5283 214.931 50.785 215.164 50.995C216.051 51.7883 216.949 52.15 217.859 52.08C218.769 52.01 219.492 51.5317 220.029 50.645C220.892 49.245 220.752 47.7867 219.609 46.27C218.932 45.43 218.477 45.01 218.244 45.01ZM219.714 55.895C219.901 55.4517 220.134 55.23 220.414 55.23C220.717 55.2067 220.974 55.4283 221.184 55.895C221.371 56.3383 221.347 57.1083 221.114 58.205C220.881 59.255 220.834 59.8967 220.974 60.13C221.091 60.34 221.791 60.445 223.074 60.445C223.961 60.445 224.509 60.48 224.719 60.55C224.952 60.5967 225.127 60.76 225.244 61.04C225.407 61.53 225.349 61.8683 225.069 62.055C224.812 62.2417 224.229 62.3233 223.319 62.3C222.596 62.2767 221.697 62.3233 220.624 62.44C219.574 62.5333 218.827 62.6383 218.384 62.755C218.174 62.825 217.637 62.93 216.774 63.07C215.934 63.2333 215.106 63.385 214.289 63.525C213.472 63.665 212.982 63.735 212.819 63.735C212.539 63.735 212.329 63.5483 212.189 63.175C212.049 62.8017 212.084 62.4867 212.294 62.23C212.481 61.9967 212.936 61.8217 213.659 61.705L214.674 61.565V59.325C214.697 58.0883 214.791 57.3067 214.954 56.98C215.117 56.63 215.467 56.525 216.004 56.665C216.331 56.7583 216.517 56.91 216.564 57.12C216.634 57.3067 216.657 57.89 216.634 58.87L216.564 60.83L217.929 60.935C218.792 60.9817 219.224 60.935 219.224 60.795C219.224 60.165 219.247 59.5 219.294 58.8C219.364 58.1 219.434 57.4933 219.504 56.98C219.597 56.4667 219.667 56.105 219.714 55.895ZM229.678 45.43C229.795 45.3133 229.97 45.2667 230.203 45.29C230.437 45.3133 230.635 45.4067 230.798 45.57C230.915 45.6867 230.985 45.8383 231.008 46.025C231.032 46.1883 231.032 46.585 231.008 47.215C230.962 48.1017 230.857 49.0817 230.693 50.155C230.53 51.2283 230.378 51.8933 230.238 52.15C230.122 52.3833 230.075 52.7567 230.098 53.27C230.145 53.76 230.25 54.2383 230.413 54.705C230.577 55.195 230.635 55.58 230.588 55.86C230.542 56.14 230.378 56.42 230.098 56.7C229.842 56.9567 229.585 57.0967 229.328 57.12C229.095 57.12 228.908 57.015 228.768 56.805C228.628 56.595 228.547 55.7083 228.523 54.145C228.5 52.5583 228.558 51.6017 228.698 51.275C228.792 51.0417 228.885 50.61 228.978 49.98C229.118 49.0933 229.212 48.4983 229.258 48.195C229.352 47.495 229.422 46.9233 229.468 46.48C229.515 45.92 229.585 45.57 229.678 45.43ZM227.823 61.81C228.103 61.6467 228.442 61.67 228.838 61.88C229.282 62.1133 229.503 62.5217 229.503 63.105C229.503 63.665 229.282 64.05 228.838 64.26C228.418 64.4933 227.975 64.4583 227.508 64.155C227.205 63.9917 227.053 63.7467 227.053 63.42C227.053 63.1867 227.135 62.8833 227.298 62.51C227.485 62.1367 227.66 61.9033 227.823 61.81Z" fill="#1A1A1A"/>
<path d="M7.39377 45.955C7.53377 45.8617 7.79044 45.8383 8.16377 45.885C8.44377 45.9317 9.07377 46.0017 10.0538 46.095C10.9871 46.1883 11.5121 46.2817 11.6288 46.375C11.7688 46.4917 11.8154 46.6667 11.7688 46.9C11.7454 47.1333 11.6521 47.3433 11.4888 47.53C11.3254 47.6933 11.1854 47.7867 11.0688 47.81C11.0221 47.81 10.9754 47.81 10.9288 47.81C10.9054 47.81 10.8588 47.81 10.7888 47.81C10.7421 47.81 10.6838 47.81 10.6138 47.81C10.5438 47.81 10.4621 47.81 10.3688 47.81C9.85544 47.74 9.0971 47.6817 8.09377 47.635C7.39377 47.6117 6.90377 47.6117 6.62377 47.635C6.5071 47.6583 6.34377 47.6933 6.13377 47.74C5.9471 47.7867 5.72544 47.8567 5.46877 47.95C4.69877 48.1833 4.2671 48.335 4.17377 48.405C4.1271 48.4517 4.08044 48.615 4.03377 48.895C4.01044 49.175 3.99877 49.5717 3.99877 50.085C3.99877 51.0183 4.0571 51.5783 4.17377 51.765C4.31377 51.9283 4.78044 52.1383 5.57377 52.395C5.76044 52.4417 5.97044 52.5117 6.20377 52.605C6.4371 52.6983 6.6821 52.8033 6.93877 52.92C7.21877 53.0367 7.5221 53.1767 7.84877 53.34C8.80544 53.7833 9.38877 54.11 9.59877 54.32C9.9021 54.7167 10.1121 55.0433 10.2288 55.3C10.4854 55.8133 10.6138 56.1633 10.6138 56.35C10.6138 56.4433 10.6254 56.5367 10.6488 56.63C10.6954 56.7 10.7421 56.7817 10.7888 56.875C10.8821 57.0617 10.8821 57.3183 10.7888 57.645C10.6954 57.925 10.6021 58.31 10.5088 58.8C10.3221 59.5233 9.96044 60.2583 9.42377 61.005C9.14377 61.355 8.86377 61.67 8.58377 61.95C8.3271 62.2067 8.05877 62.405 7.77877 62.545C7.49877 62.685 7.33544 62.79 7.28877 62.86C7.28877 62.8833 7.2421 62.9183 7.14877 62.965C7.07877 62.9883 6.98544 63.0233 6.86877 63.07C6.7521 63.1167 6.6121 63.1633 6.44877 63.21C5.9121 63.3967 5.48044 63.42 5.15377 63.28C4.8971 63.1867 4.57044 63.14 4.17377 63.14C3.80044 63.14 3.2871 62.9767 2.63377 62.65C1.98044 62.3233 1.6071 62.16 1.51377 62.16C1.4671 62.16 1.3971 62.1367 1.30377 62.09C1.23377 62.02 1.14044 61.915 1.02377 61.775C0.95377 61.705 0.895436 61.6467 0.84877 61.6C0.802103 61.5533 0.755436 61.5067 0.70877 61.46C0.685436 61.4133 0.662103 61.3783 0.63877 61.355C0.63877 61.3083 0.63877 61.285 0.63877 61.285C0.63877 61.005 0.84877 60.8417 1.26877 60.795C1.47877 60.7717 1.70044 60.7833 1.93377 60.83C2.19044 60.8533 2.45877 60.9117 2.73877 61.005C3.15877 61.1683 3.57877 61.2967 3.99877 61.39C4.06877 61.4133 4.17377 61.4367 4.31377 61.46C4.45377 61.4833 4.57044 61.5067 4.66377 61.53C4.78044 61.5533 4.8621 61.565 4.90877 61.565C5.25877 61.6583 5.72544 61.565 6.30877 61.285C6.8921 61.005 7.39377 60.6433 7.81377 60.2C8.21044 59.8033 8.47877 59.465 8.61877 59.185C8.75877 58.8817 8.8521 58.4733 8.89877 57.96C9.03877 56.84 8.72377 56.0117 7.95377 55.475C7.5571 55.195 7.3121 55.055 7.21877 55.055C7.14877 55.0317 6.7871 54.8683 6.13377 54.565C6.06377 54.5183 5.99377 54.4833 5.92377 54.46C5.85377 54.4367 5.78377 54.4133 5.71377 54.39C5.6671 54.3667 5.60877 54.3433 5.53877 54.32C5.4921 54.2967 5.44544 54.2733 5.39877 54.25C5.3521 54.2267 5.30544 54.215 5.25877 54.215C5.2121 54.1917 5.1771 54.18 5.15377 54.18C4.92044 54.11 4.5821 54.075 4.13877 54.075C3.4621 54.075 3.06544 54.04 2.94877 53.97C2.73877 53.7367 2.61044 53.5383 2.56377 53.375C2.5171 53.2583 2.4821 53.165 2.45877 53.095C2.43544 53.0017 2.42377 52.92 2.42377 52.85C2.42377 52.7567 2.43544 52.6867 2.45877 52.64C2.50544 52.4533 2.47044 52.22 2.35377 51.94C2.2371 51.6133 2.0971 50.2717 1.93377 47.915C1.91044 47.6817 1.9221 47.5183 1.96877 47.425C2.01544 47.3783 2.0621 47.32 2.10877 47.25C2.17877 47.18 2.26044 47.11 2.35377 47.04C2.68044 46.8533 3.01877 46.76 3.36877 46.76C3.78877 46.76 4.29044 46.6433 4.87377 46.41C5.1771 46.3167 5.4571 46.2467 5.71377 46.2C5.99377 46.13 6.25044 46.095 6.48377 46.095C6.97377 46.095 7.2771 46.0483 7.39377 45.955ZM16.5859 43.26C17.3326 42.98 17.9626 42.84 18.4759 42.84C18.9893 42.84 19.6543 43.0383 20.4709 43.435C21.3109 43.8317 21.8943 44.24 22.2209 44.66C22.5476 45.08 22.8159 45.7917 23.0259 46.795C23.2359 47.7983 23.2943 48.615 23.2009 49.245C23.0609 49.945 22.6526 50.6567 21.9759 51.38C21.3226 52.1033 20.6226 52.5933 19.8759 52.85C18.6626 53.2467 17.5309 53.2583 16.4809 52.885C15.4309 52.4883 14.5676 51.73 13.8909 50.61C13.0509 49.1867 12.9809 47.67 13.6809 46.06C14.0076 45.3367 14.3926 44.7533 14.8359 44.31C15.3026 43.8667 15.8859 43.5167 16.5859 43.26ZM21.0309 46.235C20.7743 45.6283 20.3776 45.1967 19.8409 44.94C19.3276 44.6833 18.7793 44.625 18.1959 44.765C17.6359 44.8817 17.0993 45.1033 16.5859 45.43C16.0726 45.7567 15.6759 46.235 15.3959 46.865C15.1393 47.4717 15.0693 48.1017 15.1859 48.755C15.2793 49.1283 15.4076 49.4783 15.5709 49.805C15.7576 50.1083 15.9793 50.3767 16.2359 50.61C16.5159 50.8433 16.8193 51.03 17.1459 51.17C17.4959 51.2867 17.8693 51.345 18.2659 51.345C18.7793 51.345 19.1643 51.2867 19.4209 51.17C19.6776 51.03 20.0159 50.7383 20.4359 50.295C21.4859 49.175 21.6843 47.8217 21.0309 46.235ZM26.7359 43.68C26.9226 43.12 27.3659 42.9683 28.0659 43.225C28.3226 43.3417 28.4393 45.1267 28.4159 48.58C28.4159 52.01 28.2876 53.8883 28.0309 54.215C27.7509 54.565 27.4943 54.705 27.2609 54.635C27.0276 54.5417 26.8643 54.2733 26.7709 53.83C26.6543 53.27 26.5843 51.5433 26.5609 48.65C26.5609 45.7333 26.6193 44.0767 26.7359 43.68ZM21.4859 55.755C22.8859 55.615 23.8193 55.545 24.2859 55.545C24.7526 55.5217 25.1259 55.5567 25.4059 55.65C25.8259 55.8133 26.1526 56.3033 26.3859 57.12C26.6426 57.9367 26.7359 58.7883 26.6659 59.675C26.6193 60.5617 26.4093 61.18 26.0359 61.53C25.7326 61.8333 25.4059 62.02 25.0559 62.09C24.7059 62.1367 23.9709 62.125 22.8509 62.055C21.8009 62.0317 21.1126 62.1017 20.7859 62.265C20.4826 62.405 20.3309 62.755 20.3309 63.315C20.3309 63.8283 20.4476 64.1667 20.6809 64.33C20.9376 64.5167 21.2876 64.505 21.7309 64.295C22.1043 64.085 23.0843 63.9683 24.6709 63.945C25.8609 63.9217 26.5493 63.9333 26.7359 63.98C26.9459 64.0267 27.0509 64.225 27.0509 64.575C27.0509 64.9483 26.8526 65.205 26.4559 65.345C26.0826 65.485 24.7876 65.73 22.5709 66.08L19.7359 66.57L19.1759 65.975C18.7793 65.6017 18.5459 64.8433 18.4759 63.7C18.3826 62.3933 18.5109 61.565 18.8609 61.215C19.2343 60.865 20.1793 60.6317 21.6959 60.515C23.2826 60.4217 24.1809 60.27 24.3909 60.06C24.6476 59.8733 24.7643 59.43 24.7409 58.73C24.7176 58.0067 24.5659 57.5867 24.2859 57.47C24.0526 57.3767 23.3526 57.4117 22.1859 57.575C21.0426 57.7383 20.0393 57.9367 19.1759 58.17C18.4526 58.3567 17.9976 58.3333 17.8109 58.1C17.3676 57.54 17.6709 57.0033 18.7209 56.49C19.4443 56.1167 20.3659 55.8717 21.4859 55.755ZM45.5356 44.975C46.3756 44.765 47.2389 44.835 48.1256 45.185C49.0356 45.5117 49.8056 46.025 50.4356 46.725C51.0889 47.425 51.5672 48.2533 51.8706 49.21C52.1739 50.1667 52.2089 51.1 51.9756 52.01C51.3689 54.2967 49.4906 55.4517 46.3406 55.475C45.1272 55.475 44.1822 55.3117 43.5056 54.985C42.8289 54.6583 42.1989 54.0517 41.6156 53.165C40.2156 51.065 40.4372 48.9883 42.2806 46.935C42.6306 46.5383 42.9456 46.235 43.2256 46.025C43.5056 45.7917 43.8206 45.605 44.1706 45.465C44.5206 45.3017 44.9756 45.1383 45.5356 44.975ZM48.6856 47.39C48.1956 46.9933 47.7056 46.7833 47.2156 46.76C46.7256 46.7133 46.0839 46.83 45.2906 47.11C44.0772 47.5533 43.2139 48.265 42.7006 49.245C42.4206 49.805 42.3972 50.4933 42.6306 51.31C42.8639 52.1033 43.2489 52.675 43.7856 53.025C44.4622 53.4217 45.1856 53.655 45.9556 53.725C46.7256 53.7717 47.4256 53.69 48.0556 53.48C48.7089 53.2467 49.2572 52.885 49.7006 52.395C50.1439 51.905 50.3656 51.345 50.3656 50.715C50.3656 49.4317 49.8056 48.3233 48.6856 47.39ZM56.1406 45.71C56.3739 45.4067 56.6539 45.2667 56.9806 45.29C57.3072 45.3133 57.5289 45.4883 57.6456 45.815C57.7389 46.2117 57.7039 46.7483 57.5406 47.425C57.3539 48.0783 57.2139 48.86 57.1206 49.77L56.9456 51.1L58.5206 50.89C59.3839 50.7967 59.9906 50.855 60.3406 51.065C60.6906 51.2517 60.8189 51.6017 60.7256 52.115C60.7022 52.2317 60.6322 52.3367 60.5156 52.43C60.4222 52.5 60.2706 52.57 60.0606 52.64C59.8506 52.6867 59.5472 52.7333 59.1506 52.78C58.2172 52.8733 57.5756 52.99 57.2256 53.13C56.8756 53.27 56.7122 53.48 56.7356 53.76V56.21C56.7122 57.1667 56.6656 57.75 56.5956 57.96C56.5256 58.17 56.3156 58.3217 55.9656 58.415C55.4056 58.555 55.0672 58.4733 54.9506 58.17C54.7639 57.68 54.8572 55.51 55.2306 51.66L55.3706 50.19C55.6506 47.4833 55.9072 45.99 56.1406 45.71ZM47.5656 59.22C47.7756 58.9633 47.9272 58.835 48.0206 58.835C48.1372 58.8117 48.3589 58.8817 48.6856 59.045C48.9189 59.185 49.0472 59.3717 49.0706 59.605C49.1172 59.8383 49.1056 60.3633 49.0356 61.18C49.0122 61.2967 48.9889 61.4717 48.9656 61.705C48.8956 62.3583 48.9306 62.72 49.0706 62.79C49.2106 62.86 49.7239 62.7783 50.6106 62.545C50.9139 62.475 51.1472 62.4167 51.3106 62.37C52.3606 62.1133 53.4806 61.9617 54.6706 61.915C55.8839 61.845 56.5606 61.915 56.7006 62.125C56.8639 62.3583 56.9339 62.545 56.9106 62.685C56.8872 62.825 56.7589 63.0233 56.5256 63.28C56.2456 63.5833 55.7089 63.735 54.9156 63.735C54.1689 63.735 53.2822 63.875 52.2556 64.155C51.3689 64.3883 50.3422 64.575 49.1756 64.715C48.4756 64.8083 48.0206 64.8317 47.8106 64.785C47.6239 64.7383 47.4606 64.575 47.3206 64.295C47.0872 63.8983 47.0056 63.035 47.0756 61.705C47.1456 60.3517 47.3089 59.5233 47.5656 59.22ZM66.6072 48.125C67.1439 47.9617 67.5989 47.915 67.9722 47.985C68.3689 48.0317 69.0455 48.265 70.0022 48.685C71.5655 49.3383 72.3589 50.7383 72.3822 52.885C72.3822 53.9817 72.2772 54.8217 72.0672 55.405C71.8805 55.965 71.5189 56.56 70.9822 57.19C70.4922 57.75 70.1189 58.0883 69.8622 58.205C69.6289 58.3217 69.1739 58.38 68.4972 58.38C67.1672 58.38 65.8955 57.9833 64.6822 57.19C63.4922 56.3967 62.8039 55.51 62.6172 54.53C62.4539 53.5733 62.4889 52.745 62.7222 52.045C62.9555 51.345 63.4572 50.61 64.2272 49.84C64.6005 49.4433 65.0205 49.0817 65.4872 48.755C65.9772 48.4283 66.3505 48.2183 66.6072 48.125ZM69.0222 49.98C68.4389 49.7933 68.0189 49.7233 67.7622 49.77C67.5055 49.7933 67.0389 49.9917 66.3622 50.365C65.5689 50.8317 65.0439 51.24 64.7872 51.59C64.5305 51.94 64.3905 52.43 64.3672 53.06C64.3672 53.8533 64.6589 54.5417 65.2422 55.125C65.8489 55.7083 66.6422 56.105 67.6222 56.315C68.3689 56.5017 68.8355 56.5833 69.0222 56.56C69.2089 56.5133 69.4655 56.2917 69.7922 55.895C69.9789 55.685 70.1072 55.4867 70.1772 55.3C70.2705 55.09 70.3289 54.8333 70.3522 54.53C70.3989 54.2267 70.4222 53.8067 70.4222 53.27C70.4222 52.1033 70.3289 51.3217 70.1422 50.925C69.9789 50.505 69.6055 50.19 69.0222 49.98ZM82.6022 48.125C82.7655 47.8917 82.9755 47.7867 83.2322 47.81C83.4889 47.81 83.7222 47.9383 83.9322 48.195C84.1655 48.475 84.2122 50.295 84.0722 53.655C83.9089 56.945 83.8272 58.975 83.8272 59.745C83.8039 60.4217 83.7105 60.8767 83.5472 61.11C83.4072 61.3433 83.1039 61.5067 82.6372 61.6L81.9022 61.74L82.1472 57.68C82.3105 54.4133 82.3922 52.2083 82.3922 51.065C82.3922 49.3383 82.4622 48.3583 82.6022 48.125ZM78.4722 48.65C78.9389 48.2067 79.3705 48.23 79.7672 48.72C79.9772 48.9767 79.9772 50.2833 79.7672 52.64C79.6272 54.4367 79.4639 56.4433 79.2772 58.66L79.1022 61.11H78.2972H77.4572L77.4922 57.855C77.4922 57.8083 77.4922 57.75 77.4922 57.68C77.5389 56.0233 77.4922 55.09 77.3522 54.88C77.2122 54.6467 76.6989 54.6583 75.8122 54.915C75.7422 54.9383 75.6955 54.95 75.6722 54.95C75.0889 55.1367 74.5289 55.1833 73.9922 55.09C73.4555 54.9967 73.1872 54.8217 73.1872 54.565C73.1872 54.1217 73.3855 53.7717 73.7822 53.515C74.2022 53.2583 74.8789 53.0833 75.8122 52.99C77.0722 52.8267 77.7839 52.6283 77.9472 52.395C78.0872 52.115 78.1572 51.4733 78.1572 50.47C78.1572 49.4667 78.2622 48.86 78.4722 48.65ZM109.229 47.705C109.439 47.1683 109.941 47.0983 110.734 47.495C110.921 47.6117 111.026 47.7517 111.049 47.915C111.096 48.0783 111.073 48.37 110.979 48.79C110.839 49.5367 110.723 50.3533 110.629 51.24L110.489 52.71L111.749 52.535C113.453 52.325 114.304 52.045 114.304 51.695C114.398 49.875 114.526 48.685 114.689 48.125C114.876 47.5417 115.203 47.3083 115.669 47.425C116.043 47.5183 116.264 47.7517 116.334 48.125C116.428 48.475 116.404 49.0583 116.264 49.875C116.078 50.8317 115.914 52.955 115.774 56.245C115.704 58.5083 115.623 59.9317 115.529 60.515C115.459 61.075 115.308 61.425 115.074 61.565C114.724 61.7517 114.409 61.7867 114.129 61.67C113.943 61.6 113.826 61.3433 113.779 60.9C113.756 60.4333 113.756 59.4183 113.779 57.855L113.884 54.25L113.009 54.285C112.449 54.285 111.854 54.4133 111.224 54.67L110.384 55.02L110.489 57.82C110.559 58.7767 110.571 59.5117 110.524 60.025C110.478 60.515 110.384 60.8417 110.244 61.005C110.128 61.1683 109.918 61.25 109.614 61.25C109.078 61.25 108.763 60.9 108.669 60.2C108.599 59.5 108.623 57.54 108.739 54.32C108.949 50.1667 109.113 47.9617 109.229 47.705ZM102.754 47.95C103.968 47.7633 104.679 47.915 104.889 48.405C105.099 48.8717 105.146 50.435 105.029 53.095C104.936 55.2417 104.854 56.5133 104.784 56.91C104.714 57.3067 104.504 57.5867 104.154 57.75C103.688 58.03 102.369 58.1817 100.199 58.205L97.0143 58.275L96.7343 57.19C96.6176 56.7467 96.5243 55.79 96.4543 54.32C96.3843 52.85 96.3726 51.6133 96.4193 50.61C96.4659 49.4667 98.5776 48.58 102.754 47.95ZM103.489 49.98H102.509C101.903 49.98 101.016 50.1433 99.8493 50.47L98.2043 50.925L98.1343 53.025C98.0643 54.285 98.0876 55.1717 98.2043 55.685C98.2976 56.0117 98.4493 56.1983 98.6593 56.245C98.8693 56.2917 99.5343 56.28 100.654 56.21L102.894 56.105L103.069 55.16C103.186 54.53 103.279 53.515 103.349 52.115L103.489 49.98ZM122.742 42.21C122.788 42.07 122.998 42 123.372 42C123.675 42 123.873 42.2217 123.967 42.665C124.083 43.085 124.06 43.68 123.897 44.45C123.803 44.94 123.733 45.2667 123.687 45.43C123.663 45.5933 123.652 45.8033 123.652 46.06C123.652 46.2933 123.663 46.4333 123.687 46.48C123.71 46.5033 123.815 46.5383 124.002 46.585C124.188 46.6317 124.352 46.6433 124.492 46.62C124.632 46.5967 124.888 46.5617 125.262 46.515C126.638 46.3517 127.408 46.5033 127.572 46.97C127.758 47.4133 127.35 48.265 126.347 49.525C125.623 50.4117 125.262 50.925 125.262 51.065C125.262 51.205 125.495 51.4733 125.962 51.87C126.428 52.2667 126.965 52.64 127.572 52.99C128.295 53.4333 128.657 53.9117 128.657 54.425C128.633 54.7517 128.412 54.915 127.992 54.915C127.595 54.915 127.07 54.74 126.417 54.39C125.787 54.0167 125.192 53.5617 124.632 53.025L123.862 52.325L123.162 53.13C122.275 54.18 121.633 54.88 121.237 55.23C120.863 55.58 120.548 55.755 120.292 55.755C119.918 55.755 119.685 55.615 119.592 55.335C119.498 55.0317 119.58 54.6817 119.837 54.285C120.117 53.8883 121.05 52.8617 122.637 51.205C124.223 49.525 125.017 48.615 125.017 48.475C125.017 48.4517 124.982 48.4283 124.912 48.405C124.865 48.3817 124.795 48.37 124.702 48.37C124.608 48.37 124.503 48.3933 124.387 48.44C123.85 48.5567 122.777 48.755 121.167 49.035C119.323 49.3383 118.332 49.3383 118.192 49.035C118.122 48.8717 118.168 48.615 118.332 48.265C118.425 48.0083 118.6 47.8217 118.857 47.705C119.137 47.5883 119.638 47.4717 120.362 47.355C121.552 47.1683 122.112 46.9583 122.042 46.725C121.995 46.5383 122.077 45.78 122.287 44.45C122.497 43.12 122.648 42.3733 122.742 42.21ZM131.037 46.935C131.2 46.6317 131.34 46.4683 131.457 46.445C131.573 46.4217 131.807 46.5033 132.157 46.69C132.413 46.83 132.565 47.1333 132.612 47.6C132.658 48.0433 132.682 49.175 132.682 50.995C132.635 53.795 132.577 55.3 132.507 55.51C132.413 55.8367 132.157 56.0117 131.737 56.035C131.317 56.035 131.048 55.8833 130.932 55.58C130.792 55.2067 130.733 53.7483 130.757 51.205C130.803 48.6383 130.897 47.215 131.037 46.935ZM125.892 58.135C126.522 57.8317 127.373 57.68 128.447 57.68C128.937 57.68 129.345 57.7267 129.672 57.82C130.022 57.89 130.337 58.0067 130.617 58.17C130.897 58.3333 131.142 58.555 131.352 58.835C131.562 59.0917 131.772 59.4183 131.982 59.815C132.238 60.305 132.343 60.9583 132.297 61.775C132.25 62.5683 132.052 63.385 131.702 64.225C131.515 64.715 131.06 65.1583 130.337 65.555C129.637 65.975 128.948 66.1967 128.272 66.22C127.688 66.22 127 65.9983 126.207 65.555C125.413 65.1117 124.807 64.6217 124.387 64.085C123.663 63.105 123.453 61.985 123.757 60.725C124.083 59.465 124.795 58.6017 125.892 58.135ZM129.777 59.745C129.217 59.325 128.482 59.2317 127.572 59.465C126.662 59.675 126.02 60.095 125.647 60.725C125.367 61.2383 125.262 61.6583 125.332 61.985C125.402 62.3117 125.693 62.7433 126.207 63.28C127.42 64.5867 128.622 64.68 129.812 63.56C130.162 63.2333 130.372 62.965 130.442 62.755C130.512 62.5217 130.512 62.1017 130.442 61.495C130.325 60.5617 130.103 59.9783 129.777 59.745Z" fill="#F49393"/>
</svg>
