<svg width="285" height="68" viewBox="0 0 285 68" fill="none" xmlns="http://www.w3.org/2000/svg">
<path d="M102.216 7.705C102.426 7.16833 102.928 7.09833 103.721 7.495C103.908 7.61167 104.013 7.75167 104.036 7.915C104.083 8.07833 104.059 8.37 103.966 8.79C103.826 9.53667 103.709 10.3533 103.616 11.24L103.476 12.71L104.736 12.535C106.439 12.325 107.291 12.045 107.291 11.695C107.384 9.875 107.513 8.685 107.676 8.125C107.863 7.54167 108.189 7.30833 108.656 7.425C109.029 7.51833 109.251 7.75167 109.321 8.125C109.414 8.475 109.391 9.05833 109.251 9.875C109.064 10.8317 108.901 12.955 108.761 16.245C108.691 18.5083 108.609 19.9317 108.516 20.515C108.446 21.075 108.294 21.425 108.061 21.565C107.711 21.7517 107.396 21.7867 107.116 21.67C106.929 21.6 106.813 21.3433 106.766 20.9C106.743 20.4333 106.743 19.4183 106.766 17.855L106.871 14.25L105.996 14.285C105.436 14.285 104.841 14.4133 104.211 14.67L103.371 15.02L103.476 17.82C103.546 18.7767 103.558 19.5117 103.511 20.025C103.464 20.515 103.371 20.8417 103.231 21.005C103.114 21.1683 102.904 21.25 102.601 21.25C102.064 21.25 101.749 20.9 101.656 20.2C101.586 19.5 101.609 17.54 101.726 14.32C101.936 10.1667 102.099 7.96167 102.216 7.705ZM95.7411 7.95C96.9544 7.76333 97.6661 7.915 97.8761 8.405C98.0861 8.87167 98.1328 10.435 98.0161 13.095C97.9228 15.2417 97.8411 16.5133 97.7711 16.91C97.7011 17.3067 97.4911 17.5867 97.1411 17.75C96.6744 18.03 95.3561 18.1817 93.1861 18.205L90.0011 18.275L89.7211 17.19C89.6044 16.7467 89.5111 15.79 89.4411 14.32C89.3711 12.85 89.3594 11.6133 89.4061 10.61C89.4528 9.46667 91.5644 8.58 95.7411 7.95ZM96.4761 9.98H95.4961C94.8894 9.98 94.0028 10.1433 92.8361 10.47L91.1911 10.925L91.1211 13.025C91.0511 14.285 91.0744 15.1717 91.1911 15.685C91.2844 16.0117 91.4361 16.1983 91.6461 16.245C91.8561 16.2917 92.5211 16.28 93.6411 16.21L95.8811 16.105L96.0561 15.16C96.1728 14.53 96.2661 13.515 96.3361 12.115L96.4761 9.98ZM115.729 2.21C115.775 2.07 115.985 2 116.359 2C116.662 2 116.86 2.22167 116.954 2.665C117.07 3.085 117.047 3.68 116.884 4.45C116.79 4.94 116.72 5.26667 116.674 5.43C116.65 5.59333 116.639 5.80333 116.639 6.06C116.639 6.29333 116.65 6.43333 116.674 6.48C116.697 6.50333 116.802 6.53833 116.989 6.585C117.175 6.63167 117.339 6.64333 117.479 6.62C117.619 6.59667 117.875 6.56167 118.249 6.515C119.625 6.35167 120.395 6.50333 120.559 6.97C120.745 7.41333 120.337 8.265 119.334 9.525C118.61 10.4117 118.249 10.925 118.249 11.065C118.249 11.205 118.482 11.4733 118.949 11.87C119.415 12.2667 119.952 12.64 120.559 12.99C121.282 13.4333 121.644 13.9117 121.644 14.425C121.62 14.7517 121.399 14.915 120.979 14.915C120.582 14.915 120.057 14.74 119.404 14.39C118.774 14.0167 118.179 13.5617 117.619 13.025L116.849 12.325L116.149 13.13C115.262 14.18 114.62 14.88 114.224 15.23C113.85 15.58 113.535 15.755 113.279 15.755C112.905 15.755 112.672 15.615 112.579 15.335C112.485 15.0317 112.567 14.6817 112.824 14.285C113.104 13.8883 114.037 12.8617 115.624 11.205C117.21 9.525 118.004 8.615 118.004 8.475C118.004 8.45167 117.969 8.42833 117.899 8.405C117.852 8.38167 117.782 8.37 117.689 8.37C117.595 8.37 117.49 8.39333 117.374 8.44C116.837 8.55667 115.764 8.755 114.154 9.035C112.31 9.33833 111.319 9.33833 111.179 9.035C111.109 8.87167 111.155 8.615 111.319 8.265C111.412 8.00833 111.587 7.82167 111.844 7.705C112.124 7.58833 112.625 7.47167 113.349 7.355C114.539 7.16833 115.099 6.95833 115.029 6.725C114.982 6.53833 115.064 5.78 115.274 4.45C115.484 3.12 115.635 2.37333 115.729 2.21ZM124.024 6.935C124.187 6.63167 124.327 6.46833 124.444 6.445C124.56 6.42167 124.794 6.50333 125.144 6.69C125.4 6.83 125.552 7.13333 125.599 7.6C125.645 8.04333 125.669 9.175 125.669 10.995C125.622 13.795 125.564 15.3 125.494 15.51C125.4 15.8367 125.144 16.0117 124.724 16.035C124.304 16.035 124.035 15.8833 123.919 15.58C123.779 15.2067 123.72 13.7483 123.744 11.205C123.79 8.63833 123.884 7.215 124.024 6.935ZM118.879 18.135C119.509 17.8317 120.36 17.68 121.434 17.68C121.924 17.68 122.332 17.7267 122.659 17.82C123.009 17.89 123.324 18.0067 123.604 18.17C123.884 18.3333 124.129 18.555 124.339 18.835C124.549 19.0917 124.759 19.4183 124.969 19.815C125.225 20.305 125.33 20.9583 125.284 21.775C125.237 22.5683 125.039 23.385 124.689 24.225C124.502 24.715 124.047 25.1583 123.324 25.555C122.624 25.975 121.935 26.1967 121.259 26.22C120.675 26.22 119.987 25.9983 119.194 25.555C118.4 25.1117 117.794 24.6217 117.374 24.085C116.65 23.105 116.44 21.985 116.744 20.725C117.07 19.465 117.782 18.6017 118.879 18.135ZM122.764 19.745C122.204 19.325 121.469 19.2317 120.559 19.465C119.649 19.675 119.007 20.095 118.634 20.725C118.354 21.2383 118.249 21.6583 118.319 21.985C118.389 22.3117 118.68 22.7433 119.194 23.28C120.407 24.5867 121.609 24.68 122.799 23.56C123.149 23.2333 123.359 22.965 123.429 22.755C123.499 22.5217 123.499 22.1017 123.429 21.495C123.312 20.5617 123.09 19.9783 122.764 19.745ZM154.881 3.015C154.951 2.29166 155.325 2.12833 156.001 2.525C156.165 2.64167 156.246 2.95667 156.246 3.47C156.27 3.98333 156.211 5.115 156.071 6.865C155.861 9.40833 155.756 11.345 155.756 12.675C155.756 13.4683 155.721 13.97 155.651 14.18C155.581 14.39 155.371 14.565 155.021 14.705C154.531 14.9383 154.205 14.8917 154.041 14.565C153.901 14.2383 153.855 13.4917 153.901 12.325C153.901 11.905 153.901 11.5783 153.901 11.345C153.925 11.0883 153.913 10.9017 153.866 10.785C153.843 10.645 153.808 10.5633 153.761 10.54C153.715 10.4933 153.645 10.47 153.551 10.47C152.828 10.6567 152.175 10.8317 151.591 10.995C150.705 11.2517 150.075 11.345 149.701 11.275C149.328 11.1817 149.141 10.9133 149.141 10.47C149.141 10.12 149.305 9.81667 149.631 9.56C149.958 9.30333 150.343 9.16333 150.786 9.14C151.136 9.14 151.755 8.98833 152.641 8.685C153.551 8.38167 154.088 8.14833 154.251 7.985C154.368 7.86833 154.368 7.53 154.251 6.97L154.076 6.13L152.326 6.34C151.323 6.43333 150.495 6.375 149.841 6.165C149.188 5.955 148.861 5.66333 148.861 5.29C148.861 4.77667 149.958 4.50833 152.151 4.485C153.855 4.46167 154.765 3.97167 154.881 3.015ZM142.351 2.84C142.701 2.81667 143.086 2.78167 143.506 2.735C143.926 2.68833 144.276 2.65333 144.556 2.63C144.836 2.60667 145 2.58333 145.046 2.56C145.583 2.53667 145.875 2.79333 145.921 3.33C145.991 3.84333 145.886 5.02167 145.606 6.865C145.256 8.895 145.035 10.4817 144.941 11.625C144.918 12.2317 144.86 12.5933 144.766 12.71C144.673 12.8267 144.416 12.9083 143.996 12.955C143.413 13.0017 143.075 12.815 142.981 12.395C142.888 11.9517 142.981 10.9833 143.261 9.49C143.588 7.74 143.786 6.50333 143.856 5.78L143.961 4.45L142.631 4.625C141.815 4.71833 140.87 4.85833 139.796 5.045C138.98 5.185 138.431 5.19667 138.151 5.08C137.895 4.96333 137.836 4.68333 137.976 4.24C138.093 3.86667 138.478 3.575 139.131 3.365C139.808 3.155 140.881 2.98 142.351 2.84ZM150.121 15.755C151.381 15.615 152.128 15.5333 152.361 15.51C152.618 15.51 152.921 15.6617 153.271 15.965C153.528 16.1517 153.703 16.42 153.796 16.77C153.89 17.0967 153.971 17.7383 154.041 18.695C154.111 19.7683 154.111 20.4333 154.041 20.69C153.995 20.9233 153.785 21.18 153.411 21.46C153.085 21.7167 152.735 21.88 152.361 21.95C151.988 22.02 151.3 22.055 150.296 22.055C149.013 22.0317 148.173 22.1367 147.776 22.37C147.38 22.58 147.216 23.035 147.286 23.735L147.391 24.435H151.206C153.12 24.435 154.24 24.4583 154.566 24.505C154.916 24.5517 155.115 24.7267 155.161 25.03C155.231 25.4733 154.975 25.7767 154.391 25.94C153.808 26.1033 152.443 26.2317 150.296 26.325C149.06 26.4417 148.103 26.465 147.426 26.395C146.773 26.3483 146.341 26.2433 146.131 26.08C145.921 25.94 145.723 25.6367 145.536 25.17C145.35 24.68 145.338 23.9683 145.501 23.035C145.665 22.1017 145.91 21.4367 146.236 21.04C146.54 20.7133 146.831 20.515 147.111 20.445C147.415 20.375 148.08 20.3517 149.106 20.375C150.6 20.3983 151.486 20.27 151.766 19.99C152.023 19.7333 152.163 19.29 152.186 18.66C152.21 18.03 152.093 17.6683 151.836 17.575C151.533 17.4583 150.681 17.5167 149.281 17.75C147.881 17.96 146.913 18.1817 146.376 18.415C145.513 18.7883 144.86 18.7767 144.416 18.38C144.02 18.0067 144.113 17.5633 144.696 17.05C145.28 16.49 147.088 16.0583 150.121 15.755ZM163.953 5.185C165.19 4.99833 166.041 4.92833 166.508 4.975C166.975 4.99833 167.313 5.13833 167.523 5.395C167.71 5.605 167.745 6.92333 167.628 9.35C167.558 11.1 167.476 12.1617 167.383 12.535C167.313 12.885 167.138 13.095 166.858 13.165C166.228 13.3283 165.855 13.235 165.738 12.885C165.645 12.535 165.645 11.5667 165.738 9.98C165.855 7.99667 165.82 6.95833 165.633 6.865C165.47 6.74833 164.256 6.91167 161.993 7.355C160.546 7.65833 159.601 7.83333 159.158 7.88C158.715 7.90333 158.411 7.83333 158.248 7.67C158.085 7.50667 158.015 7.37833 158.038 7.285C158.061 7.16833 158.201 6.98167 158.458 6.725C159.135 6.095 160.966 5.58167 163.953 5.185ZM173.963 7.845C174.173 7.58833 174.5 7.495 174.943 7.565C174.966 7.565 175.013 7.565 175.083 7.565C175.386 7.58833 175.55 7.74 175.573 8.02C175.596 8.27667 175.526 9.18667 175.363 10.75C175.316 11.0533 175.293 11.2983 175.293 11.485C175.153 12.9783 175.13 13.7833 175.223 13.9C175.316 14.0167 176.261 13.935 178.058 13.655C179.785 13.3517 180.811 13.2583 181.138 13.375C181.418 13.4917 181.558 13.7717 181.558 14.215C181.558 14.3083 181.558 14.39 181.558 14.46C181.558 14.5067 181.546 14.565 181.523 14.635C181.5 14.705 181.465 14.7633 181.418 14.81C181.371 14.8333 181.325 14.8683 181.278 14.915C181.231 14.9383 181.15 14.9733 181.033 15.02C180.916 15.0433 180.788 15.0667 180.648 15.09C180.531 15.1133 180.368 15.1367 180.158 15.16C179.971 15.1833 179.773 15.2183 179.563 15.265C179.353 15.2883 179.085 15.3117 178.758 15.335C177.568 15.475 176.646 15.65 175.993 15.86L174.873 16.175L174.908 18.765C174.955 19.7917 174.943 20.515 174.873 20.935C174.826 21.3317 174.71 21.635 174.523 21.845C174.243 22.1717 173.975 22.335 173.718 22.335C173.461 22.335 173.263 22.1717 173.123 21.845C172.96 21.5183 172.948 20.3633 173.088 18.38C173.158 17.4 173.286 15.1833 173.473 11.73C173.613 9.35 173.776 8.055 173.963 7.845ZM161.818 13.865C161.958 13.655 162.133 13.5033 162.343 13.41C162.553 13.2933 162.74 13.2583 162.903 13.305C163.066 13.3283 163.171 13.4333 163.218 13.62C163.218 13.6667 163.218 13.8067 163.218 14.04C163.218 14.25 163.23 14.5417 163.253 14.915C163.276 15.265 163.288 15.5917 163.288 15.895C163.311 17.1317 163.405 17.89 163.568 18.17C163.731 18.4267 164.175 18.4967 164.898 18.38C166.835 18.0067 168.06 18.0767 168.573 18.59C168.946 18.9633 169.005 19.3017 168.748 19.605C168.515 19.885 168.048 20.0367 167.348 20.06C165.878 20.0833 163.545 20.41 160.348 21.04C159.461 21.2033 158.878 21.2383 158.598 21.145C158.318 21.0517 158.178 20.7717 158.178 20.305C158.178 19.5817 159.018 19.15 160.698 19.01L161.643 18.94L161.538 16.665C161.491 15.195 161.585 14.2617 161.818 13.865ZM189.317 0.81C190.367 0.716666 191.09 0.681666 191.487 0.704999C191.884 0.728332 192.164 0.833332 192.327 1.02C192.537 1.27667 192.712 2.14 192.852 3.61C192.945 4.54333 192.969 5.17333 192.922 5.5C192.899 5.82667 192.805 6.06 192.642 6.2C192.339 6.48 191.79 6.725 190.997 6.935C190.204 7.12167 189.492 7.215 188.862 7.215C188.232 7.215 187.754 7.25 187.427 7.32C187.124 7.39 186.902 7.50667 186.762 7.67C186.622 7.83333 186.552 8.06667 186.552 8.37C186.552 8.81333 186.634 9.05833 186.797 9.105C186.984 9.12833 187.579 9.02333 188.582 8.79C188.675 8.76667 188.757 8.74333 188.827 8.72C191.417 8.16 192.875 8.125 193.202 8.615C193.365 8.895 193.412 9.16333 193.342 9.42C193.295 9.67667 193.144 9.86333 192.887 9.98C192.537 10.1667 191.242 10.4233 189.002 10.75C186.785 11.0533 185.584 11.1467 185.397 11.03C185.14 10.89 184.965 10.365 184.872 9.455C184.779 8.52167 184.825 7.775 185.012 7.215C185.012 7.19167 185.024 7.15667 185.047 7.11C185.187 6.69 185.409 6.41 185.712 6.27C186.015 6.13 186.995 5.885 188.652 5.535C188.839 5.48833 188.99 5.45333 189.107 5.43C190.157 5.19667 190.764 5.02167 190.927 4.905C191.114 4.78833 191.207 4.52 191.207 4.1C191.207 3.54 191.114 3.12 190.927 2.84C190.6 2.32667 189.387 2.37333 187.287 2.98C185.14 3.58667 184.067 3.54 184.067 2.84C184.067 2.46667 184.277 2.15167 184.697 1.895C185 1.70833 185.619 1.51 186.552 1.3C187.509 1.06667 188.43 0.903332 189.317 0.81ZM193.412 12.325C193.482 12.2317 193.762 12.185 194.252 12.185C194.719 12.185 195.069 12.325 195.302 12.605C195.559 12.8617 195.652 13.2 195.582 13.62C195.535 13.9 195.384 14.0867 195.127 14.18C194.87 14.25 194.17 14.3317 193.027 14.425C191.464 14.5183 189.69 14.775 187.707 15.195C186.027 15.545 184.884 15.7083 184.277 15.685C183.694 15.6617 183.367 15.44 183.297 15.02C183.274 14.74 183.344 14.5183 183.507 14.355C183.694 14.1683 183.997 14.0167 184.417 13.9C184.837 13.7833 185.444 13.6667 186.237 13.55C187.45 13.41 188.92 13.1883 190.647 12.885C192.397 12.5817 193.319 12.395 193.412 12.325ZM189.037 17.575C189.947 17.4117 190.67 17.295 191.207 17.225C191.744 17.155 192.245 17.1317 192.712 17.155C193.179 17.1783 193.505 17.2367 193.692 17.33C193.902 17.4233 194.077 17.61 194.217 17.89C194.38 18.17 194.474 18.4733 194.497 18.8C194.52 19.1267 194.532 19.5817 194.532 20.165V22.37L193.517 22.79C192.84 23.07 191.814 23.21 190.437 23.21C189.364 23.21 188.629 23.28 188.232 23.42C187.859 23.56 187.672 23.8517 187.672 24.295C187.672 24.995 188.302 25.1817 189.562 24.855C190.262 24.6917 191.23 24.5633 192.467 24.47C193.704 24.33 194.392 24.225 194.532 24.155C194.649 24.085 194.859 24.1783 195.162 24.435C195.465 24.6917 195.617 24.9133 195.617 25.1C195.617 25.24 195.512 25.4033 195.302 25.59C195.069 25.7533 193.704 26.0333 191.207 26.43C188.71 26.8267 187.334 26.9783 187.077 26.885C186.494 26.675 186.085 25.9983 185.852 24.855C185.642 23.7117 185.77 22.9417 186.237 22.545C186.517 22.2883 187.45 22.0433 189.037 21.81C191.09 21.5067 192.21 21.285 192.397 21.145C192.537 21.005 192.642 20.7483 192.712 20.375C192.805 19.7683 192.77 19.3833 192.607 19.22C192.444 19.0333 191.51 19.0683 189.807 19.325C187.824 19.605 186.622 19.7333 186.202 19.71C185.805 19.6867 185.584 19.4533 185.537 19.01C185.537 18.9867 185.514 18.9517 185.467 18.905C185.42 18.555 185.537 18.3333 185.817 18.24C186.097 18.1233 187.042 17.925 188.652 17.645C188.815 17.6217 188.944 17.5983 189.037 17.575ZM141.989 44.45C145.116 43.89 146.842 43.82 147.169 44.24C147.332 44.52 147.496 45.535 147.659 47.285C147.846 49.035 147.881 50.0267 147.764 50.26C147.647 50.4933 147.087 50.7617 146.084 51.065C145.104 51.345 143.996 51.5667 142.759 51.73C142.082 51.8467 141.639 52.0683 141.429 52.395C141.242 52.7217 141.266 53.1883 141.499 53.795C141.616 54.075 141.756 54.2383 141.919 54.285C142.082 54.3317 142.502 54.32 143.179 54.25C144.136 54.11 145.197 53.9117 146.364 53.655C147.344 53.445 147.997 53.3633 148.324 53.41C148.651 53.4567 148.919 53.655 149.129 54.005C149.339 54.425 149.304 54.7517 149.024 54.985C148.767 55.2183 148.242 55.3933 147.449 55.51C144.066 55.9533 142.001 56.1867 141.254 56.21C140.531 56.21 140.099 56 139.959 55.58C139.866 55.37 139.749 54.6583 139.609 53.445C139.516 52.2783 139.632 51.52 139.959 51.17C140.309 50.7967 141.231 50.4467 142.724 50.12C143.284 50.0033 143.704 49.9217 143.984 49.875C144.264 49.805 144.556 49.735 144.859 49.665C145.162 49.5717 145.361 49.49 145.454 49.42C145.571 49.35 145.687 49.28 145.804 49.21C145.921 49.14 145.979 49.035 145.979 48.895C145.979 48.755 145.979 48.6267 145.979 48.51C145.979 48.3933 145.967 48.2183 145.944 47.985C145.757 46.8183 145.571 46.1417 145.384 45.955C145.197 45.7683 144.661 45.745 143.774 45.885C143.144 45.9783 142.094 46.1883 140.624 46.515C139.807 46.7017 139.236 46.76 138.909 46.69C138.582 46.62 138.419 46.375 138.419 45.955C138.419 45.605 138.687 45.325 139.224 45.115C139.761 44.8817 140.682 44.66 141.989 44.45ZM143.949 58.765C144.136 58.3917 144.474 58.24 144.964 58.31C145.337 58.3333 145.547 58.4383 145.594 58.625C145.641 58.7883 145.652 59.3367 145.629 60.27L145.524 62.16L147.414 61.95C148.301 61.8567 149.117 61.7517 149.864 61.635C150.237 61.5417 150.576 61.6467 150.879 61.95C151.206 62.2533 151.346 62.6033 151.299 63C151.252 63.2567 151.124 63.42 150.914 63.49C150.727 63.56 150.272 63.63 149.549 63.7C149.012 63.7 148.231 63.7583 147.204 63.875C146.177 64.015 145.127 64.1667 144.054 64.33C143.004 64.5167 142.117 64.6917 141.394 64.855C140.601 65.0417 140.064 65.065 139.784 64.925C139.527 64.8083 139.469 64.5283 139.609 64.085C139.796 63.5017 140.811 63.0583 142.654 62.755L143.634 62.58V60.935C143.634 59.8617 143.739 59.1383 143.949 58.765ZM171.906 44.8C171.999 44.5667 172.279 44.4617 172.746 44.485C173.236 44.5083 173.528 44.6367 173.621 44.87C173.714 45.1033 173.679 45.9667 173.516 47.46C173.329 48.72 173.178 50.0267 173.061 51.38C172.968 52.64 172.793 53.5267 172.536 54.04C172.303 54.4133 172.081 54.6583 171.871 54.775C171.661 54.8683 171.241 54.95 170.611 55.02C169.468 55.1367 168.278 55.2767 167.041 55.44C165.874 55.58 165.093 55.6267 164.696 55.58C164.323 55.5333 164.066 55.335 163.926 54.985C163.809 54.705 163.693 53.0367 163.576 49.98C163.529 47.9967 163.529 46.725 163.576 46.165C163.623 45.5817 163.739 45.2083 163.926 45.045C164.603 44.485 165.011 44.87 165.151 46.2C165.174 46.48 165.186 46.7833 165.186 47.11C165.186 48.0667 165.256 48.615 165.396 48.755C165.536 48.8717 166.038 48.825 166.901 48.615C167.531 48.4283 168.488 48.3 169.771 48.23L171.626 48.125L171.731 46.655C171.754 45.7683 171.813 45.15 171.906 44.8ZM170.786 50.12C170.063 49.8633 168.511 50.0617 166.131 50.715C165.758 50.8317 165.524 50.96 165.431 51.1C165.361 51.24 165.361 51.555 165.431 52.045C165.454 52.745 165.524 53.1767 165.641 53.34C165.804 53.5967 166.609 53.6317 168.056 53.445C169.526 53.2583 170.471 52.99 170.891 52.64C171.148 52.4533 171.264 52.01 171.241 51.31C171.218 50.61 171.066 50.2133 170.786 50.12ZM169.036 57.47C169.479 57.26 169.783 57.2017 169.946 57.295C170.086 57.4117 170.098 58.0533 169.981 59.22L169.806 60.97L172.851 60.795C174.344 60.7017 175.219 60.6783 175.476 60.725C175.756 60.7483 175.943 60.9233 176.036 61.25C176.129 61.53 176.118 61.775 176.001 61.985C175.884 62.1717 175.674 62.3233 175.371 62.44C175.091 62.5567 174.729 62.615 174.286 62.615C173.539 62.615 172.151 62.7667 170.121 63.07C168.091 63.3967 166.726 63.6767 166.026 63.91C165.233 64.1667 164.708 64.19 164.451 63.98C164.031 63.63 163.961 63.2333 164.241 62.79C164.544 62.3233 165.023 62.0783 165.676 62.055C166.096 62.055 166.621 61.9267 167.251 61.67C167.671 61.5067 167.928 61.355 168.021 61.215C168.114 61.075 168.126 60.795 168.056 60.375C167.963 59.7217 168.009 59.1267 168.196 58.59C168.383 58.03 168.663 57.6567 169.036 57.47ZM189.867 47.285C189.984 46.8883 190.264 46.69 190.707 46.69C191.174 46.69 191.442 46.8067 191.512 47.04C191.606 47.2267 191.582 48.2067 191.442 49.98C191.279 51.7067 191.221 52.605 191.267 52.675C191.314 52.7217 191.816 52.6517 192.772 52.465C193.776 52.2783 194.417 52.0333 194.697 51.73C195.001 51.4033 195.117 50.82 195.047 49.98C194.954 49.14 195.012 48.5217 195.222 48.125C195.432 47.705 195.794 47.5183 196.307 47.565C196.634 47.6117 196.832 47.6933 196.902 47.81C196.972 47.9267 196.996 48.23 196.972 48.72C196.972 49.07 196.949 51.345 196.902 55.545V61.25L196.167 61.53C195.701 61.7167 195.386 61.7517 195.222 61.635C195.059 61.5417 194.977 60.2467 194.977 57.75V54.11H194.207C193.717 54.11 193.064 54.285 192.247 54.635L191.092 55.195L191.127 57.75C191.174 59.5 191.139 60.48 191.022 60.69C190.859 60.9233 190.602 61.0167 190.252 60.97C189.902 60.9233 189.657 60.76 189.517 60.48C189.401 60.2467 189.389 58.1467 189.482 54.18C189.599 50.2133 189.727 47.915 189.867 47.285ZM177.967 47.705C178.154 47.3783 178.352 47.215 178.562 47.215C178.959 47.215 179.227 47.4367 179.367 47.88C179.507 48.3 179.577 49.1283 179.577 50.365C179.577 51.5783 179.636 52.7217 179.752 53.795C179.892 54.8683 180.032 55.4867 180.172 55.65C180.266 55.7433 181.444 55.8017 183.707 55.825C185.224 55.8483 186.169 55.895 186.542 55.965C186.939 56.0117 187.161 56.1517 187.207 56.385C187.184 56.5717 187.184 56.735 187.207 56.875C187.254 56.9917 187.196 57.0967 187.032 57.19C186.892 57.2833 186.741 57.365 186.577 57.435C186.414 57.505 186.134 57.5517 185.737 57.575C185.364 57.5983 184.944 57.6217 184.477 57.645C184.034 57.645 183.439 57.645 182.692 57.645C180.079 57.645 178.702 57.5283 178.562 57.295C178.399 57.0617 178.224 55.475 178.037 52.535C177.851 49.595 177.827 47.985 177.967 47.705ZM218.515 45.115C218.678 44.975 218.877 45.0217 219.11 45.255C219.367 45.4883 219.542 45.7567 219.635 46.06C219.752 46.3633 219.763 46.6083 219.67 46.795C219.507 46.935 218.375 47.0283 216.275 47.075C215.038 47.075 214.163 47.11 213.65 47.18C213.137 47.25 212.728 47.39 212.425 47.6C212.215 47.7167 212.075 47.81 212.005 47.88C211.935 47.95 211.865 48.1133 211.795 48.37C211.725 48.6033 211.69 48.8717 211.69 49.175C211.69 49.455 211.69 49.945 211.69 50.645C211.69 52.3717 211.76 53.2933 211.9 53.41C212.04 53.48 212.658 53.5267 213.755 53.55C214.968 53.55 216.485 53.41 218.305 53.13C218.958 53.0133 219.413 53.1067 219.67 53.41C220.253 54.1333 219.752 54.6583 218.165 54.985C217.978 55.0317 217.78 55.0667 217.57 55.09C216.38 55.2767 215.003 55.4167 213.44 55.51C211.9 55.6033 211.037 55.6033 210.85 55.51C210.617 55.3467 210.372 54.67 210.115 53.48C209.858 52.2667 209.73 51.205 209.73 50.295C209.73 49.105 209.637 48.3583 209.45 48.055C209.263 47.6583 209.427 47.2617 209.94 46.865C210.453 46.4683 211.235 46.1417 212.285 45.885C213.335 45.605 214.502 45.43 215.785 45.36C217.558 45.2667 218.468 45.185 218.515 45.115ZM219.32 60.305C219.437 60.165 219.693 60.1183 220.09 60.165C220.51 60.2117 220.79 60.305 220.93 60.445C221.163 60.6783 221.21 60.97 221.07 61.32C220.953 61.6467 220.72 61.8683 220.37 61.985C220.02 62.1017 218.993 62.1483 217.29 62.125C215.773 62.1017 214.152 62.16 212.425 62.3C211.748 62.3467 211.13 62.37 210.57 62.37C210.033 62.37 209.707 62.335 209.59 62.265C209.357 62.125 209.228 61.8917 209.205 61.565C209.182 61.215 209.298 60.9467 209.555 60.76C209.742 60.5967 211.398 60.4917 214.525 60.445C217.675 60.4217 219.273 60.375 219.32 60.305ZM227.076 41.86C228.103 41.65 228.943 41.5217 229.596 41.475C230.109 41.475 230.413 41.6267 230.506 41.93C230.623 42.21 230.763 43.225 230.926 44.975C230.973 45.3483 230.996 45.6633 230.996 45.92C230.996 46.1533 230.973 46.3867 230.926 46.62C230.879 46.8533 230.786 47.04 230.646 47.18C230.506 47.32 230.343 47.46 230.156 47.6C229.969 47.74 229.689 47.8683 229.316 47.985C228.943 48.1017 228.558 48.2183 228.161 48.335C227.764 48.4283 227.251 48.5567 226.621 48.72C226.271 48.79 226.049 48.895 225.956 49.035C225.886 49.175 225.851 49.4783 225.851 49.945C225.851 50.5517 225.956 50.9367 226.166 51.1C226.399 51.24 226.889 51.24 227.636 51.1C228.523 50.9367 229.129 50.785 229.456 50.645C229.923 50.4817 230.331 50.47 230.681 50.61C231.054 50.7267 231.253 50.96 231.276 51.31C231.299 51.52 231.299 51.695 231.276 51.835C231.276 51.975 231.218 52.1033 231.101 52.22C230.984 52.3133 230.833 52.395 230.646 52.465C230.459 52.5117 230.203 52.57 229.876 52.64C229.176 52.7333 228.593 52.8617 228.126 53.025C227.706 53.1883 227.111 53.2817 226.341 53.305C225.571 53.305 225.081 53.2233 224.871 53.06C224.218 52.6633 223.891 51.6833 223.891 50.12C223.891 49.4433 223.938 48.9767 224.031 48.72C224.148 48.44 224.381 48.1133 224.731 47.74C225.291 47.2267 225.816 46.97 226.306 46.97C226.819 46.97 227.461 46.7833 228.231 46.41C228.768 46.1533 229.083 45.955 229.176 45.815C229.293 45.675 229.316 45.3833 229.246 44.94C229.129 44.2867 229.048 43.8783 229.001 43.715C228.908 43.5283 228.604 43.47 228.091 43.54C227.578 43.61 226.703 43.8317 225.466 44.205C224.463 44.5317 223.821 44.695 223.541 44.695C223.261 44.695 223.063 44.5667 222.946 44.31C222.783 43.8433 223.063 43.4 223.786 42.98C224.509 42.5367 225.606 42.1633 227.076 41.86ZM235.231 48.02C235.184 45.5 235.184 44.0067 235.231 43.54C235.278 43.0733 235.441 42.84 235.721 42.84C236.351 42.84 236.713 43.0617 236.806 43.505C236.923 43.925 236.981 45.4533 236.981 48.09V53.095L236.316 53.34C235.826 53.48 235.546 53.5033 235.476 53.41C235.383 53.2933 235.301 51.4967 235.231 48.02ZM230.016 56.28C231.533 55.9533 232.781 55.8133 233.761 55.86C234.834 55.9067 235.523 56.1517 235.826 56.595C236.153 57.0383 236.316 58.0533 236.316 59.64C236.316 60.0833 236.316 60.41 236.316 60.62C236.316 60.83 236.293 61.075 236.246 61.355C236.199 61.6117 236.153 61.7867 236.106 61.88C236.083 61.9733 236.001 62.09 235.861 62.23C235.721 62.3467 235.581 62.4167 235.441 62.44C235.324 62.4633 235.114 62.4983 234.811 62.545C234.531 62.5917 234.263 62.615 234.006 62.615C233.773 62.615 233.411 62.615 232.921 62.615C231.591 62.615 230.704 62.72 230.261 62.93C229.841 63.1167 229.666 63.525 229.736 64.155C229.759 64.5517 229.829 64.785 229.946 64.855C230.086 64.925 230.413 64.925 230.926 64.855C231.603 64.7617 232.746 64.715 234.356 64.715C235.406 64.715 236.059 64.7383 236.316 64.785C236.596 64.8317 236.759 64.9717 236.806 65.205C236.876 65.5783 236.783 65.8467 236.526 66.01C236.293 66.1733 235.791 66.29 235.021 66.36C234.228 66.43 233.073 66.57 231.556 66.78C230.063 66.99 229.211 67.0367 229.001 66.92C228.418 66.71 228.033 65.9983 227.846 64.785C227.683 63.5717 227.823 62.6733 228.266 62.09C228.476 61.8333 228.756 61.6583 229.106 61.565C229.456 61.4483 230.168 61.3317 231.241 61.215C232.898 61.0517 233.831 60.9233 234.041 60.83C234.274 60.76 234.356 60.2467 234.286 59.29L234.216 57.785L232.536 57.855C231.509 57.9017 230.413 58.1 229.246 58.45C228.289 58.7533 227.659 58.8817 227.356 58.835C227.076 58.7883 226.936 58.5433 226.936 58.1C226.936 57.6333 227.134 57.2833 227.531 57.05C227.928 56.8167 228.756 56.56 230.016 56.28ZM256.236 47.95C256.376 47.6 256.551 47.39 256.761 47.32C256.995 47.2267 257.31 47.25 257.706 47.39C257.986 47.5067 258.126 47.7517 258.126 48.125C258.126 48.475 257.986 49.175 257.706 50.225C257.403 51.415 257.205 53.4683 257.111 56.385L256.901 60.83L256.166 61.075C255.56 61.285 255.198 61.2267 255.081 60.9C254.965 60.5267 254.965 59.395 255.081 57.505C255.245 55.3583 255.291 54.2267 255.221 54.11C255.151 54.04 254.533 54.1567 253.366 54.46C252.293 54.74 251.5 54.8917 250.986 54.915C250.473 54.915 250.111 54.7867 249.901 54.53C249.691 54.25 249.715 53.9933 249.971 53.76C250.298 53.4567 250.823 53.165 251.546 52.885C252.27 52.605 252.876 52.465 253.366 52.465C253.716 52.465 254.043 52.43 254.346 52.36C254.673 52.2667 254.953 52.15 255.186 52.01C255.443 51.8467 255.63 51.6717 255.746 51.485C255.886 51.275 255.956 50.75 255.956 49.91C255.956 49.0233 256.05 48.37 256.236 47.95ZM261.556 47.635C261.65 47.4017 261.86 47.2733 262.186 47.25C262.536 47.2267 262.828 47.3317 263.061 47.565C263.248 47.775 263.353 48.6967 263.376 50.33C263.4 51.9633 263.306 53.1767 263.096 53.97C262.91 54.8333 262.77 56.2333 262.676 58.17C262.583 59.64 262.49 60.55 262.396 60.9C262.303 61.2267 262.116 61.46 261.836 61.6C261.276 61.8567 260.938 61.8217 260.821 61.495C260.635 60.9583 260.786 58.4267 261.276 53.9C261.323 53.4567 261.381 52.9317 261.451 52.325C261.615 50.8783 261.65 49.805 261.556 49.105C261.463 48.4283 261.463 47.9383 261.556 47.635ZM245.736 48.475C245.853 48.3583 246.308 48.335 247.101 48.405C247.918 48.4517 248.385 48.545 248.501 48.685C248.688 48.9183 248.688 49.6183 248.501 50.785C248.408 51.3917 248.151 53.1767 247.731 56.14C247.708 56.1633 247.696 56.1867 247.696 56.21C247.486 57.9833 247.323 59.0217 247.206 59.325C247.113 59.6283 246.88 59.7917 246.506 59.815C246.016 59.885 245.713 59.7683 245.596 59.465C245.48 59.2083 245.573 57.9833 245.876 55.79C246.39 52.43 246.6 50.6333 246.506 50.4C246.483 50.3067 246.32 50.295 246.016 50.365C244.056 50.7383 242.551 50.9833 241.501 51.1C240.475 51.2167 239.775 51.2167 239.401 51.1C238.445 50.7267 238.526 50.295 239.646 49.805C240.696 49.3383 242.33 48.9767 244.546 48.72C245.223 48.6267 245.62 48.545 245.736 48.475ZM268.518 43.575C269.358 43.2717 270.163 43.1783 270.933 43.295C271.726 43.3883 272.461 43.7033 273.138 44.24C273.838 44.7767 274.41 45.5 274.853 46.41C275.296 47.2733 275.506 48.0783 275.483 48.825C275.483 49.5717 275.25 50.4 274.783 51.31C274.41 52.0567 273.966 52.6167 273.453 52.99C272.94 53.34 272.286 53.5733 271.493 53.69C270.163 53.8767 268.903 53.62 267.713 52.92C266.523 52.22 265.765 51.3217 265.438 50.225C264.971 48.7317 265.018 47.4017 265.578 46.235C266.138 45.0683 267.118 44.1817 268.518 43.575ZM271.353 45.01C271.12 45.01 270.863 44.9633 270.583 44.87C270.163 44.73 269.498 44.9867 268.588 45.64C267.678 46.2933 267.13 46.9233 266.943 47.53C266.873 47.7633 266.861 48.0433 266.908 48.37C266.955 48.6733 267.036 48.9883 267.153 49.315C267.27 49.6183 267.421 49.9217 267.608 50.225C267.818 50.5283 268.04 50.785 268.273 50.995C269.16 51.7883 270.058 52.15 270.968 52.08C271.878 52.01 272.601 51.5317 273.138 50.645C274.001 49.245 273.861 47.7867 272.718 46.27C272.041 45.43 271.586 45.01 271.353 45.01ZM272.823 55.895C273.01 55.4517 273.243 55.23 273.523 55.23C273.826 55.2067 274.083 55.4283 274.293 55.895C274.48 56.3383 274.456 57.1083 274.223 58.205C273.99 59.255 273.943 59.8967 274.083 60.13C274.2 60.34 274.9 60.445 276.183 60.445C277.07 60.445 277.618 60.48 277.828 60.55C278.061 60.5967 278.236 60.76 278.353 61.04C278.516 61.53 278.458 61.8683 278.178 62.055C277.921 62.2417 277.338 62.3233 276.428 62.3C275.705 62.2767 274.806 62.3233 273.733 62.44C272.683 62.5333 271.936 62.6383 271.493 62.755C271.283 62.825 270.746 62.93 269.883 63.07C269.043 63.2333 268.215 63.385 267.398 63.525C266.581 63.665 266.091 63.735 265.928 63.735C265.648 63.735 265.438 63.5483 265.298 63.175C265.158 62.8017 265.193 62.4867 265.403 62.23C265.59 61.9967 266.045 61.8217 266.768 61.705L267.783 61.565V59.325C267.806 58.0883 267.9 57.3067 268.063 56.98C268.226 56.63 268.576 56.525 269.113 56.665C269.44 56.7583 269.626 56.91 269.673 57.12C269.743 57.3067 269.766 57.89 269.743 58.87L269.673 60.83L271.038 60.935C271.901 60.9817 272.333 60.935 272.333 60.795C272.333 60.165 272.356 59.5 272.403 58.8C272.473 58.1 272.543 57.4933 272.613 56.98C272.706 56.4667 272.776 56.105 272.823 55.895ZM282.787 45.43C282.904 45.3133 283.079 45.2667 283.312 45.29C283.545 45.3133 283.744 45.4067 283.907 45.57C284.024 45.6867 284.094 45.8383 284.117 46.025C284.14 46.1883 284.14 46.585 284.117 47.215C284.07 48.1017 283.965 49.0817 283.802 50.155C283.639 51.2283 283.487 51.8933 283.347 52.15C283.23 52.3833 283.184 52.7567 283.207 53.27C283.254 53.76 283.359 54.2383 283.522 54.705C283.685 55.195 283.744 55.58 283.697 55.86C283.65 56.14 283.487 56.42 283.207 56.7C282.95 56.9567 282.694 57.0967 282.437 57.12C282.204 57.12 282.017 57.015 281.877 56.805C281.737 56.595 281.655 55.7083 281.632 54.145C281.609 52.5583 281.667 51.6017 281.807 51.275C281.9 51.0417 281.994 50.61 282.087 49.98C282.227 49.0933 282.32 48.4983 282.367 48.195C282.46 47.495 282.53 46.9233 282.577 46.48C282.624 45.92 282.694 45.57 282.787 45.43ZM280.932 61.81C281.212 61.6467 281.55 61.67 281.947 61.88C282.39 62.1133 282.612 62.5217 282.612 63.105C282.612 63.665 282.39 64.05 281.947 64.26C281.527 64.4933 281.084 64.4583 280.617 64.155C280.314 63.9917 280.162 63.7467 280.162 63.42C280.162 63.1867 280.244 62.8833 280.407 62.51C280.594 62.1367 280.769 61.9033 280.932 61.81Z" fill="#1A1A1A"/>
<path d="M4.44988 47.95C5.70988 47.2967 7.08655 47.495 8.57988 48.545C9.79322 49.3617 10.6566 50.3767 11.1699 51.59C11.6832 52.78 11.7766 53.9933 11.4499 55.23C11.2399 56.0933 10.9366 56.735 10.5399 57.155C10.1666 57.575 9.55988 57.96 8.71988 58.31C7.90322 58.66 7.15655 58.835 6.47988 58.835C5.91988 58.8583 5.31322 58.7533 4.65988 58.52C4.00655 58.2867 3.39988 57.96 2.83988 57.54C2.30322 57.12 1.87155 56.6767 1.54488 56.21C1.21822 55.6967 1.01988 55.2883 0.949883 54.985C0.879883 54.6583 0.868216 54.1333 0.914883 53.41C0.984883 52.29 1.17155 51.4617 1.47488 50.925C1.75488 50.3883 2.18655 49.8283 2.76988 49.245C3.35322 48.6617 3.91322 48.23 4.44988 47.95ZM7.70488 49.98C7.02822 49.49 6.46822 49.2683 6.02488 49.315C5.58155 49.3383 5.04488 49.63 4.41488 50.19C3.48155 51.0767 2.93322 51.9867 2.76988 52.92C2.62988 53.83 2.89822 54.6933 3.57488 55.51C4.36822 56.4667 5.33655 56.9567 6.47988 56.98C7.64655 56.98 8.60322 56.49 9.34988 55.51C9.58322 55.23 9.73488 54.95 9.80488 54.67C9.87488 54.3667 9.88655 53.9233 9.83988 53.34C9.76988 52.5933 9.58322 51.9867 9.27988 51.52C8.97655 51.03 8.45155 50.5167 7.70488 49.98ZM15.3349 48.23C15.4282 48.0667 15.6966 48.0083 16.1399 48.055C16.5832 48.1017 16.8166 48.2067 16.8399 48.37C16.8866 48.7667 16.7932 52.01 16.5599 58.1L16.3499 62.475H15.5449C15.3116 62.475 15.1482 62.475 15.0549 62.475C14.9616 62.4517 14.8799 62.3933 14.8099 62.3C14.7399 62.1833 14.6932 62.055 14.6699 61.915C14.6699 61.7517 14.6582 61.4833 14.6349 61.11C14.5882 60.34 14.6582 58.0417 14.8449 54.215C15.0549 50.3883 15.2182 48.3933 15.3349 48.23ZM24.185 40.915C24.7916 40.7983 25.7833 40.7283 27.16 40.705C27.8133 40.6817 28.3033 40.7167 28.63 40.81C28.98 40.88 29.2133 41.02 29.33 41.23C29.4466 41.44 29.4466 41.72 29.33 42.07C29.2833 42.3033 29.1666 42.4433 28.98 42.49C28.7933 42.5133 28.3383 42.4783 27.615 42.385C26.7283 42.2917 25.725 42.3383 24.605 42.525C23.5083 42.6883 22.7383 42.9217 22.295 43.225C21.9683 43.4817 21.7933 43.96 21.77 44.66C21.7466 45.1033 21.77 45.3833 21.84 45.5C21.91 45.6167 22.0616 45.6517 22.295 45.605C22.645 45.535 23.7066 45.4533 25.48 45.36C26.7633 45.29 27.545 45.2783 27.825 45.325C28.105 45.3717 28.315 45.535 28.455 45.815C28.5716 46.0717 28.63 46.2817 28.63 46.445C28.6533 46.6083 28.5483 46.7367 28.315 46.83C28.0816 46.9233 27.7666 46.9933 27.37 47.04C26.9733 47.0633 26.4016 47.0867 25.655 47.11C23.975 47.1567 22.9016 47.2733 22.435 47.46C21.9916 47.6233 21.7466 48.0317 21.7 48.685C21.6533 49.1517 21.665 49.4433 21.735 49.56C21.805 49.6533 22.015 49.7 22.365 49.7C22.855 49.7 23.8 49.5717 25.2 49.315C26.6 49.0583 27.3933 48.8717 27.58 48.755C27.8133 48.6617 28.1516 48.6967 28.595 48.86C29.085 49.0467 29.295 49.3383 29.225 49.735C29.1783 50.015 29.015 50.225 28.735 50.365C28.4783 50.4817 27.8366 50.6333 26.81 50.82C25.3166 51.1 23.9516 51.4033 22.715 51.73C21.595 52.0333 20.9066 52.08 20.65 51.87C20.3233 51.6133 20.1133 50.6217 20.02 48.895C19.9733 48.5683 19.9383 48.0317 19.915 47.285C19.8683 46.235 19.8333 45.2433 19.81 44.31C19.81 43.3767 19.8333 42.91 19.88 42.91C19.9733 42.6767 20.545 42.315 21.595 41.825C22.6683 41.3117 23.5316 41.0083 24.185 40.915ZM24.885 53.62C28.7583 52.8733 30.6833 53.0133 30.66 54.04L30.555 54.495C30.4383 54.775 29.8083 54.915 28.665 54.915C27.475 54.915 26.39 55.0433 25.41 55.3C24.1033 55.6033 23.24 55.8017 22.82 55.895C22.2133 55.965 21.42 56.175 20.44 56.525C19.6233 56.7817 19.075 56.84 18.795 56.7C18.515 56.56 18.5033 56.21 18.76 55.65C18.9466 55.2533 19.4483 54.9267 20.265 54.67C21.0816 54.39 22.6216 54.04 24.885 53.62ZM25.375 57.54C25.445 57.4467 25.9816 57.4 26.985 57.4C28.035 57.4 28.7233 57.5867 29.05 57.96C29.3766 58.31 29.5633 59.08 29.61 60.27C29.6566 61.1333 29.645 61.6933 29.575 61.95C29.5283 62.1833 29.3416 62.4167 29.015 62.65C28.525 63 27.4166 63.2333 25.69 63.35C24.92 63.42 24.36 63.4783 24.01 63.525C23.66 63.595 23.415 63.6767 23.275 63.77C23.135 63.8633 23.0533 63.98 23.03 64.12C22.9366 64.54 23.0066 64.8083 23.24 64.925C23.4966 65.0417 23.9166 65.03 24.5 64.89C25.2933 64.68 26.3783 64.4817 27.755 64.295C28.665 64.155 29.2716 64.085 29.575 64.085C29.9016 64.1083 30.1466 64.2017 30.31 64.365C30.59 64.645 30.6716 64.925 30.555 65.205C30.4383 65.5083 30.1816 65.695 29.785 65.765C25.5383 66.5817 23.1233 66.9317 22.54 66.815C22.0966 66.7217 21.735 66.4183 21.455 65.905C21.175 65.3917 21.035 64.785 21.035 64.085C21.035 63.2683 21.245 62.7317 21.665 62.475C22.1083 62.195 23.0533 62.0083 24.5 61.915C25.9933 61.7983 26.9383 61.6583 27.335 61.495C27.7316 61.3083 27.93 60.9467 27.93 60.41C27.93 59.8267 27.6733 59.4767 27.16 59.36C26.6466 59.2433 25.5616 59.29 23.905 59.5C23.1116 59.6167 22.5166 59.6867 22.12 59.71C21.7233 59.7333 21.3966 59.7217 21.14 59.675C20.8833 59.605 20.7666 59.4883 20.79 59.325C20.8366 59.1383 20.8833 58.8933 20.93 58.59C21.0233 58.3567 21.1283 58.1933 21.245 58.1C21.3616 58.0067 21.5483 57.9367 21.805 57.89C22.0616 57.82 22.5283 57.7733 23.205 57.75C24.5583 57.7033 25.2816 57.6333 25.375 57.54ZM47.7167 44.975C48.5567 44.765 49.4201 44.835 50.3067 45.185C51.2167 45.5117 51.9867 46.025 52.6167 46.725C53.2701 47.425 53.7484 48.2533 54.0517 49.21C54.3551 50.1667 54.3901 51.1 54.1567 52.01C53.5501 54.2967 51.6717 55.4517 48.5217 55.475C47.3084 55.475 46.3634 55.3117 45.6867 54.985C45.0101 54.6583 44.3801 54.0517 43.7967 53.165C42.3967 51.065 42.6184 48.9883 44.4617 46.935C44.8117 46.5383 45.1267 46.235 45.4067 46.025C45.6867 45.7917 46.0017 45.605 46.3517 45.465C46.7017 45.3017 47.1567 45.1383 47.7167 44.975ZM50.8667 47.39C50.3767 46.9933 49.8867 46.7833 49.3967 46.76C48.9067 46.7133 48.2651 46.83 47.4717 47.11C46.2584 47.5533 45.3951 48.265 44.8817 49.245C44.6017 49.805 44.5784 50.4933 44.8117 51.31C45.0451 52.1033 45.4301 52.675 45.9667 53.025C46.6434 53.4217 47.3667 53.655 48.1367 53.725C48.9067 53.7717 49.6067 53.69 50.2367 53.48C50.8901 53.2467 51.4384 52.885 51.8817 52.395C52.3251 51.905 52.5467 51.345 52.5467 50.715C52.5467 49.4317 51.9867 48.3233 50.8667 47.39ZM58.3217 45.71C58.5551 45.4067 58.8351 45.2667 59.1617 45.29C59.4884 45.3133 59.7101 45.4883 59.8267 45.815C59.9201 46.2117 59.8851 46.7483 59.7217 47.425C59.5351 48.0783 59.3951 48.86 59.3017 49.77L59.1267 51.1L60.7017 50.89C61.5651 50.7967 62.1717 50.855 62.5217 51.065C62.8717 51.2517 63.0001 51.6017 62.9067 52.115C62.8834 52.2317 62.8134 52.3367 62.6967 52.43C62.6034 52.5 62.4517 52.57 62.2417 52.64C62.0317 52.6867 61.7284 52.7333 61.3317 52.78C60.3984 52.8733 59.7567 52.99 59.4067 53.13C59.0567 53.27 58.8934 53.48 58.9167 53.76V56.21C58.8934 57.1667 58.8467 57.75 58.7767 57.96C58.7067 58.17 58.4967 58.3217 58.1467 58.415C57.5867 58.555 57.2484 58.4733 57.1317 58.17C56.9451 57.68 57.0384 55.51 57.4117 51.66L57.5517 50.19C57.8317 47.4833 58.0884 45.99 58.3217 45.71ZM49.7467 59.22C49.9567 58.9633 50.1084 58.835 50.2017 58.835C50.3184 58.8117 50.5401 58.8817 50.8667 59.045C51.1001 59.185 51.2284 59.3717 51.2517 59.605C51.2984 59.8383 51.2867 60.3633 51.2167 61.18C51.1934 61.2967 51.1701 61.4717 51.1467 61.705C51.0767 62.3583 51.1117 62.72 51.2517 62.79C51.3917 62.86 51.9051 62.7783 52.7917 62.545C53.0951 62.475 53.3284 62.4167 53.4917 62.37C54.5417 62.1133 55.6617 61.9617 56.8517 61.915C58.0651 61.845 58.7417 61.915 58.8817 62.125C59.0451 62.3583 59.1151 62.545 59.0917 62.685C59.0684 62.825 58.9401 63.0233 58.7067 63.28C58.4267 63.5833 57.8901 63.735 57.0967 63.735C56.3501 63.735 55.4634 63.875 54.4367 64.155C53.5501 64.3883 52.5234 64.575 51.3567 64.715C50.6567 64.8083 50.2017 64.8317 49.9917 64.785C49.8051 64.7383 49.6417 64.575 49.5017 64.295C49.2684 63.8983 49.1867 63.035 49.2567 61.705C49.3267 60.3517 49.4901 59.5233 49.7467 59.22ZM68.7884 48.125C69.325 47.9617 69.78 47.915 70.1534 47.985C70.55 48.0317 71.2267 48.265 72.1834 48.685C73.7467 49.3383 74.54 50.7383 74.5634 52.885C74.5634 53.9817 74.4584 54.8217 74.2484 55.405C74.0617 55.965 73.7 56.56 73.1634 57.19C72.6734 57.75 72.3 58.0883 72.0434 58.205C71.81 58.3217 71.355 58.38 70.6784 58.38C69.3484 58.38 68.0767 57.9833 66.8634 57.19C65.6734 56.3967 64.985 55.51 64.7984 54.53C64.635 53.5733 64.67 52.745 64.9034 52.045C65.1367 51.345 65.6384 50.61 66.4084 49.84C66.7817 49.4433 67.2017 49.0817 67.6684 48.755C68.1584 48.4283 68.5317 48.2183 68.7884 48.125ZM71.2034 49.98C70.62 49.7933 70.2 49.7233 69.9434 49.77C69.6867 49.7933 69.22 49.9917 68.5434 50.365C67.75 50.8317 67.225 51.24 66.9684 51.59C66.7117 51.94 66.5717 52.43 66.5484 53.06C66.5484 53.8533 66.84 54.5417 67.4234 55.125C68.03 55.7083 68.8234 56.105 69.8034 56.315C70.55 56.5017 71.0167 56.5833 71.2034 56.56C71.39 56.5133 71.6467 56.2917 71.9734 55.895C72.16 55.685 72.2884 55.4867 72.3584 55.3C72.4517 55.09 72.51 54.8333 72.5334 54.53C72.58 54.2267 72.6034 53.8067 72.6034 53.27C72.6034 52.1033 72.51 51.3217 72.3234 50.925C72.16 50.505 71.7867 50.19 71.2034 49.98ZM84.7834 48.125C84.9467 47.8917 85.1567 47.7867 85.4134 47.81C85.67 47.81 85.9034 47.9383 86.1134 48.195C86.3467 48.475 86.3934 50.295 86.2534 53.655C86.09 56.945 86.0084 58.975 86.0084 59.745C85.985 60.4217 85.8917 60.8767 85.7284 61.11C85.5884 61.3433 85.285 61.5067 84.8184 61.6L84.0834 61.74L84.3284 57.68C84.4917 54.4133 84.5734 52.2083 84.5734 51.065C84.5734 49.3383 84.6434 48.3583 84.7834 48.125ZM80.6534 48.65C81.12 48.2067 81.5517 48.23 81.9484 48.72C82.1584 48.9767 82.1584 50.2833 81.9484 52.64C81.8084 54.4367 81.645 56.4433 81.4584 58.66L81.2834 61.11H80.4784H79.6384L79.6734 57.855C79.6734 57.8083 79.6734 57.75 79.6734 57.68C79.72 56.0233 79.6734 55.09 79.5334 54.88C79.3934 54.6467 78.88 54.6583 77.9934 54.915C77.9234 54.9383 77.8767 54.95 77.8534 54.95C77.27 55.1367 76.71 55.1833 76.1734 55.09C75.6367 54.9967 75.3684 54.8217 75.3684 54.565C75.3684 54.1217 75.5667 53.7717 75.9634 53.515C76.3834 53.2583 77.06 53.0833 77.9934 52.99C79.2534 52.8267 79.965 52.6283 80.1284 52.395C80.2684 52.115 80.3384 51.4733 80.3384 50.47C80.3384 49.4667 80.4434 48.86 80.6534 48.65ZM104.025 42.84C105.169 42.6767 105.904 42.6067 106.23 42.63C106.557 42.63 106.965 42.735 107.455 42.945C107.899 43.1317 108.167 43.33 108.26 43.54C108.377 43.75 108.482 44.345 108.575 45.325C108.692 46.8417 108.715 48.1483 108.645 49.245C108.645 49.3617 108.645 49.525 108.645 49.735C108.622 50.505 108.47 50.9833 108.19 51.17C107.934 51.3333 106.977 51.59 105.32 51.94C104.9 52.0567 104.562 52.1383 104.305 52.185C103.605 52.325 103.069 52.4417 102.695 52.535C102.322 52.605 101.949 52.6633 101.575 52.71C101.225 52.7333 100.969 52.745 100.805 52.745C100.665 52.7217 100.525 52.6633 100.385 52.57C100.245 52.4767 100.14 52.3717 100.07 52.255C100.024 52.115 99.9771 51.9283 99.9304 51.695C99.7438 50.995 99.5804 49.7117 99.4404 47.845C99.3238 45.9783 99.3238 44.8117 99.4404 44.345C99.5804 43.8783 99.8721 43.645 100.315 43.645C100.735 43.645 101.214 43.54 101.75 43.33C102.31 43.12 103.069 42.9567 104.025 42.84ZM106.65 44.59L105.39 44.555C104.037 44.485 102.87 44.7183 101.89 45.255C101.587 45.4183 101.412 45.6283 101.365 45.885C101.319 46.1417 101.319 46.8417 101.365 47.985L101.435 50.365L102.94 50.33C104.037 50.26 104.924 50.12 105.6 49.91L106.825 49.56L106.755 47.11L106.65 44.59ZM108.715 54.635C109.182 54.4717 109.509 54.39 109.695 54.39C109.975 54.3667 110.197 54.5183 110.36 54.845C110.547 55.1717 110.605 55.51 110.535 55.86C110.489 56.07 110.419 56.2217 110.325 56.315C110.232 56.4083 110.08 56.4783 109.87 56.525C109.684 56.5483 109.357 56.5833 108.89 56.63L107.49 56.7V59.045V61.39H106.65H105.81L105.74 59.115C105.67 57.5983 105.577 56.84 105.46 56.84C105.367 56.84 104.434 56.98 102.66 57.26C100.304 57.61 98.9971 57.7033 98.7404 57.54C98.6004 57.4467 98.5421 57.2367 98.5654 56.91C98.6354 56.35 98.9971 55.9767 99.6504 55.79C100.327 55.58 101.785 55.3817 104.025 55.195C106.685 55.0083 108.249 54.8217 108.715 54.635ZM101.26 60.445C101.657 59.745 102.054 59.6167 102.45 60.06C102.777 60.4567 102.94 61.11 102.94 62.02V63.49L103.85 63.315C104.597 63.175 105.939 63.0233 107.875 62.86C109.835 62.6967 110.909 62.65 111.095 62.72C111.329 62.8133 111.445 63.0467 111.445 63.42C111.445 63.7933 111.34 64.0617 111.13 64.225C110.85 64.365 110.092 64.4817 108.855 64.575C106.989 64.785 105.554 64.9717 104.55 65.135C102.964 65.3683 102.042 65.4267 101.785 65.31C101.505 65.1933 101.284 64.4583 101.12 63.105C100.98 61.775 101.027 60.8883 101.26 60.445ZM129.854 47.32C130.064 47.0867 130.274 46.97 130.484 46.97C130.881 46.97 131.126 47.2033 131.219 47.67C131.313 48.1133 131.324 49.0933 131.254 50.61L131.114 53.655L133.424 53.48C134.661 53.3867 135.513 53.41 135.979 53.55C136.446 53.6667 136.679 53.9467 136.679 54.39C136.679 54.6933 136.493 54.8917 136.119 54.985C135.769 55.0783 134.824 55.1833 133.284 55.3C131.814 55.3933 131.056 55.475 131.009 55.545C130.939 55.615 130.893 56.6067 130.869 58.52C130.823 59.8967 130.764 60.7367 130.694 61.04C130.624 61.32 130.426 61.5417 130.099 61.705C129.796 61.8683 129.574 61.9383 129.434 61.915C129.318 61.8917 129.189 61.775 129.049 61.565C128.793 61.2617 128.734 60.795 128.874 60.165C129.108 58.555 129.306 55.4283 129.469 50.785C129.539 48.7083 129.668 47.5533 129.854 47.32ZM118.409 48.475C120.579 48.195 121.968 48.0667 122.574 48.09C123.181 48.09 123.484 48.265 123.484 48.615C123.484 49.0583 123.309 49.63 122.959 50.33C122.633 51.03 122.201 51.7183 121.664 52.395C121.151 52.9783 120.859 53.3633 120.789 53.55C120.743 53.7367 120.824 53.9933 121.034 54.32C121.268 54.74 121.816 55.2883 122.679 55.965C123.939 56.9217 124.453 57.715 124.219 58.345C124.056 58.765 123.718 58.905 123.204 58.765C122.714 58.6017 122.166 58.1817 121.559 57.505C120.766 56.735 120.276 56.1983 120.089 55.895C119.949 55.615 119.763 55.475 119.529 55.475C119.296 55.475 118.853 55.86 118.199 56.63C117.569 57.4 117.219 57.9717 117.149 58.345C117.056 58.7183 116.846 58.9867 116.519 59.15C116.216 59.3133 115.854 59.3367 115.434 59.22C114.408 58.9867 114.513 58.17 115.749 56.77C116.099 56.3733 116.799 55.5333 117.849 54.25C118.573 53.3167 119.133 52.675 119.529 52.325C119.973 51.8583 120.311 51.415 120.544 50.995C120.778 50.645 120.894 50.4233 120.894 50.33C120.918 50.2367 120.824 50.155 120.614 50.085C120.311 49.945 119.203 50.0733 117.289 50.47C116.403 50.6567 115.644 50.8083 115.014 50.925C114.408 51.0183 114.034 51.065 113.894 51.065C113.544 51.065 113.323 50.9367 113.229 50.68C113.136 50.4 113.206 50.085 113.439 49.735C113.649 49.4317 114.058 49.21 114.664 49.07C115.271 48.9067 116.519 48.7083 118.409 48.475Z" fill="#F49393"/>
</svg>
