<svg width="135" height="20" viewBox="0 0 135 20" fill="none" xmlns="http://www.w3.org/2000/svg">
<path d="M4.64869 3.176C5.43269 3.064 5.93669 3.016 6.16069 3.032C6.38469 3.032 6.66469 3.104 7.00069 3.248C7.30469 3.376 7.48869 3.512 7.55269 3.656C7.63269 3.8 7.70469 4.208 7.76869 4.88C7.84869 5.92 7.86469 6.816 7.81669 7.568C7.81669 7.648 7.81669 7.76 7.81669 7.904C7.80069 8.432 7.69669 8.76 7.50469 8.888C7.32869 9 6.67269 9.176 5.53669 9.416C5.24869 9.496 5.01669 9.552 4.84069 9.584C4.36069 9.68 3.99269 9.76 3.73669 9.824C3.48069 9.872 3.22469 9.912 2.96869 9.944C2.72869 9.96 2.55269 9.968 2.44069 9.968C2.34469 9.952 2.24869 9.912 2.15269 9.848C2.05669 9.784 1.98469 9.712 1.93669 9.632C1.90469 9.536 1.87269 9.408 1.84069 9.248C1.71269 8.768 1.60069 7.888 1.50469 6.608C1.42469 5.328 1.42469 4.528 1.50469 4.208C1.60069 3.888 1.80069 3.728 2.10469 3.728C2.39269 3.728 2.72069 3.656 3.08869 3.512C3.47269 3.368 3.99269 3.256 4.64869 3.176ZM6.44869 4.376L5.58469 4.352C4.65669 4.304 3.85669 4.464 3.18469 4.832C2.97669 4.944 2.85669 5.088 2.82469 5.264C2.79269 5.44 2.79269 5.92 2.82469 6.704L2.87269 8.336L3.90469 8.312C4.65669 8.264 5.26469 8.168 5.72869 8.024L6.56869 7.784L6.52069 6.104L6.44869 4.376ZM7.86469 11.264C8.18469 11.152 8.40869 11.096 8.53669 11.096C8.72869 11.08 8.88069 11.184 8.99269 11.408C9.12069 11.632 9.16069 11.864 9.11269 12.104C9.08069 12.248 9.03269 12.352 8.96869 12.416C8.90469 12.48 8.80069 12.528 8.65669 12.56C8.52869 12.576 8.30469 12.6 7.98469 12.632L7.02469 12.68V14.288V15.896H6.44869H5.87269L5.82469 14.336C5.77669 13.296 5.71269 12.776 5.63269 12.776C5.56869 12.776 4.92869 12.872 3.71269 13.064C2.09669 13.304 1.20069 13.368 1.02469 13.256C0.928688 13.192 0.888688 13.048 0.904688 12.824C0.952688 12.44 1.20069 12.184 1.64869 12.056C2.11269 11.912 3.11269 11.776 4.64869 11.648C6.47269 11.52 7.54469 11.392 7.86469 11.264ZM2.75269 15.248C3.02469 14.768 3.29669 14.68 3.56869 14.984C3.79269 15.256 3.90469 15.704 3.90469 16.328V17.336L4.52869 17.216C5.04069 17.12 5.96069 17.016 7.28869 16.904C8.63269 16.792 9.36869 16.76 9.49669 16.808C9.65669 16.872 9.73669 17.032 9.73669 17.288C9.73669 17.544 9.66469 17.728 9.52069 17.84C9.32869 17.936 8.80869 18.016 7.96069 18.08C6.68069 18.224 5.69669 18.352 5.00869 18.464C3.92069 18.624 3.28869 18.664 3.11269 18.584C2.92069 18.504 2.76869 18 2.65669 17.072C2.56069 16.16 2.59269 15.552 2.75269 15.248ZM22.3599 6.248C22.5039 6.088 22.6479 6.008 22.7919 6.008C23.0639 6.008 23.2319 6.168 23.2959 6.488C23.3599 6.792 23.3679 7.464 23.3199 8.504L23.2239 10.592L24.8079 10.472C25.6559 10.408 26.2399 10.424 26.5599 10.52C26.8799 10.6 27.0399 10.792 27.0399 11.096C27.0399 11.304 26.9119 11.44 26.6559 11.504C26.4159 11.568 25.7679 11.64 24.7119 11.72C23.7039 11.784 23.1839 11.84 23.1519 11.888C23.1039 11.936 23.0719 12.616 23.0559 13.928C23.0239 14.872 22.9839 15.448 22.9359 15.656C22.8879 15.848 22.7519 16 22.5279 16.112C22.3199 16.224 22.1679 16.272 22.0719 16.256C21.9919 16.24 21.9039 16.16 21.8079 16.016C21.6319 15.808 21.5919 15.488 21.6879 15.056C21.8479 13.952 21.9839 11.808 22.0959 8.624C22.1439 7.2 22.2319 6.408 22.3599 6.248ZM14.5119 7.04C15.9999 6.848 16.9519 6.76 17.3679 6.776C17.7839 6.776 17.9919 6.896 17.9919 7.136C17.9919 7.44 17.8719 7.832 17.6319 8.312C17.4079 8.792 17.1119 9.264 16.7439 9.728C16.3919 10.128 16.1919 10.392 16.1439 10.52C16.1119 10.648 16.1679 10.824 16.3119 11.048C16.4719 11.336 16.8479 11.712 17.4399 12.176C18.3039 12.832 18.6559 13.376 18.4959 13.808C18.3839 14.096 18.1519 14.192 17.7999 14.096C17.4639 13.984 17.0879 13.696 16.6719 13.232C16.1279 12.704 15.7919 12.336 15.6639 12.128C15.5679 11.936 15.4399 11.84 15.2799 11.84C15.1199 11.84 14.8159 12.104 14.3679 12.632C13.9359 13.16 13.6959 13.552 13.6479 13.808C13.5839 14.064 13.4399 14.248 13.2159 14.36C13.0079 14.472 12.7599 14.488 12.4719 14.408C11.7679 14.248 11.8399 13.688 12.6879 12.728C12.9279 12.456 13.4079 11.88 14.1279 11C14.6239 10.36 15.0079 9.92 15.2799 9.68C15.5839 9.36 15.8159 9.056 15.9759 8.768C16.1359 8.528 16.2159 8.376 16.2159 8.312C16.2319 8.248 16.1679 8.192 16.0239 8.144C15.8159 8.048 15.0559 8.136 13.7439 8.408C13.1359 8.536 12.6159 8.64 12.1839 8.72C11.7679 8.784 11.5119 8.816 11.4159 8.816C11.1759 8.816 11.0239 8.728 10.9599 8.552C10.8959 8.36 10.9439 8.144 11.1039 7.904C11.2479 7.696 11.5279 7.544 11.9439 7.448C12.3599 7.336 13.2159 7.2 14.5119 7.04ZM43.0121 2.432C43.7001 2.336 44.2121 2.32 44.5481 2.384C44.9001 2.432 45.1481 2.528 45.2921 2.672C45.4361 2.816 45.5401 3.064 45.6041 3.416C45.6681 3.752 45.7161 4.352 45.7481 5.216L45.7961 7.448L45.2441 7.856C44.8921 8.112 44.6761 8.152 44.5961 7.976C44.5001 7.768 44.4521 6.976 44.4521 5.6V3.512L43.5641 3.656C43.0201 3.736 42.5721 3.832 42.2201 3.944C41.6761 4.136 41.2761 4.168 41.0201 4.04C40.7801 3.896 40.7321 3.624 40.8761 3.224C40.9721 3 41.1481 2.84 41.4041 2.744C41.6601 2.632 42.1961 2.528 43.0121 2.432ZM38.1881 3.248C38.2841 3.152 38.5641 3.128 39.0281 3.176C39.5081 3.224 39.8041 3.304 39.9161 3.416C40.0601 3.592 40.1161 4.584 40.0841 6.392L40.0121 9.104L39.4121 9.152L38.7401 9.2L38.8121 6.848L38.8601 4.448L38.3081 4.568C37.7321 4.696 37.1721 4.776 36.6281 4.808C36.0841 4.824 35.7401 4.784 35.5961 4.688C35.3081 4.496 35.4121 4.248 35.9081 3.944C36.2121 3.768 36.5961 3.632 37.0601 3.536C37.7801 3.392 38.1561 3.296 38.1881 3.248ZM41.8361 8.312C41.9641 8.152 42.1081 8.08 42.2681 8.096C42.4441 8.096 42.6041 8.176 42.7481 8.336C42.8441 8.48 42.8841 8.648 42.8681 8.84C42.8681 9.032 42.8121 9.408 42.7001 9.968C42.4921 10.832 42.4201 11.288 42.4841 11.336C42.5481 11.4 42.9161 11.4 43.5881 11.336C44.2761 11.272 44.8121 11.192 45.1961 11.096C46.2201 10.792 46.8521 10.848 47.0921 11.264C47.2681 11.616 47.2521 11.896 47.0441 12.104C46.8521 12.296 46.5001 12.392 45.9881 12.392C45.4761 12.392 44.8041 12.456 43.9721 12.584C43.1561 12.728 42.4601 12.824 41.8841 12.872C41.0681 12.968 40.3401 13.072 39.7001 13.184C38.9641 13.312 38.4681 13.344 38.2121 13.28C37.9561 13.216 37.8281 13.032 37.8281 12.728C37.8281 12.488 37.8761 12.312 37.9721 12.2C38.0841 12.072 38.2681 11.984 38.5241 11.936C38.7801 11.872 39.1721 11.832 39.7001 11.816C40.1481 11.8 40.5081 11.768 40.7801 11.72C41.0521 11.656 41.2361 11.568 41.3321 11.456C41.4281 11.344 41.4361 11.208 41.3561 11.048C41.2921 10.872 41.3241 10.408 41.4521 9.656C41.5961 8.904 41.7241 8.456 41.8361 8.312ZM42.5801 14.48C44.1641 14.384 45.0121 14.336 45.1241 14.336C45.4761 14.304 45.7001 14.44 45.7961 14.744C45.8921 15.048 45.9401 15.752 45.9401 16.856C45.9401 18.136 45.8921 18.84 45.7961 18.968C45.7481 19.032 45.6521 19.08 45.5081 19.112C45.1241 19.208 44.8841 19.152 44.7881 18.944C44.6921 18.752 44.6441 18.2 44.6441 17.288V15.584L42.8921 15.728C41.6121 15.84 40.8121 15.888 40.4921 15.872C40.1721 15.856 39.9961 15.768 39.9641 15.608C39.9481 15.416 40.0201 15.208 40.1801 14.984C40.2441 14.872 40.3481 14.792 40.4921 14.744C40.6521 14.68 40.8841 14.632 41.1881 14.6C41.4921 14.568 41.9561 14.528 42.5801 14.48ZM58.7998 1.112C58.9438 0.839999 59.1038 0.704 59.2798 0.704C59.6958 0.704 59.8958 1.32 59.8798 2.552C59.8798 3.32 59.9118 3.752 59.9758 3.848C60.0718 3.912 60.5678 3.864 61.4638 3.704C62.1038 3.592 62.5038 3.544 62.6638 3.56C62.8238 3.576 62.9678 3.664 63.0958 3.824C63.3038 4.112 63.3598 4.344 63.2638 4.52C63.1838 4.68 62.9598 4.776 62.5918 4.808C62.1438 4.856 61.2558 5.008 59.9278 5.264C58.5998 5.52 57.7118 5.712 57.2638 5.84C56.8318 5.968 56.4478 6 56.1118 5.936C55.7758 5.856 55.6078 5.696 55.6078 5.456C55.6078 5.216 55.8078 4.992 56.2078 4.784C56.6238 4.56 57.0798 4.424 57.5758 4.376C58.1518 4.328 58.4958 4.272 58.6078 4.208C58.7198 4.128 58.7438 3.664 58.6798 2.816C58.6158 1.952 58.6558 1.384 58.7998 1.112ZM58.3438 6.536C58.9838 6.2 59.3678 6.024 59.4958 6.008C60.1198 5.992 60.7918 6.256 61.5118 6.8C62.2318 7.328 62.5918 7.84 62.5918 8.336C62.5918 8.72 62.4398 9.152 62.1358 9.632C61.4478 10.608 60.3358 11.112 58.7998 11.144C58.2238 11.16 57.8318 11.144 57.6238 11.096C57.4318 11.048 57.1998 10.896 56.9278 10.64C56.3358 10.08 56.1758 9.4 56.4478 8.6C56.7198 7.784 57.3518 7.096 58.3438 6.536ZM60.8878 7.496C60.6478 7.384 60.3438 7.336 59.9758 7.352C59.6238 7.352 59.3358 7.424 59.1118 7.568C58.6638 7.824 58.3438 8.024 58.1518 8.168C57.9758 8.312 57.8558 8.448 57.7918 8.576C57.7278 8.704 57.6958 8.88 57.6958 9.104C57.6958 9.232 57.7038 9.352 57.7198 9.464C57.7518 9.56 57.7918 9.64 57.8398 9.704C57.8878 9.768 57.9598 9.824 58.0558 9.872C58.1518 9.904 58.2638 9.928 58.3918 9.944C58.5358 9.96 58.7118 9.968 58.9198 9.968C59.6078 9.968 60.2078 9.776 60.7198 9.392C61.2478 9.008 61.4478 8.6 61.3198 8.168C61.2558 7.832 61.1118 7.608 60.8878 7.496ZM65.7598 6.248C66.2718 5.832 66.5278 6.088 66.5278 7.016C66.5278 7.4 66.4798 7.896 66.3838 8.504L66.2398 9.416L67.5598 9.344L68.9038 9.272V9.872C68.9038 10.144 68.8558 10.312 68.7598 10.376C68.6638 10.424 68.3678 10.48 67.8718 10.544C67.0078 10.64 66.4878 10.776 66.3118 10.952C66.1358 11.128 66.0718 11.568 66.1198 12.272C66.1678 12.864 66.1758 13.224 66.1438 13.352C66.1118 13.464 65.9758 13.544 65.7358 13.592C65.3838 13.656 65.1758 13.632 65.1118 13.52C65.0158 13.376 64.9838 12.536 65.0158 11C65.0478 9.448 65.1198 8.36 65.2318 7.736C65.3758 6.904 65.5518 6.408 65.7598 6.248ZM59.1358 11.576C59.2318 11.48 59.4078 11.456 59.6638 11.504C59.9198 11.536 60.0638 11.768 60.0958 12.2C60.1278 12.488 60.1758 12.656 60.2398 12.704C60.3038 12.752 60.4718 12.752 60.7438 12.704C60.9998 12.64 61.5998 12.56 62.5438 12.464C63.1358 12.416 63.4798 12.408 63.5758 12.44C63.6718 12.472 63.7198 12.6 63.7198 12.824C63.7198 13.08 63.6078 13.304 63.3838 13.496C63.1758 13.672 62.9598 13.736 62.7358 13.688C62.5918 13.672 62.2638 13.712 61.7518 13.808C61.2398 13.888 60.8238 13.984 60.5038 14.096C59.2398 14.512 58.4718 14.744 58.1998 14.792C57.9278 14.84 57.7038 14.784 57.5278 14.624C57.3998 14.48 57.3358 14.376 57.3358 14.312C57.3358 14.232 57.4078 14.112 57.5518 13.952C57.7758 13.728 58.0798 13.56 58.4638 13.448C58.7198 13.4 58.8718 13.328 58.9198 13.232C58.9838 13.136 59.0158 12.904 59.0158 12.536C59.0158 11.976 59.0558 11.656 59.1358 11.576ZM63.0718 15.344C64.2878 15.184 65.0398 15.104 65.3278 15.104C65.6318 15.088 65.8398 15.152 65.9518 15.296C66.0798 15.456 66.1358 16.224 66.1198 17.6L66.0958 19.64L65.5678 19.784C65.2478 19.864 65.0478 19.8 64.9678 19.592C64.8878 19.384 64.8318 18.784 64.7998 17.792L64.7518 16.448L63.8398 16.496C63.1998 16.512 62.5998 16.632 62.0398 16.856C61.1598 17.16 60.6558 17.144 60.5278 16.808C60.4478 16.616 60.5518 16.352 60.8398 16.016C60.9358 15.888 61.0558 15.792 61.1998 15.728C61.3598 15.664 61.5758 15.608 61.8478 15.56C62.1358 15.496 62.5438 15.424 63.0718 15.344ZM72.3722 4.76C72.8202 4.552 73.3642 4.48 74.0042 4.544C74.6602 4.592 75.1962 4.76 75.6122 5.048C76.1082 5.368 76.5082 5.872 76.8122 6.56C77.1162 7.248 77.2682 7.952 77.2682 8.672C77.2682 9.184 77.2362 9.552 77.1722 9.776C77.1082 10 76.9482 10.264 76.6922 10.568C76.3082 11.032 75.7882 11.368 75.1322 11.576C74.4762 11.784 73.7642 11.84 72.9962 11.744C72.5482 11.68 72.2122 11.6 71.9882 11.504C71.7642 11.408 71.5322 11.232 71.2922 10.976C70.4922 10.144 70.0922 9.224 70.0922 8.216C70.0922 7.464 70.2922 6.784 70.6922 6.176C71.0922 5.552 71.6522 5.08 72.3722 4.76ZM74.7002 5.84C74.3322 5.68 74.0122 5.624 73.7402 5.672C73.4842 5.72 73.1162 5.904 72.6362 6.224C72.0122 6.656 71.6042 7.104 71.4122 7.568C71.3002 7.888 71.2442 8.128 71.2442 8.288C71.2602 8.448 71.3642 8.72 71.5562 9.104C71.8442 9.696 72.1562 10.088 72.4922 10.28C72.8282 10.472 73.3082 10.544 73.9322 10.496C74.3322 10.448 74.6362 10.384 74.8442 10.304C75.0682 10.208 75.3082 10.048 75.5642 9.824C75.8202 9.568 75.9882 9.36 76.0682 9.2C76.1482 9.024 76.1882 8.784 76.1882 8.48C76.1562 8.016 75.9802 7.496 75.6602 6.92C75.3402 6.344 75.0202 5.984 74.7002 5.84ZM79.5722 5.528C79.6362 5.368 79.8202 5.272 80.1242 5.24C80.4442 5.208 80.6522 5.256 80.7482 5.384C80.8122 5.528 80.7802 6.424 80.6522 8.072C80.5242 9.72 80.5162 10.96 80.6282 11.792C80.7082 12.368 80.7322 12.728 80.7002 12.872C80.6842 13 80.5642 13.136 80.3402 13.28C79.9562 13.536 79.7162 13.528 79.6202 13.256C79.4922 12.936 79.4282 11.68 79.4282 9.488C79.4602 7.056 79.5082 5.736 79.5722 5.528ZM74.1002 14.144C74.2442 13.984 74.4762 13.92 74.7962 13.952C75.0362 13.984 75.1722 14.064 75.2042 14.192C75.2362 14.304 75.2442 14.696 75.2282 15.368C75.1802 16.28 75.2202 16.736 75.3482 16.736C75.5242 16.736 76.3882 16.64 77.9402 16.448C78.9162 16.304 79.5722 16.232 79.9082 16.232C80.2442 16.232 80.4362 16.28 80.4842 16.376C80.6922 16.712 80.6602 16.96 80.3882 17.12C80.1322 17.296 79.5562 17.472 78.6602 17.648C75.8282 18.096 74.3322 18.184 74.1722 17.912C74.0442 17.72 73.9722 17.08 73.9562 15.992C73.9402 14.904 73.9882 14.288 74.1002 14.144ZM84.831 4.616C84.799 4.088 84.799 3.776 84.831 3.68C84.879 3.584 85.023 3.536 85.263 3.536C85.935 3.536 86.183 4.248 86.007 5.672L85.887 6.752L86.703 6.728C87.327 6.712 87.799 6.664 88.119 6.584C88.311 6.536 88.503 6.52 88.695 6.536C88.887 6.536 89.055 6.568 89.199 6.632C89.343 6.68 89.463 6.76 89.559 6.872C89.671 6.984 89.743 7.104 89.775 7.232C89.823 7.552 89.743 7.76 89.535 7.856C89.343 7.952 89.039 7.944 88.623 7.832C88.191 7.72 87.727 7.728 87.231 7.856C86.735 8 86.111 8.104 85.359 8.168C84.559 8.264 83.983 8.392 83.631 8.552C83.295 8.728 82.927 8.816 82.527 8.816C82.303 8.816 82.151 8.792 82.071 8.744C82.007 8.68 81.975 8.552 81.975 8.36C81.975 8.056 82.079 7.84 82.287 7.712C82.495 7.568 82.943 7.432 83.631 7.304C84.223 7.176 84.567 7.072 84.663 6.992C84.775 6.912 84.839 6.704 84.855 6.368C84.855 5.6 84.847 5.016 84.831 4.616ZM94.527 6.968C94.575 6.808 94.775 6.752 95.127 6.8L95.631 6.848L95.583 8.24C95.535 9.12 95.455 10.224 95.343 11.552C95.199 12.816 95.175 13.856 95.271 14.672C95.319 15.264 95.327 15.632 95.295 15.776C95.279 15.904 95.159 16.016 94.935 16.112C94.631 16.256 94.407 16.28 94.263 16.184C94.135 16.088 94.055 15.4 94.023 14.12C93.991 13.032 93.911 12.392 93.783 12.2C93.671 11.992 93.359 12.008 92.847 12.248L92.271 12.56L92.367 14.12C92.431 14.776 92.447 15.216 92.415 15.44C92.399 15.664 92.327 15.824 92.199 15.92C91.815 16.224 91.487 16.224 91.215 15.92C91.071 15.712 91.031 14.392 91.095 11.96C91.143 10.136 91.215 8.936 91.311 8.36C91.407 7.784 91.591 7.496 91.863 7.496C92.135 7.496 92.319 7.648 92.415 7.952C92.511 8.24 92.551 8.728 92.535 9.416L92.463 10.808L93.015 10.856C93.367 10.888 93.623 10.856 93.783 10.76C93.959 10.664 94.087 10.472 94.167 10.184C94.247 9.896 94.311 9.44 94.359 8.816C94.423 7.712 94.479 7.096 94.527 6.968ZM85.287 9.536C85.671 9.312 86.023 9.208 86.343 9.224C86.679 9.224 87.095 9.36 87.591 9.632C88.775 10.224 89.399 11.104 89.463 12.272C89.495 12.704 89.479 13.032 89.415 13.256C89.367 13.464 89.199 13.776 88.911 14.192C88.479 14.848 88.079 15.296 87.711 15.536C87.343 15.76 86.887 15.864 86.343 15.848C85.079 15.8 84.159 15.352 83.583 14.504C83.023 13.64 82.991 12.648 83.487 11.528C83.695 11.016 83.935 10.616 84.207 10.328C84.479 10.024 84.839 9.76 85.287 9.536ZM87.351 10.712C86.983 10.568 86.671 10.512 86.415 10.544C86.175 10.576 85.887 10.712 85.551 10.952C85.183 11.192 84.895 11.544 84.687 12.008C84.479 12.472 84.423 12.88 84.519 13.232C84.583 13.536 84.703 13.8 84.879 14.024C85.055 14.232 85.263 14.392 85.503 14.504C85.743 14.616 86.007 14.672 86.295 14.672C86.599 14.672 86.831 14.632 86.991 14.552C87.151 14.472 87.351 14.288 87.591 14C87.991 13.536 88.223 13.112 88.287 12.728C88.367 12.36 88.303 11.96 88.095 11.528C87.887 11.096 87.639 10.824 87.351 10.712ZM100.194 4.424C101.746 4.248 102.73 4.16 103.146 4.16C103.562 4.144 103.826 4.208 103.938 4.352C104.05 4.496 104.05 4.68 103.938 4.904C103.842 5.112 103.554 5.544 103.074 6.2L102.45 7.016L102.882 7.352C103.17 7.576 103.362 7.688 103.458 7.688C103.538 7.688 103.834 7.848 104.346 8.168C104.842 8.52 105.09 8.832 105.09 9.104C105.09 9.744 104.474 9.688 103.242 8.936C102.97 8.76 102.778 8.64 102.666 8.576C102.554 8.512 102.41 8.44 102.234 8.36C102.058 8.28 101.938 8.232 101.874 8.216C101.826 8.184 101.73 8.176 101.586 8.192C101.442 8.208 101.346 8.232 101.298 8.264C101.266 8.296 101.178 8.368 101.034 8.48C100.906 8.576 100.802 8.672 100.722 8.768C100.642 8.848 100.514 8.992 100.338 9.2C99.9224 9.648 99.6104 9.952 99.4024 10.112C99.1944 10.272 99.0104 10.336 98.8504 10.304C98.3384 10.224 98.2344 9.936 98.5384 9.44C98.7784 9.072 99.2984 8.488 100.098 7.688C101.538 6.248 102.114 5.496 101.826 5.432C101.794 5.416 101.762 5.408 101.73 5.408C101.618 5.408 100.85 5.544 99.4264 5.816C98.5144 5.976 97.9064 6.064 97.6024 6.08C97.3144 6.096 97.1144 6.048 97.0024 5.936C96.8264 5.76 96.7784 5.568 96.8584 5.36C96.9544 5.136 97.1384 4.976 97.4104 4.88C97.6344 4.784 98.5624 4.632 100.194 4.424ZM104.178 11.912C104.53 11.72 104.85 11.656 105.138 11.72C105.442 11.784 105.65 11.968 105.762 12.272C105.858 12.512 105.874 12.704 105.81 12.848C105.746 12.976 105.602 13.072 105.378 13.136C105.17 13.184 104.866 13.192 104.466 13.16C103.778 13.144 103.386 13.216 103.29 13.376C103.178 13.552 103.122 14.36 103.122 15.8C103.122 16.872 103.098 17.504 103.05 17.696C103.018 17.888 102.89 18 102.666 18.032C102.362 18.08 102.162 18.016 102.066 17.84C101.938 17.632 101.898 16.88 101.946 15.584C101.962 14.24 101.946 13.528 101.898 13.448C101.85 13.4 101.314 13.44 100.29 13.568C98.9944 13.728 98.1944 13.8 97.8904 13.784C97.5864 13.768 97.4184 13.64 97.3864 13.4C97.3704 13.304 97.4024 13.184 97.4824 13.04C97.5624 12.896 97.6504 12.776 97.7464 12.68C97.9544 12.504 98.3224 12.384 98.8504 12.32C99.3944 12.256 100.514 12.216 102.21 12.2C103.234 12.168 103.89 12.072 104.178 11.912ZM110.318 6.704C110.494 6.48 110.67 6.368 110.846 6.368C111.374 6.368 111.374 6.88 110.846 7.904C110.814 7.968 110.782 8.024 110.75 8.072C110.35 8.792 110.15 9.28 110.15 9.536C110.15 9.728 110.558 10.336 111.374 11.36C112.75 12.992 113.006 13.776 112.142 13.712C112.126 13.712 112.11 13.704 112.094 13.688C111.758 13.656 111.254 13.192 110.582 12.296C109.894 11.416 109.494 10.96 109.382 10.928C109.286 10.896 109.126 11.112 108.902 11.576C108.694 12.04 108.55 12.504 108.47 12.968C108.406 13.256 108.334 13.44 108.254 13.52C108.19 13.6 108.046 13.64 107.822 13.64C107.31 13.64 107.046 13.488 107.03 13.184C107.014 12.864 107.238 12.248 107.702 11.336C108.982 8.792 109.854 7.248 110.318 6.704ZM116.006 6.656C116.15 6.48 116.278 6.392 116.39 6.392C116.502 6.392 116.662 6.488 116.87 6.68C117.062 6.872 117.118 7.08 117.038 7.304C116.926 7.528 116.838 8.872 116.774 11.336C116.742 13.096 116.702 14.168 116.654 14.552C116.622 14.92 116.518 15.152 116.342 15.248C115.99 15.44 115.758 15.36 115.646 15.008C115.566 14.688 115.518 13.928 115.502 12.728C115.47 11.192 115.382 10.408 115.238 10.376C115.094 10.328 114.718 10.4 114.11 10.592C112.814 11.024 112.102 10.992 111.974 10.496C111.91 10.24 111.91 10.032 111.974 9.872C112.022 9.728 112.342 9.584 112.934 9.44C113.526 9.28 114.142 9.176 114.782 9.128L115.526 9.104L115.646 8.024C115.742 7.272 115.862 6.816 116.006 6.656ZM119.198 6.704C119.198 6.624 119.278 6.576 119.438 6.56C119.598 6.544 119.766 6.568 119.942 6.632C120.118 6.68 120.246 6.752 120.326 6.848C120.486 7.04 120.526 7.336 120.446 7.736C120.382 8.12 120.342 9.488 120.326 11.84C120.31 12.784 120.286 13.512 120.254 14.024C120.238 14.52 120.198 14.928 120.134 15.248C120.07 15.568 119.99 15.776 119.894 15.872C119.798 15.952 119.654 15.992 119.462 15.992C119.254 15.992 119.126 15.688 119.078 15.08C119.03 14.472 119.038 13.104 119.102 10.976C119.102 10.672 119.102 10.36 119.102 10.04C119.118 9.72 119.126 9.424 119.126 9.152C119.142 8.88 119.15 8.616 119.15 8.36C119.166 8.104 119.174 7.88 119.174 7.688C119.19 7.496 119.198 7.328 119.198 7.184C119.198 7.04 119.198 6.928 119.198 6.848C119.198 6.752 119.198 6.704 119.198 6.704ZM124.03 3.68C124.606 3.472 125.158 3.408 125.686 3.488C126.23 3.552 126.734 3.768 127.198 4.136C127.678 4.504 128.07 5 128.374 5.624C128.678 6.216 128.822 6.768 128.806 7.28C128.806 7.792 128.646 8.36 128.326 8.984C128.07 9.496 127.766 9.88 127.414 10.136C127.062 10.376 126.614 10.536 126.07 10.616C125.158 10.744 124.294 10.568 123.478 10.088C122.662 9.608 122.142 8.992 121.918 8.24C121.598 7.216 121.63 6.304 122.014 5.504C122.398 4.704 123.07 4.096 124.03 3.68ZM125.974 4.664C125.814 4.664 125.638 4.632 125.446 4.568C125.158 4.472 124.702 4.648 124.078 5.096C123.454 5.544 123.078 5.976 122.95 6.392C122.902 6.552 122.894 6.744 122.926 6.968C122.958 7.176 123.014 7.392 123.094 7.616C123.174 7.824 123.278 8.032 123.406 8.24C123.55 8.448 123.702 8.624 123.862 8.768C124.47 9.312 125.086 9.56 125.71 9.512C126.334 9.464 126.83 9.136 127.198 8.528C127.79 7.568 127.694 6.568 126.91 5.528C126.446 4.952 126.134 4.664 125.974 4.664ZM126.982 12.128C127.11 11.824 127.27 11.672 127.462 11.672C127.67 11.656 127.846 11.808 127.99 12.128C128.118 12.432 128.102 12.96 127.942 13.712C127.782 14.432 127.75 14.872 127.846 15.032C127.926 15.176 128.406 15.248 129.286 15.248C129.894 15.248 130.27 15.272 130.414 15.32C130.574 15.352 130.694 15.464 130.774 15.656C130.886 15.992 130.846 16.224 130.654 16.352C130.478 16.48 130.078 16.536 129.454 16.52C128.958 16.504 128.342 16.536 127.606 16.616C126.886 16.68 126.374 16.752 126.07 16.832C125.926 16.88 125.558 16.952 124.966 17.048C124.39 17.16 123.822 17.264 123.262 17.36C122.702 17.456 122.366 17.504 122.254 17.504C122.062 17.504 121.918 17.376 121.822 17.12C121.726 16.864 121.75 16.648 121.894 16.472C122.022 16.312 122.334 16.192 122.83 16.112L123.526 16.016V14.48C123.542 13.632 123.606 13.096 123.718 12.872C123.83 12.632 124.07 12.56 124.438 12.656C124.662 12.72 124.79 12.824 124.822 12.968C124.87 13.096 124.886 13.496 124.87 14.168L124.822 15.512L125.758 15.584C126.35 15.616 126.646 15.584 126.646 15.488C126.646 15.056 126.662 14.6 126.694 14.12C126.742 13.64 126.79 13.224 126.838 12.872C126.902 12.52 126.95 12.272 126.982 12.128ZM132.518 15.176C132.758 15.064 132.958 15.024 133.118 15.056C133.294 15.072 133.486 15.176 133.694 15.368C133.87 15.512 133.982 15.632 134.03 15.728C134.078 15.808 134.102 15.936 134.102 16.112C134.102 16.896 133.702 17.288 132.902 17.288C132.79 17.288 132.694 17.28 132.614 17.264C132.55 17.248 132.494 17.216 132.446 17.168C132.398 17.136 132.334 17.08 132.254 17C132.094 16.808 132.014 16.528 132.014 16.16C132.014 15.872 132.046 15.664 132.11 15.536C132.174 15.408 132.31 15.288 132.518 15.176Z" fill="#ADADAD"/>
</svg>
