<svg width="140" height="90" viewBox="0 0 156 102" fill="none" xmlns="http://www.w3.org/2000/svg">
<path d="M11.9115 36.0976L139.233 14.6741L139.707 19.6504L12.6093 41.1447L11.9115 36.0976Z" fill="#BABAE5"/>
<path d="M12.046 62.3028L140.996 68.8364L140.89 63.8389L12.1523 57.2097L12.046 62.3028Z" fill="#BABAE5"/>
<path d="M23.0402 23.3666L42.1311 22.3508L42.9209 71.1122L23.0402 71.3387V23.3666Z" fill="#EA685E"/>
<path d="M34.647 35.011C34.647 36.094 33.7686 36.9718 32.6848 36.9718C31.6009 36.9718 30.7225 36.094 30.7225 35.011C30.7225 33.9279 31.6009 33.0502 32.6848 33.0502C33.7686 33.0502 34.647 33.9279 34.647 35.011Z" fill="#DDDDDD"/>
<path d="M34.647 60.296C34.647 61.379 33.7686 62.2568 32.6848 62.2568C31.6009 62.2568 30.7225 61.379 30.7225 60.296C30.7225 59.213 31.6009 58.3352 32.6848 58.3352C33.7686 58.3352 34.647 59.213 34.647 60.296Z" fill="#DDDDDD"/>
<path d="M48.092 17.1693L49.6611 75.5151L72.1416 74.9524L70.7851 16.2561L48.092 17.1693Z" fill="#B7DCC7"/>
<path d="M61.5513 29.8684C61.5513 30.9514 60.6729 31.8292 59.5891 31.8292C58.5052 31.8292 57.6268 30.9514 57.6268 29.8684C57.6268 28.7853 58.5052 27.9076 59.5891 27.9076C60.6729 27.9076 61.5513 28.7853 61.5513 29.8684Z" fill="#DDDDDD"/>
<path d="M60.5701 64.2176C61.6538 64.2176 62.5324 63.3397 62.5324 62.2568C62.5324 61.1739 61.6538 60.296 60.5701 60.296C59.4864 60.296 58.6079 61.1739 58.6079 62.2568C58.6079 63.3397 59.4864 64.2176 60.5701 64.2176Z" fill="#DDDDDD"/>
<path d="M77.3129 9.97737L79.1795 79.0156L102.79 78.421L100.08 9.14209L77.3129 9.97737Z" fill="#A2A0D8"/>
<path d="M91.2148 24.3116C91.2148 25.3947 90.3365 26.2724 89.2526 26.2724C88.1688 26.2724 87.2904 25.3947 87.2904 24.3116C87.2904 23.2286 88.1688 22.3508 89.2526 22.3508C90.3365 22.3508 91.2148 23.2286 91.2148 24.3116Z" fill="#DDDDDD"/>
<path d="M90.0495 65.8527C91.1332 65.8527 92.0117 64.9749 92.0117 63.8919C92.0117 62.809 91.1332 61.9312 90.0495 61.9312C88.9658 61.9312 88.0873 62.809 88.0873 63.8919C88.0873 64.9749 88.9658 65.8527 90.0495 65.8527Z" fill="#DDDDDD"/>
<path d="M105.425 1.6918L109.002 82.2895L132.836 81.8364L128.883 0L105.425 1.6918Z" fill="#806BB2"/>
<path d="M121.934 65.8529C121.934 66.9359 121.055 67.8137 119.972 67.8137C118.888 67.8137 118.009 66.9359 118.009 65.8529C118.009 64.7698 118.888 63.8921 119.972 63.8921C121.055 63.8921 121.934 64.7698 121.934 65.8529Z" fill="#DDDDDD"/>
<path d="M120.485 19.9265C120.485 21.0095 119.607 21.8873 118.523 21.8873C117.439 21.8873 116.561 21.0095 116.561 19.9265C116.561 18.8435 117.439 17.9657 118.523 17.9657C119.607 17.9657 120.485 18.8435 120.485 19.9265Z" fill="#DDDDDD"/>
<path d="M61.4982 39.2618C61.5124 40.7377 62.699 41.9234 64.1441 41.9092C65.5892 41.8951 66.7544 40.6846 66.7367 39.2052C66.7226 37.7293 65.536 36.5436 64.0909 36.5577C62.6423 36.5719 61.4805 37.7824 61.4982 39.2618Z" fill="white"/>
<path d="M61.1016 39.4282C61.1157 40.8191 62.2314 41.9376 63.5951 41.9199C64.9587 41.9057 66.0532 40.766 66.039 39.3751C66.0248 37.9841 64.9091 36.8657 63.5455 36.8834C62.1819 36.9011 61.0874 38.0372 61.1016 39.4282Z" fill="#403E3D"/>
<path d="M54.4002 39.3432C54.4144 40.8191 55.6009 42.0048 57.046 41.9906C58.4947 41.9765 59.6564 40.766 59.6387 39.2866C59.6245 37.8107 58.438 36.625 56.9929 36.6392C55.5443 36.6533 54.3825 37.8638 54.4002 39.3432Z" fill="white"/>
<path d="M53.9646 39.5308C53.9788 40.9218 55.0945 42.0402 56.4581 42.0225C57.8218 42.0084 58.9162 40.8687 58.902 39.4777C58.8879 38.0868 57.7722 36.9684 56.4085 36.986C55.0449 37.0002 53.9504 38.1399 53.9646 39.5308Z" fill="#403E3D"/>
<path d="M60.6057 42.2101C60.6057 42.2101 59.3554 43.0418 60.3329 43.9833C60.3329 43.9833 59.1853 44.9601 60.6057 45.7317" stroke="#403E3D" stroke-width="2" stroke-linecap="round" stroke-linejoin="round"/>
<path d="M33.3116 48.0712C33.3258 49.678 34.615 50.9628 36.1876 50.9487C37.7602 50.9345 39.0247 49.6179 39.007 48.011C38.9928 46.4042 37.7036 45.1194 36.1309 45.1335C34.5583 45.1512 33.2939 46.4643 33.3116 48.0712Z" fill="white"/>
<path d="M33.9775 47.9048C33.9917 49.4161 35.2065 50.6301 36.6906 50.616C38.1747 50.5983 39.3647 49.3595 39.347 47.8482C39.3329 46.3369 38.118 45.1229 36.6339 45.1371C35.1499 45.1512 33.9598 46.3936 33.9775 47.9048Z" fill="#403E3D"/>
<path d="M25.5938 48.1597C25.608 49.7665 26.8972 51.0513 28.4698 51.0372C30.0425 51.0195 31.3069 49.7064 31.2892 48.0995C31.275 46.4927 29.9858 45.2079 28.4132 45.222C26.8406 45.2397 25.5761 46.5528 25.5938 48.1597Z" fill="white"/>
<path d="M26.3695 48.0677C26.3837 49.579 27.5986 50.793 29.0826 50.7788C30.5667 50.7611 31.7568 49.5223 31.739 48.0111C31.7249 46.4998 30.51 45.2858 29.0295 45.2999C27.549 45.3141 26.3553 46.5564 26.373 48.0677H26.3695Z" fill="#403E3D"/>
<path d="M30.301 52.7042C30.301 52.7042 32.118 54.3606 34.3211 52.7113" stroke="#403E3D" stroke-width="2" stroke-linecap="round" stroke-linejoin="round"/>
<path d="M30.5419 51.8512L29.8618 53.1961" stroke="#403E3D" stroke-width="2" stroke-linecap="round" stroke-linejoin="round"/>
<path d="M91.0696 49.5294C91.0838 51.1363 92.3731 52.4211 93.9457 52.4069C95.5183 52.3892 96.7828 51.0761 96.765 49.4693C96.7509 47.8624 95.4616 46.5776 93.889 46.5918C92.3164 46.6095 91.0519 47.9226 91.0696 49.5294Z" fill="white"/>
<path d="M91.2326 48.8499C91.2468 50.3612 92.4617 51.5752 93.9422 51.561C95.4227 51.5469 96.6163 50.3046 96.5986 48.7933C96.5845 47.282 95.3696 46.068 93.8855 46.0822C92.4015 46.0999 91.2114 47.3386 91.2291 48.8499H91.2326Z" fill="#403E3D"/>
<path d="M83.3519 49.6179C83.366 51.2248 84.6553 52.5096 86.2279 52.4954C87.8005 52.4777 89.065 51.1646 89.0473 49.5578C89.0331 47.9509 87.7438 46.6661 86.1712 46.6803C84.5986 46.698 83.3342 48.0111 83.3519 49.6179Z" fill="white"/>
<path d="M83.5255 48.7472C83.5396 50.2585 84.7545 51.4725 86.2386 51.4584C87.7226 51.4442 88.9127 50.2019 88.895 48.6906C88.8808 47.1793 87.666 45.9653 86.1819 45.9795C84.6978 45.9972 83.5078 47.236 83.5255 48.7472Z" fill="#403E3D"/>
<path d="M91.5124 54.4632C91.5124 55.249 90.9669 55.8825 90.294 55.8825C89.621 55.8825 89.0756 55.2454 89.0756 54.4632C89.0756 53.681 89.621 53.0439 90.294 53.0439C90.9669 53.0439 91.5124 53.681 91.5124 54.4632Z" fill="#A2A0D8" stroke="#403E3D" stroke-width="2" stroke-linecap="round" stroke-linejoin="round"/>
<path d="M120.067 40.4581C120.152 42.0614 121.495 43.2931 123.067 43.2082C124.64 43.1232 125.844 41.7535 125.759 40.1502C125.674 38.5469 124.332 37.3152 122.759 37.4001C121.186 37.4851 119.982 38.8548 120.067 40.4581Z" fill="white"/>
<path d="M119.805 40.4511C119.887 41.9624 121.151 43.1233 122.632 43.0419C124.112 42.9605 125.246 41.6722 125.168 40.1609C125.086 38.6496 123.822 37.4887 122.341 37.5701C120.861 37.6515 119.727 38.9398 119.805 40.4511Z" fill="#403E3D"/>
<path d="M112.36 40.8793C112.445 42.4826 113.787 43.7143 115.36 43.6293C116.933 43.5444 118.137 42.1747 118.052 40.5713C117.967 38.968 116.625 37.7363 115.052 37.8213C113.479 37.9062 112.275 39.2759 112.36 40.8793Z" fill="white"/>
<path d="M112.271 40.8793C112.353 42.3906 113.617 43.5515 115.098 43.4701C116.578 43.3887 117.712 42.1004 117.634 40.5891C117.552 39.0778 116.288 37.9169 114.807 37.9983C113.327 38.0797 112.194 39.368 112.271 40.8793Z" fill="#403E3D"/>
<path d="M115.615 45.3459C115.615 45.3459 118.672 49.1472 123.411 44.7124" stroke="#403E3D" stroke-width="2" stroke-linecap="round" stroke-linejoin="round"/>
<path d="M115.824 44.631L115.07 45.7883" stroke="#403E3D" stroke-width="2" stroke-linecap="round" stroke-linejoin="round"/>
<path d="M123.138 44.1461L123.896 45.2787" stroke="#403E3D" stroke-width="2" stroke-linecap="round" stroke-linejoin="round"/>
</svg>
