<svg width="14" height="14" viewBox="0 0 25 24" fill="none" xmlns="http://www.w3.org/2000/svg">
<path d="M22.2237 14.6707C23.7016 9.37617 20.5755 3.90466 15.2757 2.43043C9.9759 0.956198 4.46584 4.0254 2.98799 9.3199C1.51015 14.6144 4.63626 20.0859 9.93604 21.5601C15.2358 23.0344 20.7459 19.9652 22.2237 14.6707Z" fill="#EB8888" stroke="#FBFBFB" stroke-width="4"/>
<path d="M10.2048 11.0627C10.9445 11.2163 11.1836 10.0746 10.4419 9.92061C9.70034 9.76662 9.46319 10.9088 10.2048 11.0627Z" fill="#392826"/>
<path d="M14.8015 11.1436C15.5412 11.2971 15.7802 10.1554 15.0386 10.0014C14.297 9.84743 14.0599 10.9896 14.8015 11.1436Z" fill="#392826"/>
<path d="M10.6002 12.6817C11.0151 13.4172 11.8213 13.8765 12.6571 13.9329C13.5497 13.9951 14.5382 13.5471 14.7966 12.6397C14.8997 12.2779 14.3245 12.1604 14.2217 12.5203C14.0386 13.1614 13.2155 13.4194 12.6146 13.3482C11.9769 13.2714 11.4057 12.9224 11.0883 12.3621C10.9026 12.0337 10.4141 12.3552 10.5983 12.6813L10.6002 12.6817Z" fill="#392826"/>
</svg>
